<?xml version="1.0" encoding="utf-8" standalone="no"?>
<!DOCTYPE svg PUBLIC "-//W3C//DTD SVG 1.1//EN"
  "http://www.w3.org/Graphics/SVG/1.1/DTD/svg11.dtd">
<svg xmlns:xlink="http://www.w3.org/1999/xlink" width="288pt" height="216pt" viewBox="0 0 288 216" xmlns="http://www.w3.org/2000/svg" version="1.1">
 <metadata>
  <rdf:RDF xmlns:dc="http://purl.org/dc/elements/1.1/" xmlns:cc="http://creativecommons.org/ns#" xmlns:rdf="http://www.w3.org/1999/02/22-rdf-syntax-ns#">
   <cc:Work>
    <dc:type rdf:resource="http://purl.org/dc/dcmitype/StillImage"/>
    <dc:date>2024-06-20T18:09:02.764272</dc:date>
    <dc:format>image/svg+xml</dc:format>
    <dc:creator>
     <cc:Agent>
      <dc:title>Matplotlib v3.7.2, https://matplotlib.org/</dc:title>
     </cc:Agent>
    </dc:creator>
   </cc:Work>
  </rdf:RDF>
 </metadata>
 <defs>
  <style type="text/css">*{stroke-linejoin: round; stroke-linecap: butt}</style>
 </defs>
 <g id="figure_1">
  <g id="patch_1">
   <path d="M 0 216 
L 288 216 
L 288 0 
L 0 0 
L 0 216 
z
" style="fill: none"/>
  </g>
  <g id="axes_1">
   <g id="patch_2">
    <path d="M 64.938 161.7 
L 270.72 161.7 
L 270.72 17.28 
L 64.938 17.28 
L 64.938 161.7 
z
" style="fill: none"/>
   </g>
   <g id="matplotlib.axis_1">
    <g id="xtick_1">
     <g id="line2d_1">
      <defs>
       <path id="m4da029f599" d="M 0 0 
L 0 -3.5 
" style="stroke: #000000; stroke-width: 0.8"/>
      </defs>
      <g>
       <use xlink:href="#m4da029f599" x="64.938" y="161.7" style="stroke: #000000; stroke-width: 0.8"/>
      </g>
     </g>
     <g id="text_1">
      <!-- 0 -->
      <g transform="translate(60.48925 176.6525) scale(0.16 -0.16)">
       <defs>
        <path id="ArialMT-30" d="M 266 2259 
Q 266 3072 433 3567 
Q 600 4063 929 4331 
Q 1259 4600 1759 4600 
Q 2128 4600 2406 4451 
Q 2684 4303 2865 4023 
Q 3047 3744 3150 3342 
Q 3253 2941 3253 2259 
Q 3253 1453 3087 958 
Q 2922 463 2592 192 
Q 2263 -78 1759 -78 
Q 1097 -78 719 397 
Q 266 969 266 2259 
z
M 844 2259 
Q 844 1131 1108 757 
Q 1372 384 1759 384 
Q 2147 384 2411 759 
Q 2675 1134 2675 2259 
Q 2675 3391 2411 3762 
Q 2147 4134 1753 4134 
Q 1366 4134 1134 3806 
Q 844 3388 844 2259 
z
" transform="scale(0.015625)"/>
       </defs>
       <use xlink:href="#ArialMT-30"/>
      </g>
     </g>
    </g>
    <g id="xtick_2">
     <g id="line2d_2">
      <g>
       <use xlink:href="#m4da029f599" x="147.2508" y="161.7" style="stroke: #000000; stroke-width: 0.8"/>
      </g>
     </g>
     <g id="text_2">
      <!-- 200 -->
      <g transform="translate(133.90455 176.6525) scale(0.16 -0.16)">
       <defs>
        <path id="ArialMT-32" d="M 3222 541 
L 3222 0 
L 194 0 
Q 188 203 259 391 
Q 375 700 629 1000 
Q 884 1300 1366 1694 
Q 2113 2306 2375 2664 
Q 2638 3022 2638 3341 
Q 2638 3675 2398 3904 
Q 2159 4134 1775 4134 
Q 1369 4134 1125 3890 
Q 881 3647 878 3216 
L 300 3275 
Q 359 3922 746 4261 
Q 1134 4600 1788 4600 
Q 2447 4600 2831 4234 
Q 3216 3869 3216 3328 
Q 3216 3053 3103 2787 
Q 2991 2522 2730 2228 
Q 2469 1934 1863 1422 
Q 1356 997 1212 845 
Q 1069 694 975 541 
L 3222 541 
z
" transform="scale(0.015625)"/>
       </defs>
       <use xlink:href="#ArialMT-32"/>
       <use xlink:href="#ArialMT-30" x="55.615234"/>
       <use xlink:href="#ArialMT-30" x="111.230469"/>
      </g>
     </g>
    </g>
    <g id="xtick_3">
     <g id="line2d_3">
      <g>
       <use xlink:href="#m4da029f599" x="229.5636" y="161.7" style="stroke: #000000; stroke-width: 0.8"/>
      </g>
     </g>
     <g id="text_3">
      <!-- 400 -->
      <g transform="translate(216.21735 176.6525) scale(0.16 -0.16)">
       <defs>
        <path id="ArialMT-34" d="M 2069 0 
L 2069 1097 
L 81 1097 
L 81 1613 
L 2172 4581 
L 2631 4581 
L 2631 1613 
L 3250 1613 
L 3250 1097 
L 2631 1097 
L 2631 0 
L 2069 0 
z
M 2069 1613 
L 2069 3678 
L 634 1613 
L 2069 1613 
z
" transform="scale(0.015625)"/>
       </defs>
       <use xlink:href="#ArialMT-34"/>
       <use xlink:href="#ArialMT-30" x="55.615234"/>
       <use xlink:href="#ArialMT-30" x="111.230469"/>
      </g>
     </g>
    </g>
    <g id="text_4">
     <!-- $t$ -->
     <g transform="translate(164.629 195.285) scale(0.16 -0.16)">
      <defs>
       <path id="DejaVuSans-Oblique-74" d="M 2706 3500 
L 2619 3053 
L 1472 3053 
L 1100 1153 
Q 1081 1047 1072 975 
Q 1063 903 1063 863 
Q 1063 663 1183 572 
Q 1303 481 1569 481 
L 2150 481 
L 2053 0 
L 1503 0 
Q 991 0 739 200 
Q 488 400 488 806 
Q 488 878 497 964 
Q 506 1050 525 1153 
L 897 3053 
L 409 3053 
L 500 3500 
L 978 3500 
L 1172 4494 
L 1747 4494 
L 1556 3500 
L 2706 3500 
z
" transform="scale(0.015625)"/>
      </defs>
      <use xlink:href="#DejaVuSans-Oblique-74" transform="translate(0 0.78125)"/>
     </g>
    </g>
   </g>
   <g id="matplotlib.axis_2">
    <g id="ytick_1">
     <g id="line2d_4">
      <defs>
       <path id="meda5be7702" d="M 0 0 
L 3.5 0 
" style="stroke: #000000; stroke-width: 0.8"/>
      </defs>
      <g>
       <use xlink:href="#meda5be7702" x="64.938" y="153.710291" style="stroke: #000000; stroke-width: 0.8"/>
      </g>
     </g>
     <g id="text_5">
      <!-- 0.50 -->
      <g transform="translate(30.3005 159.436541) scale(0.16 -0.16)">
       <defs>
        <path id="ArialMT-2e" d="M 581 0 
L 581 641 
L 1222 641 
L 1222 0 
L 581 0 
z
" transform="scale(0.015625)"/>
        <path id="ArialMT-35" d="M 266 1200 
L 856 1250 
Q 922 819 1161 601 
Q 1400 384 1738 384 
Q 2144 384 2425 690 
Q 2706 997 2706 1503 
Q 2706 1984 2436 2262 
Q 2166 2541 1728 2541 
Q 1456 2541 1237 2417 
Q 1019 2294 894 2097 
L 366 2166 
L 809 4519 
L 3088 4519 
L 3088 3981 
L 1259 3981 
L 1013 2750 
Q 1425 3038 1878 3038 
Q 2478 3038 2890 2622 
Q 3303 2206 3303 1553 
Q 3303 931 2941 478 
Q 2500 -78 1738 -78 
Q 1113 -78 717 272 
Q 322 622 266 1200 
z
" transform="scale(0.015625)"/>
       </defs>
       <use xlink:href="#ArialMT-30"/>
       <use xlink:href="#ArialMT-2e" x="55.615234"/>
       <use xlink:href="#ArialMT-35" x="83.398438"/>
       <use xlink:href="#ArialMT-30" x="139.013672"/>
      </g>
     </g>
    </g>
    <g id="ytick_2">
     <g id="line2d_5">
      <g>
       <use xlink:href="#meda5be7702" x="64.938" y="114.196507" style="stroke: #000000; stroke-width: 0.8"/>
      </g>
     </g>
     <g id="text_6">
      <!-- 0.75 -->
      <g transform="translate(30.3005 119.922757) scale(0.16 -0.16)">
       <defs>
        <path id="ArialMT-37" d="M 303 3981 
L 303 4522 
L 3269 4522 
L 3269 4084 
Q 2831 3619 2401 2847 
Q 1972 2075 1738 1259 
Q 1569 684 1522 0 
L 944 0 
Q 953 541 1156 1306 
Q 1359 2072 1739 2783 
Q 2119 3494 2547 3981 
L 303 3981 
z
" transform="scale(0.015625)"/>
       </defs>
       <use xlink:href="#ArialMT-30"/>
       <use xlink:href="#ArialMT-2e" x="55.615234"/>
       <use xlink:href="#ArialMT-37" x="83.398438"/>
       <use xlink:href="#ArialMT-35" x="139.013672"/>
      </g>
     </g>
    </g>
    <g id="ytick_3">
     <g id="line2d_6">
      <g>
       <use xlink:href="#meda5be7702" x="64.938" y="74.682722" style="stroke: #000000; stroke-width: 0.8"/>
      </g>
     </g>
     <g id="text_7">
      <!-- 1.00 -->
      <g transform="translate(30.3005 80.408972) scale(0.16 -0.16)">
       <defs>
        <path id="ArialMT-31" d="M 2384 0 
L 1822 0 
L 1822 3584 
Q 1619 3391 1289 3197 
Q 959 3003 697 2906 
L 697 3450 
Q 1169 3672 1522 3987 
Q 1875 4303 2022 4600 
L 2384 4600 
L 2384 0 
z
" transform="scale(0.015625)"/>
       </defs>
       <use xlink:href="#ArialMT-31"/>
       <use xlink:href="#ArialMT-2e" x="55.615234"/>
       <use xlink:href="#ArialMT-30" x="83.398438"/>
       <use xlink:href="#ArialMT-30" x="139.013672"/>
      </g>
     </g>
    </g>
    <g id="ytick_4">
     <g id="line2d_7">
      <g>
       <use xlink:href="#meda5be7702" x="64.938" y="35.168937" style="stroke: #000000; stroke-width: 0.8"/>
      </g>
     </g>
     <g id="text_8">
      <!-- 1.25 -->
      <g transform="translate(30.3005 40.895187) scale(0.16 -0.16)">
       <use xlink:href="#ArialMT-31"/>
       <use xlink:href="#ArialMT-2e" x="55.615234"/>
       <use xlink:href="#ArialMT-32" x="83.398438"/>
       <use xlink:href="#ArialMT-35" x="139.013672"/>
      </g>
     </g>
    </g>
    <g id="text_9">
     <!-- $r_i / r_0$ -->
     <g transform="translate(23.1205 104.37) rotate(-90) scale(0.16 -0.16)">
      <defs>
       <path id="DejaVuSans-Oblique-72" d="M 2853 2969 
Q 2766 3016 2653 3041 
Q 2541 3066 2413 3066 
Q 1953 3066 1609 2717 
Q 1266 2369 1153 1784 
L 800 0 
L 225 0 
L 909 3500 
L 1484 3500 
L 1375 2956 
Q 1603 3259 1920 3421 
Q 2238 3584 2597 3584 
Q 2691 3584 2781 3573 
Q 2872 3563 2963 3538 
L 2853 2969 
z
" transform="scale(0.015625)"/>
       <path id="DejaVuSans-Oblique-69" d="M 1172 4863 
L 1747 4863 
L 1606 4134 
L 1031 4134 
L 1172 4863 
z
M 909 3500 
L 1484 3500 
L 800 0 
L 225 0 
L 909 3500 
z
" transform="scale(0.015625)"/>
       <path id="DejaVuSans-2f" d="M 1625 4666 
L 2156 4666 
L 531 -594 
L 0 -594 
L 1625 4666 
z
" transform="scale(0.015625)"/>
       <path id="DejaVuSans-30" d="M 2034 4250 
Q 1547 4250 1301 3770 
Q 1056 3291 1056 2328 
Q 1056 1369 1301 889 
Q 1547 409 2034 409 
Q 2525 409 2770 889 
Q 3016 1369 3016 2328 
Q 3016 3291 2770 3770 
Q 2525 4250 2034 4250 
z
M 2034 4750 
Q 2819 4750 3233 4129 
Q 3647 3509 3647 2328 
Q 3647 1150 3233 529 
Q 2819 -91 2034 -91 
Q 1250 -91 836 529 
Q 422 1150 422 2328 
Q 422 3509 836 4129 
Q 1250 4750 2034 4750 
z
" transform="scale(0.015625)"/>
      </defs>
      <use xlink:href="#DejaVuSans-Oblique-72" transform="translate(0 0.09375)"/>
      <use xlink:href="#DejaVuSans-Oblique-69" transform="translate(41.113281 -16.3125) scale(0.7)"/>
      <use xlink:href="#DejaVuSans-2f" transform="translate(63.295898 0.09375)"/>
      <use xlink:href="#DejaVuSans-Oblique-72" transform="translate(96.987305 0.09375)"/>
      <use xlink:href="#DejaVuSans-30" transform="translate(138.100586 -16.3125) scale(0.7)"/>
     </g>
    </g>
   </g>
   <g id="line2d_8">
    <path d="M 64.938 74.682722 
L 270.72 74.682722 
L 270.72 74.682722 
" clip-path="url(#p36c48dab3e)" style="fill: none; stroke: #000000; stroke-width: 1.5; stroke-linecap: square"/>
   </g>
   <g id="line2d_9">
    <path d="M 64.938 23.844545 
L 65.086166 132.597646 
L 65.127323 130.998665 
L 65.41954 119.442543 
L 65.839343 110.22395 
L 66.193295 97.110217 
L 66.263263 96.920397 
L 66.316767 97.011135 
L 66.481396 97.884116 
L 67.864279 106.363452 
L 69.255393 114.230332 
L 69.918024 119.502761 
L 70.848177 127.196614 
L 70.856409 127.194148 
L 70.926376 127.035811 
L 71.053963 126.026524 
L 71.263865 122.209542 
L 71.942959 108.672905 
L 72.156977 108.011071 
L 72.272217 108.084686 
L 72.469772 108.593236 
L 72.88546 110.414742 
L 73.572785 114.481461 
L 74.22307 119.691056 
L 75.132644 127.178101 
L 75.13676 127.177462 
L 75.206727 127.038229 
L 75.330199 126.120047 
L 75.535985 122.527589 
L 76.248005 108.600742 
L 76.453791 108.050522 
L 76.569031 108.142744 
L 76.774817 108.69846 
L 77.206968 110.635436 
L 77.894294 114.773267 
L 78.544578 120.087408 
L 79.400648 127.175262 
L 79.4665 127.102069 
L 79.470615 127.09023 
L 79.58174 126.407198 
L 79.766947 123.586298 
L 80.614786 108.225978 
L 80.762952 108.05494 
L 80.783531 108.066172 
L 80.927581 108.311242 
L 81.219797 109.358519 
L 81.80423 112.401654 
L 82.483324 117.098166 
L 83.178881 123.62386 
L 83.635726 127.113111 
L 83.697462 127.176209 
L 83.746851 127.098686 
L 83.857975 126.434526 
L 84.043183 123.646335 
L 84.899253 108.210718 
L 85.043304 108.055438 
L 85.067998 108.070241 
L 85.216164 108.335611 
L 85.520727 109.454397 
L 86.121623 112.630343 
L 86.796601 117.376389 
L 87.520968 124.254059 
L 87.920193 127.124903 
L 87.977814 127.175744 
L 88.027202 127.095226 
L 88.138327 126.423251 
L 88.323534 123.62149 
L 89.175489 108.218987 
L 89.319539 108.05437 
L 89.344233 108.067983 
L 89.488284 108.317416 
L 89.784616 109.387081 
L 90.37728 112.489495 
L 91.056374 117.21793 
L 91.764278 123.896864 
L 92.196429 127.118603 
L 92.258165 127.175211 
L 92.303438 127.10342 
L 92.410446 126.487523 
L 92.591538 123.847597 
L 93.480534 108.15344 
L 93.604006 108.056439 
L 93.636932 108.079648 
L 93.793329 108.386793 
L 94.118471 109.632471 
L 94.744061 113.022177 
L 95.410808 117.842414 
L 96.530284 127.177349 
L 96.604367 127.03098 
L 96.727839 126.100139 
L 96.933625 122.487917 
L 97.64153 108.616096 
L 97.851431 108.051577 
L 97.966672 108.14686 
L 98.176573 108.720366 
L 98.616956 110.709593 
L 99.308397 114.901837 
L 99.954565 120.222991 
L 100.794173 127.174129 
L 100.851793 127.128059 
L 100.86414 127.096641 
L 100.975265 126.42784 
L 101.160472 123.63159 
L 102.016542 108.208715 
L 102.156477 108.054204 
L 102.185287 108.070821 
L 102.333453 108.337498 
L 102.638016 109.457586 
L 103.238912 112.634668 
L 103.91389 117.382289 
L 104.638257 124.261159 
L 105.037483 127.126406 
L 105.095103 127.175436 
L 105.144491 127.093135 
L 105.255616 126.41651 
L 105.440823 123.606696 
L 106.292778 108.216924 
L 106.436828 108.054621 
L 106.461522 108.068528 
L 106.605573 108.319253 
L 106.901905 109.390228 
L 107.494569 112.493779 
L 108.173663 117.223774 
L 108.881567 123.904063 
L 109.313718 127.120189 
L 109.375454 127.174861 
L 109.420727 127.101439 
L 109.531851 126.443618 
L 109.717059 123.666461 
L 110.577245 108.20207 
L 110.717179 108.055062 
L 110.741874 108.069465 
L 110.89004 108.333041 
L 111.190487 109.431806 
L 111.787267 112.574929 
L 112.462246 117.300835 
L 113.178381 124.080787 
L 113.594069 127.122814 
L 113.655805 127.174217 
L 113.701078 127.098042 
L 113.812202 126.432415 
L 113.99741 123.641676 
L 114.85348 108.210084 
L 114.997531 108.055529 
L 115.022225 108.070425 
L 115.170391 108.336208 
L 115.474954 109.455406 
L 116.07585 112.631711 
L 116.750828 117.378255 
L 117.475195 124.256305 
L 117.87442 127.12538 
L 117.932041 127.175649 
L 117.981429 127.094568 
L 118.092554 126.421122 
L 118.277761 123.616814 
L 119.129716 108.218333 
L 119.273766 108.054448 
L 119.29846 108.068155 
L 119.442511 108.317996 
L 119.738843 109.388076 
L 120.331507 112.49085 
L 121.010601 117.219778 
L 121.718505 123.899141 
L 122.150656 127.119107 
L 122.212392 127.175103 
L 122.257665 127.102796 
L 122.368789 126.448141 
L 122.549881 123.760234 
L 123.42653 108.171776 
L 123.558233 108.056538 
L 123.587043 108.07601 
L 123.739325 108.364699 
L 124.05212 109.539932 
L 124.665362 112.821143 
L 125.336225 117.602615 
L 126.101749 124.918324 
L 126.44747 127.15193 
L 126.496859 127.171866 
L 126.538016 127.099431 
L 126.64914 126.436975 
L 126.834348 123.65175 
L 127.694534 108.200128 
L 127.834468 108.055336 
L 127.859163 108.070032 
L 128.007329 108.33492 
L 128.307776 109.434981 
L 128.904556 112.579238 
L 129.579535 117.306708 
L 130.29567 124.08794 
L 130.711358 127.124345 
L 130.768978 127.175851 
L 130.818367 127.095988 
L 130.929492 126.425719 
L 131.114699 123.626919 
L 131.970769 108.208084 
L 132.110704 108.054281 
L 132.139514 108.071006 
L 132.28768 108.338095 
L 132.592243 109.458595 
L 133.193139 112.636037 
L 133.868117 117.384155 
L 134.592484 124.263404 
L 134.99171 127.126877 
L 135.04933 127.175333 
L 135.098718 127.092468 
L 135.209843 126.414371 
L 135.39505 123.602011 
L 136.247005 108.216275 
L 136.391055 108.054702 
L 136.415749 108.068702 
L 136.5598 108.319836 
L 136.856132 109.391224 
L 137.448796 112.495134 
L 138.12789 117.225623 
L 138.835794 123.90634 
L 139.267945 127.120687 
L 139.329681 127.174745 
L 139.374954 127.100807 
L 139.486078 126.44152 
L 139.671286 123.661811 
L 140.531472 108.201454 
L 140.671406 108.055148 
L 140.696101 108.069643 
L 140.844267 108.333635 
L 141.144714 109.43281 
L 141.741494 112.576292 
L 142.416473 117.302692 
L 143.132608 124.08305 
L 143.548296 127.123301 
L 143.610032 127.174088 
L 143.655305 127.097395 
L 143.766429 126.430301 
L 143.951637 123.637011 
L 144.807707 108.20945 
L 144.951758 108.05562 
L 144.976452 108.070607 
L 145.124618 108.336804 
L 145.429181 109.456414 
L 146.030077 112.633079 
L 146.705055 117.380121 
L 147.429422 124.258551 
L 147.828647 127.125856 
L 147.886268 127.175552 
L 147.935656 127.093906 
L 148.046781 126.41899 
L 148.231988 123.612134 
L 149.083943 108.21768 
L 149.227993 108.054528 
L 149.252687 108.068327 
L 149.396738 108.318578 
L 149.69307 109.389071 
L 150.285734 112.492205 
L 150.964828 117.221627 
L 151.672732 123.901419 
L 152.104883 127.119609 
L 152.166619 127.174992 
L 152.211892 127.10217 
L 152.323016 126.44605 
L 152.508224 123.671859 
L 153.36841 108.202787 
L 153.508344 108.054964 
L 153.533039 108.069259 
L 153.681205 108.332352 
L 153.981652 109.430641 
L 154.578432 112.573346 
L 155.25341 117.298677 
L 155.969546 124.078158 
L 156.385234 127.122246 
L 156.44697 127.174363 
L 156.492243 127.09879 
L 156.603367 126.434867 
L 156.788575 123.647091 
L 157.644645 108.210823 
L 157.788695 108.055425 
L 157.81339 108.070213 
L 157.961556 108.335516 
L 158.266119 109.454234 
L 158.867015 112.630122 
L 159.541993 117.376087 
L 160.26636 124.253696 
L 160.665585 127.124825 
L 160.723205 127.175759 
L 160.772594 127.095332 
L 160.883719 126.423594 
L 161.068926 123.622245 
L 161.920881 108.219093 
L 162.064931 108.054358 
L 162.089625 108.067955 
L 162.233676 108.317322 
L 162.530008 109.38692 
L 163.122672 112.489277 
L 163.801766 117.217631 
L 164.50967 123.896496 
L 164.941821 127.118521 
L 165.003557 127.175228 
L 165.04883 127.10352 
L 165.155838 126.48785 
L 165.33693 123.84833 
L 166.225926 108.153521 
L 166.349398 108.056423 
L 166.382324 108.079612 
L 166.538721 108.38669 
L 166.863863 109.632303 
L 167.489453 113.02195 
L 168.1562 117.842105 
L 169.275676 127.177354 
L 169.349759 127.031124 
L 169.473231 126.100554 
L 169.679017 122.488763 
L 170.386921 108.61631 
L 170.596823 108.051582 
L 170.712063 108.146799 
L 170.921965 108.720235 
L 171.362348 110.709402 
L 172.053789 114.90158 
L 172.699957 120.222642 
L 173.539565 127.174108 
L 173.597185 127.12814 
L 173.609532 127.096746 
L 173.720656 126.428183 
L 173.905864 123.632343 
L 174.761934 108.208817 
L 174.901869 108.054192 
L 174.930679 108.070791 
L 175.078845 108.337401 
L 175.383408 109.457423 
L 175.984304 112.634447 
L 176.659282 117.381987 
L 177.383649 124.260797 
L 177.782874 127.126329 
L 177.840495 127.175452 
L 177.889883 127.093242 
L 178.001008 126.416855 
L 178.186215 123.607452 
L 179.03817 108.217029 
L 179.18222 108.054608 
L 179.206914 108.0685 
L 179.350965 108.31916 
L 179.647297 109.390067 
L 180.239961 112.49356 
L 180.919055 117.223475 
L 181.626959 123.903696 
L 182.05911 127.120109 
L 182.120846 127.174879 
L 182.166119 127.101541 
L 182.277243 126.443956 
L 182.462451 123.667212 
L 183.322637 108.20217 
L 183.462571 108.055048 
L 183.487266 108.069436 
L 183.635432 108.332945 
L 183.935879 109.431644 
L 184.532659 112.574709 
L 185.207637 117.300535 
L 185.923773 124.080422 
L 186.339461 127.122735 
L 186.401197 127.174237 
L 186.44647 127.098146 
L 186.557594 126.432756 
L 186.742802 123.642429 
L 187.598872 108.210187 
L 187.742922 108.055515 
L 187.767617 108.070395 
L 187.915783 108.336112 
L 188.220346 109.455243 
L 188.821242 112.63149 
L 189.49622 117.377953 
L 190.220587 124.255942 
L 190.619812 127.125303 
L 190.677432 127.175665 
L 190.726821 127.094674 
L 190.837946 126.421466 
L 191.023153 123.617569 
L 191.875108 108.218438 
L 192.019158 108.054436 
L 192.043852 108.068127 
L 192.187903 108.317903 
L 192.484235 109.387915 
L 193.076899 112.490632 
L 193.755993 117.21948 
L 194.463897 123.898774 
L 194.896048 127.119026 
L 194.957784 127.17512 
L 195.003057 127.102897 
L 195.114181 126.448478 
L 195.295273 123.760976 
L 196.171922 108.171864 
L 196.303625 108.056522 
L 196.332435 108.075976 
L 196.484717 108.364599 
L 196.797512 109.539767 
L 197.410754 112.820919 
L 198.081617 117.60231 
L 198.847141 124.917977 
L 199.192862 127.151875 
L 199.242251 127.171893 
L 199.283408 127.099534 
L 199.394532 126.437315 
L 199.57974 123.652501 
L 200.439926 108.200227 
L 200.57986 108.055322 
L 200.604555 108.070003 
L 200.752721 108.334824 
L 201.053168 109.434819 
L 201.649948 112.579018 
L 202.324927 117.306408 
L 203.041062 124.087575 
L 203.45675 127.124268 
L 203.51437 127.175866 
L 203.563759 127.096093 
L 203.674883 126.426061 
L 203.860091 123.627673 
L 204.716161 108.208186 
L 204.856096 108.054268 
L 204.884906 108.070976 
L 205.033072 108.337999 
L 205.337635 109.458432 
L 205.938531 112.635816 
L 206.613509 117.383854 
L 207.337876 124.263042 
L 207.737101 127.126801 
L 207.794722 127.17535 
L 207.84411 127.092575 
L 207.955235 126.414717 
L 208.140442 123.602767 
L 208.992397 108.21638 
L 209.136447 108.054688 
L 209.161141 108.068674 
L 209.305192 108.319742 
L 209.601524 109.391063 
L 210.194188 112.494916 
L 210.873282 117.225324 
L 211.581186 123.905973 
L 212.013337 127.120607 
L 212.075073 127.174764 
L 212.120346 127.100909 
L 212.23147 126.441859 
L 212.416678 123.662561 
L 213.276864 108.201554 
L 213.416798 108.055134 
L 213.441493 108.069615 
L 213.589659 108.333539 
L 213.890106 109.432648 
L 214.486886 112.576072 
L 215.161864 117.302392 
L 215.878 124.082685 
L 216.293688 127.123222 
L 216.355424 127.174109 
L 216.400697 127.0975 
L 216.511821 126.430642 
L 216.697029 123.637764 
L 217.553099 108.209552 
L 217.697149 108.055605 
L 217.721844 108.070578 
L 217.87001 108.336708 
L 218.174573 109.456251 
L 218.775469 112.632858 
L 219.450447 117.37982 
L 220.174814 124.258188 
L 220.574039 127.125779 
L 220.631659 127.175568 
L 220.681048 127.094013 
L 220.792173 126.419334 
L 220.97738 123.61289 
L 221.829335 108.217786 
L 221.973385 108.054515 
L 221.998079 108.068299 
L 222.14213 108.318484 
L 222.438462 109.388911 
L 223.031126 112.491987 
L 223.71022 117.221328 
L 224.418124 123.901051 
L 224.850275 127.119528 
L 224.912011 127.17501 
L 224.957284 127.102271 
L 225.068408 126.446388 
L 225.253616 123.672609 
L 226.113802 108.202887 
L 226.253736 108.05495 
L 226.27843 108.06923 
L 226.426596 108.332256 
L 226.727044 109.430479 
L 227.323824 112.573126 
L 227.998802 117.298378 
L 228.714938 124.077793 
L 229.130626 127.122167 
L 229.192362 127.174383 
L 229.237635 127.098894 
L 229.348759 126.435208 
L 229.533967 123.647843 
L 230.390037 108.210925 
L 230.534087 108.055411 
L 230.558782 108.070184 
L 230.706948 108.33542 
L 231.011511 109.454072 
L 231.612407 112.629901 
L 232.287385 117.375786 
L 233.011752 124.253334 
L 233.410977 127.124748 
L 233.468597 127.175774 
L 233.517986 127.095438 
L 233.629111 126.423937 
L 233.814318 123.622999 
L 234.666273 108.219198 
L 234.810323 108.054345 
L 234.835017 108.067928 
L 234.979067 108.317228 
L 235.275399 109.386759 
L 235.868063 112.489058 
L 236.547158 117.217333 
L 237.255062 123.896129 
L 237.687213 127.11844 
L 237.748949 127.175245 
L 237.794221 127.103621 
L 237.90123 126.488177 
L 238.082322 123.849063 
L 238.971318 108.153601 
L 239.098905 108.058333 
L 239.127716 108.079577 
L 239.284113 108.386588 
L 239.609255 109.632135 
L 240.234845 113.021723 
L 240.901592 117.841795 
L 242.021068 127.177359 
L 242.095151 127.031267 
L 242.218623 126.100969 
L 242.424409 122.489609 
L 243.132313 108.616525 
L 243.342215 108.051587 
L 243.457455 108.146738 
L 243.667357 108.720104 
L 244.10774 110.709211 
L 244.799181 114.901323 
L 245.445349 120.222293 
L 246.284957 127.174088 
L 246.342577 127.128222 
L 246.354924 127.096851 
L 246.466048 126.428525 
L 246.651256 123.633097 
L 247.507326 108.208919 
L 247.647261 108.05418 
L 247.676071 108.070761 
L 247.824237 108.337305 
L 248.1288 109.45726 
L 248.729696 112.634227 
L 249.404674 117.381686 
L 250.129041 124.260434 
L 250.528266 127.126253 
L 250.585886 127.175468 
L 250.635275 127.09335 
L 250.7464 126.4172 
L 250.931607 123.608208 
L 251.783562 108.217134 
L 251.927612 108.054595 
L 251.952306 108.068472 
L 252.096357 108.319066 
L 252.392689 109.389906 
L 252.985353 112.493342 
L 253.664447 117.223177 
L 254.372351 123.903328 
L 254.804502 127.120028 
L 254.866238 127.174898 
L 254.911511 127.101643 
L 255.022635 126.444295 
L 255.207843 123.667962 
L 256.068029 108.202269 
L 256.207963 108.055035 
L 256.232657 108.069407 
L 256.380823 108.33285 
L 256.681271 109.431482 
L 257.278051 112.574489 
L 257.953029 117.300235 
L 258.669165 124.080056 
L 259.084853 127.122657 
L 259.146589 127.174258 
L 259.191862 127.09825 
L 259.302986 126.433097 
L 259.488194 123.643181 
L 260.344264 108.210289 
L 260.488314 108.0555 
L 260.513009 108.070366 
L 260.661175 108.336015 
L 260.965738 109.45508 
L 261.566634 112.631269 
L 262.241612 117.377652 
L 262.965979 124.25558 
L 263.365204 127.125226 
L 263.422824 127.17568 
L 263.472213 127.094781 
L 263.583338 126.421809 
L 263.768545 123.618324 
L 264.6205 108.218544 
L 264.76455 108.054423 
L 264.789244 108.068099 
L 264.933294 108.317809 
L 265.229626 109.387755 
L 265.82229 112.490413 
L 266.501385 117.219181 
L 267.209289 123.898406 
L 267.64144 127.118945 
L 267.703176 127.175138 
L 267.748448 127.102998 
L 267.855457 126.486149 
L 268.036549 123.844522 
L 268.925545 108.153105 
L 269.049017 108.056506 
L 269.081943 108.079796 
L 269.23834 108.387223 
L 269.563482 109.633175 
L 270.189072 113.023129 
L 270.72 116.733635 
L 270.72 116.733635 
" clip-path="url(#p36c48dab3e)" style="fill: none; stroke: #808080; stroke-width: 1.5; stroke-linecap: square"/>
   </g>
   <g id="line2d_10">
    <path d="M 64.938 82.007698 
L 65.201406 155.135455 
L 65.267258 153.506005 
L 65.777607 126.654338 
L 66.337346 89.026497 
L 66.436123 88.805343 
L 66.481396 88.848373 
L 66.633678 89.315903 
L 67.242804 92.263022 
L 68.823242 100.588135 
L 69.399443 105.112772 
L 69.872751 110.687125 
L 70.292555 118.45397 
L 70.72059 130.993036 
L 71.165088 142.950922 
L 71.173319 142.940409 
L 71.222708 142.521176 
L 71.333832 139.141699 
L 71.57666 122.802159 
L 71.942959 103.409898 
L 72.206366 99.160878 
L 72.420383 98.391215 
L 72.535623 98.451341 
L 72.716715 98.921387 
L 73.05832 100.534903 
L 73.552207 104.003813 
L 74.033746 109.018984 
L 74.461781 115.948119 
L 74.873354 126.543255 
L 75.449555 142.868039 
L 75.490712 142.659941 
L 75.585374 140.472916 
L 75.774697 129.431087 
L 76.239773 103.174048 
L 76.50318 99.134291 
L 76.713082 98.434692 
L 76.828322 98.506742 
L 77.013529 99.004113 
L 77.363366 100.691488 
L 77.861368 104.26136 
L 78.338792 109.354914 
L 78.766827 116.477579 
L 79.182515 127.499746 
L 79.729906 142.865344 
L 79.758716 142.756859 
L 79.841031 141.251106 
L 80.001544 133.164732 
L 80.569513 101.972594 
L 80.824688 98.876889 
L 81.022243 98.431826 
L 81.137483 98.561086 
L 81.351501 99.231781 
L 81.742494 101.301008 
L 82.244612 105.199788 
L 82.709689 110.621554 
L 83.129493 118.30641 
L 83.553412 130.582318 
L 84.006141 142.865156 
L 84.018489 142.851926 
L 84.071993 142.355606 
L 84.187233 138.642413 
L 84.454755 120.313824 
L 84.800476 103.117673 
L 85.063882 99.120506 
L 85.273784 98.435217 
L 85.389024 98.511642 
L 85.578347 99.028544 
L 85.9323 100.75414 
L 86.430302 104.353801 
L 86.907726 109.495966 
L 87.331645 116.614316 
L 87.747333 127.712292 
L 88.286493 142.86544 
L 88.315303 142.768901 
L 88.393501 141.41881 
L 88.549899 133.829687 
L 89.142563 101.66756 
L 89.397738 98.803001 
L 89.582945 98.432288 
L 89.587061 98.433255 
L 89.706417 98.582923 
L 89.932782 99.32778 
L 90.340238 101.555581 
L 90.842356 105.576969 
L 91.303317 111.141973 
L 91.719005 119.036219 
L 92.151156 131.959014 
L 92.566844 142.865386 
L 92.57096 142.862639 
L 92.612117 142.607164 
L 92.710894 140.143009 
L 92.908449 128.166874 
L 93.348831 103.384158 
L 93.612237 99.191681 
L 93.826255 98.437912 
L 93.941495 98.502579 
L 94.126703 98.992462 
L 94.472423 100.647989 
L 94.96631 104.161355 
L 95.443734 109.202463 
L 95.871769 116.23635 
L 96.283341 126.991442 
L 96.847195 142.864991 
L 96.880121 142.718462 
L 96.966551 140.97477 
L 97.139411 131.690057 
L 97.657992 102.6114 
L 97.917283 99.015175 
L 98.123069 98.431909 
L 98.234194 98.524457 
L 98.431748 99.088309 
L 98.798047 100.923061 
L 99.300166 104.640186 
L 99.773474 109.878565 
L 100.197393 117.219499 
L 100.613081 128.647337 
L 101.123431 142.865364 
L 101.144009 142.8195 
L 101.209861 141.946847 
L 101.34568 136.420478 
L 102.078278 100.093915 
L 102.31699 98.526252 
L 102.436346 98.437793 
L 102.469272 98.463315 
L 102.625669 98.795368 
L 102.926117 100.070692 
L 103.399425 103.140346 
L 103.889196 107.809489 
L 104.325463 114.204551 
L 104.737035 123.795858 
L 105.403782 142.865449 
L 105.477865 142.176164 
L 105.605452 137.500561 
L 106.420365 99.428846 
L 106.642614 98.453838 
L 106.749623 98.464595 
L 106.766086 98.484326 
L 106.938946 98.904809 
L 107.268204 100.411083 
L 107.757975 103.776486 
L 108.239514 108.670637 
L 108.671665 115.479542 
L 109.083238 125.8081 
L 109.684133 142.865193 
L 109.729406 142.598884 
L 109.828183 140.115188 
L 110.029854 127.803974 
L 110.462005 103.477884 
L 110.725411 99.217072 
L 110.939428 98.43982 
L 111.054669 98.49751 
L 111.23576 98.965725 
L 111.577365 100.58092 
L 112.071252 104.062236 
L 112.552791 109.104912 
L 112.980827 116.08225 
L 113.392399 126.751366 
L 113.960368 142.865233 
L 114.001526 142.674116 
L 114.092072 140.67592 
L 114.273163 130.458207 
L 114.758819 103.004566 
L 115.022225 99.090773 
L 115.232127 98.433671 
L 115.343251 98.512006 
L 115.532574 99.029379 
L 115.886527 100.755478 
L 116.384529 104.35578 
L 116.861953 109.498991 
L 117.285872 116.61909 
L 117.70156 127.719705 
L 118.24072 142.865455 
L 118.26953 142.767329 
L 118.347728 141.412445 
L 118.504126 133.814676 
L 119.09679 101.663023 
L 119.351965 98.801927 
L 119.537172 98.432333 
L 119.541288 98.433318 
L 119.660644 98.583403 
L 119.887009 99.328746 
L 120.294465 101.557069 
L 120.796583 105.579175 
L 121.257544 111.145377 
L 121.673232 119.04162 
L 122.105383 131.966995 
L 122.521071 142.865338 
L 122.525187 142.862371 
L 122.566344 142.604559 
L 122.665121 140.134224 
L 122.862676 128.149856 
L 123.303058 103.377943 
L 123.566464 99.190004 
L 123.780482 98.437793 
L 123.895722 98.502924 
L 124.08093 98.993278 
L 124.42665 100.649305 
L 124.920537 104.163299 
L 125.397961 109.205421 
L 125.825996 116.241027 
L 126.237568 126.998719 
L 126.797306 142.865047 
L 126.834348 142.716514 
L 126.920778 140.967466 
L 127.093638 131.674004 
L 127.612219 102.605922 
L 127.87151 99.013756 
L 128.077296 98.431874 
L 128.188421 98.524846 
L 128.385975 99.089173 
L 128.752274 100.924432 
L 129.254393 104.642217 
L 129.727701 109.881676 
L 130.15162 117.22443 
L 130.567308 128.654913 
L 131.077658 142.865406 
L 131.098236 142.818422 
L 131.164088 141.941817 
L 131.299907 136.407315 
L 132.028389 100.142815 
L 132.267101 98.534838 
L 132.386457 98.436022 
L 132.419383 98.459355 
L 132.571665 98.771357 
L 132.863881 99.986455 
L 133.333073 102.983465 
L 133.82696 107.620985 
L 134.267342 113.984139 
L 134.678915 123.446455 
L 135.358009 142.865426 
L 135.436208 142.090829 
L 135.567911 137.039551 
L 136.345782 99.702671 
L 136.576263 98.47892 
L 136.683271 98.44623 
L 136.712081 98.474205 
L 136.87671 98.851361 
L 137.189505 100.231553 
L 137.671045 103.443721 
L 138.1567 108.21798 
L 138.592967 114.845862 
L 139.004539 124.810285 
L 139.63836 142.865107 
L 139.69598 142.431714 
L 139.807105 139.062456 
L 140.049932 122.807238 
L 140.420347 103.358333 
L 140.683753 99.184717 
L 140.897771 98.437426 
L 141.013011 98.504018 
L 141.198219 98.995859 
L 141.548055 100.677394 
L 142.046058 104.240211 
L 142.523481 109.322576 
L 142.951516 116.426338 
L 143.363089 127.286738 
L 143.914595 142.865301 
L 143.947521 142.744301 
L 144.029836 141.201561 
L 144.194465 132.771303 
L 144.750087 102.115176 
L 145.005262 98.912554 
L 145.202817 98.431296 
L 145.318057 98.548402 
L 145.527959 99.188531 
L 145.910721 101.181805 
L 146.412839 105.023306 
L 146.882031 110.409187 
L 147.301835 117.969471 
L 147.725754 130.072543 
L 148.194947 142.865459 
L 148.207294 142.847372 
L 148.264914 142.25698 
L 148.388386 137.946345 
L 148.717643 115.099933 
L 149.030438 102.088674 
L 149.285613 98.905882 
L 149.483168 98.431339 
L 149.598408 98.550698 
L 149.80831 99.193381 
L 150.195188 101.215171 
L 150.697306 105.0727 
L 151.162382 110.426404 
L 151.582186 117.996766 
L 152.006106 130.114005 
L 152.475298 142.865278 
L 152.487645 142.843645 
L 152.545265 142.235205 
L 152.668737 137.884009 
L 153.010342 114.242991 
L 153.319021 101.886436 
L 153.574196 98.855715 
L 153.767635 98.431864 
L 153.882875 98.561044 
L 154.096892 99.231647 
L 154.487886 101.30078 
L 154.990004 105.199444 
L 155.455081 110.621023 
L 155.874885 118.305565 
L 156.298804 130.581044 
L 156.751533 142.86514 
L 156.763881 142.852017 
L 156.817385 142.356203 
L 156.932625 138.644175 
L 157.200147 120.316507 
L 157.545868 103.118644 
L 157.809274 99.120763 
L 158.019176 98.435234 
L 158.134416 98.511584 
L 158.323739 99.02841 
L 158.677691 100.753924 
L 159.175694 104.353482 
L 159.653118 109.495478 
L 160.077037 116.613546 
L 160.492725 127.711095 
L 161.031885 142.865436 
L 161.060695 142.769153 
L 161.138893 141.419836 
L 161.295291 133.832109 
L 161.887955 101.668293 
L 162.14313 98.803175 
L 162.328337 98.432281 
L 162.332453 98.433245 
L 162.451809 98.582845 
L 162.678174 99.327624 
L 163.08563 101.555341 
L 163.587748 105.576613 
L 164.048709 111.141423 
L 164.464397 119.035347 
L 164.896548 131.957725 
L 165.312236 142.865392 
L 165.316352 142.862681 
L 165.357509 142.607583 
L 165.456286 140.144425 
L 165.653841 128.169621 
L 166.094223 103.385162 
L 166.357629 99.191952 
L 166.571647 98.437931 
L 166.686887 98.502523 
L 166.872095 98.992331 
L 167.217815 100.647777 
L 167.711702 104.161042 
L 168.189126 109.201985 
L 168.617161 116.235596 
L 169.028733 126.990267 
L 169.592587 142.865008 
L 169.625513 142.718776 
L 169.711943 140.975947 
L 169.884803 131.692648 
L 170.403384 102.612285 
L 170.662675 99.015404 
L 170.868461 98.431915 
L 170.979585 98.524395 
L 171.17714 99.088169 
L 171.543439 100.92284 
L 172.045558 104.639858 
L 172.518866 109.878063 
L 172.942785 117.218703 
L 173.358473 128.646114 
L 173.868822 142.865357 
L 173.889401 142.819672 
L 173.955253 141.947658 
L 174.091072 136.422601 
L 174.82367 100.094372 
L 175.062382 98.526331 
L 175.181738 98.437775 
L 175.214664 98.463276 
L 175.371061 98.795256 
L 175.671509 100.070501 
L 176.144817 103.140062 
L 176.634588 107.80906 
L 177.070854 114.20388 
L 177.482427 123.794795 
L 178.149174 142.865451 
L 178.223257 142.176861 
L 178.350844 137.502521 
L 179.165757 99.429169 
L 179.388006 98.453874 
L 179.495015 98.464556 
L 179.511478 98.484277 
L 179.684338 98.904685 
L 180.013596 100.410879 
L 180.503367 103.776183 
L 180.984906 108.670178 
L 181.417057 115.478819 
L 181.828629 125.806964 
L 182.429525 142.865205 
L 182.478914 142.549253 
L 182.581807 139.787524 
L 182.795824 126.252029 
L 183.203281 103.594204 
L 183.466687 99.248832 
L 183.680704 98.44249 
L 183.80006 98.497456 
L 183.981152 98.965595 
L 184.322757 100.58071 
L 184.816644 104.061925 
L 185.298183 109.104438 
L 185.726218 116.081502 
L 186.137791 126.750199 
L 186.70576 142.865221 
L 186.746918 142.674475 
L 186.837464 140.677189 
L 187.018555 130.460868 
L 187.504211 103.005512 
L 187.767617 99.09102 
L 187.977519 98.433682 
L 188.088643 98.511948 
L 188.277966 99.029244 
L 188.631918 100.755262 
L 189.129921 104.35546 
L 189.607345 109.498502 
L 190.031264 116.61832 
L 190.446952 127.718509 
L 190.986112 142.865454 
L 191.014922 142.767584 
L 191.09312 141.413473 
L 191.249518 133.8171 
L 191.842182 101.663755 
L 192.097357 98.8021 
L 192.282564 98.432326 
L 192.28668 98.433308 
L 192.406036 98.583326 
L 192.632401 99.32859 
L 193.039857 101.556829 
L 193.541975 105.578819 
L 194.002936 111.144828 
L 194.418624 119.040748 
L 194.850775 131.965707 
L 195.266463 142.865346 
L 195.270579 142.862415 
L 195.311736 142.604981 
L 195.410513 140.135643 
L 195.608068 128.152603 
L 196.04845 103.378946 
L 196.311856 99.190275 
L 196.525874 98.437812 
L 196.641114 98.502868 
L 196.826322 98.993146 
L 197.172042 100.649093 
L 197.665929 104.162986 
L 198.143353 109.204943 
L 198.571388 116.240272 
L 198.98296 126.997545 
L 199.542698 142.86503 
L 199.57974 142.716829 
L 199.66617 140.968645 
L 199.83903 131.676595 
L 200.357611 102.606806 
L 200.616902 99.013985 
L 200.822688 98.431879 
L 200.933812 98.524783 
L 201.131367 99.089034 
L 201.497666 100.924211 
L 201.999785 104.641889 
L 202.473093 109.881174 
L 202.897012 117.223634 
L 203.3127 128.65369 
L 203.82305 142.8654 
L 203.843628 142.818597 
L 203.90948 141.94263 
L 204.045299 136.40944 
L 204.773781 100.14328 
L 205.012493 98.534921 
L 205.131849 98.436007 
L 205.164775 98.459319 
L 205.317057 98.771249 
L 205.609273 99.986266 
L 206.078465 102.983185 
L 206.572352 107.620563 
L 207.012734 113.983477 
L 207.424307 123.445405 
L 208.103401 142.865431 
L 208.181599 142.091571 
L 208.313303 137.041584 
L 209.091174 99.703051 
L 209.321655 98.478974 
L 209.428663 98.446203 
L 209.457473 98.474161 
L 209.622102 98.851244 
L 209.934897 100.231355 
L 210.416437 103.443428 
L 210.902092 108.217538 
L 211.338358 114.845165 
L 211.749931 124.809184 
L 212.383752 142.865121 
L 212.441372 142.432262 
L 212.552497 139.064126 
L 212.795324 122.809988 
L 213.165739 103.359333 
L 213.429145 99.184987 
L 213.643163 98.437444 
L 213.758403 98.503962 
L 213.943611 98.995727 
L 214.293447 100.67718 
L 214.791449 104.239895 
L 215.268873 109.322094 
L 215.696908 116.425575 
L 216.108481 127.285555 
L 216.659987 142.865291 
L 216.692913 142.744585 
L 216.775228 141.202664 
L 216.939857 132.773816 
L 217.495479 102.115982 
L 217.750654 98.912757 
L 217.948208 98.431295 
L 218.063449 98.548333 
L 218.273351 99.188384 
L 218.656113 101.181576 
L 219.158231 105.022967 
L 219.627423 110.408665 
L 220.047227 117.968644 
L 220.471146 130.071286 
L 220.940339 142.865459 
L 220.952686 142.84748 
L 221.010306 142.257634 
L 221.133778 137.948229 
L 221.463035 115.102284 
L 221.77583 102.089476 
L 222.031005 98.906084 
L 222.22856 98.431337 
L 222.3438 98.550628 
L 222.553702 99.193233 
L 222.94058 101.214941 
L 223.442698 105.072359 
L 223.907774 110.425882 
L 224.327578 117.995938 
L 224.751497 130.112747 
L 225.22069 142.865288 
L 225.233037 142.843763 
L 225.290657 142.235871 
L 225.414129 137.885905 
L 225.755734 114.245272 
L 226.064413 101.887204 
L 226.319588 98.855904 
L 226.513027 98.431858 
L 226.628267 98.560971 
L 226.842284 99.231497 
L 227.233278 101.300547 
L 227.735396 105.199099 
L 228.200473 110.620493 
L 228.620276 118.304724 
L 229.044196 130.579777 
L 229.496925 142.865126 
L 229.509272 142.852109 
L 229.562777 142.356799 
L 229.678017 138.64593 
L 229.945539 120.319175 
L 230.29126 103.119607 
L 230.554666 99.121018 
L 230.764568 98.435248 
L 230.879808 98.511525 
L 231.069131 99.028275 
L 231.423083 100.753709 
L 231.921086 104.353162 
L 232.39851 109.49499 
L 232.822429 116.612776 
L 233.238117 127.709899 
L 233.777277 142.865432 
L 233.806087 142.769405 
L 233.884285 141.420862 
L 234.040683 133.834531 
L 234.633347 101.669026 
L 234.888522 98.803348 
L 235.073729 98.432274 
L 235.077845 98.433235 
L 235.197201 98.582768 
L 235.423565 99.327468 
L 235.831022 101.555101 
L 236.33314 105.576257 
L 236.794101 111.140874 
L 237.209789 119.034475 
L 237.64194 131.956437 
L 238.057628 142.865399 
L 238.061743 142.862723 
L 238.102901 142.608001 
L 238.201678 140.145841 
L 238.399233 128.172367 
L 238.839615 103.386166 
L 239.103021 99.192223 
L 239.317039 98.43795 
L 239.432279 98.502468 
L 239.617486 98.992199 
L 239.963207 100.647564 
L 240.457094 104.160728 
L 240.934518 109.201508 
L 241.362553 116.234841 
L 241.774125 126.989093 
L 242.337979 142.865025 
L 242.370905 142.719089 
L 242.457335 140.977125 
L 242.630195 131.695238 
L 243.148776 102.61317 
L 243.408067 99.015633 
L 243.613853 98.431921 
L 243.724977 98.524332 
L 243.922532 99.08803 
L 244.288831 100.922619 
L 244.790949 104.639531 
L 245.264257 109.877561 
L 245.688177 117.217908 
L 246.103865 128.644892 
L 246.614214 142.865348 
L 246.634793 142.819845 
L 246.700645 141.948468 
L 246.836463 136.424724 
L 247.569062 100.094828 
L 247.807774 98.52641 
L 247.92713 98.437757 
L 247.960056 98.463238 
L 248.116453 98.795145 
L 248.416901 100.070309 
L 248.890209 103.139777 
L 249.37998 107.808632 
L 249.816246 114.203209 
L 250.227819 123.793732 
L 250.894566 142.865453 
L 250.968649 142.177559 
L 251.096236 137.504481 
L 251.911149 99.429493 
L 252.133398 98.45391 
L 252.240407 98.464517 
L 252.25687 98.484228 
L 252.42973 98.904562 
L 252.758988 100.410674 
L 253.248759 103.775881 
L 253.730298 108.66972 
L 254.162449 115.478096 
L 254.574021 125.805829 
L 255.174917 142.865218 
L 255.224305 142.549718 
L 255.327199 139.789029 
L 255.541216 126.254807 
L 255.948673 103.59524 
L 256.212079 99.249116 
L 256.426096 98.442516 
L 256.545452 98.497402 
L 256.726544 98.965466 
L 257.068149 100.580499 
L 257.562036 104.061614 
L 258.043575 109.103965 
L 258.47161 116.080754 
L 258.883183 126.749032 
L 259.451152 142.865209 
L 259.49231 142.674834 
L 259.582855 140.678458 
L 259.763947 130.463529 
L 260.249602 103.006458 
L 260.513009 99.091268 
L 260.72291 98.433694 
L 260.834035 98.511889 
L 261.023358 99.02911 
L 261.37731 100.755046 
L 261.875313 104.355141 
L 262.352737 109.498014 
L 262.776656 116.617549 
L 263.192344 127.717312 
L 263.731504 142.865452 
L 263.760314 142.767838 
L 263.838512 141.414501 
L 263.99491 133.819523 
L 264.587574 101.664487 
L 264.842749 98.802273 
L 265.027956 98.432318 
L 265.032072 98.433297 
L 265.151428 98.583248 
L 265.377792 99.328434 
L 265.785249 101.556589 
L 266.287367 105.578463 
L 266.748328 111.144278 
L 267.164016 119.039876 
L 267.596167 131.964419 
L 268.011855 142.865354 
L 268.01597 142.862459 
L 268.057128 142.605401 
L 268.155905 140.137061 
L 268.35346 128.15535 
L 268.793842 103.379949 
L 269.057248 99.190545 
L 269.271266 98.437832 
L 269.386506 98.502812 
L 269.571713 98.993015 
L 269.917434 100.64888 
L 270.411321 104.162672 
L 270.72 107.173617 
L 270.72 107.173617 
" clip-path="url(#p36c48dab3e)" style="fill: none; stroke: #808080; stroke-width: 1.5; stroke-linecap: square"/>
   </g>
   <g id="patch_3">
    <path d="M 64.938 161.7 
L 64.938 17.28 
" style="fill: none; stroke: #000000; stroke-width: 0.8; stroke-linejoin: miter; stroke-linecap: square"/>
   </g>
   <g id="patch_4">
    <path d="M 270.72 161.7 
L 270.72 17.28 
" style="fill: none; stroke: #000000; stroke-width: 0.8; stroke-linejoin: miter; stroke-linecap: square"/>
   </g>
   <g id="patch_5">
    <path d="M 64.938 161.7 
L 270.72 161.7 
" style="fill: none; stroke: #000000; stroke-width: 0.8; stroke-linejoin: miter; stroke-linecap: square"/>
   </g>
   <g id="patch_6">
    <path d="M 64.938 17.28 
L 270.72 17.28 
" style="fill: none; stroke: #000000; stroke-width: 0.8; stroke-linejoin: miter; stroke-linecap: square"/>
   </g>
  </g>
 </g>
 <defs>
  <clipPath id="p36c48dab3e">
   <rect x="64.938" y="17.28" width="205.782" height="144.42"/>
  </clipPath>
 </defs>
</svg>
