<?xml version="1.0" encoding="utf-8" standalone="no"?>
<!DOCTYPE svg PUBLIC "-//W3C//DTD SVG 1.1//EN"
  "http://www.w3.org/Graphics/SVG/1.1/DTD/svg11.dtd">
<svg xmlns:xlink="http://www.w3.org/1999/xlink" width="288pt" height="216pt" viewBox="0 0 288 216" xmlns="http://www.w3.org/2000/svg" version="1.1">
 <metadata>
  <rdf:RDF xmlns:dc="http://purl.org/dc/elements/1.1/" xmlns:cc="http://creativecommons.org/ns#" xmlns:rdf="http://www.w3.org/1999/02/22-rdf-syntax-ns#">
   <cc:Work>
    <dc:type rdf:resource="http://purl.org/dc/dcmitype/StillImage"/>
    <dc:date>2024-02-29T16:35:57.744179</dc:date>
    <dc:format>image/svg+xml</dc:format>
    <dc:creator>
     <cc:Agent>
      <dc:title>Matplotlib v3.7.2, https://matplotlib.org/</dc:title>
     </cc:Agent>
    </dc:creator>
   </cc:Work>
  </rdf:RDF>
 </metadata>
 <defs>
  <style type="text/css">*{stroke-linejoin: round; stroke-linecap: butt}</style>
 </defs>
 <g id="figure_1">
  <g id="patch_1">
   <path d="M 0 216 
L 288 216 
L 288 0 
L 0 0 
L 0 216 
z
" style="fill: none"/>
  </g>
  <g id="axes_1">
   <g id="patch_2">
    <path d="M 61.698 161.7 
L 270.72 161.7 
L 270.72 17.28 
L 61.698 17.28 
L 61.698 161.7 
z
" style="fill: none"/>
   </g>
   <g id="matplotlib.axis_1">
    <g id="xtick_1">
     <g id="line2d_1">
      <defs>
       <path id="mb757b4baf4" d="M 0 0 
L 0 -3.5 
" style="stroke: #000000; stroke-width: 0.8"/>
      </defs>
      <g>
       <use xlink:href="#mb757b4baf4" x="61.698" y="161.7" style="stroke: #000000; stroke-width: 0.8"/>
      </g>
     </g>
     <g id="text_1">
      <!-- 0 -->
      <g transform="translate(57.24925 176.6525) scale(0.16 -0.16)">
       <defs>
        <path id="ArialMT-30" d="M 266 2259 
Q 266 3072 433 3567 
Q 600 4063 929 4331 
Q 1259 4600 1759 4600 
Q 2128 4600 2406 4451 
Q 2684 4303 2865 4023 
Q 3047 3744 3150 3342 
Q 3253 2941 3253 2259 
Q 3253 1453 3087 958 
Q 2922 463 2592 192 
Q 2263 -78 1759 -78 
Q 1097 -78 719 397 
Q 266 969 266 2259 
z
M 844 2259 
Q 844 1131 1108 757 
Q 1372 384 1759 384 
Q 2147 384 2411 759 
Q 2675 1134 2675 2259 
Q 2675 3391 2411 3762 
Q 2147 4134 1753 4134 
Q 1366 4134 1134 3806 
Q 844 3388 844 2259 
z
" transform="scale(0.015625)"/>
       </defs>
       <use xlink:href="#ArialMT-30"/>
      </g>
     </g>
    </g>
    <g id="xtick_2">
     <g id="line2d_2">
      <g>
       <use xlink:href="#mb757b4baf4" x="145.3068" y="161.7" style="stroke: #000000; stroke-width: 0.8"/>
      </g>
     </g>
     <g id="text_2">
      <!-- 200 -->
      <g transform="translate(131.96055 176.6525) scale(0.16 -0.16)">
       <defs>
        <path id="ArialMT-32" d="M 3222 541 
L 3222 0 
L 194 0 
Q 188 203 259 391 
Q 375 700 629 1000 
Q 884 1300 1366 1694 
Q 2113 2306 2375 2664 
Q 2638 3022 2638 3341 
Q 2638 3675 2398 3904 
Q 2159 4134 1775 4134 
Q 1369 4134 1125 3890 
Q 881 3647 878 3216 
L 300 3275 
Q 359 3922 746 4261 
Q 1134 4600 1788 4600 
Q 2447 4600 2831 4234 
Q 3216 3869 3216 3328 
Q 3216 3053 3103 2787 
Q 2991 2522 2730 2228 
Q 2469 1934 1863 1422 
Q 1356 997 1212 845 
Q 1069 694 975 541 
L 3222 541 
z
" transform="scale(0.015625)"/>
       </defs>
       <use xlink:href="#ArialMT-32"/>
       <use xlink:href="#ArialMT-30" x="55.615234"/>
       <use xlink:href="#ArialMT-30" x="111.230469"/>
      </g>
     </g>
    </g>
    <g id="xtick_3">
     <g id="line2d_3">
      <g>
       <use xlink:href="#mb757b4baf4" x="228.9156" y="161.7" style="stroke: #000000; stroke-width: 0.8"/>
      </g>
     </g>
     <g id="text_3">
      <!-- 400 -->
      <g transform="translate(215.56935 176.6525) scale(0.16 -0.16)">
       <defs>
        <path id="ArialMT-34" d="M 2069 0 
L 2069 1097 
L 81 1097 
L 81 1613 
L 2172 4581 
L 2631 4581 
L 2631 1613 
L 3250 1613 
L 3250 1097 
L 2631 1097 
L 2631 0 
L 2069 0 
z
M 2069 1613 
L 2069 3678 
L 634 1613 
L 2069 1613 
z
" transform="scale(0.015625)"/>
       </defs>
       <use xlink:href="#ArialMT-34"/>
       <use xlink:href="#ArialMT-30" x="55.615234"/>
       <use xlink:href="#ArialMT-30" x="111.230469"/>
      </g>
     </g>
    </g>
    <g id="text_4">
     <!-- $t$ -->
     <g transform="translate(163.009 195.285) scale(0.16 -0.16)">
      <defs>
       <path id="DejaVuSans-Oblique-74" d="M 2706 3500 
L 2619 3053 
L 1472 3053 
L 1100 1153 
Q 1081 1047 1072 975 
Q 1063 903 1063 863 
Q 1063 663 1183 572 
Q 1303 481 1569 481 
L 2150 481 
L 2053 0 
L 1503 0 
Q 991 0 739 200 
Q 488 400 488 806 
Q 488 878 497 964 
Q 506 1050 525 1153 
L 897 3053 
L 409 3053 
L 500 3500 
L 978 3500 
L 1172 4494 
L 1747 4494 
L 1556 3500 
L 2706 3500 
z
" transform="scale(0.015625)"/>
      </defs>
      <use xlink:href="#DejaVuSans-Oblique-74" transform="translate(0 0.78125)"/>
     </g>
    </g>
   </g>
   <g id="matplotlib.axis_2">
    <g id="ytick_1">
     <g id="line2d_4">
      <defs>
       <path id="me5dc1f7d14" d="M 0 0 
L 3.5 0 
" style="stroke: #000000; stroke-width: 0.8"/>
      </defs>
      <g>
       <use xlink:href="#me5dc1f7d14" x="61.698" y="153.808051" style="stroke: #000000; stroke-width: 0.8"/>
      </g>
     </g>
     <g id="text_5">
      <!-- −1 -->
      <g transform="translate(39.9555 159.534301) scale(0.16 -0.16)">
       <defs>
        <path id="ArialMT-2212" d="M 3381 1997 
L 356 1997 
L 356 2522 
L 3381 2522 
L 3381 1997 
z
" transform="scale(0.015625)"/>
        <path id="ArialMT-31" d="M 2384 0 
L 1822 0 
L 1822 3584 
Q 1619 3391 1289 3197 
Q 959 3003 697 2906 
L 697 3450 
Q 1169 3672 1522 3987 
Q 1875 4303 2022 4600 
L 2384 4600 
L 2384 0 
z
" transform="scale(0.015625)"/>
       </defs>
       <use xlink:href="#ArialMT-2212"/>
       <use xlink:href="#ArialMT-31" x="58.398438"/>
      </g>
     </g>
    </g>
    <g id="ytick_2">
     <g id="line2d_5">
      <g>
       <use xlink:href="#me5dc1f7d14" x="61.698" y="97.802313" style="stroke: #000000; stroke-width: 0.8"/>
      </g>
     </g>
     <g id="text_6">
      <!-- 0 -->
      <g transform="translate(49.3005 103.528563) scale(0.16 -0.16)">
       <use xlink:href="#ArialMT-30"/>
      </g>
     </g>
    </g>
    <g id="ytick_3">
     <g id="line2d_6">
      <g>
       <use xlink:href="#me5dc1f7d14" x="61.698" y="41.796575" style="stroke: #000000; stroke-width: 0.8"/>
      </g>
     </g>
     <g id="text_7">
      <!-- 1 -->
      <g transform="translate(49.3005 47.522825) scale(0.16 -0.16)">
       <use xlink:href="#ArialMT-31"/>
      </g>
     </g>
    </g>
    <g id="text_8">
     <!-- $Re(a_i)/r_i$ -->
     <g transform="translate(32.7755 120.69) rotate(-90) scale(0.16 -0.16)">
      <defs>
       <path id="DejaVuSans-Oblique-52" d="M 1613 4147 
L 1294 2491 
L 2106 2491 
Q 2584 2491 2879 2755 
Q 3175 3019 3175 3444 
Q 3175 3784 2976 3965 
Q 2778 4147 2406 4147 
L 1613 4147 
z
M 2772 2241 
Q 2972 2194 3105 2009 
Q 3238 1825 3413 1275 
L 3809 0 
L 3144 0 
L 2778 1197 
Q 2638 1659 2453 1815 
Q 2269 1972 1888 1972 
L 1191 1972 
L 806 0 
L 172 0 
L 1081 4666 
L 2503 4666 
Q 3150 4666 3495 4373 
Q 3841 4081 3841 3531 
Q 3841 3044 3547 2687 
Q 3253 2331 2772 2241 
z
" transform="scale(0.015625)"/>
       <path id="DejaVuSans-Oblique-65" d="M 3078 2063 
Q 3088 2113 3092 2166 
Q 3097 2219 3097 2272 
Q 3097 2653 2873 2875 
Q 2650 3097 2266 3097 
Q 1838 3097 1509 2826 
Q 1181 2556 1013 2059 
L 3078 2063 
z
M 3578 1613 
L 903 1613 
Q 884 1494 878 1425 
Q 872 1356 872 1306 
Q 872 872 1139 634 
Q 1406 397 1894 397 
Q 2269 397 2603 481 
Q 2938 566 3225 728 
L 3116 159 
Q 2806 34 2476 -28 
Q 2147 -91 1806 -91 
Q 1078 -91 686 257 
Q 294 606 294 1247 
Q 294 1794 489 2264 
Q 684 2734 1063 3103 
Q 1306 3334 1642 3459 
Q 1978 3584 2356 3584 
Q 2950 3584 3301 3228 
Q 3653 2872 3653 2272 
Q 3653 2128 3634 1964 
Q 3616 1800 3578 1613 
z
" transform="scale(0.015625)"/>
       <path id="DejaVuSans-28" d="M 1984 4856 
Q 1566 4138 1362 3434 
Q 1159 2731 1159 2009 
Q 1159 1288 1364 580 
Q 1569 -128 1984 -844 
L 1484 -844 
Q 1016 -109 783 600 
Q 550 1309 550 2009 
Q 550 2706 781 3412 
Q 1013 4119 1484 4856 
L 1984 4856 
z
" transform="scale(0.015625)"/>
       <path id="DejaVuSans-Oblique-61" d="M 3438 1997 
L 3047 0 
L 2472 0 
L 2578 531 
Q 2325 219 2001 64 
Q 1678 -91 1281 -91 
Q 834 -91 548 182 
Q 263 456 263 884 
Q 263 1497 752 1853 
Q 1241 2209 2100 2209 
L 2900 2209 
L 2931 2363 
Q 2938 2388 2941 2417 
Q 2944 2447 2944 2509 
Q 2944 2788 2717 2942 
Q 2491 3097 2081 3097 
Q 1800 3097 1504 3025 
Q 1209 2953 897 2809 
L 997 3341 
Q 1322 3463 1633 3523 
Q 1944 3584 2234 3584 
Q 2853 3584 3176 3315 
Q 3500 3047 3500 2534 
Q 3500 2431 3484 2292 
Q 3469 2153 3438 1997 
z
M 2816 1759 
L 2241 1759 
Q 1534 1759 1195 1570 
Q 856 1381 856 984 
Q 856 709 1029 553 
Q 1203 397 1509 397 
Q 1978 397 2328 733 
Q 2678 1069 2791 1631 
L 2816 1759 
z
" transform="scale(0.015625)"/>
       <path id="DejaVuSans-Oblique-69" d="M 1172 4863 
L 1747 4863 
L 1606 4134 
L 1031 4134 
L 1172 4863 
z
M 909 3500 
L 1484 3500 
L 800 0 
L 225 0 
L 909 3500 
z
" transform="scale(0.015625)"/>
       <path id="DejaVuSans-29" d="M 513 4856 
L 1013 4856 
Q 1481 4119 1714 3412 
Q 1947 2706 1947 2009 
Q 1947 1309 1714 600 
Q 1481 -109 1013 -844 
L 513 -844 
Q 928 -128 1133 580 
Q 1338 1288 1338 2009 
Q 1338 2731 1133 3434 
Q 928 4138 513 4856 
z
" transform="scale(0.015625)"/>
       <path id="DejaVuSans-2f" d="M 1625 4666 
L 2156 4666 
L 531 -594 
L 0 -594 
L 1625 4666 
z
" transform="scale(0.015625)"/>
       <path id="DejaVuSans-Oblique-72" d="M 2853 2969 
Q 2766 3016 2653 3041 
Q 2541 3066 2413 3066 
Q 1953 3066 1609 2717 
Q 1266 2369 1153 1784 
L 800 0 
L 225 0 
L 909 3500 
L 1484 3500 
L 1375 2956 
Q 1603 3259 1920 3421 
Q 2238 3584 2597 3584 
Q 2691 3584 2781 3573 
Q 2872 3563 2963 3538 
L 2853 2969 
z
" transform="scale(0.015625)"/>
      </defs>
      <use xlink:href="#DejaVuSans-Oblique-52" transform="translate(0 0.125)"/>
      <use xlink:href="#DejaVuSans-Oblique-65" transform="translate(69.482422 0.125)"/>
      <use xlink:href="#DejaVuSans-28" transform="translate(131.005859 0.125)"/>
      <use xlink:href="#DejaVuSans-Oblique-61" transform="translate(170.019531 0.125)"/>
      <use xlink:href="#DejaVuSans-Oblique-69" transform="translate(231.298828 -16.28125) scale(0.7)"/>
      <use xlink:href="#DejaVuSans-29" transform="translate(253.481445 0.125)"/>
      <use xlink:href="#DejaVuSans-2f" transform="translate(292.495117 0.125)"/>
      <use xlink:href="#DejaVuSans-Oblique-72" transform="translate(326.186523 0.125)"/>
      <use xlink:href="#DejaVuSans-Oblique-69" transform="translate(367.299805 -16.28125) scale(0.7)"/>
     </g>
    </g>
   </g>
   <g id="line2d_7">
    <path d="M 61.698 67.322332 
L 61.915387 41.82003 
L 61.923748 41.797701 
L 61.948831 42.147637 
L 62.028261 47.267178 
L 62.208024 76.97323 
L 62.65952 149.104703 
L 62.822561 153.80798 
L 62.847644 153.681243 
L 62.922893 151.705473 
L 63.05667 141.046933 
L 63.303321 98.697862 
L 63.683749 44.054645 
L 63.779901 41.797158 
L 63.825887 42.33306 
L 63.93458 47.398297 
L 64.126884 68.750266 
L 64.762324 153.808021 
L 64.799949 153.397523 
L 64.896101 148.89439 
L 65.092585 127.032201 
L 65.748927 41.796653 
L 65.782372 42.122918 
L 65.874343 46.368332 
L 66.062467 67.772392 
L 66.735531 153.80713 
L 66.748073 153.747097 
L 66.81078 152.049938 
L 66.948738 140.657752 
L 67.258096 91.247252 
L 67.638524 43.463693 
L 67.713773 41.796784 
L 67.76812 42.627767 
L 67.880994 49.689262 
L 68.106743 81.016726 
L 68.633489 152.770353 
L 68.692016 153.807098 
L 68.746363 153.018847 
L 68.859237 146.119349 
L 69.080805 115.819372 
L 69.615912 42.727948 
L 69.674439 41.797108 
L 69.724605 42.554321 
L 69.837479 49.359878 
L 70.059047 79.41114 
L 70.602515 153.082507 
L 70.652682 153.808043 
L 70.707028 152.968059 
L 70.819903 145.993141 
L 71.045651 115.061688 
L 71.576577 42.70975 
L 71.635105 41.797876 
L 71.685271 42.581396 
L 71.798145 49.458787 
L 72.023893 80.264008 
L 72.559 152.964537 
L 72.613347 153.808043 
L 72.667694 152.95461 
L 72.780568 145.934262 
L 73.006316 114.922756 
L 73.537243 42.699848 
L 73.59159 41.797449 
L 73.645936 42.591414 
L 73.758811 49.496967 
L 73.984559 80.370467 
L 74.519666 152.978849 
L 74.574013 153.807947 
L 74.62836 152.941468 
L 74.745414 145.507273 
L 74.975343 113.401364 
L 75.493728 42.820229 
L 75.552255 41.796999 
L 75.606602 42.606829 
L 75.719476 49.540396 
L 75.945224 80.450994 
L 76.480331 152.995864 
L 76.534678 153.80767 
L 76.589025 152.924305 
L 76.70608 145.458087 
L 76.940189 112.593917 
L 77.450213 42.948537 
L 77.512921 41.796707 
L 77.567268 42.623302 
L 77.680142 49.589197 
L 77.90589 80.539059 
L 78.436817 152.880511 
L 78.495344 153.807247 
L 78.54551 153.036643 
L 78.658384 146.181633 
L 78.884133 115.377342 
L 79.41924 42.649307 
L 79.473586 41.796583 
L 79.527933 42.639257 
L 79.640807 49.636804 
L 79.866556 80.628568 
L 80.397482 152.897202 
L 80.451829 153.806907 
L 80.506176 153.02126 
L 80.61905 146.134821 
L 80.844798 115.288605 
L 81.379905 42.633214 
L 81.434252 41.796612 
L 81.488599 42.65538 
L 81.605653 50.072578 
L 81.835582 82.152597 
L 82.353967 152.775357 
L 82.412494 153.807425 
L 82.466841 153.005627 
L 82.579715 146.087753 
L 82.805464 115.200236 
L 83.340571 42.617231 
L 83.394918 41.796796 
L 83.449264 42.671721 
L 83.566319 50.121386 
L 83.800428 82.964314 
L 84.310452 152.645928 
L 84.37316 153.807788 
L 84.427507 152.989829 
L 84.540381 146.040466 
L 84.766129 115.111677 
L 85.297056 42.733151 
L 85.355583 41.797135 
L 85.405749 42.559769 
L 85.518624 49.397997 
L 85.740191 79.469885 
L 86.283659 153.072894 
L 86.333826 153.807996 
L 86.388172 152.973891 
L 86.501047 145.993072 
L 86.726795 115.023052 
L 87.257721 42.716265 
L 87.316249 41.797628 
L 87.366415 42.575169 
L 87.479289 49.444915 
L 87.705037 80.269115 
L 88.240144 152.962929 
L 88.294491 153.808049 
L 88.348838 152.957799 
L 88.461712 145.945548 
L 88.68746 114.934396 
L 89.218387 42.69953 
L 89.272734 41.797455 
L 89.327081 42.590723 
L 89.439955 49.49197 
L 89.665703 80.357601 
L 90.20081 152.978973 
L 90.255157 153.807947 
L 90.309504 152.941553 
L 90.426558 145.50904 
L 90.656487 113.40992 
L 91.174872 42.820888 
L 91.233399 41.79701 
L 91.287746 42.60643 
L 91.40062 49.53916 
L 91.626369 80.446138 
L 92.161476 152.994865 
L 92.215822 153.80769 
L 92.270169 152.925155 
L 92.387224 145.46018 
L 92.621333 112.597948 
L 93.131357 42.94982 
L 93.194065 41.79672 
L 93.248412 42.622289 
L 93.361286 49.586482 
L 93.587034 80.534724 
L 94.117961 152.879453 
L 94.176488 153.807278 
L 94.226654 153.037618 
L 94.339528 146.184531 
L 94.565277 115.382271 
L 95.100384 42.65024 
L 95.15473 41.796586 
L 95.209077 42.638301 
L 95.321951 49.633938 
L 95.5477 80.623356 
L 96.078626 152.896268 
L 96.132973 153.806874 
L 96.18732 153.022144 
L 96.300194 146.137547 
L 96.525942 115.293808 
L 97.061049 42.634115 
L 97.115396 41.796606 
L 97.169743 42.654466 
L 97.282617 49.681527 
L 97.508365 80.712037 
L 98.039292 152.912931 
L 98.093639 153.8074 
L 98.147985 153.006518 
L 98.260859 146.090428 
L 98.486608 115.205296 
L 99.021715 42.618143 
L 99.076062 41.796781 
L 99.130408 42.670783 
L 99.247463 50.118601 
L 99.481572 82.959193 
L 99.991596 152.644844 
L 100.054304 153.807772 
L 100.108651 152.990739 
L 100.221525 146.043176 
L 100.447273 115.116736 
L 100.9782 42.734124 
L 101.036727 41.797111 
L 101.086893 42.55889 
L 101.199768 49.395311 
L 101.421335 79.464848 
L 101.964803 153.072033 
L 102.01497 153.807988 
L 102.069317 152.974808 
L 102.182191 145.995791 
L 102.407939 115.028129 
L 102.938865 42.717228 
L 102.997393 41.797596 
L 103.047559 42.574283 
L 103.160433 49.442225 
L 103.386181 80.264048 
L 103.921288 152.962006 
L 103.975635 153.80805 
L 104.029982 152.958724 
L 104.142856 145.948272 
L 104.368604 114.939474 
L 104.899531 42.700484 
L 104.953878 41.797485 
L 105.008225 42.589828 
L 105.121099 49.489273 
L 105.346847 80.352534 
L 105.881954 152.978059 
L 105.936301 153.807957 
L 105.990648 152.942487 
L 106.107702 145.511833 
L 106.337631 113.415041 
L 106.856016 42.821903 
L 106.914543 41.797031 
L 106.96889 42.605526 
L 107.081764 49.536454 
L 107.307513 80.441069 
L 107.84262 152.993959 
L 107.896966 153.807709 
L 107.951313 152.926098 
L 108.068368 145.462981 
L 108.302477 112.603091 
L 108.812501 42.950897 
L 108.875209 41.796733 
L 108.929556 42.621377 
L 109.04243 49.583769 
L 109.268178 80.529651 
L 109.799105 152.878486 
L 109.857632 153.807306 
L 109.907798 153.038499 
L 110.020672 146.187217 
L 110.246421 115.387334 
L 110.781528 42.651168 
L 110.835875 41.796589 
L 110.890221 42.637381 
L 111.003095 49.631218 
L 111.228844 80.618281 
L 111.75977 152.89531 
L 111.818298 153.806748 
L 111.868464 153.023034 
L 111.981338 146.14024 
L 112.207086 115.298873 
L 112.742193 42.635034 
L 112.79654 41.7966 
L 112.850887 42.653537 
L 112.963761 49.678799 
L 113.189509 80.706959 
L 113.720436 152.911982 
L 113.774783 153.807374 
L 113.829129 153.007417 
L 113.942004 146.093129 
L 114.167752 115.210364 
L 114.702859 42.619053 
L 114.757206 41.796767 
L 114.811552 42.669845 
L 114.928607 50.115804 
L 115.162716 82.954052 
L 115.67274 152.643762 
L 115.735448 153.807755 
L 115.789795 152.991647 
L 115.902669 146.045885 
L 116.128417 115.121807 
L 116.659344 42.735095 
L 116.717871 41.797088 
L 116.768038 42.558014 
L 116.880912 49.39263 
L 117.102479 79.45981 
L 117.645947 153.071171 
L 117.696114 153.80798 
L 117.750461 152.975724 
L 117.863335 145.998507 
L 118.089083 115.033203 
L 118.620009 42.718191 
L 118.678537 41.797564 
L 118.728703 42.573398 
L 118.841577 49.439536 
L 119.067326 80.258984 
L 119.602433 152.961082 
L 119.656779 153.808051 
L 119.711126 152.959649 
L 119.824 145.950996 
L 120.049749 114.94455 
L 120.580675 42.701438 
L 120.635022 41.797515 
L 120.689369 42.588934 
L 120.802243 49.486576 
L 121.027991 80.347468 
L 121.563098 152.977144 
L 121.617445 153.807966 
L 121.671792 152.943421 
L 121.788846 145.514626 
L 122.018775 113.420162 
L 122.53716 42.822919 
L 122.595687 41.797053 
L 122.650034 42.604624 
L 122.762908 49.53375 
L 122.988657 80.435999 
L 123.523764 152.993053 
L 123.57811 153.807727 
L 123.632457 152.92704 
L 123.749512 145.465781 
L 123.983621 112.608234 
L 124.493645 42.951974 
L 124.556353 41.796746 
L 124.6107 42.620466 
L 124.723574 49.581057 
L 124.949322 80.524579 
L 125.480249 152.877518 
L 125.538776 153.807333 
L 125.588942 153.039379 
L 125.701816 146.189902 
L 125.927565 115.392396 
L 126.462672 42.652096 
L 126.517019 41.796593 
L 126.571365 42.63646 
L 126.68424 49.628498 
L 126.909988 80.613206 
L 127.440914 152.894351 
L 127.499442 153.806784 
L 127.549608 153.023924 
L 127.662482 146.142933 
L 127.88823 115.303939 
L 128.423337 42.635953 
L 128.477684 41.796596 
L 128.532031 42.652608 
L 128.644905 49.676072 
L 128.870653 80.701881 
L 129.40158 152.911031 
L 129.455927 153.807348 
L 129.510273 153.008315 
L 129.623148 146.09583 
L 129.848896 115.215433 
L 130.384003 42.619964 
L 130.43835 41.796753 
L 130.492697 42.668907 
L 130.609751 50.113008 
L 130.843861 82.94891 
L 131.353884 152.642681 
L 131.416592 153.807737 
L 131.470939 152.992554 
L 131.583813 146.048593 
L 131.809561 115.126878 
L 132.340488 42.736068 
L 132.399015 41.797065 
L 132.449182 42.557138 
L 132.562056 49.389948 
L 132.783623 79.454772 
L 133.327092 153.070308 
L 133.377258 153.807971 
L 133.431605 152.97664 
L 133.544479 146.001223 
L 133.770227 115.038276 
L 134.301154 42.719154 
L 134.359681 41.797532 
L 134.409847 42.572513 
L 134.522721 49.436847 
L 134.74847 80.25392 
L 135.283577 152.960158 
L 135.337923 153.808051 
L 135.39227 152.960573 
L 135.505144 145.953719 
L 135.730893 114.949626 
L 136.261819 42.702393 
L 136.316166 41.797547 
L 136.370513 42.588041 
L 136.483387 49.48388 
L 136.709135 80.342401 
L 137.244242 152.976229 
L 137.298589 153.807975 
L 137.352936 152.944354 
L 137.46999 145.517418 
L 137.699919 113.425282 
L 138.218304 42.823935 
L 138.276831 41.797075 
L 138.331178 42.603721 
L 138.444052 49.531046 
L 138.669801 80.43093 
L 139.204908 152.992147 
L 139.259255 153.807745 
L 139.313601 152.927982 
L 139.430656 145.468581 
L 139.664765 112.613376 
L 140.174789 42.953052 
L 140.237497 41.796759 
L 140.291844 42.619555 
L 140.404718 49.578345 
L 140.630466 80.519506 
L 141.161393 152.87655 
L 141.21992 153.80736 
L 141.270086 153.04026 
L 141.382961 146.192587 
L 141.608709 115.397459 
L 142.143816 42.653025 
L 142.198163 41.796598 
L 142.252509 42.635541 
L 142.365384 49.625778 
L 142.591132 80.608131 
L 143.122058 152.893391 
L 143.180586 153.806819 
L 143.230752 153.024813 
L 143.343626 146.145625 
L 143.569374 115.309004 
L 144.104481 42.636873 
L 144.158828 41.796591 
L 144.213175 42.651679 
L 144.326049 49.673345 
L 144.551797 80.696803 
L 145.082724 152.910081 
L 145.137071 153.807321 
L 145.191418 153.009213 
L 145.304292 146.09853 
L 145.53004 115.220501 
L 146.065147 42.620875 
L 146.119494 41.79674 
L 146.173841 42.66797 
L 146.290895 50.110212 
L 146.525005 82.943769 
L 147.035028 152.641598 
L 147.097736 153.807719 
L 147.152083 152.99346 
L 147.264957 146.051301 
L 147.490706 115.131949 
L 148.021632 42.737041 
L 148.080159 41.797043 
L 148.130326 42.556262 
L 148.2432 49.387268 
L 148.464768 79.449734 
L 149.008236 153.069445 
L 149.058402 153.807962 
L 149.112749 152.977555 
L 149.225623 146.003938 
L 149.451371 115.04335 
L 149.982298 42.720118 
L 150.040825 41.797502 
L 150.090991 42.571629 
L 150.203865 49.434159 
L 150.429614 80.248857 
L 150.964721 152.959234 
L 151.019067 153.80805 
L 151.073414 152.961497 
L 151.186288 145.956442 
L 151.412037 114.954703 
L 151.942963 42.703349 
L 151.99731 41.797578 
L 152.051657 42.587148 
L 152.164531 49.481184 
L 152.390279 80.337334 
L 152.925386 152.975313 
L 152.979733 153.807984 
L 153.03408 152.945287 
L 153.151135 145.52021 
L 153.381063 113.430403 
L 153.899448 42.824952 
L 153.957976 41.797098 
L 154.012322 42.60282 
L 154.125197 49.528342 
L 154.350945 80.42586 
L 154.886052 152.991239 
L 154.940399 153.807762 
L 154.994745 152.928924 
L 155.1118 145.47138 
L 155.345909 112.618519 
L 155.855933 42.95413 
L 155.918641 41.796773 
L 155.972988 42.618644 
L 156.085862 49.575634 
L 156.31161 80.514434 
L 156.842537 152.875581 
L 156.901064 153.807386 
L 156.95123 153.041139 
L 157.064105 146.195271 
L 157.285672 116.113404 
L 157.82914 42.52809 
L 157.879307 41.796603 
L 157.933654 42.634621 
L 158.046528 49.623059 
L 158.272276 80.603056 
L 158.803202 152.892431 
L 158.86173 153.806854 
L 158.911896 153.025701 
L 159.02477 146.148317 
L 159.250518 115.314069 
L 159.785625 42.637794 
L 159.839972 41.796588 
L 159.894319 42.650751 
L 160.007193 49.670618 
L 160.232941 80.691726 
L 160.763868 152.909129 
L 160.818215 153.807293 
L 160.872562 153.01011 
L 160.985436 146.10123 
L 161.211184 115.225568 
L 161.746291 42.621787 
L 161.800638 41.796727 
L 161.854985 42.667033 
L 161.972039 50.107417 
L 162.206149 82.938628 
L 162.716173 152.640515 
L 162.77888 153.8077 
L 162.833227 152.994366 
L 162.946101 146.054008 
L 163.17185 115.13702 
L 163.702776 42.738014 
L 163.761303 41.797022 
L 163.81565 42.683468 
L 163.932705 50.156308 
L 164.166814 83.028455 
L 164.676838 152.65936 
L 164.739546 153.807952 
L 164.793893 152.978469 
L 164.906767 146.006653 
L 165.132515 115.048423 
L 165.663442 42.721083 
L 165.721969 41.797471 
L 165.772135 42.570745 
L 165.885009 49.431471 
L 166.110758 80.243793 
L 166.645865 152.958308 
L 166.700212 153.808049 
L 166.754558 152.96242 
L 166.867432 145.959165 
L 167.093181 114.959779 
L 167.624107 42.704305 
L 167.678454 41.79761 
L 167.732801 42.586255 
L 167.845675 49.478488 
L 168.071423 80.332268 
L 168.60653 152.974396 
L 168.660877 153.807992 
L 168.715224 152.946219 
L 168.832279 145.523001 
L 169.062207 113.435523 
L 169.580592 42.82597 
L 169.63912 41.797121 
L 169.693466 42.601918 
L 169.806341 49.525639 
L 170.032089 80.420791 
L 170.567196 152.990332 
L 170.621543 153.807779 
L 170.675889 152.929864 
L 170.792944 145.474179 
L 171.027053 112.623661 
L 171.537077 42.955209 
L 171.599785 41.796787 
L 171.654132 42.617734 
L 171.767006 49.572923 
L 171.992754 80.509363 
L 172.523681 152.874612 
L 172.582208 153.807412 
L 172.632375 153.042018 
L 172.745249 146.197955 
L 172.966816 116.118443 
L 173.510284 42.528949 
L 173.560451 41.796608 
L 173.614798 42.633703 
L 173.727672 49.620341 
L 173.95342 80.597982 
L 174.484346 152.891471 
L 174.542874 153.806889 
L 174.59304 153.026589 
L 174.705914 146.151009 
L 174.931663 115.319134 
L 175.46677 42.638715 
L 175.521116 41.796584 
L 175.575463 42.649824 
L 175.688337 49.667892 
L 175.914086 80.686648 
L 176.445012 152.908177 
L 176.499359 153.807265 
L 176.553706 153.011006 
L 176.66658 146.103929 
L 176.892328 115.230636 
L 177.427435 42.622699 
L 177.481782 41.796715 
L 177.536129 42.666097 
L 177.653183 50.104622 
L 177.887293 82.933487 
L 178.397317 152.639432 
L 178.460024 153.807681 
L 178.514371 152.995271 
L 178.627245 146.056715 
L 178.852994 115.14209 
L 179.388101 42.606835 
L 179.442447 41.797001 
L 179.492614 42.554513 
L 179.605488 49.381907 
L 179.827056 79.439658 
L 180.370524 153.067718 
L 180.42069 153.807942 
L 180.475037 152.979384 
L 180.587911 146.009368 
L 180.813659 115.053496 
L 181.344586 42.722048 
L 181.403113 41.797441 
L 181.453279 42.569861 
L 181.566153 49.428783 
L 181.791902 80.23873 
L 182.327009 152.957383 
L 182.381356 153.808048 
L 182.435702 152.963343 
L 182.548577 145.961887 
L 182.774325 114.964855 
L 183.305251 42.705261 
L 183.359598 41.797643 
L 183.413945 42.585363 
L 183.526819 49.475793 
L 183.752567 80.327202 
L 184.287674 152.97348 
L 184.342021 153.807999 
L 184.396368 152.94715 
L 184.513423 145.525792 
L 184.743351 113.440644 
L 185.261736 42.826988 
L 185.320264 41.797145 
L 185.37461 42.601017 
L 185.487485 49.522936 
L 185.713233 80.415722 
L 186.24834 152.989424 
L 186.302687 153.807795 
L 186.357034 152.930805 
L 186.474088 145.476978 
L 186.708198 112.628803 
L 187.218221 42.956288 
L 187.280929 41.796802 
L 187.335276 42.616825 
L 187.44815 49.570213 
L 187.673898 80.504291 
L 188.204825 152.873642 
L 188.263352 153.807437 
L 188.313519 153.042897 
L 188.426393 146.200639 
L 188.64796 116.123482 
L 189.191429 42.529809 
L 189.241595 41.796614 
L 189.295942 42.632784 
L 189.408816 49.617623 
L 189.634564 80.592907 
L 190.165491 152.89051 
L 190.224018 153.806923 
L 190.274184 153.027476 
L 190.387058 146.1537 
L 190.612807 115.324199 
L 191.147914 42.639636 
L 191.20226 41.796581 
L 191.256607 42.648897 
L 191.369481 49.665166 
L 191.59523 80.681571 
L 192.126156 152.907225 
L 192.180503 153.807237 
L 192.23485 153.011903 
L 192.347724 146.106628 
L 192.573472 115.235704 
L 193.108579 42.623612 
L 193.162926 41.796703 
L 193.217273 42.665161 
L 193.334327 50.101827 
L 193.568437 82.928346 
L 194.078461 152.638348 
L 194.141169 153.807661 
L 194.195515 152.996176 
L 194.308389 146.059421 
L 194.534138 115.14716 
L 195.069245 42.607739 
L 195.123592 41.79698 
L 195.173758 42.553639 
L 195.286632 49.379228 
L 195.5082 79.434621 
L 196.051668 153.066854 
L 196.101834 153.807931 
L 196.156181 152.980297 
L 196.269055 146.012082 
L 196.494803 115.058569 
L 197.02573 42.723014 
L 197.084257 41.797412 
L 197.134423 42.568979 
L 197.247298 49.426096 
L 197.473046 80.233666 
L 198.008153 152.956457 
L 198.0625 153.808046 
L 198.116846 152.964266 
L 198.229721 145.964609 
L 198.455469 114.96993 
L 198.986395 42.706218 
L 199.040742 41.797676 
L 199.095089 42.584472 
L 199.207963 49.473098 
L 199.433711 80.322136 
L 199.968818 152.972562 
L 200.023165 153.808006 
L 200.077512 152.948081 
L 200.194567 145.528582 
L 200.424495 113.445764 
L 200.94288 42.828006 
L 201.001408 41.79717 
L 201.055755 42.600117 
L 201.168629 49.520233 
L 201.394377 80.410653 
L 201.929484 152.988515 
L 201.983831 153.807811 
L 202.038178 152.931745 
L 202.155232 145.479776 
L 202.389342 112.633945 
L 202.899365 42.957368 
L 202.962073 41.796818 
L 203.01642 42.615915 
L 203.129294 49.567503 
L 203.355043 80.499219 
L 203.885969 152.872672 
L 203.944496 153.807461 
L 203.994663 153.043775 
L 204.107537 146.203322 
L 204.329105 116.128521 
L 204.872573 42.530669 
L 204.922739 41.796621 
L 204.977086 42.631866 
L 205.08996 49.614905 
L 205.315708 80.587833 
L 205.846635 152.889548 
L 205.905162 153.806957 
L 205.955328 153.028363 
L 206.068202 146.156391 
L 206.293951 115.329263 
L 206.829058 42.640558 
L 206.883404 41.796579 
L 206.937751 42.64797 
L 207.050625 49.662441 
L 207.276374 80.676494 
L 207.8073 152.906272 
L 207.861647 153.807208 
L 207.915994 153.012798 
L 208.028868 146.109326 
L 208.254616 115.240771 
L 208.789723 42.624525 
L 208.84407 41.796692 
L 208.898417 42.664226 
L 209.015472 50.099033 
L 209.249581 82.923205 
L 209.759605 152.637264 
L 209.822313 153.807641 
L 209.876659 152.997081 
L 209.989534 146.062127 
L 210.215282 115.15223 
L 210.750389 42.608644 
L 210.804736 41.79696 
L 210.859082 42.680635 
L 210.976137 50.147902 
L 211.210246 83.013025 
L 211.72027 152.656134 
L 211.782978 153.80792 
L 211.837325 152.98121 
L 211.950199 146.014795 
L 212.175947 115.063642 
L 212.706874 42.72398 
L 212.765401 41.797383 
L 212.815567 42.568096 
L 212.928442 49.423409 
L 213.15419 80.228603 
L 213.689297 152.95553 
L 213.743644 153.808044 
L 213.797991 152.965187 
L 213.910865 145.96733 
L 214.136613 114.975006 
L 214.667539 42.707175 
L 214.721886 41.79771 
L 214.776233 42.58358 
L 214.889107 49.470404 
L 215.114855 80.31707 
L 215.649962 152.971644 
L 215.704309 153.808013 
L 215.758656 152.949012 
L 215.875711 145.531373 
L 216.10564 113.450884 
L 216.624024 42.829025 
L 216.682552 41.797194 
L 216.736899 42.599217 
L 216.849773 49.517532 
L 217.075521 80.405585 
L 217.610628 152.987606 
L 217.664975 153.807827 
L 217.719322 152.932684 
L 217.836376 145.482573 
L 218.070486 112.639087 
L 218.58051 42.958448 
L 218.643217 41.796834 
L 218.697564 42.615007 
L 218.810438 49.564793 
L 219.036187 80.494148 
L 219.567113 152.871701 
L 219.62564 153.807486 
L 219.675807 153.044653 
L 219.788681 146.206005 
L 220.010249 116.133559 
L 220.553717 42.53153 
L 220.603883 41.796628 
L 220.65823 42.630949 
L 220.771104 49.612188 
L 220.996852 80.582759 
L 221.527779 152.888586 
L 221.586306 153.80699 
L 221.636472 153.02925 
L 221.749346 146.159081 
L 221.975095 115.334328 
L 222.510202 42.641481 
L 222.564549 41.796577 
L 222.618895 42.647044 
L 222.731769 49.659716 
L 222.957518 80.671417 
L 223.488444 152.905319 
L 223.542791 153.807178 
L 223.597138 153.013693 
L 223.710012 146.112024 
L 223.93576 115.245838 
L 224.470867 42.625439 
L 224.525214 41.796681 
L 224.579561 42.663291 
L 224.696616 50.09624 
L 224.926544 82.195905 
L 225.444929 152.783976 
L 225.503457 153.807621 
L 225.557803 152.997985 
L 225.670678 146.064833 
L 225.896426 115.1573 
L 226.431533 42.609549 
L 226.48588 41.796941 
L 226.540226 42.679691 
L 226.657281 50.145101 
L 226.89139 83.007882 
L 227.401414 152.655058 
L 227.464122 153.807908 
L 227.518469 152.982123 
L 227.631343 146.017509 
L 227.857091 115.068715 
L 228.388018 42.724947 
L 228.446545 41.797355 
L 228.496712 42.567215 
L 228.609586 49.420723 
L 228.835334 80.22354 
L 229.370441 152.954603 
L 229.424788 153.808041 
L 229.479135 152.966109 
L 229.592009 145.970051 
L 229.817757 114.980081 
L 230.348683 42.708133 
L 230.40303 41.797744 
L 230.457377 42.58269 
L 230.570251 49.46771 
L 230.796 80.312004 
L 231.331107 152.970726 
L 231.385453 153.808019 
L 231.4398 152.949942 
L 231.552674 145.92246 
L 231.778423 114.8914 
L 232.309349 42.691472 
L 232.363696 41.79722 
L 232.418043 42.598318 
L 232.530917 49.51483 
L 232.756665 80.400516 
L 233.291772 152.986696 
L 233.346119 153.807841 
L 233.400466 152.933623 
L 233.51752 145.48537 
L 233.75163 112.644229 
L 234.261654 42.959529 
L 234.324361 41.79685 
L 234.378708 42.614099 
L 234.491582 49.562084 
L 234.717331 80.489077 
L 235.248257 152.87073 
L 235.306784 153.807509 
L 235.356951 153.04553 
L 235.469825 146.208687 
L 235.691393 116.138598 
L 236.234861 42.532392 
L 236.285027 41.796636 
L 236.339374 42.630032 
L 236.452248 49.609471 
L 236.677996 80.577685 
L 237.208923 152.887624 
L 237.26745 153.807022 
L 237.317616 153.030136 
L 237.43049 146.161771 
L 237.656239 115.339392 
L 238.191346 42.642404 
L 238.245693 41.796576 
L 238.300039 42.646119 
L 238.412914 49.656992 
L 238.638662 80.666341 
L 239.169588 152.904365 
L 239.223935 153.807148 
L 239.278282 153.014588 
L 239.391156 146.114721 
L 239.616904 115.250905 
L 240.152011 42.626353 
L 240.206358 41.796671 
L 240.260705 42.662357 
L 240.37776 50.093446 
L 240.607688 82.190784 
L 241.126073 152.78296 
L 241.184601 153.8076 
L 241.238947 152.998888 
L 241.351822 146.067538 
L 241.57757 115.16237 
L 242.112677 42.610454 
L 242.167024 41.796922 
L 242.221371 42.678748 
L 242.338425 50.1423 
L 242.572535 83.002739 
L 243.082558 152.653981 
L 243.145266 153.807896 
L 243.199613 152.983035 
L 243.312487 146.020221 
L 243.538235 115.073787 
L 244.069162 42.725914 
L 244.127689 41.797327 
L 244.177856 42.566333 
L 244.29073 49.418037 
L 244.516478 80.218477 
L 245.051585 152.953675 
L 245.105932 153.808037 
L 245.160279 152.96703 
L 245.273153 145.972771 
L 245.498901 114.985157 
L 246.029828 42.709092 
L 246.088355 41.797887 
L 246.138521 42.5818 
L 246.251395 49.465016 
L 246.477144 80.306939 
L 247.012251 152.969807 
L 247.066597 153.808024 
L 247.120944 152.950872 
L 247.233818 145.925188 
L 247.459567 114.896478 
L 247.990493 42.692422 
L 248.04484 41.797246 
L 248.099187 42.597419 
L 248.212061 49.512129 
L 248.437809 80.395448 
L 248.972916 152.985786 
L 249.027263 153.807856 
L 249.08161 152.934561 
L 249.198664 145.488167 
L 249.432774 112.64937 
L 249.942798 42.96061 
L 250.005506 41.796867 
L 250.059852 42.613191 
L 250.172726 49.559375 
L 250.398475 80.484006 
L 250.929401 152.869758 
L 250.987929 153.807533 
L 251.038095 153.046407 
L 251.150969 146.211368 
L 251.372537 116.143636 
L 251.916005 42.533253 
L 251.966171 41.796644 
L 252.020518 42.629116 
L 252.133392 49.606755 
L 252.35914 80.572611 
L 252.890067 152.886661 
L 252.948594 153.807054 
L 252.99876 153.031021 
L 253.111635 146.16446 
L 253.337383 115.344456 
L 253.87249 42.643327 
L 253.926837 41.796575 
L 253.981183 42.645194 
L 254.094058 49.654268 
L 254.319806 80.661264 
L 254.850732 152.903411 
L 254.905079 153.807118 
L 254.959426 153.015482 
L 255.0723 146.117418 
L 255.298048 115.255972 
L 255.833155 42.627268 
L 255.887502 41.796662 
L 255.941849 42.661424 
L 256.058904 50.090654 
L 256.288832 82.185663 
L 256.807217 152.781945 
L 256.865745 153.807578 
L 256.920092 152.999791 
L 257.032966 146.070243 
L 257.258714 115.16744 
L 257.793821 42.61136 
L 257.848168 41.796903 
L 257.902515 42.677806 
L 258.019569 50.1395 
L 258.253679 82.997596 
L 258.763702 152.652904 
L 258.82641 153.807883 
L 258.880757 152.983947 
L 258.993631 146.022934 
L 259.21938 115.07886 
L 259.750306 42.726881 
L 259.808833 41.797299 
L 259.859 42.565452 
L 259.971874 49.415352 
L 260.197622 80.213415 
L 260.732729 152.952747 
L 260.787076 153.808034 
L 260.841423 152.96795 
L 260.954297 145.975491 
L 261.180045 114.990232 
L 261.710972 42.71005 
L 261.769499 41.79785 
L 261.819665 42.58091 
L 261.932539 49.462323 
L 262.158288 80.301873 
L 262.693395 152.968888 
L 262.747741 153.808029 
L 262.802088 152.951801 
L 262.914962 145.927915 
L 263.140711 114.901556 
L 263.671637 42.693372 
L 263.725984 41.797272 
L 263.780331 42.596521 
L 263.893205 49.509428 
L 264.118953 80.39038 
L 264.65406 152.984876 
L 264.708407 153.80787 
L 264.762754 152.935499 
L 264.879809 145.490963 
L 265.113918 112.654512 
L 265.623942 42.961692 
L 265.68665 41.796885 
L 265.740996 42.612284 
L 265.853871 49.556667 
L 266.079619 80.478935 
L 266.610545 152.868786 
L 266.669073 153.807555 
L 266.719239 153.047283 
L 266.832113 146.21405 
L 267.053681 116.148675 
L 267.597149 42.534116 
L 267.647315 41.796652 
L 267.701662 42.6282 
L 267.814536 49.604039 
L 268.040284 80.567537 
L 268.571211 152.885697 
L 268.629738 153.807086 
L 268.679904 153.031906 
L 268.792779 146.167149 
L 269.018527 115.34952 
L 269.553634 42.644251 
L 269.607981 41.796575 
L 269.662328 42.644269 
L 269.775202 49.651544 
L 270.00095 80.656188 
L 270.531876 152.902456 
L 270.586223 153.807087 
L 270.64057 153.016376 
L 270.72 148.87296 
L 270.72 148.87296 
" clip-path="url(#pa9aaf30e1b)" style="fill: none; stroke: #000000; stroke-width: 1.5; stroke-linecap: square"/>
   </g>
   <g id="line2d_8">
    <path d="M 61.698 23.844545 
L 61.973915 68.820246 
L 62.308356 132.239789 
L 62.316717 132.177089 
L 62.371064 129.885077 
L 62.600993 112.815345 
L 62.676243 115.774081 
L 62.885269 132.045604 
L 62.952157 129.038934 
L 63.094295 106.177044 
L 63.407834 64.177335 
L 63.412015 64.165974 
L 63.437098 64.374417 
L 63.529069 68.137199 
L 63.779901 77.269509 
L 63.796623 77.243829 
L 63.85515 77.080839 
L 63.892775 77.268268 
L 63.968024 79.505802 
L 64.101801 92.184518 
L 64.486409 132.544022 
L 64.511492 132.371857 
L 64.595103 129.551227 
L 65.088405 99.114531 
L 65.53154 63.078768 
L 65.590067 63.997848 
L 65.728025 71.671289 
L 66.547407 131.556193 
L 66.618476 130.384945 
L 66.760614 122.018002 
L 67.538191 65.183472 
L 67.563275 65.312667 
L 67.642705 67.287014 
L 67.809926 78.554579 
L 68.48299 129.716633 
L 68.508073 129.812117 
L 68.554059 129.471006 
L 68.658572 126.147232 
L 68.859237 110.853708 
L 69.423608 66.245461 
L 69.477954 65.814741 
L 69.528121 66.227485 
L 69.636814 69.760846 
L 69.845841 85.411625 
L 70.414392 129.72533 
L 70.452016 129.964237 
L 70.506363 129.50369 
L 70.619237 125.620645 
L 70.840805 108.593658 
L 71.392634 65.805788 
L 71.434439 65.522962 
L 71.484606 65.949142 
L 71.59748 69.840114 
L 71.819048 86.947583 
L 72.370877 129.772452 
L 72.416863 130.107703 
L 72.467029 129.667541 
L 72.579903 125.710619 
L 72.805651 107.991352 
L 73.344939 65.959882 
L 73.395105 65.515697 
L 73.449452 65.979338 
L 73.562326 69.985895 
L 73.788074 87.830094 
L 74.319001 129.515718 
L 74.377528 130.06799 
L 74.431875 129.565911 
L 74.54893 125.270423 
L 74.783039 106.317468 
L 75.293063 66.21201 
L 75.355771 65.545434 
L 75.410117 66.017633 
L 75.522992 70.022202 
L 75.74874 87.852524 
L 76.279666 129.526116 
L 76.338194 130.059542 
L 76.38836 129.6163 
L 76.501234 125.671482 
L 76.722802 108.341838 
L 77.26627 65.959417 
L 77.316436 65.541412 
L 77.370783 66.027439 
L 77.483657 70.057879 
L 77.709405 87.906146 
L 78.240332 129.540927 
L 78.298859 130.064393 
L 78.349026 129.611498 
L 78.4619 125.643881 
L 78.687648 107.876552 
L 79.222755 66.021197 
L 79.277102 65.539086 
L 79.331449 66.033784 
L 79.448503 70.306828 
L 79.678432 88.7865 
L 80.196817 129.469838 
L 80.255344 130.064808 
L 80.309691 129.603235 
L 80.422565 125.618434 
L 80.648314 107.825398 
L 81.183421 66.01293 
L 81.237767 65.539943 
L 81.292114 66.04359 
L 81.409169 70.334425 
L 81.643278 89.253557 
L 82.153302 129.394899 
L 82.21601 130.064512 
L 82.270357 129.593622 
L 82.383231 125.591 
L 82.608979 107.774874 
L 83.139906 66.079689 
L 83.198433 65.54025 
L 83.248599 65.979346 
L 83.361473 69.918027 
L 83.583041 87.24042 
L 84.126509 129.641058 
L 84.176675 130.064718 
L 84.231022 129.584449 
L 84.343896 125.563566 
L 84.569645 107.72377 
L 85.100571 66.069873 
L 85.159099 65.54044 
L 85.209265 65.988138 
L 85.322139 69.945053 
L 85.547887 87.700898 
L 86.082994 129.577712 
L 86.137341 130.064788 
L 86.191688 129.575231 
L 86.304562 125.536232 
L 86.53031 107.672659 
L 87.061237 66.060248 
L 87.115584 65.540359 
L 87.16993 65.997086 
L 87.282804 69.972129 
L 87.508553 87.751872 
L 88.04366 129.58694 
L 88.098007 130.064717 
L 88.152353 129.565867 
L 88.269408 125.284804 
L 88.499337 106.794498 
L 89.017722 66.130178 
L 89.076249 65.540109 
L 89.130596 66.006141 
L 89.24347 69.999315 
L 89.469218 87.802865 
L 90.004325 129.596098 
L 90.058672 130.06457 
L 90.113019 129.556419 
L 90.230074 125.256655 
L 90.464183 106.326764 
L 90.974207 66.204464 
L 91.036915 65.539939 
L 91.091262 66.015274 
L 91.204136 70.026576 
L 91.429884 87.853896 
L 91.96081 129.5296 
L 92.019338 130.064337 
L 92.069504 129.62119 
L 92.182378 125.673892 
L 92.408126 107.930669 
L 92.943233 66.03185 
L 92.99758 65.539858 
L 93.051927 66.024495 
L 93.164801 70.05391 
L 93.390549 87.904953 
L 93.921476 129.539289 
L 93.980003 130.064012 
L 94.03017 129.612278 
L 94.143044 125.646829 
L 94.368792 107.87971 
L 94.903899 66.022559 
L 94.958246 65.539868 
L 95.012593 66.033804 
L 95.129647 70.30498 
L 95.359576 88.78289 
L 95.877961 129.469036 
L 95.936488 130.064393 
L 95.990835 129.603279 
L 96.103709 125.619688 
L 96.329458 107.828723 
L 96.864565 66.013356 
L 96.918911 65.539966 
L 96.973258 66.043202 
L 97.090313 70.333084 
L 97.324422 89.250509 
L 97.834446 129.394422 
L 97.897154 130.064609 
L 97.951501 129.594192 
L 98.064375 125.59247 
L 98.290123 107.777708 
L 98.82105 66.080183 
L 98.879577 65.540154 
L 98.929743 65.978761 
L 99.042617 69.916458 
L 99.264185 87.237596 
L 99.807653 129.640564 
L 99.85782 130.064736 
L 99.912166 129.585017 
L 100.02504 125.565175 
L 100.250789 107.726666 
L 100.781715 66.070448 
L 100.840243 65.540431 
L 100.890409 65.987626 
L 101.003283 69.943481 
L 101.229031 87.697974 
L 101.764138 129.577166 
L 101.818485 130.064774 
L 101.872832 129.575754 
L 101.985706 125.537803 
L 102.211454 107.675596 
L 102.742381 66.060801 
L 102.796728 65.540383 
L 102.851074 65.996579 
L 102.963949 69.970581 
L 103.189697 87.748946 
L 103.724804 129.586416 
L 103.779151 130.064723 
L 103.833497 129.566403 
L 103.950552 125.286408 
L 104.180481 106.797449 
L 104.698866 66.130761 
L 104.757393 65.54012 
L 104.81174 66.005619 
L 104.924614 69.997758 
L 105.150362 87.799946 
L 105.685469 129.595578 
L 105.739816 130.064582 
L 105.794163 129.556964 
L 105.911218 125.258268 
L 106.145327 106.329726 
L 106.655351 66.205084 
L 106.718059 65.539946 
L 106.772406 66.014748 
L 106.88528 70.025013 
L 107.111028 87.850974 
L 107.641954 129.529042 
L 107.700482 130.064352 
L 107.750648 129.621697 
L 107.863522 125.675439 
L 108.089271 107.933586 
L 108.624378 66.032385 
L 108.678724 65.53986 
L 108.733071 66.023965 
L 108.845945 70.052344 
L 109.071694 87.902029 
L 109.60262 129.538736 
L 109.661147 130.064033 
L 109.711314 129.612791 
L 109.824188 125.64838 
L 110.049936 107.882628 
L 110.585043 66.023089 
L 110.63939 65.539865 
L 110.693737 66.033269 
L 110.806611 70.079751 
L 111.032359 87.953112 
L 111.563286 129.548342 
L 111.617632 130.064378 
L 111.671979 129.603797 
L 111.784853 125.621243 
L 112.010602 107.831643 
L 112.545709 66.01388 
L 112.600055 65.539958 
L 112.654402 66.042662 
L 112.771457 70.331473 
L 113.005566 89.247548 
L 113.51559 129.393799 
L 113.578298 130.064599 
L 113.632645 129.594714 
L 113.745519 125.59403 
L 113.971267 107.78063 
L 114.502194 66.080743 
L 114.560721 65.540141 
L 114.610887 65.978256 
L 114.723761 69.914913 
L 114.945329 87.234694 
L 115.488797 129.640067 
L 115.538964 130.064731 
L 115.59331 129.585544 
L 115.706185 125.56674 
L 115.931933 107.729589 
L 116.462859 66.071003 
L 116.521387 65.540413 
L 116.571553 65.987116 
L 116.684427 69.941932 
L 116.910175 87.695057 
L 117.445282 129.576634 
L 117.499629 130.064774 
L 117.553976 129.576286 
L 117.66685 125.539372 
L 117.892598 107.678521 
L 118.423525 66.061351 
L 118.477872 65.540401 
L 118.532218 65.996064 
L 118.645093 69.969028 
L 118.870841 87.746028 
L 119.405948 129.585889 
L 119.460295 130.064728 
L 119.514642 129.56694 
L 119.631696 125.288017 
L 119.861625 106.800399 
L 120.38001 66.131346 
L 120.438537 65.540132 
L 120.492884 66.005099 
L 120.605758 69.996201 
L 120.831506 87.797026 
L 121.366613 129.595055 
L 121.42096 130.064593 
L 121.475307 129.557506 
L 121.592362 125.259881 
L 121.826471 106.332688 
L 122.336495 66.205705 
L 122.399203 65.539953 
L 122.45355 66.014223 
L 122.566424 70.02345 
L 122.792172 87.848052 
L 123.323099 129.528485 
L 123.381626 130.064368 
L 123.431792 129.622204 
L 123.544666 125.676986 
L 123.770415 107.936502 
L 124.305522 66.03292 
L 124.359868 65.539863 
L 124.414215 66.023435 
L 124.527089 70.050777 
L 124.752838 87.899106 
L 125.283764 129.538184 
L 125.342291 130.064054 
L 125.392458 129.613303 
L 125.505332 125.649931 
L 125.73108 107.885546 
L 126.266187 66.023619 
L 126.320534 65.539862 
L 126.374881 66.032734 
L 126.487755 70.07818 
L 126.713503 87.950187 
L 127.24443 129.547795 
L 127.298776 130.064362 
L 127.353123 129.604314 
L 127.465997 125.622799 
L 127.691746 107.834562 
L 128.226853 66.014405 
L 128.2812 65.53995 
L 128.335546 66.042121 
L 128.452601 70.329862 
L 128.68671 89.244586 
L 129.196734 129.393176 
L 129.259442 130.064589 
L 129.313789 129.595237 
L 129.426663 125.59559 
L 129.652411 107.783551 
L 130.183338 66.081304 
L 130.241865 65.540128 
L 130.296212 66.051597 
L 130.413267 70.358033 
L 130.647376 89.296333 
L 131.1574 129.404023 
L 131.220108 130.064726 
L 131.274454 129.586072 
L 131.387329 125.568304 
L 131.613077 107.732512 
L 132.144003 66.071558 
L 132.202531 65.540395 
L 132.252697 65.986606 
L 132.365571 69.940383 
L 132.591319 87.69214 
L 133.126426 129.576101 
L 133.180773 130.064774 
L 133.23512 129.576819 
L 133.347994 125.540941 
L 133.573742 107.681445 
L 134.104669 66.061901 
L 134.159016 65.540419 
L 134.213363 65.995549 
L 134.326237 69.967475 
L 134.551985 87.743109 
L 135.087092 129.585361 
L 135.141439 130.064733 
L 135.195786 129.567478 
L 135.31284 125.289625 
L 135.542769 106.803348 
L 136.061154 66.131932 
L 136.119681 65.540145 
L 136.174028 66.00458 
L 136.286902 69.994643 
L 136.512651 87.794106 
L 137.047758 129.594533 
L 137.102104 130.064603 
L 137.156451 129.558049 
L 137.273506 125.261494 
L 137.507615 106.33565 
L 138.017639 66.206326 
L 138.080347 65.539961 
L 138.134694 66.013698 
L 138.247568 70.021888 
L 138.473316 87.84513 
L 139.004243 129.527927 
L 139.06277 130.064383 
L 139.112936 129.622711 
L 139.22581 125.678533 
L 139.451559 107.939418 
L 139.986666 66.033455 
L 140.041012 65.539866 
L 140.095359 66.022905 
L 140.208233 70.04921 
L 140.433982 87.896182 
L 140.964908 129.537631 
L 141.023436 130.064074 
L 141.073602 129.613815 
L 141.186476 125.651482 
L 141.412224 107.888464 
L 141.947331 66.024149 
L 142.001678 65.53986 
L 142.056025 66.032199 
L 142.168899 70.076609 
L 142.394647 87.947262 
L 142.925574 129.547247 
L 142.979921 130.064347 
L 143.034267 129.604831 
L 143.147142 125.624354 
L 143.37289 107.837482 
L 143.907997 66.01493 
L 143.962344 65.539943 
L 144.01669 66.041582 
L 144.133745 70.328252 
L 144.367854 89.241624 
L 144.877878 129.392552 
L 144.940586 130.064578 
L 144.994933 129.595759 
L 145.107807 125.59715 
L 145.333555 107.786472 
L 145.864482 66.081864 
L 145.923009 65.540115 
L 145.977356 66.051052 
L 146.094411 70.356418 
L 146.32852 89.29337 
L 146.838544 129.403405 
L 146.901252 130.064721 
L 146.955599 129.586599 
L 147.068473 125.569868 
L 147.294221 107.735434 
L 147.825147 66.072114 
L 147.883675 65.540377 
L 147.933841 65.986097 
L 148.046715 69.938835 
L 148.272463 87.689223 
L 148.80757 129.575569 
L 148.861917 130.064774 
L 148.916264 129.577351 
L 149.029138 125.54251 
L 149.254886 107.684369 
L 149.785813 66.062451 
L 149.84016 65.540438 
L 149.894507 65.995035 
L 150.007381 69.965922 
L 150.233129 87.74019 
L 150.768236 129.584833 
L 150.822583 130.064738 
L 150.87693 129.568015 
L 150.993984 125.291233 
L 151.223913 106.806298 
L 151.742298 66.132518 
L 151.800825 65.540159 
L 151.855172 66.00406 
L 151.968046 69.993086 
L 152.193795 87.791186 
L 152.728902 129.59401 
L 152.783248 130.064613 
L 152.837595 129.558591 
L 152.95465 125.263106 
L 153.188759 106.338613 
L 153.698783 66.206947 
L 153.761491 65.539969 
L 153.815838 66.013174 
L 153.928712 70.020326 
L 154.15446 87.842209 
L 154.685387 129.527369 
L 154.743914 130.064398 
L 154.79408 129.623218 
L 154.906954 125.680079 
L 155.128522 108.351837 
L 155.67199 65.961468 
L 155.722157 65.539869 
L 155.776503 66.022375 
L 155.889377 70.047644 
L 156.115126 87.893259 
L 156.646052 129.537078 
L 156.70458 130.064094 
L 156.754746 129.614327 
L 156.86762 125.653033 
L 157.093368 107.891381 
L 157.628475 66.024679 
L 157.682822 65.539858 
L 157.737169 66.031665 
L 157.850043 70.075039 
L 158.075791 87.944337 
L 158.606718 129.546699 
L 158.661065 130.064331 
L 158.715411 129.605347 
L 158.828286 125.625909 
L 159.054034 107.840401 
L 159.589141 66.015456 
L 159.643488 65.539936 
L 159.697834 66.041042 
L 159.814889 70.326642 
L 160.048998 89.238663 
L 160.559022 129.391928 
L 160.62173 130.064568 
L 160.676077 129.59628 
L 160.788951 125.598709 
L 161.014699 107.789393 
L 161.545626 66.082425 
L 161.604153 65.540103 
L 161.6585 66.050507 
L 161.775555 70.354804 
L 162.009664 89.290407 
L 162.519688 129.402786 
L 162.582396 130.064715 
L 162.636743 129.587125 
L 162.749617 125.571432 
L 162.975365 107.738357 
L 163.506291 66.07267 
L 163.564819 65.54036 
L 163.614985 65.985588 
L 163.727859 69.937286 
L 163.953608 87.686306 
L 164.488715 129.575036 
L 164.543061 130.064773 
L 164.597408 129.577882 
L 164.710282 125.544078 
L 164.936031 107.687293 
L 165.466957 66.063002 
L 165.521304 65.540456 
L 165.575651 65.994521 
L 165.688525 69.964369 
L 165.914273 87.737272 
L 166.44938 129.584305 
L 166.503727 130.064742 
L 166.558074 129.568552 
L 166.675128 125.292841 
L 166.905057 106.809248 
L 167.423442 66.133104 
L 167.481969 65.540172 
L 167.536316 66.003541 
L 167.64919 69.991528 
L 167.874939 87.788266 
L 168.410046 129.593487 
L 168.464392 130.064622 
L 168.518739 129.559133 
L 168.635794 125.264719 
L 168.869903 106.341575 
L 169.379927 66.207569 
L 169.442635 65.539978 
L 169.496982 66.01265 
L 169.609856 70.018765 
L 169.835604 87.839287 
L 170.366531 129.52681 
L 170.425058 130.064413 
L 170.475224 129.623724 
L 170.588098 125.681625 
L 170.809666 108.35474 
L 171.353134 65.961963 
L 171.403301 65.539872 
L 171.457647 66.021846 
L 171.570522 70.046078 
L 171.79627 87.890336 
L 172.327196 129.536524 
L 172.385724 130.064114 
L 172.43589 129.614838 
L 172.548764 125.654583 
L 172.774512 107.894299 
L 173.309619 66.02521 
L 173.363966 65.539856 
L 173.418313 66.031131 
L 173.531187 70.073468 
L 173.756935 87.941412 
L 174.287862 129.54615 
L 174.342209 130.064315 
L 174.396555 129.605864 
L 174.50943 125.627464 
L 174.735178 107.84332 
L 175.270285 66.015981 
L 175.324632 65.539929 
L 175.378979 66.040503 
L 175.496033 70.325032 
L 175.730143 89.235701 
L 176.240166 129.391304 
L 176.302874 130.064556 
L 176.357221 129.596802 
L 176.470095 125.600268 
L 176.695843 107.792313 
L 177.23095 66.006841 
L 177.285297 65.540091 
L 177.339644 66.049963 
L 177.456699 70.35319 
L 177.690808 89.287445 
L 178.200832 129.402166 
L 178.26354 130.064709 
L 178.317887 129.587652 
L 178.430761 125.572996 
L 178.656509 107.741279 
L 179.187436 66.073226 
L 179.245963 65.540343 
L 179.296129 65.985079 
L 179.409003 69.935738 
L 179.634752 87.683389 
L 180.169859 129.574502 
L 180.224205 130.064772 
L 180.278552 129.578414 
L 180.391426 125.545646 
L 180.617175 107.690217 
L 181.148101 66.063553 
L 181.206628 65.540683 
L 181.256795 65.994007 
L 181.369669 69.962816 
L 181.595417 87.734353 
L 182.130524 129.583777 
L 182.184871 130.064747 
L 182.239218 129.569088 
L 182.356272 125.294448 
L 182.586201 106.812197 
L 183.104586 66.13369 
L 183.163114 65.540186 
L 183.21746 66.003023 
L 183.330334 69.989972 
L 183.556083 87.785346 
L 184.09119 129.592964 
L 184.145537 130.064632 
L 184.199883 129.559674 
L 184.316938 125.266331 
L 184.551047 106.344537 
L 185.061071 66.208191 
L 185.123779 65.539986 
L 185.178126 66.012126 
L 185.291 70.017204 
L 185.516748 87.836365 
L 186.047675 129.526251 
L 186.106202 130.064427 
L 186.156368 129.62423 
L 186.269243 125.683171 
L 186.49081 108.357642 
L 187.034278 65.962458 
L 187.084445 65.539876 
L 187.138791 66.021318 
L 187.251666 70.044513 
L 187.477414 87.887413 
L 188.00834 129.53597 
L 188.066868 130.064134 
L 188.117034 129.615349 
L 188.229908 125.656133 
L 188.455656 107.897217 
L 188.990763 66.025741 
L 189.04511 65.539854 
L 189.099457 66.030597 
L 189.212331 70.071898 
L 189.438079 87.938487 
L 189.969006 129.545602 
L 190.023353 130.064298 
L 190.0777 129.60638 
L 190.190574 125.629019 
L 190.416322 107.846239 
L 190.951429 66.016507 
L 191.005776 65.539922 
L 191.060123 66.039964 
L 191.177177 70.323422 
L 191.411287 89.23274 
L 191.92131 129.390679 
L 191.984018 130.064545 
L 192.038365 129.597323 
L 192.151239 125.601827 
L 192.376988 107.795234 
L 192.912095 66.007362 
L 192.966441 65.540079 
L 193.020788 66.049419 
L 193.137843 70.351576 
L 193.371952 89.284482 
L 193.881976 129.401547 
L 193.944684 130.064703 
L 193.999031 129.588178 
L 194.111905 125.574559 
L 194.337653 107.744201 
L 194.86858 66.073782 
L 194.927107 65.540326 
L 194.977273 65.984571 
L 195.090147 69.93419 
L 195.315896 87.680473 
L 195.851003 129.573969 
L 195.905349 130.064771 
L 195.959696 129.578945 
L 196.07257 125.547214 
L 196.298319 107.693141 
L 196.829245 66.064104 
L 196.887773 65.540662 
L 196.937939 65.993494 
L 197.050813 69.961264 
L 197.276561 87.731435 
L 197.811668 129.583249 
L 197.866015 130.064751 
L 197.920362 129.569624 
L 198.037417 125.296056 
L 198.267345 106.815147 
L 198.78573 66.134277 
L 198.844258 65.5402 
L 198.898604 66.002504 
L 199.011479 69.988415 
L 199.237227 87.782426 
L 199.772334 129.592441 
L 199.826681 130.064641 
L 199.881027 129.560216 
L 199.998082 125.267942 
L 200.232191 106.347499 
L 200.742215 66.208813 
L 200.804923 65.539995 
L 200.85927 66.011603 
L 200.972144 70.015643 
L 201.197892 87.833444 
L 201.728819 129.525692 
L 201.787346 130.064441 
L 201.837512 129.624736 
L 201.950387 125.684716 
L 202.171954 108.360545 
L 202.715422 65.962954 
L 202.765589 65.53988 
L 202.819936 66.020789 
L 202.93281 70.042947 
L 203.158558 87.88449 
L 203.689484 129.535416 
L 203.748012 130.064153 
L 203.798178 129.61586 
L 203.911052 125.657683 
L 204.1368 107.900134 
L 204.671907 66.026272 
L 204.726254 65.539853 
L 204.780601 66.030063 
L 204.893475 70.070329 
L 205.119224 87.935563 
L 205.65015 129.545053 
L 205.704497 130.064281 
L 205.758844 129.606896 
L 205.871718 125.630573 
L 206.097466 107.849158 
L 206.632573 66.017033 
L 206.68692 65.539916 
L 206.741267 66.039425 
L 206.858321 70.321813 
L 207.092431 89.229778 
L 207.602455 129.390055 
L 207.665162 130.064533 
L 207.719509 129.597844 
L 207.832383 125.603386 
L 208.058132 107.798155 
L 208.593239 66.007883 
L 208.647585 65.540068 
L 208.701932 66.048876 
L 208.818987 70.349962 
L 209.053096 89.281519 
L 209.56312 129.400927 
L 209.625828 130.064696 
L 209.680175 129.588704 
L 209.793049 125.576122 
L 210.018797 107.747124 
L 210.549724 66.074339 
L 210.608251 65.540309 
L 210.658417 65.984063 
L 210.771291 69.932643 
L 210.99704 87.677556 
L 211.532147 129.573435 
L 211.586494 130.06477 
L 211.64084 129.579476 
L 211.753714 125.548781 
L 211.979463 107.696065 
L 212.510389 66.064656 
L 212.568917 65.54064 
L 212.619083 65.99298 
L 212.731957 69.959712 
L 212.957705 87.728517 
L 213.492812 129.58272 
L 213.547159 130.064754 
L 213.601506 129.57016 
L 213.718561 125.297663 
L 213.948489 106.818096 
L 214.466874 66.134864 
L 214.525402 65.540215 
L 214.579748 66.001986 
L 214.692623 69.986859 
L 214.918371 87.779506 
L 215.453478 129.591917 
L 215.507825 130.064649 
L 215.562171 129.560757 
L 215.679226 125.269554 
L 215.913335 106.350461 
L 216.423359 66.209435 
L 216.486067 65.540005 
L 216.540414 66.011079 
L 216.653288 70.014082 
L 216.879036 87.830523 
L 217.409963 129.525133 
L 217.46849 130.064455 
L 217.518657 129.625241 
L 217.631531 125.686261 
L 217.853098 108.363447 
L 218.396566 65.96345 
L 218.446733 65.539884 
L 218.50108 66.020261 
L 218.613954 70.041382 
L 218.839702 87.881567 
L 219.370628 129.534862 
L 219.429156 130.064172 
L 219.479322 129.61637 
L 219.592196 125.659233 
L 219.817945 107.903051 
L 220.353052 66.026803 
L 220.407398 65.539852 
L 220.461745 66.02953 
L 220.574619 70.068759 
L 220.800368 87.932638 
L 221.331294 129.544503 
L 221.385641 130.064264 
L 221.439988 129.607411 
L 221.552862 125.632127 
L 221.77861 107.852077 
L 222.313717 66.01756 
L 222.368064 65.53991 
L 222.422411 66.038887 
L 222.539465 70.320203 
L 222.769394 88.810818 
L 223.287779 129.474587 
L 223.346306 130.064521 
L 223.400653 129.598364 
L 223.513527 125.604944 
L 223.739276 107.801075 
L 224.274383 66.008404 
L 224.328729 65.540057 
L 224.383076 66.048332 
L 224.500131 70.348348 
L 224.73424 89.278556 
L 225.244264 129.400307 
L 225.306972 130.064689 
L 225.361319 129.58923 
L 225.474193 125.577685 
L 225.699941 107.750046 
L 226.230868 66.074896 
L 226.289395 65.540293 
L 226.339561 65.983555 
L 226.452435 69.931096 
L 226.678184 87.674639 
L 227.213291 129.572901 
L 227.267638 130.064768 
L 227.321984 129.580007 
L 227.434859 125.550348 
L 227.660607 107.698988 
L 228.191533 66.065208 
L 228.250061 65.540619 
L 228.300227 65.992468 
L 228.413101 69.958161 
L 228.638849 87.725599 
L 229.173956 129.582191 
L 229.228303 130.064757 
L 229.28265 129.570696 
L 229.399705 125.29927 
L 229.629633 106.821046 
L 230.148018 66.135452 
L 230.206546 65.540229 
L 230.260892 66.001468 
L 230.373767 69.985302 
L 230.599515 87.776586 
L 231.134622 129.591393 
L 231.188969 130.064658 
L 231.243316 129.561297 
L 231.36037 125.271165 
L 231.59448 106.353423 
L 232.104503 66.210058 
L 232.167211 65.540014 
L 232.221558 66.010556 
L 232.334432 70.012521 
L 232.56018 87.827601 
L 233.091107 129.524573 
L 233.149634 130.064469 
L 233.199801 129.625746 
L 233.312675 125.687806 
L 233.534242 108.36635 
L 234.077711 65.963946 
L 234.127877 65.539888 
L 234.182224 66.019733 
L 234.295098 70.039817 
L 234.520846 87.878644 
L 235.051773 129.534307 
L 235.1103 130.06419 
L 235.160466 129.616881 
L 235.27334 125.660782 
L 235.499089 107.905969 
L 236.034196 66.027335 
L 236.088542 65.539852 
L 236.142889 66.028997 
L 236.255763 70.06719 
L 236.481512 87.929714 
L 237.012438 129.543954 
L 237.066785 130.064247 
L 237.121132 129.607927 
L 237.234006 125.633681 
L 237.459754 107.854996 
L 237.994861 66.018087 
L 238.049208 65.539904 
L 238.103555 66.038349 
L 238.220609 70.318594 
L 238.450538 88.807868 
L 238.968923 129.474002 
L 239.027451 130.064509 
L 239.081797 129.598885 
L 239.194671 125.606503 
L 239.42042 107.803996 
L 239.955527 66.008926 
L 240.009874 65.540046 
L 240.06422 66.047789 
L 240.181275 70.346735 
L 240.415384 89.275594 
L 240.925408 129.399687 
L 240.988116 130.064682 
L 241.042463 129.589755 
L 241.155337 125.579247 
L 241.381085 107.752968 
L 241.912012 66.075453 
L 241.970539 65.540277 
L 242.020705 65.983048 
L 242.13358 69.929549 
L 242.359328 87.671723 
L 242.894435 129.572366 
L 242.948782 130.064766 
L 243.003128 129.580537 
L 243.116003 125.551915 
L 243.341751 107.701912 
L 243.872677 66.06576 
L 243.931205 65.540598 
L 243.981371 65.991955 
L 244.094245 69.956609 
L 244.319993 87.722681 
L 244.8551 129.581661 
L 244.909447 130.06476 
L 244.963794 129.571231 
L 245.076668 125.524507 
L 245.302416 107.650829 
L 245.833343 66.056155 
L 245.88769 65.540244 
L 245.942037 66.00095 
L 246.054911 69.983747 
L 246.280659 87.773667 
L 246.815766 129.590868 
L 246.870113 130.064666 
L 246.92446 129.561838 
L 247.041514 125.272776 
L 247.275624 106.356385 
L 247.785647 66.210681 
L 247.848355 65.540024 
L 247.902702 66.010034 
L 248.015576 70.010961 
L 248.241325 87.82468 
L 248.772251 129.524013 
L 248.830778 130.064482 
L 248.880945 129.626251 
L 248.993819 125.689351 
L 249.215387 108.369252 
L 249.758855 65.964443 
L 249.809021 65.539893 
L 249.863368 66.019205 
L 249.976242 70.038252 
L 250.20199 87.875721 
L 250.732917 129.533753 
L 250.791444 130.064209 
L 250.84161 129.61739 
L 250.954484 125.662331 
L 251.180233 107.908886 
L 251.71534 66.027867 
L 251.769686 65.539851 
L 251.824033 66.028464 
L 251.936907 70.065621 
L 252.162656 87.92679 
L 252.693582 129.543404 
L 252.747929 130.064229 
L 252.802276 129.608442 
L 252.91515 125.635234 
L 253.140898 107.857915 
L 253.676005 66.018614 
L 253.730352 65.539899 
L 253.784699 66.037811 
L 253.901754 70.316986 
L 254.131682 88.804918 
L 254.650067 129.473417 
L 254.708595 130.064496 
L 254.762941 129.599405 
L 254.875816 125.60806 
L 255.101564 107.806916 
L 255.636671 66.009448 
L 255.691018 65.540036 
L 255.745364 66.047246 
L 255.862419 70.345122 
L 256.096528 89.272631 
L 256.606552 129.399066 
L 256.66926 130.064675 
L 256.723607 129.59028 
L 256.836481 125.58081 
L 257.062229 107.75589 
L 257.593156 66.076011 
L 257.651683 65.540262 
L 257.701849 65.98254 
L 257.814724 69.928002 
L 258.040472 87.668807 
L 258.575579 129.571831 
L 258.629926 130.064763 
L 258.684273 129.581067 
L 258.797147 125.553482 
L 259.022895 107.704836 
L 259.553821 66.066313 
L 259.612349 65.540577 
L 259.662515 65.991443 
L 259.775389 69.955058 
L 260.001137 87.719763 
L 260.536244 129.581131 
L 260.590591 130.064763 
L 260.644938 129.571766 
L 260.757812 125.526078 
L 260.983561 107.653754 
L 261.514487 66.056703 
L 261.568834 65.54026 
L 261.623181 66.000433 
L 261.736055 69.982191 
L 261.961803 87.770747 
L 262.49691 129.590343 
L 262.551257 130.064674 
L 262.605604 129.562378 
L 262.722658 125.274387 
L 262.956768 106.359347 
L 263.466792 66.211304 
L 263.529499 65.540034 
L 263.583846 66.009511 
L 263.69672 70.009401 
L 263.922469 87.821759 
L 264.453395 129.523453 
L 264.511922 130.064495 
L 264.566269 129.552902 
L 264.683324 125.246215 
L 264.917433 106.307599 
L 265.427457 66.200458 
L 265.490165 65.539898 
L 265.544512 66.018678 
L 265.657386 70.036688 
L 265.883134 87.872798 
L 266.414061 129.533197 
L 266.472588 130.064227 
L 266.522754 129.6179 
L 266.635628 125.66388 
L 266.861377 107.911803 
L 267.396484 66.0284 
L 267.450831 65.539851 
L 267.505177 66.027932 
L 267.618051 70.064052 
L 267.8438 87.923865 
L 268.374726 129.542854 
L 268.429073 130.064211 
L 268.48342 129.608956 
L 268.596294 125.636788 
L 268.822042 107.860834 
L 269.357149 66.019141 
L 269.411496 65.539894 
L 269.465843 66.037274 
L 269.582898 70.315377 
L 269.812826 88.801968 
L 270.331211 129.472831 
L 270.389739 130.064483 
L 270.444085 129.599924 
L 270.55696 125.609618 
L 270.72 113.732044 
L 270.72 113.732044 
" clip-path="url(#pa9aaf30e1b)" style="fill: none; stroke: #808080; stroke-width: 1.5; stroke-linecap: square"/>
   </g>
   <g id="line2d_9">
    <path d="M 61.698 53.311778 
L 61.764888 41.066593 
L 61.819235 49.243784 
L 62.128594 155.135455 
L 62.233107 137.551198 
L 62.509022 58.628864 
L 62.571729 65.058021 
L 62.839283 131.375877 
L 62.935435 117.785492 
L 63.207169 58.920079 
L 63.261516 62.033021 
L 63.407834 91.133411 
L 63.600138 118.961058 
L 63.629402 118.326753 
L 63.721373 108.837751 
L 63.922039 87.22586 
L 63.968024 88.881775 
L 64.101801 106.225784 
L 64.281564 123.466643 
L 64.315008 122.722316 
L 64.41534 113.362072 
L 64.703796 83.473579 
L 64.741421 84.019844 
L 64.866837 91.157874 
L 65.004794 96.674562 
L 65.046599 96.081146 
L 65.163654 89.538613 
L 65.339236 81.07935 
L 65.381041 81.655003 
L 65.485554 87.984853 
L 65.815816 110.471449 
L 65.84926 110.227077 
L 65.974676 106.8561 
L 66.108452 104.473461 
L 66.154438 104.739181 
L 66.371825 108.382363 
L 66.455436 107.115394 
L 66.605935 98.925058 
L 66.915293 84.948857 
L 66.944557 85.050692 
L 67.04489 86.616745 
L 67.350068 90.703734 
L 67.471303 92.369327 
L 67.642705 98.906067 
L 67.989688 110.871728 
L 68.027313 110.705902 
L 68.140187 108.84527 
L 68.679474 94.105684 
L 69.026458 84.952738 
L 69.064083 85.092493 
L 69.168596 86.718416 
L 69.494677 96.79552 
L 70.017242 110.160627 
L 70.038145 110.186218 
L 70.07995 110.028248 
L 70.184463 108.456759 
L 70.431114 100.38506 
L 70.907694 86.590214 
L 71.020568 85.820218 
L 71.066553 85.963185 
L 71.171067 87.338124 
L 71.384273 93.876547 
L 71.894297 109.129983 
L 71.990449 109.628824 
L 72.036435 109.496869 
L 72.140948 108.273714 
L 72.341613 102.694795 
L 72.914345 86.059316 
L 72.960331 85.94325 
L 73.014677 86.121357 
L 73.131732 87.638449 
L 73.3533 94.072223 
L 73.884226 109.560392 
L 73.938573 109.729122 
L 73.99292 109.542077 
L 74.109975 107.98288 
L 74.339903 101.247633 
L 74.866649 86.007569 
L 74.920996 85.841534 
L 74.971162 86.011336 
L 75.084037 87.48194 
L 75.309785 94.019079 
L 75.849072 109.604093 
L 75.903419 109.765253 
L 75.953586 109.589934 
L 76.06646 108.097912 
L 76.292208 101.493831 
L 76.827315 86.024765 
L 76.881662 85.847835 
L 76.936009 86.034235 
L 77.053063 87.629042 
L 77.287173 94.651977 
L 77.797196 109.500856 
L 77.864085 109.749182 
L 77.914251 109.576014 
L 78.027125 108.093271 
L 78.252873 101.486081 
L 78.7838 86.055655 
L 78.842327 85.856989 
L 78.896674 86.047531 
L 79.013729 87.644074 
L 79.247838 94.662995 
L 79.757862 109.506884 
L 79.82057 109.748625 
L 79.874917 109.569182 
L 79.987791 108.077978 
L 80.213539 101.469229 
L 80.744466 86.049015 
L 80.802993 85.855085 
L 80.853159 86.022632 
L 80.966033 87.491238 
L 81.191782 94.069619 
L 81.726889 109.571751 
L 81.781235 109.750391 
L 81.835582 109.567305 
L 81.952637 107.985258 
L 82.182566 101.142714 
L 82.700951 86.074926 
L 82.763658 85.854657 
L 82.813825 86.025119 
L 82.926699 87.500477 
L 83.152447 94.089115 
L 83.687554 109.574756 
L 83.741901 109.750189 
L 83.796248 109.563919 
L 83.913302 107.975326 
L 84.147412 100.969524 
L 84.657436 86.102882 
L 84.724324 85.855132 
L 84.77449 86.028692 
L 84.887364 87.510491 
L 85.113113 94.107797 
L 85.644039 109.549911 
L 85.702567 109.749971 
L 85.756913 109.560238 
L 85.873968 107.964796 
L 86.108077 100.950499 
L 86.618101 86.098823 
L 86.680809 85.854541 
L 86.735156 86.03214 
L 86.84803 87.520689 
L 87.073778 94.126672 
L 87.604705 109.553572 
L 87.663232 109.749908 
L 87.713398 109.584345 
L 87.826273 108.119475 
L 88.052021 101.544591 
L 88.587128 86.035127 
L 88.641475 85.854496 
L 88.695821 86.035542 
L 88.812876 87.613521 
L 89.042805 94.451733 
L 89.56119 109.527431 
L 89.623898 109.749782 
L 89.674064 109.581044 
L 89.786938 108.109454 
L 90.012686 101.525705 
L 90.547793 86.031709 
L 90.60214 85.854518 
L 90.656487 86.039003 
L 90.773542 87.623905 
L 91.007651 94.624863 
L 91.517675 109.499668 
L 91.584563 109.749608 
L 91.63473 109.577693 
L 91.747604 108.09939 
L 91.973352 101.506823 
L 92.508459 86.028317 
L 92.562806 85.854572 
L 92.617153 86.042501 
L 92.734207 87.634328 
L 92.968317 94.64402 
L 93.47834 109.5037 
L 93.541048 109.750089 
L 93.595395 109.574312 
L 93.708269 108.089296 
L 93.934018 101.487926 
L 94.464944 86.05296 
L 94.523471 85.854656 
L 94.577818 86.046028 
L 94.694873 87.644777 
L 94.928982 94.663189 
L 95.439006 109.5077 
L 95.501714 109.750121 
L 95.556061 109.5709 
L 95.668935 108.079175 
L 95.894683 101.469018 
L 96.42561 86.04937 
L 96.484137 85.854773 
L 96.534303 86.021829 
L 96.647177 87.489864 
L 96.872926 94.068937 
L 97.408033 109.571109 
L 97.462379 109.75012 
L 97.516726 109.567454 
L 97.633781 107.986216 
L 97.86371 101.143903 
L 98.382095 86.075403 
L 98.444803 85.854924 
L 98.494969 86.02516 
L 98.607843 87.499913 
L 98.833591 94.087818 
L 99.368698 109.57452 
L 99.423045 109.750086 
L 99.477392 109.563977 
L 99.594447 107.97581 
L 99.828556 100.970734 
L 100.33858 86.103052 
L 100.405468 85.855108 
L 100.455634 86.028523 
L 100.568509 87.50999 
L 100.794257 94.10671 
L 101.325183 109.549755 
L 101.383711 109.750019 
L 101.438057 109.560466 
L 101.555112 107.965376 
L 101.789221 100.95157 
L 102.299245 86.099036 
L 102.361953 85.854518 
L 102.4163 86.031918 
L 102.529174 87.520096 
L 102.754922 94.125611 
L 103.285849 109.553362 
L 103.344376 109.749919 
L 103.398723 109.556924 
L 103.515778 107.954914 
L 103.749887 100.932397 
L 104.259911 86.095053 
L 104.322619 85.854501 
L 104.376966 86.035346 
L 104.49402 87.612921 
L 104.723949 94.450639 
L 105.242334 109.527208 
L 105.305042 109.749786 
L 105.355208 109.581231 
L 105.468082 108.110029 
L 105.69383 101.52679 
L 106.228937 86.031905 
L 106.283284 85.854518 
L 106.337631 86.038807 
L 106.454686 87.623312 
L 106.688795 94.623764 
L 107.202999 109.531012 
L 107.265707 109.749619 
L 107.315874 109.577885 
L 107.428748 108.099966 
L 107.654496 101.507904 
L 108.189603 86.028509 
L 108.24395 85.854567 
L 108.298297 86.0423 
L 108.415351 87.633731 
L 108.649461 94.642924 
L 109.159485 109.503471 
L 109.222192 109.750086 
L 109.276539 109.574507 
L 109.389413 108.089875 
L 109.615162 101.489008 
L 110.146088 86.053167 
L 110.204615 85.85465 
L 110.258962 86.045825 
L 110.376017 87.644178 
L 110.610126 94.662092 
L 111.12015 109.507471 
L 111.182858 109.75012 
L 111.237205 109.571096 
L 111.350079 108.079756 
L 111.575827 101.470101 
L 112.106754 86.049574 
L 112.165281 85.854766 
L 112.215447 86.02164 
L 112.328321 87.489289 
L 112.55407 94.067856 
L 113.089177 109.570913 
L 113.143524 109.750121 
L 113.19787 109.567653 
L 113.314925 107.98681 
L 113.544854 101.144995 
L 114.063239 86.075621 
L 114.125947 85.854915 
L 114.176113 86.024968 
L 114.288987 87.499337 
L 114.514735 94.086737 
L 115.049842 109.574326 
L 115.104189 109.750089 
L 115.158536 109.564177 
L 115.275591 107.976406 
L 115.5097 100.971831 
L 116.019724 86.103283 
L 116.086612 85.855096 
L 116.136778 86.028329 
L 116.249653 87.509413 
L 116.475401 94.105628 
L 117.006327 109.549547 
L 117.064855 109.750024 
L 117.119202 109.560668 
L 117.236256 107.965974 
L 117.470365 100.952668 
L 117.980389 86.099265 
L 118.043097 85.854519 
L 118.097444 86.031723 
L 118.210318 87.519517 
L 118.436066 94.124529 
L 118.966993 109.553157 
L 119.02552 109.749925 
L 119.079867 109.557127 
L 119.196922 107.955514 
L 119.431031 100.933495 
L 119.941055 86.09528 
L 120.003763 85.854501 
L 120.05811 86.035149 
L 120.175164 87.612327 
L 120.405093 94.449547 
L 120.923478 109.526989 
L 120.986186 109.749794 
L 121.036352 109.581421 
L 121.149226 108.110604 
L 121.374975 101.527871 
L 121.910082 86.0321 
L 121.964428 85.854516 
L 122.018775 86.038608 
L 122.13583 87.622716 
L 122.365759 94.468625 
L 122.884144 109.530795 
L 122.946851 109.74963 
L 122.997018 109.578077 
L 123.109892 108.100543 
L 123.33564 101.508985 
L 123.870747 86.028703 
L 123.925094 85.854564 
L 123.979441 86.042099 
L 124.096495 87.633133 
L 124.330605 94.641827 
L 124.840629 109.503241 
L 124.903336 109.750083 
L 124.957683 109.574701 
L 125.070557 108.090454 
L 125.296306 101.49009 
L 125.827232 86.053373 
L 125.88576 85.854644 
L 125.940106 86.045623 
L 126.057161 87.643579 
L 126.29127 94.660994 
L 126.801294 109.507243 
L 126.864002 109.750119 
L 126.918349 109.571292 
L 127.031223 108.080336 
L 127.256971 101.471184 
L 127.787898 86.049779 
L 127.846425 85.854758 
L 127.896591 86.02145 
L 128.009466 87.488715 
L 128.235214 94.066776 
L 128.770321 109.570717 
L 128.824668 109.750122 
L 128.879014 109.567851 
L 128.996069 107.987405 
L 129.225998 101.146087 
L 129.744383 86.075839 
L 129.807091 85.854905 
L 129.857257 86.024777 
L 129.970131 87.498761 
L 130.195879 94.085656 
L 130.730986 109.574131 
L 130.785333 109.750092 
L 130.83968 109.564377 
L 130.956735 107.977003 
L 131.190844 100.972928 
L 131.700868 86.103514 
L 131.767756 85.855085 
L 131.817923 86.028136 
L 131.930797 87.508835 
L 132.156545 94.104546 
L 132.691652 109.577513 
L 132.745999 109.750028 
L 132.800346 109.56087 
L 132.9174 107.966572 
L 133.15151 100.953765 
L 133.661533 86.099494 
L 133.724241 85.854522 
L 133.778588 86.031528 
L 133.891462 87.518938 
L 134.117211 94.123447 
L 134.648137 109.552951 
L 134.706664 109.749932 
L 134.761011 109.557331 
L 134.878066 107.956114 
L 135.112175 100.934593 
L 135.622199 86.095507 
L 135.684907 85.854501 
L 135.739254 86.034952 
L 135.856308 87.611733 
L 136.086237 94.448455 
L 136.604622 109.52677 
L 136.66733 109.749802 
L 136.717496 109.581612 
L 136.83037 108.111179 
L 137.056119 101.528952 
L 137.591226 86.032296 
L 137.645572 85.854514 
L 137.699919 86.038409 
L 137.816974 87.622121 
L 138.046903 94.467532 
L 138.565288 109.530578 
L 138.627995 109.74964 
L 138.678162 109.57827 
L 138.791036 108.10112 
L 139.016784 101.510067 
L 139.551891 86.028897 
L 139.606238 85.85456 
L 139.660585 86.041898 
L 139.777639 87.632536 
L 140.011749 94.64073 
L 140.521773 109.503011 
L 140.584481 109.75008 
L 140.638827 109.574895 
L 140.751701 108.091032 
L 140.97745 101.491172 
L 141.508376 86.05358 
L 141.566904 85.854639 
L 141.62125 86.04542 
L 141.738305 87.64298 
L 141.972414 94.659897 
L 142.482438 109.507015 
L 142.545146 109.750118 
L 142.599493 109.571488 
L 142.712367 108.080916 
L 142.938115 101.472266 
L 143.469042 86.049984 
L 143.527569 85.854751 
L 143.577735 86.021261 
L 143.69061 87.488141 
L 143.916358 94.065695 
L 144.451465 109.57052 
L 144.505812 109.750123 
L 144.560158 109.568048 
L 144.677213 107.988 
L 144.907142 101.147179 
L 145.425527 86.076057 
L 145.488235 85.854896 
L 145.538401 86.024586 
L 145.651275 87.498185 
L 145.877023 94.084575 
L 146.41213 109.573936 
L 146.466477 109.750094 
L 146.520824 109.564576 
L 146.637879 107.977599 
L 146.871988 100.974025 
L 147.382012 86.103745 
L 147.4489 85.855074 
L 147.499067 86.027943 
L 147.611941 87.508258 
L 147.837689 94.103464 
L 148.372796 109.57732 
L 148.427143 109.750033 
L 148.48149 109.561072 
L 148.598544 107.96717 
L 148.832654 100.954862 
L 149.342677 86.099724 
L 149.405385 85.854524 
L 149.459732 86.031333 
L 149.572606 87.518359 
L 149.798355 94.122364 
L 150.329281 109.552745 
L 150.387808 109.749938 
L 150.442155 109.557534 
L 150.55921 107.956713 
L 150.793319 100.935691 
L 151.303343 86.095734 
L 151.366051 85.854502 
L 151.420398 86.034755 
L 151.537452 87.611139 
L 151.767381 94.447364 
L 152.285766 109.526551 
L 152.348474 109.749811 
L 152.39864 109.581802 
L 152.511514 108.111754 
L 152.737263 101.530033 
L 153.27237 86.032491 
L 153.326716 85.854512 
L 153.381063 86.03821 
L 153.498118 87.621525 
L 153.728047 94.46644 
L 154.246432 109.530361 
L 154.30914 109.74965 
L 154.359306 109.578462 
L 154.47218 108.101696 
L 154.697928 101.511148 
L 155.233035 86.02909 
L 155.287382 85.854556 
L 155.341729 86.041698 
L 155.458784 87.631939 
L 155.692893 94.639633 
L 156.202917 109.50278 
L 156.265625 109.750077 
L 156.319971 109.575089 
L 156.432846 108.09161 
L 156.658594 101.492254 
L 157.18952 86.053787 
L 157.248048 85.854633 
L 157.302394 86.045218 
L 157.419449 87.642381 
L 157.653558 94.658799 
L 158.163582 109.506787 
L 158.22629 109.750117 
L 158.280637 109.571684 
L 158.393511 108.081496 
L 158.619259 101.473349 
L 159.150186 86.050189 
L 159.208713 85.854744 
L 159.258879 86.021071 
L 159.371754 87.487567 
L 159.597502 94.064615 
L 160.132609 109.570324 
L 160.186956 109.750123 
L 160.241303 109.568246 
L 160.358357 107.988594 
L 160.588286 101.148271 
L 161.106671 86.076275 
L 161.169379 85.854887 
L 161.219545 86.024394 
L 161.332419 87.497609 
L 161.558167 94.083494 
L 162.093275 109.573742 
L 162.147621 109.750097 
L 162.201968 109.564776 
L 162.319023 107.978195 
L 162.553132 100.975121 
L 163.063156 86.103976 
L 163.130044 85.855063 
L 163.180211 86.02775 
L 163.293085 87.50768 
L 163.518833 94.102383 
L 164.05394 109.577127 
L 164.108287 109.750037 
L 164.162634 109.561273 
L 164.279688 107.967768 
L 164.513798 100.955959 
L 165.023822 86.099953 
L 165.086529 85.854526 
L 165.140876 86.031138 
L 165.25375 87.51778 
L 165.479499 94.121282 
L 166.010425 109.552539 
L 166.068952 109.749945 
L 166.123299 109.557738 
L 166.240354 107.957312 
L 166.474463 100.936789 
L 166.984487 86.095962 
L 167.047195 85.854502 
L 167.101542 86.034558 
L 167.218596 87.610546 
L 167.448525 94.446272 
L 167.96691 109.526332 
L 168.029618 109.749819 
L 168.079784 109.581992 
L 168.192658 108.112329 
L 168.418407 101.531113 
L 168.953514 86.032687 
L 169.007861 85.854511 
L 169.062207 86.038011 
L 169.179262 87.62093 
L 169.409191 94.465348 
L 169.927576 109.530144 
L 169.990284 109.74966 
L 170.04045 109.578654 
L 170.153324 108.102273 
L 170.379072 101.51223 
L 170.914179 86.029284 
L 170.968526 85.854553 
L 171.022873 86.041497 
L 171.139928 87.631342 
L 171.374037 94.638536 
L 171.884061 109.50255 
L 171.946769 109.750074 
L 172.001115 109.575283 
L 172.11399 108.092188 
L 172.339738 101.493336 
L 172.870664 86.053994 
L 172.929192 85.854628 
L 172.983539 86.045015 
L 173.100593 87.641783 
L 173.334702 94.657702 
L 173.844726 109.506558 
L 173.907434 109.750115 
L 173.961781 109.57188 
L 174.074655 108.082075 
L 174.300403 101.474431 
L 174.83133 86.050394 
L 174.889857 85.854736 
L 174.940024 86.020882 
L 175.052898 87.486993 
L 175.278646 94.063534 
L 175.813753 109.570127 
L 175.8681 109.750124 
L 175.922447 109.568444 
L 176.039501 107.989189 
L 176.26943 101.149363 
L 176.787815 86.076493 
L 176.850523 85.854878 
L 176.900689 86.024203 
L 177.013563 87.497034 
L 177.239312 94.082412 
L 177.774419 109.573547 
L 177.828765 109.750099 
L 177.883112 109.564975 
L 178.000167 107.978791 
L 178.234276 100.976218 
L 178.7443 86.104208 
L 178.811188 85.855052 
L 178.861355 86.027557 
L 178.974229 87.507103 
L 179.199977 94.101301 
L 179.735084 109.576934 
L 179.789431 109.750041 
L 179.843778 109.561474 
L 179.960832 107.968366 
L 180.194942 100.957057 
L 180.704966 86.100182 
L 180.767673 85.854528 
L 180.82202 86.030943 
L 180.934894 87.517201 
L 181.160643 94.1202 
L 181.691569 109.552333 
L 181.750097 109.749951 
L 181.804443 109.557941 
L 181.921498 107.957912 
L 182.155607 100.937886 
L 182.665631 86.09619 
L 182.728339 85.854502 
L 182.782686 86.034362 
L 182.899741 87.609952 
L 183.129669 94.44518 
L 183.648054 109.526113 
L 183.710762 109.749827 
L 183.760928 109.582182 
L 183.873803 108.112904 
L 184.099551 101.532194 
L 184.634658 86.032883 
L 184.689005 85.85451 
L 184.743351 86.037813 
L 184.860406 87.620335 
L 185.090335 94.464255 
L 185.60872 109.529926 
L 185.671428 109.74967 
L 185.721594 109.578846 
L 185.834468 108.102849 
L 186.060216 101.513311 
L 186.595323 86.029478 
L 186.64967 85.85455 
L 186.704017 86.041297 
L 186.821072 87.630745 
L 187.055181 94.637439 
L 187.565205 109.50232 
L 187.627913 109.75007 
L 187.68226 109.575477 
L 187.795134 108.092766 
L 188.020882 101.494417 
L 188.551808 86.054201 
L 188.610336 85.854623 
L 188.664683 86.044813 
L 188.781737 87.641184 
L 189.015847 94.656605 
L 189.52587 109.50633 
L 189.588578 109.750114 
L 189.642925 109.572075 
L 189.755799 108.082655 
L 189.981548 101.475514 
L 190.512474 86.050599 
L 190.571001 85.854729 
L 190.621168 86.020693 
L 190.734042 87.486419 
L 190.95979 94.062454 
L 191.494897 109.56993 
L 191.549244 109.750124 
L 191.603591 109.568641 
L 191.720645 107.989783 
L 191.950574 101.150455 
L 192.468959 86.076711 
L 192.531667 85.854869 
L 192.581833 86.024012 
L 192.694707 87.496458 
L 192.920456 94.081331 
L 193.455563 109.573352 
L 193.509909 109.750101 
L 193.564256 109.565175 
L 193.681311 107.979387 
L 193.91542 100.977315 
L 194.425444 86.104439 
L 194.492332 85.855041 
L 194.542499 86.027364 
L 194.655373 87.506526 
L 194.881121 94.10022 
L 195.416228 109.576741 
L 195.470575 109.750046 
L 195.524922 109.561676 
L 195.641976 107.968963 
L 195.876086 100.958154 
L 196.38611 86.100412 
L 196.448818 85.854531 
L 196.503164 86.030748 
L 196.616038 87.516622 
L 196.841787 94.119118 
L 197.372713 109.552127 
L 197.431241 109.749957 
L 197.485587 109.558144 
L 197.602642 107.958511 
L 197.836751 100.938984 
L 198.346775 86.096417 
L 198.409483 85.854503 
L 198.46383 86.034165 
L 198.580885 87.609358 
L 198.810813 94.444088 
L 199.329198 109.525893 
L 199.391906 109.749835 
L 199.442072 109.582372 
L 199.554947 108.113478 
L 199.780695 101.533275 
L 200.315802 86.033079 
L 200.370149 85.854508 
L 200.424495 86.037614 
L 200.54155 87.619739 
L 200.771479 94.463163 
L 201.289864 109.529709 
L 201.352572 109.74968 
L 201.402738 109.579038 
L 201.515612 108.103426 
L 201.74136 101.514392 
L 202.276467 86.029672 
L 202.330814 85.854547 
L 202.385161 86.041096 
L 202.502216 87.630149 
L 202.736325 94.636342 
L 203.246349 109.502089 
L 203.309057 109.750067 
L 203.363404 109.575671 
L 203.476278 108.093344 
L 203.702026 101.495499 
L 204.232952 86.054408 
L 204.29148 85.854618 
L 204.345827 86.044611 
L 204.462881 87.640586 
L 204.696991 94.655507 
L 205.207015 109.506101 
L 205.269722 109.750112 
L 205.324069 109.572271 
L 205.436943 108.083235 
L 205.662692 101.476596 
L 206.193618 86.050804 
L 206.252145 85.854722 
L 206.302312 86.020504 
L 206.415186 87.485845 
L 206.640934 94.061373 
L 207.176041 109.569733 
L 207.230388 109.750124 
L 207.284735 109.568839 
L 207.401789 107.990378 
L 207.631718 101.151547 
L 208.150103 86.07693 
L 208.212811 85.85486 
L 208.262977 86.023821 
L 208.375851 87.495883 
L 208.6016 94.080251 
L 209.136707 109.573157 
L 209.191054 109.750104 
L 209.2454 109.565374 
L 209.362455 107.979983 
L 209.596564 100.978412 
L 210.106588 86.10467 
L 210.173477 85.85503 
L 210.223643 86.027171 
L 210.336517 87.505949 
L 210.562265 94.099138 
L 211.097372 109.576548 
L 211.151719 109.75005 
L 211.206066 109.561877 
L 211.323121 107.969561 
L 211.55723 100.959251 
L 212.067254 86.100642 
L 212.129962 85.854533 
L 212.184308 86.030554 
L 212.297183 87.516043 
L 212.522931 94.118036 
L 213.053857 109.55192 
L 213.112385 109.749963 
L 213.166731 109.558347 
L 213.283786 107.95911 
L 213.517895 100.940082 
L 214.027919 86.096645 
L 214.090627 85.854504 
L 214.144974 86.033968 
L 214.257848 87.526166 
L 214.483596 94.136944 
L 215.014523 109.555509 
L 215.07305 109.749843 
L 215.123217 109.582562 
L 215.236091 108.114053 
L 215.461839 101.534355 
L 215.996946 86.033275 
L 216.051293 85.854507 
L 216.10564 86.037416 
L 216.222694 87.619144 
L 216.452623 94.462071 
L 216.971008 109.529491 
L 217.033716 109.74969 
L 217.083882 109.57923 
L 217.196756 108.104002 
L 217.422504 101.515473 
L 217.957612 86.029866 
L 218.011958 85.854543 
L 218.066305 86.040896 
L 218.18336 87.629552 
L 218.417469 94.635245 
L 218.927493 109.501858 
L 218.990201 109.750063 
L 219.044548 109.575864 
L 219.157422 108.093922 
L 219.38317 101.496581 
L 219.914097 86.054615 
L 219.972624 85.854613 
L 220.026971 86.044409 
L 220.144025 87.639988 
L 220.378135 94.65441 
L 220.888159 109.505872 
L 220.950866 109.75011 
L 221.005213 109.572467 
L 221.118087 108.083814 
L 221.343836 101.477679 
L 221.874762 86.05101 
L 221.933289 85.854715 
L 221.983456 86.020315 
L 222.09633 87.485271 
L 222.322078 94.060293 
L 222.857185 109.569536 
L 222.911532 109.750125 
L 222.965879 109.569036 
L 223.082933 107.990972 
L 223.312862 101.152639 
L 223.831247 86.077148 
L 223.893955 85.854851 
L 223.944121 86.023631 
L 224.056995 87.495307 
L 224.282744 94.07917 
L 224.817851 109.572962 
L 224.872198 109.750106 
L 224.926544 109.565573 
L 225.043599 107.980579 
L 225.277708 100.979508 
L 225.787732 86.104902 
L 225.854621 85.85502 
L 225.904787 86.026978 
L 226.017661 87.505372 
L 226.243409 94.098056 
L 226.778516 109.576355 
L 226.832863 109.750054 
L 226.88721 109.562078 
L 227.004265 107.970158 
L 227.238374 100.960348 
L 227.748398 86.100871 
L 227.811106 85.854536 
L 227.865452 86.030359 
L 227.978327 87.515465 
L 228.204075 94.116954 
L 228.735001 109.551714 
L 228.793529 109.749969 
L 228.847876 109.55855 
L 228.96493 107.959709 
L 229.19904 100.941179 
L 229.709063 86.096873 
L 229.771771 85.854505 
L 229.826118 86.033772 
L 229.938992 87.525586 
L 230.16474 94.135861 
L 230.695667 109.555304 
L 230.754194 109.749851 
L 230.804361 109.582752 
L 230.917235 108.114627 
L 231.142983 101.535436 
L 231.67809 86.033471 
L 231.732437 85.854506 
L 231.786784 86.037218 
L 231.903838 87.618549 
L 232.133767 94.460979 
L 232.652152 109.529274 
L 232.71486 109.7497 
L 232.765026 109.579421 
L 232.8779 108.104578 
L 233.103649 101.516555 
L 233.638756 86.03006 
L 233.693102 85.85454 
L 233.747449 86.040696 
L 233.864504 87.628955 
L 234.098613 94.634148 
L 234.608637 109.501628 
L 234.675525 109.749515 
L 234.725692 109.576058 
L 234.838566 108.0945 
L 235.064314 101.497663 
L 235.595241 86.054823 
L 235.653768 85.854608 
L 235.708115 86.044207 
L 235.825169 87.63939 
L 236.059279 94.653312 
L 236.569303 109.505643 
L 236.63201 109.750109 
L 236.686357 109.572662 
L 236.799231 108.084394 
L 237.02498 101.478761 
L 237.555906 86.051215 
L 237.614434 85.854709 
L 237.6646 86.020126 
L 237.777474 87.484698 
L 238.003222 94.059213 
L 238.538329 109.569339 
L 238.592676 109.750125 
L 238.647023 109.569234 
L 238.764078 107.991566 
L 238.994006 101.153731 
L 239.512391 86.077367 
L 239.575099 85.854842 
L 239.625265 86.02344 
L 239.73814 87.494732 
L 239.963888 94.078089 
L 240.498995 109.572767 
L 240.553342 109.750108 
L 240.607688 109.565773 
L 240.724743 107.981175 
L 240.958852 100.980605 
L 241.468876 86.105134 
L 241.535765 85.855009 
L 241.585931 86.026786 
L 241.698805 87.504795 
L 241.924553 94.096975 
L 242.45966 109.576162 
L 242.514007 109.750058 
L 242.568354 109.562279 
L 242.685409 107.970755 
L 242.919518 100.961445 
L 243.429542 86.101101 
L 243.49225 85.854539 
L 243.546597 86.030165 
L 243.659471 87.514886 
L 243.885219 94.115872 
L 244.416145 109.551508 
L 244.474673 109.749974 
L 244.52902 109.558753 
L 244.646074 107.960308 
L 244.880184 100.942277 
L 245.390207 86.097101 
L 245.452915 85.854505 
L 245.507262 86.033576 
L 245.620136 87.525006 
L 245.845885 94.134778 
L 246.376811 109.555099 
L 246.435338 109.749858 
L 246.485505 109.582942 
L 246.598379 108.115202 
L 246.824127 101.536517 
L 247.359234 86.033667 
L 247.413581 85.854505 
L 247.467928 86.03702 
L 247.584982 87.617955 
L 247.814911 94.459887 
L 248.333296 109.529056 
L 248.396004 109.749709 
L 248.44617 109.579613 
L 248.559044 108.105154 
L 248.784793 101.517636 
L 249.3199 86.030255 
L 249.374246 85.854538 
L 249.428593 86.040496 
L 249.545648 87.628359 
L 249.779757 94.633051 
L 250.289781 109.501397 
L 250.356669 109.749527 
L 250.406836 109.576251 
L 250.51971 108.095078 
L 250.745458 101.498745 
L 251.276385 86.05503 
L 251.334912 85.854603 
L 251.389259 86.044005 
L 251.506313 87.638792 
L 251.740423 94.652215 
L 252.250447 109.505414 
L 252.313155 109.750107 
L 252.367501 109.572857 
L 252.480375 108.084973 
L 252.706124 101.479843 
L 253.23705 86.051421 
L 253.295578 85.854702 
L 253.349924 86.047546 
L 253.466979 87.649252 
L 253.701088 94.671388 
L 254.211112 109.509399 
L 254.27382 109.750125 
L 254.328167 109.569431 
L 254.445222 107.99216 
L 254.67515 101.154823 
L 255.193535 86.077586 
L 255.256243 85.854834 
L 255.306409 86.023249 
L 255.419284 87.494157 
L 255.645032 94.077008 
L 256.180139 109.572571 
L 256.234486 109.75011 
L 256.288832 109.565972 
L 256.405887 107.98177 
L 256.639996 100.981701 
L 257.154201 86.07378 
L 257.216909 85.854999 
L 257.267075 86.026594 
L 257.379949 87.504218 
L 257.605697 94.095894 
L 258.140804 109.575968 
L 258.195151 109.750061 
L 258.249498 109.56248 
L 258.366553 107.971353 
L 258.600662 100.962542 
L 259.110686 86.101331 
L 259.173394 85.854542 
L 259.227741 86.02997 
L 259.340615 87.514308 
L 259.566363 94.114789 
L 260.09729 109.551301 
L 260.155817 109.74998 
L 260.210164 109.558956 
L 260.327218 107.960907 
L 260.561328 100.943374 
L 261.071352 86.097329 
L 261.134059 85.854506 
L 261.188406 86.03338 
L 261.30128 87.524426 
L 261.527029 94.133696 
L 262.057955 109.554895 
L 262.116482 109.749866 
L 262.166649 109.583131 
L 262.279523 108.115776 
L 262.505271 101.537597 
L 263.040378 86.033863 
L 263.094725 85.854504 
L 263.149072 86.036822 
L 263.266126 87.61736 
L 263.496055 94.458794 
L 264.01444 109.528838 
L 264.077148 109.749718 
L 264.127314 109.579804 
L 264.240188 108.10573 
L 264.465937 101.518717 
L 265.001044 86.030449 
L 265.055391 85.854535 
L 265.109737 86.040296 
L 265.226792 87.627763 
L 265.460901 94.631955 
L 265.970925 109.501166 
L 266.037814 109.749538 
L 266.08798 109.576445 
L 266.200854 108.095655 
L 266.426602 101.499826 
L 266.957529 86.055238 
L 267.016056 85.854599 
L 267.070403 86.043803 
L 267.187458 87.638194 
L 267.421567 94.651118 
L 267.931591 109.505185 
L 267.994299 109.750105 
L 268.048645 109.573052 
L 268.16152 108.085552 
L 268.387268 101.480926 
L 268.918194 86.051627 
L 268.976722 85.854695 
L 269.031068 86.047343 
L 269.148123 87.648653 
L 269.382232 94.67029 
L 269.892256 109.509172 
L 269.954964 109.750125 
L 270.009311 109.569628 
L 270.126366 107.992754 
L 270.356294 101.155915 
L 270.72 88.58351 
L 270.72 88.58351 
" clip-path="url(#pa9aaf30e1b)" style="fill: none; stroke: #808080; stroke-width: 1.5; stroke-linecap: square"/>
   </g>
   <g id="patch_3">
    <path d="M 61.698 161.7 
L 61.698 17.28 
" style="fill: none; stroke: #000000; stroke-width: 0.8; stroke-linejoin: miter; stroke-linecap: square"/>
   </g>
   <g id="patch_4">
    <path d="M 270.72 161.7 
L 270.72 17.28 
" style="fill: none; stroke: #000000; stroke-width: 0.8; stroke-linejoin: miter; stroke-linecap: square"/>
   </g>
   <g id="patch_5">
    <path d="M 61.698 161.7 
L 270.72 161.7 
" style="fill: none; stroke: #000000; stroke-width: 0.8; stroke-linejoin: miter; stroke-linecap: square"/>
   </g>
   <g id="patch_6">
    <path d="M 61.698 17.28 
L 270.72 17.28 
" style="fill: none; stroke: #000000; stroke-width: 0.8; stroke-linejoin: miter; stroke-linecap: square"/>
   </g>
  </g>
 </g>
 <defs>
  <clipPath id="pa9aaf30e1b">
   <rect x="61.698" y="17.28" width="209.022" height="144.42"/>
  </clipPath>
 </defs>
</svg>
