<?xml version="1.0" encoding="utf-8" standalone="no"?>
<!DOCTYPE svg PUBLIC "-//W3C//DTD SVG 1.1//EN"
  "http://www.w3.org/Graphics/SVG/1.1/DTD/svg11.dtd">
<svg xmlns:xlink="http://www.w3.org/1999/xlink" width="288pt" height="216pt" viewBox="0 0 288 216" xmlns="http://www.w3.org/2000/svg" version="1.1">
 <metadata>
  <rdf:RDF xmlns:dc="http://purl.org/dc/elements/1.1/" xmlns:cc="http://creativecommons.org/ns#" xmlns:rdf="http://www.w3.org/1999/02/22-rdf-syntax-ns#">
   <cc:Work>
    <dc:type rdf:resource="http://purl.org/dc/dcmitype/StillImage"/>
    <dc:date>2024-02-12T02:18:12.067272</dc:date>
    <dc:format>image/svg+xml</dc:format>
    <dc:creator>
     <cc:Agent>
      <dc:title>Matplotlib v3.8.2, https://matplotlib.org/</dc:title>
     </cc:Agent>
    </dc:creator>
   </cc:Work>
  </rdf:RDF>
 </metadata>
 <defs>
  <style type="text/css">*{stroke-linejoin: round; stroke-linecap: butt}</style>
 </defs>
 <g id="figure_1">
  <g id="patch_1">
   <path d="M 0 216 
L 288 216 
L 288 0 
L 0 0 
L 0 216 
z
" style="fill: none"/>
  </g>
  <g id="axes_1">
   <g id="patch_2">
    <path d="M 65.874 155.94 
L 253.53 155.94 
L 253.53 19.44 
L 65.874 19.44 
L 65.874 155.94 
z
" style="fill: none"/>
   </g>
   <g id="matplotlib.axis_1">
    <g id="xtick_1">
     <g id="line2d_1">
      <defs>
       <path id="m9f2513a979" d="M 0 0 
L 0 -3.5 
" style="stroke: #000000; stroke-width: 0.8"/>
      </defs>
      <g>
       <use xlink:href="#m9f2513a979" x="65.874" y="155.94" style="stroke: #000000; stroke-width: 0.8"/>
      </g>
     </g>
     <g id="text_1">
      <!-- 0 -->
      <g transform="translate(60.869156 172.324062) scale(0.18 -0.18)">
       <defs>
        <path id="ArialMT-30" d="M 266 2259 
Q 266 3072 433 3567 
Q 600 4063 929 4331 
Q 1259 4600 1759 4600 
Q 2128 4600 2406 4451 
Q 2684 4303 2865 4023 
Q 3047 3744 3150 3342 
Q 3253 2941 3253 2259 
Q 3253 1453 3087 958 
Q 2922 463 2592 192 
Q 2263 -78 1759 -78 
Q 1097 -78 719 397 
Q 266 969 266 2259 
z
M 844 2259 
Q 844 1131 1108 757 
Q 1372 384 1759 384 
Q 2147 384 2411 759 
Q 2675 1134 2675 2259 
Q 2675 3391 2411 3762 
Q 2147 4134 1753 4134 
Q 1366 4134 1134 3806 
Q 844 3388 844 2259 
z
" transform="scale(0.015625)"/>
       </defs>
       <use xlink:href="#ArialMT-30"/>
      </g>
     </g>
    </g>
    <g id="xtick_2">
     <g id="line2d_2">
      <g>
       <use xlink:href="#m9f2513a979" x="159.702" y="155.94" style="stroke: #000000; stroke-width: 0.8"/>
      </g>
     </g>
     <g id="text_2">
      <!-- 50 -->
      <g transform="translate(149.692312 172.324062) scale(0.18 -0.18)">
       <defs>
        <path id="ArialMT-35" d="M 266 1200 
L 856 1250 
Q 922 819 1161 601 
Q 1400 384 1738 384 
Q 2144 384 2425 690 
Q 2706 997 2706 1503 
Q 2706 1984 2436 2262 
Q 2166 2541 1728 2541 
Q 1456 2541 1237 2417 
Q 1019 2294 894 2097 
L 366 2166 
L 809 4519 
L 3088 4519 
L 3088 3981 
L 1259 3981 
L 1013 2750 
Q 1425 3038 1878 3038 
Q 2478 3038 2890 2622 
Q 3303 2206 3303 1553 
Q 3303 931 2941 478 
Q 2500 -78 1738 -78 
Q 1113 -78 717 272 
Q 322 622 266 1200 
z
" transform="scale(0.015625)"/>
       </defs>
       <use xlink:href="#ArialMT-35"/>
       <use xlink:href="#ArialMT-30" x="55.615234"/>
      </g>
     </g>
    </g>
    <g id="xtick_3">
     <g id="line2d_3">
      <g>
       <use xlink:href="#m9f2513a979" x="253.53" y="155.94" style="stroke: #000000; stroke-width: 0.8"/>
      </g>
     </g>
     <g id="text_3">
      <!-- 100 -->
      <g transform="translate(238.515469 172.324062) scale(0.18 -0.18)">
       <defs>
        <path id="ArialMT-31" d="M 2384 0 
L 1822 0 
L 1822 3584 
Q 1619 3391 1289 3197 
Q 959 3003 697 2906 
L 697 3450 
Q 1169 3672 1522 3987 
Q 1875 4303 2022 4600 
L 2384 4600 
L 2384 0 
z
" transform="scale(0.015625)"/>
       </defs>
       <use xlink:href="#ArialMT-31"/>
       <use xlink:href="#ArialMT-30" x="55.615234"/>
       <use xlink:href="#ArialMT-30" x="111.230469"/>
      </g>
     </g>
    </g>
    <g id="text_4">
     <!-- $t$ -->
     <g transform="translate(156.102 192.785625) scale(0.18 -0.18)">
      <defs>
       <path id="DejaVuSans-Oblique-74" d="M 2706 3500 
L 2619 3053 
L 1472 3053 
L 1100 1153 
Q 1081 1047 1072 975 
Q 1063 903 1063 863 
Q 1063 663 1183 572 
Q 1303 481 1569 481 
L 2150 481 
L 2053 0 
L 1503 0 
Q 991 0 739 200 
Q 488 400 488 806 
Q 488 878 497 964 
Q 506 1050 525 1153 
L 897 3053 
L 409 3053 
L 500 3500 
L 978 3500 
L 1172 4494 
L 1747 4494 
L 1556 3500 
L 2706 3500 
z
" transform="scale(0.015625)"/>
      </defs>
      <use xlink:href="#DejaVuSans-Oblique-74" transform="translate(0 0.78125)"/>
     </g>
    </g>
   </g>
   <g id="matplotlib.axis_2">
    <g id="ytick_1">
     <g id="line2d_4">
      <defs>
       <path id="mc23f47568d" d="M 0 0 
L 3.5 0 
" style="stroke: #000000; stroke-width: 0.8"/>
      </defs>
      <g>
       <use xlink:href="#mc23f47568d" x="65.874" y="149.735621" style="stroke: #000000; stroke-width: 0.8"/>
      </g>
     </g>
     <g id="text_5">
      <!-- 0 -->
      <g transform="translate(52.364313 156.177652) scale(0.18 -0.18)">
       <use xlink:href="#ArialMT-30"/>
      </g>
     </g>
    </g>
    <g id="ytick_2">
     <g id="line2d_5">
      <g>
       <use xlink:href="#mc23f47568d" x="65.874" y="61.1495" style="stroke: #000000; stroke-width: 0.8"/>
      </g>
     </g>
     <g id="text_6">
      <!-- 20 -->
      <g transform="translate(42.354625 67.591531) scale(0.18 -0.18)">
       <defs>
        <path id="ArialMT-32" d="M 3222 541 
L 3222 0 
L 194 0 
Q 188 203 259 391 
Q 375 700 629 1000 
Q 884 1300 1366 1694 
Q 2113 2306 2375 2664 
Q 2638 3022 2638 3341 
Q 2638 3675 2398 3904 
Q 2159 4134 1775 4134 
Q 1369 4134 1125 3890 
Q 881 3647 878 3216 
L 300 3275 
Q 359 3922 746 4261 
Q 1134 4600 1788 4600 
Q 2447 4600 2831 4234 
Q 3216 3869 3216 3328 
Q 3216 3053 3103 2787 
Q 2991 2522 2730 2228 
Q 2469 1934 1863 1422 
Q 1356 997 1212 845 
Q 1069 694 975 541 
L 3222 541 
z
" transform="scale(0.015625)"/>
       </defs>
       <use xlink:href="#ArialMT-32"/>
       <use xlink:href="#ArialMT-30" x="55.615234"/>
      </g>
     </g>
    </g>
    <g id="text_7">
     <!-- $r_i / r_0$ -->
     <g transform="translate(34.777125 104.43) rotate(-90) scale(0.18 -0.18)">
      <defs>
       <path id="DejaVuSans-Oblique-72" d="M 2853 2969 
Q 2766 3016 2653 3041 
Q 2541 3066 2413 3066 
Q 1953 3066 1609 2717 
Q 1266 2369 1153 1784 
L 800 0 
L 225 0 
L 909 3500 
L 1484 3500 
L 1375 2956 
Q 1603 3259 1920 3421 
Q 2238 3584 2597 3584 
Q 2691 3584 2781 3573 
Q 2872 3563 2963 3538 
L 2853 2969 
z
" transform="scale(0.015625)"/>
       <path id="DejaVuSans-Oblique-69" d="M 1172 4863 
L 1747 4863 
L 1606 4134 
L 1031 4134 
L 1172 4863 
z
M 909 3500 
L 1484 3500 
L 800 0 
L 225 0 
L 909 3500 
z
" transform="scale(0.015625)"/>
       <path id="DejaVuSans-2f" d="M 1625 4666 
L 2156 4666 
L 531 -594 
L 0 -594 
L 1625 4666 
z
" transform="scale(0.015625)"/>
       <path id="DejaVuSans-30" d="M 2034 4250 
Q 1547 4250 1301 3770 
Q 1056 3291 1056 2328 
Q 1056 1369 1301 889 
Q 1547 409 2034 409 
Q 2525 409 2770 889 
Q 3016 1369 3016 2328 
Q 3016 3291 2770 3770 
Q 2525 4250 2034 4250 
z
M 2034 4750 
Q 2819 4750 3233 4129 
Q 3647 3509 3647 2328 
Q 3647 1150 3233 529 
Q 2819 -91 2034 -91 
Q 1250 -91 836 529 
Q 422 1150 422 2328 
Q 422 3509 836 4129 
Q 1250 4750 2034 4750 
z
" transform="scale(0.015625)"/>
      </defs>
      <use xlink:href="#DejaVuSans-Oblique-72" transform="translate(0 0.09375)"/>
      <use xlink:href="#DejaVuSans-Oblique-69" transform="translate(41.113281 -16.3125) scale(0.7)"/>
      <use xlink:href="#DejaVuSans-2f" transform="translate(63.295898 0.09375)"/>
      <use xlink:href="#DejaVuSans-Oblique-72" transform="translate(96.987305 0.09375)"/>
      <use xlink:href="#DejaVuSans-30" transform="translate(138.100586 -16.3125) scale(0.7)"/>
     </g>
    </g>
   </g>
   <g id="line2d_6">
    <path d="M 65.874 145.306315 
L 253.53 145.306315 
L 253.53 145.306315 
" clip-path="url(#p02a5ae01cc)" style="fill: none; stroke: #000000; stroke-width: 1.5; stroke-linecap: square"/>
   </g>
   <g id="line2d_7">
    <path d="M 65.874 145.306315 
L 66.230582 142.315799 
L 66.437024 141.940636 
L 66.587164 142.073114 
L 66.943746 142.861405 
L 67.638143 144.259102 
L 68.25747 145.005357 
L 68.970634 145.514567 
L 69.89024 145.884969 
L 71.222731 146.159966 
L 73.437293 146.362141 
L 78.016557 146.517456 
L 89.258276 146.633495 
L 122.683152 146.70319 
L 253.53 146.70578 
L 253.53 146.70578 
" clip-path="url(#p02a5ae01cc)" style="fill: none; stroke: #808080; stroke-width: 1.5; stroke-linecap: square"/>
   </g>
   <g id="line2d_8">
    <path d="M 65.874 145.306315 
L 66.286884 141.583282 
L 66.530862 140.995256 
L 66.699769 141.033806 
L 67.000049 141.438003 
L 67.900887 142.686128 
L 68.632819 143.284927 
L 69.58996 143.763786 
L 71.053824 144.222673 
L 73.437293 144.717653 
L 76.984346 145.213676 
L 82.764729 145.769476 
L 100.143413 147.12613 
L 108.588777 147.578229 
L 117.653468 147.828113 
L 131.222354 147.952879 
L 168.006608 147.986988 
L 253.53 147.988034 
L 253.53 147.988034 
" clip-path="url(#p02a5ae01cc)" style="fill: none; stroke: #808080; stroke-width: 1.5; stroke-linecap: square"/>
   </g>
   <g id="line2d_9">
    <path d="M 65.874 145.306315 
L 66.286884 142.739192 
L 66.530862 142.309374 
L 66.756071 142.317358 
L 67.319096 142.713295 
L 68.144865 143.157974 
L 69.458588 143.568255 
L 72.874269 144.341542 
L 76.458857 144.943053 
L 80.587702 145.399836 
L 86.142875 145.775866 
L 94.456867 146.097081 
L 106.130238 146.318231 
L 123.734131 146.399728 
L 231.966169 146.407256 
L 253.53 146.4073 
L 253.53 146.4073 
" clip-path="url(#p02a5ae01cc)" style="fill: none; stroke: #808080; stroke-width: 1.5; stroke-linecap: square"/>
   </g>
   <g id="line2d_10">
    <path d="M 65.874 145.306315 
L 66.286884 141.556461 
L 66.530862 140.872644 
L 66.718536 140.82768 
L 67.018816 141.074454 
L 67.975957 141.930605 
L 68.839261 142.348208 
L 70.359427 142.794236 
L 73.399758 143.432543 
L 76.759137 143.91221 
L 80.700307 144.241585 
L 85.542316 144.414578 
L 91.773118 144.402899 
L 102.508115 144.117329 
L 116.67756 143.810259 
L 133.962406 143.696686 
L 186.73655 143.675053 
L 253.53 143.675733 
L 253.53 143.675733 
" clip-path="url(#p02a5ae01cc)" style="fill: none; stroke: #808080; stroke-width: 1.5; stroke-linecap: square"/>
   </g>
   <g id="line2d_11">
    <path d="M 65.874 145.306315 
L 66.474559 149.699395 
L 66.549629 149.296664 
L 66.943746 147.877437 
L 67.394166 147.048356 
L 67.95719 146.470761 
L 68.707889 146.026038 
L 69.758868 145.67886 
L 71.316568 145.420212 
L 73.944015 145.23836 
L 80.024677 145.092921 
L 109.527151 144.753278 
L 136.589852 144.689915 
L 253.53 144.686117 
L 253.53 144.686117 
" clip-path="url(#p02a5ae01cc)" style="fill: none; stroke: #808080; stroke-width: 1.5; stroke-linecap: square"/>
   </g>
   <g id="line2d_12">
    <path d="M 65.874 145.306315 
L 66.117977 144.350801 
L 66.211815 144.425905 
L 66.380722 145.007834 
L 67.469236 149.720195 
L 67.975957 148.712456 
L 68.538982 148.062041 
L 69.214611 147.620278 
L 70.11545 147.311691 
L 71.466708 147.108038 
L 73.868945 147.003956 
L 79.086304 147.037957 
L 86.762202 147.308273 
L 98.398037 147.978687 
L 108.701382 148.473756 
L 118.61061 148.709968 
L 133.868568 148.821474 
L 181.575494 148.846518 
L 253.53 148.846603 
L 253.53 148.846603 
" clip-path="url(#p02a5ae01cc)" style="fill: none; stroke: #808080; stroke-width: 1.5; stroke-linecap: square"/>
   </g>
   <g id="line2d_13">
    <path d="M 65.874 145.306315 
L 66.17428 144.075077 
L 66.343187 144.014241 
L 66.549629 144.305421 
L 67.431701 145.782491 
L 67.975957 146.188762 
L 68.726656 146.450917 
L 70.096682 146.648631 
L 74.150457 146.936468 
L 85.223269 147.681391 
L 92.673957 148.466735 
L 104.459932 149.72435 
L 111.103619 149.252022 
L 118.61061 148.951731 
L 129.045327 148.776786 
L 149.276667 148.703856 
L 253.53 148.695591 
L 253.53 148.695591 
" clip-path="url(#p02a5ae01cc)" style="fill: none; stroke: #808080; stroke-width: 1.5; stroke-linecap: square"/>
   </g>
   <g id="line2d_14">
    <path d="M 65.874 145.306315 
L 66.155512 143.998626 
L 66.268117 143.984152 
L 66.286884 144.005234 
L 66.455792 144.409137 
L 67.600608 147.829392 
L 68.126097 148.496499 
L 68.726656 148.902679 
L 69.496123 149.144605 
L 70.622172 149.244973 
L 72.517687 149.161099 
L 105.022956 146.615025 
L 113.505856 146.277286 
L 124.222085 146.090722 
L 143.815331 146.012756 
L 253.53 146.004212 
L 253.53 146.004212 
" clip-path="url(#p02a5ae01cc)" style="fill: none; stroke: #808080; stroke-width: 1.5; stroke-linecap: square"/>
   </g>
   <g id="line2d_15">
    <path d="M 65.874 145.306315 
L 66.305652 141.593734 
L 66.549629 140.995549 
L 66.737304 140.993975 
L 67.056351 141.31553 
L 67.938422 142.219931 
L 68.707889 142.658142 
L 69.852705 143.027976 
L 71.89836 143.424772 
L 74.938691 143.783893 
L 78.673419 143.994176 
L 83.083776 144.015183 
L 88.150995 143.812 
L 94.663309 143.312557 
L 108.832754 142.168466 
L 116.60249 141.824248 
L 126.605555 141.620391 
L 143.852866 141.525877 
L 211.847434 141.512052 
L 253.53 141.512316 
L 253.53 141.512316 
" clip-path="url(#p02a5ae01cc)" style="fill: none; stroke: #808080; stroke-width: 1.5; stroke-linecap: square"/>
   </g>
   <g id="line2d_16">
    <path d="M 65.874 145.306315 
L 66.17428 144.445219 
L 66.343187 144.42514 
L 66.587164 144.710243 
L 67.225258 145.460865 
L 67.675678 145.626254 
L 68.238702 145.573723 
L 69.308448 145.193613 
L 71.316568 144.513371 
L 73.287153 144.108419 
L 76.477624 143.710542 
L 90.159115 142.184357 
L 106.787099 139.997965 
L 112.848994 139.53586 
L 119.924333 139.229522 
L 129.777258 139.044211 
L 148.113083 138.961271 
L 238.666158 138.948823 
L 253.53 138.948815 
L 253.53 138.948815 
" clip-path="url(#p02a5ae01cc)" style="fill: none; stroke: #808080; stroke-width: 1.5; stroke-linecap: square"/>
   </g>
   <g id="line2d_17">
    <path d="M 65.874 145.306315 
L 66.324419 141.388789 
L 66.568397 140.775355 
L 66.756071 140.740704 
L 67.056351 140.981906 
L 68.1824 141.996871 
L 69.064471 142.437915 
L 70.134217 142.720418 
L 71.297801 142.797251 
L 72.498919 142.652017 
L 73.75634 142.273345 
L 75.107599 141.629867 
L 76.571462 140.681052 
L 78.14793 139.389706 
L 79.837003 137.713839 
L 81.63868 135.604788 
L 83.534196 133.036247 
L 85.561083 129.905788 
L 87.775645 126.062451 
L 90.309255 121.201584 
L 93.706168 114.157415 
L 100.01204 101.02372 
L 102.639487 96.121331 
L 104.929119 92.307246 
L 107.049844 89.198152 
L 109.076731 86.614406 
L 111.066084 84.43441 
L 113.055437 82.582315 
L 115.063557 81.012942 
L 117.146746 79.665161 
L 119.342541 78.509416 
L 121.707243 77.518466 
L 124.297155 76.677521 
L 127.206114 75.970838 
L 130.58426 75.385712 
L 134.638035 74.917931 
L 139.761556 74.561821 
L 146.761825 74.313504 
L 157.834636 74.167906 
L 183.076892 74.114935 
L 253.53 74.112236 
L 253.53 74.112236 
" clip-path="url(#p02a5ae01cc)" style="fill: none; stroke: #808080; stroke-width: 1.5; stroke-linecap: square"/>
   </g>
   <g id="line2d_18">
    <path d="M 65.874 145.306315 
L 66.155512 144.080352 
L 66.286884 144.03003 
L 66.305652 144.045574 
L 66.474559 144.364888 
L 67.769515 147.520616 
L 68.332539 148.103635 
L 68.951866 148.434765 
L 69.683798 148.568311 
L 70.584637 148.4981 
L 71.785755 148.169031 
L 73.456061 147.465648 
L 75.670623 146.280705 
L 78.110395 144.720931 
L 80.512632 142.920811 
L 82.877334 140.868759 
L 85.279571 138.483472 
L 87.81318 135.645557 
L 90.703372 132.059394 
L 94.944821 126.391947 
L 99.843133 119.93546 
L 102.677022 116.572135 
L 105.135561 113.990586 
L 107.443961 111.883885 
L 109.696058 110.127569 
L 111.948155 108.651991 
L 114.256555 107.404269 
L 116.696327 106.340115 
L 119.323774 105.440221 
L 122.213965 104.688413 
L 125.517041 104.064379 
L 129.401909 103.563335 
L 134.22515 103.175411 
L 140.62486 102.897733 
L 150.215041 102.725371 
L 169.095122 102.650676 
L 253.53 102.643424 
L 253.53 102.643424 
" clip-path="url(#p02a5ae01cc)" style="fill: none; stroke: #808080; stroke-width: 1.5; stroke-linecap: square"/>
   </g>
   <g id="line2d_19">
    <path d="M 65.874 145.306315 
L 66.136745 144.916401 
L 66.305652 144.974159 
L 66.643467 145.426612 
L 67.319096 146.250861 
L 68.013492 146.725078 
L 68.876796 147.040325 
L 69.96531 147.195197 
L 71.466708 147.167376 
L 74.037852 146.861736 
L 82.483217 145.536067 
L 88.526344 144.391075 
L 96.277312 142.658423 
L 103.014836 141.242012 
L 107.89438 140.448641 
L 112.792692 139.880665 
L 118.347865 139.467823 
L 125.329366 139.183893 
L 135.520106 139.012358 
L 155.582539 138.940458 
L 253.53 138.93456 
L 253.53 138.93456 
" clip-path="url(#p02a5ae01cc)" style="fill: none; stroke: #808080; stroke-width: 1.5; stroke-linecap: square"/>
   </g>
   <g id="line2d_20">
    <path d="M 65.874 145.306315 
L 66.230582 142.697598 
L 66.437024 142.324063 
L 66.587164 142.393604 
L 66.924979 142.922452 
L 67.600608 143.891399 
L 68.219935 144.381845 
L 68.989401 144.699388 
L 70.11545 144.904383 
L 71.935895 144.986636 
L 75.107599 144.882348 
L 79.968375 144.493184 
L 84.810384 143.889262 
L 89.727463 143.046645 
L 96.802802 141.573728 
L 103.803071 140.193946 
L 108.795219 139.443108 
L 113.881206 138.90674 
L 119.736658 138.520955 
L 127.281184 138.2604 
L 138.748112 138.110357 
L 163.971601 138.056953 
L 253.53 138.056159 
L 253.53 138.056159 
" clip-path="url(#p02a5ae01cc)" style="fill: none; stroke: #808080; stroke-width: 1.5; stroke-linecap: square"/>
   </g>
   <g id="line2d_21">
    <path d="M 65.874 145.306315 
L 66.343187 140.909316 
L 66.624699 140.054359 
L 66.868676 139.893854 
L 67.319096 139.950019 
L 68.013492 139.964863 
L 68.764191 139.737176 
L 69.909008 139.12846 
L 71.729453 137.884881 
L 73.718805 136.263226 
L 75.576785 134.461044 
L 77.378463 132.397431 
L 79.161374 130.00916 
L 80.963051 127.214101 
L 82.802264 123.941633 
L 84.735314 120.03435 
L 86.799737 115.342521 
L 89.089369 109.565994 
L 91.848188 101.968616 
L 102.057695 73.207092 
L 104.347327 67.793618 
L 106.430517 63.42618 
L 108.382335 59.834938 
L 110.27785 56.802371 
L 112.13583 54.241251 
L 113.99381 52.054415 
L 115.870558 50.186712 
L 117.784841 48.592515 
L 119.774193 47.222885 
L 121.876151 46.044687 
L 124.147015 45.028687 
L 126.64309 44.159826 
L 129.439444 43.426832 
L 132.66745 42.816978 
L 136.514782 42.324271 
L 141.319257 41.943095 
L 147.756501 41.669194 
L 157.496821 41.498488 
L 176.958695 41.422847 
L 253.53 41.41234 
L 253.53 41.41234 
" clip-path="url(#p02a5ae01cc)" style="fill: none; stroke: #808080; stroke-width: 1.5; stroke-linecap: square"/>
   </g>
   <g id="line2d_22">
    <path d="M 65.874 145.306315 
L 66.343187 140.957771 
L 66.605932 140.180179 
L 66.849909 140.039775 
L 67.262793 140.149749 
L 67.975957 140.287573 
L 68.707889 140.185156 
L 69.758868 139.79412 
L 71.316568 138.960275 
L 73.061944 137.775504 
L 74.788551 136.331369 
L 76.496392 134.607299 
L 78.204232 132.563619 
L 79.949608 130.121765 
L 81.732518 127.238807 
L 83.590498 123.802881 
L 85.561083 119.676774 
L 87.700575 114.66168 
L 90.140347 108.348885 
L 93.312051 99.470467 
L 100.31232 79.690672 
L 102.827162 73.36853 
L 105.022956 68.427216 
L 107.068611 64.359094 
L 109.001662 60.997318 
L 110.878409 58.167721 
L 112.736389 55.760921 
L 114.59437 53.712057 
L 116.489885 51.950754 
L 118.441702 50.440551 
L 120.487357 49.140709 
L 122.664385 48.024078 
L 125.010319 47.07283 
L 127.618998 46.259339 
L 130.565492 45.578216 
L 134.018708 45.015328 
L 138.203855 44.56757 
L 143.552586 44.230207 
L 151.022042 43.998359 
L 163.277204 43.867638 
L 194.543821 43.82496 
L 253.53 43.823118 
L 253.53 43.823118 
" clip-path="url(#p02a5ae01cc)" style="fill: none; stroke: #808080; stroke-width: 1.5; stroke-linecap: square"/>
   </g>
   <g id="line2d_23">
    <path d="M 65.874 145.306315 
L 66.193047 143.649167 
L 66.361954 143.509069 
L 66.530862 143.716645 
L 67.075119 145.001169 
L 67.713213 146.177387 
L 68.463912 147.082492 
L 69.571193 148.038469 
L 71.579313 149.44 
L 72.12357 149.680965 
L 81.86389 143.3569 
L 84.528872 141.181347 
L 87.212621 138.697881 
L 90.177882 135.638158 
L 94.194122 131.139208 
L 100.01204 124.648969 
L 102.920999 121.755708 
L 105.473376 119.525071 
L 107.875613 117.716277 
L 110.240315 116.21081 
L 112.642552 114.943631 
L 115.157394 113.869975 
L 117.841143 112.968084 
L 120.806404 112.210695 
L 124.165783 111.587988 
L 128.12572 111.08782 
L 133.024032 110.703506 
L 139.536346 110.429673 
L 149.332969 110.261468 
L 168.96375 110.190611 
L 253.53 110.185184 
L 253.53 110.185184 
" clip-path="url(#p02a5ae01cc)" style="fill: none; stroke: #808080; stroke-width: 1.5; stroke-linecap: square"/>
   </g>
   <g id="line2d_24">
    <path d="M 65.874 145.306315 
L 65.986605 145.340611 
L 66.136745 145.763758 
L 66.568397 148.018129 
L 67.018816 149.719791 
L 67.450468 148.87569 
L 67.919655 148.426292 
L 68.538982 148.15219 
L 69.81517 147.891781 
L 73.643735 147.111875 
L 81.225796 145.593888 
L 87.756878 144.190026 
L 94.625774 142.455525 
L 102.132765 140.611967 
L 106.787099 139.708754 
L 111.328829 139.056187 
L 116.30221 138.571776 
L 122.270268 138.223229 
L 130.28398 137.992914 
L 143.289842 137.868764 
L 178.141046 137.834544 
L 253.53 137.834912 
L 253.53 137.834912 
" clip-path="url(#p02a5ae01cc)" style="fill: none; stroke: #808080; stroke-width: 1.5; stroke-linecap: square"/>
   </g>
   <g id="line2d_25">
    <path d="M 65.874 145.306315 
L 66.211815 143.285547 
L 66.380722 143.135195 
L 66.530862 143.345934 
L 66.906211 144.429572 
L 67.750748 146.748272 
L 68.538982 148.243027 
L 69.402286 149.415573 
L 69.702565 149.728387 
L 69.758868 149.67085 
L 70.772311 148.805822 
L 71.954662 148.09476 
L 73.493596 147.441255 
L 76.06474 146.626935 
L 81.282098 144.983898 
L 84.3975 143.744603 
L 87.437831 142.293409 
L 90.778442 140.444038 
L 95.507846 137.538703 
L 101.250694 134.064145 
L 104.591305 132.309844 
L 107.631636 130.961573 
L 110.634432 129.873435 
L 113.749833 128.983369 
L 117.109212 128.257963 
L 120.900242 127.671973 
L 125.385669 127.211825 
L 130.997144 126.87005 
L 138.710577 126.638241 
L 151.266019 126.510277 
L 183.527312 126.474525 
L 253.53 126.476013 
L 253.53 126.476013 
" clip-path="url(#p02a5ae01cc)" style="fill: none; stroke: #808080; stroke-width: 1.5; stroke-linecap: square"/>
   </g>
   <g id="line2d_26">
    <path d="M 65.874 145.306315 
L 66.343187 140.926235 
L 66.624699 140.083544 
L 66.887444 139.925365 
L 67.431701 139.994119 
L 68.069795 139.952875 
L 68.820494 139.662575 
L 69.946542 138.961149 
L 71.635615 137.626597 
L 73.512363 135.862055 
L 75.314041 133.861161 
L 77.078184 131.562465 
L 78.823559 128.915234 
L 80.587702 125.826203 
L 82.38938 122.213676 
L 84.266127 117.941372 
L 86.274247 112.797808 
L 88.470042 106.540206 
L 91.041186 98.508922 
L 94.775914 86.019952 
L 99.692993 69.706851 
L 102.301672 61.836062 
L 104.535002 55.779402 
L 106.580657 50.856573 
L 108.513707 46.771371 
L 110.371687 43.352792 
L 112.192133 40.45947 
L 113.99381 38.005019 
L 115.814256 35.897179 
L 117.653468 34.103449 
L 119.548983 32.561666 
L 121.538336 31.229548 
L 123.659061 30.079535 
L 125.948693 29.094169 
L 128.463535 28.256526 
L 131.316191 27.545794 
L 134.619267 26.958206 
L 138.597972 26.484641 
L 143.608889 26.122374 
L 150.44025 25.866079 
L 161.100177 25.711998 
L 184.278011 25.650429 
L 253.53 25.644545 
L 253.53 25.644545 
" clip-path="url(#p02a5ae01cc)" style="fill: none; stroke: #808080; stroke-width: 1.5; stroke-linecap: square"/>
   </g>
   <g id="line2d_27">
    <path d="M 65.874 145.306315 
L 66.324419 141.474307 
L 66.605932 140.706561 
L 66.849909 140.58057 
L 67.412933 140.671975 
L 68.051027 140.642173 
L 68.820494 140.361321 
L 70.002845 139.663821 
L 71.785755 138.338494 
L 73.68127 136.659452 
L 75.482948 134.766412 
L 77.247091 132.585086 
L 78.992466 130.06924 
L 80.775377 127.099077 
L 82.595822 123.623439 
L 84.491337 119.514808 
L 86.518224 114.575647 
L 88.751554 108.52875 
L 91.397768 100.69117 
L 95.582916 87.48198 
L 99.78683 74.461673 
L 102.39551 67.098621 
L 104.628839 61.439765 
L 106.674494 56.844812 
L 108.607545 53.034793 
L 110.484292 49.818772 
L 112.323505 47.102255 
L 114.14395 44.802792 
L 115.983163 42.8329 
L 117.859911 41.145355 
L 119.811728 39.689271 
L 121.857383 38.440912 
L 124.053178 37.363897 
L 126.436647 36.445039 
L 129.101629 35.660811 
L 132.14196 35.004328 
L 135.707781 34.468475 
L 140.080603 34.044801 
L 145.767149 33.729459 
L 153.893466 33.519239 
L 167.987841 33.408223 
L 211.716062 33.379344 
L 253.53 33.378838 
L 253.53 33.378838 
" clip-path="url(#p02a5ae01cc)" style="fill: none; stroke: #808080; stroke-width: 1.5; stroke-linecap: square"/>
   </g>
   <g id="line2d_28">
    <path d="M 65.874 145.306315 
L 66.268117 142.155883 
L 66.474559 141.769617 
L 66.624699 141.867571 
L 66.924979 142.479354 
L 68.1824 145.259137 
L 69.158308 146.778413 
L 70.340659 148.198577 
L 71.82329 149.618801 
L 72.029732 149.674364 
L 74.431969 147.769888 
L 79.067536 144.111812 
L 81.582378 141.811165 
L 83.94708 139.343056 
L 86.33055 136.5282 
L 88.901694 133.135866 
L 91.960793 128.709604 
L 101.832485 114.115148 
L 104.32856 111.005902 
L 106.618192 108.50246 
L 108.813987 106.4277 
L 110.972247 104.69112 
L 113.149274 103.221836 
L 115.401371 101.968972 
L 117.784841 100.898897 
L 120.355985 99.991077 
L 123.208641 99.224667 
L 126.436647 98.592402 
L 130.246445 98.079438 
L 134.938314 97.681193 
L 141.112814 97.392739 
L 150.215041 97.209503 
L 167.349747 97.125044 
L 248.800596 97.11449 
L 253.53 97.114507 
L 253.53 97.114507 
" clip-path="url(#p02a5ae01cc)" style="fill: none; stroke: #808080; stroke-width: 1.5; stroke-linecap: square"/>
   </g>
   <g id="line2d_29">
    <path d="M 65.874 145.306315 
L 66.155512 144.275161 
L 66.286884 144.274345 
L 66.474559 144.621131 
L 67.450468 146.800806 
L 67.938422 147.247023 
L 68.520214 147.474015 
L 69.383518 147.543919 
L 73.193316 147.636514 
L 75.182668 148.004954 
L 77.322161 148.629093 
L 79.555491 149.514585 
L 80.15605 149.678138 
L 82.426914 148.468541 
L 84.735314 146.984035 
L 87.156319 145.158486 
L 89.840068 142.846393 
L 93.161911 139.671171 
L 101.832485 131.233648 
L 104.628839 128.916931 
L 107.181216 127.086233 
L 109.658523 125.579784 
L 112.154598 124.320585 
L 114.744509 123.262586 
L 117.522096 122.370213 
L 120.581195 121.625279 
L 124.053178 121.014278 
L 128.144488 120.526729 
L 133.230474 120.153844 
L 140.061836 119.890215 
L 150.51532 119.731865 
L 172.4545 119.670292 
L 253.53 119.668376 
L 253.53 119.668376 
" clip-path="url(#p02a5ae01cc)" style="fill: none; stroke: #808080; stroke-width: 1.5; stroke-linecap: square"/>
   </g>
   <g id="line2d_30">
    <path d="M 65.874 145.306315 
L 66.136745 144.255588 
L 66.24935 144.237274 
L 66.268117 144.256273 
L 66.437024 144.637382 
L 67.975957 149.179075 
L 68.351307 149.722311 
L 68.388842 149.672822 
L 69.102006 148.929477 
L 69.89024 148.423293 
L 70.809846 148.097552 
L 71.917128 147.946119 
L 73.287153 147.989725 
L 74.976226 148.274502 
L 76.909276 148.830737 
L 78.973699 149.657858 
L 79.273978 149.673776 
L 81.394703 148.548574 
L 83.571731 147.138243 
L 85.823828 145.408949 
L 88.226065 143.277693 
L 90.966116 140.537645 
L 94.700844 136.45598 
L 100.781507 129.810119 
L 103.652931 127.026063 
L 106.18654 124.870969 
L 108.607545 123.100228 
L 110.991014 121.630052 
L 113.430786 120.38666 
L 115.983163 119.337228 
L 118.723215 118.453537 
L 121.744778 117.715715 
L 125.197994 117.106725 
L 129.289304 116.618851 
L 134.37529 116.246332 
L 141.206652 115.983255 
L 151.660136 115.825529 
L 173.618084 115.765006 
L 253.53 115.764179 
L 253.53 115.764179 
" clip-path="url(#p02a5ae01cc)" style="fill: none; stroke: #808080; stroke-width: 1.5; stroke-linecap: square"/>
   </g>
   <g id="patch_3">
    <path d="M 65.874 155.94 
L 65.874 19.44 
" style="fill: none; stroke: #000000; stroke-width: 0.8; stroke-linejoin: miter; stroke-linecap: square"/>
   </g>
   <g id="patch_4">
    <path d="M 253.53 155.94 
L 253.53 19.44 
" style="fill: none; stroke: #000000; stroke-width: 0.8; stroke-linejoin: miter; stroke-linecap: square"/>
   </g>
   <g id="patch_5">
    <path d="M 65.874 155.94 
L 253.53 155.94 
" style="fill: none; stroke: #000000; stroke-width: 0.8; stroke-linejoin: miter; stroke-linecap: square"/>
   </g>
   <g id="patch_6">
    <path d="M 65.874 19.44 
L 253.53 19.44 
" style="fill: none; stroke: #000000; stroke-width: 0.8; stroke-linejoin: miter; stroke-linecap: square"/>
   </g>
  </g>
 </g>
 <defs>
  <clipPath id="p02a5ae01cc">
   <rect x="65.874" y="19.44" width="187.656" height="136.5"/>
  </clipPath>
 </defs>
</svg>
