<?xml version="1.0" encoding="utf-8" standalone="no"?>
<!DOCTYPE svg PUBLIC "-//W3C//DTD SVG 1.1//EN"
  "http://www.w3.org/Graphics/SVG/1.1/DTD/svg11.dtd">
<svg xmlns:xlink="http://www.w3.org/1999/xlink" width="288pt" height="216pt" viewBox="0 0 288 216" xmlns="http://www.w3.org/2000/svg" version="1.1">
 <metadata>
  <rdf:RDF xmlns:dc="http://purl.org/dc/elements/1.1/" xmlns:cc="http://creativecommons.org/ns#" xmlns:rdf="http://www.w3.org/1999/02/22-rdf-syntax-ns#">
   <cc:Work>
    <dc:type rdf:resource="http://purl.org/dc/dcmitype/StillImage"/>
    <dc:date>2024-07-16T15:23:04.726308</dc:date>
    <dc:format>image/svg+xml</dc:format>
    <dc:creator>
     <cc:Agent>
      <dc:title>Matplotlib v3.7.2, https://matplotlib.org/</dc:title>
     </cc:Agent>
    </dc:creator>
   </cc:Work>
  </rdf:RDF>
 </metadata>
 <defs>
  <style type="text/css">*{stroke-linejoin: round; stroke-linecap: butt}</style>
 </defs>
 <g id="figure_1">
  <g id="patch_1">
   <path d="M 0 216 
L 288 216 
L 288 0 
L 0 0 
L 0 216 
z
" style="fill: none"/>
  </g>
  <g id="axes_1">
   <g id="patch_2">
    <path d="M 57.648 161.7 
L 252.9 161.7 
L 252.9 17.28 
L 57.648 17.28 
L 57.648 161.7 
z
" style="fill: none"/>
   </g>
   <g id="matplotlib.axis_1">
    <g id="xtick_1">
     <g id="line2d_1">
      <defs>
       <path id="mbecc2e8c92" d="M 0 0 
L 0 -3.5 
" style="stroke: #000000; stroke-width: 0.8"/>
      </defs>
      <g>
       <use xlink:href="#mbecc2e8c92" x="57.648" y="161.7" style="stroke: #000000; stroke-width: 0.8"/>
      </g>
     </g>
     <g id="text_1">
      <!-- 0 -->
      <g transform="translate(53.19925 176.6525) scale(0.16 -0.16)">
       <defs>
        <path id="ArialMT-30" d="M 266 2259 
Q 266 3072 433 3567 
Q 600 4063 929 4331 
Q 1259 4600 1759 4600 
Q 2128 4600 2406 4451 
Q 2684 4303 2865 4023 
Q 3047 3744 3150 3342 
Q 3253 2941 3253 2259 
Q 3253 1453 3087 958 
Q 2922 463 2592 192 
Q 2263 -78 1759 -78 
Q 1097 -78 719 397 
Q 266 969 266 2259 
z
M 844 2259 
Q 844 1131 1108 757 
Q 1372 384 1759 384 
Q 2147 384 2411 759 
Q 2675 1134 2675 2259 
Q 2675 3391 2411 3762 
Q 2147 4134 1753 4134 
Q 1366 4134 1134 3806 
Q 844 3388 844 2259 
z
" transform="scale(0.015625)"/>
       </defs>
       <use xlink:href="#ArialMT-30"/>
      </g>
     </g>
    </g>
    <g id="xtick_2">
     <g id="line2d_2">
      <g>
       <use xlink:href="#mbecc2e8c92" x="106.461" y="161.7" style="stroke: #000000; stroke-width: 0.8"/>
      </g>
     </g>
     <g id="text_2">
      <!-- 1000 -->
      <g transform="translate(88.666 176.6525) scale(0.16 -0.16)">
       <defs>
        <path id="ArialMT-31" d="M 2384 0 
L 1822 0 
L 1822 3584 
Q 1619 3391 1289 3197 
Q 959 3003 697 2906 
L 697 3450 
Q 1169 3672 1522 3987 
Q 1875 4303 2022 4600 
L 2384 4600 
L 2384 0 
z
" transform="scale(0.015625)"/>
       </defs>
       <use xlink:href="#ArialMT-31"/>
       <use xlink:href="#ArialMT-30" x="55.615234"/>
       <use xlink:href="#ArialMT-30" x="111.230469"/>
       <use xlink:href="#ArialMT-30" x="166.845703"/>
      </g>
     </g>
    </g>
    <g id="xtick_3">
     <g id="line2d_3">
      <g>
       <use xlink:href="#mbecc2e8c92" x="155.274" y="161.7" style="stroke: #000000; stroke-width: 0.8"/>
      </g>
     </g>
     <g id="text_3">
      <!-- 2000 -->
      <g transform="translate(137.479 176.6525) scale(0.16 -0.16)">
       <defs>
        <path id="ArialMT-32" d="M 3222 541 
L 3222 0 
L 194 0 
Q 188 203 259 391 
Q 375 700 629 1000 
Q 884 1300 1366 1694 
Q 2113 2306 2375 2664 
Q 2638 3022 2638 3341 
Q 2638 3675 2398 3904 
Q 2159 4134 1775 4134 
Q 1369 4134 1125 3890 
Q 881 3647 878 3216 
L 300 3275 
Q 359 3922 746 4261 
Q 1134 4600 1788 4600 
Q 2447 4600 2831 4234 
Q 3216 3869 3216 3328 
Q 3216 3053 3103 2787 
Q 2991 2522 2730 2228 
Q 2469 1934 1863 1422 
Q 1356 997 1212 845 
Q 1069 694 975 541 
L 3222 541 
z
" transform="scale(0.015625)"/>
       </defs>
       <use xlink:href="#ArialMT-32"/>
       <use xlink:href="#ArialMT-30" x="55.615234"/>
       <use xlink:href="#ArialMT-30" x="111.230469"/>
       <use xlink:href="#ArialMT-30" x="166.845703"/>
      </g>
     </g>
    </g>
    <g id="xtick_4">
     <g id="line2d_4">
      <g>
       <use xlink:href="#mbecc2e8c92" x="204.087" y="161.7" style="stroke: #000000; stroke-width: 0.8"/>
      </g>
     </g>
     <g id="text_4">
      <!-- 3000 -->
      <g transform="translate(186.292 176.6525) scale(0.16 -0.16)">
       <defs>
        <path id="ArialMT-33" d="M 269 1209 
L 831 1284 
Q 928 806 1161 595 
Q 1394 384 1728 384 
Q 2125 384 2398 659 
Q 2672 934 2672 1341 
Q 2672 1728 2419 1979 
Q 2166 2231 1775 2231 
Q 1616 2231 1378 2169 
L 1441 2663 
Q 1497 2656 1531 2656 
Q 1891 2656 2178 2843 
Q 2466 3031 2466 3422 
Q 2466 3731 2256 3934 
Q 2047 4138 1716 4138 
Q 1388 4138 1169 3931 
Q 950 3725 888 3313 
L 325 3413 
Q 428 3978 793 4289 
Q 1159 4600 1703 4600 
Q 2078 4600 2393 4439 
Q 2709 4278 2876 4000 
Q 3044 3722 3044 3409 
Q 3044 3113 2884 2869 
Q 2725 2625 2413 2481 
Q 2819 2388 3044 2092 
Q 3269 1797 3269 1353 
Q 3269 753 2831 336 
Q 2394 -81 1725 -81 
Q 1122 -81 723 278 
Q 325 638 269 1209 
z
" transform="scale(0.015625)"/>
       </defs>
       <use xlink:href="#ArialMT-33"/>
       <use xlink:href="#ArialMT-30" x="55.615234"/>
       <use xlink:href="#ArialMT-30" x="111.230469"/>
       <use xlink:href="#ArialMT-30" x="166.845703"/>
      </g>
     </g>
    </g>
    <g id="xtick_5">
     <g id="line2d_5">
      <g>
       <use xlink:href="#mbecc2e8c92" x="252.9" y="161.7" style="stroke: #000000; stroke-width: 0.8"/>
      </g>
     </g>
     <g id="text_5">
      <!-- 4000 -->
      <g transform="translate(235.105 176.6525) scale(0.16 -0.16)">
       <defs>
        <path id="ArialMT-34" d="M 2069 0 
L 2069 1097 
L 81 1097 
L 81 1613 
L 2172 4581 
L 2631 4581 
L 2631 1613 
L 3250 1613 
L 3250 1097 
L 2631 1097 
L 2631 0 
L 2069 0 
z
M 2069 1613 
L 2069 3678 
L 634 1613 
L 2069 1613 
z
" transform="scale(0.015625)"/>
       </defs>
       <use xlink:href="#ArialMT-34"/>
       <use xlink:href="#ArialMT-30" x="55.615234"/>
       <use xlink:href="#ArialMT-30" x="111.230469"/>
       <use xlink:href="#ArialMT-30" x="166.845703"/>
      </g>
     </g>
    </g>
    <g id="text_6">
     <!-- $t$ -->
     <g transform="translate(152.074 195.285) scale(0.16 -0.16)">
      <defs>
       <path id="DejaVuSans-Oblique-74" d="M 2706 3500 
L 2619 3053 
L 1472 3053 
L 1100 1153 
Q 1081 1047 1072 975 
Q 1063 903 1063 863 
Q 1063 663 1183 572 
Q 1303 481 1569 481 
L 2150 481 
L 2053 0 
L 1503 0 
Q 991 0 739 200 
Q 488 400 488 806 
Q 488 878 497 964 
Q 506 1050 525 1153 
L 897 3053 
L 409 3053 
L 500 3500 
L 978 3500 
L 1172 4494 
L 1747 4494 
L 1556 3500 
L 2706 3500 
z
" transform="scale(0.015625)"/>
      </defs>
      <use xlink:href="#DejaVuSans-Oblique-74" transform="translate(0 0.78125)"/>
     </g>
    </g>
   </g>
   <g id="matplotlib.axis_2">
    <g id="ytick_1">
     <g id="line2d_6">
      <defs>
       <path id="ma9bd357bbf" d="M 0 0 
L 3.5 0 
" style="stroke: #000000; stroke-width: 0.8"/>
      </defs>
      <g>
       <use xlink:href="#ma9bd357bbf" x="57.648" y="132.523211" style="stroke: #000000; stroke-width: 0.8"/>
      </g>
     </g>
     <g id="text_7">
      <!-- $\mathdefault{10^{0}}$ -->
      <g transform="translate(29.028 140.773211) scale(0.16 -0.16)">
       <use xlink:href="#ArialMT-31" transform="translate(0 0.99375)"/>
       <use xlink:href="#ArialMT-30" transform="translate(55.615234 0.99375)"/>
       <use xlink:href="#ArialMT-30" transform="translate(112.972813 70.6875) scale(0.7)"/>
      </g>
     </g>
    </g>
    <g id="ytick_2">
     <g id="line2d_7">
      <g>
       <use xlink:href="#ma9bd357bbf" x="57.648" y="69.988574" style="stroke: #000000; stroke-width: 0.8"/>
      </g>
     </g>
     <g id="text_8">
      <!-- $\mathdefault{10^{1}}$ -->
      <g transform="translate(29.028 78.238574) scale(0.16 -0.16)">
       <use xlink:href="#ArialMT-31" transform="translate(0 0.99375)"/>
       <use xlink:href="#ArialMT-30" transform="translate(55.615234 0.99375)"/>
       <use xlink:href="#ArialMT-31" transform="translate(112.972813 70.6875) scale(0.7)"/>
      </g>
     </g>
    </g>
    <g id="ytick_3">
     <g id="line2d_8">
      <defs>
       <path id="m2eab7567af" d="M 0 0 
L 2 0 
" style="stroke: #000000; stroke-width: 0.6"/>
      </defs>
      <g>
       <use xlink:href="#m2eab7567af" x="57.648" y="157.408245" style="stroke: #000000; stroke-width: 0.6"/>
      </g>
     </g>
    </g>
    <g id="ytick_4">
     <g id="line2d_9">
      <g>
       <use xlink:href="#m2eab7567af" x="57.648" y="151.348013" style="stroke: #000000; stroke-width: 0.6"/>
      </g>
     </g>
    </g>
    <g id="ytick_5">
     <g id="line2d_10">
      <g>
       <use xlink:href="#m2eab7567af" x="57.648" y="146.396442" style="stroke: #000000; stroke-width: 0.6"/>
      </g>
     </g>
    </g>
    <g id="ytick_6">
     <g id="line2d_11">
      <g>
       <use xlink:href="#m2eab7567af" x="57.648" y="142.209949" style="stroke: #000000; stroke-width: 0.6"/>
      </g>
     </g>
    </g>
    <g id="ytick_7">
     <g id="line2d_12">
      <g>
       <use xlink:href="#m2eab7567af" x="57.648" y="138.583444" style="stroke: #000000; stroke-width: 0.6"/>
      </g>
     </g>
    </g>
    <g id="ytick_8">
     <g id="line2d_13">
      <g>
       <use xlink:href="#m2eab7567af" x="57.648" y="135.384639" style="stroke: #000000; stroke-width: 0.6"/>
      </g>
     </g>
    </g>
    <g id="ytick_9">
     <g id="line2d_14">
      <g>
       <use xlink:href="#m2eab7567af" x="57.648" y="113.69841" style="stroke: #000000; stroke-width: 0.6"/>
      </g>
     </g>
    </g>
    <g id="ytick_10">
     <g id="line2d_15">
      <g>
       <use xlink:href="#m2eab7567af" x="57.648" y="102.686607" style="stroke: #000000; stroke-width: 0.6"/>
      </g>
     </g>
    </g>
    <g id="ytick_11">
     <g id="line2d_16">
      <g>
       <use xlink:href="#m2eab7567af" x="57.648" y="94.873608" style="stroke: #000000; stroke-width: 0.6"/>
      </g>
     </g>
    </g>
    <g id="ytick_12">
     <g id="line2d_17">
      <g>
       <use xlink:href="#m2eab7567af" x="57.648" y="88.813376" style="stroke: #000000; stroke-width: 0.6"/>
      </g>
     </g>
    </g>
    <g id="ytick_13">
     <g id="line2d_18">
      <g>
       <use xlink:href="#m2eab7567af" x="57.648" y="83.861805" style="stroke: #000000; stroke-width: 0.6"/>
      </g>
     </g>
    </g>
    <g id="ytick_14">
     <g id="line2d_19">
      <g>
       <use xlink:href="#m2eab7567af" x="57.648" y="79.675312" style="stroke: #000000; stroke-width: 0.6"/>
      </g>
     </g>
    </g>
    <g id="ytick_15">
     <g id="line2d_20">
      <g>
       <use xlink:href="#m2eab7567af" x="57.648" y="76.048807" style="stroke: #000000; stroke-width: 0.6"/>
      </g>
     </g>
    </g>
    <g id="ytick_16">
     <g id="line2d_21">
      <g>
       <use xlink:href="#m2eab7567af" x="57.648" y="72.850003" style="stroke: #000000; stroke-width: 0.6"/>
      </g>
     </g>
    </g>
    <g id="ytick_17">
     <g id="line2d_22">
      <g>
       <use xlink:href="#m2eab7567af" x="57.648" y="51.163773" style="stroke: #000000; stroke-width: 0.6"/>
      </g>
     </g>
    </g>
    <g id="ytick_18">
     <g id="line2d_23">
      <g>
       <use xlink:href="#m2eab7567af" x="57.648" y="40.15197" style="stroke: #000000; stroke-width: 0.6"/>
      </g>
     </g>
    </g>
    <g id="ytick_19">
     <g id="line2d_24">
      <g>
       <use xlink:href="#m2eab7567af" x="57.648" y="32.338972" style="stroke: #000000; stroke-width: 0.6"/>
      </g>
     </g>
    </g>
    <g id="ytick_20">
     <g id="line2d_25">
      <g>
       <use xlink:href="#m2eab7567af" x="57.648" y="26.278739" style="stroke: #000000; stroke-width: 0.6"/>
      </g>
     </g>
    </g>
    <g id="ytick_21">
     <g id="line2d_26">
      <g>
       <use xlink:href="#m2eab7567af" x="57.648" y="21.327169" style="stroke: #000000; stroke-width: 0.6"/>
      </g>
     </g>
    </g>
    <g id="text_9">
     <!-- $r_i$ -->
     <g transform="translate(21.848 94.61) rotate(-90) scale(0.16 -0.16)">
      <defs>
       <path id="DejaVuSans-Oblique-72" d="M 2853 2969 
Q 2766 3016 2653 3041 
Q 2541 3066 2413 3066 
Q 1953 3066 1609 2717 
Q 1266 2369 1153 1784 
L 800 0 
L 225 0 
L 909 3500 
L 1484 3500 
L 1375 2956 
Q 1603 3259 1920 3421 
Q 2238 3584 2597 3584 
Q 2691 3584 2781 3573 
Q 2872 3563 2963 3538 
L 2853 2969 
z
" transform="scale(0.015625)"/>
       <path id="DejaVuSans-Oblique-69" d="M 1172 4863 
L 1747 4863 
L 1606 4134 
L 1031 4134 
L 1172 4863 
z
M 909 3500 
L 1484 3500 
L 800 0 
L 225 0 
L 909 3500 
z
" transform="scale(0.015625)"/>
      </defs>
      <use xlink:href="#DejaVuSans-Oblique-72"/>
      <use xlink:href="#DejaVuSans-Oblique-69" transform="translate(41.113281 -16.40625) scale(0.7)"/>
     </g>
    </g>
   </g>
   <g id="line2d_27">
    <path d="M 57.648 155.135455 
L 57.772964 24.267493 
L 57.886212 25.129402 
L 58.15176 25.996721 
L 58.553987 27.141151 
L 58.694572 28.566962 
L 58.729718 28.978817 
L 58.760959 28.004196 
L 58.831251 23.844545 
L 58.913258 24.630047 
L 59.147565 25.758425 
L 59.709902 27.564805 
L 59.827056 28.977809 
L 59.854392 28.141918 
L 59.924684 23.845944 
L 60.010596 24.64807 
L 60.244904 25.763628 
L 60.803335 27.547768 
L 60.920489 28.978821 
L 60.95173 28.003792 
L 61.022022 23.844546 
L 61.10403 24.630098 
L 61.338337 25.75844 
L 61.900674 27.564854 
L 62.017827 28.977799 
L 62.045163 28.141545 
L 62.115455 23.845935 
L 62.201368 24.648121 
L 62.435675 25.763642 
L 62.994107 27.547816 
L 63.11126 28.978825 
L 63.142501 28.003387 
L 63.212793 23.844547 
L 63.294801 24.630149 
L 63.529108 25.758455 
L 64.091445 27.564902 
L 64.208598 28.977789 
L 64.235934 28.141171 
L 64.306226 23.845926 
L 64.392139 24.648171 
L 64.626446 25.763657 
L 65.184878 27.547864 
L 65.302031 28.978829 
L 65.333272 28.002982 
L 65.403565 23.844548 
L 65.485572 24.6302 
L 65.719879 25.758469 
L 66.282216 27.564951 
L 66.39937 28.977779 
L 66.426705 28.140798 
L 66.496998 23.845918 
L 66.58291 24.648222 
L 66.817217 25.763672 
L 67.375649 27.547912 
L 67.492803 28.978833 
L 67.524044 28.002578 
L 67.594336 23.844549 
L 67.676343 24.630251 
L 67.91065 25.758484 
L 68.472987 27.564999 
L 68.590141 28.977768 
L 68.617477 28.140425 
L 68.687769 23.845909 
L 68.773681 24.648272 
L 69.007989 25.763686 
L 69.56642 27.547959 
L 69.683574 28.978837 
L 69.714815 28.002173 
L 69.785107 23.84455 
L 69.867115 24.630302 
L 70.101422 25.758499 
L 70.663759 27.565048 
L 70.780912 28.977758 
L 70.808248 28.140051 
L 70.87854 23.8459 
L 70.964453 24.648322 
L 71.19876 25.763701 
L 71.757192 27.548007 
L 71.874345 28.97884 
L 71.905586 28.001768 
L 71.975878 23.844551 
L 72.057886 24.630353 
L 72.292193 25.758513 
L 72.85453 27.565096 
L 72.971683 28.977748 
L 72.999019 28.139678 
L 73.069311 23.845891 
L 73.155224 24.648373 
L 73.389531 25.763715 
L 73.947963 27.548055 
L 74.065117 28.978844 
L 74.096357 28.001363 
L 74.16665 23.844552 
L 74.248657 24.630404 
L 74.482964 25.758528 
L 75.045301 27.565145 
L 75.162455 28.977738 
L 75.189791 28.139304 
L 75.260083 23.845883 
L 75.345995 24.648423 
L 75.580302 25.76373 
L 76.138734 27.548102 
L 76.255888 28.978848 
L 76.287129 28.000957 
L 76.357421 23.844553 
L 76.439428 24.630455 
L 76.673735 25.758543 
L 77.236072 27.565193 
L 77.353226 28.977728 
L 77.380562 28.13893 
L 77.450854 23.845874 
L 77.536766 24.648474 
L 77.771074 25.763745 
L 78.329505 27.54815 
L 78.446659 28.978852 
L 78.4779 28.000552 
L 78.548192 23.844554 
L 78.6302 24.630507 
L 78.864507 25.758558 
L 79.426844 27.565242 
L 79.543997 28.977717 
L 79.571333 28.138557 
L 79.641625 23.845865 
L 79.727538 24.648524 
L 79.961845 25.763759 
L 80.520277 27.548198 
L 80.63743 28.978855 
L 80.668671 28.000147 
L 80.738963 23.844555 
L 80.820971 24.630558 
L 81.055278 25.758572 
L 81.617615 27.56529 
L 81.734768 28.977707 
L 81.762104 28.138183 
L 81.832396 23.845857 
L 81.918309 24.648574 
L 82.152616 25.763774 
L 82.711048 27.548246 
L 82.828202 28.978859 
L 82.859442 27.999741 
L 82.929735 23.844556 
L 83.011742 24.630609 
L 83.246049 25.758587 
L 83.808386 27.565339 
L 83.92554 28.977697 
L 83.952876 28.137809 
L 84.023168 23.845848 
L 84.10908 24.648625 
L 84.343387 25.763788 
L 84.901819 27.548293 
L 85.018973 28.978862 
L 85.050214 27.999336 
L 85.120506 23.844557 
L 85.202513 24.63066 
L 85.43682 25.758602 
L 85.999157 27.565387 
L 86.116311 28.977686 
L 86.143647 28.137435 
L 86.213939 23.845839 
L 86.299852 24.648675 
L 86.534159 25.763803 
L 87.09259 27.548341 
L 87.209744 28.978866 
L 87.240985 27.99893 
L 87.311277 23.844558 
L 87.393285 24.630711 
L 87.627592 25.758616 
L 88.189929 27.565436 
L 88.307082 28.977676 
L 88.334418 28.13706 
L 88.40471 23.845831 
L 88.490623 24.648725 
L 88.72493 25.763818 
L 89.283362 27.548389 
L 89.400515 28.978869 
L 89.431756 27.998524 
L 89.502048 23.84456 
L 89.584056 24.630762 
L 89.818363 25.758631 
L 90.376795 27.53162 
L 90.497853 28.977665 
L 90.525189 28.136686 
L 90.595481 23.845822 
L 90.681394 24.648776 
L 90.915701 25.763832 
L 91.474133 27.548437 
L 91.591287 28.978873 
L 91.622527 27.998119 
L 91.69282 23.844561 
L 91.774827 24.630813 
L 92.009134 25.758646 
L 92.567566 27.531667 
L 92.688625 28.977655 
L 92.715961 28.136312 
L 92.786253 23.845814 
L 92.872165 24.648826 
L 93.106472 25.763847 
L 93.664904 27.548484 
L 93.782058 28.978876 
L 93.813299 27.997713 
L 93.883591 23.844562 
L 93.965598 24.630864 
L 94.199905 25.75866 
L 94.758337 27.531714 
L 94.879396 28.977644 
L 94.906732 28.135937 
L 94.977024 23.845805 
L 95.062937 24.648876 
L 95.297244 25.763861 
L 95.855676 27.548532 
L 95.972829 28.97888 
L 96.00407 27.997307 
L 96.074362 23.844563 
L 96.15637 24.630915 
L 96.390677 25.758675 
L 96.949109 27.531761 
L 97.070167 28.977634 
L 97.097503 28.135563 
L 97.167795 23.845797 
L 97.253708 24.648927 
L 97.488015 25.763876 
L 98.046447 27.54858 
L 98.1636 28.978883 
L 98.194841 27.996901 
L 98.265133 23.844565 
L 98.347141 24.630966 
L 98.581448 25.75869 
L 99.13988 27.531808 
L 99.260938 28.977623 
L 99.288274 28.135188 
L 99.358566 23.845789 
L 99.444479 24.648977 
L 99.678786 25.763891 
L 100.237218 27.548628 
L 100.354372 28.978886 
L 100.385613 27.996495 
L 100.455905 23.844566 
L 100.537912 24.631017 
L 100.772219 25.758704 
L 101.330651 27.531855 
L 101.45171 28.977612 
L 101.479046 28.134813 
L 101.549338 23.84578 
L 101.63525 24.649028 
L 101.869557 25.763905 
L 102.427989 27.548675 
L 102.545143 28.97889 
L 102.576384 27.996088 
L 102.646676 23.844567 
L 102.728683 24.631068 
L 102.96299 25.758719 
L 103.521422 27.531902 
L 103.642481 28.977602 
L 103.669817 28.134439 
L 103.740109 23.845772 
L 103.826022 24.649078 
L 104.060329 25.76392 
L 104.618761 27.548723 
L 104.735914 28.978893 
L 104.767155 27.995682 
L 104.837447 23.844569 
L 104.919455 24.63112 
L 105.153762 25.758734 
L 105.712194 27.531948 
L 105.833252 28.977591 
L 105.860588 28.134064 
L 105.93088 23.845763 
L 106.016793 24.649128 
L 106.2511 25.763934 
L 106.809532 27.548771 
L 106.926685 28.978896 
L 106.957926 27.995276 
L 107.028218 23.84457 
L 107.110226 24.631171 
L 107.344533 25.758748 
L 107.902965 27.531995 
L 108.024024 28.97758 
L 108.051359 28.133689 
L 108.121651 23.845755 
L 108.207564 24.649179 
L 108.441871 25.763949 
L 109.000303 27.548819 
L 109.117457 28.978899 
L 109.148698 27.994869 
L 109.21899 23.844571 
L 109.300997 24.631222 
L 109.535304 25.758763 
L 110.093736 27.532042 
L 110.214795 28.977569 
L 110.242131 28.133314 
L 110.312423 23.845747 
L 110.398335 24.649229 
L 110.632642 25.763964 
L 111.191074 27.548866 
L 111.308228 28.978902 
L 111.339469 27.994463 
L 111.409761 23.844573 
L 111.491768 24.631273 
L 111.726075 25.758778 
L 112.284507 27.532089 
L 112.405566 28.977558 
L 112.432902 28.132938 
L 112.503194 23.845739 
L 112.589107 24.649279 
L 112.823414 25.763978 
L 113.381846 27.548914 
L 113.498999 28.978905 
L 113.53024 27.994056 
L 113.600532 23.844574 
L 113.68254 24.631324 
L 113.916847 25.758792 
L 114.475279 27.532136 
L 114.596337 28.977547 
L 114.623673 28.132563 
L 114.693965 23.845731 
L 114.779878 24.64933 
L 115.014185 25.763993 
L 115.572617 27.548962 
L 115.68977 28.978908 
L 115.721011 27.993649 
L 115.791303 23.844576 
L 115.873311 24.631375 
L 116.107618 25.758807 
L 116.66605 27.532183 
L 116.787109 28.977536 
L 116.814444 28.132188 
L 116.884736 23.845722 
L 116.970649 24.64938 
L 117.204956 25.764007 
L 117.763388 27.54901 
L 117.880542 28.978911 
L 117.911783 27.993242 
L 117.982075 23.844577 
L 118.064082 24.631426 
L 118.298389 25.758822 
L 118.856821 27.53223 
L 118.97788 28.977525 
L 119.005216 28.131812 
L 119.075508 23.845714 
L 119.16142 24.64943 
L 119.395727 25.764022 
L 119.954159 27.549057 
L 120.071313 28.978914 
L 120.102554 27.992835 
L 120.172846 23.844579 
L 120.254853 24.631477 
L 120.489161 25.758837 
L 121.047592 27.532277 
L 121.168651 28.977514 
L 121.195987 28.131437 
L 121.266279 23.845706 
L 121.352192 24.649481 
L 121.586499 25.764037 
L 122.144931 27.549105 
L 122.262084 28.978917 
L 122.293325 27.992428 
L 122.363617 23.84458 
L 122.445625 24.631528 
L 122.679932 25.758851 
L 123.238364 27.532324 
L 123.359422 28.977503 
L 123.386758 28.131061 
L 123.45705 23.845698 
L 123.542963 24.649531 
L 123.77727 25.764051 
L 124.335702 27.549153 
L 124.452855 28.97892 
L 124.484096 27.992021 
L 124.554388 23.844582 
L 124.636396 24.631579 
L 124.870703 25.758866 
L 125.429135 27.532371 
L 125.550194 28.977492 
L 125.577529 28.130686 
L 125.647822 23.84569 
L 125.733734 24.649581 
L 125.968041 25.764066 
L 126.526473 27.549201 
L 126.643627 28.978923 
L 126.674868 27.991614 
L 126.74516 23.844584 
L 126.827167 24.63163 
L 127.061474 25.758881 
L 127.619906 27.532418 
L 127.740965 28.977481 
L 127.768301 28.13031 
L 127.838593 23.845682 
L 127.924505 24.649632 
L 128.158812 25.76408 
L 128.717244 27.549249 
L 128.834398 28.978926 
L 128.865639 27.991207 
L 128.935931 23.844585 
L 129.017938 24.631681 
L 129.252246 25.758895 
L 129.810677 27.532465 
L 129.931736 28.97747 
L 129.959072 28.129934 
L 130.029364 23.845674 
L 130.115277 24.649682 
L 130.349584 25.764095 
L 130.908016 27.549296 
L 131.025169 28.978929 
L 131.05641 27.9908 
L 131.126702 23.844587 
L 131.20871 24.631732 
L 131.443017 25.75891 
L 132.001449 27.532512 
L 132.122507 28.977458 
L 132.149843 28.129558 
L 132.220135 23.845666 
L 132.306048 24.649732 
L 132.540355 25.76411 
L 133.098787 27.549344 
L 133.21594 28.978931 
L 133.247181 27.990392 
L 133.317473 23.844589 
L 133.399481 24.631783 
L 133.633788 25.758925 
L 134.19222 27.532559 
L 134.313279 28.977447 
L 134.340614 28.129182 
L 134.410907 23.845658 
L 134.496819 24.649783 
L 134.731126 25.764124 
L 135.289558 27.549392 
L 135.406712 28.978934 
L 135.437953 27.989985 
L 135.508245 23.84459 
L 135.590252 24.631834 
L 135.824559 25.758939 
L 136.382991 27.532606 
L 136.50405 28.977436 
L 136.531386 28.128806 
L 136.601678 23.84565 
L 136.68759 24.649833 
L 136.921897 25.764139 
L 137.480329 27.54944 
L 137.597483 28.978937 
L 137.628724 27.989577 
L 137.699016 23.844592 
L 137.781023 24.631885 
L 138.015331 25.758954 
L 138.573762 27.532653 
L 138.694821 28.977424 
L 138.722157 28.128429 
L 138.792449 23.845642 
L 138.878362 24.649883 
L 139.112669 25.764153 
L 139.671101 27.549487 
L 139.788254 28.978939 
L 139.819495 27.989169 
L 139.889787 23.844594 
L 139.971795 24.631936 
L 140.206102 25.758969 
L 140.764534 27.5327 
L 140.885592 28.977413 
L 140.912928 28.128053 
L 140.98322 23.845634 
L 141.069133 24.649934 
L 141.30344 25.764168 
L 141.861872 27.549535 
L 141.979025 28.978942 
L 142.010266 27.988761 
L 142.080558 23.844596 
L 142.162566 24.631987 
L 142.396873 25.758983 
L 142.955305 27.532747 
L 143.076364 28.977401 
L 143.103699 28.127677 
L 143.173992 23.845627 
L 143.259904 24.649984 
L 143.494211 25.764183 
L 144.052643 27.549583 
L 144.169797 28.978945 
L 144.201038 27.988354 
L 144.27133 23.844597 
L 144.353337 24.632038 
L 144.587644 25.758998 
L 145.146076 27.532794 
L 145.267135 28.97739 
L 145.294471 28.1273 
L 145.364763 23.845619 
L 145.450675 24.650034 
L 145.684982 25.764197 
L 146.243414 27.549631 
L 146.360568 28.978947 
L 146.391809 27.987946 
L 146.462101 23.844599 
L 146.544108 24.632089 
L 146.778416 25.759013 
L 147.336847 27.532841 
L 147.457906 28.977378 
L 147.485242 28.126924 
L 147.555534 23.845611 
L 147.641447 24.650084 
L 147.875754 25.764212 
L 148.434186 27.549679 
L 148.551339 28.97895 
L 148.58258 27.987538 
L 148.652872 23.844601 
L 148.73488 24.63214 
L 148.969187 25.759027 
L 149.527619 27.532889 
L 149.648677 28.977366 
L 149.676013 28.126547 
L 149.746305 23.845603 
L 149.832218 24.650135 
L 150.066525 25.764226 
L 150.624957 27.549726 
L 150.74211 28.978952 
L 150.773351 27.987129 
L 150.843644 23.844603 
L 150.925651 24.632191 
L 151.159958 25.759042 
L 151.71839 27.532936 
L 151.839449 28.977355 
L 151.866784 28.12617 
L 151.937077 23.845596 
L 152.022989 24.650185 
L 152.257296 25.764241 
L 152.815728 27.549774 
L 152.932882 28.978954 
L 152.964123 27.986721 
L 153.034415 23.844605 
L 153.116422 24.632243 
L 153.350729 25.759057 
L 153.909161 27.532983 
L 154.03022 28.977343 
L 154.057556 28.125793 
L 154.127848 23.845588 
L 154.21376 24.650235 
L 154.448068 25.764256 
L 155.006499 27.549822 
L 155.123653 28.978957 
L 155.154894 27.986313 
L 155.225186 23.844607 
L 155.307194 24.632294 
L 155.541501 25.759071 
L 156.099932 27.53303 
L 156.220991 28.977331 
L 156.248327 28.125416 
L 156.318619 23.84558 
L 156.404532 24.650286 
L 156.638839 25.76427 
L 157.197271 27.54987 
L 157.314424 28.978959 
L 157.345665 27.985904 
L 157.415957 23.844609 
L 157.497965 24.632345 
L 157.732272 25.759086 
L 158.290704 27.533077 
L 158.411762 28.97732 
L 158.439098 28.125039 
L 158.50939 23.845573 
L 158.595303 24.650336 
L 158.82961 25.764285 
L 159.388042 27.549918 
L 159.505195 28.978961 
L 159.536436 27.985496 
L 159.606729 23.844611 
L 159.688736 24.632396 
L 159.923043 25.759101 
L 160.481475 27.533124 
L 160.602534 28.977308 
L 160.629869 28.124662 
L 160.700162 23.845565 
L 160.786074 24.650386 
L 161.020381 25.764299 
L 161.578813 27.549965 
L 161.695967 28.978964 
L 161.727208 27.985087 
L 161.7975 23.844613 
L 161.879507 24.632447 
L 162.113814 25.759115 
L 162.672246 27.533171 
L 162.793305 28.977296 
L 162.820641 28.124285 
L 162.890933 23.845557 
L 162.976845 24.650437 
L 163.211153 25.764314 
L 163.769584 27.550013 
L 163.886738 28.978966 
L 163.917979 27.984679 
L 163.988271 23.844615 
L 164.070279 24.632498 
L 164.304586 25.75913 
L 164.863018 27.533218 
L 164.984076 28.977284 
L 165.011412 28.123907 
L 165.081704 23.84555 
L 165.167617 24.650487 
L 165.401924 25.764329 
L 165.960356 27.550061 
L 166.077509 28.978968 
L 166.10875 27.98427 
L 166.179042 23.844617 
L 166.26105 24.632549 
L 166.495357 25.759145 
L 167.053789 27.533265 
L 167.174847 28.977272 
L 167.202183 28.12353 
L 167.272475 23.845542 
L 167.358388 24.650537 
L 167.592695 25.764343 
L 168.151127 27.550109 
L 168.26828 28.97897 
L 168.299521 27.983861 
L 168.369814 23.844619 
L 168.451821 24.6326 
L 168.686128 25.759159 
L 169.24456 27.533312 
L 169.365619 28.97726 
L 169.392954 28.123152 
L 169.463247 23.845535 
L 169.549159 24.650587 
L 169.783466 25.764358 
L 170.341898 27.550157 
L 170.459052 28.978972 
L 170.490293 27.983452 
L 170.560585 23.844621 
L 170.642592 24.632651 
L 170.876899 25.759174 
L 171.435331 27.533359 
L 171.55639 28.977248 
L 171.583726 28.122775 
L 171.654018 23.845527 
L 171.73993 24.650638 
L 171.974238 25.764372 
L 172.532669 27.550205 
L 172.649823 28.978974 
L 172.681064 27.983043 
L 172.751356 23.844623 
L 172.833364 24.632702 
L 173.067671 25.759189 
L 173.626103 27.533406 
L 173.747161 28.977236 
L 173.774497 28.122397 
L 173.844789 23.84552 
L 173.930702 24.650688 
L 174.165009 25.764387 
L 174.723441 27.550252 
L 174.840594 28.978976 
L 174.871835 27.982634 
L 174.942127 23.844626 
L 175.024135 24.632753 
L 175.258442 25.759204 
L 175.816874 27.533453 
L 175.937932 28.977224 
L 175.965268 28.122019 
L 176.03556 23.845513 
L 176.121473 24.650738 
L 176.35578 25.764402 
L 176.914212 27.5503 
L 177.031366 28.978978 
L 177.062606 27.982225 
L 177.132899 23.844628 
L 177.214906 24.632804 
L 177.449213 25.759218 
L 178.007645 27.5335 
L 178.128704 28.977212 
L 178.15604 28.121642 
L 178.226332 23.845505 
L 178.312244 24.650789 
L 178.546551 25.764416 
L 179.104983 27.550348 
L 179.222137 28.97898 
L 179.253378 27.981816 
L 179.32367 23.84463 
L 179.405677 24.632855 
L 179.639984 25.759233 
L 180.198416 27.533547 
L 180.319475 28.977199 
L 180.346811 28.121264 
L 180.417103 23.845498 
L 180.503016 24.650839 
L 180.737323 25.764431 
L 181.295754 27.550396 
L 181.412908 28.978982 
L 181.444149 27.981406 
L 181.514441 23.844632 
L 181.596449 24.632906 
L 181.830756 25.759248 
L 182.389188 27.533594 
L 182.510246 28.977187 
L 182.537582 28.120886 
L 182.607874 23.845491 
L 182.693787 24.650889 
L 182.928094 25.764445 
L 183.482621 27.517065 
L 183.603679 28.978984 
L 183.63492 27.980997 
L 183.705212 23.844635 
L 183.78722 24.632957 
L 184.021527 25.759262 
L 184.579959 27.533641 
L 184.701017 28.977175 
L 184.728353 28.120507 
L 184.798645 23.845483 
L 184.884558 24.650939 
L 185.118865 25.76446 
L 185.673392 27.517111 
L 185.794451 28.978986 
L 185.825691 27.980587 
L 185.895984 23.844637 
L 185.977991 24.633008 
L 186.212298 25.759277 
L 186.77073 27.533688 
L 186.891789 28.977163 
L 186.919125 28.120129 
L 186.989417 23.845476 
L 187.075329 24.65099 
L 187.309636 25.764475 
L 187.864163 27.517157 
L 187.985222 28.978988 
L 188.016463 27.980178 
L 188.086755 23.844639 
L 188.168762 24.633059 
L 188.403069 25.759292 
L 188.961501 27.533735 
L 189.08256 28.97715 
L 189.109896 28.119751 
L 189.180188 23.845469 
L 189.266101 24.65104 
L 189.500408 25.764489 
L 190.054934 27.517204 
L 190.175993 28.97899 
L 190.207234 27.979768 
L 190.277526 23.844642 
L 190.359534 24.63311 
L 190.593841 25.759306 
L 191.152273 27.533782 
L 191.273331 28.977138 
L 191.300667 28.119372 
L 191.370959 23.845462 
L 191.456872 24.65109 
L 191.691179 25.764504 
L 192.245706 27.51725 
L 192.366764 28.978991 
L 192.398005 27.979358 
L 192.468297 23.844644 
L 192.550305 24.633161 
L 192.784612 25.759321 
L 193.343044 27.533829 
L 193.464102 28.977125 
L 193.491438 28.118994 
L 193.56173 23.845454 
L 193.647643 24.651141 
L 193.88195 25.764518 
L 194.436477 27.517296 
L 194.557536 28.978993 
L 194.588776 27.978948 
L 194.659069 23.844646 
L 194.741076 24.633212 
L 194.975383 25.759336 
L 195.533815 27.533876 
L 195.654874 28.977113 
L 195.68221 28.118615 
L 195.752502 23.845447 
L 195.838414 24.651191 
L 196.072721 25.764533 
L 196.627248 27.517342 
L 196.748307 28.978995 
L 196.779548 27.978539 
L 196.84984 23.844649 
L 196.931847 24.633263 
L 197.166154 25.75935 
L 197.724586 27.533924 
L 197.845645 28.9771 
L 197.872981 28.118237 
L 197.943273 23.84544 
L 198.029186 24.651241 
L 198.263493 25.764548 
L 198.818019 27.517389 
L 198.939078 28.978996 
L 198.970319 27.978128 
L 199.040611 23.844651 
L 199.122619 24.633314 
L 199.356926 25.759365 
L 199.915358 27.533971 
L 200.036416 28.977088 
L 200.063752 28.117858 
L 200.134044 23.845433 
L 200.219957 24.651291 
L 200.454264 25.764562 
L 201.008791 27.517435 
L 201.129849 28.978998 
L 201.16109 27.977718 
L 201.231382 23.844654 
L 201.31339 24.633365 
L 201.547697 25.75938 
L 202.106129 27.534018 
L 202.227188 28.977075 
L 202.254523 28.117479 
L 202.324815 23.845426 
L 202.410728 24.651342 
L 202.645035 25.764577 
L 203.199562 27.517481 
L 203.320621 28.978999 
L 203.351862 27.977308 
L 203.422154 23.844656 
L 203.504161 24.633416 
L 203.738468 25.759394 
L 204.2969 27.534065 
L 204.417959 28.977062 
L 204.445295 28.1171 
L 204.515587 23.845419 
L 204.601499 24.651392 
L 204.835806 25.764591 
L 205.390333 27.517528 
L 205.511392 28.979001 
L 205.542633 27.976898 
L 205.612925 23.844659 
L 205.694932 24.633466 
L 205.929239 25.759409 
L 206.487671 27.534112 
L 206.60873 28.97705 
L 206.636066 28.116721 
L 206.706358 23.845412 
L 206.792271 24.651442 
L 207.026578 25.764606 
L 207.581104 27.517574 
L 207.702163 28.979002 
L 207.733404 27.976487 
L 207.803696 23.844661 
L 207.885704 24.633517 
L 208.120011 25.759424 
L 208.678443 27.534159 
L 208.799501 28.977037 
L 208.826837 28.116342 
L 208.897129 23.845405 
L 208.983042 24.651492 
L 209.217349 25.764621 
L 209.771876 27.51762 
L 209.892934 28.979004 
L 209.924175 27.976077 
L 209.994467 23.844664 
L 210.076475 24.633568 
L 210.310782 25.759438 
L 210.869214 27.534206 
L 210.990273 28.977024 
L 211.017608 28.115963 
L 211.0879 23.845398 
L 211.173813 24.651543 
L 211.40812 25.764635 
L 211.962647 27.517667 
L 212.083706 28.979005 
L 212.114947 27.975666 
L 212.185239 23.844667 
L 212.267246 24.633619 
L 212.501553 25.759453 
L 213.059985 27.534253 
L 213.181044 28.977011 
L 213.20838 28.115583 
L 213.278672 23.845391 
L 213.364584 24.651593 
L 213.598891 25.76465 
L 214.153418 27.517713 
L 214.274477 28.979006 
L 214.305718 27.975256 
L 214.37601 23.844669 
L 214.458017 24.63367 
L 214.692324 25.759468 
L 215.250756 27.5343 
L 215.371815 28.976998 
L 215.399151 28.115204 
L 215.469443 23.845384 
L 215.555356 24.651643 
L 215.789663 25.764664 
L 216.344189 27.517759 
L 216.465248 28.979008 
L 216.496489 27.974845 
L 216.566781 23.844672 
L 216.648789 24.633721 
L 216.883096 25.759482 
L 217.441528 27.534347 
L 217.562586 28.976985 
L 217.589922 28.114825 
L 217.660214 23.845378 
L 217.746127 24.651693 
L 217.980434 25.764679 
L 218.534961 27.517806 
L 218.656019 28.979009 
L 218.68726 27.974434 
L 218.757552 23.844675 
L 218.83956 24.633772 
L 219.073867 25.759497 
L 219.632299 27.534394 
L 219.753358 28.976972 
L 219.780693 28.114445 
L 219.850985 23.845371 
L 219.936898 24.651744 
L 220.171205 25.764694 
L 220.725732 27.517852 
L 220.846791 28.97901 
L 220.878032 27.974023 
L 220.948324 23.844677 
L 221.030331 24.633823 
L 221.264638 25.759512 
L 221.82307 27.534441 
L 221.944129 28.976959 
L 221.971465 28.114065 
L 222.041757 23.845364 
L 222.127669 24.651794 
L 222.361976 25.764708 
L 222.916503 27.517898 
L 223.037562 28.979012 
L 223.068803 27.973612 
L 223.139095 23.84468 
L 223.221102 24.633874 
L 223.45541 25.759526 
L 224.013841 27.534489 
L 224.1349 28.976946 
L 224.162236 28.113686 
L 224.232528 23.845357 
L 224.318441 24.651844 
L 224.552748 25.764723 
L 225.107274 27.517945 
L 225.228333 28.979013 
L 225.259574 27.973201 
L 225.329866 23.844683 
L 225.411874 24.633925 
L 225.646181 25.759541 
L 226.204613 27.534536 
L 226.325671 28.976933 
L 226.353007 28.113306 
L 226.423299 23.84535 
L 226.509212 24.651894 
L 226.743519 25.764737 
L 227.298046 27.517991 
L 227.419104 28.979014 
L 227.450345 27.97279 
L 227.520637 23.844686 
L 227.602645 24.633976 
L 227.836952 25.759556 
L 228.395384 27.534583 
L 228.516443 28.97692 
L 228.543778 28.112926 
L 228.614071 23.845344 
L 228.699983 24.651945 
L 228.93429 25.764752 
L 229.488817 27.518037 
L 229.609876 28.979015 
L 229.641117 27.972379 
L 229.711409 23.844688 
L 229.793416 24.634027 
L 230.027723 25.75957 
L 230.586155 27.53463 
L 230.707214 28.976907 
L 230.73455 28.112546 
L 230.804842 23.845337 
L 230.890754 24.651995 
L 231.125061 25.764766 
L 231.679588 27.518084 
L 231.800647 28.979016 
L 231.831888 27.971967 
L 231.90218 23.844691 
L 231.984187 24.634078 
L 232.218495 25.759585 
L 232.776926 27.534677 
L 232.897985 28.976894 
L 232.925321 28.112166 
L 232.995613 23.84533 
L 233.081526 24.652045 
L 233.315833 25.764781 
L 233.870359 27.51813 
L 233.991418 28.979017 
L 234.022659 27.971556 
L 234.092951 23.844694 
L 234.174959 24.634129 
L 234.409266 25.7596 
L 234.967698 27.534724 
L 235.088756 28.976881 
L 235.116092 28.111785 
L 235.186384 23.845324 
L 235.272297 24.652095 
L 235.506604 25.764796 
L 236.061131 27.518176 
L 236.182189 28.979018 
L 236.21343 27.971145 
L 236.283722 23.844697 
L 236.36573 24.63418 
L 236.600037 25.759614 
L 237.158469 27.534771 
L 237.279528 28.976867 
L 237.306863 28.111405 
L 237.377156 23.845317 
L 237.463068 24.652145 
L 237.697375 25.76481 
L 238.251902 27.518223 
L 238.372961 28.979019 
L 238.404202 27.970733 
L 238.474494 23.8447 
L 238.556501 24.634231 
L 238.790808 25.759629 
L 239.34924 27.534818 
L 239.470299 28.976854 
L 239.497635 28.111025 
L 239.567927 23.845311 
L 239.653839 24.652196 
L 239.888146 25.764825 
L 240.442673 27.518269 
L 240.563732 28.97902 
L 240.594973 27.970321 
L 240.665265 23.844703 
L 240.747272 24.634282 
L 240.98158 25.759644 
L 241.540011 27.534865 
L 241.66107 28.97684 
L 241.688406 28.110644 
L 241.758698 23.845304 
L 241.844611 24.652246 
L 242.078918 25.764839 
L 242.633445 27.518315 
L 242.754503 28.979021 
L 242.785744 27.96991 
L 242.856036 23.844706 
L 242.938044 24.634333 
L 243.172351 25.759658 
L 243.730783 27.534913 
L 243.851841 28.976827 
L 243.879177 28.110264 
L 243.949469 23.845297 
L 244.035382 24.652296 
L 244.269689 25.764854 
L 244.824216 27.518362 
L 244.945274 28.979021 
L 244.976515 27.969498 
L 245.046807 23.844709 
L 245.128815 24.634384 
L 245.363122 25.759673 
L 245.921554 27.53496 
L 246.042613 28.976814 
L 246.069948 28.109883 
L 246.140241 23.845291 
L 246.226153 24.652346 
L 246.46046 25.764869 
L 247.014987 27.518408 
L 247.136046 28.979022 
L 247.167287 27.969086 
L 247.237579 23.844712 
L 247.319586 24.634435 
L 247.553893 25.759688 
L 248.112325 27.535007 
L 248.233384 28.9768 
L 248.26072 28.109502 
L 248.331012 23.845285 
L 248.416924 24.652397 
L 248.651232 25.764883 
L 249.205758 27.518454 
L 249.326817 28.979023 
L 249.358058 27.968674 
L 249.42835 23.844715 
L 249.510357 24.634486 
L 249.744665 25.759702 
L 250.303096 27.535054 
L 250.424155 28.976786 
L 250.451491 28.109121 
L 250.521783 23.845278 
L 250.607696 24.652447 
L 250.842003 25.764898 
L 251.39653 27.518501 
L 251.517588 28.979024 
L 251.548829 27.968262 
L 251.619121 23.844718 
L 251.701129 24.634537 
L 251.935436 25.759717 
L 252.493868 27.535101 
L 252.614926 28.976773 
L 252.642262 28.10874 
L 252.712554 23.845272 
L 252.798467 24.652497 
L 252.9 25.311202 
L 252.9 25.311202 
" clip-path="url(#pa69affbd8b)" style="fill: none; stroke: #000000; stroke-width: 1.5; stroke-linecap: square"/>
   </g>
   <g id="line2d_28">
    <path d="M 57.648 141.954638 
L 57.772964 24.238655 
L 57.851066 24.903449 
L 58.097089 25.871685 
L 58.581323 27.30871 
L 58.729718 28.978931 
L 58.760959 28.004471 
L 58.831251 23.84523 
L 58.913258 24.630196 
L 59.147565 25.758446 
L 59.709902 27.564842 
L 59.827056 28.977926 
L 59.854392 28.142172 
L 59.924684 23.846652 
L 60.010596 24.648215 
L 60.244904 25.763649 
L 60.803335 27.547805 
L 60.920489 28.978934 
L 60.95173 28.004066 
L 61.022022 23.845231 
L 61.10403 24.630247 
L 61.338337 25.758461 
L 61.900674 27.564891 
L 62.017827 28.977916 
L 62.045163 28.141799 
L 62.115455 23.846643 
L 62.201368 24.648266 
L 62.435675 25.763663 
L 62.994107 27.547853 
L 63.11126 28.978938 
L 63.142501 28.003662 
L 63.212793 23.845232 
L 63.294801 24.630298 
L 63.529108 25.758476 
L 64.091445 27.564939 
L 64.208598 28.977906 
L 64.235934 28.141426 
L 64.306226 23.846634 
L 64.392139 24.648316 
L 64.626446 25.763678 
L 65.184878 27.547901 
L 65.302031 28.978942 
L 65.333272 28.003257 
L 65.403565 23.845232 
L 65.485572 24.630349 
L 65.719879 25.758491 
L 66.282216 27.564988 
L 66.39937 28.977896 
L 66.426705 28.141053 
L 66.496998 23.846625 
L 66.58291 24.648367 
L 66.817217 25.763692 
L 67.375649 27.547948 
L 67.492803 28.978946 
L 67.524044 28.002852 
L 67.594336 23.845233 
L 67.676343 24.6304 
L 67.91065 25.758505 
L 68.472987 27.565036 
L 68.590141 28.977886 
L 68.617477 28.14068 
L 68.687769 23.846616 
L 68.773681 24.648417 
L 69.007989 25.763707 
L 69.56642 27.547996 
L 69.683574 28.97895 
L 69.714815 28.002447 
L 69.785107 23.845234 
L 69.867115 24.630451 
L 70.101422 25.75852 
L 70.663759 27.565085 
L 70.780912 28.977876 
L 70.808248 28.140306 
L 70.87854 23.846607 
L 70.964453 24.648467 
L 71.19876 25.763722 
L 71.757192 27.548044 
L 71.874345 28.978954 
L 71.905586 28.002042 
L 71.975878 23.845235 
L 72.057886 24.630503 
L 72.292193 25.758535 
L 72.85453 27.565133 
L 72.971683 28.977866 
L 72.999019 28.139933 
L 73.069311 23.846598 
L 73.155224 24.648518 
L 73.389531 25.763736 
L 73.947963 27.548091 
L 74.065117 28.978958 
L 74.096357 28.001637 
L 74.16665 23.845236 
L 74.248657 24.630554 
L 74.482964 25.758549 
L 75.045301 27.565182 
L 75.162455 28.977856 
L 75.189791 28.139559 
L 75.260083 23.84659 
L 75.345995 24.648568 
L 75.580302 25.763751 
L 76.138734 27.548139 
L 76.255888 28.978961 
L 76.287129 28.001232 
L 76.357421 23.845237 
L 76.439428 24.630605 
L 76.673735 25.758564 
L 77.236072 27.56523 
L 77.353226 28.977845 
L 77.380562 28.139186 
L 77.450854 23.846581 
L 77.536766 24.648618 
L 77.771074 25.763766 
L 78.329505 27.548187 
L 78.446659 28.978965 
L 78.4779 28.000827 
L 78.548192 23.845238 
L 78.6302 24.630656 
L 78.864507 25.758579 
L 79.426844 27.565279 
L 79.543997 28.977835 
L 79.571333 28.138812 
L 79.641625 23.846572 
L 79.727538 24.648669 
L 79.961845 25.76378 
L 80.520277 27.548235 
L 80.63743 28.978969 
L 80.668671 28.000422 
L 80.738963 23.845239 
L 80.820971 24.630707 
L 81.055278 25.758593 
L 81.617615 27.565327 
L 81.734768 28.977825 
L 81.762104 28.138438 
L 81.832396 23.846563 
L 81.918309 24.648719 
L 82.152616 25.763795 
L 82.711048 27.548282 
L 82.828202 28.978972 
L 82.859442 28.000016 
L 82.929735 23.84524 
L 83.011742 24.630758 
L 83.246049 25.758608 
L 83.808386 27.565376 
L 83.92554 28.977814 
L 83.952876 28.138064 
L 84.023168 23.846555 
L 84.10908 24.648769 
L 84.343387 25.763809 
L 84.901819 27.54833 
L 85.018973 28.978976 
L 85.050214 27.999611 
L 85.120506 23.845241 
L 85.202513 24.630809 
L 85.43682 25.758623 
L 85.999157 27.565425 
L 86.116311 28.977804 
L 86.143647 28.13769 
L 86.213939 23.846546 
L 86.299852 24.64882 
L 86.534159 25.763824 
L 87.09259 27.548378 
L 87.209744 28.978979 
L 87.240985 27.999205 
L 87.311277 23.845242 
L 87.393285 24.63086 
L 87.627592 25.758637 
L 88.186024 27.531609 
L 88.307082 28.977794 
L 88.334418 28.137316 
L 88.40471 23.846538 
L 88.490623 24.64887 
L 88.72493 25.763839 
L 89.283362 27.548426 
L 89.400515 28.978983 
L 89.431756 27.9988 
L 89.502048 23.845243 
L 89.584056 24.630911 
L 89.818363 25.758652 
L 90.376795 27.531656 
L 90.497853 28.977783 
L 90.525189 28.136942 
L 90.595481 23.846529 
L 90.681394 24.648921 
L 90.915701 25.763853 
L 91.474133 27.548473 
L 91.591287 28.978986 
L 91.622527 27.998394 
L 91.69282 23.845244 
L 91.774827 24.630962 
L 92.009134 25.758667 
L 92.567566 27.531703 
L 92.688625 28.977773 
L 92.715961 28.136567 
L 92.786253 23.84652 
L 92.872165 24.648971 
L 93.106472 25.763868 
L 93.664904 27.548521 
L 93.782058 28.97899 
L 93.813299 27.997988 
L 93.883591 23.845246 
L 93.965598 24.631013 
L 94.199905 25.758681 
L 94.758337 27.53175 
L 94.879396 28.977762 
L 94.906732 28.136193 
L 94.977024 23.846512 
L 95.062937 24.649021 
L 95.297244 25.763882 
L 95.855676 27.548569 
L 95.972829 28.978993 
L 96.00407 27.997582 
L 96.074362 23.845247 
L 96.15637 24.631064 
L 96.390677 25.758696 
L 96.949109 27.531797 
L 97.070167 28.977751 
L 97.097503 28.135818 
L 97.167795 23.846503 
L 97.253708 24.649072 
L 97.488015 25.763897 
L 98.046447 27.548617 
L 98.1636 28.978997 
L 98.194841 27.997176 
L 98.265133 23.845248 
L 98.347141 24.631115 
L 98.581448 25.758711 
L 99.13988 27.531844 
L 99.260938 28.977741 
L 99.288274 28.135444 
L 99.358566 23.846495 
L 99.444479 24.649122 
L 99.678786 25.763912 
L 100.237218 27.548664 
L 100.354372 28.979 
L 100.385613 27.99677 
L 100.455905 23.845249 
L 100.537912 24.631167 
L 100.772219 25.758725 
L 101.330651 27.531891 
L 101.45171 28.97773 
L 101.479046 28.135069 
L 101.549338 23.846486 
L 101.63525 24.649172 
L 101.869557 25.763926 
L 102.427989 27.548712 
L 102.545143 28.979003 
L 102.576384 27.996364 
L 102.646676 23.84525 
L 102.728683 24.631218 
L 102.96299 25.75874 
L 103.521422 27.531938 
L 103.642481 28.977719 
L 103.669817 28.134694 
L 103.740109 23.846478 
L 103.826022 24.649223 
L 104.060329 25.763941 
L 104.618761 27.54876 
L 104.735914 28.979006 
L 104.767155 27.995958 
L 104.837447 23.845252 
L 104.919455 24.631269 
L 105.153762 25.758755 
L 105.712194 27.531985 
L 105.833252 28.977709 
L 105.860588 28.13432 
L 105.93088 23.84647 
L 106.016793 24.649273 
L 106.2511 25.763955 
L 106.809532 27.548808 
L 106.926685 28.97901 
L 106.957926 27.995551 
L 107.028218 23.845253 
L 107.110226 24.63132 
L 107.344533 25.75877 
L 107.902965 27.532032 
L 108.024024 28.977698 
L 108.051359 28.133945 
L 108.121651 23.846461 
L 108.207564 24.649323 
L 108.441871 25.76397 
L 109.000303 27.548855 
L 109.117457 28.979013 
L 109.148698 27.995145 
L 109.21899 23.845254 
L 109.300997 24.631371 
L 109.535304 25.758784 
L 110.093736 27.532079 
L 110.214795 28.977687 
L 110.242131 28.13357 
L 110.312423 23.846453 
L 110.398335 24.649374 
L 110.632642 25.763985 
L 111.191074 27.548903 
L 111.308228 28.979016 
L 111.339469 27.994738 
L 111.409761 23.845256 
L 111.491768 24.631422 
L 111.726075 25.758799 
L 112.284507 27.532126 
L 112.405566 28.977676 
L 112.432902 28.133195 
L 112.503194 23.846445 
L 112.589107 24.649424 
L 112.823414 25.763999 
L 113.381846 27.548951 
L 113.498999 28.979019 
L 113.53024 27.994332 
L 113.600532 23.845257 
L 113.68254 24.631473 
L 113.916847 25.758814 
L 114.475279 27.532173 
L 114.596337 28.977665 
L 114.623673 28.132819 
L 114.693965 23.846436 
L 114.779878 24.649474 
L 115.014185 25.764014 
L 115.572617 27.548999 
L 115.68977 28.979022 
L 115.721011 27.993925 
L 115.791303 23.845259 
L 115.873311 24.631524 
L 116.107618 25.758828 
L 116.66605 27.53222 
L 116.787109 28.977654 
L 116.814444 28.132444 
L 116.884736 23.846428 
L 116.970649 24.649525 
L 117.204956 25.764028 
L 117.763388 27.549046 
L 117.880542 28.979025 
L 117.911783 27.993518 
L 117.982075 23.84526 
L 118.064082 24.631575 
L 118.298389 25.758843 
L 118.856821 27.532267 
L 118.97788 28.977643 
L 119.005216 28.132069 
L 119.075508 23.84642 
L 119.16142 24.649575 
L 119.395727 25.764043 
L 119.954159 27.549094 
L 120.071313 28.979028 
L 120.102554 27.993111 
L 120.172846 23.845262 
L 120.254853 24.631626 
L 120.489161 25.758858 
L 121.047592 27.532314 
L 121.168651 28.977632 
L 121.195987 28.131693 
L 121.266279 23.846412 
L 121.352192 24.649625 
L 121.586499 25.764058 
L 122.144931 27.549142 
L 122.262084 28.979031 
L 122.293325 27.992704 
L 122.363617 23.845263 
L 122.445625 24.631677 
L 122.679932 25.758872 
L 123.238364 27.532361 
L 123.359422 28.977621 
L 123.386758 28.131318 
L 123.45705 23.846404 
L 123.542963 24.649676 
L 123.77727 25.764072 
L 124.335702 27.54919 
L 124.452855 28.979034 
L 124.484096 27.992297 
L 124.554388 23.845265 
L 124.636396 24.631728 
L 124.870703 25.758887 
L 125.429135 27.532408 
L 125.550194 28.97761 
L 125.577529 28.130942 
L 125.647822 23.846396 
L 125.733734 24.649726 
L 125.968041 25.764087 
L 126.526473 27.549238 
L 126.643627 28.979037 
L 126.674868 27.99189 
L 126.74516 23.845266 
L 126.827167 24.631779 
L 127.061474 25.758902 
L 127.619906 27.532455 
L 127.740965 28.977599 
L 127.768301 28.130566 
L 127.838593 23.846387 
L 127.924505 24.649776 
L 128.158812 25.764101 
L 128.717244 27.549285 
L 128.834398 28.97904 
L 128.865639 27.991483 
L 128.935931 23.845268 
L 129.017938 24.63183 
L 129.252246 25.758916 
L 129.810677 27.532502 
L 129.931736 28.977587 
L 129.959072 28.13019 
L 130.029364 23.846379 
L 130.115277 24.649827 
L 130.349584 25.764116 
L 130.908016 27.549333 
L 131.025169 28.979042 
L 131.05641 27.991076 
L 131.126702 23.845269 
L 131.20871 24.631881 
L 131.443017 25.758931 
L 132.001449 27.532549 
L 132.122507 28.977576 
L 132.149843 28.129814 
L 132.220135 23.846371 
L 132.306048 24.649877 
L 132.540355 25.764131 
L 133.098787 27.549381 
L 133.21594 28.979045 
L 133.247181 27.990668 
L 133.317473 23.845271 
L 133.399481 24.631932 
L 133.633788 25.758946 
L 134.19222 27.532596 
L 134.313279 28.977565 
L 134.340614 28.129438 
L 134.410907 23.846363 
L 134.496819 24.649927 
L 134.731126 25.764145 
L 135.289558 27.549429 
L 135.406712 28.979048 
L 135.437953 27.990261 
L 135.508245 23.845273 
L 135.590252 24.631983 
L 135.824559 25.75896 
L 136.382991 27.532643 
L 136.50405 28.977553 
L 136.531386 28.129062 
L 136.601678 23.846355 
L 136.68759 24.649977 
L 136.921897 25.76416 
L 137.480329 27.549476 
L 137.597483 28.97905 
L 137.628724 27.989853 
L 137.699016 23.845274 
L 137.781023 24.632034 
L 138.015331 25.758975 
L 138.573762 27.53269 
L 138.694821 28.977542 
L 138.722157 28.128686 
L 138.792449 23.846347 
L 138.878362 24.650028 
L 139.112669 25.764174 
L 139.671101 27.549524 
L 139.788254 28.979053 
L 139.819495 27.989446 
L 139.889787 23.845276 
L 139.971795 24.632085 
L 140.206102 25.75899 
L 140.764534 27.532737 
L 140.885592 28.977531 
L 140.912928 28.12831 
L 140.98322 23.84634 
L 141.069133 24.650078 
L 141.30344 25.764189 
L 141.861872 27.549572 
L 141.979025 28.979056 
L 142.010266 27.989038 
L 142.080558 23.845278 
L 142.162566 24.632136 
L 142.396873 25.759004 
L 142.955305 27.532784 
L 143.076364 28.977519 
L 143.103699 28.127933 
L 143.173992 23.846332 
L 143.259904 24.650128 
L 143.494211 25.764204 
L 144.052643 27.54962 
L 144.169797 28.979058 
L 144.201038 27.98863 
L 144.27133 23.845279 
L 144.353337 24.632187 
L 144.587644 25.759019 
L 145.146076 27.532831 
L 145.267135 28.977508 
L 145.294471 28.127557 
L 145.364763 23.846324 
L 145.450675 24.650179 
L 145.684982 25.764218 
L 146.243414 27.549668 
L 146.360568 28.979061 
L 146.391809 27.988222 
L 146.462101 23.845281 
L 146.544108 24.632238 
L 146.778416 25.759034 
L 147.336847 27.532878 
L 147.457906 28.977496 
L 147.485242 28.12718 
L 147.555534 23.846316 
L 147.641447 24.650229 
L 147.875754 25.764233 
L 148.434186 27.549715 
L 148.551339 28.979063 
L 148.58258 27.987814 
L 148.652872 23.845283 
L 148.73488 24.632289 
L 148.969187 25.759048 
L 149.527619 27.532925 
L 149.648677 28.977484 
L 149.676013 28.126804 
L 149.746305 23.846308 
L 149.832218 24.650279 
L 150.066525 25.764247 
L 150.624957 27.549763 
L 150.74211 28.979066 
L 150.773351 27.987406 
L 150.843644 23.845285 
L 150.925651 24.63234 
L 151.159958 25.759063 
L 151.71839 27.532972 
L 151.839449 28.977473 
L 151.866784 28.126427 
L 151.937077 23.8463 
L 152.022989 24.65033 
L 152.257296 25.764262 
L 152.815728 27.549811 
L 152.932882 28.979068 
L 152.964123 27.986998 
L 153.034415 23.845287 
L 153.116422 24.632391 
L 153.350729 25.759078 
L 153.909161 27.533019 
L 154.03022 28.977461 
L 154.057556 28.12605 
L 154.127848 23.846293 
L 154.21376 24.65038 
L 154.448068 25.764277 
L 155.006499 27.549859 
L 155.123653 28.979071 
L 155.154894 27.98659 
L 155.225186 23.845289 
L 155.307194 24.632442 
L 155.541501 25.759093 
L 156.099932 27.533066 
L 156.220991 28.977449 
L 156.248327 28.125673 
L 156.318619 23.846285 
L 156.404532 24.65043 
L 156.638839 25.764291 
L 157.197271 27.549907 
L 157.314424 28.979073 
L 157.345665 27.986181 
L 157.415957 23.845291 
L 157.497965 24.632493 
L 157.732272 25.759107 
L 158.290704 27.533113 
L 158.411762 28.977438 
L 158.439098 28.125296 
L 158.50939 23.846277 
L 158.595303 24.65048 
L 158.82961 25.764306 
L 159.388042 27.549954 
L 159.505195 28.979075 
L 159.536436 27.985773 
L 159.606729 23.845292 
L 159.688736 24.632544 
L 159.923043 25.759122 
L 160.481475 27.53316 
L 160.602534 28.977426 
L 160.629869 28.124919 
L 160.700162 23.84627 
L 160.786074 24.650531 
L 161.020381 25.76432 
L 161.578813 27.550002 
L 161.695967 28.979077 
L 161.727208 27.985364 
L 161.7975 23.845294 
L 161.879507 24.632595 
L 162.113814 25.759137 
L 162.672246 27.533207 
L 162.793305 28.977414 
L 162.820641 28.124542 
L 162.890933 23.846262 
L 162.976845 24.650581 
L 163.211153 25.764335 
L 163.769584 27.55005 
L 163.886738 28.97908 
L 163.917979 27.984956 
L 163.988271 23.845296 
L 164.070279 24.632646 
L 164.304586 25.759151 
L 164.863018 27.533254 
L 164.984076 28.977402 
L 165.011412 28.124165 
L 165.081704 23.846254 
L 165.167617 24.650631 
L 165.401924 25.76435 
L 165.960356 27.550098 
L 166.077509 28.979082 
L 166.10875 27.984547 
L 166.179042 23.845298 
L 166.26105 24.632697 
L 166.495357 25.759166 
L 167.053789 27.533301 
L 167.174847 28.97739 
L 167.202183 28.123787 
L 167.272475 23.846247 
L 167.358388 24.650682 
L 167.592695 25.764364 
L 168.151127 27.550146 
L 168.26828 28.979084 
L 168.299521 27.984138 
L 168.369814 23.8453 
L 168.451821 24.632748 
L 168.686128 25.759181 
L 169.24456 27.533348 
L 169.365619 28.977378 
L 169.392954 28.12341 
L 169.463247 23.846239 
L 169.549159 24.650732 
L 169.783466 25.764379 
L 170.341898 27.550194 
L 170.459052 28.979086 
L 170.490293 27.98373 
L 170.560585 23.845303 
L 170.642592 24.632799 
L 170.876899 25.759195 
L 171.435331 27.533395 
L 171.55639 28.977366 
L 171.583726 28.123032 
L 171.654018 23.846232 
L 171.73993 24.650782 
L 171.974238 25.764393 
L 172.532669 27.550241 
L 172.649823 28.979088 
L 172.681064 27.983321 
L 172.751356 23.845305 
L 172.833364 24.63285 
L 173.067671 25.75921 
L 173.626103 27.533442 
L 173.747161 28.977354 
L 173.774497 28.122655 
L 173.844789 23.846224 
L 173.930702 24.650832 
L 174.165009 25.764408 
L 174.723441 27.550289 
L 174.840594 28.97909 
L 174.871835 27.982912 
L 174.942127 23.845307 
L 175.024135 24.632901 
L 175.258442 25.759225 
L 175.816874 27.533489 
L 175.937932 28.977342 
L 175.965268 28.122277 
L 176.03556 23.846217 
L 176.121473 24.650883 
L 176.35578 25.764423 
L 176.914212 27.550337 
L 177.031366 28.979092 
L 177.062606 27.982502 
L 177.132899 23.845309 
L 177.214906 24.632952 
L 177.449213 25.759239 
L 178.007645 27.533536 
L 178.128704 28.97733 
L 178.15604 28.121899 
L 178.226332 23.846209 
L 178.312244 24.650933 
L 178.546551 25.764437 
L 179.104983 27.550385 
L 179.222137 28.979094 
L 179.253378 27.982093 
L 179.32367 23.845311 
L 179.405677 24.633003 
L 179.639984 25.759254 
L 180.198416 27.533583 
L 180.319475 28.977318 
L 180.346811 28.121521 
L 180.417103 23.846202 
L 180.503016 24.650983 
L 180.737323 25.764452 
L 181.291849 27.517054 
L 181.412908 28.979096 
L 181.444149 27.981684 
L 181.514441 23.845313 
L 181.596449 24.633054 
L 181.830756 25.759269 
L 182.389188 27.53363 
L 182.510246 28.977305 
L 182.537582 28.121143 
L 182.607874 23.846195 
L 182.693787 24.651033 
L 182.928094 25.764466 
L 183.482621 27.517101 
L 183.603679 28.979098 
L 183.63492 27.981275 
L 183.705212 23.845315 
L 183.78722 24.633105 
L 184.021527 25.759283 
L 184.579959 27.533678 
L 184.701017 28.977293 
L 184.728353 28.120765 
L 184.798645 23.846187 
L 184.884558 24.651084 
L 185.118865 25.764481 
L 185.673392 27.517147 
L 185.794451 28.9791 
L 185.825691 27.980865 
L 185.895984 23.845318 
L 185.977991 24.633156 
L 186.212298 25.759298 
L 186.77073 27.533725 
L 186.891789 28.977281 
L 186.919125 28.120387 
L 186.989417 23.84618 
L 187.075329 24.651134 
L 187.309636 25.764496 
L 187.864163 27.517193 
L 187.985222 28.979102 
L 188.016463 27.980456 
L 188.086755 23.84532 
L 188.168762 24.633207 
L 188.403069 25.759313 
L 188.961501 27.533772 
L 189.08256 28.977268 
L 189.109896 28.120009 
L 189.180188 23.846173 
L 189.266101 24.651184 
L 189.500408 25.76451 
L 190.054934 27.517239 
L 190.175993 28.979104 
L 190.207234 27.980046 
L 190.277526 23.845322 
L 190.359534 24.633258 
L 190.593841 25.759327 
L 191.152273 27.533819 
L 191.273331 28.977256 
L 191.300667 28.11963 
L 191.370959 23.846165 
L 191.456872 24.651235 
L 191.691179 25.764525 
L 192.245706 27.517286 
L 192.366764 28.979105 
L 192.398005 27.979636 
L 192.468297 23.845325 
L 192.550305 24.633309 
L 192.784612 25.759342 
L 193.343044 27.533866 
L 193.464102 28.977244 
L 193.491438 28.119252 
L 193.56173 23.846158 
L 193.647643 24.651285 
L 193.88195 25.764539 
L 194.436477 27.517332 
L 194.557536 28.979107 
L 194.588776 27.979226 
L 194.659069 23.845327 
L 194.741076 24.63336 
L 194.975383 25.759357 
L 195.533815 27.533913 
L 195.654874 28.977231 
L 195.68221 28.118873 
L 195.752502 23.846151 
L 195.838414 24.651335 
L 196.072721 25.764554 
L 196.627248 27.517378 
L 196.748307 28.979109 
L 196.779548 27.978817 
L 196.84984 23.845329 
L 196.931847 24.633411 
L 197.166154 25.759371 
L 197.724586 27.53396 
L 197.845645 28.977219 
L 197.872981 28.118495 
L 197.943273 23.846144 
L 198.029186 24.651385 
L 198.263493 25.764569 
L 198.818019 27.517425 
L 198.939078 28.97911 
L 198.970319 27.978407 
L 199.040611 23.845332 
L 199.122619 24.633462 
L 199.356926 25.759386 
L 199.915358 27.534007 
L 200.036416 28.977206 
L 200.063752 28.118116 
L 200.134044 23.846137 
L 200.219957 24.651436 
L 200.454264 25.764583 
L 201.008791 27.517471 
L 201.129849 28.979112 
L 201.16109 27.977996 
L 201.231382 23.845334 
L 201.31339 24.633513 
L 201.547697 25.759401 
L 202.106129 27.534054 
L 202.227188 28.977193 
L 202.254523 28.117737 
L 202.324815 23.846129 
L 202.410728 24.651486 
L 202.645035 25.764598 
L 203.199562 27.517517 
L 203.320621 28.979113 
L 203.351862 27.977586 
L 203.422154 23.845337 
L 203.504161 24.633564 
L 203.738468 25.759415 
L 204.2969 27.534101 
L 204.417959 28.977181 
L 204.445295 28.117358 
L 204.515587 23.846122 
L 204.601499 24.651536 
L 204.835806 25.764612 
L 205.390333 27.517564 
L 205.511392 28.979115 
L 205.542633 27.977176 
L 205.612925 23.845339 
L 205.694932 24.633615 
L 205.929239 25.75943 
L 206.487671 27.534148 
L 206.60873 28.977168 
L 206.636066 28.116979 
L 206.706358 23.846115 
L 206.792271 24.651586 
L 207.026578 25.764627 
L 207.581104 27.51761 
L 207.702163 28.979116 
L 207.733404 27.976766 
L 207.803696 23.845342 
L 207.885704 24.633666 
L 208.120011 25.759445 
L 208.678443 27.534195 
L 208.799501 28.977155 
L 208.826837 28.1166 
L 208.897129 23.846108 
L 208.983042 24.651637 
L 209.217349 25.764641 
L 209.771876 27.517656 
L 209.892934 28.979118 
L 209.924175 27.976355 
L 209.994467 23.845344 
L 210.076475 24.633717 
L 210.310782 25.759459 
L 210.869214 27.534242 
L 210.990273 28.977142 
L 211.017608 28.116221 
L 211.0879 23.846101 
L 211.173813 24.651687 
L 211.40812 25.764656 
L 211.962647 27.517703 
L 212.083706 28.979119 
L 212.114947 27.975945 
L 212.185239 23.845347 
L 212.267246 24.633768 
L 212.501553 25.759474 
L 213.059985 27.534289 
L 213.181044 28.97713 
L 213.20838 28.115842 
L 213.278672 23.846094 
L 213.364584 24.651737 
L 213.598891 25.764671 
L 214.153418 27.517749 
L 214.274477 28.979121 
L 214.305718 27.975534 
L 214.37601 23.845349 
L 214.458017 24.633819 
L 214.692324 25.759489 
L 215.250756 27.534337 
L 215.371815 28.977117 
L 215.399151 28.115463 
L 215.469443 23.846087 
L 215.555356 24.651787 
L 215.789663 25.764685 
L 216.344189 27.517795 
L 216.465248 28.979122 
L 216.496489 27.975124 
L 216.566781 23.845352 
L 216.648789 24.63387 
L 216.883096 25.759503 
L 217.441528 27.534384 
L 217.562586 28.977104 
L 217.589922 28.115083 
L 217.660214 23.84608 
L 217.746127 24.651837 
L 217.980434 25.7647 
L 218.534961 27.517842 
L 218.656019 28.979123 
L 218.68726 27.974713 
L 218.757552 23.845354 
L 218.83956 24.633921 
L 219.073867 25.759518 
L 219.632299 27.534431 
L 219.753358 28.977091 
L 219.780693 28.114704 
L 219.850985 23.846074 
L 219.936898 24.651888 
L 220.171205 25.764714 
L 220.725732 27.517888 
L 220.846791 28.979124 
L 220.878032 27.974302 
L 220.948324 23.845357 
L 221.030331 24.633972 
L 221.264638 25.759533 
L 221.82307 27.534478 
L 221.944129 28.977078 
L 221.971465 28.114324 
L 222.041757 23.846067 
L 222.127669 24.651938 
L 222.361976 25.764729 
L 222.916503 27.517934 
L 223.037562 28.979126 
L 223.068803 27.973891 
L 223.139095 23.84536 
L 223.221102 24.634023 
L 223.45541 25.759547 
L 224.013841 27.534525 
L 224.1349 28.977065 
L 224.162236 28.113944 
L 224.232528 23.84606 
L 224.318441 24.651988 
L 224.552748 25.764744 
L 225.107274 27.517981 
L 225.228333 28.979127 
L 225.259574 27.97348 
L 225.329866 23.845362 
L 225.411874 24.634074 
L 225.646181 25.759562 
L 226.204613 27.534572 
L 226.325671 28.977052 
L 226.353007 28.113564 
L 226.423299 23.846053 
L 226.509212 24.652038 
L 226.743519 25.764758 
L 227.298046 27.518027 
L 227.419104 28.979128 
L 227.450345 27.973069 
L 227.520637 23.845365 
L 227.602645 24.634125 
L 227.836952 25.759577 
L 228.395384 27.534619 
L 228.516443 28.977039 
L 228.543778 28.113185 
L 228.614071 23.846046 
L 228.699983 24.652089 
L 228.93429 25.764773 
L 229.488817 27.518073 
L 229.609876 28.979129 
L 229.641117 27.972658 
L 229.711409 23.845368 
L 229.793416 24.634175 
L 230.027723 25.759591 
L 230.586155 27.534666 
L 230.707214 28.977025 
L 230.73455 28.112805 
L 230.804842 23.846039 
L 230.890754 24.652139 
L 231.125061 25.764787 
L 231.679588 27.51812 
L 231.800647 28.97913 
L 231.831888 27.972246 
L 231.90218 23.845371 
L 231.984187 24.634226 
L 232.218495 25.759606 
L 232.776926 27.534713 
L 232.897985 28.977012 
L 232.925321 28.112425 
L 232.995613 23.846033 
L 233.081526 24.652189 
L 233.315833 25.764802 
L 233.870359 27.518166 
L 233.991418 28.979131 
L 234.022659 27.971835 
L 234.092951 23.845373 
L 234.174959 24.634277 
L 234.409266 25.759621 
L 234.967698 27.53476 
L 235.088756 28.976999 
L 235.116092 28.112044 
L 235.186384 23.846026 
L 235.272297 24.652239 
L 235.506604 25.764817 
L 236.061131 27.518212 
L 236.182189 28.979132 
L 236.21343 27.971424 
L 236.283722 23.845376 
L 236.36573 24.634328 
L 236.600037 25.759635 
L 237.158469 27.534808 
L 237.279528 28.976986 
L 237.306863 28.111664 
L 237.377156 23.846019 
L 237.463068 24.652289 
L 237.697375 25.764831 
L 238.251902 27.518259 
L 238.372961 28.979133 
L 238.404202 27.971012 
L 238.474494 23.845379 
L 238.556501 24.634379 
L 238.790808 25.75965 
L 239.34924 27.534855 
L 239.470299 28.976972 
L 239.497635 28.111284 
L 239.567927 23.846013 
L 239.653839 24.65234 
L 239.888146 25.764846 
L 240.442673 27.518305 
L 240.563732 28.979134 
L 240.594973 27.9706 
L 240.665265 23.845382 
L 240.747272 24.63443 
L 240.98158 25.759665 
L 241.540011 27.534902 
L 241.66107 28.976959 
L 241.688406 28.110903 
L 241.758698 23.846006 
L 241.844611 24.65239 
L 242.078918 25.76486 
L 242.633445 27.518351 
L 242.754503 28.979135 
L 242.785744 27.970189 
L 242.856036 23.845385 
L 242.938044 24.634481 
L 243.172351 25.759679 
L 243.730783 27.534949 
L 243.851841 28.976946 
L 243.879177 28.110523 
L 243.949469 23.846 
L 244.035382 24.65244 
L 244.269689 25.764875 
L 244.824216 27.518398 
L 244.945274 28.979136 
L 244.976515 27.969777 
L 245.046807 23.845388 
L 245.128815 24.634532 
L 245.363122 25.759694 
L 245.921554 27.534996 
L 246.042613 28.976932 
L 246.069948 28.110142 
L 246.140241 23.845993 
L 246.226153 24.65249 
L 246.46046 25.76489 
L 247.014987 27.518444 
L 247.136046 28.979136 
L 247.167287 27.969365 
L 247.237579 23.845391 
L 247.319586 24.634583 
L 247.553893 25.759709 
L 248.112325 27.535043 
L 248.233384 28.976919 
L 248.26072 28.109762 
L 248.331012 23.845987 
L 248.416924 24.652541 
L 248.651232 25.764904 
L 249.205758 27.51849 
L 249.326817 28.979137 
L 249.358058 27.968953 
L 249.42835 23.845394 
L 249.510357 24.634634 
L 249.744665 25.759723 
L 250.303096 27.53509 
L 250.424155 28.976905 
L 250.451491 28.109381 
L 250.521783 23.84598 
L 250.607696 24.652591 
L 250.842003 25.764919 
L 251.39653 27.518537 
L 251.517588 28.979138 
L 251.548829 27.968541 
L 251.619121 23.845397 
L 251.701129 24.634685 
L 251.935436 25.759738 
L 252.493868 27.535137 
L 252.614926 28.976891 
L 252.642262 28.109 
L 252.712554 23.845974 
L 252.798467 24.652641 
L 252.9 25.311248 
L 252.9 25.311248 
" clip-path="url(#pa69affbd8b)" style="fill: none; stroke: #808080; stroke-width: 1.5; stroke-linecap: square"/>
   </g>
   <g id="patch_3">
    <path d="M 57.648 161.7 
L 57.648 17.28 
" style="fill: none; stroke: #000000; stroke-width: 0.8; stroke-linejoin: miter; stroke-linecap: square"/>
   </g>
   <g id="patch_4">
    <path d="M 252.9 161.7 
L 252.9 17.28 
" style="fill: none; stroke: #000000; stroke-width: 0.8; stroke-linejoin: miter; stroke-linecap: square"/>
   </g>
   <g id="patch_5">
    <path d="M 57.648 161.7 
L 252.9 161.7 
" style="fill: none; stroke: #000000; stroke-width: 0.8; stroke-linejoin: miter; stroke-linecap: square"/>
   </g>
   <g id="patch_6">
    <path d="M 57.648 17.28 
L 252.9 17.28 
" style="fill: none; stroke: #000000; stroke-width: 0.8; stroke-linejoin: miter; stroke-linecap: square"/>
   </g>
  </g>
 </g>
 <defs>
  <clipPath id="pa69affbd8b">
   <rect x="57.648" y="17.28" width="195.252" height="144.42"/>
  </clipPath>
 </defs>
</svg>
