<?xml version="1.0" encoding="utf-8" standalone="no"?>
<!DOCTYPE svg PUBLIC "-//W3C//DTD SVG 1.1//EN"
  "http://www.w3.org/Graphics/SVG/1.1/DTD/svg11.dtd">
<svg xmlns:xlink="http://www.w3.org/1999/xlink" width="288pt" height="216pt" viewBox="0 0 288 216" xmlns="http://www.w3.org/2000/svg" version="1.1">
 <metadata>
  <rdf:RDF xmlns:dc="http://purl.org/dc/elements/1.1/" xmlns:cc="http://creativecommons.org/ns#" xmlns:rdf="http://www.w3.org/1999/02/22-rdf-syntax-ns#">
   <cc:Work>
    <dc:type rdf:resource="http://purl.org/dc/dcmitype/StillImage"/>
    <dc:date>2024-02-29T16:13:04.380824</dc:date>
    <dc:format>image/svg+xml</dc:format>
    <dc:creator>
     <cc:Agent>
      <dc:title>Matplotlib v3.7.2, https://matplotlib.org/</dc:title>
     </cc:Agent>
    </dc:creator>
   </cc:Work>
  </rdf:RDF>
 </metadata>
 <defs>
  <style type="text/css">*{stroke-linejoin: round; stroke-linecap: butt}</style>
 </defs>
 <g id="figure_1">
  <g id="patch_1">
   <path d="M 0 216 
L 288 216 
L 288 0 
L 0 0 
L 0 216 
z
" style="fill: none"/>
  </g>
  <g id="axes_1">
   <g id="patch_2">
    <path d="M 71.418 161.7 
L 270.72 161.7 
L 270.72 17.28 
L 71.418 17.28 
L 71.418 161.7 
z
" style="fill: none"/>
   </g>
   <g id="matplotlib.axis_1">
    <g id="xtick_1">
     <g id="line2d_1">
      <defs>
       <path id="me67c66fe3e" d="M 0 0 
L 0 -3.5 
" style="stroke: #000000; stroke-width: 0.8"/>
      </defs>
      <g>
       <use xlink:href="#me67c66fe3e" x="71.418" y="161.7" style="stroke: #000000; stroke-width: 0.8"/>
      </g>
     </g>
     <g id="text_1">
      <!-- 0 -->
      <g transform="translate(66.96925 176.6525) scale(0.16 -0.16)">
       <defs>
        <path id="ArialMT-30" d="M 266 2259 
Q 266 3072 433 3567 
Q 600 4063 929 4331 
Q 1259 4600 1759 4600 
Q 2128 4600 2406 4451 
Q 2684 4303 2865 4023 
Q 3047 3744 3150 3342 
Q 3253 2941 3253 2259 
Q 3253 1453 3087 958 
Q 2922 463 2592 192 
Q 2263 -78 1759 -78 
Q 1097 -78 719 397 
Q 266 969 266 2259 
z
M 844 2259 
Q 844 1131 1108 757 
Q 1372 384 1759 384 
Q 2147 384 2411 759 
Q 2675 1134 2675 2259 
Q 2675 3391 2411 3762 
Q 2147 4134 1753 4134 
Q 1366 4134 1134 3806 
Q 844 3388 844 2259 
z
" transform="scale(0.015625)"/>
       </defs>
       <use xlink:href="#ArialMT-30"/>
      </g>
     </g>
    </g>
    <g id="xtick_2">
     <g id="line2d_2">
      <g>
       <use xlink:href="#me67c66fe3e" x="151.1388" y="161.7" style="stroke: #000000; stroke-width: 0.8"/>
      </g>
     </g>
     <g id="text_2">
      <!-- 20 -->
      <g transform="translate(142.2413 176.6525) scale(0.16 -0.16)">
       <defs>
        <path id="ArialMT-32" d="M 3222 541 
L 3222 0 
L 194 0 
Q 188 203 259 391 
Q 375 700 629 1000 
Q 884 1300 1366 1694 
Q 2113 2306 2375 2664 
Q 2638 3022 2638 3341 
Q 2638 3675 2398 3904 
Q 2159 4134 1775 4134 
Q 1369 4134 1125 3890 
Q 881 3647 878 3216 
L 300 3275 
Q 359 3922 746 4261 
Q 1134 4600 1788 4600 
Q 2447 4600 2831 4234 
Q 3216 3869 3216 3328 
Q 3216 3053 3103 2787 
Q 2991 2522 2730 2228 
Q 2469 1934 1863 1422 
Q 1356 997 1212 845 
Q 1069 694 975 541 
L 3222 541 
z
" transform="scale(0.015625)"/>
       </defs>
       <use xlink:href="#ArialMT-32"/>
       <use xlink:href="#ArialMT-30" x="55.615234"/>
      </g>
     </g>
    </g>
    <g id="xtick_3">
     <g id="line2d_3">
      <g>
       <use xlink:href="#me67c66fe3e" x="230.8596" y="161.7" style="stroke: #000000; stroke-width: 0.8"/>
      </g>
     </g>
     <g id="text_3">
      <!-- 40 -->
      <g transform="translate(221.9621 176.6525) scale(0.16 -0.16)">
       <defs>
        <path id="ArialMT-34" d="M 2069 0 
L 2069 1097 
L 81 1097 
L 81 1613 
L 2172 4581 
L 2631 4581 
L 2631 1613 
L 3250 1613 
L 3250 1097 
L 2631 1097 
L 2631 0 
L 2069 0 
z
M 2069 1613 
L 2069 3678 
L 634 1613 
L 2069 1613 
z
" transform="scale(0.015625)"/>
       </defs>
       <use xlink:href="#ArialMT-34"/>
       <use xlink:href="#ArialMT-30" x="55.615234"/>
      </g>
     </g>
    </g>
    <g id="text_4">
     <!-- $t$ -->
     <g transform="translate(167.869 195.285) scale(0.16 -0.16)">
      <defs>
       <path id="DejaVuSans-Oblique-74" d="M 2706 3500 
L 2619 3053 
L 1472 3053 
L 1100 1153 
Q 1081 1047 1072 975 
Q 1063 903 1063 863 
Q 1063 663 1183 572 
Q 1303 481 1569 481 
L 2150 481 
L 2053 0 
L 1503 0 
Q 991 0 739 200 
Q 488 400 488 806 
Q 488 878 497 964 
Q 506 1050 525 1153 
L 897 3053 
L 409 3053 
L 500 3500 
L 978 3500 
L 1172 4494 
L 1747 4494 
L 1556 3500 
L 2706 3500 
z
" transform="scale(0.015625)"/>
      </defs>
      <use xlink:href="#DejaVuSans-Oblique-74" transform="translate(0 0.78125)"/>
     </g>
    </g>
   </g>
   <g id="matplotlib.axis_2">
    <g id="ytick_1">
     <g id="line2d_4">
      <defs>
       <path id="mf515727ab8" d="M 0 0 
L 3.5 0 
" style="stroke: #000000; stroke-width: 0.8"/>
      </defs>
      <g>
       <use xlink:href="#mf515727ab8" x="71.418" y="146.23641" style="stroke: #000000; stroke-width: 0.8"/>
      </g>
     </g>
     <g id="text_5">
      <!-- −0.5 -->
      <g transform="translate(36.333 151.96266) scale(0.16 -0.16)">
       <defs>
        <path id="ArialMT-2212" d="M 3381 1997 
L 356 1997 
L 356 2522 
L 3381 2522 
L 3381 1997 
z
" transform="scale(0.015625)"/>
        <path id="ArialMT-2e" d="M 581 0 
L 581 641 
L 1222 641 
L 1222 0 
L 581 0 
z
" transform="scale(0.015625)"/>
        <path id="ArialMT-35" d="M 266 1200 
L 856 1250 
Q 922 819 1161 601 
Q 1400 384 1738 384 
Q 2144 384 2425 690 
Q 2706 997 2706 1503 
Q 2706 1984 2436 2262 
Q 2166 2541 1728 2541 
Q 1456 2541 1237 2417 
Q 1019 2294 894 2097 
L 366 2166 
L 809 4519 
L 3088 4519 
L 3088 3981 
L 1259 3981 
L 1013 2750 
Q 1425 3038 1878 3038 
Q 2478 3038 2890 2622 
Q 3303 2206 3303 1553 
Q 3303 931 2941 478 
Q 2500 -78 1738 -78 
Q 1113 -78 717 272 
Q 322 622 266 1200 
z
" transform="scale(0.015625)"/>
       </defs>
       <use xlink:href="#ArialMT-2212"/>
       <use xlink:href="#ArialMT-30" x="58.398438"/>
       <use xlink:href="#ArialMT-2e" x="114.013672"/>
       <use xlink:href="#ArialMT-35" x="141.796875"/>
      </g>
     </g>
    </g>
    <g id="ytick_2">
     <g id="line2d_5">
      <g>
       <use xlink:href="#mf515727ab8" x="71.418" y="90.422532" style="stroke: #000000; stroke-width: 0.8"/>
      </g>
     </g>
     <g id="text_6">
      <!-- 0.0 -->
      <g transform="translate(45.678 96.148782) scale(0.16 -0.16)">
       <use xlink:href="#ArialMT-30"/>
       <use xlink:href="#ArialMT-2e" x="55.615234"/>
       <use xlink:href="#ArialMT-30" x="83.398438"/>
      </g>
     </g>
    </g>
    <g id="ytick_3">
     <g id="line2d_6">
      <g>
       <use xlink:href="#mf515727ab8" x="71.418" y="34.608654" style="stroke: #000000; stroke-width: 0.8"/>
      </g>
     </g>
     <g id="text_7">
      <!-- 0.5 -->
      <g transform="translate(45.678 40.334904) scale(0.16 -0.16)">
       <use xlink:href="#ArialMT-30"/>
       <use xlink:href="#ArialMT-2e" x="55.615234"/>
       <use xlink:href="#ArialMT-35" x="83.398438"/>
      </g>
     </g>
    </g>
    <g id="text_8">
     <!-- $r_i$ -->
     <g transform="translate(29.153 94.61) rotate(-90) scale(0.16 -0.16)">
      <defs>
       <path id="DejaVuSans-Oblique-72" d="M 2853 2969 
Q 2766 3016 2653 3041 
Q 2541 3066 2413 3066 
Q 1953 3066 1609 2717 
Q 1266 2369 1153 1784 
L 800 0 
L 225 0 
L 909 3500 
L 1484 3500 
L 1375 2956 
Q 1603 3259 1920 3421 
Q 2238 3584 2597 3584 
Q 2691 3584 2781 3573 
Q 2872 3563 2963 3538 
L 2853 2969 
z
" transform="scale(0.015625)"/>
       <path id="DejaVuSans-Oblique-69" d="M 1172 4863 
L 1747 4863 
L 1606 4134 
L 1031 4134 
L 1172 4863 
z
M 909 3500 
L 1484 3500 
L 800 0 
L 225 0 
L 909 3500 
z
" transform="scale(0.015625)"/>
      </defs>
      <use xlink:href="#DejaVuSans-Oblique-72"/>
      <use xlink:href="#DejaVuSans-Oblique-69" transform="translate(41.113281 -16.40625) scale(0.7)"/>
     </g>
    </g>
   </g>
   <g id="line2d_7">
    <path d="M 71.418 62.983957 
L 72.255236 45.644422 
L 72.89313 36.328556 
L 73.37155 32.088541 
L 73.690497 30.79521 
L 73.889839 30.662257 
L 74.049313 30.943325 
L 74.288523 32.020366 
L 74.60747 34.675925 
L 75.046022 40.502011 
L 75.644048 51.934644 
L 76.640757 76.338182 
L 77.916545 106.467413 
L 78.634176 118.669392 
L 79.27207 125.969792 
L 79.830227 130.006497 
L 80.388384 132.467634 
L 80.946541 133.972515 
L 81.624304 135.150307 
L 82.182461 135.75122 
L 82.541276 135.881584 
L 82.820355 135.767658 
L 83.099433 135.398687 
L 83.41838 134.580779 
L 83.817064 132.826102 
L 84.255616 129.785312 
L 84.773905 124.530673 
L 85.411799 115.61415 
L 86.288903 99.900948 
L 88.282322 63.168112 
L 88.999953 54.187094 
L 89.597978 49.22652 
L 90.076399 46.835219 
L 90.475083 45.792002 
L 90.79403 45.498238 
L 91.03324 45.555383 
L 91.312318 45.889851 
L 91.671134 46.698585 
L 92.149554 48.369664 
L 92.74758 51.352549 
L 93.425342 55.98724 
L 94.142973 62.534471 
L 94.94034 71.952023 
L 95.976918 87.12941 
L 98.169679 120.103821 
L 98.887309 127.467922 
L 99.445467 131.256871 
L 99.884019 132.987888 
L 100.202966 133.573544 
L 100.442176 133.657223 
L 100.681386 133.45147 
L 100.960465 132.866831 
L 101.359149 131.439388 
L 101.877437 128.660822 
L 102.5552 123.698142 
L 103.432304 115.454484 
L 104.50875 103.096385 
L 106.262959 79.873286 
L 107.618483 63.242701 
L 108.415851 55.991713 
L 109.013876 52.371911 
L 109.452428 50.832999 
L 109.771375 50.325712 
L 110.010586 50.282017 
L 110.249796 50.521521 
L 110.568743 51.267283 
L 110.967427 52.847813 
L 111.485716 55.880327 
L 112.163478 61.261503 
L 113.08045 70.463711 
L 114.55558 87.844782 
L 116.588867 111.462233 
L 117.50584 119.699216 
L 118.183602 124.039765 
L 118.701891 126.144229 
L 119.100575 126.983418 
L 119.379654 127.154566 
L 119.618864 127.026813 
L 119.897942 126.560172 
L 120.256758 125.469088 
L 120.735178 123.197253 
L 121.333204 119.170441 
L 122.130571 112.119838 
L 123.326623 99.222182 
L 125.83833 71.708544 
L 126.755303 64.159971 
L 127.472933 59.932493 
L 128.031091 57.850246 
L 128.429774 57.063948 
L 128.708853 56.873713 
L 128.948063 56.949623 
L 129.227142 57.317034 
L 129.585957 58.225705 
L 130.024509 59.982605 
L 130.582667 63.17972 
L 131.300297 68.668142 
L 132.297007 78.194891 
L 135.566213 110.960297 
L 136.363581 116.306921 
L 137.001475 119.25394 
L 137.519764 120.683926 
L 137.878579 121.143021 
L 138.157658 121.194374 
L 138.436736 120.977504 
L 138.755683 120.403604 
L 139.154367 119.207094 
L 139.672656 116.890812 
L 140.31055 112.962655 
L 141.147786 106.313297 
L 142.423574 94.143101 
L 144.416992 75.267199 
L 145.333965 68.624477 
L 146.051596 64.90408 
L 146.609753 63.044655 
L 147.048305 62.258541 
L 147.367252 62.068176 
L 147.64633 62.165848 
L 147.965277 62.577057 
L 148.363961 63.531426 
L 148.842382 65.296677 
L 149.480276 68.620884 
L 150.277643 74.107457 
L 151.393958 83.528894 
L 154.02527 106.288875 
L 154.902374 111.720514 
L 155.580137 114.61888 
L 156.098426 115.975905 
L 156.497109 116.488797 
L 156.816056 116.562266 
L 157.095135 116.38172 
L 157.45395 115.818761 
L 157.892503 114.640471 
L 158.45066 112.406449 
L 159.128422 108.705196 
L 160.045395 102.317484 
L 161.560393 89.866248 
L 163.194996 77.023038 
L 164.111969 71.49057 
L 164.789731 68.581286 
L 165.347888 67.053747 
L 165.78644 66.4373 
L 166.105387 66.31805 
L 166.384466 66.440947 
L 166.703413 66.837998 
L 167.102097 67.70949 
L 167.620386 69.435075 
L 168.25828 72.395194 
L 169.095516 77.444513 
L 170.331435 86.475373 
L 172.564064 102.896564 
L 173.481037 107.953312 
L 174.158799 110.603023 
L 174.716956 111.984863 
L 175.155508 112.532424 
L 175.474455 112.627189 
L 175.793402 112.466575 
L 176.152218 111.984956 
L 176.59077 110.977061 
L 177.148927 109.067235 
L 177.866558 105.695812 
L 178.78353 100.205937 
L 180.418134 88.763149 
L 181.933132 78.802785 
L 182.850104 74.18401 
L 183.527867 71.775701 
L 184.086024 70.530152 
L 184.524576 70.047071 
L 184.843523 69.97502 
L 185.16247 70.137919 
L 185.521285 70.597957 
L 185.959838 71.545692 
L 186.517995 73.328084 
L 187.235626 76.460312 
L 188.192466 81.785831 
L 190.026412 93.654368 
L 191.381936 101.663947 
L 192.259041 105.619528 
L 192.936803 107.75618 
L 193.455092 108.775736 
L 193.893644 109.199587 
L 194.252459 109.241961 
L 194.571406 109.050254 
L 194.97009 108.512489 
L 195.448511 107.446374 
L 196.046536 105.515034 
L 196.804035 102.241851 
L 197.840613 96.656803 
L 201.030083 78.688549 
L 201.82745 75.691098 
L 202.465344 74.068412 
L 202.983633 73.309925 
L 203.382317 73.081793 
L 203.741132 73.142932 
L 204.099948 73.454075 
L 204.5385 74.164758 
L 205.096657 75.566633 
L 205.774419 77.94208 
L 206.651524 81.904323 
L 208.046917 89.423532 
L 209.880862 99.088145 
L 210.797834 102.805088 
L 211.515465 104.87729 
L 212.073622 105.899575 
L 212.512174 106.317297 
L 212.87099 106.401175 
L 213.229805 106.25301 
L 213.628489 105.820723 
L 214.106909 104.943783 
L 214.704935 103.33682 
L 215.462434 100.593326 
L 216.499012 95.884884 
L 219.768218 80.300922 
L 220.565586 77.805081 
L 221.20348 76.472288 
L 221.721769 75.866925 
L 222.120452 75.703396 
L 222.479268 75.782266 
L 222.877952 76.117921 
L 223.356372 76.854182 
L 223.954398 78.252982 
L 224.672028 80.549344 
L 225.628869 84.421917 
L 229.416365 100.707412 
L 230.133996 102.53723 
L 230.732021 103.514572 
L 231.210442 103.912116 
L 231.609125 103.975937 
L 232.007809 103.796974 
L 232.446361 103.325675 
L 232.96465 102.415034 
L 233.602544 100.813344 
L 234.43978 98.034844 
L 235.635831 93.169706 
L 238.067802 83.129978 
L 238.944906 80.463037 
L 239.662537 78.938679 
L 240.220694 78.220711 
L 240.699115 77.949897 
L 241.097798 77.97101 
L 241.496482 78.214616 
L 241.974903 78.792039 
L 242.53306 79.83591 
L 243.250691 81.699576 
L 244.167663 84.759309 
L 245.762398 91.027688 
L 247.317265 96.825286 
L 248.234237 99.459503 
L 248.951868 100.910986 
L 249.549894 101.64753 
L 250.028314 101.907829 
L 250.426998 101.897437 
L 250.86555 101.649283 
L 251.34397 101.104296 
L 251.941996 100.045819 
L 252.659627 98.286235 
L 253.616468 95.292334 
L 255.490281 88.469129 
L 256.845806 83.987614 
L 257.72291 81.790889 
L 258.400673 80.61607 
L 258.95883 80.035911 
L 259.43725 79.831744 
L 259.875802 79.885367 
L 260.314354 80.1664 
L 260.832643 80.78073 
L 261.470537 81.925335 
L 262.267905 83.874398 
L 263.344351 87.167745 
L 266.374347 96.821042 
L 267.211583 98.637807 
L 267.889345 99.623391 
L 268.447503 100.072401 
L 268.925923 100.185527 
L 269.364475 100.067775 
L 269.842896 99.702779 
L 270.401053 98.980366 
L 270.72 98.434208 
L 270.72 98.434208 
" clip-path="url(#p20c402b148)" style="fill: none; stroke: #000000; stroke-width: 1.5; stroke-linecap: square"/>
   </g>
   <g id="line2d_8">
    <path d="M 71.418 23.844545 
L 71.936289 26.535935 
L 72.414709 29.170079 
L 72.813393 32.899714 
L 73.251945 39.528399 
L 73.770234 51.13946 
L 74.527733 73.849313 
L 75.843389 113.153668 
L 76.361678 122.66748 
L 76.760362 126.559973 
L 77.039441 127.509769 
L 77.159046 127.49747 
L 77.318519 127.120283 
L 77.55773 125.859697 
L 77.956413 122.29161 
L 79.710622 104.236141 
L 80.029569 103.361887 
L 80.189042 103.339165 
L 80.348516 103.583796 
L 80.587726 104.416815 
L 80.98641 106.838466 
L 82.621013 118.383485 
L 82.820355 118.628455 
L 82.93996 118.559199 
L 83.139302 118.062954 
L 83.41838 116.543568 
L 83.777196 113.188425 
L 84.295485 105.857238 
L 85.132721 90.080513 
L 86.249035 69.833628 
L 86.807192 63.237227 
L 87.245744 60.346382 
L 87.564691 59.502038 
L 87.764033 59.467141 
L 87.963375 59.769585 
L 88.242454 60.676974 
L 88.720874 63.182326 
L 90.275741 72.124956 
L 90.754161 73.471972 
L 91.152845 73.997451 
L 91.551529 74.162212 
L 92.229291 74.353702 
L 92.548238 74.743938 
L 92.867185 75.514876 
L 93.265869 77.170256 
L 93.744289 80.31687 
L 94.342315 85.998507 
L 95.259287 97.26699 
L 96.455339 111.41996 
L 97.053364 116.096165 
L 97.491916 118.063273 
L 97.810863 118.695917 
L 98.050074 118.752284 
L 98.249415 118.54703 
L 98.528494 117.915845 
L 98.967046 116.262088 
L 99.684677 112.479141 
L 101.359149 103.445397 
L 103.472172 93.182823 
L 104.309408 87.270218 
L 106.940721 67.333814 
L 107.419141 65.66971 
L 107.777957 65.099705 
L 108.017167 65.04561 
L 108.256377 65.244208 
L 108.575324 65.878636 
L 109.013876 67.362593 
L 109.611902 70.277869 
L 110.64848 76.651346 
L 113.160187 92.205829 
L 116.110447 109.145891 
L 116.748341 111.464003 
L 117.226761 112.465103 
L 117.545708 112.73111 
L 117.824787 112.687738 
L 118.103866 112.385101 
L 118.462681 111.624137 
L 118.941101 110.003767 
L 119.578995 106.933893 
L 120.535836 101.034548 
L 123.366491 82.906128 
L 124.562542 76.929773 
L 125.439646 73.537437 
L 126.117409 71.71344 
L 126.595829 70.95603 
L 126.954645 70.71839 
L 127.273592 70.763072 
L 127.592539 71.058022 
L 127.991222 71.78327 
L 128.469643 73.165683 
L 129.067668 75.616521 
L 129.865036 79.892547 
L 131.340166 89.325714 
L 132.855164 98.457745 
L 133.812005 102.977533 
L 134.609372 105.767806 
L 135.247266 107.286828 
L 135.765555 108.015408 
L 136.164239 108.248371 
L 136.523054 108.20414 
L 136.88187 107.912865 
L 137.320422 107.216924 
L 137.838711 105.916468 
L 138.476605 103.641895 
L 139.273972 99.898251 
L 140.470023 93.064577 
L 142.423574 81.942075 
L 143.340546 77.985128 
L 144.058177 75.767974 
L 144.656202 74.574495 
L 145.134623 74.064416 
L 145.533307 73.94473 
L 145.892122 74.073952 
L 146.290806 74.477964 
L 146.769226 75.316525 
L 147.367252 76.88305 
L 148.084883 79.455204 
L 149.001855 83.637491 
L 150.676327 92.58078 
L 152.031852 99.297053 
L 152.908956 102.61628 
L 153.586718 104.40836 
L 154.144875 105.318734 
L 154.583427 105.662308 
L 154.942243 105.699292 
L 155.301058 105.51956 
L 155.73961 105.013713 
L 156.257899 104.02938 
L 156.895793 102.289892 
L 157.693161 99.411419 
L 158.769607 94.617674 
L 161.719866 81.015426 
L 162.517234 78.507076 
L 163.155128 77.143106 
L 163.673417 76.499529 
L 164.111969 76.292042 
L 164.470784 76.352587 
L 164.869468 76.658562 
L 165.347888 77.344814 
L 165.945914 78.657838 
L 166.663545 80.819259 
L 167.620386 84.474005 
L 169.414462 92.446593 
L 170.809856 98.164758 
L 171.68696 100.915766 
L 172.364722 102.404091 
L 172.922879 103.151862 
L 173.361431 103.419221 
L 173.760115 103.413967 
L 174.158799 103.174327 
L 174.637219 102.586918 
L 175.195377 101.513372 
L 175.913007 99.588402 
L 176.82998 96.423103 
L 178.384847 90.093905 
L 180.01945 83.747432 
L 180.936422 81.00884 
L 181.654053 79.497132 
L 182.21221 78.766088 
L 182.690631 78.469718 
L 183.089315 78.460493 
L 183.487998 78.666419 
L 183.966419 79.190031 
L 184.524576 80.160846 
L 185.242207 81.917201 
L 186.159179 84.824138 
L 187.714046 90.663595 
L 189.348649 96.525895 
L 190.265622 99.05621 
L 190.983253 100.456216 
L 191.581278 101.171869 
L 192.059699 101.429919 
L 192.498251 101.415971 
L 192.936803 101.16418 
L 193.455092 100.569873 
L 194.053117 99.51118 
L 194.810617 97.668662 
L 195.807326 94.595981 
L 199.355611 83.046413 
L 200.152979 81.446234 
L 200.790873 80.636284 
L 201.309161 80.311734 
L 201.747714 80.277118 
L 202.186266 80.461861 
L 202.664686 80.906958 
L 203.262712 81.800108 
L 203.980342 83.31196 
L 204.937183 85.917228 
L 206.611655 91.288552 
L 208.086785 95.724961 
L 209.003758 97.842439 
L 209.721388 98.998668 
L 210.319414 99.575756 
L 210.837703 99.774793 
L 211.316123 99.706808 
L 211.794544 99.400917 
L 212.352701 98.756766 
L 213.030463 97.594868 
L 213.867699 95.678045 
L 215.06375 92.320253 
L 217.495721 85.388652 
L 218.412694 83.477811 
L 219.130324 82.450851 
L 219.72835 81.954165 
L 220.246639 81.802255 
L 220.725059 81.893989 
L 221.243348 82.239579 
L 221.841374 82.939699 
L 222.559005 84.1623 
L 223.475977 86.214196 
L 224.911239 90.063725 
L 226.745184 94.84139 
L 227.702025 96.726118 
L 228.419656 97.705412 
L 229.017681 98.193109 
L 229.53597 98.359885 
L 230.054259 98.285763 
L 230.572548 97.975199 
L 231.170573 97.338473 
L 231.888204 96.220643 
L 232.805177 94.338411 
L 234.240438 90.797388 
L 236.074383 86.388753 
L 237.031224 84.642885 
L 237.788723 83.692257 
L 238.426617 83.23466 
L 238.984775 83.106979 
L 239.503063 83.218584 
L 240.061221 83.580317 
L 240.699115 84.280945 
L 241.456614 85.462617 
L 242.453323 87.462371 
L 246.240819 95.547859 
L 247.038186 96.531676 
L 247.67608 96.998821 
L 248.234237 97.157732 
L 248.792394 97.079706 
L 249.350552 96.769778 
L 249.988446 96.148763 
L 250.745945 95.084653 
L 251.742654 93.264797 
L 253.855678 88.767058 
L 255.131466 86.382865 
L 256.00857 85.174337 
L 256.726201 84.530605 
L 257.364095 84.249369 
L 257.922252 84.236609 
L 258.480409 84.440148 
L 259.118303 84.925462 
L 259.875802 85.817366 
L 260.792775 87.269029 
L 262.228036 90.024757 
L 264.141718 93.620273 
L 265.098559 94.972524 
L 265.856058 95.703504 
L 266.533821 96.063238 
L 267.131846 96.136476 
L 267.729872 95.979912 
L 268.367766 95.569558 
L 269.085397 94.834489 
L 270.002369 93.546702 
L 270.72 92.341989 
L 270.72 92.341989 
" clip-path="url(#p20c402b148)" style="fill: none; stroke: #808080; stroke-width: 1.5; stroke-linecap: square"/>
   </g>
   <g id="line2d_9">
    <path d="M 71.418 50.371428 
L 71.816684 39.25906 
L 72.055894 36.853512 
L 72.135631 36.77923 
L 72.255236 37.340904 
L 72.454578 40.017203 
L 72.773525 48.455107 
L 73.251945 68.705225 
L 74.926417 147.442648 
L 75.285232 153.988563 
L 75.484574 155.124735 
L 75.564311 155.074557 
L 75.683916 154.466856 
L 75.883258 152.078967 
L 76.202205 144.974323 
L 76.680625 128.290256 
L 78.434834 60.570081 
L 78.793649 55.145737 
L 79.032859 53.999894 
L 79.112596 54.054011 
L 79.27207 54.794855 
L 79.51128 57.397695 
L 79.870095 64.204383 
L 80.468121 80.678657 
L 81.504699 109.21771 
L 81.943251 115.891858 
L 82.222329 117.574126 
L 82.341934 117.649337 
L 82.46154 117.337805 
L 82.660881 115.979455 
L 82.979828 111.772088 
L 83.458249 101.629799 
L 85.332062 57.191111 
L 85.651009 54.693485 
L 85.850351 54.311433 
L 85.969956 54.516762 
L 86.169298 55.56164 
L 86.448377 58.4035 
L 86.886929 65.590081 
L 87.684296 83.356247 
L 88.521532 100.45147 
L 88.999953 106.384023 
L 89.3189 108.270035 
L 89.518242 108.588282 
L 89.637847 108.472583 
L 89.837189 107.798583 
L 90.156136 105.607043 
L 90.634556 100.41019 
L 91.990081 84.549417 
L 92.348896 82.632715 
L 92.588106 82.216176 
L 92.707712 82.275723 
L 92.907053 82.767558 
L 93.186132 84.24148 
L 93.584816 87.725458 
L 94.262578 96.005588 
L 95.219419 107.30082 
L 95.657971 110.318656 
L 95.976918 111.232197 
L 96.136392 111.255892 
L 96.295865 110.990586 
L 96.535075 110.067195 
L 96.893891 107.599986 
L 97.41218 102.239063 
L 99.206256 82.065408 
L 99.644809 79.853966 
L 99.923887 79.272322 
L 100.123229 79.23271 
L 100.322571 79.480214 
L 100.60165 80.24635 
L 101.040202 82.185707 
L 102.435595 88.878623 
L 102.79441 89.533596 
L 103.03362 89.586491 
L 103.232962 89.393007 
L 103.512041 88.777301 
L 103.910725 87.295998 
L 104.628355 83.568014 
L 105.465591 79.548151 
L 105.864275 78.493262 
L 106.143353 78.238727 
L 106.342695 78.323484 
L 106.581906 78.723827 
L 106.900853 79.74927 
L 107.339405 81.974484 
L 108.057035 86.999621 
L 109.332823 95.935105 
L 109.890981 98.306804 
L 110.289664 99.183308 
L 110.608611 99.409393 
L 110.847822 99.332581 
L 111.166769 98.959048 
L 111.645189 97.998447 
L 112.881109 95.362739 
L 113.319661 94.965565 
L 113.638608 94.935628 
L 113.997423 95.14504 
L 114.475844 95.728142 
L 115.671895 97.330471 
L 116.03071 97.437945 
L 116.309789 97.3073 
L 116.628736 96.901012 
L 117.027419 95.997315 
L 117.545708 94.218891 
L 118.382944 90.381892 
L 119.618864 84.829434 
L 120.216889 83.098673 
L 120.655441 82.389196 
L 121.014257 82.15511 
L 121.333204 82.18002 
L 121.731888 82.461257 
L 122.329913 83.221632 
L 123.805043 85.196565 
L 124.482805 85.689669 
L 126.117409 86.673319 
L 126.675566 87.445849 
L 127.273592 88.695131 
L 128.070959 90.961103 
L 129.984641 96.642536 
L 130.582667 97.647437 
L 131.061087 98.038173 
L 131.459771 98.089488 
L 131.858454 97.919263 
L 132.376743 97.433565 
L 133.174111 96.327763 
L 137.440027 89.584488 
L 140.151076 84.207536 
L 140.709233 83.687833 
L 141.187654 83.523815 
L 141.626206 83.602975 
L 142.104627 83.92041 
L 142.702652 84.599698 
L 143.579756 85.976847 
L 149.001855 95.171108 
L 149.839091 96.079929 
L 150.437117 96.440431 
L 150.955405 96.51789 
L 151.473694 96.364486 
L 152.031852 95.948659 
L 152.709614 95.137481 
L 153.626587 93.653328 
L 157.374214 87.182974 
L 158.410791 85.964722 
L 159.248027 85.299887 
L 159.92579 85.02855 
L 160.523815 85.020496 
L 161.121841 85.24563 
L 161.759735 85.742111 
L 162.517234 86.642459 
L 163.513943 88.210858 
L 166.703413 93.498087 
L 167.660254 94.536289 
L 168.457622 95.095433 
L 169.175252 95.336938 
L 169.813146 95.330034 
L 170.45104 95.107776 
L 171.128803 94.637749 
L 171.92617 93.799298 
L 172.922879 92.404642 
L 176.511033 87.045344 
L 177.348269 86.323145 
L 178.105768 85.952057 
L 178.78353 85.857651 
L 179.461293 85.987563 
L 180.178923 86.361082 
L 180.976291 87.038072 
L 181.933132 88.155226 
L 183.408262 90.275524 
L 185.282075 92.896566 
L 186.278785 93.910151 
L 187.076152 94.425315 
L 187.793783 94.637239 
L 188.471545 94.613456 
L 189.189176 94.358819 
L 189.986543 93.822193 
L 190.943384 92.881621 
L 192.259041 91.229313 
L 194.810617 87.964884 
L 195.767457 87.114953 
L 196.564825 86.676946 
L 197.282456 86.518423 
L 198.000086 86.588502 
L 198.757586 86.900277 
L 199.594821 87.498411 
L 200.631399 88.530996 
L 202.345739 90.615683 
L 204.060079 92.585766 
L 205.096657 93.449747 
L 205.933893 93.875321 
L 206.691392 94.021013 
L 207.448891 93.932182 
L 208.246258 93.595991 
L 209.123363 92.97311 
L 210.239677 91.889917 
L 214.146778 87.831422 
L 215.06375 87.323541 
L 215.861118 87.123209 
L 216.618617 87.152964 
L 217.415984 87.410998 
L 218.293089 87.937214 
L 219.369535 88.856844 
L 221.323085 90.891852 
L 222.877952 92.362896 
L 223.914529 93.056341 
L 224.791634 93.39104 
L 225.589001 93.470772 
L 226.386368 93.333066 
L 227.263473 92.945756 
L 228.260182 92.252495 
L 229.655575 90.984673 
L 232.207151 88.647037 
L 233.283597 87.984815 
L 234.20057 87.674995 
L 235.037806 87.62039 
L 235.875041 87.78535 
L 236.792014 88.198703 
L 237.908328 88.968493 
L 239.662537 90.502053 
L 241.496482 92.018544 
L 242.612797 92.660915 
L 243.569638 92.957883 
L 244.446742 92.999408 
L 245.323846 92.819685 
L 246.280687 92.393759 
L 247.476738 91.596667 
L 251.862259 88.401168 
L 252.858969 88.096528 
L 253.775941 88.047344 
L 254.692914 88.221094 
L 255.689623 88.639149 
L 256.925543 89.413047 
L 261.071854 92.228163 
L 262.108431 92.548187 
L 263.065272 92.613842 
L 264.022113 92.455401 
L 265.058691 92.054466 
L 266.374347 91.285166 
L 270.281448 88.814831 
L 270.72 88.650288 
L 270.72 88.650288 
" clip-path="url(#p20c402b148)" style="fill: none; stroke: #808080; stroke-width: 1.5; stroke-linecap: square"/>
   </g>
   <g id="patch_3">
    <path d="M 71.418 161.7 
L 71.418 17.28 
" style="fill: none; stroke: #000000; stroke-width: 0.8; stroke-linejoin: miter; stroke-linecap: square"/>
   </g>
   <g id="patch_4">
    <path d="M 270.72 161.7 
L 270.72 17.28 
" style="fill: none; stroke: #000000; stroke-width: 0.8; stroke-linejoin: miter; stroke-linecap: square"/>
   </g>
   <g id="patch_5">
    <path d="M 71.418 161.7 
L 270.72 161.7 
" style="fill: none; stroke: #000000; stroke-width: 0.8; stroke-linejoin: miter; stroke-linecap: square"/>
   </g>
   <g id="patch_6">
    <path d="M 71.418 17.28 
L 270.72 17.28 
" style="fill: none; stroke: #000000; stroke-width: 0.8; stroke-linejoin: miter; stroke-linecap: square"/>
   </g>
  </g>
 </g>
 <defs>
  <clipPath id="p20c402b148">
   <rect x="71.418" y="17.28" width="199.302" height="144.42"/>
  </clipPath>
 </defs>
</svg>
