<?xml version="1.0" encoding="utf-8" standalone="no"?>
<!DOCTYPE svg PUBLIC "-//W3C//DTD SVG 1.1//EN"
  "http://www.w3.org/Graphics/SVG/1.1/DTD/svg11.dtd">
<svg xmlns:xlink="http://www.w3.org/1999/xlink" width="288pt" height="216pt" viewBox="0 0 288 216" xmlns="http://www.w3.org/2000/svg" version="1.1">
 <metadata>
  <rdf:RDF xmlns:dc="http://purl.org/dc/elements/1.1/" xmlns:cc="http://creativecommons.org/ns#" xmlns:rdf="http://www.w3.org/1999/02/22-rdf-syntax-ns#">
   <cc:Work>
    <dc:type rdf:resource="http://purl.org/dc/dcmitype/StillImage"/>
    <dc:date>2024-02-20T17:24:49.359297</dc:date>
    <dc:format>image/svg+xml</dc:format>
    <dc:creator>
     <cc:Agent>
      <dc:title>Matplotlib v3.8.2, https://matplotlib.org/</dc:title>
     </cc:Agent>
    </dc:creator>
   </cc:Work>
  </rdf:RDF>
 </metadata>
 <defs>
  <style type="text/css">*{stroke-linejoin: round; stroke-linecap: butt}</style>
 </defs>
 <g id="figure_1">
  <g id="patch_1">
   <path d="M 0 216 
L 288 216 
L 288 0 
L 0 0 
L 0 216 
z
" style="fill: none"/>
  </g>
  <g id="axes_1">
   <g id="patch_2">
    <path d="M 82.65 155.94 
L 253.53 155.94 
L 253.53 25.92 
L 82.65 25.92 
L 82.65 155.94 
z
" style="fill: none"/>
   </g>
   <g id="matplotlib.axis_1">
    <g id="xtick_1">
     <g id="line2d_1">
      <defs>
       <path id="m113c67bec3" d="M 0 0 
L 0 -3.5 
" style="stroke: #000000; stroke-width: 0.8"/>
      </defs>
      <g>
       <use xlink:href="#m113c67bec3" x="82.65" y="155.94" style="stroke: #000000; stroke-width: 0.8"/>
      </g>
     </g>
     <g id="text_1">
      <!-- 0 -->
      <g transform="translate(77.645156 172.324062) scale(0.18 -0.18)">
       <defs>
        <path id="ArialMT-30" d="M 266 2259 
Q 266 3072 433 3567 
Q 600 4063 929 4331 
Q 1259 4600 1759 4600 
Q 2128 4600 2406 4451 
Q 2684 4303 2865 4023 
Q 3047 3744 3150 3342 
Q 3253 2941 3253 2259 
Q 3253 1453 3087 958 
Q 2922 463 2592 192 
Q 2263 -78 1759 -78 
Q 1097 -78 719 397 
Q 266 969 266 2259 
z
M 844 2259 
Q 844 1131 1108 757 
Q 1372 384 1759 384 
Q 2147 384 2411 759 
Q 2675 1134 2675 2259 
Q 2675 3391 2411 3762 
Q 2147 4134 1753 4134 
Q 1366 4134 1134 3806 
Q 844 3388 844 2259 
z
" transform="scale(0.015625)"/>
       </defs>
       <use xlink:href="#ArialMT-30"/>
      </g>
     </g>
    </g>
    <g id="xtick_2">
     <g id="line2d_2">
      <g>
       <use xlink:href="#m113c67bec3" x="168.09" y="155.94" style="stroke: #000000; stroke-width: 0.8"/>
      </g>
     </g>
     <g id="text_2">
      <!-- 100 -->
      <g transform="translate(153.075469 172.324062) scale(0.18 -0.18)">
       <defs>
        <path id="ArialMT-31" d="M 2384 0 
L 1822 0 
L 1822 3584 
Q 1619 3391 1289 3197 
Q 959 3003 697 2906 
L 697 3450 
Q 1169 3672 1522 3987 
Q 1875 4303 2022 4600 
L 2384 4600 
L 2384 0 
z
" transform="scale(0.015625)"/>
       </defs>
       <use xlink:href="#ArialMT-31"/>
       <use xlink:href="#ArialMT-30" x="55.615234"/>
       <use xlink:href="#ArialMT-30" x="111.230469"/>
      </g>
     </g>
    </g>
    <g id="xtick_3">
     <g id="line2d_3">
      <g>
       <use xlink:href="#m113c67bec3" x="253.53" y="155.94" style="stroke: #000000; stroke-width: 0.8"/>
      </g>
     </g>
     <g id="text_3">
      <!-- 200 -->
      <g transform="translate(238.515469 172.324062) scale(0.18 -0.18)">
       <defs>
        <path id="ArialMT-32" d="M 3222 541 
L 3222 0 
L 194 0 
Q 188 203 259 391 
Q 375 700 629 1000 
Q 884 1300 1366 1694 
Q 2113 2306 2375 2664 
Q 2638 3022 2638 3341 
Q 2638 3675 2398 3904 
Q 2159 4134 1775 4134 
Q 1369 4134 1125 3890 
Q 881 3647 878 3216 
L 300 3275 
Q 359 3922 746 4261 
Q 1134 4600 1788 4600 
Q 2447 4600 2831 4234 
Q 3216 3869 3216 3328 
Q 3216 3053 3103 2787 
Q 2991 2522 2730 2228 
Q 2469 1934 1863 1422 
Q 1356 997 1212 845 
Q 1069 694 975 541 
L 3222 541 
z
" transform="scale(0.015625)"/>
       </defs>
       <use xlink:href="#ArialMT-32"/>
       <use xlink:href="#ArialMT-30" x="55.615234"/>
       <use xlink:href="#ArialMT-30" x="111.230469"/>
      </g>
     </g>
    </g>
    <g id="text_4">
     <!-- $t$ -->
     <g transform="translate(164.49 192.785625) scale(0.18 -0.18)">
      <defs>
       <path id="DejaVuSans-Oblique-74" d="M 2706 3500 
L 2619 3053 
L 1472 3053 
L 1100 1153 
Q 1081 1047 1072 975 
Q 1063 903 1063 863 
Q 1063 663 1183 572 
Q 1303 481 1569 481 
L 2150 481 
L 2053 0 
L 1503 0 
Q 991 0 739 200 
Q 488 400 488 806 
Q 488 878 497 964 
Q 506 1050 525 1153 
L 897 3053 
L 409 3053 
L 500 3500 
L 978 3500 
L 1172 4494 
L 1747 4494 
L 1556 3500 
L 2706 3500 
z
" transform="scale(0.015625)"/>
      </defs>
      <use xlink:href="#DejaVuSans-Oblique-74" transform="translate(0 0.78125)"/>
     </g>
    </g>
   </g>
   <g id="matplotlib.axis_2">
    <g id="ytick_1">
     <g id="line2d_4">
      <defs>
       <path id="mc9b68ccd1f" d="M 0 0 
L 3.5 0 
" style="stroke: #000000; stroke-width: 0.8"/>
      </defs>
      <g>
       <use xlink:href="#mc9b68ccd1f" x="82.65" y="155.94" style="stroke: #000000; stroke-width: 0.8"/>
      </g>
     </g>
     <g id="text_5">
      <!-- −1 -->
      <g transform="translate(58.627188 162.382031) scale(0.18 -0.18)">
       <defs>
        <path id="ArialMT-2212" d="M 3381 1997 
L 356 1997 
L 356 2522 
L 3381 2522 
L 3381 1997 
z
" transform="scale(0.015625)"/>
       </defs>
       <use xlink:href="#ArialMT-2212"/>
       <use xlink:href="#ArialMT-31" x="58.398438"/>
      </g>
     </g>
    </g>
    <g id="ytick_2">
     <g id="line2d_5">
      <g>
       <use xlink:href="#mc9b68ccd1f" x="82.65" y="90.93" style="stroke: #000000; stroke-width: 0.8"/>
      </g>
     </g>
     <g id="text_6">
      <!-- 0 -->
      <g transform="translate(69.140313 97.372031) scale(0.18 -0.18)">
       <use xlink:href="#ArialMT-30"/>
      </g>
     </g>
    </g>
    <g id="ytick_3">
     <g id="line2d_6">
      <g>
       <use xlink:href="#mc9b68ccd1f" x="82.65" y="25.92" style="stroke: #000000; stroke-width: 0.8"/>
      </g>
     </g>
     <g id="text_7">
      <!-- 1 -->
      <g transform="translate(69.140313 32.362031) scale(0.18 -0.18)">
       <use xlink:href="#ArialMT-31"/>
      </g>
     </g>
    </g>
    <g id="text_8">
     <!-- $\phi_i - \phi_0$ -->
     <g transform="translate(50.847188 120.18) rotate(-90) scale(0.18 -0.18)">
      <defs>
       <path id="DejaVuSans-Oblique-3d5" d="M 2991 4863 
L 2738 3572 
Q 3363 3572 3684 3094 
Q 4016 2606 3850 1747 
Q 3681 888 3159 400 
Q 2653 -78 2028 -78 
L 1784 -1331 
L 1213 -1331 
L 1456 -78 
Q 834 -78 509 400 
Q 178 888 347 1747 
Q 513 2606 1034 3094 
Q 1544 3572 2166 3572 
L 2419 4863 
L 2991 4863 
z
M 2128 434 
Q 2481 434 2784 756 
Q 3116 1116 3244 1747 
Q 3369 2372 3169 2738 
Q 2991 3059 2638 3059 
L 2128 434 
z
M 1556 434 
L 2066 3059 
Q 1716 3059 1413 2738 
Q 1072 2372 953 1747 
Q 834 1116 1028 756 
Q 1203 434 1556 434 
z
" transform="scale(0.015625)"/>
       <path id="DejaVuSans-Oblique-69" d="M 1172 4863 
L 1747 4863 
L 1606 4134 
L 1031 4134 
L 1172 4863 
z
M 909 3500 
L 1484 3500 
L 800 0 
L 225 0 
L 909 3500 
z
" transform="scale(0.015625)"/>
       <path id="DejaVuSans-2212" d="M 678 2272 
L 4684 2272 
L 4684 1741 
L 678 1741 
L 678 2272 
z
" transform="scale(0.015625)"/>
       <path id="DejaVuSans-30" d="M 2034 4250 
Q 1547 4250 1301 3770 
Q 1056 3291 1056 2328 
Q 1056 1369 1301 889 
Q 1547 409 2034 409 
Q 2525 409 2770 889 
Q 3016 1369 3016 2328 
Q 3016 3291 2770 3770 
Q 2525 4250 2034 4250 
z
M 2034 4750 
Q 2819 4750 3233 4129 
Q 3647 3509 3647 2328 
Q 3647 1150 3233 529 
Q 2819 -91 2034 -91 
Q 1250 -91 836 529 
Q 422 1150 422 2328 
Q 422 3509 836 4129 
Q 1250 4750 2034 4750 
z
" transform="scale(0.015625)"/>
      </defs>
      <use xlink:href="#DejaVuSans-Oblique-3d5" transform="translate(0 0.015625)"/>
      <use xlink:href="#DejaVuSans-Oblique-69" transform="translate(65.966797 -16.390625) scale(0.7)"/>
      <use xlink:href="#DejaVuSans-2212" transform="translate(107.631836 0.015625)"/>
      <use xlink:href="#DejaVuSans-Oblique-3d5" transform="translate(210.90332 0.015625)"/>
      <use xlink:href="#DejaVuSans-30" transform="translate(276.870117 -16.390625) scale(0.7)"/>
     </g>
    </g>
   </g>
   <g id="line2d_7">
    <path d="M 82.65 90.93 
L 253.53 90.93 
L 253.53 90.93 
" clip-path="url(#p0745d0f2b9)" style="fill: none; stroke: #000000; stroke-width: 1.5; stroke-linecap: square"/>
   </g>
   <g id="line2d_8">
    <path d="M 82.65 76.002912 
L 82.889244 87.718551 
L 83.145577 91.021036 
L 83.436087 92.181021 
L 83.786409 92.725538 
L 84.21363 92.995048 
L 84.726296 93.04717 
L 85.48675 92.871367 
L 89.844408 91.54783 
L 92.12577 91.245475 
L 95.415374 91.053953 
L 101.567362 90.956519 
L 124.321172 90.930373 
L 253.53 90.93 
L 253.53 90.93 
" clip-path="url(#p0745d0f2b9)" style="fill: none; stroke: #808080; stroke-width: 1.5; stroke-linecap: square"/>
   </g>
   <g id="line2d_9">
    <path d="M 82.65 126.965587 
L 82.846522 131.545824 
L 82.897788 131.64343 
L 82.949055 131.51786 
L 83.09431 130.391478 
L 83.470265 125.210415 
L 84.529774 110.446637 
L 85.144973 105.104494 
L 85.77726 101.450619 
L 86.45227 98.798383 
L 87.170002 96.839352 
L 87.947545 95.343829 
L 88.784899 94.202704 
L 89.707697 93.314721 
L 90.758661 92.613939 
L 91.989059 92.065709 
L 93.509967 91.640104 
L 95.509363 91.323698 
L 98.423013 91.106493 
L 103.515491 90.98117 
L 117.374552 90.933491 
L 253.53 90.93 
L 253.53 90.93 
" clip-path="url(#p0745d0f2b9)" style="fill: none; stroke: #808080; stroke-width: 1.5; stroke-linecap: square"/>
   </g>
   <g id="line2d_10">
    <path d="M 82.65 76.129673 
L 82.897788 87.752636 
L 83.128488 90.484519 
L 83.273743 90.734949 
L 83.299376 90.720669 
L 83.444632 90.457922 
L 84.469963 88.128776 
L 84.922818 87.800523 
L 85.452572 87.698548 
L 86.16176 87.806762 
L 87.246902 88.22313 
L 90.997905 89.808323 
L 92.860591 90.264015 
L 95.133408 90.579347 
L 98.363202 90.783467 
L 104.181957 90.893387 
L 122.543931 90.928817 
L 253.53 90.93 
L 253.53 90.93 
" clip-path="url(#p0745d0f2b9)" style="fill: none; stroke: #808080; stroke-width: 1.5; stroke-linecap: square"/>
   </g>
   <g id="line2d_11">
    <path d="M 82.65 121.587996 
L 82.761078 123.742411 
L 82.8038 123.545024 
L 82.906333 121.202418 
L 83.068677 111.504487 
L 83.504443 83.644685 
L 83.794953 79.263166 
L 84.13673 77.211234 
L 84.555407 76.004469 
L 85.144973 75.004937 
L 86.067771 73.897745 
L 87.05038 73.041123 
L 87.913367 72.569641 
L 88.673821 72.397392 
L 89.383009 72.460039 
L 90.092196 72.75014 
L 90.835561 73.30285 
L 91.672915 74.219016 
L 92.672613 75.665282 
L 94.13371 78.221585 
L 96.679949 82.6667 
L 98.047058 84.576879 
L 99.337266 86.005661 
L 100.653108 87.134631 
L 102.062939 88.050341 
L 103.635113 88.802036 
L 105.455076 89.41944 
L 107.650994 89.921464 
L 110.427933 90.317916 
L 114.161848 90.613022 
L 119.707181 90.808869 
L 129.806694 90.908628 
L 165.992343 90.929956 
L 253.53 90.93 
L 253.53 90.93 
" clip-path="url(#p0745d0f2b9)" style="fill: none; stroke: #808080; stroke-width: 1.5; stroke-linecap: square"/>
   </g>
   <g id="line2d_12">
    <path d="M 82.65 45.145316 
L 82.735444 41.997094 
L 82.786711 42.675635 
L 82.983233 51.275868 
L 83.290832 60.213672 
L 83.581343 62.995441 
L 83.854764 63.84991 
L 84.076919 63.989875 
L 84.29053 63.85771 
L 84.615218 63.341433 
L 85.136428 62.033385 
L 85.982327 59.2369 
L 87.434879 53.558175 
L 89.81023 44.344733 
L 91.066261 40.39972 
L 92.219758 37.485635 
L 93.356167 35.203314 
L 94.509665 33.373321 
L 95.714429 31.871545 
L 96.996093 30.625478 
L 98.388835 29.58104 
L 99.935376 28.701748 
L 101.686984 27.965536 
L 103.729102 27.354099 
L 106.189897 26.857526 
L 109.274435 26.471646 
L 113.418482 26.191081 
L 119.638825 26.013457 
L 131.695012 25.931876 
L 192.257912 25.92 
L 253.53 25.92 
L 253.53 25.92 
" clip-path="url(#p0745d0f2b9)" style="fill: none; stroke: #808080; stroke-width: 1.5; stroke-linecap: square"/>
   </g>
   <g id="line2d_13">
    <path d="M 82.65 116.76533 
L 82.889244 85.107856 
L 83.000322 86.056234 
L 83.624065 92.78739 
L 83.931664 93.823879 
L 84.222175 94.134933 
L 84.546863 94.155154 
L 85.213328 93.90078 
L 86.37537 93.523243 
L 87.776656 93.338908 
L 91.621649 92.906583 
L 100.721464 91.53292 
L 105.17311 91.223815 
L 111.393453 91.033682 
L 122.800264 90.944865 
L 172.434841 90.930003 
L 253.53 90.93 
L 253.53 90.93 
" clip-path="url(#p0745d0f2b9)" style="fill: none; stroke: #808080; stroke-width: 1.5; stroke-linecap: square"/>
   </g>
   <g id="line2d_14">
    <path d="M 82.65 62.589342 
L 83.128488 93.872644 
L 83.359187 97.249706 
L 83.555709 97.704244 
L 83.718053 97.630462 
L 84.333252 96.88878 
L 85.17915 96.100342 
L 86.153215 95.496289 
L 87.443424 94.975852 
L 91.279871 93.80112 
L 95.611896 92.58964 
L 98.670801 91.980698 
L 102.037305 91.544403 
L 106.224075 91.237559 
L 112.17954 91.042585 
L 122.945519 90.947955 
L 165.026823 90.930013 
L 253.53 90.93 
L 253.53 90.93 
" clip-path="url(#p0745d0f2b9)" style="fill: none; stroke: #808080; stroke-width: 1.5; stroke-linecap: square"/>
   </g>
   <g id="line2d_15">
    <path d="M 82.65 51.411152 
L 82.846522 55.715788 
L 82.8807 55.771073 
L 82.931966 55.667416 
L 83.077221 54.642273 
L 83.974386 47.225217 
L 84.461419 45.532157 
L 85.538016 42.865641 
L 87.614312 38.165457 
L 88.955787 35.690257 
L 90.25454 33.749694 
L 91.578926 32.164745 
L 92.963124 30.85169 
L 94.44131 29.754549 
L 96.056206 28.833866 
L 97.85908 28.064821 
L 99.926832 27.429023 
L 102.379082 26.914094 
L 105.420899 26.511947 
L 109.436779 26.218282 
L 115.340979 26.028757 
L 126.269301 25.936776 
L 170.854122 25.920008 
L 253.53 25.92 
L 253.53 25.92 
" clip-path="url(#p0745d0f2b9)" style="fill: none; stroke: #808080; stroke-width: 1.5; stroke-linecap: square"/>
   </g>
   <g id="patch_3">
    <path d="M 82.65 155.94 
L 82.65 25.92 
" style="fill: none; stroke: #000000; stroke-width: 0.8; stroke-linejoin: miter; stroke-linecap: square"/>
   </g>
   <g id="patch_4">
    <path d="M 253.53 155.94 
L 253.53 25.92 
" style="fill: none; stroke: #000000; stroke-width: 0.8; stroke-linejoin: miter; stroke-linecap: square"/>
   </g>
   <g id="patch_5">
    <path d="M 82.65 155.94 
L 253.53 155.94 
" style="fill: none; stroke: #000000; stroke-width: 0.8; stroke-linejoin: miter; stroke-linecap: square"/>
   </g>
   <g id="patch_6">
    <path d="M 82.65 25.92 
L 253.53 25.92 
" style="fill: none; stroke: #000000; stroke-width: 0.8; stroke-linejoin: miter; stroke-linecap: square"/>
   </g>
  </g>
 </g>
 <defs>
  <clipPath id="p0745d0f2b9">
   <rect x="82.65" y="25.92" width="170.88" height="130.02"/>
  </clipPath>
 </defs>
</svg>
