<?xml version="1.0" encoding="utf-8" standalone="no"?>
<!DOCTYPE svg PUBLIC "-//W3C//DTD SVG 1.1//EN"
  "http://www.w3.org/Graphics/SVG/1.1/DTD/svg11.dtd">
<svg xmlns:xlink="http://www.w3.org/1999/xlink" width="288pt" height="216pt" viewBox="0 0 288 216" xmlns="http://www.w3.org/2000/svg" version="1.1">
 <metadata>
  <rdf:RDF xmlns:dc="http://purl.org/dc/elements/1.1/" xmlns:cc="http://creativecommons.org/ns#" xmlns:rdf="http://www.w3.org/1999/02/22-rdf-syntax-ns#">
   <cc:Work>
    <dc:type rdf:resource="http://purl.org/dc/dcmitype/StillImage"/>
    <dc:date>2024-02-12T02:18:11.828297</dc:date>
    <dc:format>image/svg+xml</dc:format>
    <dc:creator>
     <cc:Agent>
      <dc:title>Matplotlib v3.8.2, https://matplotlib.org/</dc:title>
     </cc:Agent>
    </dc:creator>
   </cc:Work>
  </rdf:RDF>
 </metadata>
 <defs>
  <style type="text/css">*{stroke-linejoin: round; stroke-linecap: butt}</style>
 </defs>
 <g id="figure_1">
  <g id="patch_1">
   <path d="M 0 216 
L 288 216 
L 288 0 
L 0 0 
L 0 216 
z
" style="fill: none"/>
  </g>
  <g id="axes_1">
   <g id="patch_2">
    <path d="M 68.52 155.94 
L 253.53 155.94 
L 253.53 19.44 
L 68.52 19.44 
L 68.52 155.94 
z
" style="fill: none"/>
   </g>
   <g id="matplotlib.axis_1">
    <g id="xtick_1">
     <g id="line2d_1">
      <defs>
       <path id="mab76c8db1b" d="M 0 0 
L 0 -3.5 
" style="stroke: #000000; stroke-width: 0.8"/>
      </defs>
      <g>
       <use xlink:href="#mab76c8db1b" x="68.52" y="155.94" style="stroke: #000000; stroke-width: 0.8"/>
      </g>
     </g>
     <g id="text_1">
      <!-- 0 -->
      <g transform="translate(63.515156 172.324062) scale(0.18 -0.18)">
       <defs>
        <path id="ArialMT-30" d="M 266 2259 
Q 266 3072 433 3567 
Q 600 4063 929 4331 
Q 1259 4600 1759 4600 
Q 2128 4600 2406 4451 
Q 2684 4303 2865 4023 
Q 3047 3744 3150 3342 
Q 3253 2941 3253 2259 
Q 3253 1453 3087 958 
Q 2922 463 2592 192 
Q 2263 -78 1759 -78 
Q 1097 -78 719 397 
Q 266 969 266 2259 
z
M 844 2259 
Q 844 1131 1108 757 
Q 1372 384 1759 384 
Q 2147 384 2411 759 
Q 2675 1134 2675 2259 
Q 2675 3391 2411 3762 
Q 2147 4134 1753 4134 
Q 1366 4134 1134 3806 
Q 844 3388 844 2259 
z
" transform="scale(0.015625)"/>
       </defs>
       <use xlink:href="#ArialMT-30"/>
      </g>
     </g>
    </g>
    <g id="xtick_2">
     <g id="line2d_2">
      <g>
       <use xlink:href="#mab76c8db1b" x="161.025" y="155.94" style="stroke: #000000; stroke-width: 0.8"/>
      </g>
     </g>
     <g id="text_2">
      <!-- 50 -->
      <g transform="translate(151.015313 172.324062) scale(0.18 -0.18)">
       <defs>
        <path id="ArialMT-35" d="M 266 1200 
L 856 1250 
Q 922 819 1161 601 
Q 1400 384 1738 384 
Q 2144 384 2425 690 
Q 2706 997 2706 1503 
Q 2706 1984 2436 2262 
Q 2166 2541 1728 2541 
Q 1456 2541 1237 2417 
Q 1019 2294 894 2097 
L 366 2166 
L 809 4519 
L 3088 4519 
L 3088 3981 
L 1259 3981 
L 1013 2750 
Q 1425 3038 1878 3038 
Q 2478 3038 2890 2622 
Q 3303 2206 3303 1553 
Q 3303 931 2941 478 
Q 2500 -78 1738 -78 
Q 1113 -78 717 272 
Q 322 622 266 1200 
z
" transform="scale(0.015625)"/>
       </defs>
       <use xlink:href="#ArialMT-35"/>
       <use xlink:href="#ArialMT-30" x="55.615234"/>
      </g>
     </g>
    </g>
    <g id="xtick_3">
     <g id="line2d_3">
      <g>
       <use xlink:href="#mab76c8db1b" x="253.53" y="155.94" style="stroke: #000000; stroke-width: 0.8"/>
      </g>
     </g>
     <g id="text_3">
      <!-- 100 -->
      <g transform="translate(238.515469 172.324062) scale(0.18 -0.18)">
       <defs>
        <path id="ArialMT-31" d="M 2384 0 
L 1822 0 
L 1822 3584 
Q 1619 3391 1289 3197 
Q 959 3003 697 2906 
L 697 3450 
Q 1169 3672 1522 3987 
Q 1875 4303 2022 4600 
L 2384 4600 
L 2384 0 
z
" transform="scale(0.015625)"/>
       </defs>
       <use xlink:href="#ArialMT-31"/>
       <use xlink:href="#ArialMT-30" x="55.615234"/>
       <use xlink:href="#ArialMT-30" x="111.230469"/>
      </g>
     </g>
    </g>
    <g id="text_4">
     <!-- $t$ -->
     <g transform="translate(157.425 192.785625) scale(0.18 -0.18)">
      <defs>
       <path id="DejaVuSans-Oblique-74" d="M 2706 3500 
L 2619 3053 
L 1472 3053 
L 1100 1153 
Q 1081 1047 1072 975 
Q 1063 903 1063 863 
Q 1063 663 1183 572 
Q 1303 481 1569 481 
L 2150 481 
L 2053 0 
L 1503 0 
Q 991 0 739 200 
Q 488 400 488 806 
Q 488 878 497 964 
Q 506 1050 525 1153 
L 897 3053 
L 409 3053 
L 500 3500 
L 978 3500 
L 1172 4494 
L 1747 4494 
L 1556 3500 
L 2706 3500 
z
" transform="scale(0.015625)"/>
      </defs>
      <use xlink:href="#DejaVuSans-Oblique-74" transform="translate(0 0.78125)"/>
     </g>
    </g>
   </g>
   <g id="matplotlib.axis_2">
    <g id="ytick_1">
     <g id="line2d_4">
      <defs>
       <path id="m9d42920579" d="M 0 0 
L 3.5 0 
" style="stroke: #000000; stroke-width: 0.8"/>
      </defs>
      <g>
       <use xlink:href="#m9d42920579" x="68.52" y="149.735579" style="stroke: #000000; stroke-width: 0.8"/>
      </g>
     </g>
     <g id="text_5">
      <!-- 0.0 -->
      <g transform="translate(40 156.177611) scale(0.18 -0.18)">
       <defs>
        <path id="ArialMT-2e" d="M 581 0 
L 581 641 
L 1222 641 
L 1222 0 
L 581 0 
z
" transform="scale(0.015625)"/>
       </defs>
       <use xlink:href="#ArialMT-30"/>
       <use xlink:href="#ArialMT-2e" x="55.615234"/>
       <use xlink:href="#ArialMT-30" x="83.398438"/>
      </g>
     </g>
    </g>
    <g id="ytick_2">
     <g id="line2d_5">
      <g>
       <use xlink:href="#m9d42920579" x="68.52" y="87.690062" style="stroke: #000000; stroke-width: 0.8"/>
      </g>
     </g>
     <g id="text_6">
      <!-- 0.5 -->
      <g transform="translate(40 94.132094) scale(0.18 -0.18)">
       <use xlink:href="#ArialMT-30"/>
       <use xlink:href="#ArialMT-2e" x="55.615234"/>
       <use xlink:href="#ArialMT-35" x="83.398438"/>
      </g>
     </g>
    </g>
    <g id="ytick_3">
     <g id="line2d_6">
      <g>
       <use xlink:href="#m9d42920579" x="68.52" y="25.644545" style="stroke: #000000; stroke-width: 0.8"/>
      </g>
     </g>
     <g id="text_7">
      <!-- 1.0 -->
      <g transform="translate(40 32.086577) scale(0.18 -0.18)">
       <use xlink:href="#ArialMT-31"/>
       <use xlink:href="#ArialMT-2e" x="55.615234"/>
       <use xlink:href="#ArialMT-30" x="83.398438"/>
      </g>
     </g>
    </g>
    <g id="text_8">
     <!-- $r_i$ -->
     <g transform="translate(32.4225 93.45) rotate(-90) scale(0.18 -0.18)">
      <defs>
       <path id="DejaVuSans-Oblique-72" d="M 2853 2969 
Q 2766 3016 2653 3041 
Q 2541 3066 2413 3066 
Q 1953 3066 1609 2717 
Q 1266 2369 1153 1784 
L 800 0 
L 225 0 
L 909 3500 
L 1484 3500 
L 1375 2956 
Q 1603 3259 1920 3421 
Q 2238 3584 2597 3584 
Q 2691 3584 2781 3573 
Q 2872 3563 2963 3538 
L 2853 2969 
z
" transform="scale(0.015625)"/>
       <path id="DejaVuSans-Oblique-69" d="M 1172 4863 
L 1747 4863 
L 1606 4134 
L 1031 4134 
L 1172 4863 
z
M 909 3500 
L 1484 3500 
L 800 0 
L 225 0 
L 909 3500 
z
" transform="scale(0.015625)"/>
      </defs>
      <use xlink:href="#DejaVuSans-Oblique-72"/>
      <use xlink:href="#DejaVuSans-Oblique-69" transform="translate(41.113281 -16.40625) scale(0.7)"/>
     </g>
    </g>
   </g>
   <g id="line2d_7">
    <path d="M 68.52 25.644545 
L 68.77904 82.07429 
L 69.056583 100.263627 
L 69.352628 106.989912 
L 69.741188 110.812413 
L 70.462799 115.276861 
L 71.609976 121.06328 
L 72.646136 125.182372 
L 73.700798 128.47992 
L 74.829472 131.292552 
L 76.069163 133.788737 
L 77.419871 136.008511 
L 78.863093 137.957901 
L 80.417333 139.686759 
L 82.082589 141.207275 
L 83.877366 142.542944 
L 85.820165 143.708096 
L 87.92949 144.712392 
L 90.279352 145.581912 
L 92.943762 146.325082 
L 96.015236 146.945169 
L 99.6788 147.451129 
L 104.249004 147.848001 
L 110.317939 148.137983 
L 119.291821 148.324136 
L 136.129415 148.413353 
L 208.420051 148.429019 
L 253.53 148.429039 
L 253.53 148.429039 
" clip-path="url(#p3984c72913)" style="fill: none; stroke: #000000; stroke-width: 1.5; stroke-linecap: square"/>
   </g>
   <g id="line2d_8">
    <path d="M 68.52 25.644545 
L 68.945566 55.63926 
L 69.463645 82.981207 
L 69.981725 99.526548 
L 70.536811 110.608058 
L 71.128902 118.230565 
L 71.757999 123.634261 
L 72.442604 127.689585 
L 73.201221 130.881409 
L 74.033849 133.449753 
L 74.977495 135.64792 
L 76.032157 137.550449 
L 77.234842 139.2632 
L 78.585551 140.79841 
L 80.084281 142.165176 
L 81.749538 143.381838 
L 83.599823 144.456245 
L 85.672142 145.399182 
L 88.022004 146.219116 
L 90.72342 146.920112 
L 93.887408 147.505253 
L 97.717498 147.980043 
L 102.565245 148.347093 
L 109.170762 148.609406 
L 119.384335 148.769337 
L 140.866145 148.835368 
L 253.53 148.841848 
L 253.53 148.841848 
" clip-path="url(#p3984c72913)" style="fill: none; stroke: #808080; stroke-width: 1.5; stroke-linecap: square"/>
   </g>
   <g id="line2d_9">
    <path d="M 68.52 25.644545 
L 69.408137 67.926081 
L 70.000228 85.051079 
L 70.629325 97.20676 
L 71.31393 106.304022 
L 72.054044 113.300483 
L 72.86817 118.96019 
L 73.756307 123.628539 
L 74.718455 127.541778 
L 75.754614 130.859201 
L 76.864785 133.691212 
L 78.048968 136.11821 
L 79.307162 138.201714 
L 80.65787 140.012948 
L 82.101092 141.5791 
L 83.655332 142.939876 
L 85.357594 144.133042 
L 87.226382 145.169107 
L 89.317204 146.070336 
L 91.685569 146.844899 
L 94.42399 147.502043 
L 97.680492 148.048722 
L 101.695611 148.488275 
L 106.894911 148.82151 
L 114.203537 149.050188 
L 126.304401 149.178449 
L 157.77775 149.218734 
L 253.53 149.220083 
L 253.53 149.220083 
" clip-path="url(#p3984c72913)" style="fill: none; stroke: #808080; stroke-width: 1.5; stroke-linecap: square"/>
   </g>
   <g id="line2d_10">
    <path d="M 68.52 25.644545 
L 68.834548 56.71234 
L 69.223108 74.170672 
L 69.704182 85.990487 
L 70.314776 95.631512 
L 71.091896 104.394905 
L 71.96153 111.764908 
L 72.905176 117.919226 
L 73.904329 123.001857 
L 74.958992 127.23294 
L 76.05066 130.720165 
L 77.197837 133.658403 
L 78.400522 136.136338 
L 79.658716 138.226469 
L 80.990921 140.011345 
L 82.397138 141.528558 
L 83.914371 142.841201 
L 85.579628 143.985495 
L 87.41141 144.972311 
L 89.483729 145.83144 
L 91.852094 146.567321 
L 94.627522 147.190771 
L 97.976538 147.707026 
L 102.158182 148.116791 
L 107.690534 148.422371 
L 115.720771 148.624793 
L 129.986469 148.729071 
L 178.223399 148.75345 
L 253.53 148.753804 
L 253.53 148.753804 
" clip-path="url(#p3984c72913)" style="fill: none; stroke: #808080; stroke-width: 1.5; stroke-linecap: square"/>
   </g>
   <g id="line2d_11">
    <path d="M 68.52 25.644545 
L 69.29712 61.94503 
L 69.870708 77.459112 
L 70.518308 89.180419 
L 71.258422 98.685964 
L 72.09105 106.606309 
L 72.99769 113.189565 
L 73.978341 118.733519 
L 75.0145 123.356902 
L 76.106169 127.243666 
L 77.253345 130.52774 
L 78.456031 133.311154 
L 79.714224 135.674093 
L 81.04643 137.706532 
L 82.452646 139.44709 
L 83.951377 140.947394 
L 85.561125 142.242632 
L 87.318896 143.368025 
L 89.261695 144.343045 
L 91.445032 145.18436 
L 93.942916 145.902624 
L 96.866367 146.50569 
L 100.400411 146.999897 
L 104.841095 147.386846 
L 110.799013 147.669455 
L 119.717387 147.849583 
L 136.851026 147.933648 
L 218.615122 147.947995 
L 253.53 147.948056 
L 253.53 147.948056 
" clip-path="url(#p3984c72913)" style="fill: none; stroke: #808080; stroke-width: 1.5; stroke-linecap: square"/>
   </g>
   <g id="line2d_12">
    <path d="M 68.52 25.644545 
L 68.77904 113.187144 
L 69.075086 147.694706 
L 69.112091 149.34575 
L 69.149097 147.164884 
L 69.482148 134.83219 
L 69.852205 128.77823 
L 70.222262 125.972047 
L 70.573816 124.789681 
L 70.869862 124.442436 
L 71.128902 124.448538 
L 71.44345 124.711738 
L 71.943027 125.474384 
L 72.942181 127.510124 
L 75.181026 132.058841 
L 76.716763 134.64743 
L 78.271002 136.837786 
L 79.88075 138.726517 
L 81.564509 140.36385 
L 83.359286 141.799191 
L 85.26508 143.039305 
L 87.337399 144.120584 
L 89.613249 145.053342 
L 92.14814 145.848156 
L 95.053087 146.520302 
L 98.457612 147.073338 
L 102.620753 147.515412 
L 107.968077 147.84832 
L 115.480234 148.076704 
L 127.914149 148.204652 
L 160.31264 148.244924 
L 253.53 148.246095 
L 253.53 148.246095 
" clip-path="url(#p3984c72913)" style="fill: none; stroke: #808080; stroke-width: 1.5; stroke-linecap: square"/>
   </g>
   <g id="line2d_13">
    <path d="M 68.52 25.644545 
L 69.001074 93.567485 
L 69.445143 126.896186 
L 69.889211 144.761155 
L 70.092742 149.608083 
L 70.129748 148.830096 
L 70.555314 142.33627 
L 70.980879 138.903992 
L 71.387942 137.240058 
L 71.757999 136.528796 
L 72.109553 136.28209 
L 72.47961 136.30235 
L 72.960684 136.582727 
L 73.756307 137.350558 
L 77.789928 141.572658 
L 79.603207 143.010515 
L 81.527504 144.252257 
L 83.618326 145.335217 
L 85.912679 146.2708 
L 88.484575 147.074459 
L 91.408026 147.749304 
L 94.831053 148.304685 
L 98.994194 148.746555 
L 104.341518 149.079316 
L 111.835173 149.306639 
L 124.269088 149.43346 
L 156.982127 149.472418 
L 253.53 149.47334 
L 253.53 149.47334 
" clip-path="url(#p3984c72913)" style="fill: none; stroke: #808080; stroke-width: 1.5; stroke-linecap: square"/>
   </g>
   <g id="line2d_14">
    <path d="M 68.52 25.644545 
L 68.853051 71.588321 
L 69.241611 96.208169 
L 69.667177 109.814229 
L 70.129748 117.869952 
L 70.647828 123.17237 
L 71.239919 127.039512 
L 71.943027 130.21573 
L 72.794158 133.038816 
L 73.756307 135.475648 
L 74.829472 137.598638 
L 76.013654 139.450446 
L 77.327357 141.089011 
L 78.789082 142.552693 
L 80.417333 143.86518 
L 82.230612 145.038052 
L 84.247423 146.074285 
L 86.50477 146.979228 
L 89.039661 147.751993 
L 91.963111 148.405518 
L 95.423144 148.943716 
L 99.660297 149.36912 
L 105.174146 149.687143 
L 107.875563 149.688292 
L 117.293513 149.515341 
L 135.888878 149.438568 
L 241.188599 149.428796 
L 253.53 149.428795 
L 253.53 149.428795 
" clip-path="url(#p3984c72913)" style="fill: none; stroke: #808080; stroke-width: 1.5; stroke-linecap: square"/>
   </g>
   <g id="line2d_15">
    <path d="M 68.52 25.644545 
L 68.945566 79.631123 
L 69.389634 109.629591 
L 69.833702 126.04698 
L 70.296274 135.46779 
L 70.758845 140.675531 
L 71.221416 143.610777 
L 71.70249 145.345405 
L 72.202067 146.358299 
L 72.720147 146.933582 
L 73.312238 147.261743 
L 74.070855 147.413887 
L 75.27354 147.398888 
L 79.695722 147.207592 
L 83.06324 147.384353 
L 96.274275 148.259511 
L 104.748581 148.485424 
L 118.588713 148.602329 
L 158.961932 148.634165 
L 253.53 148.634902 
L 253.53 148.634902 
" clip-path="url(#p3984c72913)" style="fill: none; stroke: #808080; stroke-width: 1.5; stroke-linecap: square"/>
   </g>
   <g id="line2d_16">
    <path d="M 68.52 25.644545 
L 68.982571 51.299795 
L 69.55616 71.453941 
L 70.166754 85.561969 
L 70.832856 96.058165 
L 71.57297 104.33664 
L 72.387096 111.050409 
L 73.293735 116.72025 
L 74.274386 121.464382 
L 75.310546 125.413661 
L 76.420717 128.792613 
L 77.604899 131.69414 
L 78.84459 134.15664 
L 80.158293 136.281667 
L 81.546007 138.111134 
L 83.026235 139.698293 
L 84.61748 141.078077 
L 86.338245 142.274045 
L 88.225536 143.311994 
L 90.316358 144.205869 
L 92.684722 144.973829 
L 95.441647 145.628057 
L 98.716652 146.169115 
L 102.750273 146.601144 
L 107.98658 146.92682 
L 115.406223 147.148764 
L 127.895647 147.271122 
L 162.310948 147.308229 
L 253.53 147.309899 
L 253.53 147.309899 
" clip-path="url(#p3984c72913)" style="fill: none; stroke: #808080; stroke-width: 1.5; stroke-linecap: square"/>
   </g>
   <g id="line2d_17">
    <path d="M 68.52 25.644545 
L 68.816046 73.446789 
L 69.149097 95.689393 
L 69.519154 107.382027 
L 69.926217 113.791074 
L 70.351782 117.220902 
L 70.814353 119.216912 
L 71.369439 120.627651 
L 72.442604 122.598418 
L 74.903483 127.205535 
L 77.049814 131.009126 
L 78.789082 133.643083 
L 80.491344 135.822187 
L 82.212109 137.667576 
L 83.988383 139.249915 
L 85.857171 140.618067 
L 87.855479 141.803543 
L 90.020312 142.825629 
L 92.40718 143.702022 
L 95.090093 144.445278 
L 98.180069 145.065516 
L 101.880639 145.573534 
L 106.487849 145.970866 
L 112.593789 146.260733 
L 121.641683 146.447544 
L 138.590294 146.537486 
L 210.288839 146.553702 
L 253.53 146.553727 
L 253.53 146.553727 
" clip-path="url(#p3984c72913)" style="fill: none; stroke: #808080; stroke-width: 1.5; stroke-linecap: square"/>
   </g>
   <g id="line2d_18">
    <path d="M 68.52 25.644545 
L 69.001074 50.508488 
L 69.574662 69.14082 
L 70.240765 83.780626 
L 70.962376 94.956434 
L 71.720993 103.435232 
L 72.498113 109.776178 
L 73.293735 114.532876 
L 74.089358 118.019606 
L 74.903483 120.627364 
L 75.717609 122.523276 
L 76.550237 123.92415 
L 77.419871 124.965714 
L 78.345014 125.735971 
L 79.381173 126.31155 
L 80.602361 126.732221 
L 82.156601 127.022944 
L 84.376943 127.193517 
L 88.503078 127.2473 
L 116.516394 127.354138 
L 157.962778 127.422751 
L 253.53 127.428468 
L 253.53 127.428468 
" clip-path="url(#p3984c72913)" style="fill: none; stroke: #808080; stroke-width: 1.5; stroke-linecap: square"/>
   </g>
   <g id="line2d_19">
    <path d="M 68.52 25.644545 
L 68.871554 73.275144 
L 69.29712 102.390558 
L 69.759691 119.750573 
L 70.240765 130.085891 
L 70.721839 136.121643 
L 71.202913 139.655349 
L 71.683987 141.673377 
L 72.146559 142.722696 
L 72.572124 143.193149 
L 72.99769 143.352911 
L 73.478764 143.290678 
L 74.144866 142.953038 
L 75.310546 142.060809 
L 77.974956 139.998923 
L 79.695722 138.976873 
L 81.509001 138.160204 
L 83.544314 137.492131 
L 85.931182 136.94969 
L 88.873135 136.519182 
L 92.703225 136.19556 
L 98.180069 135.973161 
L 107.33898 135.851414 
L 130.911611 135.829822 
L 253.53 135.844494 
L 253.53 135.844494 
" clip-path="url(#p3984c72913)" style="fill: none; stroke: #808080; stroke-width: 1.5; stroke-linecap: square"/>
   </g>
   <g id="line2d_20">
    <path d="M 68.52 25.644545 
L 68.797543 78.204441 
L 69.112091 100.66282 
L 69.482148 112.457806 
L 69.944719 120.207185 
L 70.499805 125.910642 
L 71.128902 130.184325 
L 71.776502 133.137416 
L 72.442604 135.19214 
L 73.145713 136.67102 
L 73.922832 137.798727 
L 74.847975 138.741965 
L 76.05066 139.633909 
L 77.826934 140.650953 
L 80.472841 141.896229 
L 83.414794 143.03982 
L 86.393753 143.958358 
L 89.557741 144.697601 
L 93.091785 145.29041 
L 97.273429 145.758732 
L 102.509736 146.110655 
L 109.670339 146.353608 
L 121.123603 146.494254 
L 148.322793 146.545399 
L 253.53 146.549522 
L 253.53 146.549522 
" clip-path="url(#p3984c72913)" style="fill: none; stroke: #808080; stroke-width: 1.5; stroke-linecap: square"/>
   </g>
   <g id="line2d_21">
    <path d="M 68.52 25.644545 
L 69.019577 64.966941 
L 69.482148 85.183913 
L 69.981725 98.080861 
L 70.536811 107.036653 
L 71.165908 113.718028 
L 71.869016 118.856882 
L 72.646136 122.920194 
L 73.497267 126.213705 
L 74.440912 128.995488 
L 75.495575 131.421112 
L 76.679757 133.587716 
L 77.993459 135.52868 
L 79.436682 137.266777 
L 81.009424 138.814365 
L 82.711686 140.177788 
L 84.561971 141.372795 
L 86.578782 142.408053 
L 88.817627 143.303006 
L 91.334014 144.064822 
L 94.238962 144.706048 
L 97.680492 145.231176 
L 101.936148 145.646433 
L 107.505506 145.954102 
L 115.554245 146.157721 
L 129.80144 146.262956 
L 177.594302 146.289613 
L 253.53 146.290414 
L 253.53 146.290414 
" clip-path="url(#p3984c72913)" style="fill: none; stroke: #808080; stroke-width: 1.5; stroke-linecap: square"/>
   </g>
   <g id="line2d_22">
    <path d="M 68.52 25.644545 
L 69.001074 45.631943 
L 69.55616 59.841128 
L 70.166754 70.096364 
L 70.851359 78.023833 
L 71.609976 84.297185 
L 72.442604 89.378218 
L 73.349244 93.586218 
L 74.348398 97.196632 
L 75.440066 100.316427 
L 76.605746 102.982709 
L 77.845437 105.270984 
L 79.159139 107.235817 
L 80.565356 108.940356 
L 82.064086 110.409232 
L 83.692337 111.692947 
L 85.468611 112.809868 
L 87.448416 113.790498 
L 89.687261 114.648365 
L 92.27766 115.397144 
L 95.312127 116.036914 
L 98.975692 116.574846 
L 103.545896 117.01181 
L 109.522316 117.34803 
L 117.978119 117.584757 
L 131.873759 117.724966 
L 165.104878 117.778396 
L 253.53 117.782772 
L 253.53 117.782772 
" clip-path="url(#p3984c72913)" style="fill: none; stroke: #808080; stroke-width: 1.5; stroke-linecap: square"/>
   </g>
   <g id="line2d_23">
    <path d="M 68.52 25.644545 
L 69.03808 47.467773 
L 69.593165 62.054625 
L 70.222262 72.969996 
L 70.925371 81.378029 
L 71.683987 87.878417 
L 72.516616 93.144855 
L 73.404752 97.381483 
L 74.348398 100.839104 
L 75.347552 103.688065 
L 76.420717 106.087117 
L 77.549391 108.076018 
L 78.752076 109.754429 
L 80.047276 111.187168 
L 81.471995 112.432364 
L 83.044737 113.511511 
L 84.821011 114.459036 
L 86.874827 115.297022 
L 89.280198 116.030984 
L 92.14814 116.666301 
L 95.663681 117.208472 
L 100.085863 117.655416 
L 105.895758 118.006717 
L 114.037012 118.260361 
L 126.989007 118.417578 
L 154.909808 118.485258 
L 253.53 118.493894 
L 253.53 118.493894 
" clip-path="url(#p3984c72913)" style="fill: none; stroke: #808080; stroke-width: 1.5; stroke-linecap: square"/>
   </g>
   <g id="line2d_24">
    <path d="M 68.52 25.644545 
L 68.871554 67.430557 
L 69.29712 93.289838 
L 69.778194 109.867612 
L 70.314776 121.156924 
L 70.925371 129.461373 
L 71.609976 135.809123 
L 72.368593 140.844163 
L 73.201221 144.932474 
L 74.089358 148.218588 
L 74.588935 149.713497 
L 74.625941 149.655333 
L 75.588089 147.336826 
L 76.587243 145.49119 
L 77.641905 143.995837 
L 78.770579 142.771859 
L 80.01027 141.753082 
L 81.397984 140.902481 
L 82.989229 140.191503 
L 84.87652 139.597176 
L 87.207879 139.105004 
L 90.205341 138.710589 
L 94.312973 138.409065 
L 100.474422 138.199949 
L 111.335596 138.084512 
L 141.661767 138.061781 
L 253.53 138.069135 
L 253.53 138.069135 
" clip-path="url(#p3984c72913)" style="fill: none; stroke: #808080; stroke-width: 1.5; stroke-linecap: square"/>
   </g>
   <g id="line2d_25">
    <path d="M 68.52 25.644545 
L 68.816046 94.768995 
L 69.1676 129.819272 
L 69.537657 146.816432 
L 69.648674 149.593917 
L 69.68568 148.717039 
L 70.055737 142.798624 
L 70.407291 140.20362 
L 70.740342 139.127024 
L 71.05489 138.74895 
L 71.387942 138.689772 
L 71.887519 138.874479 
L 73.885827 139.773148 
L 86.930336 143.780148 
L 90.371866 144.510259 
L 94.16495 145.082493 
L 98.64264 145.525402 
L 104.323015 145.8523 
L 112.279241 146.070639 
L 125.767819 146.188798 
L 164.605302 146.223738 
L 253.53 146.225152 
L 253.53 146.225152 
" clip-path="url(#p3984c72913)" style="fill: none; stroke: #808080; stroke-width: 1.5; stroke-linecap: square"/>
   </g>
   <g id="line2d_26">
    <path d="M 68.52 25.644545 
L 68.927063 67.280835 
L 69.42664 96.316232 
L 69.981725 116.364776 
L 70.573816 130.293813 
L 71.18441 139.813406 
L 71.813507 146.326372 
L 72.294581 149.693379 
L 72.313084 149.581163 
L 72.942181 146.477439 
L 73.571278 144.436652 
L 74.200375 143.108502 
L 74.847975 142.239463 
L 75.53258 141.684861 
L 76.3097 141.346928 
L 77.253345 141.188433 
L 78.567048 141.209857 
L 80.990921 141.513794 
L 86.615788 142.22716 
L 91.297009 142.564831 
L 97.495464 142.773572 
L 107.820054 142.868266 
L 149.229433 142.8712 
L 253.53 142.874545 
L 253.53 142.874545 
" clip-path="url(#p3984c72913)" style="fill: none; stroke: #808080; stroke-width: 1.5; stroke-linecap: square"/>
   </g>
   <g id="line2d_27">
    <path d="M 68.52 25.644545 
L 69.019577 46.438769 
L 69.55616 60.150834 
L 70.166754 70.273641 
L 70.832856 77.762871 
L 71.57297 83.634361 
L 72.368593 88.239525 
L 73.238227 92.023897 
L 74.200375 95.23821 
L 75.236535 97.943772 
L 76.365209 100.280197 
L 77.586397 102.299929 
L 78.900099 104.042853 
L 80.306316 105.540947 
L 81.823549 106.835858 
L 83.488806 107.966442 
L 85.357594 108.962764 
L 87.466919 109.830554 
L 89.909295 110.588388 
L 92.777237 111.239386 
L 96.255773 111.793549 
L 100.603942 112.251575 
L 106.265815 112.61272 
L 114.129526 112.876357 
L 126.415419 113.043276 
L 151.653306 113.119524 
L 253.53 113.131645 
L 253.53 113.131645 
" clip-path="url(#p3984c72913)" style="fill: none; stroke: #808080; stroke-width: 1.5; stroke-linecap: square"/>
   </g>
   <g id="line2d_28">
    <path d="M 68.52 25.644545 
L 68.90856 47.852248 
L 69.371131 62.147781 
L 69.907714 72.25892 
L 70.536811 80.023164 
L 71.239919 85.995346 
L 72.017039 90.738578 
L 72.86817 94.601168 
L 73.811815 97.863904 
L 74.829472 100.594231 
L 75.92114 102.901362 
L 77.105323 104.888837 
L 78.363516 106.573504 
L 79.732727 108.037474 
L 81.212955 109.297124 
L 82.859709 110.404321 
L 84.691491 111.365954 
L 86.782313 112.209327 
L 89.224689 112.948443 
L 92.129637 113.587134 
L 95.663681 114.12807 
L 100.104365 114.573659 
L 105.951266 114.924658 
L 114.148029 115.178279 
L 127.211041 115.335984 
L 155.335374 115.404179 
L 253.53 115.413078 
L 253.53 115.413078 
" clip-path="url(#p3984c72913)" style="fill: none; stroke: #808080; stroke-width: 1.5; stroke-linecap: square"/>
   </g>
   <g id="line2d_29">
    <path d="M 68.52 25.644545 
L 69.093588 63.064368 
L 69.704182 88.818682 
L 70.351782 107.3643 
L 71.036388 120.980327 
L 71.739496 130.811152 
L 72.47961 138.162386 
L 73.238227 143.583508 
L 74.033849 147.742385 
L 74.514923 149.722234 
L 74.551929 149.610041 
L 75.421563 146.79368 
L 76.346706 144.527086 
L 77.34586 142.66083 
L 78.419025 141.125042 
L 79.584704 139.843452 
L 80.879904 138.752757 
L 82.341629 137.818421 
L 84.006886 137.021177 
L 85.986691 136.326895 
L 88.373558 135.734147 
L 91.334014 135.237318 
L 95.145602 134.834671 
L 100.270891 134.53023 
L 107.783048 134.32534 
L 120.883066 134.221794 
L 163.791176 134.210201 
L 253.53 134.213595 
L 253.53 134.213595 
" clip-path="url(#p3984c72913)" style="fill: none; stroke: #808080; stroke-width: 1.5; stroke-linecap: square"/>
   </g>
   <g id="line2d_30">
    <path d="M 68.52 25.644545 
L 68.853051 74.527722 
L 69.241611 101.847986 
L 69.667177 117.327465 
L 70.111245 125.937638 
L 70.555314 130.663699 
L 71.036388 133.543004 
L 71.554467 135.345744 
L 72.183564 136.720757 
L 73.145713 138.23288 
L 77.234842 143.926949 
L 79.418179 146.626707 
L 81.397984 148.726427 
L 82.526658 149.695497 
L 84.506463 148.094004 
L 86.560279 146.718984 
L 88.725113 145.537927 
L 91.056472 144.521046 
L 93.609865 143.652004 
L 96.477807 142.914165 
L 99.789817 142.297395 
L 103.730924 141.797102 
L 108.634179 141.408301 
L 115.165686 141.126949 
L 124.916688 140.950191 
L 143.697081 140.872237 
L 248.53423 140.86644 
L 253.53 140.866453 
L 253.53 140.866453 
" clip-path="url(#p3984c72913)" style="fill: none; stroke: #808080; stroke-width: 1.5; stroke-linecap: square"/>
   </g>
   <g id="line2d_31">
    <path d="M 68.52 25.644545 
L 68.871554 76.066219 
L 69.29712 107.661939 
L 69.778194 127.910145 
L 70.277771 140.335672 
L 70.795851 148.074762 
L 70.943873 149.649947 
L 70.999382 149.287676 
L 71.517462 145.516927 
L 72.017039 143.393411 
L 72.498113 142.252618 
L 72.942181 141.724319 
L 73.367747 141.542403 
L 73.830318 141.594583 
L 74.403906 141.902407 
L 75.218032 142.61826 
L 76.624248 144.200739 
L 80.454338 148.593378 
L 81.657024 149.682429 
L 83.71084 147.886495 
L 85.783159 146.369296 
L 87.92949 145.073304 
L 90.205341 143.959374 
L 92.66622 143.003704 
L 95.386139 142.188218 
L 98.476115 141.49857 
L 102.08417 140.928205 
L 106.450843 140.472285 
L 112.001698 140.127449 
L 119.680381 139.88908 
L 132.021782 139.753974 
L 161.829874 139.712774 
L 253.53 139.714807 
L 253.53 139.714807 
" clip-path="url(#p3984c72913)" style="fill: none; stroke: #808080; stroke-width: 1.5; stroke-linecap: square"/>
   </g>
   <g id="patch_3">
    <path d="M 68.52 155.94 
L 68.52 19.44 
" style="fill: none; stroke: #000000; stroke-width: 0.8; stroke-linejoin: miter; stroke-linecap: square"/>
   </g>
   <g id="patch_4">
    <path d="M 253.53 155.94 
L 253.53 19.44 
" style="fill: none; stroke: #000000; stroke-width: 0.8; stroke-linejoin: miter; stroke-linecap: square"/>
   </g>
   <g id="patch_5">
    <path d="M 68.52 155.94 
L 253.53 155.94 
" style="fill: none; stroke: #000000; stroke-width: 0.8; stroke-linejoin: miter; stroke-linecap: square"/>
   </g>
   <g id="patch_6">
    <path d="M 68.52 19.44 
L 253.53 19.44 
" style="fill: none; stroke: #000000; stroke-width: 0.8; stroke-linejoin: miter; stroke-linecap: square"/>
   </g>
  </g>
 </g>
 <defs>
  <clipPath id="p3984c72913">
   <rect x="68.52" y="19.44" width="185.01" height="136.5"/>
  </clipPath>
 </defs>
</svg>
