<?xml version="1.0" encoding="utf-8" standalone="no"?>
<!DOCTYPE svg PUBLIC "-//W3C//DTD SVG 1.1//EN"
  "http://www.w3.org/Graphics/SVG/1.1/DTD/svg11.dtd">
<svg xmlns:xlink="http://www.w3.org/1999/xlink" width="288pt" height="216pt" viewBox="0 0 288 216" xmlns="http://www.w3.org/2000/svg" version="1.1">
 <metadata>
  <rdf:RDF xmlns:dc="http://purl.org/dc/elements/1.1/" xmlns:cc="http://creativecommons.org/ns#" xmlns:rdf="http://www.w3.org/1999/02/22-rdf-syntax-ns#">
   <cc:Work>
    <dc:type rdf:resource="http://purl.org/dc/dcmitype/StillImage"/>
    <dc:date>2024-02-23T13:11:05.094534</dc:date>
    <dc:format>image/svg+xml</dc:format>
    <dc:creator>
     <cc:Agent>
      <dc:title>Matplotlib v3.7.2, https://matplotlib.org/</dc:title>
     </cc:Agent>
    </dc:creator>
   </cc:Work>
  </rdf:RDF>
 </metadata>
 <defs>
  <style type="text/css">*{stroke-linejoin: round; stroke-linecap: butt}</style>
 </defs>
 <g id="figure_1">
  <g id="patch_1">
   <path d="M 0 216 
L 288 216 
L 288 0 
L 0 0 
L 0 216 
z
" style="fill: none"/>
  </g>
  <g id="axes_1">
   <g id="patch_2">
    <path d="M 67.71 155.94 
L 253.53 155.94 
L 253.53 19.44 
L 67.71 19.44 
L 67.71 155.94 
z
" style="fill: none"/>
   </g>
   <g id="matplotlib.axis_1">
    <g id="xtick_1">
     <g id="line2d_1">
      <defs>
       <path id="mdb59d1325e" d="M 0 0 
L 0 -3.5 
" style="stroke: #000000; stroke-width: 0.8"/>
      </defs>
      <g>
       <use xlink:href="#mdb59d1325e" x="67.71" y="155.94" style="stroke: #000000; stroke-width: 0.8"/>
      </g>
     </g>
     <g id="text_1">
      <!-- 0 -->
      <g transform="translate(62.705156 172.324062) scale(0.18 -0.18)">
       <defs>
        <path id="ArialMT-30" d="M 266 2259 
Q 266 3072 433 3567 
Q 600 4063 929 4331 
Q 1259 4600 1759 4600 
Q 2128 4600 2406 4451 
Q 2684 4303 2865 4023 
Q 3047 3744 3150 3342 
Q 3253 2941 3253 2259 
Q 3253 1453 3087 958 
Q 2922 463 2592 192 
Q 2263 -78 1759 -78 
Q 1097 -78 719 397 
Q 266 969 266 2259 
z
M 844 2259 
Q 844 1131 1108 757 
Q 1372 384 1759 384 
Q 2147 384 2411 759 
Q 2675 1134 2675 2259 
Q 2675 3391 2411 3762 
Q 2147 4134 1753 4134 
Q 1366 4134 1134 3806 
Q 844 3388 844 2259 
z
" transform="scale(0.015625)"/>
       </defs>
       <use xlink:href="#ArialMT-30"/>
      </g>
     </g>
    </g>
    <g id="xtick_2">
     <g id="line2d_2">
      <g>
       <use xlink:href="#mdb59d1325e" x="160.62" y="155.94" style="stroke: #000000; stroke-width: 0.8"/>
      </g>
     </g>
     <g id="text_2">
      <!-- 100 -->
      <g transform="translate(145.605469 172.324062) scale(0.18 -0.18)">
       <defs>
        <path id="ArialMT-31" d="M 2384 0 
L 1822 0 
L 1822 3584 
Q 1619 3391 1289 3197 
Q 959 3003 697 2906 
L 697 3450 
Q 1169 3672 1522 3987 
Q 1875 4303 2022 4600 
L 2384 4600 
L 2384 0 
z
" transform="scale(0.015625)"/>
       </defs>
       <use xlink:href="#ArialMT-31"/>
       <use xlink:href="#ArialMT-30" x="55.615234"/>
       <use xlink:href="#ArialMT-30" x="111.230469"/>
      </g>
     </g>
    </g>
    <g id="xtick_3">
     <g id="line2d_3">
      <g>
       <use xlink:href="#mdb59d1325e" x="253.53" y="155.94" style="stroke: #000000; stroke-width: 0.8"/>
      </g>
     </g>
     <g id="text_3">
      <!-- 200 -->
      <g transform="translate(238.515469 172.324062) scale(0.18 -0.18)">
       <defs>
        <path id="ArialMT-32" d="M 3222 541 
L 3222 0 
L 194 0 
Q 188 203 259 391 
Q 375 700 629 1000 
Q 884 1300 1366 1694 
Q 2113 2306 2375 2664 
Q 2638 3022 2638 3341 
Q 2638 3675 2398 3904 
Q 2159 4134 1775 4134 
Q 1369 4134 1125 3890 
Q 881 3647 878 3216 
L 300 3275 
Q 359 3922 746 4261 
Q 1134 4600 1788 4600 
Q 2447 4600 2831 4234 
Q 3216 3869 3216 3328 
Q 3216 3053 3103 2787 
Q 2991 2522 2730 2228 
Q 2469 1934 1863 1422 
Q 1356 997 1212 845 
Q 1069 694 975 541 
L 3222 541 
z
" transform="scale(0.015625)"/>
       </defs>
       <use xlink:href="#ArialMT-32"/>
       <use xlink:href="#ArialMT-30" x="55.615234"/>
       <use xlink:href="#ArialMT-30" x="111.230469"/>
      </g>
     </g>
    </g>
    <g id="text_4">
     <!-- $t$ -->
     <g transform="translate(157.02 192.785625) scale(0.18 -0.18)">
      <defs>
       <path id="DejaVuSans-Oblique-74" d="M 2706 3500 
L 2619 3053 
L 1472 3053 
L 1100 1153 
Q 1081 1047 1072 975 
Q 1063 903 1063 863 
Q 1063 663 1183 572 
Q 1303 481 1569 481 
L 2150 481 
L 2053 0 
L 1503 0 
Q 991 0 739 200 
Q 488 400 488 806 
Q 488 878 497 964 
Q 506 1050 525 1153 
L 897 3053 
L 409 3053 
L 500 3500 
L 978 3500 
L 1172 4494 
L 1747 4494 
L 1556 3500 
L 2706 3500 
z
" transform="scale(0.015625)"/>
      </defs>
      <use xlink:href="#DejaVuSans-Oblique-74" transform="translate(0 0.78125)"/>
     </g>
    </g>
   </g>
   <g id="matplotlib.axis_2">
    <g id="ytick_1">
     <g id="line2d_4">
      <defs>
       <path id="mfefd08f935" d="M 0 0 
L 3.5 0 
" style="stroke: #000000; stroke-width: 0.8"/>
      </defs>
      <g>
       <use xlink:href="#mfefd08f935" x="67.71" y="149.738717" style="stroke: #000000; stroke-width: 0.8"/>
      </g>
     </g>
     <g id="text_5">
      <!-- −2 -->
      <g transform="translate(43.687188 156.180749) scale(0.18 -0.18)">
       <defs>
        <path id="ArialMT-2212" d="M 3381 1997 
L 356 1997 
L 356 2522 
L 3381 2522 
L 3381 1997 
z
" transform="scale(0.015625)"/>
       </defs>
       <use xlink:href="#ArialMT-2212"/>
       <use xlink:href="#ArialMT-32" x="58.398438"/>
      </g>
     </g>
    </g>
    <g id="ytick_2">
     <g id="line2d_5">
      <g>
       <use xlink:href="#mfefd08f935" x="67.71" y="87.691076" style="stroke: #000000; stroke-width: 0.8"/>
      </g>
     </g>
     <g id="text_6">
      <!-- −1 -->
      <g transform="translate(43.687188 94.133107) scale(0.18 -0.18)">
       <use xlink:href="#ArialMT-2212"/>
       <use xlink:href="#ArialMT-31" x="58.398438"/>
      </g>
     </g>
    </g>
    <g id="ytick_3">
     <g id="line2d_6">
      <g>
       <use xlink:href="#mfefd08f935" x="67.71" y="25.643435" style="stroke: #000000; stroke-width: 0.8"/>
      </g>
     </g>
     <g id="text_7">
      <!-- 0 -->
      <g transform="translate(54.200313 32.085466) scale(0.18 -0.18)">
       <use xlink:href="#ArialMT-30"/>
      </g>
     </g>
    </g>
    <g id="text_8">
     <!-- $\phi$ -->
     <g transform="translate(35.907188 93.63) rotate(-90) scale(0.18 -0.18)">
      <defs>
       <path id="DejaVuSans-Oblique-3d5" d="M 2991 4863 
L 2738 3572 
Q 3363 3572 3684 3094 
Q 4016 2606 3850 1747 
Q 3681 888 3159 400 
Q 2653 -78 2028 -78 
L 1784 -1331 
L 1213 -1331 
L 1456 -78 
Q 834 -78 509 400 
Q 178 888 347 1747 
Q 513 2606 1034 3094 
Q 1544 3572 2166 3572 
L 2419 4863 
L 2991 4863 
z
M 2128 434 
Q 2481 434 2784 756 
Q 3116 1116 3244 1747 
Q 3369 2372 3169 2738 
Q 2991 3059 2638 3059 
L 2128 434 
z
M 1556 434 
L 2066 3059 
Q 1716 3059 1413 2738 
Q 1072 2372 953 1747 
Q 834 1116 1028 756 
Q 1203 434 1556 434 
z
" transform="scale(0.015625)"/>
      </defs>
      <use xlink:href="#DejaVuSans-Oblique-3d5" transform="translate(0 0.015625)"/>
     </g>
    </g>
   </g>
   <g id="line2d_7">
    <path d="M 67.71 68.033016 
L 67.886538 83.783652 
L 69.205926 149.279839 
L 69.215217 25.644545 
L 69.317423 30.704424 
L 71.714621 149.381577 
L 71.723913 25.746283 
L 71.826119 30.806162 
L 74.223317 149.483312 
L 74.232608 25.848018 
L 74.334814 30.907897 
L 76.732012 149.585046 
L 76.741304 25.949752 
L 76.84351 31.00963 
L 79.240708 149.686779 
L 79.249999 26.051485 
L 79.352205 31.111364 
L 81.740112 149.328523 
L 81.749403 25.693229 
L 81.851609 30.753108 
L 84.248807 149.430256 
L 84.258098 25.794962 
L 84.360305 30.854841 
L 86.757502 149.531989 
L 86.766794 25.896695 
L 86.869 30.956573 
L 89.266198 149.633722 
L 89.275489 25.998428 
L 89.377695 31.058306 
L 91.774893 149.735455 
L 91.784185 26.100161 
L 91.886391 31.160039 
L 94.274297 149.377198 
L 94.283589 25.741905 
L 94.385795 30.801783 
L 96.782993 149.478931 
L 96.792284 25.843638 
L 96.89449 30.903516 
L 99.291688 149.580664 
L 99.30098 25.94537 
L 99.403186 31.005249 
L 101.800384 149.682397 
L 101.809675 26.047103 
L 101.911881 31.106982 
L 104.299787 149.324141 
L 104.309079 25.688847 
L 104.411285 30.748726 
L 106.808483 149.425874 
L 106.817774 25.79058 
L 106.91998 30.850458 
L 109.317178 149.527607 
L 109.32647 25.892313 
L 109.428676 30.952191 
L 111.825874 149.62934 
L 111.835165 25.994046 
L 111.937371 31.053924 
L 114.334569 149.731072 
L 114.343861 26.095779 
L 114.446067 31.155657 
L 116.833973 149.372816 
L 116.843265 25.737523 
L 116.945471 30.797401 
L 119.342669 149.474549 
L 119.35196 25.839255 
L 119.454166 30.899134 
L 121.851364 149.576282 
L 121.860656 25.940988 
L 121.962862 31.000867 
L 124.36006 149.678015 
L 124.369351 26.042721 
L 124.471557 31.1026 
L 126.859463 149.319759 
L 126.868755 25.684465 
L 126.970961 30.744343 
L 129.368159 149.421492 
L 129.37745 25.786198 
L 129.479656 30.846076 
L 131.876854 149.523224 
L 131.886146 25.887931 
L 131.988352 30.947809 
L 134.38555 149.624957 
L 134.394841 25.989664 
L 134.497047 31.049542 
L 136.894245 149.72669 
L 136.903537 26.091396 
L 137.005743 31.151275 
L 139.393649 149.368434 
L 139.402941 25.73314 
L 139.505147 30.793019 
L 141.902345 149.470167 
L 141.911636 25.834873 
L 142.013842 30.894752 
L 144.41104 149.5719 
L 144.420332 25.936606 
L 144.522538 30.996485 
L 146.919735 149.673633 
L 146.929027 26.038339 
L 147.031233 31.098217 
L 149.419139 149.315377 
L 149.428431 25.680083 
L 149.530637 30.739961 
L 151.927835 149.417109 
L 151.937126 25.781816 
L 152.039332 30.841694 
L 154.43653 149.518842 
L 154.445822 25.883549 
L 154.548028 30.943427 
L 156.945226 149.620575 
L 156.954517 25.985281 
L 157.056723 31.04516 
L 159.453921 149.722308 
L 159.463213 26.087014 
L 159.565419 31.146893 
L 161.953325 149.364052 
L 161.962617 25.728758 
L 162.064823 30.788637 
L 164.462021 149.465785 
L 164.471312 25.830491 
L 164.573518 30.890369 
L 166.970716 149.567518 
L 166.980008 25.932224 
L 167.082214 30.992102 
L 169.479411 149.669251 
L 169.488703 26.033957 
L 169.590909 31.093835 
L 171.978815 149.310994 
L 171.988107 25.675701 
L 172.090313 30.735579 
L 174.487511 149.412727 
L 174.496802 25.777434 
L 174.599008 30.837312 
L 176.996206 149.51446 
L 177.005498 25.879166 
L 177.107704 30.939045 
L 179.504902 149.616193 
L 179.514193 25.980899 
L 179.616399 31.040778 
L 182.013597 149.717926 
L 182.022889 26.082632 
L 182.125095 31.142511 
L 184.513001 149.35967 
L 184.522293 25.724376 
L 184.624499 30.784254 
L 187.021697 149.461403 
L 187.030988 25.826109 
L 187.133194 30.885987 
L 189.530392 149.563135 
L 189.539683 25.927842 
L 189.64189 30.98772 
L 192.039087 149.664868 
L 192.048379 26.029575 
L 192.150585 31.089453 
L 194.538491 149.306612 
L 194.547783 25.671319 
L 194.649989 30.731197 
L 197.047187 149.408345 
L 197.056478 25.773051 
L 197.158684 30.83293 
L 199.555882 149.510078 
L 199.565174 25.874784 
L 199.66738 30.934663 
L 202.064578 149.611811 
L 202.073869 25.976517 
L 202.176075 31.036396 
L 204.573273 149.713544 
L 204.582565 26.07825 
L 204.684771 31.138128 
L 207.072677 149.355288 
L 207.081969 25.719994 
L 207.184175 30.779872 
L 209.581373 149.45702 
L 209.590664 25.821727 
L 209.69287 30.881605 
L 212.090068 149.558753 
L 212.099359 25.92346 
L 212.201566 30.983338 
L 214.598763 149.660486 
L 214.608055 26.025192 
L 214.710261 31.085071 
L 217.098167 149.30223 
L 217.107459 25.666936 
L 217.209665 30.726815 
L 219.606863 149.403963 
L 219.616154 25.768669 
L 219.71836 30.828548 
L 222.115558 149.505696 
L 222.12485 25.870402 
L 222.227056 30.93028 
L 224.624254 149.607429 
L 224.633545 25.972135 
L 224.735751 31.032013 
L 227.132949 149.709162 
L 227.142241 26.073868 
L 227.244447 31.133746 
L 229.632353 149.350905 
L 229.641645 25.715612 
L 229.743851 30.77549 
L 232.141049 149.452638 
L 232.15034 25.817345 
L 232.252546 30.877223 
L 234.649744 149.554371 
L 234.659035 25.919077 
L 234.761242 30.978956 
L 237.158439 149.656104 
L 237.167731 26.02081 
L 237.269937 31.080689 
L 239.657843 149.297848 
L 239.667135 25.662554 
L 239.769341 30.722433 
L 242.166539 149.399581 
L 242.17583 25.764287 
L 242.278036 30.824165 
L 244.675234 149.501314 
L 244.684526 25.86602 
L 244.786732 30.925898 
L 247.18393 149.603046 
L 247.193221 25.967753 
L 247.295427 31.027631 
L 249.692625 149.704779 
L 249.701917 26.069486 
L 249.804123 31.129364 
L 252.192029 149.346523 
L 252.201321 25.71123 
L 252.303527 30.771108 
L 253.53 91.489649 
L 253.53 91.489649 
" clip-path="url(#p967e3369f3)" style="fill: none; stroke: #000000; stroke-width: 1.5; stroke-linecap: square"/>
   </g>
   <g id="line2d_8">
    <path d="M 67.71 86.881837 
L 67.77504 82.39658 
L 67.830789 84.037579 
L 68.648438 124.330315 
L 69.159468 149.629717 
L 69.16876 25.994424 
L 69.270966 31.054302 
L 71.668164 149.731455 
L 71.677455 26.096161 
L 71.779661 31.15604 
L 74.167568 149.373201 
L 74.176859 25.737907 
L 74.279065 30.797786 
L 76.676263 149.474935 
L 76.685555 25.839641 
L 76.787761 30.89952 
L 79.184959 149.576668 
L 79.19425 25.941375 
L 79.296456 31.001253 
L 81.693654 149.678401 
L 81.702946 26.043108 
L 81.805152 31.102986 
L 84.193058 149.320145 
L 84.20235 25.684852 
L 84.304556 30.74473 
L 86.701754 149.421878 
L 86.711045 25.786584 
L 86.813251 30.846463 
L 89.210449 149.523611 
L 89.21974 25.888317 
L 89.321947 30.948196 
L 91.719144 149.625344 
L 91.728436 25.99005 
L 91.830642 31.049929 
L 94.22784 149.727077 
L 94.237131 26.091783 
L 94.339337 31.151661 
L 96.727244 149.368821 
L 96.736535 25.733527 
L 96.838741 30.793405 
L 99.235939 149.470554 
L 99.245231 25.83526 
L 99.347437 30.895138 
L 101.744635 149.572286 
L 101.753926 25.936993 
L 101.856132 30.996871 
L 104.25333 149.674019 
L 104.262622 26.038726 
L 104.364828 31.098604 
L 106.752734 149.315763 
L 106.762026 25.680469 
L 106.864232 30.740348 
L 109.26143 149.417496 
L 109.270721 25.782202 
L 109.372927 30.842081 
L 111.770125 149.519229 
L 111.779416 25.883935 
L 111.881623 30.943814 
L 114.27882 149.620962 
L 114.288112 25.985668 
L 114.390318 31.045546 
L 116.787516 149.722695 
L 116.796807 26.087401 
L 116.899013 31.147279 
L 119.28692 149.364439 
L 119.296211 25.729145 
L 119.398417 30.789023 
L 121.795615 149.466171 
L 121.804907 25.830878 
L 121.907113 30.890756 
L 124.304311 149.567904 
L 124.313602 25.93261 
L 124.415808 30.992489 
L 126.813006 149.669637 
L 126.822298 26.034343 
L 126.924504 31.094222 
L 129.31241 149.311381 
L 129.321702 25.676087 
L 129.423908 30.735966 
L 131.821106 149.413114 
L 131.830397 25.77782 
L 131.932603 30.837699 
L 134.329801 149.514847 
L 134.339092 25.879553 
L 134.441299 30.939431 
L 136.838496 149.61658 
L 136.847788 25.981286 
L 136.949994 31.041164 
L 139.347192 149.718312 
L 139.356483 26.083019 
L 139.458689 31.142897 
L 141.846596 149.360056 
L 141.855887 25.724763 
L 141.958093 30.784641 
L 144.355291 149.461789 
L 144.364583 25.826495 
L 144.466789 30.886374 
L 146.863987 149.563522 
L 146.873278 25.928228 
L 146.975484 30.988107 
L 149.372682 149.665255 
L 149.381974 26.029961 
L 149.48418 31.08984 
L 151.872086 149.306999 
L 151.881378 25.671705 
L 151.983584 30.731583 
L 154.380782 149.408732 
L 154.390073 25.773438 
L 154.492279 30.833316 
L 156.889477 149.510465 
L 156.898768 25.875171 
L 157.000975 30.935049 
L 159.398172 149.612197 
L 159.407464 25.976904 
L 159.50967 31.036782 
L 161.906868 149.71393 
L 161.916159 26.078637 
L 162.018365 31.138515 
L 164.406272 149.355674 
L 164.415563 25.72038 
L 164.517769 30.780259 
L 166.914967 149.457407 
L 166.924259 25.822113 
L 167.026465 30.881992 
L 169.423663 149.55914 
L 169.432954 25.923846 
L 169.53516 30.983725 
L 171.932358 149.660873 
L 171.94165 26.025579 
L 172.043856 31.085457 
L 174.431762 149.302617 
L 174.441054 25.667323 
L 174.54326 30.727201 
L 176.940458 149.40435 
L 176.949749 25.769056 
L 177.051955 30.828934 
L 179.449153 149.506082 
L 179.458444 25.870789 
L 179.560651 30.930667 
L 181.957848 149.607815 
L 181.96714 25.972521 
L 182.069346 31.0324 
L 184.466544 149.709548 
L 184.475835 26.074254 
L 184.578041 31.134133 
L 186.965948 149.351292 
L 186.975239 25.715998 
L 187.077445 30.775877 
L 189.474643 149.453025 
L 189.483935 25.817731 
L 189.586141 30.87761 
L 191.983339 149.554758 
L 191.99263 25.919464 
L 192.094836 30.979342 
L 194.492034 149.656491 
L 194.501326 26.021197 
L 194.603532 31.081075 
L 196.991438 149.298234 
L 197.00073 25.662941 
L 197.102936 30.722819 
L 199.500134 149.399967 
L 199.509425 25.764674 
L 199.611631 30.824552 
L 202.008829 149.5017 
L 202.01812 25.866406 
L 202.120327 30.926285 
L 204.517524 149.603433 
L 204.526816 25.968139 
L 204.629022 31.028018 
L 207.02622 149.705166 
L 207.035511 26.069872 
L 207.137717 31.129751 
L 209.525624 149.34691 
L 209.534915 25.711616 
L 209.637121 30.771494 
L 212.034319 149.448643 
L 212.043611 25.813349 
L 212.145817 30.873227 
L 214.543015 149.550376 
L 214.552306 25.915082 
L 214.654512 30.97496 
L 217.05171 149.652108 
L 217.061002 26.016815 
L 217.163208 31.076693 
L 219.551114 149.293852 
L 219.560406 25.658559 
L 219.662612 30.718437 
L 222.059809 149.395585 
L 222.069101 25.760291 
L 222.171307 30.82017 
L 224.568505 149.497318 
L 224.577796 25.862024 
L 224.680003 30.921903 
L 227.0772 149.599051 
L 227.086492 25.963757 
L 227.188698 31.023636 
L 229.585896 149.700784 
L 229.595187 26.06549 
L 229.697393 31.125368 
L 232.0853 149.342528 
L 232.094591 25.707234 
L 232.196797 30.767112 
L 234.593995 149.444261 
L 234.603287 25.808967 
L 234.705493 30.868845 
L 237.102691 149.545993 
L 237.111982 25.9107 
L 237.214188 30.970578 
L 239.611386 149.647726 
L 239.620678 26.012432 
L 239.722884 31.072311 
L 242.11079 149.28947 
L 242.120082 25.654176 
L 242.222288 30.714055 
L 244.619485 149.391203 
L 244.628777 25.755909 
L 244.730983 30.815788 
L 247.128181 149.492936 
L 247.137472 25.857642 
L 247.239678 30.917521 
L 249.636876 149.594669 
L 249.646168 25.959375 
L 249.748374 31.019253 
L 252.145572 149.696402 
L 252.154863 26.061108 
L 252.257069 31.120986 
L 253.53 94.139472 
L 253.53 94.139472 
" clip-path="url(#p967e3369f3)" style="fill: none; stroke: #808080; stroke-width: 1.5; stroke-linecap: square"/>
   </g>
   <g id="line2d_9">
    <path d="M 67.71 76.111562 
L 67.886538 89.984235 
L 69.094428 149.729956 
L 69.10372 26.094662 
L 69.205926 31.15454 
L 71.593832 149.371704 
L 71.603124 25.73641 
L 71.70533 30.796289 
L 74.102528 149.473439 
L 74.111819 25.838145 
L 74.214025 30.898024 
L 76.611223 149.575173 
L 76.620515 25.939879 
L 76.722721 30.999758 
L 79.119918 149.676906 
L 79.12921 26.041612 
L 79.231416 31.101491 
L 81.619322 149.31865 
L 81.628614 25.683357 
L 81.73082 30.743235 
L 84.128018 149.420383 
L 84.137309 25.78509 
L 84.239515 30.844968 
L 86.636713 149.522116 
L 86.646005 25.886822 
L 86.748211 30.946701 
L 89.145409 149.623849 
L 89.1547 25.988555 
L 89.256906 31.048434 
L 91.654104 149.725582 
L 91.663396 26.090288 
L 91.765602 31.150167 
L 94.153508 149.367326 
L 94.1628 25.732032 
L 94.265006 30.79191 
L 96.662204 149.469059 
L 96.671495 25.833765 
L 96.773701 30.893643 
L 99.170899 149.570792 
L 99.180191 25.935498 
L 99.282397 30.995376 
L 101.679594 149.672524 
L 101.688886 26.037231 
L 101.791092 31.097109 
L 104.178998 149.314268 
L 104.18829 25.678975 
L 104.290496 30.738853 
L 106.687694 149.416001 
L 106.696985 25.780707 
L 106.799191 30.840586 
L 109.196389 149.517734 
L 109.205681 25.88244 
L 109.307887 30.942319 
L 111.705085 149.619467 
L 111.714376 25.984173 
L 111.816582 31.044052 
L 114.21378 149.7212 
L 114.223072 26.085906 
L 114.325278 31.145784 
L 116.713184 149.362944 
L 116.722476 25.72765 
L 116.824682 30.787528 
L 119.22188 149.464676 
L 119.231171 25.829383 
L 119.333377 30.889261 
L 121.730575 149.566409 
L 121.739866 25.931116 
L 121.842073 30.990994 
L 124.23927 149.668142 
L 124.248562 26.032848 
L 124.350768 31.092727 
L 126.738674 149.309886 
L 126.747966 25.674592 
L 126.850172 30.734471 
L 129.24737 149.411619 
L 129.256661 25.776325 
L 129.358867 30.836204 
L 131.756065 149.513352 
L 131.765357 25.878058 
L 131.867563 30.937937 
L 134.264761 149.615085 
L 134.274052 25.979791 
L 134.376258 31.039669 
L 136.773456 149.716818 
L 136.782748 26.081524 
L 136.884954 31.141402 
L 139.27286 149.358561 
L 139.282152 25.723268 
L 139.384358 30.783146 
L 141.781556 149.460294 
L 141.790847 25.825001 
L 141.893053 30.884879 
L 144.290251 149.562027 
L 144.299542 25.926733 
L 144.401749 30.986612 
L 146.798946 149.66376 
L 146.808238 26.028466 
L 146.910444 31.088345 
L 149.29835 149.305504 
L 149.307642 25.67021 
L 149.409848 30.730089 
L 151.807046 149.407237 
L 151.816337 25.771943 
L 151.918543 30.831821 
L 154.315741 149.50897 
L 154.325033 25.873676 
L 154.427239 30.933554 
L 156.824437 149.610703 
L 156.833728 25.975409 
L 156.935934 31.035287 
L 159.333132 149.712435 
L 159.342424 26.077142 
L 159.44463 31.13702 
L 161.832536 149.354179 
L 161.841828 25.718886 
L 161.944034 30.778764 
L 164.341232 149.455912 
L 164.350523 25.820618 
L 164.452729 30.880497 
L 166.849927 149.557645 
L 166.859218 25.922351 
L 166.961425 30.98223 
L 169.358622 149.659378 
L 169.367914 26.024084 
L 169.47012 31.083963 
L 171.858026 149.301122 
L 171.867318 25.665828 
L 171.969524 30.725706 
L 174.366722 149.402855 
L 174.376013 25.767561 
L 174.478219 30.827439 
L 176.875417 149.504587 
L 176.884709 25.869294 
L 176.986915 30.929172 
L 179.384113 149.60632 
L 179.393404 25.971027 
L 179.49561 31.030905 
L 181.892808 149.708053 
L 181.9021 26.072759 
L 182.004306 31.132638 
L 184.392212 149.349797 
L 184.401504 25.714503 
L 184.50371 30.774382 
L 186.900908 149.45153 
L 186.910199 25.816236 
L 187.012405 30.876115 
L 189.409603 149.553263 
L 189.418894 25.917969 
L 189.521101 30.977848 
L 191.918298 149.654996 
L 191.92759 26.019702 
L 192.029796 31.07958 
L 194.417702 149.29674 
L 194.426994 25.661446 
L 194.5292 30.721324 
L 196.926398 149.398472 
L 196.935689 25.763179 
L 197.037895 30.823057 
L 199.435093 149.500205 
L 199.444385 25.864912 
L 199.546591 30.92479 
L 201.943789 149.601938 
L 201.95308 25.966644 
L 202.055286 31.026523 
L 204.452484 149.703671 
L 204.461776 26.068377 
L 204.563982 31.128256 
L 206.951888 149.345415 
L 206.96118 25.710121 
L 207.063386 30.77 
L 209.460584 149.447148 
L 209.469875 25.811854 
L 209.572081 30.871732 
L 211.969279 149.548881 
L 211.97857 25.913587 
L 212.080777 30.973465 
L 214.477974 149.650614 
L 214.487266 26.01532 
L 214.589472 31.075198 
L 216.977378 149.292357 
L 216.98667 25.657064 
L 217.088876 30.716942 
L 219.486074 149.39409 
L 219.495365 25.758797 
L 219.597571 30.818675 
L 221.994769 149.495823 
L 222.004061 25.860529 
L 222.106267 30.920408 
L 224.503465 149.597556 
L 224.512756 25.962262 
L 224.614962 31.022141 
L 227.01216 149.699289 
L 227.021452 26.063995 
L 227.123658 31.123874 
L 229.511564 149.341033 
L 229.520856 25.705739 
L 229.623062 30.765617 
L 232.02026 149.442766 
L 232.029551 25.807472 
L 232.131757 30.86735 
L 234.528955 149.544498 
L 234.538246 25.909205 
L 234.640453 30.969083 
L 237.03765 149.646231 
L 237.046942 26.010938 
L 237.149148 31.070816 
L 239.537054 149.287975 
L 239.546346 25.652682 
L 239.648552 30.71256 
L 242.04575 149.389708 
L 242.055041 25.754414 
L 242.157247 30.814293 
L 244.554445 149.491441 
L 244.563737 25.856147 
L 244.665943 30.916026 
L 247.063141 149.593174 
L 247.072432 25.95788 
L 247.174638 31.017759 
L 249.571836 149.694907 
L 249.581128 26.059613 
L 249.683334 31.119491 
L 252.07124 149.336651 
L 252.080532 25.701357 
L 252.182738 30.761235 
L 253.53 97.459633 
L 253.53 97.459633 
" clip-path="url(#p967e3369f3)" style="fill: none; stroke: #808080; stroke-width: 1.5; stroke-linecap: square"/>
   </g>
   <g id="patch_3">
    <path d="M 67.71 155.94 
L 67.71 19.44 
" style="fill: none; stroke: #000000; stroke-width: 0.8; stroke-linejoin: miter; stroke-linecap: square"/>
   </g>
   <g id="patch_4">
    <path d="M 253.53 155.94 
L 253.53 19.44 
" style="fill: none; stroke: #000000; stroke-width: 0.8; stroke-linejoin: miter; stroke-linecap: square"/>
   </g>
   <g id="patch_5">
    <path d="M 67.71 155.94 
L 253.53 155.94 
" style="fill: none; stroke: #000000; stroke-width: 0.8; stroke-linejoin: miter; stroke-linecap: square"/>
   </g>
   <g id="patch_6">
    <path d="M 67.71 19.44 
L 253.53 19.44 
" style="fill: none; stroke: #000000; stroke-width: 0.8; stroke-linejoin: miter; stroke-linecap: square"/>
   </g>
  </g>
 </g>
 <defs>
  <clipPath id="p967e3369f3">
   <rect x="67.71" y="19.44" width="185.82" height="136.5"/>
  </clipPath>
 </defs>
</svg>
