<?xml version="1.0" encoding="utf-8" standalone="no"?>
<!DOCTYPE svg PUBLIC "-//W3C//DTD SVG 1.1//EN"
  "http://www.w3.org/Graphics/SVG/1.1/DTD/svg11.dtd">
<svg xmlns:xlink="http://www.w3.org/1999/xlink" width="288pt" height="216pt" viewBox="0 0 288 216" xmlns="http://www.w3.org/2000/svg" version="1.1">
 <metadata>
  <rdf:RDF xmlns:dc="http://purl.org/dc/elements/1.1/" xmlns:cc="http://creativecommons.org/ns#" xmlns:rdf="http://www.w3.org/1999/02/22-rdf-syntax-ns#">
   <cc:Work>
    <dc:type rdf:resource="http://purl.org/dc/dcmitype/StillImage"/>
    <dc:date>2024-03-24T17:52:26.023600</dc:date>
    <dc:format>image/svg+xml</dc:format>
    <dc:creator>
     <cc:Agent>
      <dc:title>Matplotlib v3.7.2, https://matplotlib.org/</dc:title>
     </cc:Agent>
    </dc:creator>
   </cc:Work>
  </rdf:RDF>
 </metadata>
 <defs>
  <style type="text/css">*{stroke-linejoin: round; stroke-linecap: butt}</style>
 </defs>
 <g id="figure_1">
  <g id="patch_1">
   <path d="M 0 216 
L 288 216 
L 288 0 
L 0 0 
L 0 216 
z
" style="fill: none"/>
  </g>
  <g id="axes_1">
   <g id="patch_2">
    <path d="M 87.024 155.94 
L 268.56 155.94 
L 268.56 19.44 
L 87.024 19.44 
L 87.024 155.94 
z
" style="fill: none"/>
   </g>
   <g id="matplotlib.axis_1">
    <g id="xtick_1">
     <g id="line2d_1">
      <defs>
       <path id="mfcf459fb76" d="M 0 0 
L 0 -3.5 
" style="stroke: #000000; stroke-width: 0.8"/>
      </defs>
      <g>
       <use xlink:href="#mfcf459fb76" x="87.024" y="155.94" style="stroke: #000000; stroke-width: 0.8"/>
      </g>
     </g>
     <g id="text_1">
      <!-- 0 -->
      <g transform="translate(82.019156 172.324062) scale(0.18 -0.18)">
       <defs>
        <path id="ArialMT-30" d="M 266 2259 
Q 266 3072 433 3567 
Q 600 4063 929 4331 
Q 1259 4600 1759 4600 
Q 2128 4600 2406 4451 
Q 2684 4303 2865 4023 
Q 3047 3744 3150 3342 
Q 3253 2941 3253 2259 
Q 3253 1453 3087 958 
Q 2922 463 2592 192 
Q 2263 -78 1759 -78 
Q 1097 -78 719 397 
Q 266 969 266 2259 
z
M 844 2259 
Q 844 1131 1108 757 
Q 1372 384 1759 384 
Q 2147 384 2411 759 
Q 2675 1134 2675 2259 
Q 2675 3391 2411 3762 
Q 2147 4134 1753 4134 
Q 1366 4134 1134 3806 
Q 844 3388 844 2259 
z
" transform="scale(0.015625)"/>
       </defs>
       <use xlink:href="#ArialMT-30"/>
      </g>
     </g>
    </g>
    <g id="xtick_2">
     <g id="line2d_2">
      <g>
       <use xlink:href="#mfcf459fb76" x="159.6384" y="155.94" style="stroke: #000000; stroke-width: 0.8"/>
      </g>
     </g>
     <g id="text_2">
      <!-- 200 -->
      <g transform="translate(144.623869 172.324062) scale(0.18 -0.18)">
       <defs>
        <path id="ArialMT-32" d="M 3222 541 
L 3222 0 
L 194 0 
Q 188 203 259 391 
Q 375 700 629 1000 
Q 884 1300 1366 1694 
Q 2113 2306 2375 2664 
Q 2638 3022 2638 3341 
Q 2638 3675 2398 3904 
Q 2159 4134 1775 4134 
Q 1369 4134 1125 3890 
Q 881 3647 878 3216 
L 300 3275 
Q 359 3922 746 4261 
Q 1134 4600 1788 4600 
Q 2447 4600 2831 4234 
Q 3216 3869 3216 3328 
Q 3216 3053 3103 2787 
Q 2991 2522 2730 2228 
Q 2469 1934 1863 1422 
Q 1356 997 1212 845 
Q 1069 694 975 541 
L 3222 541 
z
" transform="scale(0.015625)"/>
       </defs>
       <use xlink:href="#ArialMT-32"/>
       <use xlink:href="#ArialMT-30" x="55.615234"/>
       <use xlink:href="#ArialMT-30" x="111.230469"/>
      </g>
     </g>
    </g>
    <g id="xtick_3">
     <g id="line2d_3">
      <g>
       <use xlink:href="#mfcf459fb76" x="232.2528" y="155.94" style="stroke: #000000; stroke-width: 0.8"/>
      </g>
     </g>
     <g id="text_3">
      <!-- 400 -->
      <g transform="translate(217.238269 172.324062) scale(0.18 -0.18)">
       <defs>
        <path id="ArialMT-34" d="M 2069 0 
L 2069 1097 
L 81 1097 
L 81 1613 
L 2172 4581 
L 2631 4581 
L 2631 1613 
L 3250 1613 
L 3250 1097 
L 2631 1097 
L 2631 0 
L 2069 0 
z
M 2069 1613 
L 2069 3678 
L 634 1613 
L 2069 1613 
z
" transform="scale(0.015625)"/>
       </defs>
       <use xlink:href="#ArialMT-34"/>
       <use xlink:href="#ArialMT-30" x="55.615234"/>
       <use xlink:href="#ArialMT-30" x="111.230469"/>
      </g>
     </g>
    </g>
    <g id="text_4">
     <!-- $t$ -->
     <g transform="translate(174.192 192.785625) scale(0.18 -0.18)">
      <defs>
       <path id="DejaVuSans-Oblique-74" d="M 2706 3500 
L 2619 3053 
L 1472 3053 
L 1100 1153 
Q 1081 1047 1072 975 
Q 1063 903 1063 863 
Q 1063 663 1183 572 
Q 1303 481 1569 481 
L 2150 481 
L 2053 0 
L 1503 0 
Q 991 0 739 200 
Q 488 400 488 806 
Q 488 878 497 964 
Q 506 1050 525 1153 
L 897 3053 
L 409 3053 
L 500 3500 
L 978 3500 
L 1172 4494 
L 1747 4494 
L 1556 3500 
L 2706 3500 
z
" transform="scale(0.015625)"/>
      </defs>
      <use xlink:href="#DejaVuSans-Oblique-74" transform="translate(0 0.78125)"/>
     </g>
    </g>
   </g>
   <g id="matplotlib.axis_2">
    <g id="ytick_1">
     <g id="line2d_4">
      <defs>
       <path id="m06892041af" d="M 0 0 
L 3.5 0 
" style="stroke: #000000; stroke-width: 0.8"/>
      </defs>
      <g>
       <use xlink:href="#m06892041af" x="87.024" y="112.251648" style="stroke: #000000; stroke-width: 0.8"/>
      </g>
     </g>
     <g id="text_5">
      <!-- −100 -->
      <g transform="translate(42.981813 118.69368) scale(0.18 -0.18)">
       <defs>
        <path id="ArialMT-2212" d="M 3381 1997 
L 356 1997 
L 356 2522 
L 3381 2522 
L 3381 1997 
z
" transform="scale(0.015625)"/>
        <path id="ArialMT-31" d="M 2384 0 
L 1822 0 
L 1822 3584 
Q 1619 3391 1289 3197 
Q 959 3003 697 2906 
L 697 3450 
Q 1169 3672 1522 3987 
Q 1875 4303 2022 4600 
L 2384 4600 
L 2384 0 
z
" transform="scale(0.015625)"/>
       </defs>
       <use xlink:href="#ArialMT-2212"/>
       <use xlink:href="#ArialMT-31" x="58.398438"/>
       <use xlink:href="#ArialMT-30" x="114.013672"/>
       <use xlink:href="#ArialMT-30" x="169.628906"/>
      </g>
     </g>
    </g>
    <g id="ytick_2">
     <g id="line2d_5">
      <g>
       <use xlink:href="#m06892041af" x="87.024" y="27.459955" style="stroke: #000000; stroke-width: 0.8"/>
      </g>
     </g>
     <g id="text_6">
      <!-- 0 -->
      <g transform="translate(73.514313 33.901986) scale(0.18 -0.18)">
       <use xlink:href="#ArialMT-30"/>
      </g>
     </g>
    </g>
    <g id="text_7">
     <!-- $Re(a_i)/r_i$ -->
     <g transform="translate(35.404313 122.79) rotate(-90) scale(0.18 -0.18)">
      <defs>
       <path id="DejaVuSans-Oblique-52" d="M 1613 4147 
L 1294 2491 
L 2106 2491 
Q 2584 2491 2879 2755 
Q 3175 3019 3175 3444 
Q 3175 3784 2976 3965 
Q 2778 4147 2406 4147 
L 1613 4147 
z
M 2772 2241 
Q 2972 2194 3105 2009 
Q 3238 1825 3413 1275 
L 3809 0 
L 3144 0 
L 2778 1197 
Q 2638 1659 2453 1815 
Q 2269 1972 1888 1972 
L 1191 1972 
L 806 0 
L 172 0 
L 1081 4666 
L 2503 4666 
Q 3150 4666 3495 4373 
Q 3841 4081 3841 3531 
Q 3841 3044 3547 2687 
Q 3253 2331 2772 2241 
z
" transform="scale(0.015625)"/>
       <path id="DejaVuSans-Oblique-65" d="M 3078 2063 
Q 3088 2113 3092 2166 
Q 3097 2219 3097 2272 
Q 3097 2653 2873 2875 
Q 2650 3097 2266 3097 
Q 1838 3097 1509 2826 
Q 1181 2556 1013 2059 
L 3078 2063 
z
M 3578 1613 
L 903 1613 
Q 884 1494 878 1425 
Q 872 1356 872 1306 
Q 872 872 1139 634 
Q 1406 397 1894 397 
Q 2269 397 2603 481 
Q 2938 566 3225 728 
L 3116 159 
Q 2806 34 2476 -28 
Q 2147 -91 1806 -91 
Q 1078 -91 686 257 
Q 294 606 294 1247 
Q 294 1794 489 2264 
Q 684 2734 1063 3103 
Q 1306 3334 1642 3459 
Q 1978 3584 2356 3584 
Q 2950 3584 3301 3228 
Q 3653 2872 3653 2272 
Q 3653 2128 3634 1964 
Q 3616 1800 3578 1613 
z
" transform="scale(0.015625)"/>
       <path id="DejaVuSans-28" d="M 1984 4856 
Q 1566 4138 1362 3434 
Q 1159 2731 1159 2009 
Q 1159 1288 1364 580 
Q 1569 -128 1984 -844 
L 1484 -844 
Q 1016 -109 783 600 
Q 550 1309 550 2009 
Q 550 2706 781 3412 
Q 1013 4119 1484 4856 
L 1984 4856 
z
" transform="scale(0.015625)"/>
       <path id="DejaVuSans-Oblique-61" d="M 3438 1997 
L 3047 0 
L 2472 0 
L 2578 531 
Q 2325 219 2001 64 
Q 1678 -91 1281 -91 
Q 834 -91 548 182 
Q 263 456 263 884 
Q 263 1497 752 1853 
Q 1241 2209 2100 2209 
L 2900 2209 
L 2931 2363 
Q 2938 2388 2941 2417 
Q 2944 2447 2944 2509 
Q 2944 2788 2717 2942 
Q 2491 3097 2081 3097 
Q 1800 3097 1504 3025 
Q 1209 2953 897 2809 
L 997 3341 
Q 1322 3463 1633 3523 
Q 1944 3584 2234 3584 
Q 2853 3584 3176 3315 
Q 3500 3047 3500 2534 
Q 3500 2431 3484 2292 
Q 3469 2153 3438 1997 
z
M 2816 1759 
L 2241 1759 
Q 1534 1759 1195 1570 
Q 856 1381 856 984 
Q 856 709 1029 553 
Q 1203 397 1509 397 
Q 1978 397 2328 733 
Q 2678 1069 2791 1631 
L 2816 1759 
z
" transform="scale(0.015625)"/>
       <path id="DejaVuSans-Oblique-69" d="M 1172 4863 
L 1747 4863 
L 1606 4134 
L 1031 4134 
L 1172 4863 
z
M 909 3500 
L 1484 3500 
L 800 0 
L 225 0 
L 909 3500 
z
" transform="scale(0.015625)"/>
       <path id="DejaVuSans-29" d="M 513 4856 
L 1013 4856 
Q 1481 4119 1714 3412 
Q 1947 2706 1947 2009 
Q 1947 1309 1714 600 
Q 1481 -109 1013 -844 
L 513 -844 
Q 928 -128 1133 580 
Q 1338 1288 1338 2009 
Q 1338 2731 1133 3434 
Q 928 4138 513 4856 
z
" transform="scale(0.015625)"/>
       <path id="DejaVuSans-2f" d="M 1625 4666 
L 2156 4666 
L 531 -594 
L 0 -594 
L 1625 4666 
z
" transform="scale(0.015625)"/>
       <path id="DejaVuSans-Oblique-72" d="M 2853 2969 
Q 2766 3016 2653 3041 
Q 2541 3066 2413 3066 
Q 1953 3066 1609 2717 
Q 1266 2369 1153 1784 
L 800 0 
L 225 0 
L 909 3500 
L 1484 3500 
L 1375 2956 
Q 1603 3259 1920 3421 
Q 2238 3584 2597 3584 
Q 2691 3584 2781 3573 
Q 2872 3563 2963 3538 
L 2853 2969 
z
" transform="scale(0.015625)"/>
      </defs>
      <use xlink:href="#DejaVuSans-Oblique-52" transform="translate(0 0.125)"/>
      <use xlink:href="#DejaVuSans-Oblique-65" transform="translate(69.482422 0.125)"/>
      <use xlink:href="#DejaVuSans-28" transform="translate(131.005859 0.125)"/>
      <use xlink:href="#DejaVuSans-Oblique-61" transform="translate(170.019531 0.125)"/>
      <use xlink:href="#DejaVuSans-Oblique-69" transform="translate(231.298828 -16.28125) scale(0.7)"/>
      <use xlink:href="#DejaVuSans-29" transform="translate(253.481445 0.125)"/>
      <use xlink:href="#DejaVuSans-2f" transform="translate(292.495117 0.125)"/>
      <use xlink:href="#DejaVuSans-Oblique-72" transform="translate(326.186523 0.125)"/>
      <use xlink:href="#DejaVuSans-Oblique-69" transform="translate(367.299805 -16.28125) scale(0.7)"/>
     </g>
    </g>
   </g>
   <g id="line2d_6">
    <path d="M 87.024 26.980731 
L 87.292679 26.6123 
L 87.427018 26.73514 
L 87.652127 27.345189 
L 88.051514 28.303595 
L 88.182223 28.230772 
L 88.374655 27.756811 
L 88.843027 26.612097 
L 88.970105 26.720008 
L 89.184322 27.308741 
L 89.58734 28.304664 
L 89.714417 28.22747 
L 89.906849 27.736784 
L 90.288083 26.612048 
L 90.298975 26.710055 
L 90.389745 28.30785 
L 90.433314 28.289086 
L 90.578546 28.028772 
L 91.159473 26.616742 
L 91.210304 26.653753 
L 91.37732 27.003587 
L 91.92557 28.303326 
L 91.932832 28.300368 
L 92.070802 28.111984 
L 92.372158 27.176969 
L 92.662621 26.613988 
L 92.793329 26.696662 
L 92.996654 27.191225 
L 93.465026 28.299818 
L 93.62115 28.24502 
L 94.485279 27.199026 
L 94.85925 26.612101 
L 95.000851 26.718743 
L 95.218699 27.255207 
L 95.668917 28.305146 
L 95.803257 28.226249 
L 96.00295 27.75092 
L 96.482215 26.613561 
L 96.616554 26.698708 
L 96.82714 27.196165 
L 97.306405 28.294296 
L 97.480683 28.255459 
L 98.014409 27.66685 
L 98.330288 27.05841 
L 98.653429 26.612097 
L 98.79866 26.720541 
L 99.020139 27.262504 
L 99.470357 28.305149 
L 99.604696 28.226749 
L 99.80439 27.753314 
L 100.287285 26.613175 
L 100.421625 26.701462 
L 100.635842 27.211869 
L 101.107845 28.292451 
L 101.282123 28.259577 
L 101.783172 27.719391 
L 102.080897 27.177006 
L 102.451238 26.6124 
L 102.59647 26.713363 
L 102.814317 27.236661 
L 103.275428 28.305796 
L 103.409767 28.223011 
L 103.613091 27.733861 
L 104.085095 26.614109 
L 104.219434 26.694714 
L 104.426389 27.175359 
L 104.916546 28.295047 
L 105.090824 28.256269 
L 105.617289 27.687835 
L 105.933168 27.068685 
L 106.256308 26.612237 
L 106.40154 26.71679 
L 106.619388 27.244281 
L 107.076868 28.305552 
L 107.211207 28.224465 
L 107.414531 27.73701 
L 107.890165 26.613565 
L 108.024504 26.698271 
L 108.23509 27.193511 
L 108.714355 28.292217 
L 108.892264 28.258729 
L 109.407836 27.712988 
L 109.712823 27.123845 
L 110.057748 26.612347 
L 110.199349 26.709507 
L 110.413566 27.218321 
L 110.881938 28.306141 
L 111.016278 28.220699 
L 111.223233 27.717439 
L 111.687974 26.614622 
L 111.822314 26.691659 
L 112.029269 27.168142 
L 112.523057 28.294813 
L 112.700965 28.255534 
L 113.234692 27.688093 
L 113.568725 27.006653 
L 113.86645 26.612056 
L 114.008051 26.718295 
L 114.225898 27.248333 
L 114.679747 28.305025 
L 114.814087 28.227336 
L 115.01378 27.754555 
L 115.496676 26.613286 
L 115.631015 26.70029 
L 115.845232 27.208051 
L 116.317235 28.289996 
L 116.495144 28.263519 
L 116.992562 27.757488 
L 117.286656 27.203211 
L 117.660628 26.612636 
L 117.802229 26.705733 
L 118.012815 27.200102 
L 118.49208 28.307061 
L 118.626419 28.21293 
L 118.837005 27.689406 
L 119.290854 26.615193 
L 119.428824 26.693604 
L 119.635779 27.171713 
L 120.125936 28.292746 
L 120.303845 28.260571 
L 120.819418 27.734102 
L 121.128035 27.116643 
L 121.465699 26.612417 
L 121.6073 26.709064 
L 121.821516 27.218763 
L 122.289889 28.306254 
L 122.424228 28.219845 
L 122.631183 27.715547 
L 123.095925 26.614514 
L 123.233895 26.697123 
L 123.444481 27.189749 
L 123.927376 28.291647 
L 124.108916 28.260375 
L 124.624488 27.739096 
L 124.936736 27.105527 
L 125.267139 26.612561 
L 125.40874 26.707186 
L 125.619326 27.204094 
L 126.094959 28.306739 
L 126.229299 28.21598 
L 126.436254 27.707291 
L 126.897365 26.614787 
L 127.035335 26.695557 
L 127.245921 27.18607 
L 127.728816 28.290504 
L 127.910356 28.262863 
L 128.418667 27.759221 
L 128.723653 27.1454 
L 129.068578 26.612728 
L 129.210179 26.705329 
L 129.420765 27.200562 
L 129.896399 28.306558 
L 130.030739 28.217488 
L 130.237694 27.710475 
L 130.698804 26.615075 
L 130.836774 26.694004 
L 131.04373 27.171578 
L 131.537517 28.293137 
L 131.719057 28.260175 
L 132.23463 27.748396 
L 132.554139 27.082753 
L 132.873649 26.612487 
L 133.01525 26.708683 
L 133.229467 27.219279 
L 133.697839 28.306364 
L 133.832178 28.218983 
L 134.039134 27.713656 
L 134.503875 26.614411 
L 134.641845 26.697517 
L 134.852431 27.18954 
L 135.335327 28.29011 
L 135.520497 28.262735 
L 136.028808 27.768619 
L 136.341056 27.122581 
L 136.675089 26.612641 
L 136.81669 26.706824 
L 137.027276 27.204609 
L 137.50291 28.306831 
L 137.637249 28.215098 
L 137.847835 27.69391 
L 138.301684 26.615695 
L 138.439654 26.690933 
L 138.646609 27.164262 
L 139.144028 28.292725 
L 139.329198 28.260239 
L 139.84114 27.762235 
L 140.164281 27.076445 
L 140.48016 26.612416 
L 140.621761 26.710225 
L 140.835977 27.223392 
L 141.300719 28.305935 
L 141.435058 28.221936 
L 141.638383 27.731377 
L 142.110386 26.614065 
L 142.248356 26.699483 
L 142.462572 27.203829 
L 142.938206 28.287623 
L 143.123377 28.267699 
L 143.613534 27.813319 
L 143.907628 27.221762 
L 144.277969 26.613016 
L 144.41957 26.703168 
L 144.630156 27.197588 
L 145.10942 28.307073 
L 145.24376 28.212677 
L 145.454346 27.688803 
L 145.908195 26.615261 
L 146.046165 26.692825 
L 146.25312 27.167657 
L 146.746908 28.290382 
L 146.935709 28.263034 
L 147.436758 27.791849 
L 147.749007 27.130716 
L 148.083039 26.61272 
L 148.22464 26.706521 
L 148.435226 27.205193 
L 148.907229 28.306271 
L 149.041569 28.219601 
L 149.248524 27.714948 
L 149.713265 26.614578 
L 149.851235 26.696298 
L 150.061821 27.18549 
L 150.548348 28.289138 
L 150.737149 28.265637 
L 151.230937 27.811772 
L 151.535923 27.171728 
L 151.880848 26.613478 
L 152.022449 26.699594 
L 152.229405 27.179569 
L 152.715931 28.307284 
L 152.85027 28.210224 
L 153.064487 27.672121 
L 153.511074 26.615902 
L 153.649045 26.689758 
L 153.856 27.160286 
L 154.353418 28.289835 
L 154.542219 28.2659 
L 155.032376 27.820989 
L 155.337363 27.177483 
L 155.685919 26.613111 
L 155.82752 26.702898 
L 156.038106 27.198205 
L 156.51374 28.306575 
L 156.648079 28.217233 
L 156.855034 27.709883 
L 157.316145 26.615151 
L 157.454115 26.693161 
L 157.66107 27.167286 
L 158.154858 28.288551 
L 158.34729 28.266231 
L 158.833816 27.830096 
L 159.135172 27.192214 
L 159.487359 26.613338 
L 159.62896 26.701117 
L 159.835915 27.183659 
L 160.318811 28.307007 
L 160.45315 28.213309 
L 160.663736 27.690117 
L 161.117585 26.615459 
L 161.255555 26.691611 
L 161.46251 27.163573 
L 161.959929 28.289218 
L 162.152361 28.266628 
L 162.635256 27.83909 
L 162.936612 27.197983 
L 163.288799 26.613587 
L 163.4304 26.699357 
L 163.637355 27.1802 
L 164.123881 28.307351 
L 164.258221 28.209307 
L 164.472437 27.670219 
L 164.915394 26.616972 
L 165.053364 26.68525 
L 165.256688 27.138639 
L 165.76863 28.291698 
L 165.961062 28.264897 
L 166.440327 27.842585 
L 166.745313 27.185554 
L 167.09387 26.613201 
L 167.23547 26.702682 
L 167.446056 27.198887 
L 167.92169 28.306677 
L 168.05603 28.216347 
L 168.262985 27.708002 
L 168.724095 26.615046 
L 168.862066 26.693468 
L 169.072652 27.177506 
L 169.562809 28.286508 
L 169.758871 28.269734 
L 170.230874 27.86735 
L 170.524969 27.246085 
L 170.891679 26.614147 
L 171.03328 26.695895 
L 171.236604 27.162341 
L 171.730392 28.307518 
L 171.864731 28.20681 
L 172.078948 27.665086 
L 172.521905 26.616474 
L 172.659875 26.687035 
L 172.863199 27.141846 
L 173.37151 28.289121 
L 173.567573 28.268224 
L 174.035945 27.870756 
L 174.33367 27.233578 
L 174.696749 26.613689 
L 174.83835 26.699171 
L 175.045305 27.180895 
L 175.528201 28.306938 
L 175.66254 28.213935 
L 175.873126 27.691441 
L 176.326975 26.61567 
L 176.464945 26.69036 
L 176.6719 27.159318 
L 177.17295 28.28775 
L 177.372643 28.268888 
L 177.833754 27.884625 
L 178.124218 27.267119 
L 178.498189 26.613964 
L 178.63979 26.697444 
L 178.846745 27.177461 
L 179.333271 28.307298 
L 179.467611 28.209943 
L 179.681828 27.671558 
L 180.124784 26.617225 
L 180.262754 26.684047 
L 180.466079 27.134467 
L 180.981651 28.290199 
L 181.181345 28.267623 
L 181.638825 27.887767 
L 181.932919 27.25443 
L 182.299629 26.61426 
L 182.44123 26.695737 
L 182.644554 27.163048 
L 183.138342 28.307571 
L 183.272681 28.205872 
L 183.490529 27.651555 
L 183.926224 26.617623 
L 184.064194 26.682572 
L 184.263888 27.120328 
L 184.786722 28.290682 
L 184.990046 28.266499 
L 185.443895 27.890692 
L 185.74162 27.241541 
L 186.1047 26.613785 
L 186.246301 26.699034 
L 186.453256 27.181652 
L 186.936151 28.307025 
L 187.070491 28.213029 
L 187.281077 27.689562 
L 187.734926 26.615564 
L 187.872896 26.690616 
L 188.079851 27.158657 
L 188.5809 28.285401 
L 188.784225 28.273116 
L 189.227181 27.92531 
L 189.506752 27.340921 
L 189.90614 26.614064 
L 190.04774 26.697321 
L 190.251065 27.167213 
L 190.741222 28.307366 
L 190.875561 28.209018 
L 191.089778 27.669674 
L 191.532735 26.617098 
L 191.670705 26.684292 
L 191.874029 27.133839 
L 192.389602 28.287895 
L 192.596557 28.270349 
L 193.035883 27.923089 
L 193.322715 27.30943 
L 193.707579 26.614364 
L 193.84918 26.695627 
L 194.052505 27.163816 
L 194.546293 28.30762 
L 194.680632 28.204929 
L 194.898479 27.649667 
L 195.334175 26.617493 
L 195.472145 26.682807 
L 195.671838 27.119702 
L 196.194672 28.288341 
L 196.401628 28.271378 
L 196.833692 27.93634 
L 197.116894 27.334212 
L 197.51265 26.613872 
L 197.654251 26.698944 
L 197.861206 27.182469 
L 198.344102 28.307108 
L 198.478441 28.212117 
L 198.689027 27.687692 
L 199.139245 26.616602 
L 199.277215 26.686015 
L 199.48054 27.136839 
L 199.992481 28.284862 
L 200.203067 28.274174 
L 200.631501 27.949422 
L 200.911072 27.359083 
L 201.31409 26.614156 
L 201.455691 26.697243 
L 201.659015 27.168026 
L 202.149172 28.30743 
L 202.283512 28.208087 
L 202.497728 27.667798 
L 202.940685 26.616978 
L 203.078655 26.684507 
L 203.28198 27.133089 
L 203.797552 28.285302 
L 204.008138 28.275251 
L 204.42931 27.962332 
L 204.70525 27.38402 
L 205.119161 26.613685 
L 205.260762 26.700607 
L 205.467717 27.186745 
L 205.946981 28.306798 
L 206.081321 28.215169 
L 206.291907 27.694125 
L 206.745756 26.616134 
L 206.883726 26.68774 
L 207.090681 27.150259 
L 207.595361 28.281574 
L 207.809578 28.277945 
L 208.223488 27.980033 
L 208.492167 27.427855 
L 208.924231 26.61327 
L 209.065832 26.704043 
L 209.276418 27.205642 
L 209.748421 28.306623 
L 209.882761 28.216677 
L 210.089716 27.708799 
L 210.550826 26.61537 
L 210.688796 26.691032 
L 210.895752 27.156955 
L 211.396801 28.279831 
L 211.611018 28.280542 
L 212.017667 27.997345 
L 212.282714 27.462196 
L 212.729302 26.612915 
L 212.870903 26.707551 
L 213.081489 27.21344 
L 213.549861 28.306435 
L 213.6842 28.218174 
L 213.891156 27.711994 
L 214.352266 26.615695 
L 214.490236 26.689465 
L 214.697192 27.153117 
L 215.201872 28.280251 
L 215.419719 28.280208 
L 215.822737 27.999977 
L 216.087785 27.45901 
L 216.530742 26.613111 
L 216.672343 26.705792 
L 216.882929 27.210018 
L 217.351301 28.306233 
L 217.48564 28.219659 
L 217.692595 27.715185 
L 218.157337 26.614977 
L 218.295307 26.692779 
L 218.505893 27.170314 
L 219.003312 28.278432 
L 219.221159 28.282765 
L 219.616916 28.016909 
L 219.878333 27.493362 
L 220.335812 26.612779 
L 220.473783 26.704052 
L 220.684369 27.206604 
L 221.152741 28.306019 
L 221.28708 28.221132 
L 221.494035 27.718374 
L 221.958777 26.615283 
L 222.096747 26.691188 
L 222.307333 27.166416 
L 222.804751 28.276543 
L 223.02623 28.283926 
L 223.414725 28.028813 
L 223.672511 27.518261 
L 224.140883 26.612507 
L 224.278853 26.707581 
L 224.489439 27.214431 
L 224.954181 28.305791 
L 225.08852 28.222593 
L 225.291844 27.732911 
L 225.763847 26.61461 
L 225.901818 26.694523 
L 226.112404 27.173046 
L 226.606191 28.274583 
L 226.82767 28.286345 
L 227.212534 28.040517 
L 227.47032 27.533803 
L 227.945954 26.612296 
L 228.083924 26.711183 
L 228.298141 27.233614 
L 228.755621 28.305551 
L 228.88996 28.224042 
L 229.093284 27.736077 
L 229.568918 26.614017 
L 229.706888 26.697915 
L 229.921105 27.190245 
L 230.407631 28.272551 
L 230.63274 28.287498 
L 231.013974 28.047482 
L 231.268129 27.549319 
L 231.751024 26.612147 
L 231.888995 26.714858 
L 232.106842 27.252948 
L 232.55706 28.305297 
L 232.6914 28.22548 
L 232.894724 27.73924 
L 233.370358 26.614271 
L 233.508328 26.696265 
L 233.722545 27.186257 
L 234.209071 28.270446 
L 234.43418 28.289765 
L 234.808152 28.063304 
L 235.058677 27.583264 
L 235.559726 26.612053 
L 235.697696 26.724292 
L 235.922805 27.29549 
L 236.354869 28.303968 
L 236.489209 28.231937 
L 236.685272 27.775968 
L 237.179059 26.613065 
L 237.31703 26.704861 
L 237.538508 27.224762 
L 238.00688 28.265697 
L 238.23562 28.291912 
L 238.605961 28.07438 
L 238.852855 27.607811 
L 239.364797 26.612129 
L 239.502767 26.728209 
L 239.727876 27.303607 
L 240.156309 28.303641 
L 240.290649 28.233308 
L 240.486711 27.779071 
L 240.98413 26.612706 
L 241.1221 26.708414 
L 241.347209 27.242056 
L 241.80832 28.263387 
L 242.03706 28.293936 
L 242.40377 28.085239 
L 242.650664 27.623144 
L 243.169867 26.61227 
L 243.307837 26.732199 
L 243.536577 27.323388 
L 243.957749 28.303301 
L 244.092089 28.234667 
L 244.288151 27.78217 
L 244.78557 26.612857 
L 244.92354 26.706656 
L 245.145018 27.22721 
L 245.613391 28.263678 
L 245.845761 28.294072 
L 246.20521 28.091672 
L 246.452104 27.629339 
L 246.974938 26.612477 
L 247.112908 26.736261 
L 247.345279 27.343268 
L 247.755558 28.301576 
L 247.893528 28.236015 
L 248.089591 27.785265 
L 248.590641 26.612542 
L 248.728611 26.710224 
L 248.95372 27.244425 
L 249.414831 28.261267 
L 249.647201 28.295988 
L 250.003019 28.102171 
L 250.246282 27.653638 
L 250.780009 26.61275 
L 250.917979 26.740396 
L 251.15398 27.363237 
L 251.556998 28.301163 
L 251.694968 28.23735 
L 251.8874 27.799348 
L 252.395711 26.612303 
L 252.533681 26.713844 
L 252.762421 27.261641 
L 253.21627 28.258776 
L 253.452272 28.297004 
L 253.804459 28.10834 
L 254.047722 27.659776 
L 254.585079 26.61309 
L 254.72668 26.75091 
L 254.969943 27.406874 
L 255.358438 28.300738 
L 255.496408 28.238673 
L 255.68884 27.802415 
L 256.197151 26.612402 
L 256.335121 26.712024 
L 256.563861 27.257389 
L 257.01771 28.256205 
L 257.253712 28.298722 
L 257.602268 28.118473 
L 257.8419 27.683868 
L 258.393781 26.614247 
L 258.535382 26.761824 
L 258.785906 27.450709 
L 259.159878 28.300299 
L 259.297848 28.239985 
L 259.49028 27.805477 
L 260.002222 26.612205 
L 260.140192 26.715657 
L 260.372563 27.274539 
L 260.81915 28.253552 
L 261.058782 28.299654 
L 261.403708 28.124377 
L 261.64334 27.689942 
L 262.195221 26.613974 
L 262.336821 26.75973 
L 262.587346 27.447234 
L 262.964949 28.301406 
L 263.102919 28.236554 
L 263.298981 27.786601 
L 263.800031 26.612648 
L 263.938001 26.708422 
L 264.16311 27.238221 
L 264.627852 28.256429 
L 264.871115 28.299306 
L 265.208778 28.126109 
L 265.448411 27.686969 
L 265.99666 26.613719 
L 266.138261 26.757653 
L 266.385155 27.431919 
L 266.766388 28.300988 
L 266.904359 28.237884 
L 267.096791 27.800674 
L 267.605102 26.612382 
L 267.743072 26.711981 
L 267.971812 27.255233 
L 268.425661 28.250893 
L 268.56 28.306207 
L 268.56 28.306207 
" clip-path="url(#peaa93a5034)" style="fill: none; stroke: #000000; stroke-width: 1.5; stroke-linecap: square"/>
   </g>
   <g id="line2d_7">
    <path d="M 87.024 26.297149 
L 87.11477 26.191772 
L 87.16197 26.240709 
L 87.303571 26.711443 
L 87.786466 28.487588 
L 87.797359 28.483796 
L 87.906283 28.309201 
L 88.138653 27.370517 
L 88.450901 26.437612 
L 88.556194 26.525312 
L 88.726842 27.10313 
L 89.158906 28.602224 
L 89.169798 28.598439 
L 89.26783 28.428565 
L 89.453 27.52603 
L 89.837864 25.644867 
L 89.856018 25.65571 
L 89.935896 25.910271 
L 90.059343 27.210995 
L 90.18642 31.283268 
L 90.259036 41.733834 
L 90.295344 92.065956 
L 90.306237 149.735455 
L 90.397006 35.72717 
L 90.582177 28.486712 
L 90.82544 26.069693 
L 90.91621 25.934717 
L 90.96341 25.98868 
L 91.10138 26.506454 
L 91.591537 28.539068 
L 91.602429 28.53578 
L 91.707722 28.369753 
L 91.936462 27.444824 
L 92.255972 26.474926 
L 92.364896 26.554257 
L 92.539174 27.103456 
L 92.974869 28.46393 
L 93.076531 28.333165 
L 93.261702 27.61238 
L 93.635673 26.222372 
L 93.646566 26.226519 
L 93.730074 26.399692 
L 93.878936 27.361575 
L 94.136723 29.268966 
L 94.187554 29.168278 
L 94.336416 28.13852 
L 94.648664 26.461577 
L 94.728542 26.445945 
L 94.76485 26.490708 
L 94.924605 26.972649 
L 95.378454 28.348383 
L 95.491008 28.231741 
L 95.697964 27.576917 
L 96.064674 26.580881 
L 96.180859 26.663303 
L 96.366029 27.199042 
L 96.787201 28.364721 
L 96.896125 28.24442 
L 97.088557 27.578287 
L 97.448006 26.459356 
L 97.451636 26.460499 
L 97.542406 26.615349 
L 97.713053 27.507458 
L 97.952686 28.572293 
L 97.978101 28.553062 
L 98.079764 28.221651 
L 98.511828 26.554314 
L 98.533613 26.563286 
L 98.649798 26.771441 
L 99.198048 28.326681 
L 99.281556 28.237621 
L 99.473988 27.671037 
L 99.877006 26.583702 
L 99.993191 26.685545 
L 100.189254 27.281008 
L 100.58138 28.361436 
L 100.690303 28.257933 
L 100.875474 27.644773 
L 101.249445 26.465942 
L 101.260338 26.470472 
L 101.354738 26.656401 
L 101.539909 27.677912 
L 101.754126 28.55511 
L 101.779541 28.535488 
L 101.881203 28.207532 
L 102.316898 26.55886 
L 102.335052 26.566942 
L 102.451238 26.773671 
L 102.999488 28.326333 
L 103.086627 28.231399 
L 103.282689 27.644866 
L 103.674815 26.584325 
L 103.791 26.678337 
L 103.983432 27.251643 
L 104.38645 28.361754 
L 104.495374 28.251363 
L 104.684175 27.613752 
L 105.050885 26.465119 
L 105.058147 26.467832 
L 105.148917 26.633436 
L 105.326826 27.586249 
L 105.551935 28.553979 
L 105.57735 28.537334 
L 105.675382 28.236195 
L 106.118338 26.559501 
L 106.147385 26.575831 
L 106.274462 26.837803 
L 106.800927 28.326422 
L 106.855389 28.282236 
L 107.015144 27.894957 
L 107.505301 26.586128 
L 107.516194 26.590563 
L 107.63964 26.777447 
L 107.91195 27.748152 
L 108.18789 28.362016 
L 108.296814 28.252037 
L 108.485615 27.614125 
L 108.852325 26.464118 
L 108.859587 26.466905 
L 108.950357 26.634124 
L 109.128265 27.591831 
L 109.353375 28.552737 
L 109.37879 28.534892 
L 109.480452 28.214533 
L 109.919778 26.560061 
L 109.941563 26.570604 
L 110.061379 26.794623 
L 110.602367 28.326521 
L 110.678614 28.251195 
L 110.860154 27.74256 
L 111.288587 26.583198 
L 111.404772 26.69687 
L 111.608097 27.333332 
L 111.982068 28.361637 
L 112.090992 28.266829 
L 112.268901 27.692807 
L 112.650134 26.462249 
L 112.668288 26.470372 
L 112.76632 26.684991 
L 112.969644 27.863262 
L 113.154814 28.551427 
L 113.183861 28.527363 
L 113.292785 28.157631 
L 113.717587 26.559858 
L 113.72848 26.562982 
L 113.837403 26.726489 
L 114.09519 27.67281 
L 114.374761 28.328739 
L 114.487315 28.239614 
L 114.676117 27.690098 
L 115.082765 26.583668 
L 115.198951 26.68253 
L 115.391383 27.261412 
L 115.79077 28.362546 
L 115.899694 28.253379 
L 116.084864 27.630677 
L 116.451574 26.461203 
L 116.462467 26.465042 
L 116.553236 26.635599 
L 116.731145 27.603147 
L 116.956254 28.550044 
L 116.978039 28.534478 
L 117.07607 28.238159 
L 117.522658 26.561152 
L 117.551704 26.577435 
L 117.678782 26.837982 
L 118.205247 28.326717 
L 118.259709 28.283508 
L 118.419464 27.898645 
L 118.909621 26.585507 
L 118.920513 26.589724 
L 119.04396 26.77445 
L 119.312639 27.73072 
L 119.59221 28.362813 
L 119.701134 28.254047 
L 119.886304 27.63103 
L 120.253014 26.460154 
L 120.263906 26.464112 
L 120.354676 26.636391 
L 120.532585 27.608875 
L 120.754063 28.549281 
L 120.779479 28.53203 
L 120.881141 28.216841 
L 121.324098 26.561685 
L 121.345883 26.572202 
L 121.465699 26.794981 
L 122.006687 28.326814 
L 122.082933 28.252853 
L 122.264473 27.746641 
L 122.692907 26.582949 
L 122.809092 26.694434 
L 123.012416 27.329159 
L 123.390019 28.362827 
L 123.498943 28.261867 
L 123.680482 27.662903 
L 124.054454 26.459103 
L 124.068977 26.465318 
L 124.163378 26.662088 
L 124.35581 27.761323 
L 124.555503 28.547931 
L 124.580919 28.529529 
L 124.682581 28.212075 
L 125.125538 26.56221 
L 125.147322 26.572714 
L 125.267139 26.795073 
L 125.811758 28.325666 
L 125.888004 28.247507 
L 126.073175 27.721276 
L 126.494347 26.58287 
L 126.610532 26.693626 
L 126.810225 27.313572 
L 127.191459 28.363077 
L 127.300382 28.262523 
L 127.481922 27.663268 
L 127.855894 26.45805 
L 127.870417 26.464435 
L 127.964818 26.663154 
L 128.15725 27.767288 
L 128.356943 28.546511 
L 128.382359 28.526976 
L 128.487652 28.1905 
L 128.926978 26.562727 
L 128.941501 26.568596 
L 129.057686 26.764923 
L 129.39535 28.005469 
L 129.609567 28.327006 
L 129.613197 28.325783 
L 129.733014 28.161862 
L 129.987169 27.291314 
L 130.284894 26.584262 
L 130.401079 26.67308 
L 130.589881 27.228049 
L 131.00016 28.363657 
L 131.109084 28.248663 
L 131.297885 27.600072 
L 131.657334 26.456994 
L 131.668226 26.461326 
L 131.758996 26.638991 
L 131.940535 27.650945 
L 132.154752 28.54564 
L 132.180168 28.529033 
L 132.28183 28.219212 
L 132.728417 26.563236 
L 132.753833 26.576431 
L 132.87728 26.816268 
L 133.414637 28.3259 
L 133.479992 28.265596 
L 133.650639 27.816078 
L 134.111749 26.583853 
L 134.227935 26.721079 
L 134.449413 27.454258 
L 134.790708 28.363023 
L 134.899631 28.270725 
L 135.07754 27.695258 
L 135.458773 26.455938 
L 135.476927 26.465354 
L 135.574959 26.692501 
L 135.789176 27.968156 
L 135.956192 28.544255 
L 135.988869 28.516376 
L 136.101424 28.129075 
L 136.526227 26.562982 
L 136.533488 26.564776 
L 136.642412 26.718899 
L 136.889306 27.610444 
L 137.1834 28.328292 
L 137.299585 28.236936 
L 137.492017 27.671264 
L 137.895035 26.582956 
L 138.011221 26.684471 
L 138.207284 27.28116 
L 138.599409 28.364159 
L 138.708333 28.257353 
L 138.893503 27.632587 
L 139.260213 26.45488 
L 139.271106 26.459479 
L 139.361876 26.640923 
L 139.547046 27.687488 
L 139.757632 28.542804 
L 139.779417 28.528368 
L 139.877448 28.242264 
L 140.331297 26.56423 
L 140.363974 26.583613 
L 140.494683 26.860352 
L 141.013886 28.327288 
L 141.064717 28.290363 
L 141.217211 27.94179 
L 141.721891 26.585352 
L 141.743676 26.596323 
L 141.874384 26.824299 
L 142.422634 28.361207 
L 142.513404 28.250652 
L 142.702205 27.600795 
L 143.061653 26.453822 
L 143.072546 26.45856 
L 143.163315 26.641952 
L 143.348486 27.69351 
L 143.555441 28.541824 
L 143.580857 28.525912 
L 143.682519 28.221648 
L 144.132737 26.564715 
L 144.158153 26.577836 
L 144.2816 26.81628 
L 144.818957 28.326245 
L 144.884311 28.267125 
L 145.054958 27.820032 
L 145.516069 26.583347 
L 145.632254 26.718449 
L 145.850102 27.435746 
L 146.195027 28.363732 
L 146.303951 28.272647 
L 146.478229 27.711875 
L 146.863093 26.452764 
L 146.881247 26.462909 
L 146.979278 26.696883 
L 147.200757 28.030133 
L 147.356881 28.540411 
L 147.389558 28.513523 
L 147.502113 28.132898 
L 147.930546 26.56444 
L 147.937808 26.566227 
L 148.046731 26.719401 
L 148.293625 27.60788 
L 148.58772 28.328054 
L 148.703905 28.238786 
L 148.896337 27.675504 
L 149.299355 26.582823 
L 149.41554 26.682139 
L 149.607972 27.262983 
L 150.00736 28.365109 
L 150.116283 28.251965 
L 150.305085 27.601202 
L 150.660902 26.450829 
L 150.675425 26.456733 
L 150.766195 26.644139 
L 150.951366 27.705636 
L 151.158321 28.538935 
L 151.183736 28.520864 
L 151.285399 28.212573 
L 151.735617 26.565662 
L 151.761032 26.578726 
L 151.884479 26.816226 
L 152.421837 28.326471 
L 152.490822 28.262815 
L 152.6651 27.79689 
L 153.115318 26.582516 
L 153.231503 26.709238 
L 153.442089 27.389747 
L 153.801538 28.36486 
L 153.910462 28.267057 
L 154.08837 27.681246 
L 154.462342 26.449726 
L 154.480496 26.458365 
L 154.574897 26.671856 
L 154.778221 27.881432 
L 154.959761 28.537397 
L 154.985176 28.518276 
L 155.090469 28.191753 
L 155.537057 26.566125 
L 155.555211 26.574057 
L 155.675027 26.785208 
L 156.226907 28.325283 
L 156.310415 28.233669 
L 156.506478 27.650973 
L 156.902235 26.582744 
L 157.01842 26.680595 
L 157.210852 27.260247 
L 157.610239 28.365698 
L 157.719163 28.253269 
L 157.904333 27.61771 
L 158.263782 26.448622 
L 158.278305 26.454926 
L 158.369075 26.646507 
L 158.557876 27.742491 
L 158.75757 28.536411 
L 158.782985 28.520186 
L 158.884647 28.219708 
L 159.338497 26.56658 
L 159.367543 26.582526 
L 159.494621 26.83763 
L 160.024716 28.326693 
L 160.082809 28.27909 
L 160.246195 27.875625 
L 160.72909 26.584297 
L 160.736352 26.586805 
L 160.856168 26.755041 
L 161.103062 27.618302 
L 161.404418 28.365382 
L 161.513341 28.268333 
L 161.69125 27.681786 
L 162.065222 26.44752 
L 162.083376 26.456683 
L 162.177776 26.674771 
L 162.388362 27.940137 
L 162.55901 28.534916 
L 162.588056 28.512986 
L 162.69698 28.166304 
L 163.139936 26.567027 
L 163.15446 26.572789 
L 163.270645 26.765548 
L 163.586524 27.927299 
L 163.822525 28.327829 
L 163.938711 28.185202 
L 164.171082 27.416163 
L 164.497853 26.584322 
L 164.614038 26.666469 
L 164.795578 27.188236 
L 165.220381 28.365928 
L 165.329304 28.239207 
L 165.525367 27.536294 
L 165.866662 26.446418 
L 165.873923 26.44896 
L 165.961062 26.611363 
L 166.13534 27.580824 
L 166.360449 28.533362 
L 166.382234 28.519344 
L 166.480266 28.242256 
L 166.941376 26.567467 
L 166.977684 26.589991 
L 167.112024 26.882294 
L 167.627596 28.326912 
L 167.667535 28.300821 
L 167.812766 27.995647 
L 168.335601 26.584981 
L 168.375539 26.611962 
L 168.520771 26.922117 
L 169.032713 28.363855 
L 169.083544 28.322309 
L 169.228776 27.947578 
L 169.668102 26.445317 
L 169.726194 26.513626 
L 169.856903 27.060047 
L 170.161889 28.531752 
L 170.201828 28.489701 
L 170.332537 27.999112 
L 170.724662 26.567011 
L 170.829955 26.665304 
L 171.026018 27.295767 
L 171.396359 28.327543 
L 171.512544 28.24248 
L 171.701345 27.697578 
L 172.111625 26.582079 
L 172.22418 26.677532 
L 172.416612 27.254805 
L 172.815999 28.366893 
L 172.924922 28.255846 
L 173.110093 27.618311 
L 173.469541 26.444219 
L 173.484065 26.451386 
L 173.578465 26.665466 
L 173.78542 27.911317 
L 173.959698 28.530758 
L 173.988745 28.509835 
L 174.097669 28.169891 
L 174.544256 26.568326 
L 174.558779 26.574034 
L 174.674965 26.765542 
L 174.987213 27.912309 
L 175.223214 28.328815 
L 175.3394 28.195177 
L 175.560878 27.476889 
L 175.905803 26.583366 
L 176.021989 26.670434 
L 176.207159 27.211685 
L 176.6247 28.366931 
L 176.733624 28.241153 
L 176.926056 27.552853 
L 177.26735 26.442309 
L 177.281874 26.448044 
L 177.372643 26.639931 
L 177.561445 27.74873 
L 177.761138 28.529194 
L 177.782923 28.51592 
L 177.880954 28.244641 
L 178.345696 26.568746 
L 178.385635 26.594771 
L 178.523605 26.904941 
L 179.031916 28.327232 
L 179.064593 28.308519 
L 179.202563 28.042117 
L 179.743551 26.58556 
L 179.801644 26.636213 
L 179.965029 27.050727 
L 180.437032 28.365004 
L 180.451556 28.358401 
L 180.567741 28.161338 
L 180.811004 27.165236 
L 181.06879 26.441163 
L 181.079683 26.445008 
L 181.166822 26.615687 
L 181.344731 27.630491 
L 181.562578 28.527578 
L 181.584363 28.513465 
L 181.686025 28.225154 
L 182.147136 26.569158 
L 182.179813 26.587987 
L 182.310521 26.858796 
L 182.836986 28.326192 
L 182.887817 28.286378 
L 183.043942 27.919672 
L 183.54136 26.584093 
L 183.559514 26.592492 
L 183.686592 26.80299 
L 183.99884 27.938341 
L 184.238472 28.365389 
L 184.347396 28.217687 
L 184.554351 27.435442 
L 184.87023 26.44002 
L 184.877492 26.442279 
L 184.964631 26.604606 
L 185.135278 27.561293 
L 185.360387 28.526472 
L 185.382172 28.514813 
L 185.480203 28.251236 
L 185.948576 26.569563 
L 185.992145 26.599362 
L 186.133746 26.928199 
L 186.634795 28.327441 
L 186.663842 28.312071 
L 186.798181 28.064827 
L 187.346431 26.585076 
L 187.415416 26.650652 
L 187.589694 27.126211 
L 188.039912 28.365776 
L 188.148836 28.21833 
L 188.355791 27.435195 
L 188.67167 26.43888 
L 188.678932 26.441252 
L 188.766071 26.605738 
L 188.940349 27.592687 
L 189.161827 28.524905 
L 189.183612 28.512417 
L 189.281643 28.247095 
L 189.750015 26.569961 
L 189.793585 26.599666 
L 189.935186 26.927871 
L 190.436235 28.327543 
L 190.465282 28.312353 
L 190.599621 28.065871 
L 191.147871 26.584837 
L 191.216856 26.649982 
L 191.391134 27.124891 
L 191.841352 28.366163 
L 191.950276 28.218969 
L 192.157231 27.434927 
L 192.47311 26.437743 
L 192.480372 26.440233 
L 192.567511 26.606919 
L 192.741789 27.598938 
L 192.963267 28.523288 
L 192.985052 28.509988 
L 193.083083 28.24299 
L 193.551455 26.570353 
L 193.591394 26.596046 
L 193.729364 26.903793 
L 194.241306 28.326567 
L 194.273983 28.306619 
L 194.415584 28.025326 
L 194.949311 26.584599 
L 195.000142 26.624517 
L 195.156266 26.995835 
L 195.642792 28.366552 
L 195.671838 28.349676 
L 195.798916 28.088845 
L 196.278181 26.437703 
L 196.372581 26.620794 
L 196.554121 27.680619 
L 196.764707 28.521624 
L 196.786492 28.507529 
L 196.888154 28.223913 
L 197.352895 26.570739 
L 197.389203 26.592697 
L 197.523542 26.880374 
L 198.042746 28.32669 
L 198.086315 28.296317 
L 198.235178 27.971228 
L 198.75075 26.584364 
L 198.783428 26.604759 
L 198.921398 26.879657 
L 199.447863 28.36575 
L 199.513217 28.300286 
L 199.672972 27.823205 
L 200.07599 26.435482 
L 200.112298 26.46655 
L 200.221221 26.827257 
L 200.566147 28.519915 
L 200.638763 28.401398 
L 200.842087 27.458942 
L 201.125289 26.573197 
L 201.234213 26.653111 
L 201.419383 27.218154 
L 201.815139 28.328634 
L 201.931325 28.234999 
L 202.123757 27.66818 
L 202.526775 26.581211 
L 202.639329 26.677915 
L 202.831761 27.258095 
L 203.231148 28.369468 
L 203.336441 28.260884 
L 203.517981 27.635112 
L 203.87743 26.43436 
L 203.895584 26.444763 
L 203.989984 26.679652 
L 204.229616 28.149967 
L 204.363956 28.518892 
L 204.403894 28.481846 
L 204.530972 28.035447 
L 204.944883 26.570206 
L 205.050176 26.680859 
L 205.2535 27.346934 
L 205.609318 28.326684 
L 205.725503 28.248001 
L 205.910673 27.723768 
L 206.331845 26.580855 
L 206.4444 26.683744 
L 206.640463 27.285032 
L 207.028958 28.369675 
L 207.134251 28.268781 
L 207.312159 27.667659 
L 207.675239 26.432394 
L 207.697023 26.443993 
L 207.791424 26.681694 
L 208.038318 28.192675 
L 208.165396 28.517237 
L 208.205334 28.478901 
L 208.332412 28.031692 
L 208.746322 26.570586 
L 208.851615 26.68092 
L 209.05494 27.346093 
L 209.414388 28.327665 
L 209.530574 28.242562 
L 209.719375 27.698244 
L 210.133285 26.58077 
L 210.24584 26.682964 
L 210.441903 27.283703 
L 210.834028 28.370135 
L 210.939321 28.262119 
L 211.120861 27.635099 
L 211.476678 26.431222 
L 211.494832 26.440137 
L 211.585602 26.654395 
L 211.796188 27.946762 
L 211.966835 28.51554 
L 211.992251 28.497434 
L 212.097544 28.192745 
L 212.558655 26.572216 
L 212.58407 26.584584 
L 212.707517 26.814154 
L 213.252136 28.325975 
L 213.324752 28.255043 
L 213.502661 27.766442 
L 213.941987 26.580689 
L 214.058172 26.703075 
L 214.265127 27.368373 
L 214.628206 28.369899 
L 214.733499 28.277032 
L 214.907778 27.699974 
L 215.278118 26.430057 
L 215.303534 26.446131 
L 215.401565 26.717387 
L 215.768275 28.513803 
L 215.866307 28.316237 
L 216.363725 26.573526 
L 216.443603 26.660106 
L 216.632404 27.243607 
L 217.020899 28.328395 
L 217.137084 28.237613 
L 217.329516 27.673938 
L 217.732534 26.580975 
L 217.845089 26.674875 
L 218.03389 27.23874 
L 218.440539 28.370724 
L 218.545832 28.255829 
L 218.731002 27.601944 
L 219.079558 26.428899 
L 219.097712 26.438522 
L 219.188482 26.658258 
L 219.40633 28.00305 
L 219.566084 28.512758 
L 219.598762 28.487414 
L 219.714947 28.121726 
L 220.161534 26.572917 
L 220.168796 26.575085 
L 220.281351 26.737339 
L 220.535506 27.64711 
L 220.822339 28.328331 
L 220.938524 28.238266 
L 221.130956 27.675379 
L 221.533974 26.58092 
L 221.646529 26.67412 
L 221.83533 27.23742 
L 222.241979 28.371079 
L 222.347272 28.256439 
L 222.532442 27.601817 
L 222.880998 26.427749 
L 222.899152 26.43774 
L 222.993553 26.675176 
L 223.25497 28.261098 
L 223.367524 28.511078 
L 223.411094 28.467031 
L 223.545433 27.982243 
L 223.948451 26.572195 
L 224.053744 26.67391 
L 224.249807 27.299307 
L 224.620148 28.327325 
L 224.736333 28.245086 
L 224.921504 27.717428 
L 225.342675 26.580265 
L 225.45523 26.686564 
L 225.651293 27.29264 
L 226.039788 28.371491 
L 226.145081 28.264559 
L 226.32662 27.634859 
L 226.682438 26.426608 
L 226.700592 26.436975 
L 226.794993 26.677407 
L 227.168964 28.509361 
L 227.281519 28.265008 
L 227.768045 26.57453 
L 227.822507 26.61997 
L 227.978631 27.023146 
L 228.454265 28.327629 
L 228.457896 28.326525 
L 228.577712 28.167163 
L 228.824606 27.329074 
L 229.133223 26.581486 
L 229.249408 26.672617 
L 229.43821 27.234789 
L 229.844858 28.371796 
L 229.950151 28.257652 
L 230.135322 27.601505 
L 230.480247 26.424666 
L 230.498401 26.433175 
L 230.589171 26.649811 
L 230.807018 27.997287 
L 230.970404 28.507609 
L 230.99945 28.484374 
L 231.112005 28.142685 
L 231.565854 26.573925 
L 231.580377 26.57924 
L 231.696563 26.764075 
L 231.987026 27.82146 
L 232.241181 28.329773 
L 232.357367 28.213689 
L 232.564322 27.569234 
L 232.934663 26.581462 
L 233.050848 26.671869 
L 233.239649 27.233478 
L 233.646298 28.372157 
L 233.751591 28.258254 
L 233.936762 27.601319 
L 234.281687 26.423474 
L 234.299841 26.432364 
L 234.390611 26.651895 
L 234.612089 28.024506 
L 234.768213 28.506538 
L 234.80089 28.481721 
L 234.917076 28.123184 
L 235.367294 26.574249 
L 235.378186 26.577813 
L 235.494372 26.754704 
L 235.770312 27.753847 
L 236.038991 28.329705 
L 236.151545 28.228048 
L 236.351239 27.626284 
L 236.739734 26.580721 
L 236.852288 26.671123 
L 237.037459 27.218195 
L 237.451369 28.372251 
L 237.556662 28.251097 
L 237.745463 27.567409 
L 238.083127 26.422292 
L 238.101281 26.431573 
L 238.192051 26.654047 
L 238.41716 28.051071 
L 238.569653 28.504845 
L 238.60233 28.479059 
L 238.718515 28.119621 
L 239.168734 26.574568 
L 239.179626 26.578107 
L 239.295812 26.754537 
L 239.571752 27.752809 
L 239.84043 28.329701 
L 239.952985 28.22874 
L 240.152679 27.627748 
L 240.541173 26.580676 
L 240.653728 26.670379 
L 240.838898 27.216891 
L 241.252809 28.372631 
L 241.358102 28.251694 
L 241.546903 27.56712 
L 241.884567 26.421121 
L 241.902721 26.430801 
L 241.99349 26.656267 
L 242.229492 28.117416 
L 242.371093 28.503121 
L 242.407401 28.471 
L 242.530848 28.067434 
L 242.970174 26.574881 
L 243.079097 26.711552 
L 243.307837 27.497676 
L 243.627347 28.326866 
L 243.743532 28.248227 
L 243.928703 27.724542 
L 244.349875 26.579787 
L 244.462429 26.68264 
L 244.658492 27.286109 
L 245.046987 28.373236 
L 245.15228 28.267552 
L 245.330189 27.650743 
L 245.686007 26.419961 
L 245.707791 26.433458 
L 245.802192 26.689599 
L 246.172533 28.501366 
L 246.274195 28.29955 
L 246.775244 26.576086 
L 246.855122 26.660509 
L 247.040292 27.223006 
L 247.436049 28.328687 
L 247.552234 28.236569 
L 247.744666 27.671859 
L 248.147684 26.580029 
L 248.260238 26.675276 
L 248.44904 27.242307 
L 248.852058 28.373626 
L 248.957351 28.260635 
L 249.13889 27.617199 
L 249.487446 26.418814 
L 249.5056 26.429324 
L 249.59637 26.660916 
L 249.973973 28.499582 
L 250.082896 28.270189 
L 250.576684 26.57638 
L 250.642038 26.636415 
L 250.809055 27.098234 
L 251.255642 28.329527 
L 251.371828 28.203108 
L 251.589675 27.506562 
L 251.941862 26.581367 
L 252.058048 26.668161 
L 252.243218 27.212997 
L 252.657128 28.373785 
L 252.762421 28.253465 
L 252.947592 27.583145 
L 253.285255 26.416877 
L 253.30704 26.428621 
L 253.39781 26.663347 
L 253.775412 28.497772 
L 253.884336 28.266685 
L 254.378124 26.576669 
L 254.439848 26.631055 
L 254.603233 27.070924 
L 255.060713 28.329098 
L 255.176898 28.196486 
L 255.398377 27.479907 
L 255.743302 26.581353 
L 255.859487 26.667425 
L 256.044658 27.211706 
L 256.458568 28.374174 
L 256.563861 28.25405 
L 256.749032 27.582803 
L 257.086695 26.415679 
L 257.104849 26.424726 
L 257.195619 26.65057 
L 257.438882 28.154224 
L 257.573222 28.49685 
L 257.609529 28.465658 
L 257.732976 28.07043 
L 258.175933 26.576079 
L 258.284857 26.711114 
L 258.509966 27.479159 
L 258.836737 28.327609 
L 258.952923 28.244752 
L 259.138093 27.71683 
L 259.559265 26.579263 
L 259.67182 26.686276 
L 259.867882 27.29523 
L 260.252746 28.374675 
L 260.358039 28.269901 
L 260.535948 27.649935 
L 260.888135 26.414495 
L 260.913551 26.431081 
L 261.011582 26.717443 
L 261.374661 28.495103 
L 261.465431 28.333759 
L 261.73411 27.109352 
L 261.970111 26.575432 
L 262.079035 26.695479 
L 262.289621 27.391272 
L 262.638177 28.327528 
L 262.754363 28.245397 
L 262.939533 27.718262 
L 263.360705 26.579156 
L 263.47326 26.685488 
L 263.669322 27.293949 
L 264.054186 28.375041 
L 264.159479 28.270482 
L 264.337388 27.649682 
L 264.689575 26.413326 
L 264.714991 26.430557 
L 264.813022 26.720548 
L 265.176101 28.493333 
L 265.26324 28.341657 
L 265.510134 27.220821 
L 265.76429 26.575876 
L 265.873213 26.680762 
L 266.072907 27.318227 
L 266.439617 28.327445 
L 266.555802 28.24604 
L 266.740973 27.719695 
L 267.162145 26.579051 
L 267.274699 26.684702 
L 267.470762 27.292671 
L 267.859257 28.375515 
L 267.96455 28.263548 
L 268.14609 27.61571 
L 268.491015 26.412173 
L 268.5128 26.426069 
L 268.56 26.516481 
L 268.56 26.516481 
" clip-path="url(#peaa93a5034)" style="fill: none; stroke: #808080; stroke-width: 1.5; stroke-linecap: square"/>
   </g>
   <g id="patch_3">
    <path d="M 87.024 155.94 
L 87.024 19.44 
" style="fill: none; stroke: #000000; stroke-width: 0.8; stroke-linejoin: miter; stroke-linecap: square"/>
   </g>
   <g id="patch_4">
    <path d="M 268.56 155.94 
L 268.56 19.44 
" style="fill: none; stroke: #000000; stroke-width: 0.8; stroke-linejoin: miter; stroke-linecap: square"/>
   </g>
   <g id="patch_5">
    <path d="M 87.024 155.94 
L 268.56 155.94 
" style="fill: none; stroke: #000000; stroke-width: 0.8; stroke-linejoin: miter; stroke-linecap: square"/>
   </g>
   <g id="patch_6">
    <path d="M 87.024 19.44 
L 268.56 19.44 
" style="fill: none; stroke: #000000; stroke-width: 0.8; stroke-linejoin: miter; stroke-linecap: square"/>
   </g>
  </g>
 </g>
 <defs>
  <clipPath id="peaa93a5034">
   <rect x="87.024" y="19.44" width="181.536" height="136.5"/>
  </clipPath>
 </defs>
</svg>
