<?xml version="1.0" encoding="utf-8" standalone="no"?>
<!DOCTYPE svg PUBLIC "-//W3C//DTD SVG 1.1//EN"
  "http://www.w3.org/Graphics/SVG/1.1/DTD/svg11.dtd">
<svg xmlns:xlink="http://www.w3.org/1999/xlink" width="288pt" height="216pt" viewBox="0 0 288 216" xmlns="http://www.w3.org/2000/svg" version="1.1">
 <metadata>
  <rdf:RDF xmlns:dc="http://purl.org/dc/elements/1.1/" xmlns:cc="http://creativecommons.org/ns#" xmlns:rdf="http://www.w3.org/1999/02/22-rdf-syntax-ns#">
   <cc:Work>
    <dc:type rdf:resource="http://purl.org/dc/dcmitype/StillImage"/>
    <dc:date>2024-02-28T15:13:01.400682</dc:date>
    <dc:format>image/svg+xml</dc:format>
    <dc:creator>
     <cc:Agent>
      <dc:title>Matplotlib v3.7.2, https://matplotlib.org/</dc:title>
     </cc:Agent>
    </dc:creator>
   </cc:Work>
  </rdf:RDF>
 </metadata>
 <defs>
  <style type="text/css">*{stroke-linejoin: round; stroke-linecap: butt}</style>
 </defs>
 <g id="figure_1">
  <g id="patch_1">
   <path d="M 0 216 
L 288 216 
L 288 0 
L 0 0 
L 0 216 
z
" style="fill: none"/>
  </g>
  <g id="axes_1">
   <g id="patch_2">
    <path d="M 74.01 155.94 
L 253.575 155.94 
L 253.575 19.44 
L 74.01 19.44 
L 74.01 155.94 
z
" style="fill: none"/>
   </g>
   <g id="matplotlib.axis_1">
    <g id="xtick_1">
     <g id="line2d_1">
      <defs>
       <path id="mca84e78d22" d="M 0 0 
L 0 -3.5 
" style="stroke: #000000; stroke-width: 0.8"/>
      </defs>
      <g>
       <use xlink:href="#mca84e78d22" x="74.01" y="155.94" style="stroke: #000000; stroke-width: 0.8"/>
      </g>
     </g>
     <g id="text_1">
      <!-- 0 -->
      <g transform="translate(69.005156 172.324062) scale(0.18 -0.18)">
       <defs>
        <path id="ArialMT-30" d="M 266 2259 
Q 266 3072 433 3567 
Q 600 4063 929 4331 
Q 1259 4600 1759 4600 
Q 2128 4600 2406 4451 
Q 2684 4303 2865 4023 
Q 3047 3744 3150 3342 
Q 3253 2941 3253 2259 
Q 3253 1453 3087 958 
Q 2922 463 2592 192 
Q 2263 -78 1759 -78 
Q 1097 -78 719 397 
Q 266 969 266 2259 
z
M 844 2259 
Q 844 1131 1108 757 
Q 1372 384 1759 384 
Q 2147 384 2411 759 
Q 2675 1134 2675 2259 
Q 2675 3391 2411 3762 
Q 2147 4134 1753 4134 
Q 1366 4134 1134 3806 
Q 844 3388 844 2259 
z
" transform="scale(0.015625)"/>
       </defs>
       <use xlink:href="#ArialMT-30"/>
      </g>
     </g>
    </g>
    <g id="xtick_2">
     <g id="line2d_2">
      <g>
       <use xlink:href="#mca84e78d22" x="163.7925" y="155.94" style="stroke: #000000; stroke-width: 0.8"/>
      </g>
     </g>
     <g id="text_2">
      <!-- 100 -->
      <g transform="translate(148.777969 172.324062) scale(0.18 -0.18)">
       <defs>
        <path id="ArialMT-31" d="M 2384 0 
L 1822 0 
L 1822 3584 
Q 1619 3391 1289 3197 
Q 959 3003 697 2906 
L 697 3450 
Q 1169 3672 1522 3987 
Q 1875 4303 2022 4600 
L 2384 4600 
L 2384 0 
z
" transform="scale(0.015625)"/>
       </defs>
       <use xlink:href="#ArialMT-31"/>
       <use xlink:href="#ArialMT-30" x="55.615234"/>
       <use xlink:href="#ArialMT-30" x="111.230469"/>
      </g>
     </g>
    </g>
    <g id="xtick_3">
     <g id="line2d_3">
      <g>
       <use xlink:href="#mca84e78d22" x="253.575" y="155.94" style="stroke: #000000; stroke-width: 0.8"/>
      </g>
     </g>
     <g id="text_3">
      <!-- 200 -->
      <g transform="translate(238.560469 172.324062) scale(0.18 -0.18)">
       <defs>
        <path id="ArialMT-32" d="M 3222 541 
L 3222 0 
L 194 0 
Q 188 203 259 391 
Q 375 700 629 1000 
Q 884 1300 1366 1694 
Q 2113 2306 2375 2664 
Q 2638 3022 2638 3341 
Q 2638 3675 2398 3904 
Q 2159 4134 1775 4134 
Q 1369 4134 1125 3890 
Q 881 3647 878 3216 
L 300 3275 
Q 359 3922 746 4261 
Q 1134 4600 1788 4600 
Q 2447 4600 2831 4234 
Q 3216 3869 3216 3328 
Q 3216 3053 3103 2787 
Q 2991 2522 2730 2228 
Q 2469 1934 1863 1422 
Q 1356 997 1212 845 
Q 1069 694 975 541 
L 3222 541 
z
" transform="scale(0.015625)"/>
       </defs>
       <use xlink:href="#ArialMT-32"/>
       <use xlink:href="#ArialMT-30" x="55.615234"/>
       <use xlink:href="#ArialMT-30" x="111.230469"/>
      </g>
     </g>
    </g>
    <g id="text_4">
     <!-- $t$ -->
     <g transform="translate(160.1925 192.785625) scale(0.18 -0.18)">
      <defs>
       <path id="DejaVuSans-Oblique-74" d="M 2706 3500 
L 2619 3053 
L 1472 3053 
L 1100 1153 
Q 1081 1047 1072 975 
Q 1063 903 1063 863 
Q 1063 663 1183 572 
Q 1303 481 1569 481 
L 2150 481 
L 2053 0 
L 1503 0 
Q 991 0 739 200 
Q 488 400 488 806 
Q 488 878 497 964 
Q 506 1050 525 1153 
L 897 3053 
L 409 3053 
L 500 3500 
L 978 3500 
L 1172 4494 
L 1747 4494 
L 1556 3500 
L 2706 3500 
z
" transform="scale(0.015625)"/>
      </defs>
      <use xlink:href="#DejaVuSans-Oblique-74" transform="translate(0 0.78125)"/>
     </g>
    </g>
   </g>
   <g id="matplotlib.axis_2">
    <g id="ytick_1">
     <g id="line2d_4">
      <defs>
       <path id="mc5e184d7ec" d="M 0 0 
L 3.5 0 
" style="stroke: #000000; stroke-width: 0.8"/>
      </defs>
      <g>
       <use xlink:href="#mc5e184d7ec" x="74.01" y="134.429387" style="stroke: #000000; stroke-width: 0.8"/>
      </g>
     </g>
     <g id="text_5">
      <!-- −50 -->
      <g transform="translate(39.9775 140.871418) scale(0.18 -0.18)">
       <defs>
        <path id="ArialMT-2212" d="M 3381 1997 
L 356 1997 
L 356 2522 
L 3381 2522 
L 3381 1997 
z
" transform="scale(0.015625)"/>
        <path id="ArialMT-35" d="M 266 1200 
L 856 1250 
Q 922 819 1161 601 
Q 1400 384 1738 384 
Q 2144 384 2425 690 
Q 2706 997 2706 1503 
Q 2706 1984 2436 2262 
Q 2166 2541 1728 2541 
Q 1456 2541 1237 2417 
Q 1019 2294 894 2097 
L 366 2166 
L 809 4519 
L 3088 4519 
L 3088 3981 
L 1259 3981 
L 1013 2750 
Q 1425 3038 1878 3038 
Q 2478 3038 2890 2622 
Q 3303 2206 3303 1553 
Q 3303 931 2941 478 
Q 2500 -78 1738 -78 
Q 1113 -78 717 272 
Q 322 622 266 1200 
z
" transform="scale(0.015625)"/>
       </defs>
       <use xlink:href="#ArialMT-2212"/>
       <use xlink:href="#ArialMT-35" x="58.398438"/>
       <use xlink:href="#ArialMT-30" x="114.013672"/>
      </g>
     </g>
    </g>
    <g id="ytick_2">
     <g id="line2d_5">
      <g>
       <use xlink:href="#mc5e184d7ec" x="74.01" y="87.383029" style="stroke: #000000; stroke-width: 0.8"/>
      </g>
     </g>
     <g id="text_6">
      <!-- 0 -->
      <g transform="translate(60.500313 93.825061) scale(0.18 -0.18)">
       <use xlink:href="#ArialMT-30"/>
      </g>
     </g>
    </g>
    <g id="ytick_3">
     <g id="line2d_6">
      <g>
       <use xlink:href="#mc5e184d7ec" x="74.01" y="40.336672" style="stroke: #000000; stroke-width: 0.8"/>
      </g>
     </g>
     <g id="text_7">
      <!-- 50 -->
      <g transform="translate(50.490625 46.778703) scale(0.18 -0.18)">
       <use xlink:href="#ArialMT-35"/>
       <use xlink:href="#ArialMT-30" x="55.615234"/>
      </g>
     </g>
    </g>
    <g id="text_8">
     <!-- $r_i$ -->
     <g transform="translate(32.4 93.45) rotate(-90) scale(0.18 -0.18)">
      <defs>
       <path id="DejaVuSans-Oblique-72" d="M 2853 2969 
Q 2766 3016 2653 3041 
Q 2541 3066 2413 3066 
Q 1953 3066 1609 2717 
Q 1266 2369 1153 1784 
L 800 0 
L 225 0 
L 909 3500 
L 1484 3500 
L 1375 2956 
Q 1603 3259 1920 3421 
Q 2238 3584 2597 3584 
Q 2691 3584 2781 3573 
Q 2872 3563 2963 3538 
L 2853 2969 
z
" transform="scale(0.015625)"/>
       <path id="DejaVuSans-Oblique-69" d="M 1172 4863 
L 1747 4863 
L 1606 4134 
L 1031 4134 
L 1172 4863 
z
M 909 3500 
L 1484 3500 
L 800 0 
L 225 0 
L 909 3500 
z
" transform="scale(0.015625)"/>
      </defs>
      <use xlink:href="#DejaVuSans-Oblique-72"/>
      <use xlink:href="#DejaVuSans-Oblique-69" transform="translate(41.113281 -16.40625) scale(0.7)"/>
     </g>
    </g>
   </g>
   <g id="line2d_7">
    <path d="M 74.01 87.151746 
L 74.180595 86.461178 
L 74.360169 84.625324 
L 74.566679 79.796981 
L 74.853998 71.455489 
L 74.90787 72.274981 
L 75.015614 79.360744 
L 75.356805 125.363711 
L 75.653102 148.769152 
L 75.724931 149.735455 
L 75.778804 149.148916 
L 75.895527 144.089098 
L 76.111016 122.725568 
L 76.963992 25.653545 
L 76.972971 25.644545 
L 76.990928 25.722726 
L 77.062758 27.3111 
L 77.215396 37.155636 
L 77.502714 73.902082 
L 78.077351 145.666541 
L 78.203052 148.913756 
L 78.238967 148.688165 
L 78.328754 145.889196 
L 78.508328 131.426889 
L 78.885434 77.309022 
L 79.307432 29.205177 
L 79.433134 25.929318 
L 79.478028 26.284597 
L 79.576793 29.870569 
L 79.765346 46.452236 
L 80.22326 113.624504 
L 80.56445 146.78839 
L 80.663216 148.807813 
L 80.708109 148.436636 
L 80.815854 144.299596 
L 81.013385 126.019165 
L 81.893298 25.969386 
L 81.929212 26.22148 
L 82.027978 29.550814 
L 82.216531 45.726126 
L 82.647508 108.822745 
L 83.015635 146.522119 
L 83.123379 148.791777 
L 83.168273 148.367843 
L 83.276017 144.107134 
L 83.482527 124.524405 
L 84.353461 25.977421 
L 84.371419 26.061846 
L 84.443248 27.686763 
L 84.595886 37.654796 
L 84.883204 74.639913 
L 85.448862 145.412212 
L 85.583543 148.785497 
L 85.619458 148.463326 
L 85.718223 144.945827 
L 85.906776 128.46537 
L 86.355711 62.611319 
L 86.70588 28.041007 
L 86.804646 25.978672 
L 86.849539 26.33075 
L 86.948305 29.912954 
L 87.136858 46.497551 
L 87.594771 113.677445 
L 87.935962 146.792394 
L 88.034728 148.788658 
L 88.079621 148.40626 
L 88.187366 144.241772 
L 88.384897 125.916212 
L 89.264809 25.977196 
L 89.300724 26.242815 
L 89.39949 29.608863 
L 89.588043 45.844996 
L 90.01902 108.973561 
L 90.378168 146.171891 
L 90.494891 148.787952 
L 90.530806 148.49803 
L 90.629572 145.066849 
L 90.818124 128.725469 
L 91.258081 64.23258 
L 91.617229 28.132294 
L 91.724973 25.980149 
L 91.769866 26.453602 
L 91.877611 30.829347 
L 92.084121 50.591266 
L 92.946076 148.786492 
L 92.964033 148.746589 
L 93.026884 147.590887 
L 93.161565 139.978706 
L 93.412968 110.475277 
L 94.086371 27.652445 
L 94.176158 25.977804 
L 94.23003 26.521792 
L 94.346753 31.613378 
L 94.562242 53.327031 
L 95.397261 148.772435 
L 95.40624 148.788873 
L 95.433176 148.643976 
L 95.513984 146.475274 
L 95.675601 134.7925 
L 95.989855 92.191623 
L 96.492662 29.984442 
L 96.636321 25.977711 
L 96.672236 26.259874 
L 96.771002 29.670267 
L 96.959554 45.978082 
L 97.399511 110.455106 
L 97.758659 146.611492 
L 97.866403 148.786678 
L 97.911297 148.322909 
L 98.019041 143.969607 
L 98.225551 124.24247 
L 99.087506 25.980372 
L 99.105464 26.016392 
L 99.168314 27.158608 
L 99.302995 34.743759 
L 99.554398 64.212445 
L 100.227801 147.093938 
L 100.317588 148.787816 
L 100.37146 148.255446 
L 100.488183 143.188018 
L 100.703672 121.509361 
L 101.538691 25.995639 
L 101.54767 25.977259 
L 101.574606 26.116336 
L 101.655414 28.267849 
L 101.817031 39.919862 
L 102.131285 82.490139 
L 102.634092 144.751515 
L 102.777751 148.78864 
L 102.813666 148.514231 
L 102.912432 145.12462 
L 103.100985 128.850384 
L 103.540941 64.389339 
L 103.900089 28.176941 
L 104.007833 25.978724 
L 104.052727 26.43281 
L 104.160471 30.763668 
L 104.366981 50.455992 
L 105.237915 148.784886 
L 105.246894 148.75263 
L 105.309744 147.623902 
L 105.444425 140.065792 
L 105.695829 110.631901 
L 106.369231 27.691908 
L 106.459018 25.978798 
L 106.51289 26.499549 
L 106.629613 31.542811 
L 106.845102 53.186431 
L 107.680121 148.768288 
L 107.6891 148.78861 
L 107.716036 148.655354 
L 107.796844 146.521035 
L 107.958461 134.899804 
L 108.272715 92.360207 
L 108.784501 29.555254 
L 108.919181 25.977244 
L 108.955096 26.243897 
L 109.053862 29.61272 
L 109.242415 45.853348 
L 109.673392 108.984172 
L 110.03254 146.175158 
L 110.149263 148.787876 
L 110.185178 148.496911 
L 110.283944 145.062939 
L 110.472496 128.71705 
L 110.912453 64.222036 
L 111.271601 28.129308 
L 111.379345 25.980267 
L 111.424238 26.455026 
L 111.531983 30.833793 
L 111.738493 50.600398 
L 112.600448 148.78659 
L 112.618405 148.746162 
L 112.681256 147.588641 
L 112.815937 139.972814 
L 113.06734 110.464702 
L 113.740743 27.649799 
L 113.83053 25.977755 
L 113.884402 26.523311 
L 114.001125 31.618157 
L 114.216614 53.336531 
L 115.051633 148.772698 
L 115.060612 148.788874 
L 115.087548 148.64319 
L 115.168356 146.472168 
L 115.329972 134.785244 
L 115.644227 92.180241 
L 116.147034 29.980387 
L 116.290693 25.977759 
L 116.326608 26.26097 
L 116.425374 29.674168 
L 116.613926 45.986514 
L 117.053883 110.465686 
L 117.413031 146.614504 
L 117.520775 148.786581 
L 117.565669 148.321504 
L 117.673413 143.965172 
L 117.879923 124.233337 
L 118.741878 25.980257 
L 118.759835 26.016801 
L 118.822686 27.160837 
L 118.957367 34.749639 
L 119.20877 64.223019 
L 119.882173 147.096601 
L 119.97196 148.787882 
L 120.025832 148.253943 
L 120.142555 143.183253 
L 120.358044 121.499868 
L 121.193063 25.99536 
L 121.202042 25.977242 
L 121.228978 26.117105 
L 121.309786 28.270939 
L 121.471403 39.927107 
L 121.785657 82.50152 
L 122.288464 144.755586 
L 122.432123 148.788607 
L 122.468038 148.513152 
L 122.566804 145.120734 
L 122.755357 128.841962 
L 123.195313 64.378753 
L 123.554461 28.173914 
L 123.662205 25.978806 
L 123.707099 26.434199 
L 123.814843 30.768088 
L 124.021353 50.465115 
L 124.883308 148.784898 
L 124.901266 148.752236 
L 124.964116 147.621687 
L 125.098797 140.059926 
L 125.350201 110.621333 
L 126.023603 27.68923 
L 126.11339 25.978716 
L 126.167262 26.501036 
L 126.283985 31.547562 
L 126.499474 53.195915 
L 127.334493 148.768583 
L 127.343472 148.788643 
L 127.370408 148.654601 
L 127.451216 146.51796 
L 127.612833 134.892571 
L 127.927087 92.348826 
L 128.438873 29.551414 
L 128.573553 25.977261 
L 128.609468 26.244961 
L 128.708234 29.616591 
L 128.896787 45.861759 
L 129.327764 108.99486 
L 129.686912 146.178452 
L 129.803635 148.787809 
L 129.83955 148.495798 
L 129.938316 145.059021 
L 130.126868 128.708606 
L 130.566825 64.211462 
L 130.925973 28.126312 
L 131.033717 25.980383 
L 131.07861 26.456448 
L 131.186355 30.838244 
L 131.392865 50.609541 
L 132.25482 148.786687 
L 132.272777 148.745735 
L 132.335628 147.586394 
L 132.470309 139.966919 
L 132.721712 110.454122 
L 133.395115 27.647154 
L 133.484902 25.977707 
L 133.529795 26.352993 
L 133.63754 30.500963 
L 133.835071 48.80165 
L 134.714983 148.788873 
L 134.750898 148.528928 
L 134.849664 145.178092 
L 135.038217 128.96656 
L 135.469194 65.850369 
L 135.828342 28.612055 
L 135.945065 25.97781 
L 135.98098 26.262067 
L 136.079746 29.67807 
L 136.268298 45.994947 
L 136.708255 110.476266 
L 137.067403 146.617515 
L 137.175147 148.786481 
L 137.220041 148.320097 
L 137.327785 143.960735 
L 137.534295 124.224203 
L 138.39625 25.980144 
L 138.414207 26.017213 
L 138.477058 27.163069 
L 138.611739 34.755521 
L 138.863142 64.233594 
L 139.536545 147.099262 
L 139.626332 148.787945 
L 139.680204 148.252438 
L 139.796927 143.178486 
L 140.012416 121.490374 
L 140.847435 25.995084 
L 140.856414 25.977228 
L 140.88335 26.117877 
L 140.964158 28.274032 
L 141.125775 39.934353 
L 141.440029 82.512902 
L 141.942836 144.759655 
L 142.086495 148.788572 
L 142.12241 148.51207 
L 142.221176 145.116846 
L 142.409728 128.833539 
L 142.849685 64.368167 
L 143.208833 28.170888 
L 143.316577 25.97889 
L 143.361471 26.435591 
L 143.469215 30.772511 
L 143.675725 50.47424 
L 144.53768 148.785027 
L 144.555638 148.751841 
L 144.618488 147.619471 
L 144.753169 140.054057 
L 145.004572 110.610764 
L 145.677975 27.686553 
L 145.767762 25.978637 
L 145.821634 26.502526 
L 145.938357 31.552314 
L 146.153846 53.2054 
L 146.988865 148.768875 
L 146.997844 148.788673 
L 147.02478 148.653845 
L 147.105588 146.514882 
L 147.267205 134.885336 
L 147.581459 92.337446 
L 148.093245 29.547577 
L 148.227925 25.97728 
L 148.26384 26.246027 
L 148.362606 29.620464 
L 148.551159 45.870171 
L 148.982136 109.005547 
L 149.341284 146.181745 
L 149.458007 148.787741 
L 149.493922 148.494683 
L 149.592688 145.055102 
L 149.78124 128.70016 
L 150.221197 64.200889 
L 150.580345 28.123319 
L 150.688089 25.9805 
L 150.732982 26.457873 
L 150.840727 30.842698 
L 151.047237 50.618686 
L 151.909192 148.786782 
L 151.927149 148.745306 
L 151.99 147.584144 
L 152.124681 139.961022 
L 152.376084 110.44354 
L 153.049487 27.64451 
L 153.139274 25.977661 
L 153.184167 26.354255 
L 153.291912 30.505265 
L 153.489443 48.810533 
L 154.369355 148.78887 
L 154.40527 148.527878 
L 154.504036 145.174233 
L 154.692589 128.958158 
L 155.123566 65.839677 
L 155.482714 28.608748 
L 155.599437 25.977862 
L 155.635352 26.263167 
L 155.734118 29.681975 
L 155.92267 46.003383 
L 156.362627 110.486845 
L 156.721775 146.620523 
L 156.829519 148.786379 
L 156.874412 148.318688 
L 156.982157 143.956296 
L 157.188667 124.215068 
L 158.050622 25.980033 
L 158.068579 26.017626 
L 158.13143 27.165304 
L 158.266111 34.761405 
L 158.517514 64.24417 
L 159.190917 147.101921 
L 159.280704 148.788007 
L 159.334576 148.250931 
L 159.451299 143.173717 
L 159.666788 121.480879 
L 160.501807 25.994809 
L 160.510786 25.977215 
L 160.537722 26.11865 
L 160.61853 28.277126 
L 160.780147 39.941602 
L 161.094401 82.524284 
L 161.597208 144.763721 
L 161.740867 148.788536 
L 161.776782 148.510986 
L 161.875548 145.112956 
L 162.0641 128.825114 
L 162.504057 64.357582 
L 162.863205 28.167865 
L 162.970949 25.978976 
L 163.015843 26.436984 
L 163.123587 30.776935 
L 163.330097 50.483366 
L 164.192052 148.785154 
L 164.21001 148.751443 
L 164.27286 147.617252 
L 164.407541 140.048187 
L 164.658944 110.600194 
L 165.332347 27.683879 
L 165.422134 25.978559 
L 165.476006 26.504017 
L 165.592729 31.557069 
L 165.808218 53.214886 
L 166.643237 148.769166 
L 166.652216 148.788701 
L 166.679152 148.653087 
L 166.75996 146.511803 
L 166.921577 134.8781 
L 167.235831 92.326066 
L 167.747617 29.543741 
L 167.882297 25.977301 
L 167.918212 26.247095 
L 168.016978 29.62434 
L 168.205531 45.878585 
L 168.636508 109.016233 
L 168.995656 146.185036 
L 169.112379 148.787671 
L 169.148294 148.493565 
L 169.24706 145.05118 
L 169.435612 128.691713 
L 169.875569 64.190316 
L 170.234716 28.120328 
L 170.342461 25.98062 
L 170.387354 26.4593 
L 170.495099 30.847153 
L 170.701609 50.627831 
L 171.563564 148.786876 
L 171.581521 148.744875 
L 171.644372 147.581893 
L 171.779053 139.955123 
L 172.030456 110.432958 
L 172.703859 27.641869 
L 172.793646 25.977617 
L 172.838539 26.35552 
L 172.946284 30.509569 
L 173.143815 48.819418 
L 174.023727 148.788864 
L 174.059642 148.526825 
L 174.158408 145.170373 
L 174.346961 128.949754 
L 174.777938 65.828986 
L 175.137086 28.605442 
L 175.253809 25.977917 
L 175.289724 26.264268 
L 175.38849 29.685882 
L 175.577042 46.011819 
L 176.016999 110.497424 
L 176.376147 146.623529 
L 176.483891 148.786275 
L 176.528784 148.317277 
L 176.636529 143.951855 
L 176.843039 124.205932 
L 177.704994 25.979924 
L 177.722951 26.018041 
L 177.785802 27.16754 
L 177.920483 34.76729 
L 178.171886 64.254746 
L 178.845289 147.104578 
L 178.935076 148.788067 
L 178.988948 148.249422 
L 179.105671 143.168946 
L 179.32116 121.471383 
L 180.156179 25.994537 
L 180.165158 25.977205 
L 180.192094 26.119426 
L 180.272902 28.280223 
L 180.434518 39.948852 
L 180.748773 82.535666 
L 181.25158 144.767786 
L 181.395239 148.788497 
L 181.431154 148.5099 
L 181.52992 145.109064 
L 181.718472 128.816688 
L 182.158429 64.346998 
L 182.517577 28.164843 
L 182.625321 25.979064 
L 182.670215 26.43838 
L 182.777959 30.781361 
L 182.984469 50.492492 
L 183.846424 148.785278 
L 183.864381 148.751044 
L 183.927232 147.615031 
L 184.061913 140.042315 
L 184.313316 110.589624 
L 184.986719 27.681207 
L 185.076506 25.978484 
L 185.130378 26.50551 
L 185.247101 31.561825 
L 185.46259 53.224374 
L 186.297609 148.769454 
L 186.306588 148.788727 
L 186.333524 148.652327 
L 186.414332 146.508721 
L 186.575949 134.870862 
L 186.890203 92.314685 
L 187.401989 29.539908 
L 187.536669 25.977324 
L 187.572584 26.248166 
L 187.67135 29.628217 
L 187.859902 45.887001 
L 188.299859 110.340655 
L 188.659007 146.57879 
L 188.766751 148.787598 
L 188.811645 148.337965 
L 188.919389 144.017432 
L 189.125899 124.341131 
L 189.996833 25.980742 
L 190.005812 26.012106 
L 190.068662 27.13463 
L 190.203343 34.680298 
L 190.454746 64.098168 
L 191.128149 147.065013 
L 191.217936 148.786967 
L 191.271808 148.271559 
L 191.388531 143.239415 
L 191.60402 121.611922 
L 192.439039 25.99879 
L 192.448018 25.977575 
L 192.474954 26.108154 
L 192.555762 28.234564 
L 192.717379 39.841632 
L 193.031633 82.367092 
L 193.543419 145.197712 
L 193.678099 148.788857 
L 193.714014 148.525771 
L 193.81278 145.16651 
L 194.001333 128.94135 
L 194.43231 65.818295 
L 194.791458 28.602138 
L 194.908181 25.977974 
L 194.944096 26.265372 
L 195.042862 29.689791 
L 195.231414 46.020257 
L 195.671371 110.508001 
L 196.030519 146.626534 
L 196.138263 148.786169 
L 196.183156 148.315863 
L 196.290901 143.947413 
L 196.497411 124.196794 
L 197.359366 25.979817 
L 197.377323 26.018459 
L 197.440174 27.169778 
L 197.574855 34.773178 
L 197.826258 64.265324 
L 198.499661 147.107233 
L 198.589448 148.788124 
L 198.64332 148.247911 
L 198.760043 143.164173 
L 198.975532 121.461886 
L 199.810551 25.994266 
L 199.819529 25.977197 
L 199.846466 26.120203 
L 199.927274 28.283321 
L 200.08889 39.956103 
L 200.403145 82.547048 
L 200.905952 144.771849 
L 201.049611 148.788455 
L 201.085526 148.508812 
L 201.184292 145.10517 
L 201.372844 128.808261 
L 201.812801 64.336415 
L 202.171949 28.161824 
L 202.279693 25.979154 
L 202.324586 26.439778 
L 202.432331 30.785789 
L 202.638841 50.501621 
L 203.500796 148.785401 
L 203.518753 148.750642 
L 203.581604 147.612808 
L 203.716285 140.036441 
L 203.967688 110.579052 
L 204.641091 27.678537 
L 204.730878 25.978411 
L 204.78475 26.507006 
L 204.901473 31.566584 
L 205.116962 53.233862 
L 205.951981 148.76974 
L 205.96096 148.788751 
L 205.987896 148.651565 
L 206.068704 146.505638 
L 206.230321 134.863623 
L 206.544575 92.303304 
L 207.047382 30.024346 
L 207.191041 25.977349 
L 207.226956 26.249238 
L 207.325722 29.632096 
L 207.514274 45.895418 
L 207.954231 110.351244 
L 208.313379 146.581824 
L 208.421123 148.787523 
L 208.466017 148.336583 
L 208.573761 144.013019 
L 208.780271 124.332012 
L 209.651205 25.980866 
L 209.660184 26.012492 
L 209.723034 27.136837 
L 209.857715 34.686158 
L 210.109118 64.108733 
L 210.782521 147.067698 
L 210.872308 148.787056 
L 210.92618 148.270079 
L 211.042903 143.234671 
L 211.258392 121.602442 
L 212.093411 25.998488 
L 212.10239 25.977535 
L 212.129326 26.1089 
L 212.210134 28.237633 
L 212.371751 39.848859 
L 212.686005 82.378471 
L 213.197791 145.201558 
L 213.332471 148.788847 
L 213.368386 148.524714 
L 213.467152 145.162646 
L 213.655705 128.932943 
L 214.086682 65.807605 
L 214.44583 28.598837 
L 214.562553 25.978033 
L 214.598468 26.266478 
L 214.697234 29.693702 
L 214.885786 46.028697 
L 215.325743 110.518578 
L 215.68489 146.629536 
L 215.792635 148.786061 
L 215.837528 148.314448 
L 215.945273 143.942968 
L 216.151783 124.187655 
L 217.013738 25.979712 
L 217.031695 26.018878 
L 217.094546 27.172018 
L 217.229227 34.779067 
L 217.48063 64.275902 
L 218.154033 147.109885 
L 218.24382 148.78818 
L 218.297692 148.246398 
L 218.414415 143.159399 
L 218.629904 121.452387 
L 219.464923 25.993998 
L 219.473901 25.977191 
L 219.500838 26.120983 
L 219.581646 28.286422 
L 219.743262 39.963357 
L 220.057517 82.55843 
L 220.560324 144.77591 
L 220.703983 148.788412 
L 220.739898 148.507721 
L 220.838664 145.101274 
L 221.027216 128.799832 
L 221.467173 64.325832 
L 221.826321 28.158806 
L 221.934065 25.979247 
L 221.978958 26.441178 
L 222.086703 30.79022 
L 222.293213 50.51075 
L 223.155168 148.785521 
L 223.173125 148.750238 
L 223.235976 147.610583 
L 223.370657 140.030565 
L 223.62206 110.56848 
L 224.295463 27.675869 
L 224.38525 25.97834 
L 224.439122 26.508504 
L 224.555845 31.571344 
L 224.771334 53.243352 
L 225.606353 148.770024 
L 225.615332 148.788773 
L 225.642268 148.650801 
L 225.723076 146.502552 
L 225.884692 134.856382 
L 226.198947 92.291923 
L 226.701754 30.020271 
L 226.845413 25.977377 
L 226.881328 26.250313 
L 226.980094 29.635978 
L 227.168646 45.903836 
L 227.608603 110.361832 
L 227.967751 146.584857 
L 228.075495 148.787447 
L 228.120389 148.335199 
L 228.228133 144.008603 
L 228.434643 124.322892 
L 229.305577 25.980992 
L 229.314555 26.01288 
L 229.377406 27.139047 
L 229.512087 34.692021 
L 229.76349 64.1193 
L 230.436893 147.070382 
L 230.52668 148.787142 
L 230.580552 148.268597 
L 230.697275 143.229925 
L 230.912764 121.592961 
L 231.747783 25.998188 
L 231.756762 25.977498 
L 231.783698 26.109648 
L 231.864506 28.240703 
L 232.026123 39.856088 
L 232.340377 82.389851 
L 232.852163 145.205403 
L 232.986843 148.788835 
L 233.022758 148.523655 
L 233.121524 145.158779 
L 233.310077 128.924536 
L 233.741054 65.796915 
L 234.100202 28.595537 
L 234.216925 25.978094 
L 234.25284 26.267586 
L 234.351606 29.697615 
L 234.540158 46.037138 
L 234.980115 110.529154 
L 235.339262 146.632536 
L 235.447007 148.78595 
L 235.4919 148.31303 
L 235.599645 143.938522 
L 235.806155 124.178515 
L 236.66811 25.97961 
L 236.686067 26.0193 
L 236.748918 27.174261 
L 236.883599 34.784958 
L 237.135002 64.28648 
L 237.808405 147.112536 
L 237.898192 148.788233 
L 237.952064 148.244882 
L 238.068787 143.154622 
L 238.284276 121.442888 
L 239.119295 25.993732 
L 239.128273 25.977187 
L 239.15521 26.121765 
L 239.236018 28.289525 
L 239.397634 39.970611 
L 239.711889 82.569813 
L 240.214696 144.779969 
L 240.358355 148.788367 
L 240.39427 148.506629 
L 240.493036 145.097376 
L 240.681588 128.791401 
L 241.121545 64.31525 
L 241.480693 28.155791 
L 241.588437 25.979342 
L 241.63333 26.44258 
L 241.741075 30.794652 
L 241.947585 50.519881 
L 242.80954 148.785639 
L 242.827497 148.749832 
L 242.890348 147.608356 
L 243.025029 140.024687 
L 243.276432 110.557907 
L 243.949835 27.673203 
L 244.039622 25.978271 
L 244.093494 26.510003 
L 244.210217 31.576107 
L 244.425706 53.252843 
L 245.260725 148.770306 
L 245.269703 148.788793 
L 245.29664 148.650035 
L 245.377448 146.499465 
L 245.539064 134.849139 
L 245.853319 92.280542 
L 246.356126 30.016197 
L 246.499785 25.977407 
L 246.5357 26.25139 
L 246.634466 29.639861 
L 246.823018 45.912256 
L 247.262975 110.37242 
L 247.622123 146.587887 
L 247.729867 148.787368 
L 247.77476 148.333812 
L 247.882505 144.004185 
L 248.089015 124.313771 
L 248.959949 25.98112 
L 248.968927 26.01327 
L 249.031778 27.141258 
L 249.166459 34.697885 
L 249.417862 64.129867 
L 250.091265 147.073063 
L 250.181052 148.787227 
L 250.234924 148.267113 
L 250.351647 143.225177 
L 250.567136 121.583479 
L 251.402155 25.997891 
L 251.411134 25.977462 
L 251.43807 26.110399 
L 251.518878 28.243776 
L 251.680495 39.863318 
L 251.994749 82.401231 
L 252.506535 145.209245 
L 252.641215 148.788821 
L 252.67713 148.522594 
L 252.775896 145.154911 
L 252.964448 128.916127 
L 253.395426 65.786227 
L 253.575 42.543006 
L 253.575 42.543006 
" clip-path="url(#p99f0c4de31)" style="fill: none; stroke: #000000; stroke-width: 1.5; stroke-linecap: square"/>
   </g>
   <g id="line2d_8">
    <path d="M 74.01 86.821834 
L 74.171617 86.261028 
L 74.387105 84.489836 
L 74.62953 82.341827 
L 74.674424 82.526766 
L 74.764211 84.471806 
L 74.898891 93.798388 
L 75.446592 145.475599 
L 75.491485 144.997281 
L 75.59923 140.660684 
L 75.80574 121.608003 
L 76.667695 30.808966 
L 76.70361 31.074573 
L 76.802375 34.22457 
L 76.990928 49.210025 
L 77.439863 109.414046 
L 77.790032 141.27343 
L 77.897777 143.284159 
L 77.94267 142.875081 
L 78.050415 138.945857 
L 78.256925 121.064051 
L 79.127858 31.737891 
L 79.136837 31.764836 
L 79.199688 32.771585 
L 79.334368 39.585897 
L 79.585772 66.197869 
L 80.259174 141.350622 
L 80.348961 142.928436 
L 80.402834 142.474419 
L 80.510578 138.462973 
L 80.717088 120.507858 
L 81.579043 31.875605 
L 81.597001 31.920535 
L 81.66883 33.265151 
L 81.812489 41.310829 
L 82.08185 71.494418 
L 82.692402 140.403376 
L 82.809125 142.875341 
L 82.854018 142.516901 
L 82.961763 138.723653 
L 83.159294 122.118542 
L 84.039207 31.897331 
L 84.075122 32.147519 
L 84.173887 35.216315 
L 84.36244 49.931072 
L 84.802396 108.18084 
L 85.161544 140.88516 
L 85.269288 142.864896 
L 85.314182 142.451886 
L 85.421926 138.532437 
L 85.628436 120.72972 
L 86.490392 31.904067 
L 86.508349 31.934184 
L 86.5712 32.957778 
L 86.70588 39.794308 
L 86.957284 66.398487 
L 87.630686 141.321209 
L 87.720473 142.863732 
L 87.774345 142.390002 
L 87.891069 137.82658 
L 88.106557 118.261251 
L 88.941576 31.919199 
L 88.950555 31.901374 
L 88.977491 32.023382 
L 89.058299 33.956548 
L 89.219916 44.465146 
L 89.53417 82.909276 
L 90.045956 139.639765 
L 90.180637 142.864703 
L 90.216552 142.621634 
L 90.315317 139.572075 
L 90.50387 124.888969 
L 90.934847 67.844004 
L 91.293995 34.256118 
L 91.410719 31.902332 
L 91.446633 32.167366 
L 91.545399 35.27578 
L 91.733952 50.053957 
L 92.173908 108.331182 
L 92.533056 140.926379 
L 92.6408 142.861732 
L 92.685694 142.430104 
L 92.793438 138.467587 
L 92.999948 120.598373 
L 93.861903 31.903174 
L 93.879861 31.940773 
L 93.942712 32.990344 
L 94.077392 39.878891 
L 94.328796 66.549786 
L 95.002198 141.358906 
L 95.091985 142.864331 
L 95.136879 142.523758 
L 95.244623 138.772497 
L 95.442154 122.232143 
L 96.322067 31.901314 
L 96.357982 32.137375 
L 96.456747 35.168142 
L 96.6453 49.820849 
L 97.076278 106.850521 
L 97.435426 140.487849 
L 97.552149 142.864124 
L 97.588063 142.606097 
L 97.686829 139.516453 
L 97.875382 124.768579 
L 98.315338 66.505647 
L 98.674486 33.859757 
L 98.78223 31.903589 
L 98.827124 32.326469 
L 98.934868 36.268717 
L 99.141378 54.106523 
L 100.003333 142.862202 
L 100.021291 142.828112 
L 100.084142 141.790725 
L 100.218822 134.926592 
L 100.470226 108.287064 
L 101.143628 33.424885 
L 101.233415 31.902079 
L 101.287287 32.387712 
L 101.40401 36.975875 
L 101.619499 56.577017 
L 102.454518 142.84889 
L 102.463497 142.864724 
L 102.490433 142.736748 
L 102.571241 140.785961 
L 102.732858 130.245831 
L 103.047112 91.770332 
L 103.549919 35.537173 
L 103.693579 31.901625 
L 103.729493 32.152646 
L 103.828259 35.223515 
L 104.016812 49.941063 
L 104.456768 108.189605 
L 104.815916 140.886131 
L 104.92366 142.86311 
L 104.968554 142.448978 
L 105.076298 138.527006 
L 105.282808 120.720639 
L 106.144763 31.904641 
L 106.162721 31.935224 
L 106.225572 32.960426 
L 106.360252 39.80013 
L 106.611656 66.408243 
L 107.285058 141.323341 
L 107.374845 142.863525 
L 107.428717 142.388389 
L 107.545441 137.822057 
L 107.760929 118.252556 
L 108.595948 31.919048 
L 108.604927 31.90146 
L 108.631863 32.024176 
L 108.712671 33.95943 
L 108.874288 44.471757 
L 109.188542 82.919568 
L 109.700328 139.643184 
L 109.835009 142.864639 
L 109.870924 142.620625 
L 109.969689 139.568535 
L 110.158242 124.881342 
L 110.589219 67.834357 
L 110.948367 34.253164 
L 111.065091 31.902414 
L 111.101005 32.168393 
L 111.199771 35.279339 
L 111.388324 50.0616 
L 111.82828 108.340731 
L 112.187428 140.929074 
L 112.295172 142.861617 
L 112.340066 142.428808 
L 112.44781 138.463555 
L 112.65432 120.590106 
L 113.516275 31.903094 
L 113.534233 31.941166 
L 113.597084 32.992381 
L 113.731764 39.884223 
L 113.983168 66.559348 
L 114.65657 141.361291 
L 114.746357 142.864369 
L 114.791251 142.522614 
L 114.898995 138.768606 
L 115.096526 122.224114 
L 115.976439 31.90132 
L 116.012354 32.138327 
L 116.111119 35.171631 
L 116.299672 49.828442 
L 116.73065 106.860181 
L 117.089797 140.490836 
L 117.206521 142.864074 
L 117.242435 142.605101 
L 117.341201 139.512922 
L 117.529754 124.760956 
L 117.96971 66.496089 
L 118.328858 33.857041 
L 118.436602 31.903683 
L 118.481496 32.327744 
L 118.58924 36.272729 
L 118.79575 54.114778 
L 119.657705 142.8623 
L 119.675663 142.827736 
L 119.738514 141.788704 
L 119.873194 134.921274 
L 120.124598 108.277508 
L 120.798 33.422485 
L 120.887787 31.902025 
L 120.941659 32.389076 
L 121.058382 36.980186 
L 121.273871 56.585597 
L 122.10889 142.849136 
L 122.117869 142.864733 
L 122.144805 142.736047 
L 122.225613 140.783163 
L 122.38723 130.23928 
L 122.701484 91.760048 
L 123.204291 35.533501 
L 123.347951 31.90166 
L 123.383865 32.153628 
L 123.482631 35.227033 
L 123.671184 49.948676 
L 124.11114 108.199168 
L 124.470288 140.88886 
L 124.578032 142.86303 
L 124.622926 142.447717 
L 124.73067 138.523007 
L 124.93718 120.712392 
L 125.799135 31.904529 
L 125.817093 31.935585 
L 125.879944 32.962433 
L 126.014624 39.805437 
L 126.266028 66.417794 
L 126.93943 141.325755 
L 127.029217 142.863593 
L 127.083089 142.38704 
L 127.199812 137.817759 
L 127.415301 118.243983 
L 128.25032 31.918788 
L 128.259299 31.901437 
L 128.286235 32.024863 
L 128.367043 33.962215 
L 128.52866 44.478297 
L 128.842914 82.929851 
L 129.3547 139.646647 
L 129.489381 142.864618 
L 129.525296 142.619657 
L 129.624061 139.565031 
L 129.812614 124.873738 
L 130.25257 66.637731 
L 130.611718 33.897457 
L 130.719462 31.90248 
L 130.764356 32.309044 
L 130.8721 36.213472 
L 131.07861 53.992618 
L 131.949544 142.861506 
L 131.958523 142.833106 
L 132.021374 141.818446 
L 132.156054 134.99988 
L 132.407458 108.418983 
L 133.08086 33.458225 
L 133.170647 31.903012 
L 133.224519 32.369067 
L 133.341243 36.916509 
L 133.556731 56.458613 
L 134.39175 142.8453 
L 134.400729 142.864406 
L 134.427665 142.746239 
L 134.508473 140.824423 
L 134.67009 130.336162 
L 134.984344 91.91236 
L 135.49613 35.145103 
L 135.630811 31.901328 
L 135.666726 32.139281 
L 135.765491 35.175122 
L 135.954044 49.836037 
L 136.385022 106.86984 
L 136.744169 140.49382 
L 136.860893 142.864022 
L 136.896807 142.604103 
L 136.995573 139.50939 
L 137.184126 124.753332 
L 137.624082 66.486533 
L 137.98323 33.854327 
L 138.090974 31.903779 
L 138.135868 32.329022 
L 138.243612 36.276744 
L 138.450122 54.123035 
L 139.312077 142.862396 
L 139.330035 142.827358 
L 139.392886 141.786681 
L 139.527566 134.915954 
L 139.77897 108.267951 
L 140.452372 33.420086 
L 140.542159 31.901974 
L 140.596031 32.390442 
L 140.712754 36.984499 
L 140.928243 56.594178 
L 141.763262 142.849379 
L 141.772241 142.86474 
L 141.799177 142.735344 
L 141.879985 140.780363 
L 142.041602 130.232728 
L 142.355856 91.749764 
L 142.858663 35.529831 
L 143.002323 31.901698 
L 143.038237 32.154611 
L 143.137003 35.230551 
L 143.325556 49.956291 
L 143.765512 108.20873 
L 144.12466 140.891588 
L 144.232404 142.862948 
L 144.277298 142.446453 
L 144.385042 138.519005 
L 144.591552 120.704144 
L 145.453507 31.904419 
L 145.471465 31.935949 
L 145.534316 32.964441 
L 145.668996 39.810744 
L 145.9204 66.427345 
L 146.593802 141.328167 
L 146.683589 142.863659 
L 146.737461 142.385688 
L 146.854184 137.813459 
L 147.069673 118.23541 
L 147.904692 31.91853 
L 147.913671 31.901416 
L 147.940607 32.025553 
L 148.021415 33.965002 
L 148.183032 44.484838 
L 148.497286 82.940134 
L 149.000094 139.209003 
L 149.143753 142.864594 
L 149.179667 142.618688 
L 149.278433 139.561526 
L 149.466986 124.866133 
L 149.906942 66.628164 
L 150.26609 33.894716 
L 150.373834 31.902548 
L 150.418728 32.310294 
L 150.526472 36.217461 
L 150.732982 54.000857 
L 151.603916 142.861393 
L 151.612895 142.832757 
L 151.675746 141.816451 
L 151.810426 134.994585 
L 152.06183 108.409436 
L 152.735232 33.455799 
L 152.825019 31.902932 
L 152.878891 32.370405 
L 152.995615 36.920796 
L 153.211103 56.467178 
L 154.046122 142.845572 
L 154.055101 142.864442 
L 154.082037 142.745564 
L 154.162845 140.821651 
L 154.324462 130.329632 
L 154.638716 91.902078 
L 155.150502 35.141628 
L 155.285183 31.901337 
L 155.321098 32.140236 
L 155.419863 35.178614 
L 155.608416 49.843632 
L 156.039393 106.879498 
L 156.398541 140.496803 
L 156.515265 142.863969 
L 156.551179 142.603103 
L 156.649945 139.505856 
L 156.838498 124.745706 
L 157.278454 66.476976 
L 157.637602 33.851615 
L 157.745346 31.903878 
L 157.79024 32.330301 
L 157.897984 36.28076 
L 158.104494 54.131292 
L 158.966449 142.86249 
L 158.984407 142.826978 
L 159.047258 141.784656 
L 159.181938 134.910633 
L 159.433342 108.258393 
L 160.106744 33.41769 
L 160.196531 31.901924 
L 160.250403 32.391809 
L 160.367126 36.988813 
L 160.582615 56.602761 
L 161.417634 142.849621 
L 161.426613 142.864745 
L 161.453549 142.734638 
L 161.534357 140.777561 
L 161.695974 130.226174 
L 162.010228 91.73948 
L 162.513035 35.526162 
L 162.656695 31.901738 
L 162.692609 32.155597 
L 162.791375 35.234072 
L 162.979928 49.963907 
L 163.419884 108.218292 
L 163.779032 140.894314 
L 163.886776 142.862864 
L 163.93167 142.445188 
L 164.039414 138.515002 
L 164.245924 120.695895 
L 165.107879 31.904311 
L 165.125837 31.936314 
L 165.188688 32.966452 
L 165.323368 39.816054 
L 165.574772 66.436898 
L 166.248174 141.330577 
L 166.337961 142.863722 
L 166.391833 142.384334 
L 166.508556 137.809158 
L 166.724045 118.226835 
L 167.559064 31.918274 
L 167.568043 31.901396 
L 167.594979 32.026243 
L 167.675787 33.96779 
L 167.837404 44.491381 
L 168.151658 82.950417 
L 168.654465 139.212685 
L 168.798125 142.864569 
L 168.834039 142.617716 
L 168.932805 139.558018 
L 169.121358 124.858526 
L 169.561314 66.618597 
L 169.920462 33.891977 
L 170.028206 31.902618 
L 170.0731 32.311545 
L 170.180844 36.221451 
L 170.387354 54.009098 
L 171.258288 142.861279 
L 171.267267 142.832405 
L 171.330118 141.814454 
L 171.464798 134.989288 
L 171.716202 108.399889 
L 172.389604 33.453376 
L 172.479391 31.902854 
L 172.533263 32.371744 
L 172.649986 36.925084 
L 172.865475 56.475745 
L 173.700494 142.845843 
L 173.709473 142.864475 
L 173.736409 142.744887 
L 173.817217 140.818876 
L 173.978834 130.3231 
L 174.293088 91.891796 
L 174.804874 35.138156 
L 174.939555 31.901348 
L 174.97547 32.141193 
L 175.074235 35.182108 
L 175.262788 49.851229 
L 175.693765 106.889156 
L 176.052913 140.499783 
L 176.169636 142.863913 
L 176.205551 142.602101 
L 176.304317 139.50232 
L 176.49287 124.738079 
L 176.932826 66.467421 
L 177.291974 33.848905 
L 177.399718 31.903978 
L 177.444612 32.331583 
L 177.552356 36.284778 
L 177.758866 54.139551 
L 178.620821 142.862582 
L 178.638779 142.826597 
L 178.70163 141.782629 
L 178.83631 134.90531 
L 179.087714 108.248834 
L 179.761116 33.415296 
L 179.850903 31.901877 
L 179.904775 32.393179 
L 180.021498 36.99313 
L 180.236987 56.611344 
L 181.072006 142.849861 
L 181.080985 142.864748 
L 181.107921 142.733931 
L 181.188729 140.774757 
L 181.350346 130.219619 
L 181.6646 91.729195 
L 182.167407 35.522495 
L 182.311067 31.901779 
L 182.346981 32.156584 
L 182.445747 35.237595 
L 182.6343 49.971525 
L 183.074256 108.227853 
L 183.433404 140.897038 
L 183.541148 142.862778 
L 183.586042 142.443921 
L 183.693786 138.510997 
L 183.900296 120.687645 
L 184.762251 31.904205 
L 184.780209 31.936682 
L 184.84306 32.968465 
L 184.97774 39.821365 
L 185.229144 66.446451 
L 185.902546 141.332985 
L 185.992333 142.863784 
L 186.046205 142.382979 
L 186.162928 137.804855 
L 186.378417 118.21826 
L 187.213436 31.91802 
L 187.222415 31.901379 
L 187.249351 32.026936 
L 187.330159 33.97058 
L 187.491776 44.497926 
L 187.80603 82.9607 
L 188.308837 139.216365 
L 188.452497 142.864541 
L 188.488411 142.616743 
L 188.587177 139.554509 
L 188.77573 124.850918 
L 189.215686 66.609031 
L 189.574834 33.889239 
L 189.682578 31.90269 
L 189.727472 32.312798 
L 189.835216 36.225443 
L 190.041726 54.01734 
L 190.91266 142.861163 
L 190.921639 142.832052 
L 190.98449 141.812455 
L 191.11917 134.983989 
L 191.370574 108.390342 
L 192.043976 33.450953 
L 192.133763 31.902778 
L 192.187635 32.373086 
L 192.304358 36.929375 
L 192.519847 56.484313 
L 193.354866 142.846111 
L 193.363845 142.864506 
L 193.390781 142.744209 
L 193.471589 140.816099 
L 193.633206 130.316566 
L 193.94746 91.881514 
L 194.459246 35.134684 
L 194.593927 31.901361 
L 194.629841 32.142153 
L 194.728607 35.185603 
L 194.91716 49.858827 
L 195.348137 106.898814 
L 195.707285 140.502762 
L 195.824008 142.863855 
L 195.859923 142.601098 
L 195.958689 139.498783 
L 196.147242 124.730451 
L 196.587198 66.457866 
L 196.946346 33.846196 
L 197.05409 31.90408 
L 197.098984 32.332866 
L 197.206728 36.288798 
L 197.413238 54.147811 
L 198.275193 142.862672 
L 198.293151 142.826213 
L 198.356002 141.780601 
L 198.490682 134.899985 
L 198.742086 108.239275 
L 199.415488 33.412903 
L 199.505275 31.901831 
L 199.559147 32.394551 
L 199.67587 36.997448 
L 199.891359 56.619929 
L 200.726378 142.850099 
L 200.735357 142.864749 
L 200.762293 142.733222 
L 200.843101 140.771951 
L 201.004718 130.213062 
L 201.318972 91.718911 
L 201.821779 35.51883 
L 201.965439 31.901822 
L 202.001353 32.157574 
L 202.100119 35.241119 
L 202.288672 49.979143 
L 202.728628 108.237413 
L 203.087776 140.89976 
L 203.19552 142.86269 
L 203.240414 142.442652 
L 203.348158 138.50699 
L 203.554668 120.679394 
L 204.416623 31.9041 
L 204.434581 31.937051 
L 204.497432 32.970479 
L 204.632112 39.826677 
L 204.883516 66.456005 
L 205.556918 141.335392 
L 205.646705 142.863844 
L 205.700577 142.381621 
L 205.8173 137.800549 
L 206.032789 118.209683 
L 206.867808 31.917768 
L 206.876787 31.901364 
L 206.903723 32.027631 
L 206.984531 33.973372 
L 207.146148 44.504472 
L 207.460402 82.970984 
L 207.963209 139.220043 
L 208.106869 142.864512 
L 208.142783 142.615768 
L 208.241549 139.550998 
L 208.430102 124.843309 
L 208.870058 66.599466 
L 209.229206 33.886503 
L 209.33695 31.902763 
L 209.381844 32.314053 
L 209.489588 36.229436 
L 209.696098 54.025582 
L 210.558053 142.86114 
L 210.576011 142.831697 
L 210.638862 141.810455 
L 210.773542 134.978688 
L 211.024946 108.380793 
L 211.698348 33.448533 
L 211.788135 31.902704 
L 211.842007 32.374429 
L 211.95873 36.933667 
L 212.174219 56.492881 
L 213.009238 142.846377 
L 213.018217 142.864536 
L 213.045153 142.743528 
L 213.125961 140.813321 
L 213.287578 130.310032 
L 213.601832 91.871232 
L 214.113618 35.131215 
L 214.248299 31.901376 
L 214.284213 32.143114 
L 214.382979 35.189101 
L 214.571532 49.866427 
L 215.002509 106.90847 
L 215.361657 140.505739 
L 215.47838 142.863796 
L 215.514295 142.600092 
L 215.613061 139.495243 
L 215.801614 124.722821 
L 216.24157 66.448312 
L 216.600718 33.84349 
L 216.708462 31.904184 
L 216.753356 32.334151 
L 216.8611 36.29282 
L 217.06761 54.156072 
L 217.929565 142.862761 
L 217.947523 142.825828 
L 218.010374 141.778571 
L 218.145054 134.894658 
L 218.396458 108.229715 
L 219.06986 33.410512 
L 219.159647 31.901787 
L 219.20454 32.240698 
L 219.312285 35.988097 
L 219.509816 52.522631 
L 220.389729 142.864748 
L 220.425644 142.630018 
L 220.524409 139.602818 
L 220.712962 124.955884 
L 221.143939 67.929122 
L 221.503087 34.282412 
L 221.61981 31.901868 
L 221.655725 32.158565 
L 221.754491 35.244645 
L 221.943044 49.986763 
L 222.383 108.246972 
L 222.742148 140.90248 
L 222.849892 142.8626 
L 222.894786 142.44138 
L 223.00253 138.502982 
L 223.20904 120.671141 
L 224.070995 31.903998 
L 224.088953 31.937422 
L 224.151804 32.972496 
L 224.286484 39.831991 
L 224.537888 66.465559 
L 225.21129 141.337796 
L 225.301077 142.863902 
L 225.354949 142.380262 
L 225.471672 137.796243 
L 225.687161 118.201105 
L 226.52218 31.917518 
L 226.531159 31.90135 
L 226.558095 32.028328 
L 226.638903 33.976166 
L 226.80052 44.511019 
L 227.114774 82.981267 
L 227.617581 139.223719 
L 227.761241 142.864481 
L 227.797155 142.61479 
L 227.895921 139.547486 
L 228.084474 124.835699 
L 228.52443 66.589901 
L 228.883578 33.883769 
L 228.991322 31.902839 
L 229.036216 32.31531 
L 229.14396 36.233432 
L 229.35047 54.033826 
L 230.212425 142.861257 
L 230.230383 142.83134 
L 230.293234 141.808452 
L 230.427914 134.973386 
L 230.679318 108.371244 
L 231.35272 33.446115 
L 231.442507 31.902632 
L 231.496379 32.375775 
L 231.613102 36.937961 
L 231.828591 56.501451 
L 232.66361 142.846642 
L 232.672589 142.864564 
L 232.699525 142.742845 
L 232.780333 140.810541 
L 232.94195 130.303495 
L 233.256204 91.860949 
L 233.76799 35.127747 
L 233.902671 31.901393 
L 233.938585 32.144077 
L 234.037351 35.1926 
L 234.225904 49.874028 
L 234.656881 106.918126 
L 235.016029 140.508715 
L 235.132752 142.863734 
L 235.168667 142.599085 
L 235.267433 139.491702 
L 235.455986 124.715191 
L 235.895942 66.438759 
L 236.25509 33.840785 
L 236.362834 31.90429 
L 236.407728 32.335438 
L 236.515472 36.296843 
L 236.721982 54.164334 
L 237.583937 142.862847 
L 237.601895 142.825441 
L 237.664745 141.776538 
L 237.799426 134.88933 
L 238.05083 108.220155 
L 238.724232 33.408124 
L 238.814019 31.901745 
L 238.858912 32.241838 
L 238.966657 35.991984 
L 239.164188 52.530657 
L 240.044101 142.864746 
L 240.080016 142.629069 
L 240.178781 139.599332 
L 240.367334 124.948293 
L 240.798311 67.919461 
L 241.157459 34.279423 
L 241.274182 31.901915 
L 241.310097 32.159558 
L 241.408863 35.248173 
L 241.597416 49.994384 
L 242.037372 108.25653 
L 242.39652 140.905198 
L 242.504264 142.862508 
L 242.549158 142.440108 
L 242.656902 138.498971 
L 242.863412 120.662888 
L 243.725367 31.903897 
L 243.743325 31.937795 
L 243.806176 32.974514 
L 243.940856 39.837307 
L 244.19226 66.475114 
L 244.865662 141.340199 
L 244.955449 142.863958 
L 245.009321 142.3789 
L 245.126044 137.791934 
L 245.341533 118.192526 
L 246.176552 31.917269 
L 246.185531 31.901339 
L 246.212467 32.029026 
L 246.293275 33.978962 
L 246.454892 44.517568 
L 246.769146 82.991551 
L 247.271953 139.227394 
L 247.415613 142.864448 
L 247.451527 142.613811 
L 247.550293 139.543971 
L 247.738846 124.828087 
L 248.178802 66.580337 
L 248.53795 33.881037 
L 248.645694 31.902917 
L 248.690588 32.316569 
L 248.798332 36.237429 
L 249.004842 54.042071 
L 249.866797 142.861371 
L 249.884755 142.830981 
L 249.947606 141.806448 
L 250.082286 134.968083 
L 250.33369 108.361694 
L 251.007092 33.443698 
L 251.096879 31.902562 
L 251.150751 32.377122 
L 251.267474 36.942256 
L 251.482963 56.510022 
L 252.317982 142.846905 
L 252.326961 142.864589 
L 252.353897 142.742161 
L 252.434705 140.807759 
L 252.596322 130.296957 
L 252.910576 91.850667 
L 253.422362 35.124282 
L 253.557043 31.901412 
L 253.575 31.964794 
" clip-path="url(#p99f0c4de31)" style="fill: none; stroke: #808080; stroke-width: 1.5; stroke-linecap: square"/>
   </g>
   <g id="line2d_9">
    <path d="M 74.01 87.045433 
L 74.387105 85.561661 
L 74.458935 85.80577 
L 74.557701 87.31023 
L 74.692381 93.474459 
L 74.880934 114.759573 
L 75.168252 142.846258 
L 75.177231 142.82544 
L 75.231103 141.531488 
L 75.365784 131.120387 
L 75.697995 82.859145 
L 76.128973 31.494311 
L 76.263653 27.90992 
L 76.299568 28.198037 
L 76.398334 31.650895 
L 76.586887 48.009794 
L 77.107651 121.854104 
L 77.403948 145.241819 
L 77.475778 146.165596 
L 77.520671 145.71971 
L 77.628416 141.500273 
L 77.834926 122.404028 
L 78.696881 28.864371 
L 78.70586 28.887912 
L 78.76871 29.919068 
L 78.903391 37.059997 
L 79.154794 65.091509 
L 79.828197 144.178632 
L 79.917984 145.797354 
L 79.971856 145.291285 
L 80.088579 140.462772 
L 80.304068 119.807313 
L 81.139087 29.023423 
L 81.148066 29.009196 
L 81.175002 29.151331 
L 81.25581 31.227533 
L 81.417427 42.365274 
L 81.731681 82.90506 
L 82.234488 141.973904 
L 82.378147 145.739114 
L 82.405084 145.575515 
L 82.49487 143.049862 
L 82.665466 130.430885 
L 83.015635 83.531502 
L 83.46457 32.700201 
L 83.608229 29.035998 
L 83.635165 29.218576 
L 83.724952 31.805569 
L 83.904526 45.444738 
L 84.272653 95.498944 
L 84.694652 142.154562 
L 84.829332 145.729278 
L 84.865247 145.523356 
L 84.955034 142.877894 
L 85.134608 129.138275 
L 85.511713 77.687869 
L 85.924733 32.52467 
L 86.059414 29.036501 
L 86.095329 29.265887 
L 86.194094 32.402628 
L 86.382647 47.730366 
L 86.813625 107.663903 
L 87.181751 143.548005 
L 87.289496 145.729361 
L 87.334389 145.336869 
L 87.442134 141.312156 
L 87.648644 122.741315 
L 88.519577 29.037732 
L 88.537535 29.114188 
L 88.609364 30.643294 
L 88.762002 40.086013 
L 89.049321 75.196772 
L 89.614979 142.494434 
L 89.749659 145.726307 
L 89.785574 145.4274 
L 89.88434 142.104441 
L 90.072892 126.476107 
L 90.521827 63.916832 
L 90.871997 31.018053 
L 90.970762 29.039154 
L 91.015656 29.364823 
L 91.114421 32.749585 
L 91.302974 48.477383 
L 91.760888 112.297639 
L 92.102078 143.812563 
L 92.200844 145.728553 
L 92.245738 145.374012 
L 92.353482 141.43748 
L 92.551013 124.055845 
L 93.430926 29.036938 
L 93.466841 29.282294 
L 93.565606 32.461779 
L 93.754159 47.85842 
L 94.185137 107.826053 
L 94.553263 143.594264 
L 94.661008 145.728603 
L 94.705901 145.316345 
L 94.813645 141.245816 
L 95.020156 122.603872 
L 95.891089 29.03906 
L 95.909047 29.123409 
L 95.989855 31.014709 
L 96.151472 41.811637 
L 96.465726 81.984947 
L 96.977512 142.099852 
L 97.112192 145.726129 
L 97.148107 145.534361 
L 97.237894 142.923754 
L 97.417468 129.245343 
L 97.785595 79.166434 
L 98.207594 32.579265 
L 98.342274 29.037924 
L 98.378189 29.252804 
L 98.467976 31.919989 
L 98.64755 45.696565 
L 99.024655 97.172192 
L 99.437675 142.272714 
L 99.572356 145.729053 
L 99.608271 145.491066 
L 99.707036 142.331344 
L 99.895589 126.966696 
L 100.326567 67.015273 
L 100.694693 31.193384 
L 100.802438 29.037174 
L 100.847331 29.44023 
L 100.955076 33.48941 
L 101.161586 52.098168 
L 102.032519 145.727628 
L 102.050477 145.646967 
L 102.122306 144.101236 
L 102.274944 134.626283 
L 102.562263 99.479766 
L 103.127921 32.24173 
L 103.262601 29.040775 
L 103.298516 29.348056 
L 103.397282 32.693425 
L 103.585834 48.357831 
L 104.034769 110.932778 
L 104.384938 143.771501 
L 104.483704 145.727613 
L 104.528598 145.391484 
L 104.627363 141.984356 
L 104.815916 126.220613 
L 105.27383 62.385954 
L 105.61502 30.930383 
L 105.713786 29.03718 
L 105.758679 29.402174 
L 105.866424 33.36299 
L 106.063955 50.78121 
L 106.943868 145.729056 
L 106.979782 145.475335 
L 107.078548 142.273422 
L 107.267101 126.840499 
L 107.698078 66.85461 
L 108.057226 31.519302 
L 108.173949 29.037912 
L 108.209864 29.314733 
L 108.30863 32.578548 
L 108.497183 48.111483 
L 108.937139 109.393536 
L 109.296287 143.685249 
L 109.404031 145.72615 
L 109.448925 145.274605 
L 109.556669 141.112996 
L 109.763179 122.329738 
L 110.625134 29.039078 
L 110.643092 29.077669 
L 110.705943 30.17813 
L 110.840623 37.415711 
L 111.092027 65.455071 
L 111.765429 144.140745 
L 111.855216 145.728593 
L 111.90011 145.372806 
L 112.007854 141.433379 
L 112.205385 124.047385 
L 113.085298 29.036941 
L 113.121213 29.283293 
L 113.219978 32.465448 
L 113.408531 47.86641 
L 113.839508 107.83622 
L 114.207635 143.597171 
L 114.31538 145.728555 
L 114.360273 145.315054 
L 114.468017 141.241642 
L 114.674527 122.595218 
L 115.545461 29.039154 
L 115.563419 29.124001 
L 115.644227 31.017511 
L 115.805844 41.818414 
L 116.120098 81.995751 
L 116.631884 142.103618 
L 116.766564 145.726238 
L 116.802479 145.533474 
L 116.892266 142.920429 
L 117.07184 129.237785 
L 117.439967 79.155693 
L 117.861966 32.575544 
L 117.996646 29.037862 
L 118.032561 29.253737 
L 118.122348 31.923358 
L 118.301922 45.704157 
L 118.679027 97.182887 
L 119.092047 142.276391 
L 119.226728 145.729068 
L 119.262643 145.490086 
L 119.361408 142.327695 
L 119.549961 126.958725 
L 119.980939 67.005107 
L 120.349065 31.190463 
L 120.45681 29.037206 
L 120.501703 29.441504 
L 120.609447 33.493567 
L 120.815958 52.106809 
L 121.686891 145.727549 
L 121.704849 145.646391 
L 121.776678 144.09869 
L 121.929316 134.619915 
L 122.216635 99.469153 
L 122.782293 32.238185 
L 122.907994 29.040675 
L 122.952888 29.349176 
L 123.051654 32.697206 
L 123.240206 48.365896 
L 123.689141 110.942703 
L 124.03931 143.774287 
L 124.138076 145.72769 
L 124.18297 145.390318 
L 124.281735 141.980531 
L 124.470288 126.212516 
L 124.928202 62.376151 
L 125.269392 30.927643 
L 125.368158 29.03715 
L 125.413051 29.403387 
L 125.520796 33.36709 
L 125.718327 50.789659 
L 126.59824 145.72904 
L 126.634154 145.474323 
L 126.73292 142.269743 
L 126.921473 126.832506 
L 127.35245 66.844456 
L 127.711598 31.516172 
L 127.828321 29.037976 
L 127.864236 29.315792 
L 127.963002 32.582271 
L 128.151555 48.119508 
L 128.591511 109.403583 
L 128.950659 143.688094 
L 129.058403 145.72604 
L 129.103297 145.273252 
L 129.211041 141.108766 
L 129.417551 122.32105 
L 130.279506 29.038986 
L 130.297464 29.078075 
L 130.360315 30.180267 
L 130.494995 37.421313 
L 130.746399 65.465124 
L 131.419801 144.143258 
L 131.509588 145.728638 
L 131.554481 145.371608 
L 131.662226 141.429293 
L 131.859757 124.038945 
L 132.73967 29.036943 
L 132.775585 29.28429 
L 132.87435 32.469113 
L 133.062903 47.874392 
L 133.49388 107.84638 
L 133.853028 143.226661 
L 133.969751 145.728506 
L 134.005666 145.458058 
L 134.104432 142.211317 
L 134.292985 126.705946 
L 134.732941 65.436902 
L 135.092089 31.099084 
L 135.199833 29.039249 
L 135.244727 29.482838 
L 135.352471 33.626008 
L 135.558981 52.380693 
L 136.420936 145.726344 
L 136.438894 145.690945 
L 136.501745 144.601566 
L 136.636425 137.386196 
L 136.887829 109.375376 
L 137.561231 30.64146 
L 137.651018 29.037802 
L 137.70489 29.547158 
L 137.821613 34.369391 
L 138.037102 54.978422 
L 138.872121 145.712204 
L 138.8811 145.729082 
L 138.908036 145.595174 
L 138.988844 143.545669 
L 139.150461 132.464953 
L 139.464715 92.006624 
L 139.967522 32.86401 
L 140.111182 29.03724 
L 140.147096 29.30032 
L 140.245862 32.527317 
L 140.434415 48.000792 
L 140.874371 109.25469 
L 141.233519 143.645749 
L 141.341263 145.727469 
L 141.386157 145.293081 
L 141.493901 141.171234 
L 141.700411 122.449616 
L 142.562366 29.040553 
L 142.580324 29.072264 
L 142.643175 30.148828 
L 142.777855 37.338508 
L 143.029259 65.316283 
L 143.702661 144.105832 
L 143.792448 145.727765 
L 143.84632 145.229448 
L 143.963043 140.430175 
L 144.178532 119.854422 
L 145.013551 29.055844 
L 145.02253 29.037122 
L 145.049466 29.165499 
L 145.130274 31.198668 
L 145.291891 42.250143 
L 145.606145 82.679346 
L 146.117931 142.337935 
L 146.252612 145.729021 
L 146.288526 145.473309 
L 146.387292 142.266062 
L 146.575845 126.824512 
L 147.006822 66.834302 
L 147.36597 31.513044 
L 147.482693 29.038041 
L 147.518608 29.316852 
L 147.617374 32.585996 
L 147.805927 48.127533 
L 148.245883 109.413629 
L 148.605031 143.690937 
L 148.712775 145.725927 
L 148.757669 145.271898 
L 148.865413 141.104534 
L 149.071923 122.31236 
L 149.933878 29.038897 
L 149.951836 29.078484 
L 150.014686 30.182405 
L 150.149367 37.426917 
L 150.400771 65.475179 
L 151.074173 144.145769 
L 151.16396 145.728681 
L 151.208853 145.370408 
L 151.316598 141.425204 
L 151.514129 124.030504 
L 152.394042 29.036947 
L 152.429956 29.285289 
L 152.528722 32.47278 
L 152.717275 47.882376 
L 153.148252 107.856539 
L 153.5074 143.229804 
L 153.624123 145.728456 
L 153.660038 145.457012 
L 153.758804 142.207606 
L 153.947357 126.697931 
L 154.387313 65.42685 
L 154.746461 31.096226 
L 154.854205 29.039347 
L 154.899099 29.484177 
L 155.006843 33.630226 
L 155.213353 52.389373 
L 156.075308 145.726449 
L 156.093266 145.690551 
L 156.156117 144.599442 
L 156.290797 137.380605 
L 156.542201 109.365327 
L 157.215603 30.638934 
L 157.30539 29.037744 
L 157.359262 29.548591 
L 157.475985 34.373923 
L 157.691474 54.987444 
L 158.526493 145.712465 
L 158.535472 145.729093 
L 158.562408 145.594439 
L 158.643216 143.542728 
L 158.804833 132.458066 
L 159.119087 91.995809 
L 159.621894 32.860147 
L 159.765554 29.037276 
L 159.801468 29.301351 
L 159.900234 32.531014 
L 160.088787 48.008798 
L 160.528743 109.264747 
L 160.887891 143.648622 
L 160.995635 145.727386 
L 161.040529 145.291756 
L 161.148273 141.16703 
L 161.354783 122.440944 
L 162.216738 29.040433 
L 162.234696 29.072642 
L 162.297547 30.150937 
L 162.432227 37.344086 
L 162.683631 65.326327 
L 163.357033 144.108373 
L 163.44682 145.727838 
L 163.500692 145.22803 
L 163.617415 140.425657 
L 163.832904 119.845408 
L 164.667923 29.055569 
L 164.676902 29.037096 
L 164.703838 29.166219 
L 164.784646 31.201595 
L 164.946263 42.257019 
L 165.260517 82.690159 
L 165.772303 142.341578 
L 165.906984 145.729 
L 165.942898 145.472294 
L 166.041664 142.262379 
L 166.230217 126.816517 
L 166.661194 66.824148 
L 167.020342 31.509918 
L 167.137065 29.038109 
L 167.17298 29.317915 
L 167.271746 32.589723 
L 167.460299 48.13556 
L 167.900255 109.423674 
L 168.259403 143.693779 
L 168.367147 145.725813 
L 168.412041 145.270541 
L 168.519785 141.1003 
L 168.726295 122.30367 
L 169.58825 29.038809 
L 169.606208 29.078894 
L 169.669058 30.184545 
L 169.803739 37.432523 
L 170.055143 65.485234 
L 170.728545 144.148279 
L 170.818332 145.728722 
L 170.863225 145.369205 
L 170.97097 141.421114 
L 171.168501 124.022062 
L 172.048414 29.036953 
L 172.084328 29.28629 
L 172.183094 32.476449 
L 172.371647 47.890361 
L 172.802624 107.866698 
L 173.161772 143.232944 
L 173.278495 145.728403 
L 173.31441 145.455965 
L 173.413176 142.203893 
L 173.601729 126.689914 
L 174.041685 65.416799 
L 174.400833 31.09337 
L 174.508577 29.039446 
L 174.553471 29.485519 
L 174.661215 33.634446 
L 174.867725 52.398055 
L 175.72968 145.726552 
L 175.747638 145.690156 
L 175.810489 144.597317 
L 175.945169 137.375012 
L 176.196573 109.355277 
L 176.869975 30.63641 
L 176.959762 29.037688 
L 177.013634 29.550026 
L 177.130357 34.378456 
L 177.345846 54.996467 
L 178.180865 145.712723 
L 178.189844 145.729102 
L 178.21678 145.593701 
L 178.297588 143.539785 
L 178.459205 132.451176 
L 178.773459 91.984994 
L 179.276266 32.856285 
L 179.419925 29.037313 
L 179.45584 29.302383 
L 179.554606 32.534713 
L 179.743159 48.016804 
L 180.183115 109.274804 
L 180.542263 143.651492 
L 180.650007 145.727302 
L 180.694901 145.290429 
L 180.802645 141.162823 
L 181.009155 122.432272 
L 181.87111 29.040316 
L 181.889068 29.073022 
L 181.951919 30.153047 
L 182.086599 37.349666 
L 182.338003 65.336371 
L 183.011405 144.110911 
L 183.101192 145.727909 
L 183.155064 145.226611 
L 183.271787 140.421136 
L 183.487276 119.836393 
L 184.322295 29.055296 
L 184.331274 29.037072 
L 184.35821 29.166942 
L 184.439018 31.204524 
L 184.600635 42.263897 
L 184.914889 82.700973 
L 185.417696 141.88113 
L 185.561356 145.728977 
L 185.59727 145.471276 
L 185.696036 142.258695 
L 185.884589 126.80852 
L 186.324545 65.565753 
L 186.683693 31.13587 
L 186.791437 29.038178 
L 186.836331 29.465851 
L 186.944075 33.572127 
L 187.150585 52.269586 
L 188.021519 145.725696 
L 188.030498 145.695806 
L 188.093349 144.628598 
L 188.228029 137.457679 
L 188.479433 109.504057 
L 189.152835 30.673993 
L 189.242622 29.038723 
L 189.296494 29.528981 
L 189.413217 34.311489 
L 189.628706 54.862926 
L 190.463725 145.708692 
L 190.472704 145.728761 
L 190.49964 145.604422 
L 190.580448 143.583179 
L 190.742065 132.553062 
L 191.056319 92.145169 
L 191.568105 32.447855 
L 191.702786 29.036961 
L 191.7387 29.287293 
L 191.837466 32.48012 
L 192.026019 47.898347 
L 192.456996 107.876855 
L 192.816144 143.236082 
L 192.932867 145.728348 
L 192.968782 145.454915 
L 193.067548 142.200178 
L 193.256101 126.681896 
L 193.696057 65.406749 
L 194.055205 31.090516 
L 194.162949 29.039548 
L 194.207843 29.486863 
L 194.315587 33.638668 
L 194.522097 52.406738 
L 195.384052 145.726653 
L 195.40201 145.689758 
L 195.46486 144.59519 
L 195.599541 137.369417 
L 195.850945 109.345227 
L 196.524347 30.633888 
L 196.614134 29.037634 
L 196.668006 29.551462 
L 196.784729 34.382992 
L 197.000218 55.005492 
L 197.835237 145.712979 
L 197.844216 145.729109 
L 197.871152 145.592961 
L 197.95196 143.53684 
L 198.113577 132.444285 
L 198.427831 91.974179 
L 198.930638 32.852426 
L 199.074297 29.037353 
L 199.110212 29.303418 
L 199.208978 32.538414 
L 199.397531 48.024812 
L 199.837487 109.284859 
L 200.196635 143.65436 
L 200.304379 145.727215 
L 200.349273 145.2891 
L 200.457017 141.158615 
L 200.663527 122.423598 
L 201.525482 29.0402 
L 201.54344 29.073405 
L 201.606291 30.15516 
L 201.740971 37.355248 
L 201.992375 65.346415 
L 202.665777 144.113447 
L 202.755564 145.727977 
L 202.809436 145.225189 
L 202.926159 140.416614 
L 203.141648 119.827377 
L 203.976667 29.055025 
L 203.985646 29.03705 
L 204.012582 29.167667 
L 204.09339 31.207454 
L 204.255007 42.270776 
L 204.569261 82.711787 
L 205.072068 141.885003 
L 205.215728 145.728952 
L 205.251642 145.470256 
L 205.350408 142.255008 
L 205.538961 126.800522 
L 205.978917 65.555691 
L 206.338065 31.132988 
L 206.445809 29.03825 
L 206.490703 29.467165 
L 206.598447 33.576321 
L 206.804957 52.278251 
L 207.675891 145.725578 
L 207.68487 145.695439 
L 207.747721 144.626499 
L 207.882401 137.45211 
L 208.133805 109.494018 
L 208.807207 30.671443 
L 208.896994 29.038639 
L 208.950866 29.530388 
L 209.067589 34.315998 
L 209.283078 54.871934 
L 210.118097 145.708978 
L 210.127076 145.728798 
L 210.154012 145.603712 
L 210.23482 143.580263 
L 210.396437 132.546194 
L 210.710691 92.134357 
L 211.222477 32.444201 
L 211.357158 29.03697 
L 211.393072 29.288298 
L 211.491838 32.483792 
L 211.680391 47.906335 
L 212.111368 107.887012 
L 212.470516 143.239219 
L 212.587239 145.728292 
L 212.623154 145.453864 
L 212.72192 142.196461 
L 212.910473 126.673877 
L 213.350429 65.3967 
L 213.709577 31.087664 
L 213.817321 29.039651 
L 213.862215 29.488208 
L 213.969959 33.642892 
L 214.176469 52.415422 
L 215.038424 145.726751 
L 215.056382 145.689359 
L 215.119232 144.59306 
L 215.253913 137.363821 
L 215.505317 109.335176 
L 216.178719 30.631369 
L 216.268506 29.037583 
L 216.322378 29.552901 
L 216.439101 34.38753 
L 216.65459 55.014518 
L 217.489609 145.713233 
L 217.498588 145.729114 
L 217.525524 145.592219 
L 217.606332 143.533894 
L 217.767949 132.437393 
L 218.082203 91.963364 
L 218.58501 32.848568 
L 218.728669 29.037395 
L 218.764584 29.304455 
L 218.86335 32.542117 
L 219.051903 48.032822 
L 219.491859 109.294914 
L 219.851007 143.657227 
L 219.958751 145.727127 
L 220.003645 145.287769 
L 220.111389 141.154405 
L 220.317899 122.414923 
L 221.179854 29.040086 
L 221.197812 29.073789 
L 221.260663 30.157275 
L 221.395343 37.360832 
L 221.646747 65.356461 
L 222.320149 144.115982 
L 222.409936 145.728044 
L 222.463808 145.223765 
L 222.580531 140.41209 
L 222.79602 119.81836 
L 223.631039 29.054756 
L 223.640018 29.03703 
L 223.666954 29.168394 
L 223.747762 31.210387 
L 223.909379 42.277657 
L 224.223633 82.722601 
L 224.72644 141.888875 
L 224.8701 145.728926 
L 224.906014 145.469234 
L 225.00478 142.251319 
L 225.193333 126.792523 
L 225.633289 65.545631 
L 225.992437 31.130107 
L 226.100181 29.038324 
L 226.145075 29.468481 
L 226.252819 33.580518 
L 226.459329 52.286917 
L 227.330263 145.725457 
L 227.339242 145.695069 
L 227.402093 144.624399 
L 227.536773 137.446539 
L 227.788177 109.483978 
L 228.461579 30.668894 
L 228.551366 29.038557 
L 228.605238 29.531797 
L 228.721961 34.320508 
L 228.93745 54.880943 
L 229.772469 145.709262 
L 229.781448 145.728833 
L 229.808384 145.603 
L 229.889192 143.577344 
L 230.050809 132.539325 
L 230.365063 92.123544 
L 230.876849 32.440549 
L 231.01153 29.036982 
L 231.047444 29.289305 
L 231.14621 32.487467 
L 231.334763 47.914324 
L 231.76574 107.897169 
L 232.124888 143.242353 
L 232.241611 145.728233 
L 232.277526 145.45281 
L 232.376292 142.192743 
L 232.564844 126.665856 
L 233.004801 65.386651 
L 233.363949 31.084814 
L 233.471693 29.039757 
L 233.516587 29.489556 
L 233.624331 33.647118 
L 233.830841 52.424107 
L 234.692796 145.726848 
L 234.710754 145.688958 
L 234.773604 144.590929 
L 234.908285 137.358222 
L 235.159688 109.325124 
L 235.833091 30.628851 
L 235.922878 29.037533 
L 235.97675 29.554341 
L 236.093473 34.392069 
L 236.308962 55.023544 
L 237.143981 145.713485 
L 237.15296 145.729117 
L 237.179896 145.591476 
L 237.260704 143.530945 
L 237.422321 132.430499 
L 237.736575 91.952548 
L 238.239382 32.844712 
L 238.383041 29.037439 
L 238.418956 29.305494 
L 238.517722 32.545821 
L 238.706275 48.040832 
L 239.146231 109.304969 
L 239.505379 143.660091 
L 239.613123 145.727036 
L 239.658017 145.286436 
L 239.765761 141.150193 
L 239.972271 122.406247 
L 240.834226 29.039975 
L 240.852184 29.074176 
L 240.915035 30.159392 
L 241.049715 37.366417 
L 241.301119 65.366507 
L 241.974521 144.118514 
L 242.064308 145.728109 
L 242.11818 145.222339 
L 242.234903 140.407565 
L 242.450392 119.809341 
L 243.285411 29.054489 
L 243.29439 29.037012 
L 243.321326 29.169123 
L 243.402134 31.213321 
L 243.563751 42.284539 
L 243.878005 82.733415 
L 244.380812 141.892745 
L 244.524471 145.728897 
L 244.560386 145.46821 
L 244.659152 142.247629 
L 244.847705 126.784522 
L 245.287661 65.535571 
L 245.646809 31.127228 
L 245.754553 29.0384 
L 245.799447 29.469799 
L 245.907191 33.584716 
L 246.113701 52.295584 
L 246.984635 145.725335 
L 246.993614 145.694698 
L 247.056465 144.622297 
L 247.191145 137.440966 
L 247.442549 109.473938 
L 248.115951 30.666347 
L 248.205738 29.038478 
L 248.25961 29.533208 
L 248.376333 34.32502 
L 248.591822 54.889953 
L 249.426841 145.709544 
L 249.43582 145.728866 
L 249.462756 145.602286 
L 249.543564 143.574424 
L 249.705181 132.532454 
L 250.019435 92.112731 
L 250.531221 32.436899 
L 250.665902 29.036996 
L 250.701816 29.290314 
L 250.800582 32.491143 
L 250.989135 47.922315 
L 251.420112 107.907325 
L 251.77926 143.245486 
L 251.895983 145.728172 
L 251.931898 145.451755 
L 252.030664 142.189022 
L 252.219216 126.657834 
L 252.659173 65.376603 
L 253.018321 31.081966 
L 253.126065 29.039865 
L 253.170959 29.490906 
L 253.278703 33.651345 
L 253.485213 52.432793 
L 253.575 63.984381 
L 253.575 63.984381 
" clip-path="url(#p99f0c4de31)" style="fill: none; stroke: #808080; stroke-width: 1.5; stroke-linecap: square"/>
   </g>
   <g id="patch_3">
    <path d="M 74.01 155.94 
L 74.01 19.44 
" style="fill: none; stroke: #000000; stroke-width: 0.8; stroke-linejoin: miter; stroke-linecap: square"/>
   </g>
   <g id="patch_4">
    <path d="M 253.575 155.94 
L 253.575 19.44 
" style="fill: none; stroke: #000000; stroke-width: 0.8; stroke-linejoin: miter; stroke-linecap: square"/>
   </g>
   <g id="patch_5">
    <path d="M 74.01 155.94 
L 253.575 155.94 
" style="fill: none; stroke: #000000; stroke-width: 0.8; stroke-linejoin: miter; stroke-linecap: square"/>
   </g>
   <g id="patch_6">
    <path d="M 74.01 19.44 
L 253.575 19.44 
" style="fill: none; stroke: #000000; stroke-width: 0.8; stroke-linejoin: miter; stroke-linecap: square"/>
   </g>
  </g>
 </g>
 <defs>
  <clipPath id="p99f0c4de31">
   <rect x="74.01" y="19.44" width="179.565" height="136.5"/>
  </clipPath>
 </defs>
</svg>
