<?xml version="1.0" encoding="utf-8" standalone="no"?>
<!DOCTYPE svg PUBLIC "-//W3C//DTD SVG 1.1//EN"
  "http://www.w3.org/Graphics/SVG/1.1/DTD/svg11.dtd">
<svg xmlns:xlink="http://www.w3.org/1999/xlink" width="288pt" height="216pt" viewBox="0 0 288 216" xmlns="http://www.w3.org/2000/svg" version="1.1">
 <metadata>
  <rdf:RDF xmlns:dc="http://purl.org/dc/elements/1.1/" xmlns:cc="http://creativecommons.org/ns#" xmlns:rdf="http://www.w3.org/1999/02/22-rdf-syntax-ns#">
   <cc:Work>
    <dc:type rdf:resource="http://purl.org/dc/dcmitype/StillImage"/>
    <dc:date>2024-03-05T17:25:07.606969</dc:date>
    <dc:format>image/svg+xml</dc:format>
    <dc:creator>
     <cc:Agent>
      <dc:title>Matplotlib v3.7.2, https://matplotlib.org/</dc:title>
     </cc:Agent>
    </dc:creator>
   </cc:Work>
  </rdf:RDF>
 </metadata>
 <defs>
  <style type="text/css">*{stroke-linejoin: round; stroke-linecap: butt}</style>
 </defs>
 <g id="figure_1">
  <g id="patch_1">
   <path d="M 0 216 
L 288 216 
L 288 0 
L 0 0 
L 0 216 
z
" style="fill: none"/>
  </g>
  <g id="axes_1">
   <g id="patch_2">
    <path d="M 57.648 161.7 
L 270.72 161.7 
L 270.72 17.28 
L 57.648 17.28 
L 57.648 161.7 
z
" style="fill: none"/>
   </g>
   <g id="matplotlib.axis_1">
    <g id="xtick_1">
     <g id="line2d_1">
      <defs>
       <path id="macd9e1bb68" d="M 0 0 
L 0 -3.5 
" style="stroke: #000000; stroke-width: 0.8"/>
      </defs>
      <g>
       <use xlink:href="#macd9e1bb68" x="57.648" y="161.7" style="stroke: #000000; stroke-width: 0.8"/>
      </g>
     </g>
     <g id="text_1">
      <!-- 0 -->
      <g transform="translate(53.19925 176.6525) scale(0.16 -0.16)">
       <defs>
        <path id="ArialMT-30" d="M 266 2259 
Q 266 3072 433 3567 
Q 600 4063 929 4331 
Q 1259 4600 1759 4600 
Q 2128 4600 2406 4451 
Q 2684 4303 2865 4023 
Q 3047 3744 3150 3342 
Q 3253 2941 3253 2259 
Q 3253 1453 3087 958 
Q 2922 463 2592 192 
Q 2263 -78 1759 -78 
Q 1097 -78 719 397 
Q 266 969 266 2259 
z
M 844 2259 
Q 844 1131 1108 757 
Q 1372 384 1759 384 
Q 2147 384 2411 759 
Q 2675 1134 2675 2259 
Q 2675 3391 2411 3762 
Q 2147 4134 1753 4134 
Q 1366 4134 1134 3806 
Q 844 3388 844 2259 
z
" transform="scale(0.015625)"/>
       </defs>
       <use xlink:href="#ArialMT-30"/>
      </g>
     </g>
    </g>
    <g id="xtick_2">
     <g id="line2d_2">
      <g>
       <use xlink:href="#macd9e1bb68" x="142.8768" y="161.7" style="stroke: #000000; stroke-width: 0.8"/>
      </g>
     </g>
     <g id="text_2">
      <!-- 200 -->
      <g transform="translate(129.53055 176.6525) scale(0.16 -0.16)">
       <defs>
        <path id="ArialMT-32" d="M 3222 541 
L 3222 0 
L 194 0 
Q 188 203 259 391 
Q 375 700 629 1000 
Q 884 1300 1366 1694 
Q 2113 2306 2375 2664 
Q 2638 3022 2638 3341 
Q 2638 3675 2398 3904 
Q 2159 4134 1775 4134 
Q 1369 4134 1125 3890 
Q 881 3647 878 3216 
L 300 3275 
Q 359 3922 746 4261 
Q 1134 4600 1788 4600 
Q 2447 4600 2831 4234 
Q 3216 3869 3216 3328 
Q 3216 3053 3103 2787 
Q 2991 2522 2730 2228 
Q 2469 1934 1863 1422 
Q 1356 997 1212 845 
Q 1069 694 975 541 
L 3222 541 
z
" transform="scale(0.015625)"/>
       </defs>
       <use xlink:href="#ArialMT-32"/>
       <use xlink:href="#ArialMT-30" x="55.615234"/>
       <use xlink:href="#ArialMT-30" x="111.230469"/>
      </g>
     </g>
    </g>
    <g id="xtick_3">
     <g id="line2d_3">
      <g>
       <use xlink:href="#macd9e1bb68" x="228.1056" y="161.7" style="stroke: #000000; stroke-width: 0.8"/>
      </g>
     </g>
     <g id="text_3">
      <!-- 400 -->
      <g transform="translate(214.75935 176.6525) scale(0.16 -0.16)">
       <defs>
        <path id="ArialMT-34" d="M 2069 0 
L 2069 1097 
L 81 1097 
L 81 1613 
L 2172 4581 
L 2631 4581 
L 2631 1613 
L 3250 1613 
L 3250 1097 
L 2631 1097 
L 2631 0 
L 2069 0 
z
M 2069 1613 
L 2069 3678 
L 634 1613 
L 2069 1613 
z
" transform="scale(0.015625)"/>
       </defs>
       <use xlink:href="#ArialMT-34"/>
       <use xlink:href="#ArialMT-30" x="55.615234"/>
       <use xlink:href="#ArialMT-30" x="111.230469"/>
      </g>
     </g>
    </g>
    <g id="text_4">
     <!-- $t$ -->
     <g transform="translate(160.984 195.285) scale(0.16 -0.16)">
      <defs>
       <path id="DejaVuSans-Oblique-74" d="M 2706 3500 
L 2619 3053 
L 1472 3053 
L 1100 1153 
Q 1081 1047 1072 975 
Q 1063 903 1063 863 
Q 1063 663 1183 572 
Q 1303 481 1569 481 
L 2150 481 
L 2053 0 
L 1503 0 
Q 991 0 739 200 
Q 488 400 488 806 
Q 488 878 497 964 
Q 506 1050 525 1153 
L 897 3053 
L 409 3053 
L 500 3500 
L 978 3500 
L 1172 4494 
L 1747 4494 
L 1556 3500 
L 2706 3500 
z
" transform="scale(0.015625)"/>
      </defs>
      <use xlink:href="#DejaVuSans-Oblique-74" transform="translate(0 0.78125)"/>
     </g>
    </g>
   </g>
   <g id="matplotlib.axis_2">
    <g id="ytick_1">
     <g id="line2d_4">
      <defs>
       <path id="m04ef240884" d="M 0 0 
L 3.5 0 
" style="stroke: #000000; stroke-width: 0.8"/>
      </defs>
      <g>
       <use xlink:href="#m04ef240884" x="57.648" y="132.298855" style="stroke: #000000; stroke-width: 0.8"/>
      </g>
     </g>
     <g id="text_5">
      <!-- $\mathdefault{10^{0}}$ -->
      <g transform="translate(29.028 140.548855) scale(0.16 -0.16)">
       <defs>
        <path id="ArialMT-31" d="M 2384 0 
L 1822 0 
L 1822 3584 
Q 1619 3391 1289 3197 
Q 959 3003 697 2906 
L 697 3450 
Q 1169 3672 1522 3987 
Q 1875 4303 2022 4600 
L 2384 4600 
L 2384 0 
z
" transform="scale(0.015625)"/>
       </defs>
       <use xlink:href="#ArialMT-31" transform="translate(0 0.99375)"/>
       <use xlink:href="#ArialMT-30" transform="translate(55.615234 0.99375)"/>
       <use xlink:href="#ArialMT-30" transform="translate(112.972813 70.6875) scale(0.7)"/>
      </g>
     </g>
    </g>
    <g id="ytick_2">
     <g id="line2d_5">
      <g>
       <use xlink:href="#m04ef240884" x="57.648" y="69.869874" style="stroke: #000000; stroke-width: 0.8"/>
      </g>
     </g>
     <g id="text_6">
      <!-- $\mathdefault{10^{1}}$ -->
      <g transform="translate(29.028 78.119874) scale(0.16 -0.16)">
       <use xlink:href="#ArialMT-31" transform="translate(0 0.99375)"/>
       <use xlink:href="#ArialMT-30" transform="translate(55.615234 0.99375)"/>
       <use xlink:href="#ArialMT-31" transform="translate(112.972813 70.6875) scale(0.7)"/>
      </g>
     </g>
    </g>
    <g id="ytick_3">
     <g id="line2d_6">
      <defs>
       <path id="m11d9f3f27b" d="M 0 0 
L 2 0 
" style="stroke: #000000; stroke-width: 0.6"/>
      </defs>
      <g>
       <use xlink:href="#m11d9f3f27b" x="57.648" y="157.141844" style="stroke: #000000; stroke-width: 0.6"/>
      </g>
     </g>
    </g>
    <g id="ytick_4">
     <g id="line2d_7">
      <g>
       <use xlink:href="#m11d9f3f27b" x="57.648" y="151.091851" style="stroke: #000000; stroke-width: 0.6"/>
      </g>
     </g>
    </g>
    <g id="ytick_5">
     <g id="line2d_8">
      <g>
       <use xlink:href="#m11d9f3f27b" x="57.648" y="146.148646" style="stroke: #000000; stroke-width: 0.6"/>
      </g>
     </g>
    </g>
    <g id="ytick_6">
     <g id="line2d_9">
      <g>
       <use xlink:href="#m11d9f3f27b" x="57.648" y="141.969226" style="stroke: #000000; stroke-width: 0.6"/>
      </g>
     </g>
    </g>
    <g id="ytick_7">
     <g id="line2d_10">
      <g>
       <use xlink:href="#m11d9f3f27b" x="57.648" y="138.348848" style="stroke: #000000; stroke-width: 0.6"/>
      </g>
     </g>
    </g>
    <g id="ytick_8">
     <g id="line2d_11">
      <g>
       <use xlink:href="#m11d9f3f27b" x="57.648" y="135.155449" style="stroke: #000000; stroke-width: 0.6"/>
      </g>
     </g>
    </g>
    <g id="ytick_9">
     <g id="line2d_12">
      <g>
       <use xlink:href="#m11d9f3f27b" x="57.648" y="113.505859" style="stroke: #000000; stroke-width: 0.6"/>
      </g>
     </g>
    </g>
    <g id="ytick_10">
     <g id="line2d_13">
      <g>
       <use xlink:href="#m11d9f3f27b" x="57.648" y="102.512661" style="stroke: #000000; stroke-width: 0.6"/>
      </g>
     </g>
    </g>
    <g id="ytick_11">
     <g id="line2d_14">
      <g>
       <use xlink:href="#m11d9f3f27b" x="57.648" y="94.712864" style="stroke: #000000; stroke-width: 0.6"/>
      </g>
     </g>
    </g>
    <g id="ytick_12">
     <g id="line2d_15">
      <g>
       <use xlink:href="#m11d9f3f27b" x="57.648" y="88.66287" style="stroke: #000000; stroke-width: 0.6"/>
      </g>
     </g>
    </g>
    <g id="ytick_13">
     <g id="line2d_16">
      <g>
       <use xlink:href="#m11d9f3f27b" x="57.648" y="83.719666" style="stroke: #000000; stroke-width: 0.6"/>
      </g>
     </g>
    </g>
    <g id="ytick_14">
     <g id="line2d_17">
      <g>
       <use xlink:href="#m11d9f3f27b" x="57.648" y="79.540246" style="stroke: #000000; stroke-width: 0.6"/>
      </g>
     </g>
    </g>
    <g id="ytick_15">
     <g id="line2d_18">
      <g>
       <use xlink:href="#m11d9f3f27b" x="57.648" y="75.919868" style="stroke: #000000; stroke-width: 0.6"/>
      </g>
     </g>
    </g>
    <g id="ytick_16">
     <g id="line2d_19">
      <g>
       <use xlink:href="#m11d9f3f27b" x="57.648" y="72.726468" style="stroke: #000000; stroke-width: 0.6"/>
      </g>
     </g>
    </g>
    <g id="ytick_17">
     <g id="line2d_20">
      <g>
       <use xlink:href="#m11d9f3f27b" x="57.648" y="51.076879" style="stroke: #000000; stroke-width: 0.6"/>
      </g>
     </g>
    </g>
    <g id="ytick_18">
     <g id="line2d_21">
      <g>
       <use xlink:href="#m11d9f3f27b" x="57.648" y="40.083681" style="stroke: #000000; stroke-width: 0.6"/>
      </g>
     </g>
    </g>
    <g id="ytick_19">
     <g id="line2d_22">
      <g>
       <use xlink:href="#m11d9f3f27b" x="57.648" y="32.283883" style="stroke: #000000; stroke-width: 0.6"/>
      </g>
     </g>
    </g>
    <g id="ytick_20">
     <g id="line2d_23">
      <g>
       <use xlink:href="#m11d9f3f27b" x="57.648" y="26.23389" style="stroke: #000000; stroke-width: 0.6"/>
      </g>
     </g>
    </g>
    <g id="ytick_21">
     <g id="line2d_24">
      <g>
       <use xlink:href="#m11d9f3f27b" x="57.648" y="21.290685" style="stroke: #000000; stroke-width: 0.6"/>
      </g>
     </g>
    </g>
    <g id="text_7">
     <!-- $r_i$ -->
     <g transform="translate(21.848 94.61) rotate(-90) scale(0.16 -0.16)">
      <defs>
       <path id="DejaVuSans-Oblique-72" d="M 2853 2969 
Q 2766 3016 2653 3041 
Q 2541 3066 2413 3066 
Q 1953 3066 1609 2717 
Q 1266 2369 1153 1784 
L 800 0 
L 225 0 
L 909 3500 
L 1484 3500 
L 1375 2956 
Q 1603 3259 1920 3421 
Q 2238 3584 2597 3584 
Q 2691 3584 2781 3573 
Q 2872 3563 2963 3538 
L 2853 2969 
z
" transform="scale(0.015625)"/>
       <path id="DejaVuSans-Oblique-69" d="M 1172 4863 
L 1747 4863 
L 1606 4134 
L 1031 4134 
L 1172 4863 
z
M 909 3500 
L 1484 3500 
L 800 0 
L 225 0 
L 909 3500 
z
" transform="scale(0.015625)"/>
      </defs>
      <use xlink:href="#DejaVuSans-Oblique-72"/>
      <use xlink:href="#DejaVuSans-Oblique-69" transform="translate(41.113281 -16.40625) scale(0.7)"/>
     </g>
    </g>
   </g>
   <g id="line2d_25">
    <path d="M 57.648 153.84889 
L 58.406551 35.493905 
L 58.628151 27.307975 
L 58.879581 25.348164 
L 58.99038 25.209957 
L 59.028734 25.237855 
L 59.186411 25.583909 
L 59.642394 26.636505 
L 59.65944 26.628084 
L 59.77024 26.415878 
L 60.119685 25.445248 
L 60.175084 25.494062 
L 60.362592 25.944049 
L 60.771698 26.841497 
L 60.873975 26.693735 
L 61.257512 25.613697 
L 61.355527 25.736553 
L 61.653834 26.58322 
L 61.901002 26.970983 
L 61.905264 26.969188 
L 62.011802 26.794921 
L 62.386816 25.731674 
L 62.467785 25.821181 
L 62.70643 26.465778 
L 63.017522 27.070605 
L 63.119798 26.937833 
L 63.345659 26.087245 
L 63.511859 25.826043 
L 63.533166 25.837564 
L 63.673797 26.088889 
L 64.151088 27.149117 
L 64.189441 27.118493 
L 64.321549 26.774786 
L 64.63264 25.909626 
L 64.653947 25.919117 
L 64.786055 26.139789 
L 65.27613 27.223514 
L 65.323007 27.180434 
L 65.463637 26.781141 
L 65.757683 25.992887 
L 65.770467 25.997643 
L 65.894051 26.183195 
L 66.401173 27.298384 
L 66.460834 27.233358 
L 66.618511 26.733573 
L 66.882725 26.082255 
L 66.886987 26.083588 
L 67.006309 26.246057 
L 67.521954 27.383041 
L 67.598661 27.290111 
L 67.781907 26.663221 
L 68.003506 26.186682 
L 68.012029 26.189297 
L 68.131352 26.354621 
L 68.646997 27.484412 
L 68.719443 27.398629 
L 68.902688 26.795843 
L 69.128549 26.326125 
L 69.137072 26.329137 
L 69.260656 26.507547 
L 69.772039 27.624866 
L 69.835962 27.555791 
L 70.010685 27.032894 
L 70.24933 26.539625 
L 70.257853 26.542529 
L 70.381437 26.718621 
L 70.897082 27.85445 
L 70.969528 27.778317 
L 71.186866 27.189553 
L 71.370111 26.956151 
L 71.387157 26.965671 
L 71.523526 27.199037 
L 72.026386 28.323481 
L 72.069001 28.291328 
L 72.380093 27.940829 
L 72.444016 28.034396 
L 72.665615 28.738446 
L 72.921306 29.411283 
L 72.946876 29.390371 
L 73.032106 29.079099 
L 73.185521 27.426151 
L 73.509397 24.3148 
L 73.611674 24.277046 
L 73.645766 24.302413 
L 73.884411 24.369798 
L 74.178456 24.223663 
L 74.191241 24.239171 
L 74.374487 24.661412 
L 74.919962 26.071807 
L 74.941269 26.059968 
L 75.056331 25.828214 
L 75.367422 25.065549 
L 75.401514 25.087786 
L 75.554929 25.397135 
L 76.053527 26.575088 
L 76.083358 26.554374 
L 76.206942 26.259772 
L 76.522295 25.398406 
L 76.552126 25.415904 
L 76.697018 25.692092 
L 77.182832 26.806583 
L 77.216924 26.781568 
L 77.340508 26.476621 
L 77.660122 25.582526 
L 77.689953 25.599965 
L 77.834845 25.875433 
L 78.312136 26.946811 
L 78.341967 26.92492 
L 78.465551 26.626898 
L 78.789427 25.707723 
L 78.823519 25.72781 
L 78.972672 26.018526 
L 79.437179 27.049118 
L 79.462748 27.031776 
L 79.58207 26.762798 
L 79.918731 25.806786 
L 79.961346 25.836451 
L 80.123284 26.179845 
L 80.55796 27.134089 
L 80.570744 27.128107 
L 80.681544 26.928567 
L 81.048035 25.894156 
L 81.116219 25.960869 
L 81.325034 26.491299 
L 81.674479 27.211696 
L 81.776756 27.081606 
L 81.998355 26.258626 
L 82.168816 25.975826 
L 82.190124 25.986149 
L 82.326493 26.220711 
L 82.808045 27.283629 
L 82.85066 27.247544 
L 82.987029 26.882465 
L 83.293859 26.063273 
L 83.310905 26.071204 
L 83.443012 26.289112 
L 83.933088 27.364088 
L 83.979964 27.320595 
L 84.124856 26.912869 
L 84.41464 26.163211 
L 84.427425 26.167985 
L 84.55527 26.362771 
L 85.053869 27.462225 
L 85.11353 27.402631 
L 85.271207 26.93072 
L 85.539683 26.293461 
L 85.543944 26.294882 
L 85.663267 26.45825 
L 86.178911 27.592 
L 86.255619 27.502798 
L 86.447388 26.889564 
L 86.660464 26.485591 
L 86.668987 26.488605 
L 86.792571 26.66622 
L 87.308216 27.794087 
L 87.3764 27.720647 
L 87.576692 27.156914 
L 87.781245 26.838948 
L 87.794029 26.844968 
L 87.926137 27.055755 
L 88.43752 28.190436 
L 88.488658 28.148351 
L 88.850888 27.708922 
L 88.914811 27.792557 
L 89.132148 28.40692 
L 89.421932 29.116038 
L 89.44324 29.103889 
L 89.532732 28.866451 
L 89.690408 27.626888 
L 90.099515 24.401192 
L 90.414867 23.954647 
L 90.546975 24.019572 
L 90.738743 24.476462 
L 91.28848 25.925113 
L 91.309788 25.913781 
L 91.424849 25.688114 
L 91.727417 24.980509 
L 91.761509 25.002318 
L 91.914924 25.309897 
L 92.422046 26.520818 
L 92.456138 26.495755 
L 92.579722 26.191417 
L 92.886552 25.357852 
L 92.916383 25.374008 
L 93.061275 25.646046 
L 93.55135 26.777554 
L 93.589704 26.748252 
L 93.71755 26.418049 
L 94.028641 25.557844 
L 94.049949 25.568625 
L 94.186317 25.806836 
L 94.680654 26.927731 
L 94.727531 26.885693 
L 94.8639 26.496227 
L 95.157945 25.689479 
L 95.17073 25.694204 
L 95.294314 25.880687 
L 95.809958 27.032832 
L 95.873881 26.958605 
L 96.035819 26.411208 
L 96.287249 25.791569 
L 96.291511 25.792871 
L 96.410833 25.955829 
L 96.935001 27.118355 
L 97.011709 27.018038 
L 97.194954 26.354515 
L 97.412292 25.878901 
L 97.420815 25.881682 
L 97.544399 26.059641 
L 98.055782 27.196149 
L 98.123967 27.118126 
L 98.290166 26.557939 
L 98.537335 25.961872 
L 98.541596 25.963095 
L 98.660919 26.123739 
L 99.180825 27.270048 
L 99.257532 27.172906 
L 99.440778 26.526207 
L 99.662377 26.048017 
L 99.6709 26.051009 
L 99.794485 26.230506 
L 100.301606 27.350783 
L 100.36979 27.274522 
L 100.53599 26.731526 
L 100.783158 26.145006 
L 100.791681 26.147551 
L 100.911004 26.312332 
L 101.426649 27.443632 
L 101.499095 27.35762 
L 101.678079 26.76403 
L 101.908201 26.268864 
L 101.916724 26.271773 
L 102.040308 26.449343 
L 102.551691 27.566074 
L 102.615614 27.495758 
L 102.786075 26.974851 
L 103.028982 26.446862 
L 103.037505 26.44955 
L 103.161089 26.623764 
L 103.676734 27.753141 
L 103.744918 27.679839 
L 103.936687 27.128819 
L 104.149763 26.760582 
L 104.162548 26.76573 
L 104.290394 26.960107 
L 104.806038 28.102336 
L 104.8657 28.049248 
L 105.249237 27.511361 
L 105.321683 27.604111 
L 105.543282 28.230768 
L 105.84585 28.911799 
L 105.854373 28.908336 
L 105.948127 28.735484 
L 106.122849 27.791627 
L 106.791909 23.874816 
L 106.894186 23.86795 
L 106.919755 23.897167 
L 107.098739 24.331726 
L 107.631429 25.73995 
L 107.648476 25.732305 
L 107.763537 25.525552 
L 108.061843 24.879723 
L 108.095936 24.902896 
L 108.249351 25.213423 
L 108.764995 26.457835 
L 108.799087 26.432589 
L 108.922672 26.128407 
L 109.229501 25.313859 
L 109.255071 25.328145 
L 109.395701 25.586581 
L 109.894299 26.745287 
L 109.936915 26.71094 
L 110.069022 26.353586 
L 110.367329 25.530168 
L 110.388636 25.539495 
L 110.520744 25.760839 
L 111.023604 26.907016 
L 111.074742 26.859416 
L 111.215372 26.442586 
L 111.500894 25.670312 
L 111.513679 25.675021 
L 111.637263 25.861456 
L 112.152908 27.017457 
L 112.216831 26.944384 
L 112.378769 26.398473 
L 112.630199 25.775905 
L 112.63446 25.777161 
L 112.753783 25.93921 
L 113.27795 27.105539 
L 113.354658 27.006841 
L 113.537903 26.344493 
L 113.755241 25.864776 
L 113.763764 25.867419 
L 113.883087 26.034438 
L 114.402993 27.182396 
L 114.475439 27.091185 
L 114.654423 26.459144 
L 114.880284 25.947939 
L 114.888807 25.950584 
L 115.00813 26.117294 
L 115.523774 27.258078 
L 115.59622 27.171363 
L 115.770943 26.570058 
L 116.005327 26.033008 
L 116.009588 26.034228 
L 116.128911 26.194496 
L 116.648817 27.335571 
L 116.725524 27.237847 
L 116.913031 26.581305 
L 117.130369 26.128332 
L 117.138892 26.131402 
L 117.262476 26.311381 
L 117.769598 27.427183 
L 117.833521 27.358229 
L 117.995459 26.851064 
L 118.25115 26.245474 
L 118.259673 26.24817 
L 118.383258 26.423534 
L 118.894641 27.543122 
L 118.962825 27.466205 
L 119.137548 26.917334 
L 119.376193 26.412096 
L 119.380454 26.413496 
L 119.499777 26.575824 
L 120.019683 27.715399 
L 120.096391 27.626721 
L 120.305205 26.994457 
L 120.496974 26.692773 
L 120.51402 26.70081 
L 120.646127 26.91642 
L 121.148987 28.024517 
L 121.195864 27.986662 
L 121.37911 27.592387 
L 121.592186 27.32227 
L 121.604971 27.328569 
L 121.737078 27.536439 
L 122.231415 28.72761 
L 122.308122 28.634891 
L 122.66609 27.782146 
L 122.77689 27.923517 
L 122.840813 27.960332 
L 122.879167 27.891127 
L 122.977182 27.214833 
L 123.373504 23.949039 
L 123.39055 23.955489 
L 123.505611 24.164177 
L 123.991425 25.336829 
L 124.038302 25.299455 
L 124.208763 24.901587 
L 124.387747 24.674886 
L 124.409054 24.687312 
L 124.549685 24.938225 
L 125.112206 26.337717 
L 125.176129 26.270906 
L 125.338067 25.749229 
L 125.568189 25.230668 
L 125.576712 25.2333 
L 125.696035 25.400944 
L 126.250033 26.684685 
L 126.331002 26.572592 
L 126.535555 25.8127 
L 126.718801 25.484682 
L 126.735847 25.492919 
L 126.867954 25.714579 
L 127.375076 26.870364 
L 127.426214 26.82081 
L 127.566844 26.398989 
L 127.848105 25.63769 
L 127.86089 25.641997 
L 127.984474 25.825698 
L 128.500118 26.99238 
L 128.568303 26.915578 
L 128.730241 26.365598 
L 128.977409 25.749822 
L 128.985932 25.752289 
L 129.105255 25.917879 
L 129.629423 27.083363 
L 129.701869 26.991832 
L 129.876591 26.371049 
L 130.106713 25.842644 
L 130.110975 25.843902 
L 130.230298 26.005768 
L 130.750204 27.164201 
L 130.826911 27.069613 
L 131.005895 26.434125 
L 131.231756 25.926527 
L 131.240279 25.929361 
L 131.363863 26.107692 
L 131.875246 27.23813 
L 131.943431 27.158467 
L 132.10963 26.598988 
L 132.356799 26.010386 
L 132.36106 26.011682 
L 132.480383 26.173672 
L 133.000289 27.313907 
L 133.072735 27.223632 
L 133.251719 26.605868 
L 133.47758 26.10104 
L 133.486103 26.103508 
L 133.605426 26.267685 
L 134.12107 27.401328 
L 134.193516 27.315431 
L 134.3725 26.715324 
L 134.602623 26.211493 
L 134.611146 26.214292 
L 134.73473 26.390949 
L 135.246113 27.508413 
L 135.310036 27.43737 
L 135.480497 26.904986 
L 135.727665 26.361586 
L 135.731927 26.363017 
L 135.85125 26.526272 
L 136.371156 27.661228 
L 136.443602 27.577017 
L 136.639632 26.971926 
L 136.848446 26.600481 
L 136.861231 26.605802 
L 136.989077 26.802445 
L 137.496198 27.921515 
L 137.55586 27.866959 
L 137.747628 27.395651 
L 137.960704 27.094406 
L 137.969228 27.098402 
L 138.101335 27.302869 
L 138.616979 28.479743 
L 138.680902 28.419215 
L 138.932332 28.086565 
L 138.987732 28.166259 
L 139.153932 28.820523 
L 139.392577 29.644354 
L 139.426669 29.606947 
L 139.5119 29.167619 
L 139.686622 26.713085 
L 139.946575 24.19005 
L 140.019021 24.151105 
L 140.065898 24.203501 
L 140.440912 24.761396 
L 140.500574 24.697614 
L 140.777573 24.40436 
L 140.807403 24.431977 
L 140.977864 24.802859 
L 141.519078 26.18484 
L 141.55317 26.162366 
L 141.676754 25.873021 
L 141.9708 25.132608 
L 141.996369 25.145421 
L 142.132738 25.387049 
L 142.656905 26.619042 
L 142.708044 26.568663 
L 142.852935 26.128189 
L 143.121412 25.431384 
L 143.129935 25.433983 
L 143.249257 25.601549 
L 143.786209 26.830657 
L 143.867178 26.723755 
L 144.058947 26.013251 
L 144.259239 25.603599 
L 144.272023 25.608395 
L 144.395608 25.795617 
L 144.911252 26.96449 
L 144.979437 26.887236 
L 145.141375 26.335829 
L 145.388543 25.723544 
L 145.392804 25.724671 
L 145.512127 25.884158 
L 146.040556 27.06112 
L 146.117264 26.960564 
L 146.300509 26.293663 
L 146.517847 25.820051 
L 146.52637 25.823001 
L 146.649954 26.002997 
L 147.161337 27.144536 
L 147.229522 27.06707 
L 147.39146 26.522522 
L 147.64289 25.905158 
L 147.647151 25.906394 
L 147.766474 26.067542 
L 148.28638 27.219083 
L 148.363088 27.122899 
L 148.546333 26.47219 
L 148.767932 25.988317 
L 148.776456 25.991241 
L 148.90004 26.170274 
L 149.411423 27.293719 
L 149.475346 27.220296 
L 149.641545 26.672999 
L 149.892975 26.077134 
L 149.897237 26.078522 
L 150.016559 26.242173 
L 150.532204 27.377728 
L 150.608911 27.283758 
L 150.792157 26.654814 
L 151.013756 26.180267 
L 151.022279 26.182986 
L 151.145864 26.358921 
L 151.657247 27.477633 
L 151.725431 27.398866 
L 151.900154 26.835479 
L 152.138799 26.317091 
L 152.14306 26.318467 
L 152.262383 26.480759 
L 152.782289 27.615005 
L 152.854735 27.529533 
L 153.046504 26.924866 
L 153.25958 26.524396 
L 153.272365 26.529381 
L 153.40021 26.723922 
L 153.907332 27.837181 
L 153.966993 27.779816 
L 154.150239 27.300244 
L 154.3761 26.920685 
L 154.384623 26.92404 
L 154.512468 27.112387 
L 155.036636 28.285053 
L 155.10482 28.221442 
L 155.398866 27.877101 
L 155.441481 27.924134 
L 155.620465 28.385967 
L 155.961387 29.327522 
L 155.995479 29.291737 
L 156.089233 28.896658 
L 156.263955 26.917461 
L 156.553739 24.366487 
L 156.707154 24.303874 
L 156.907446 24.260391 
L 157.163137 24.152468 
L 157.167399 24.156889 
L 157.333598 24.496313 
L 157.921689 26.036019 
L 157.972827 25.989936 
L 158.12198 25.567363 
L 158.364887 25.044335 
L 158.37341 25.04763 
L 158.496995 25.231066 
L 159.055254 26.561118 
L 159.136223 26.456466 
L 159.332254 25.74405 
L 159.519761 25.387686 
L 159.536807 25.394704 
L 159.664652 25.599515 
L 160.184559 26.798783 
L 160.248481 26.729226 
L 160.406158 26.204889 
L 160.657588 25.575457 
L 160.666111 25.578139 
L 160.785434 25.746427 
L 161.313863 26.941421 
L 161.39057 26.843731 
L 161.569554 26.194651 
L 161.791154 25.703359 
L 161.795415 25.704711 
L 161.914738 25.869021 
L 162.438905 27.044887 
L 162.515613 26.948431 
L 162.694597 26.303789 
L 162.916196 25.802106 
L 162.924719 25.804683 
L 163.044042 25.971249 
L 163.563948 27.128774 
L 163.640656 27.031731 
L 163.81964 26.390723 
L 164.041239 25.888525 
L 164.049762 25.890944 
L 164.169085 26.055524 
L 164.688991 27.204033 
L 164.761437 27.114107 
L 164.936159 26.503476 
L 165.166282 25.971467 
L 165.174805 25.973941 
L 165.294127 26.138756 
L 165.809772 27.280036 
L 165.886479 27.185932 
L 166.065463 26.561609 
L 166.291324 26.058482 
L 166.299847 26.061151 
L 166.41917 26.227646 
L 166.934815 27.360033 
L 167.00726 27.27216 
L 167.186245 26.663507 
L 167.416367 26.158704 
L 167.420628 26.160004 
L 167.539951 26.321421 
L 168.055596 27.457265 
L 168.132303 27.365933 
L 168.315549 26.753216 
L 168.537148 26.286141 
L 168.545671 26.288755 
L 168.669255 26.463013 
L 169.180638 27.585039 
L 169.248823 27.510143 
L 169.423545 26.972558 
L 169.662191 26.475486 
L 169.666452 26.476877 
L 169.785775 26.638675 
L 170.309943 27.782427 
L 170.38665 27.692256 
L 170.621034 27.013744 
L 170.782972 26.817838 
L 170.808541 26.832902 
L 170.953433 27.100044 
L 171.434985 28.167452 
L 171.464816 28.149268 
L 171.631015 27.859097 
L 171.83983 27.643039 
L 171.852615 27.650535 
L 171.993245 27.885732 
L 172.444967 29.058113 
L 172.517413 28.9374 
L 172.653781 28.163693 
L 173.246133 24.142773 
L 173.476256 23.917713 
L 173.612625 24.109588 
L 173.90667 25.040072 
L 174.260376 25.888993 
L 174.362653 25.790684 
L 174.724883 24.962124 
L 174.818636 25.080479 
L 175.082851 25.846968 
L 175.402465 26.510274 
L 175.504742 26.38347 
L 175.888279 25.351745 
L 175.990556 25.487778 
L 176.31017 26.41416 
L 176.544554 26.770173 
L 176.553077 26.766237 
L 176.659615 26.580987 
L 177.021845 25.552359 
L 177.094291 25.624022 
L 177.307367 26.175929 
L 177.661074 26.926317 
L 177.76335 26.798184 
L 177.980688 25.976812 
L 178.151149 25.68551 
L 178.172457 25.695627 
L 178.308825 25.930534 
L 178.798901 27.030814 
L 178.841516 26.99447 
L 178.973623 26.634964 
L 179.280453 25.78837 
L 179.297499 25.796081 
L 179.429607 26.013977 
L 179.923943 27.116922 
L 179.975082 27.06815 
L 180.115712 26.654192 
L 180.405496 25.876 
L 180.41828 25.880943 
L 180.546126 26.078252 
L 181.048986 27.193041 
L 181.108647 27.129237 
L 181.262062 26.641683 
L 181.530538 25.959 
L 181.5348 25.960295 
L 181.654123 26.122491 
L 182.174029 27.266863 
L 182.246475 27.17718 
L 182.425459 26.554927 
L 182.655581 26.044906 
L 182.659843 26.046289 
L 182.779165 26.209994 
L 183.29481 27.34731 
L 183.371517 27.253351 
L 183.554763 26.620069 
L 183.776362 26.141212 
L 183.784885 26.143893 
L 183.90847 26.319602 
L 184.419853 27.439395 
L 184.488037 27.360264 
L 184.662759 26.790152 
L 184.901405 26.263769 
L 184.905666 26.265109 
L 185.024989 26.426896 
L 185.544895 27.560282 
L 185.617341 27.473196 
L 185.804848 26.868544 
L 186.022186 26.438794 
L 186.030709 26.441602 
L 186.154293 26.617188 
L 186.669938 27.743859 
L 186.738122 27.669171 
L 186.929891 27.113512 
L 187.142967 26.744561 
L 187.155752 26.749806 
L 187.283598 26.945032 
L 187.799242 28.083454 
L 187.858903 28.029117 
L 188.246702 27.4691 
L 188.32341 27.56925 
L 188.553532 28.229829 
L 188.847577 28.868895 
L 188.8561 28.865521 
L 188.954115 28.689353 
L 189.145884 27.725193 
L 189.870343 23.847277 
L 189.887389 23.852519 
L 190.006712 24.03653 
L 190.339111 25.131426 
L 190.61611 25.673496 
L 190.722648 25.540504 
L 191.050786 24.845262 
L 191.110447 24.902284 
L 191.302216 25.378443 
L 191.749676 26.437793 
L 191.851953 26.295192 
L 192.222705 25.300415 
L 192.312197 25.407104 
L 192.57215 26.141059 
L 192.874719 26.736841 
L 192.976995 26.60705 
L 193.207118 25.747832 
L 193.360532 25.522383 
L 193.386102 25.536588 
L 193.526732 25.794397 
L 194.012546 26.900517 
L 194.0509 26.870966 
L 194.178745 26.54097 
L 194.489837 25.663963 
L 194.515406 25.676254 
L 194.651775 25.915728 
L 195.14185 27.012817 
L 195.184465 26.975014 
L 195.320834 26.594036 
L 195.619141 25.77074 
L 195.636187 25.777662 
L 195.764033 25.981092 
L 196.266893 27.101774 
L 196.322293 27.044668 
L 196.471446 26.580152 
L 196.744184 25.86017 
L 196.752707 25.862647 
L 196.872029 26.027948 
L 197.391935 27.179018 
L 197.464381 27.089439 
L 197.639104 26.477317 
L 197.869226 25.943436 
L 197.877749 25.945906 
L 197.997072 26.110796 
L 198.512716 27.254639 
L 198.589424 27.161052 
L 198.768408 26.53471 
L 198.994269 26.028201 
L 199.002792 26.030825 
L 199.122115 26.196973 
L 199.637759 27.3318 
L 199.710205 27.244372 
L 199.884928 26.650122 
L 200.119312 26.122709 
L 200.123573 26.123971 
L 200.242896 26.284741 
L 200.762802 27.420547 
L 200.835248 27.331229 
L 201.018493 26.71263 
L 201.244354 26.23933 
L 201.248616 26.240765 
L 201.367938 26.404703 
L 201.883583 27.536541 
L 201.96029 27.444948 
L 202.152059 26.815565 
L 202.365135 26.401256 
L 202.373658 26.404216 
L 202.497243 26.581681 
L 203.008626 27.704603 
L 203.07681 27.632086 
L 203.260056 27.095954 
L 203.485916 26.672703 
L 203.494439 26.675813 
L 203.618024 26.85341 
L 204.13793 28.002547 
L 204.210376 27.929537 
L 204.602436 27.280309 
L 204.679144 27.375817 
L 204.909266 28.023995 
L 205.220357 28.677694 
L 205.331157 28.536992 
L 205.603894 27.966332 
L 205.663556 28.046393 
L 205.885155 28.679345 
L 205.95334 28.454326 
L 206.089708 26.842972 
L 206.379492 24.033335 
L 206.443415 24.003927 
L 206.490292 24.058938 
L 206.694845 24.630459 
L 206.98889 25.204166 
L 207.09969 25.07145 
L 207.385212 24.610537 
L 207.423566 24.641291 
L 207.589765 25.00013 
L 208.113933 26.300356 
L 208.139502 26.284321 
L 208.258825 26.02118 
L 208.569916 25.20674 
L 208.604008 25.227237 
L 208.753162 25.520349 
L 209.247499 26.669615 
L 209.277329 26.648129 
L 209.400913 26.350021 
L 209.716266 25.4704 
L 209.746097 25.486468 
L 209.890989 25.758019 
L 210.376803 26.860218 
L 210.410895 26.83362 
L 210.538741 26.507552 
L 210.854094 25.629859 
L 210.875401 25.640778 
L 211.01177 25.879364 
L 211.501845 26.985171 
L 211.544461 26.949319 
L 211.676568 26.590145 
L 211.983398 25.743912 
L 212.000444 25.75178 
L 212.132551 25.970701 
L 212.626888 27.079423 
L 212.678026 27.031745 
L 212.818657 26.618924 
L 213.10844 25.836589 
L 213.121225 25.841436 
L 213.249071 26.038215 
L 213.751931 27.159043 
L 213.811592 27.096869 
L 213.965007 26.610477 
L 214.233483 25.920751 
L 214.237745 25.921967 
L 214.357067 26.082635 
L 214.876973 27.2331 
L 214.953681 27.136897 
L 215.136926 26.487499 
L 215.358526 26.00437 
L 215.367049 26.007283 
L 215.490633 26.186132 
L 215.997755 27.310399 
L 216.065939 27.235039 
L 216.232138 26.6891 
L 216.483568 26.095229 
L 216.48783 26.096621 
L 216.607153 26.260293 
L 217.122797 27.394957 
L 217.199505 27.301021 
L 217.38275 26.674741 
L 217.60435 26.20284 
L 217.612873 26.205583 
L 217.736457 26.381679 
L 218.24784 27.499985 
L 218.311763 27.429173 
L 218.482224 26.89575 
L 218.729392 26.349094 
L 218.733654 26.350493 
L 218.852976 26.513123 
L 219.372882 27.648332 
L 219.445328 27.564011 
L 219.641359 26.95494 
L 219.850173 26.578709 
L 219.862958 26.583881 
L 219.990804 26.779533 
L 220.497925 27.897388 
L 220.557587 27.84223 
L 220.745094 27.373312 
L 220.962431 27.042606 
L 220.975216 27.048397 
L 221.107323 27.255677 
L 221.622968 28.422935 
L 221.682629 28.369345 
L 221.946844 28.051189 
L 221.997982 28.124627 
L 222.176966 28.759933 
L 222.441181 29.594595 
L 222.471011 29.566814 
L 222.556242 29.188943 
L 222.71818 27.120445 
L 223.003702 24.236748 
L 223.080409 24.192968 
L 223.127286 24.240849 
L 223.459685 24.627777 
L 223.5023 24.586417 
L 223.783561 24.342416 
L 223.813392 24.373517 
L 223.992376 24.781389 
L 224.529328 26.147331 
L 224.550636 26.134836 
L 224.665697 25.89815 
L 224.98105 25.111693 
L 225.015142 25.134816 
L 225.168557 25.446858 
L 225.662894 26.604602 
L 225.688463 26.587336 
L 225.807786 26.315399 
L 226.131662 25.420969 
L 226.165754 25.442395 
L 226.319169 25.749615 
L 226.792198 26.822723 
L 226.813506 26.809342 
L 226.928567 26.563192 
L 227.269489 25.597166 
L 227.316366 25.632886 
L 227.486827 26.01211 
L 227.917241 26.959183 
L 227.925764 26.955328 
L 228.032302 26.772512 
L 228.403054 25.720175 
L 228.479762 25.801917 
L 228.709884 26.414067 
L 229.03376 27.061241 
L 229.136037 26.930154 
L 229.357636 26.094836 
L 229.528097 25.816232 
L 229.549405 25.827504 
L 229.685774 26.066897 
L 230.167326 27.141111 
L 230.209941 27.105922 
L 230.342048 26.753112 
L 230.648878 25.900501 
L 230.670186 25.909675 
L 230.802293 26.129029 
L 231.292369 27.215884 
L 231.339245 27.173718 
L 231.479876 26.776361 
L 231.773921 25.983566 
L 231.786705 25.988104 
L 231.91029 26.172158 
L 232.417411 27.290406 
L 232.481334 27.219087 
L 232.643272 26.692848 
L 232.898964 26.071843 
L 232.903225 26.073097 
L 233.022548 26.233926 
L 233.542454 27.37185 
L 233.6149 27.282231 
L 233.793884 26.672889 
L 234.024006 26.174968 
L 234.028268 26.176374 
L 234.14759 26.339996 
L 234.663235 27.472414 
L 234.739942 27.379477 
L 234.92745 26.751148 
L 235.144787 26.308317 
L 235.15331 26.311155 
L 235.276895 26.487753 
L 235.788278 27.607066 
L 235.856462 27.531228 
L 236.035446 26.981253 
L 236.265569 26.510186 
L 236.274092 26.512878 
L 236.397676 26.686779 
L 236.917582 27.82073 
L 236.985766 27.746085 
L 237.194581 27.166459 
L 237.38635 26.891524 
L 237.403396 26.900042 
L 237.539765 27.127808 
L 238.042625 28.251819 
L 238.089501 28.216462 
L 238.430423 27.825992 
L 238.498608 27.920941 
L 238.724469 28.591967 
L 238.992945 29.251953 
L 239.014252 29.236024 
L 239.103744 28.949359 
L 239.261421 27.452453 
L 239.610866 24.382683 
L 239.802634 24.263766 
L 240.220264 24.18869 
L 240.458909 24.865792 
L 240.902108 26.003653 
L 241.004385 25.892307 
L 241.366614 25.026186 
L 241.460368 25.142532 
L 241.724582 25.905375 
L 242.039935 26.551228 
L 242.142212 26.423058 
L 242.525749 25.381061 
L 242.628026 25.515271 
L 242.943379 26.426962 
L 243.182024 26.791572 
L 243.186285 26.789711 
L 243.292824 26.6124 
L 243.659315 25.570672 
L 243.740284 25.6567 
L 243.974668 26.28758 
L 244.298544 26.940484 
L 244.40082 26.809745 
L 244.622419 25.971801 
L 244.788619 25.698964 
L 244.809927 25.709424 
L 244.946295 25.945772 
L 245.436371 27.041203 
L 245.478986 27.003621 
L 245.615355 26.62402 
L 245.913662 25.798446 
L 245.930708 25.805087 
L 246.058553 26.006918 
L 246.561413 27.125627 
L 246.616813 27.068492 
L 246.765967 26.604977 
L 247.038704 25.885171 
L 247.047227 25.887592 
L 247.16655 26.052202 
L 247.686456 27.201078 
L 247.758902 27.111233 
L 247.933625 26.500471 
L 248.163747 25.968108 
L 248.17227 25.970577 
L 248.291593 26.135349 
L 248.807237 27.276994 
L 248.883945 27.182989 
L 249.062929 26.558461 
L 249.28879 26.054804 
L 249.297313 26.057463 
L 249.416635 26.22387 
L 249.93228 27.356603 
L 250.004726 27.268814 
L 250.18371 26.659812 
L 250.413832 26.154265 
L 250.418094 26.155559 
L 250.537417 26.316853 
L 251.057323 27.451026 
L 251.129769 27.361667 
L 251.313014 26.748225 
L 251.534613 26.280127 
L 251.543136 26.282724 
L 251.666721 26.456827 
L 252.178104 27.578917 
L 252.246288 27.50394 
L 252.421011 26.964974 
L 252.659656 26.465912 
L 252.663918 26.467289 
L 252.78324 26.628842 
L 253.307408 27.772058 
L 253.384115 27.681422 
L 253.618499 26.997441 
L 253.780437 26.798289 
L 253.806006 26.813082 
L 253.950898 27.079225 
L 254.432451 28.145246 
L 254.462281 28.126963 
L 254.628481 27.832072 
L 254.845819 27.594793 
L 254.854342 27.599429 
L 254.99071 27.81527 
L 255.455217 29.007377 
L 255.536186 28.868618 
L 255.681077 28.050199 
L 256.286214 24.068295 
L 256.46946 23.883954 
L 256.482244 23.89058 
L 256.622875 24.112339 
L 256.963797 25.230419 
L 257.257842 25.848317 
L 257.360118 25.735227 
L 257.713825 24.940075 
L 257.794794 25.035969 
L 258.033439 25.703456 
L 258.391408 26.496291 
L 258.493684 26.372001 
L 258.877221 25.341418 
L 258.979498 25.476637 
L 259.294851 26.391217 
L 259.533496 26.763293 
L 259.542019 26.759577 
L 259.648557 26.577177 
L 260.010787 25.545979 
L 260.087495 25.623242 
L 260.309094 26.206776 
L 260.654277 26.92103 
L 260.756554 26.786223 
L 260.995199 25.889868 
L 261.144353 25.682048 
L 261.169922 25.69679 
L 261.314814 25.967172 
L 261.787843 27.027737 
L 261.821935 27.002813 
L 261.94552 26.701137 
L 262.269395 25.784479 
L 262.299226 25.800913 
L 262.444118 26.072378 
L 262.912886 27.114431 
L 262.942716 27.093726 
L 263.066301 26.804033 
L 263.3987 25.873645 
L 263.432792 25.895752 
L 263.586207 26.202785 
L 264.033667 27.192364 
L 264.054975 27.180847 
L 264.170036 26.950885 
L 264.523742 25.956687 
L 264.579142 26.003215 
L 264.762388 26.43254 
L 265.154448 27.267703 
L 265.260986 27.119513 
L 265.653047 26.044027 
L 265.751062 26.168105 
L 266.066414 27.04952 
L 266.283752 27.344712 
L 266.292275 27.340571 
L 266.403075 27.149166 
L 266.773828 26.13932 
L 266.842012 26.206706 
L 267.050827 26.736756 
L 267.39601 27.440109 
L 267.502548 27.305427 
L 267.89887 26.260846 
L 268.001147 26.391743 
L 268.342069 27.338339 
L 268.533838 27.55551 
L 268.546622 27.548033 
L 268.665945 27.324476 
L 269.01539 26.431294 
L 269.066528 26.470805 
L 269.241251 26.863821 
L 269.654619 27.737287 
L 269.76968 27.574147 
L 270.140433 26.730951 
L 270.204355 26.793127 
L 270.404647 27.295754 
L 270.72 28.054596 
L 270.72 28.054596 
" clip-path="url(#pca38755c47)" style="fill: none; stroke: #000000; stroke-width: 1.5; stroke-linecap: square"/>
   </g>
   <g id="line2d_26">
    <path d="M 57.648 146.287746 
L 58.363936 50.631362 
L 58.964811 25.567778 
L 58.981857 25.559678 
L 59.020211 25.656709 
L 59.152318 26.753418 
L 59.450625 31.399117 
L 59.680748 34.798518 
L 59.723363 34.516482 
L 59.829901 31.511053 
L 60.089854 25.681659 
L 60.115423 25.696526 
L 60.140992 25.774155 
L 60.268838 26.80064 
L 60.550099 31.146239 
L 60.814313 35.477732 
L 60.86119 35.138667 
L 60.97199 31.670832 
L 61.219158 25.877059 
L 61.240466 25.873717 
L 61.274558 25.965015 
L 61.402404 27.016272 
L 61.683664 31.493136 
L 61.943617 35.940882 
L 61.994756 35.535931 
L 62.109817 31.639962 
L 62.348462 26.013208 
L 62.36977 26.009125 
L 62.403862 26.101378 
L 62.531708 27.170548 
L 62.808707 31.657204 
L 63.072922 36.305381 
L 63.12406 35.861338 
L 63.243383 31.605253 
L 63.473505 26.126865 
L 63.494813 26.117168 
L 63.533166 26.222038 
L 63.661012 27.322528 
L 63.938011 31.909336 
L 64.197964 36.623723 
L 64.249103 36.193264 
L 64.368425 31.855288 
L 64.602809 26.220481 
L 64.619855 26.215423 
L 64.658209 26.318629 
L 64.786055 27.427608 
L 65.063054 32.08174 
L 65.327268 36.93079 
L 65.374145 36.49971 
L 65.489206 32.263637 
L 65.72359 26.325089 
L 65.744898 26.312828 
L 65.783252 26.417226 
L 65.911097 27.540174 
L 66.188097 32.269291 
L 66.452311 37.254472 
L 66.503449 36.732921 
L 66.631295 31.662029 
L 66.852894 26.422855 
L 66.869941 26.418168 
L 66.908294 26.525128 
L 67.03614 27.66569 
L 67.308878 32.386173 
L 67.577354 37.629888 
L 67.628492 37.102887 
L 67.756338 31.896521 
L 67.977937 26.54788 
L 67.994983 26.543371 
L 68.029075 26.633229 
L 68.15266 27.70765 
L 68.416874 32.25072 
L 68.702396 38.116492 
L 68.757796 37.510374 
L 68.894165 31.625611 
L 69.107241 26.711501 
L 69.128549 26.720469 
L 69.154118 26.79884 
L 69.273441 27.837126 
L 69.533394 32.355115 
L 69.835962 38.848773 
L 69.891362 38.113275 
L 70.049038 30.82643 
L 70.245069 26.971546 
L 70.291945 27.10968 
L 70.428314 28.481479 
L 70.69679 33.700629 
L 70.973789 40.245821 
L 71.029189 39.470942 
L 71.186866 31.598694 
L 71.378634 27.509572 
L 71.382896 27.509714 
L 71.429773 27.658366 
L 71.566141 29.123047 
L 71.826094 34.586462 
L 72.158493 44.759448 
L 72.230939 43.051512 
L 72.5676 29.548276 
L 72.618738 29.732072 
L 72.759368 31.473828 
L 73.07046 36.179033 
L 73.130121 35.796172 
L 73.275013 32.292623 
L 73.505135 28.954002 
L 73.534966 28.956064 
L 73.57332 29.034458 
L 73.709689 29.387118 
L 73.760827 29.246859 
L 73.863104 28.043167 
L 74.152887 24.348608 
L 74.178456 24.371547 
L 74.27221 24.797641 
L 74.498071 27.118354 
L 74.932746 33.16073 
L 75.009454 32.474792 
L 75.354637 25.259413 
L 75.465437 25.744561 
L 75.691298 28.427996 
L 76.08762 34.607924 
L 76.155804 33.88849 
L 76.505249 25.627544 
L 76.62031 26.196811 
L 76.850433 29.154878 
L 77.221185 35.360503 
L 77.28937 34.653674 
L 77.476877 27.957859 
L 77.638815 25.835384 
L 77.660122 25.858807 
L 77.745353 26.332653 
L 77.962691 29.088611 
L 78.354751 35.855758 
L 78.427197 34.95307 
L 78.768119 25.979185 
L 78.866134 26.408456 
L 79.070687 28.938378 
L 79.484055 36.234526 
L 79.560763 35.156008 
L 79.897423 26.092903 
L 79.974131 26.382104 
L 80.153115 28.400877 
L 80.498298 35.160829 
L 80.609098 36.56017 
L 80.655975 36.17367 
L 80.766774 32.315751 
L 81.009681 26.204196 
L 81.030989 26.19675 
L 81.069343 26.306183 
L 81.20145 27.47642 
L 81.482711 32.263004 
L 81.734141 36.867139 
L 81.785279 36.405918 
L 81.904602 31.94571 
L 82.134724 26.301616 
L 82.156032 26.293633 
L 82.194385 26.403877 
L 82.326493 27.587926 
L 82.603492 32.357584 
L 82.859183 37.184552 
L 82.910322 36.716956 
L 83.029644 32.146932 
L 83.259767 26.404005 
L 83.281074 26.396582 
L 83.319428 26.509302 
L 83.451535 27.711272 
L 83.728534 32.566119 
L 83.984226 37.545016 
L 84.035364 37.072046 
L 84.154687 32.380716 
L 84.384809 26.52342 
L 84.401855 26.513327 
L 84.440209 26.611823 
L 84.563793 27.695218 
L 84.832269 32.328309 
L 85.11353 38.001913 
L 85.164668 37.448331 
L 85.292514 32.081741 
L 85.509852 26.680468 
L 85.526898 26.668934 
L 85.569513 26.78714 
L 85.701621 28.029277 
L 85.974358 33.010979 
L 86.242834 38.665059 
L 86.293973 38.073037 
L 86.42608 32.221141 
L 86.639156 26.913862 
L 86.656202 26.905295 
L 86.694556 27.012333 
L 86.81814 28.156917 
L 87.078093 32.902519 
L 87.3764 39.85313 
L 87.440323 38.922693 
L 87.785506 27.3534 
L 87.892045 27.953088 
L 88.100859 31.187212 
L 88.394905 39.429941 
L 88.544058 43.112693 
L 88.590935 42.492663 
L 88.714519 35.809629 
L 88.936118 28.778316 
L 88.953164 28.760203 
L 88.99578 28.896474 
L 89.123625 30.348374 
L 89.392101 36.337237 
L 89.643531 41.789297 
L 89.686147 41.491519 
L 89.796946 38.306015 
L 90.150653 28.877892 
L 90.500098 24.106033 
L 90.50436 24.107371 
L 90.568282 24.264147 
L 90.73022 25.454698 
L 91.054096 29.754908 
L 91.297003 32.774899 
L 91.339618 32.573389 
L 91.441895 30.379496 
L 91.718894 25.167635 
L 91.770033 25.285216 
L 91.910663 26.417622 
L 92.213231 30.956988 
L 92.451877 34.441094 
L 92.494492 34.195921 
L 92.596768 31.516766 
L 92.865245 25.584503 
L 92.895075 25.612282 
L 92.916383 25.682586 
L 93.044229 26.704588 
L 93.329751 31.076808 
L 93.589704 35.261432 
L 93.636581 34.942767 
L 93.743119 31.746022 
L 93.99881 25.811831 
L 94.020118 25.815545 
L 94.049949 25.897184 
L 94.173533 26.882725 
L 94.450532 31.183514 
L 94.72327 35.785442 
L 94.770146 35.423608 
L 94.880946 31.828487 
L 95.128114 25.964794 
L 95.149422 25.964793 
L 95.183514 26.061733 
L 95.31136 27.136091 
L 95.592621 31.690773 
L 95.852574 36.178013 
L 95.89945 35.792493 
L 96.014512 31.856616 
L 96.253157 26.086421 
L 96.274465 26.079158 
L 96.312818 26.186905 
L 96.444926 27.339025 
L 96.726186 32.033351 
L 96.977616 36.509043 
L 97.024493 36.143338 
L 97.135293 32.335083 
L 97.3782 26.190437 
L 97.399507 26.179855 
L 97.437861 26.28449 
L 97.565707 27.392003 
L 97.842706 32.023534 
L 98.106921 36.816493 
L 98.153797 36.381027 
L 98.27312 31.974036 
L 98.503242 26.288051 
L 98.52455 26.276596 
L 98.562904 26.381563 
L 98.690749 27.501281 
L 98.967749 32.204722 
L 99.231963 37.130674 
L 99.27884 36.689654 
L 99.398163 32.175831 
L 99.628285 26.388918 
L 99.649593 26.377877 
L 99.687946 26.485089 
L 99.815792 27.621308 
L 100.08853 32.312377 
L 100.357006 37.481885 
L 100.408144 36.948978 
L 100.53599 31.785313 
L 100.757589 26.497704 
L 100.774635 26.493954 
L 100.808728 26.584454 
L 100.932312 27.654756 
L 101.200788 32.258502 
L 101.482049 37.917786 
L 101.537448 37.294238 
L 101.678079 31.262727 
L 101.886893 26.64161 
L 101.908201 26.652674 
L 101.93377 26.732568 
L 102.053093 27.768393 
L 102.313046 32.245173 
L 102.611353 38.534542 
L 102.666753 37.85538 
L 102.815906 31.132361 
L 103.016198 26.857772 
L 103.05029 26.909609 
L 103.058813 26.942551 
L 103.178136 27.988455 
L 103.433827 32.501004 
L 103.744918 39.594266 
L 103.808841 38.636012 
L 104.154025 27.252222 
L 104.256301 27.814393 
L 104.465116 30.974346 
L 104.767684 39.230122 
L 104.904053 42.220896 
L 104.946669 41.684129 
L 105.065991 35.591782 
L 105.291852 28.373688 
L 105.31316 28.352809 
L 105.355775 28.498791 
L 105.487882 30.000858 
L 105.747835 35.880876 
L 106.169726 49.811298 
L 106.254957 48.010982 
L 106.446725 35.37135 
L 106.706678 24.640821 
L 106.830263 23.982333 
L 106.864355 24.025518 
L 106.979416 24.58797 
L 107.230846 27.158512 
L 107.631429 32.304663 
L 107.699614 31.819036 
L 107.853029 27.792933 
L 108.05332 25.058963 
L 108.057582 25.059434 
L 108.112982 25.206023 
L 108.262135 26.457998 
L 108.577488 31.265353 
L 108.794826 34.250686 
L 108.83318 34.032042 
L 108.931195 31.606316 
L 109.212455 25.532796 
L 109.263594 25.659661 
L 109.404224 26.861162 
L 109.702531 31.600122 
L 109.932653 35.153547 
L 109.975268 34.886232 
L 110.077545 31.986866 
L 110.341759 25.780884 
L 110.363067 25.785829 
L 110.392898 25.868542 
L 110.516482 26.853544 
L 110.793481 31.137997 
L 111.066219 35.710585 
L 111.113096 35.351619 
L 111.223895 31.782781 
L 111.471064 25.943013 
L 111.492371 25.942623 
L 111.526463 26.038745 
L 111.654309 27.10871 
L 111.93557 31.645718 
L 112.195523 36.118757 
L 112.2424 35.742185 
L 112.353199 32.026829 
L 112.596106 26.069326 
L 112.617414 26.060738 
L 112.655768 26.166266 
L 112.787875 27.311663 
L 113.069136 31.987263 
L 113.320566 36.456466 
L 113.371704 36.030924 
L 113.491027 31.753696 
L 113.725411 26.168577 
L 113.742457 26.16308 
L 113.78081 26.264674 
L 113.908656 27.364271 
L 114.185655 31.976514 
L 114.44987 36.766381 
L 114.496747 36.346508 
L 114.611808 32.177591 
L 114.850453 26.266328 
L 114.867499 26.259922 
L 114.905853 26.361338 
L 115.033699 27.472155 
L 115.310698 32.15479 
L 115.574912 37.077542 
L 115.626051 36.57167 
L 115.753897 31.582559 
L 115.975496 26.365957 
L 115.992542 26.359809 
L 116.030896 26.463215 
L 116.158741 27.589861 
L 116.431479 32.258489 
L 116.699955 37.41988 
L 116.751093 36.905776 
L 116.878939 31.788093 
L 117.100538 26.478147 
L 117.117585 26.472506 
L 117.155938 26.578535 
L 117.283784 27.723814 
L 117.556522 32.48292 
L 117.824998 37.836816 
L 117.876136 37.324171 
L 117.99972 32.275987 
L 118.225581 26.61946 
L 118.242627 26.613284 
L 118.280981 26.72043 
L 118.408827 27.884845 
L 118.677303 32.656755 
L 118.954302 38.412817 
L 119.009702 37.741914 
L 119.154594 31.273858 
L 119.359147 26.814255 
L 119.388978 26.851259 
L 119.401762 26.897312 
L 119.516823 27.883922 
L 119.772515 32.317675 
L 120.087868 39.364322 
L 120.147529 38.505519 
L 120.496974 27.164271 
L 120.612035 27.861476 
L 120.833635 31.383555 
L 121.238479 41.53174 
L 121.32371 39.505127 
L 121.643324 28.047212 
L 121.673155 28.106145 
L 121.775432 28.991964 
L 122.005554 33.30584 
L 122.278292 42.836671 
L 122.555291 55.036094 
L 122.614952 53.773428 
L 122.772629 41.845456 
L 123.058151 26.912294 
L 123.262704 24.900433 
L 123.301058 24.914517 
L 123.330888 24.984658 
L 123.462996 25.776837 
L 123.744256 29.089837 
L 123.965856 31.336971 
L 124.004209 31.198992 
L 124.097963 29.671581 
L 124.387747 24.843164 
L 124.404793 24.856297 
L 124.485762 25.206642 
L 124.690315 27.337233 
L 125.137775 33.897874 
L 125.218744 32.995353 
L 125.555405 25.441809 
L 125.640635 25.749928 
L 125.832404 27.814574 
L 126.279864 34.963791 
L 126.365094 33.865774 
L 126.697493 25.724117 
L 126.765678 25.940686 
L 126.931877 27.614627 
L 127.260015 33.451951 
L 127.41343 35.58356 
L 127.456045 35.312656 
L 127.558321 32.299164 
L 127.822536 25.903269 
L 127.843844 25.908883 
L 127.873674 25.993805 
L 128.00152 27.045751 
L 128.282781 31.5402 
L 128.542734 36.020317 
L 128.593872 35.613864 
L 128.708933 31.691308 
L 128.947579 26.036891 
L 128.968886 26.032952 
L 129.002978 26.125725 
L 129.130824 27.198824 
L 129.407823 31.703392 
L 129.672038 36.372376 
L 129.723176 35.920595 
L 129.84676 31.441012 
L 130.072621 26.146765 
L 130.093929 26.138064 
L 130.132283 26.244717 
L 130.26439 27.402057 
L 130.545651 32.137757 
L 130.797081 36.686161 
L 130.848219 36.244277 
L 130.967542 31.869638 
L 131.197664 26.245884 
L 131.218972 26.235431 
L 131.257325 26.341169 
L 131.385171 27.457464 
L 131.66217 32.132269 
L 131.926385 36.993623 
L 131.973262 36.549706 
L 132.092584 32.073956 
L 132.322707 26.344141 
L 132.344014 26.333699 
L 132.382368 26.441057 
L 132.510214 27.572263 
L 132.787213 32.324155 
L 133.051427 37.324558 
L 133.098304 36.873415 
L 133.217627 32.283395 
L 133.447749 26.451743 
L 133.469057 26.441946 
L 133.507411 26.551981 
L 133.635256 27.701386 
L 133.907994 32.447116 
L 134.17647 37.7166 
L 134.227608 37.176446 
L 134.355454 31.923485 
L 134.577053 26.576548 
L 134.5941 26.573303 
L 134.628192 26.665612 
L 134.751776 27.748678 
L 135.015991 32.319511 
L 135.301513 38.238143 
L 135.356913 37.625294 
L 135.493281 31.688983 
L 135.706358 26.754048 
L 135.727665 26.763681 
L 135.753234 26.843082 
L 135.872557 27.888702 
L 136.13251 32.440154 
L 136.435078 39.053964 
L 136.49474 38.219198 
L 136.695032 29.133525 
L 136.844185 27.047141 
L 136.869754 27.0912 
L 136.967769 27.819435 
L 137.197891 31.542241 
L 137.577167 40.719431 
L 137.658136 39.033011 
L 137.986274 27.703072 
L 138.028889 27.829244 
L 138.156735 29.157991 
L 138.412426 34.476127 
L 138.795963 47.466393 
L 138.881194 44.827924 
L 139.222116 30.818727 
L 139.226377 30.819368 
L 139.277516 30.985911 
L 139.494854 32.375736 
L 139.563038 32.04604 
L 139.712191 29.459676 
L 139.929529 27.157137 
L 139.938052 27.160862 
L 140.001975 27.358338 
L 140.180959 28.892121 
L 140.35142 30.058462 
L 140.389774 29.941165 
L 140.483527 28.698872 
L 140.773311 24.557514 
L 140.79888 24.582735 
L 140.892634 25.035977 
L 141.122756 27.522824 
L 141.540386 33.465939 
L 141.612832 32.794864 
L 141.962277 25.333856 
L 142.077338 25.879833 
L 142.30746 28.710451 
L 142.686736 34.749369 
L 142.75492 34.086526 
L 142.933904 27.991588 
L 143.104365 25.665564 
L 143.121412 25.678215 
L 143.198119 26.042477 
L 143.398411 28.362722 
L 143.824563 35.446908 
L 143.905532 34.368957 
L 144.242193 25.860242 
L 144.314639 26.122192 
L 144.489361 27.99577 
L 144.834545 34.425297 
L 144.953867 35.918544 
L 145.000744 35.56807 
L 145.111544 31.954584 
L 145.358712 26.005187 
L 145.38002 26.00334 
L 145.414112 26.09842 
L 145.541958 27.173162 
L 145.823219 31.750419 
L 146.083172 36.286527 
L 146.130048 35.902756 
L 146.24511 31.937276 
L 146.483755 26.119713 
L 146.505063 26.112075 
L 146.543416 26.219829 
L 146.675524 27.376094 
L 146.956784 32.094907 
L 147.208214 36.606818 
L 147.255091 36.237149 
L 147.365891 32.394277 
L 147.608798 26.220595 
L 147.630105 26.210564 
L 147.668459 26.3165 
L 147.796305 27.430209 
L 148.073304 32.087209 
L 148.333257 36.913308 
L 148.384395 36.469228 
L 148.503718 32.019001 
L 148.73384 26.318163 
L 148.755148 26.307797 
L 148.793502 26.414841 
L 148.921347 27.542335 
L 149.198347 32.274012 
L 149.462561 37.234959 
L 149.509438 36.78435 
L 149.628761 32.222958 
L 149.858883 26.422224 
L 149.880191 26.412456 
L 149.918544 26.522058 
L 150.04639 27.667078 
L 150.319128 32.389626 
L 150.587604 37.6064 
L 150.638742 37.064327 
L 150.766588 31.846317 
L 150.988187 26.539072 
L 151.005233 26.536134 
L 151.039325 26.628494 
L 151.16291 27.707523 
L 151.431386 32.346731 
L 151.712646 38.08484 
L 151.768046 37.459734 
L 151.908677 31.363213 
L 152.117491 26.699621 
L 152.138799 26.710724 
L 152.164368 26.791149 
L 152.283691 27.834362 
L 152.543644 32.352779 
L 152.841951 38.797469 
L 152.901612 38.033875 
L 153.067811 30.378774 
L 153.251057 26.952235 
L 153.25958 26.955561 
L 153.31498 27.172424 
L 153.472656 28.968398 
L 153.758179 35.038865 
L 153.979778 40.131253 
L 154.030916 39.534861 
L 154.158762 33.427923 
L 154.3761 27.475171 
L 154.393146 27.464852 
L 154.4315 27.576548 
L 154.555084 28.794202 
L 154.810775 33.855245 
L 155.16022 44.236487 
L 155.236928 42.393693 
L 155.569327 29.29448 
L 155.611942 29.428891 
L 155.735526 30.829003 
L 156.123325 37.451265 
L 156.208556 36.569936 
L 156.656016 29.407741 
L 156.728462 29.277119 
L 156.826477 28.375835 
L 157.150353 24.285319 
L 157.205752 24.400669 
L 157.350644 25.414068 
L 157.657474 29.416883 
L 157.934473 33.066535 
L 157.977089 32.845292 
L 158.079365 30.542739 
L 158.356364 25.236942 
L 158.407503 25.362702 
L 158.548133 26.518301 
L 158.850701 31.121413 
L 159.085085 34.566633 
L 159.1277 34.317381 
L 159.229977 31.599211 
L 159.498453 25.617772 
L 159.532545 25.657706 
L 159.54533 25.700519 
L 159.668914 26.65416 
L 159.945913 30.819471 
L 160.222912 35.33554 
L 160.274051 34.93096 
L 160.393373 31.044537 
L 160.627757 25.836408 
L 160.649065 25.833035 
L 160.683157 25.923707 
L 160.811003 26.968828 
L 161.092263 31.416165 
L 161.356478 35.837222 
L 161.403355 35.44757 
L 161.518416 31.606946 
L 161.757061 25.983797 
L 161.778369 25.977592 
L 161.816723 26.085158 
L 161.94883 27.224183 
L 162.234352 31.932033 
L 162.481521 36.21999 
L 162.528397 35.871516 
L 162.639197 32.175378 
L 162.886366 26.096242 
L 162.907673 26.093978 
L 162.941765 26.189782 
L 163.069611 27.276694 
L 163.34661 31.83191 
L 163.610825 36.546809 
L 163.657702 36.144727 
L 163.772763 32.07065 
L 164.011408 26.198589 
L 164.032716 26.193498 
L 164.066808 26.286999 
L 164.190392 27.330415 
L 164.46313 31.821228 
L 164.735868 36.854216 
L 164.787006 36.375963 
L 164.91059 31.698172 
L 165.136451 26.295972 
L 165.157759 26.290307 
L 165.191851 26.384386 
L 165.315435 27.439782 
L 165.588173 32.000072 
L 165.86091 37.17073 
L 165.912048 36.685748 
L 166.035633 31.893711 
L 166.261494 26.397945 
L 166.27854 26.389462 
L 166.316893 26.489044 
L 166.440478 27.56041 
L 166.708954 32.107176 
L 166.985953 37.52871 
L 167.041353 36.947589 
L 167.177721 31.306982 
L 167.390798 26.510786 
L 167.412105 26.517355 
L 167.441936 26.610153 
L 167.569782 27.751834 
L 167.842519 32.528096 
L 168.115257 37.978965 
L 168.166395 37.405134 
L 168.298503 31.812309 
L 168.51584 26.665089 
L 168.532886 26.664964 
L 168.566979 26.763539 
L 168.690563 27.870418 
L 168.954777 32.523972 
L 169.2403 38.629334 
L 169.299961 37.906672 
L 169.457637 30.720738 
L 169.653668 26.891233 
L 169.700544 27.026275 
L 169.836913 28.38169 
L 170.109651 33.632572 
L 170.378127 39.782626 
L 170.433527 39.053582 
L 170.58268 31.807661 
L 170.782972 27.326132 
L 170.825587 27.421322 
L 170.94491 28.536269 
L 171.19634 33.295704 
L 171.541523 42.85449 
L 171.618231 41.156298 
L 171.95063 28.640352 
L 171.997507 28.803091 
L 172.129614 30.357523 
L 172.39809 36.51095 
L 172.679351 43.399819 
L 172.726227 43.034618 
L 172.84555 39.174184 
L 173.254656 26.48315 
L 173.476256 24.059575 
L 173.518871 24.096042 
L 173.535917 24.141997 
L 173.668024 24.9396 
L 173.953547 28.285199 
L 174.285946 32.676686 
L 174.341345 32.355412 
L 174.460668 29.43207 
L 174.703575 25.146301 
L 174.741929 25.193926 
L 174.754713 25.237296 
L 174.882559 26.191192 
L 175.168081 30.263801 
L 175.44508 34.400168 
L 175.491957 34.081601 
L 175.602757 30.954725 
L 175.854187 25.575876 
L 175.875494 25.58051 
L 175.905325 25.660398 
L 176.028909 26.615954 
L 176.31017 30.841983 
L 176.582908 35.238032 
L 176.629784 34.902363 
L 176.740584 31.508689 
L 176.987753 25.808939 
L 177.00906 25.805294 
L 177.043152 25.89521 
L 177.170998 26.935416 
L 177.452259 31.361936 
L 177.716473 35.768657 
L 177.76335 35.390976 
L 177.878411 31.591203 
L 178.117057 25.964645 
L 178.138364 25.956652 
L 178.176718 26.061282 
L 178.308825 27.191843 
L 178.594348 31.87749 
L 178.845778 36.164433 
L 178.892654 35.763637 
L 179.007716 31.80624 
L 179.246361 26.080947 
L 179.267669 26.076043 
L 179.301761 26.168162 
L 179.425345 27.195595 
L 179.698083 31.602288 
L 179.97082 36.497552 
L 180.021959 36.04161 
L 180.145543 31.514224 
L 180.371404 26.185231 
L 180.392711 26.176945 
L 180.431065 26.284841 
L 180.563172 27.449534 
L 180.844433 32.217462 
L 181.095863 36.805683 
L 181.147001 36.35378 
L 181.266324 31.926516 
L 181.496446 26.282854 
L 181.517754 26.273661 
L 181.556108 26.381839 
L 181.688215 27.55926 
L 181.965214 32.308894 
L 182.220906 37.118604 
L 182.272044 36.661531 
L 182.391367 32.127375 
L 182.621489 26.38342 
L 182.642797 26.374642 
L 182.68115 26.485058 
L 182.813258 27.679671 
L 183.090257 32.51194 
L 183.35021 37.46721 
L 183.397087 37.003919 
L 183.516409 32.350791 
L 183.746532 26.498187 
L 183.767839 26.489969 
L 183.806193 26.603043 
L 183.9383 27.817547 
L 184.215299 32.746843 
L 184.475252 37.899094 
L 184.526391 37.351403 
L 184.654236 32.026985 
L 184.871574 26.645285 
L 184.892882 26.636028 
L 184.931236 26.74993 
L 185.063343 27.984656 
L 185.33608 32.934092 
L 185.604557 38.505792 
L 185.655695 37.905942 
L 185.792064 31.887021 
L 186.00514 26.850161 
L 186.022186 26.852039 
L 186.052017 26.936658 
L 186.171339 27.989316 
L 186.431292 32.60356 
L 186.738122 39.53978 
L 186.797784 38.670658 
L 187.147229 27.231516 
L 187.26229 27.936155 
L 187.483889 31.492972 
L 187.816288 40.861642 
L 187.892996 42.050647 
L 187.944134 41.318641 
L 188.089026 33.52216 
L 188.293579 28.277228 
L 188.314887 28.293485 
L 188.336194 28.369709 
L 188.451255 29.51708 
L 188.694162 34.518877 
L 188.992469 45.718617 
L 189.197022 52.412508 
L 189.235376 51.995698 
L 189.32913 47.43771 
L 189.755282 24.208308 
L 189.823467 24.026979 
L 189.878866 24.124953 
L 190.019497 24.974081 
L 190.30928 28.323138 
L 190.620372 32.137302 
L 190.667249 31.900988 
L 190.778048 29.535998 
L 191.042263 25.020989 
L 191.093401 25.137432 
L 191.234031 26.245218 
L 191.5366 30.679242 
L 191.783768 34.1863 
L 191.826383 33.917559 
L 191.932922 31.097637 
L 192.192875 25.519345 
L 192.218444 25.532041 
L 192.244013 25.606164 
L 192.371859 26.603568 
L 192.657381 30.91171 
L 192.921595 35.117883 
L 192.968472 34.799523 
L 193.07501 31.64191 
L 193.330702 25.771424 
L 193.352009 25.775173 
L 193.38184 25.856375 
L 193.505424 26.836448 
L 193.782423 31.109756 
L 194.055161 35.686355 
L 194.106299 35.270228 
L 194.225622 31.253903 
L 194.460006 25.936895 
L 194.481314 25.934694 
L 194.515406 26.028345 
L 194.643252 27.091923 
L 194.924512 31.617117 
L 195.184465 36.099798 
L 195.231342 35.737401 
L 195.342142 32.05161 
L 195.58931 26.058553 
L 195.610618 26.058454 
L 195.64471 26.156579 
L 195.772556 27.244474 
L 196.049555 31.780498 
L 196.313769 36.439992 
L 196.360646 36.031038 
L 196.475707 31.977578 
L 196.714353 26.164793 
L 196.73566 26.160827 
L 196.769753 26.255342 
L 196.897598 27.347212 
L 197.174598 31.946839 
L 197.438812 36.750832 
L 197.48995 36.269744 
L 197.613535 31.62235 
L 197.839396 26.262777 
L 197.860703 26.257617 
L 197.894795 26.351906 
L 198.01838 27.40413 
L 198.291117 31.941857 
L 198.563855 37.061083 
L 198.614993 36.575059 
L 198.738577 31.817843 
L 198.964438 26.362073 
L 198.981484 26.353812 
L 199.019838 26.453263 
L 199.147684 27.571487 
L 199.420421 32.226256 
L 199.688897 37.400773 
L 199.740036 36.907033 
L 199.86362 32.027091 
L 200.089481 26.473269 
L 200.106527 26.465502 
L 200.144881 26.567539 
L 200.272726 27.704199 
L 200.545464 32.448312 
L 200.81394 37.81197 
L 200.86934 37.228217 
L 201.005709 31.479561 
L 201.218785 26.606918 
L 201.235831 26.607866 
L 201.265662 26.688724 
L 201.384984 27.706958 
L 201.644938 32.140901 
L 201.943244 38.376733 
L 202.002906 37.619032 
L 202.169105 30.153549 
L 202.352351 26.80007 
L 202.360874 26.803408 
L 202.416274 27.016777 
L 202.57395 28.779186 
L 202.863734 34.788945 
L 203.07681 39.298329 
L 203.123687 38.779659 
L 203.24301 33.49297 
L 203.46887 27.156003 
L 203.490178 27.140997 
L 203.528532 27.254451 
L 203.656377 28.495257 
L 203.91633 33.482892 
L 204.22316 41.347285 
L 204.291345 40.165007 
L 204.632267 27.96805 
L 204.713236 28.368886 
L 204.89222 30.972889 
L 205.164957 38.417708 
L 205.514402 53.115424 
L 205.595371 50.744065 
L 206.106754 27.365816 
L 206.332615 25.403251 
L 206.392277 25.507671 
L 206.528645 26.402339 
L 206.963321 31.024204 
L 207.052813 30.26762 
L 207.385212 24.774828 
L 207.466181 25.034482 
L 207.649427 26.76515 
L 208.032964 32.853401 
L 208.13524 33.791301 
L 208.182117 33.52781 
L 208.288655 30.821244 
L 208.55287 25.415507 
L 208.599747 25.502861 
L 208.723331 26.439098 
L 209.004592 30.563907 
L 209.281591 34.909238 
L 209.328468 34.583099 
L 209.439267 31.299508 
L 209.690697 25.712927 
L 209.712005 25.718112 
L 209.741835 25.8003 
L 209.86542 26.776636 
L 210.142419 31.015925 
L 210.415156 35.548188 
L 210.466295 35.146645 
L 210.585617 31.196737 
L 210.820001 25.897859 
L 210.841309 25.893726 
L 210.875401 25.984278 
L 211.003247 27.036223 
L 211.284508 31.52504 
L 211.544461 35.993529 
L 211.595599 35.586964 
L 211.71066 31.672436 
L 211.949306 26.028831 
L 211.970613 26.024931 
L 212.004705 26.117643 
L 212.132551 27.189671 
L 212.40955 31.688488 
L 212.673765 36.349614 
L 212.724903 35.899767 
L 212.844226 31.621078 
L 213.074348 26.139922 
L 213.095656 26.130981 
L 213.13401 26.237171 
L 213.266117 27.392699 
L 213.547378 32.122008 
L 213.798807 36.664841 
L 213.849946 36.226094 
L 213.969269 31.862837 
L 214.199391 26.239473 
L 214.220698 26.228607 
L 214.259052 26.333636 
L 214.386898 27.447738 
L 214.663897 32.115848 
L 214.928112 36.971993 
L 214.974988 36.531702 
L 215.094311 32.068461 
L 215.324434 26.337486 
L 215.345741 26.326538 
L 215.384095 26.43305 
L 215.511941 27.561753 
L 215.78894 32.306226 
L 216.053154 37.300284 
L 216.100031 36.852905 
L 216.219354 32.276333 
L 216.449476 26.444049 
L 216.470784 26.433735 
L 216.509138 26.542895 
L 216.636983 27.68961 
L 216.909721 32.427055 
L 217.178197 37.686355 
L 217.229335 37.14968 
L 217.357181 31.911497 
L 217.57878 26.566456 
L 217.595826 26.562885 
L 217.629919 26.654529 
L 217.753503 27.734994 
L 218.017717 32.296649 
L 218.30324 38.19534 
L 218.358639 37.583426 
L 218.495008 31.663711 
L 218.708085 26.73897 
L 218.729392 26.748529 
L 218.754961 26.827728 
L 218.874284 27.871234 
L 219.134237 32.411482 
L 219.436805 38.980651 
L 219.496467 38.137765 
L 219.845912 27.020012 
L 219.960973 27.703384 
L 220.182572 31.153239 
L 220.578894 40.544524 
L 220.659863 38.797022 
L 220.983739 27.630936 
L 221.026354 27.743627 
L 221.149939 28.98 
L 221.401369 34.042554 
L 221.780644 46.353432 
L 221.865875 43.888545 
L 222.198274 30.320222 
L 222.211058 30.333117 
L 222.279243 30.727381 
L 222.564765 33.559674 
L 222.641472 33.034432 
L 222.995179 27.736949 
L 223.101717 28.145761 
L 223.348886 29.78611 
L 223.408547 29.535504 
L 223.532131 27.495573 
L 223.775038 24.489082 
L 223.7793 24.489852 
L 223.838961 24.639603 
L 223.992376 25.832393 
L 224.31199 30.319788 
L 224.546374 33.365935 
L 224.584728 33.181942 
L 224.678481 31.164067 
L 224.968265 25.309377 
L 224.972527 25.311192 
L 225.032188 25.501535 
L 225.194126 27.009618 
L 225.526525 32.493662 
L 225.692724 34.702074 
L 225.73534 34.46561 
L 225.833355 31.900069 
L 226.110354 25.652971 
L 226.157231 25.750399 
L 226.285076 26.777581 
L 226.570599 31.192912 
L 226.830552 35.417881 
L 226.877428 35.079876 
L 226.988228 31.630947 
L 227.235397 25.859952 
L 227.256704 25.856495 
L 227.290796 25.947396 
L 227.418642 26.995763 
L 227.699903 31.459764 
L 227.959856 35.896747 
L 228.010994 35.498941 
L 228.126055 31.627362 
L 228.364701 26.00071 
L 228.386008 25.995645 
L 228.420101 26.086429 
L 228.543685 27.102083 
L 228.820684 31.537641 
L 229.08916 36.268831 
L 229.140298 35.83578 
L 229.259621 31.607529 
L 229.494005 26.110083 
L 229.515313 26.109658 
L 229.549405 26.208067 
L 229.677251 27.302567 
L 229.95425 31.875576 
L 230.218464 36.590442 
L 230.265341 36.172749 
L 230.380402 32.059938 
L 230.619048 26.211003 
L 230.636094 26.204491 
L 230.674447 26.304865 
L 230.802293 27.407031 
L 231.079292 32.046489 
L 231.343507 36.897653 
L 231.390384 36.480402 
L 231.505445 32.276599 
L 231.74409 26.308409 
L 231.761136 26.301587 
L 231.79949 26.402879 
L 231.927336 27.518436 
L 232.200073 32.139398 
L 232.46855 37.217988 
L 232.519688 36.712483 
L 232.647534 31.675532 
L 232.869133 26.411896 
L 232.886179 26.405556 
L 232.924533 26.509302 
L 233.052378 27.642094 
L 233.325116 32.345439 
L 233.593592 37.585439 
L 233.64473 37.074042 
L 233.768315 32.109536 
L 233.994176 26.53389 
L 234.011222 26.527807 
L 234.049575 26.633854 
L 234.177421 27.785823 
L 234.450159 32.587028 
L 234.718635 38.055272 
L 234.774035 37.463151 
L 234.910403 31.615791 
L 235.12348 26.69076 
L 235.144787 26.6982 
L 235.170357 26.774854 
L 235.289679 27.805947 
L 235.549632 32.302662 
L 235.847939 38.749979 
L 235.9076 38.0189 
L 236.065277 30.776508 
L 236.261307 26.935207 
L 236.308184 27.072194 
L 236.444553 28.436991 
L 236.71729 33.730357 
L 236.985766 40.030728 
L 237.041166 39.338019 
L 237.186058 32.247445 
L 237.390611 27.425142 
L 237.41618 27.452074 
L 237.433226 27.513641 
L 237.548288 28.572586 
L 237.795456 33.2246 
L 238.161947 43.808278 
L 238.242916 41.788018 
L 238.571054 29.088802 
L 238.600884 29.161414 
L 238.707422 30.191477 
L 238.967376 35.371297 
L 239.171929 38.764025 
L 239.210282 38.563192 
L 239.312559 36.216173 
L 239.619389 29.84877 
L 239.815419 28.304789 
L 240.139295 24.22421 
L 240.186172 24.300697 
L 240.314017 25.084649 
L 240.595278 28.45802 
L 240.927677 32.973285 
L 240.983077 32.636133 
L 241.1024 29.597797 
L 241.345307 25.215827 
L 241.387922 25.279586 
L 241.396445 25.31066 
L 241.528552 26.32418 
L 241.818336 30.557539 
L 242.08255 34.525838 
L 242.129427 34.213828 
L 242.240227 31.06359 
L 242.491657 25.60979 
L 242.512964 25.61312 
L 242.542795 25.691893 
L 242.666379 26.648229 
L 242.943379 30.811378 
L 243.220378 35.31127 
L 243.267254 34.968919 
L 243.378054 31.542677 
L 243.625223 25.829101 
L 243.64653 25.826456 
L 243.680622 25.917983 
L 243.808468 26.964228 
L 244.089729 31.409214 
L 244.353943 35.819821 
L 244.40082 35.427879 
L 244.515881 31.588613 
L 244.754527 25.978451 
L 244.775834 25.972628 
L 244.814188 26.080664 
L 244.946295 27.219999 
L 245.231818 31.925255 
L 245.478986 36.206047 
L 245.525863 35.856427 
L 245.636662 32.16229 
L 245.883831 26.091886 
L 245.905139 26.0898 
L 245.939231 26.185778 
L 246.067077 27.272587 
L 246.344076 31.825287 
L 246.60829 36.534245 
L 246.655167 36.131822 
L 246.770228 32.060939 
L 247.008874 26.194637 
L 247.030181 26.189607 
L 247.064273 26.283135 
L 247.187858 27.326178 
L 247.460595 31.814359 
L 247.733333 36.841881 
L 247.784471 36.363781 
L 247.908055 31.690303 
L 248.133916 26.292038 
L 248.155224 26.286366 
L 248.189316 26.380383 
L 248.3129 27.435207 
L 248.585638 31.99254 
L 248.858376 37.157464 
L 248.909514 36.672814 
L 249.033098 31.885622 
L 249.258959 26.393627 
L 249.276005 26.385121 
L 249.314359 26.484596 
L 249.437943 27.555265 
L 249.706419 32.098697 
L 249.983418 37.512995 
L 250.038818 36.932048 
L 250.175187 31.29749 
L 250.388263 26.505512 
L 250.409571 26.512074 
L 250.439401 26.604807 
L 250.567247 27.745713 
L 250.839985 32.517791 
L 251.112722 37.957977 
L 251.163861 37.383338 
L 251.295968 31.796854 
L 251.513306 26.657788 
L 251.530352 26.657766 
L 251.564444 26.756421 
L 251.688028 27.862669 
L 251.952243 32.51122 
L 252.237765 38.596974 
L 252.297426 37.869926 
L 252.455103 30.694591 
L 252.651133 26.879487 
L 252.69801 27.015269 
L 252.834379 28.370252 
L 253.107116 33.612644 
L 253.375592 39.717546 
L 253.430992 38.972975 
L 253.584407 31.531265 
L 253.780437 27.300497 
L 253.823052 27.398551 
L 253.942375 28.515479 
L 254.193805 33.264192 
L 254.538989 42.627171 
L 254.611435 41.002831 
L 254.943834 28.535975 
L 254.994972 28.718064 
L 255.135602 30.432693 
L 255.404078 36.773104 
L 255.71517 45.185199 
L 255.766308 44.684105 
L 255.894154 39.912005 
L 256.311783 25.139557 
L 256.46946 24.015802 
L 256.490767 24.029964 
L 256.575998 24.340505 
L 256.780551 26.133413 
L 257.274888 32.572388 
L 257.368641 31.60155 
L 257.696779 25.120489 
L 257.764963 25.312557 
L 257.926901 26.783476 
L 258.2593 32.108833 
L 258.434023 34.357572 
L 258.476638 34.103244 
L 258.578915 31.425666 
L 258.847391 25.561975 
L 258.885744 25.616084 
L 258.894267 25.646253 
L 259.017852 26.595534 
L 259.294851 30.728264 
L 259.57185 35.213438 
L 259.622988 34.828819 
L 259.738049 31.186412 
L 259.980956 25.798145 
L 260.002264 25.802139 
L 260.032095 25.883943 
L 260.155679 26.868443 
L 260.432678 31.160955 
L 260.705416 35.751915 
L 260.752292 35.393107 
L 260.863092 31.812758 
L 261.110261 25.95516 
L 261.131568 25.954713 
L 261.16566 26.050933 
L 261.293506 27.122521 
L 261.574767 31.668272 
L 261.83472 36.15135 
L 261.881597 35.771639 
L 261.996658 31.85358 
L 262.235303 26.078888 
L 262.256611 26.070755 
L 262.294965 26.177106 
L 262.427072 27.325396 
L 262.708333 32.010284 
L 262.959763 36.485223 
L 263.010901 36.053956 
L 263.130224 31.759072 
L 263.364607 26.177055 
L 263.381654 26.172174 
L 263.420007 26.27504 
L 263.547853 27.378194 
L 263.824852 32.000002 
L 264.089067 36.793814 
L 264.135944 36.367245 
L 264.251005 32.179273 
L 264.485389 26.281689 
L 264.506696 26.268932 
L 264.54505 26.371898 
L 264.672896 27.486808 
L 264.949895 32.179799 
L 265.214109 37.106511 
L 265.260986 36.675036 
L 265.376047 32.386068 
L 265.610431 26.38196 
L 265.631739 26.369543 
L 265.670093 26.474639 
L 265.797938 27.605741 
L 266.070676 32.285589 
L 266.339152 37.453528 
L 266.39029 36.931213 
L 266.518136 31.791145 
L 266.739735 26.488849 
L 266.756782 26.48403 
L 266.795135 26.591736 
L 266.922981 27.741666 
L 267.195719 32.513577 
L 267.464195 37.880483 
L 267.515333 37.361148 
L 267.638917 32.289836 
L 267.864778 26.634019 
L 267.881824 26.628494 
L 267.920178 26.737051 
L 268.048024 27.906057 
L 268.3165 32.692986 
L 268.593499 38.478044 
L 268.648899 37.804748 
L 268.793791 31.309333 
L 268.998344 26.837567 
L 269.032436 26.888459 
L 269.040959 26.921146 
L 269.15602 27.911033 
L 269.411712 32.361702 
L 269.727065 39.486217 
L 269.790987 38.516655 
L 270.136171 27.210651 
L 270.238448 27.774756 
L 270.447262 30.922119 
L 270.72 38.128407 
L 270.72 38.128407 
" clip-path="url(#pca38755c47)" style="fill: none; stroke: #808080; stroke-width: 1.5; stroke-linecap: square"/>
   </g>
   <g id="line2d_27">
    <path d="M 57.648 155.135455 
L 58.317059 44.489451 
L 58.568489 30.743012 
L 58.939242 24.249898 
L 58.969073 24.231277 
L 59.01595 24.327278 
L 59.169365 25.256661 
L 59.65944 29.057205 
L 59.727624 28.780951 
L 59.859732 26.725607 
L 60.089854 24.197302 
L 60.094115 24.198151 
L 60.158038 24.347779 
L 60.341284 25.576148 
L 60.788744 28.999901 
L 60.839882 28.857807 
L 60.946421 27.555931 
L 61.219158 24.219529 
L 61.240466 24.234633 
L 61.329958 24.572638 
L 61.602695 26.764313 
L 61.918048 28.963052 
L 61.943617 28.923018 
L 62.020325 28.347645 
L 62.348462 24.235214 
L 62.437954 24.486492 
L 62.668077 26.217692 
L 63.043091 28.935849 
L 63.072922 28.883254 
L 63.158152 28.168043 
L 63.473505 24.247731 
L 63.541689 24.400706 
L 63.724935 25.635546 
L 64.163872 28.913389 
L 64.210749 28.804497 
L 64.308764 27.764647 
L 64.598548 24.258986 
L 64.63264 24.303044 
L 64.751963 24.896437 
L 65.288915 28.892104 
L 65.378407 28.45621 
L 65.565914 25.401075 
L 65.719329 24.269861 
L 65.749159 24.298638 
L 65.855698 24.775534 
L 66.222189 27.858948 
L 66.409696 28.870798 
L 66.443788 28.815795 
L 66.529019 28.120306 
L 66.844371 24.281524 
L 66.916817 24.451036 
L 67.108586 25.77221 
L 67.534739 28.846638 
L 67.573092 28.767507 
L 67.666846 27.899636 
L 67.969414 24.29553 
L 68.016291 24.376815 
L 68.161183 25.215615 
L 68.65552 28.817555 
L 68.719443 28.615672 
L 68.838765 27.101388 
L 69.090195 24.313534 
L 69.107241 24.323462 
L 69.18821 24.598866 
L 69.43964 26.52366 
L 69.780562 28.776137 
L 69.80187 28.750775 
L 69.878577 28.287065 
L 70.219499 24.342101 
L 70.330299 24.716282 
L 70.632867 27.116634 
L 70.905605 28.707403 
L 70.926913 28.68496 
L 70.999359 28.299357 
L 71.178343 25.678054 
L 71.348804 24.397378 
L 71.370111 24.414539 
L 71.463865 24.776087 
L 71.796264 27.333155 
L 72.043432 28.547869 
L 72.060478 28.536475 
L 72.132924 28.261436 
L 72.286339 26.512355 
L 72.520723 24.586981 
L 72.529246 24.590686 
L 72.605954 24.786719 
L 72.925568 26.585773 
L 73.215352 27.445147 
L 73.398597 28.079522 
L 73.709689 29.792034 
L 73.777873 29.510178 
L 73.905719 27.404446 
L 74.169933 24.027497 
L 74.233856 24.123471 
L 74.391533 25.014886 
L 74.924223 29.218964 
L 75.005192 28.796496 
L 75.175653 25.73907 
L 75.358899 24.147172 
L 75.371683 24.15551 
L 75.452652 24.421681 
L 75.691298 26.234772 
L 76.066312 29.074327 
L 76.104666 28.989956 
L 76.194158 28.078933 
L 76.496726 24.191218 
L 76.543603 24.264038 
L 76.679972 25.022692 
L 77.199878 29.009054 
L 77.276585 28.655915 
L 77.43 26.12761 
L 77.630292 24.215737 
L 77.638815 24.219464 
L 77.711261 24.427339 
L 77.920076 25.936471 
L 78.32492 28.969987 
L 78.363274 28.892923 
L 78.452766 28.036804 
L 78.755334 24.232274 
L 78.806473 24.316149 
L 78.951365 25.158925 
L 79.449963 28.941391 
L 79.518147 28.695369 
L 79.645993 26.848337 
L 79.884639 24.245499 
L 79.893162 24.249743 
L 79.965608 24.461514 
L 80.178684 26.01242 
L 80.575006 28.917856 
L 80.609098 28.85696 
L 80.694328 28.125385 
L 81.00542 24.256666 
L 81.073604 24.401164 
L 81.252588 25.591343 
L 81.700048 28.896193 
L 81.746925 28.773329 
L 81.849202 27.641781 
L 82.130462 24.26752 
L 82.160293 24.298949 
L 82.266831 24.781638 
L 82.637584 27.906015 
L 82.82083 28.875309 
L 82.854922 28.816418 
L 82.940152 28.107718 
L 83.255505 24.279102 
L 83.32369 24.435907 
L 83.511197 25.708829 
L 83.941611 28.852216 
L 83.984226 28.768077 
L 84.077979 27.885382 
L 84.376286 24.292185 
L 84.427425 24.377756 
L 84.572316 25.222503 
L 85.066653 28.82415 
L 85.126315 28.641218 
L 85.241376 27.227585 
L 85.501329 24.309239 
L 85.518375 24.320911 
L 85.603606 24.625077 
L 85.86782 26.685357 
L 86.187434 28.786551 
L 86.213004 28.757513 
L 86.289711 28.278242 
L 86.626372 24.334565 
L 86.737171 24.696855 
L 87.031216 27.025475 
L 87.312477 28.725851 
L 87.333785 28.706558 
L 87.406231 28.326885 
L 87.580953 25.743789 
L 87.755676 24.38149 
L 87.776983 24.3985 
L 87.870737 24.761424 
L 88.194613 27.282604 
L 88.446043 28.597021 
L 88.46735 28.580564 
L 88.539796 28.263488 
L 88.701734 26.209113 
L 88.910549 24.517552 
L 88.923334 24.524983 
L 89.004303 24.77027 
L 89.302609 26.725927 
L 89.609439 28.002619 
L 89.873654 28.681481 
L 90.048376 29.340868 
L 90.095253 29.226662 
L 90.193268 28.144828 
L 90.521406 23.983399 
L 90.546975 24.002647 
L 90.64499 24.349951 
L 90.909204 26.328279 
L 91.28848 29.262855 
L 91.331095 29.145261 
L 91.429111 27.960144 
L 91.723156 24.135676 
L 91.744463 24.153937 
L 91.838217 24.51806 
L 92.115216 26.756535 
L 92.43483 29.089602 
L 92.464661 29.036569 
L 92.54563 28.333821 
L 92.865245 24.185915 
L 92.93769 24.351912 
L 93.125198 25.630357 
L 93.568396 29.017408 
L 93.615273 28.888014 
L 93.71755 27.679394 
L 93.99881 24.2124 
L 94.024379 24.237425 
L 94.126656 24.677022 
L 94.450532 27.404978 
L 94.693439 28.975438 
L 94.72327 28.932499 
L 94.804238 28.291967 
L 95.128114 24.230033 
L 95.204822 24.424658 
L 95.409375 25.882149 
L 95.822743 28.945173 
L 95.861097 28.858884 
L 95.95485 27.923572 
L 96.253157 24.243344 
L 96.295772 24.308516 
L 96.42788 25.028492 
L 96.943524 28.921518 
L 97.020232 28.615708 
L 97.160862 26.460379 
L 97.3782 24.254925 
L 97.386723 24.258599 
L 97.459169 24.46681 
L 97.672245 26.013389 
L 98.068567 28.899927 
L 98.102659 28.839231 
L 98.18789 28.115241 
L 98.503242 24.266035 
L 98.567165 24.409244 
L 98.746149 25.597951 
L 99.189348 28.878868 
L 99.236225 28.77486 
L 99.33424 27.765144 
L 99.624024 24.277023 
L 99.662377 24.3282 
L 99.785961 24.963921 
L 100.314391 28.856043 
L 100.39536 28.508886 
L 100.548774 26.138874 
L 100.749066 24.290013 
L 100.761851 24.297915 
L 100.84282 24.567124 
L 101.085727 26.421447 
L 101.435172 28.829391 
L 101.460741 28.798602 
L 101.537448 28.297466 
L 101.869847 24.306037 
L 101.976385 24.637058 
L 102.249123 26.784241 
L 102.560214 28.793405 
L 102.581522 28.768129 
L 102.653968 28.341302 
L 102.862783 25.125511 
L 102.99489 24.329474 
L 103.033244 24.379607 
L 103.156828 25.010246 
L 103.685257 28.737848 
L 103.757703 28.479704 
L 103.894072 26.670004 
L 104.124194 24.371081 
L 104.136979 24.377715 
L 104.213686 24.616508 
L 104.44807 26.328588 
L 104.814561 28.627462 
L 104.827346 28.619751 
L 104.891269 28.387087 
L 105.027638 26.777614 
L 105.270544 24.479654 
L 105.283329 24.486745 
L 105.364298 24.736867 
L 105.637036 26.614281 
L 105.969435 28.223388 
L 106.075973 28.227619 
L 106.09728 28.206591 
L 106.416895 27.704266 
L 106.54474 26.441693 
L 106.826001 23.948528 
L 106.830263 23.948933 
L 106.902709 24.082117 
L 107.081693 25.064982 
L 107.622906 29.320258 
L 107.712398 28.813496 
L 108.061843 24.122178 
L 108.176905 24.504364 
L 108.453904 26.737233 
L 108.77778 29.107111 
L 108.80761 29.04932 
L 108.892841 28.266246 
L 109.208194 24.180022 
L 109.267855 24.299823 
L 109.434055 25.350317 
L 109.911345 29.026471 
L 109.971007 28.815847 
L 110.090329 27.131172 
L 110.341759 24.208851 
L 110.350283 24.212209 
L 110.422728 24.417519 
L 110.631543 25.923372 
L 111.04065 28.980887 
L 111.079003 28.892655 
L 111.172757 27.937072 
L 111.471064 24.227425 
L 111.509417 24.282038 
L 111.637263 24.953139 
L 112.165692 28.949807 
L 112.246661 28.576843 
L 112.408599 25.927192 
L 112.596106 24.241243 
L 112.613152 24.25223 
L 112.698383 24.554416 
L 112.954074 26.561141 
L 113.290735 28.924915 
L 113.316304 28.886125 
L 113.393012 28.32587 
L 113.721149 24.253004 
L 113.814903 24.522551 
L 114.053548 26.342426 
L 114.411516 28.903479 
L 114.441347 28.860362 
L 114.522316 28.242675 
L 114.846192 24.264044 
L 114.927161 24.476373 
L 115.140237 26.022435 
L 115.536559 28.882191 
L 115.570651 28.818787 
L 115.660143 28.03609 
L 115.966973 24.275113 
L 116.026634 24.388274 
L 116.188572 25.40293 
L 116.65734 28.86015 
L 116.71274 28.706768 
L 116.823539 27.393688 
L 117.092015 24.287586 
L 117.113323 24.305214 
L 117.207077 24.675775 
L 117.505383 27.095604 
L 117.778121 28.834251 
L 117.80369 28.806471 
L 117.876136 28.359011 
L 118.217058 24.303271 
L 118.332119 24.700749 
L 118.638949 27.189075 
L 118.903164 28.800465 
L 118.928733 28.767701 
L 119.00544 28.269967 
L 119.337839 24.324824 
L 119.444377 24.653092 
L 119.717115 26.785525 
L 120.028206 28.749464 
L 120.049514 28.725285 
L 120.12196 28.317584 
L 120.313729 25.415697 
L 120.467143 24.361954 
L 120.496974 24.39479 
L 120.607774 24.902372 
L 121.157511 28.653102 
L 121.242741 28.335211 
L 121.396156 26.305098 
L 121.604971 24.450562 
L 121.622017 24.459192 
L 121.702986 24.719006 
L 121.971462 26.626362 
L 122.308122 28.358025 
L 122.376307 28.302993 
L 122.38483 28.283099 
L 122.516937 27.64631 
L 123.100766 24.333995 
L 123.113551 24.338357 
L 123.220089 24.514104 
L 123.411857 25.381901 
L 123.757041 28.195175 
L 123.957333 29.45302 
L 123.991425 29.378366 
L 124.076655 28.499702 
L 124.400531 24.094731 
L 124.447408 24.171633 
L 124.588038 24.944649 
L 125.120729 29.141893 
L 125.205959 28.709758 
L 125.384944 25.548176 
L 125.555405 24.169197 
L 125.572451 24.181938 
L 125.657681 24.486628 
L 125.913373 26.493644 
L 126.258556 29.042905 
L 126.292648 28.978226 
L 126.377879 28.193662 
L 126.68897 24.202623 
L 126.748632 24.317342 
L 126.91057 25.331051 
L 127.38786 28.99137 
L 127.447522 28.796493 
L 127.562583 27.241357 
L 127.818274 24.22307 
L 127.831059 24.228358 
L 127.903505 24.443517 
L 128.116581 25.998074 
L 128.512903 28.957353 
L 128.551257 28.886194 
L 128.640749 28.05069 
L 128.947579 24.237987 
L 128.998717 24.330851 
L 129.14787 25.219147 
L 129.637946 28.931341 
L 129.70613 28.692331 
L 129.833976 26.863938 
L 130.072621 24.250136 
L 130.081144 24.253836 
L 130.15359 24.462173 
L 130.366667 26.009236 
L 130.762988 28.909013 
L 130.797081 28.849629 
L 130.882311 28.125859 
L 131.197664 24.261329 
L 131.261587 24.403526 
L 131.440571 25.591282 
L 131.888031 28.887613 
L 131.930646 28.786608 
L 132.028661 27.778026 
L 132.318445 24.272084 
L 132.356799 24.322153 
L 132.480383 24.955976 
L 133.008812 28.866183 
L 133.089781 28.523556 
L 133.243196 26.146813 
L 133.443488 24.284184 
L 133.456272 24.291656 
L 133.53298 24.537378 
L 133.763102 26.262584 
L 134.129593 28.841598 
L 134.159424 28.80158 
L 134.240393 28.216808 
L 134.564269 24.29854 
L 134.653761 24.539439 
L 134.879622 26.213334 
L 135.254636 28.810315 
L 135.280205 28.775831 
L 135.356913 28.26837 
L 135.689312 24.318149 
L 135.791588 24.629972 
L 136.055803 26.682096 
L 136.375417 28.765739 
L 136.400986 28.738384 
L 136.477694 28.273129 
L 136.814354 24.349686 
L 136.929415 24.724014 
L 137.236245 27.150722 
L 137.504721 28.68656 
L 137.526029 28.665167 
L 137.598475 28.291654 
L 137.773197 25.785877 
L 137.952181 24.416978 
L 137.973489 24.43616 
L 138.067243 24.801048 
L 138.425211 27.504758 
L 138.651072 28.483763 
L 138.668118 28.473276 
L 138.744825 28.208011 
L 138.906763 26.556821 
L 139.158193 24.691501 
L 139.162455 24.692365 
L 139.239162 24.836227 
L 140.04459 27.767643 
L 140.338636 29.671571 
L 140.385512 29.530615 
L 140.487789 28.189344 
L 140.790357 24.056526 
L 140.807403 24.064693 
L 140.888372 24.31675 
L 141.118495 25.990601 
L 141.527601 29.186154 
L 141.574478 29.052558 
L 141.676754 27.772975 
L 141.962277 24.156219 
L 141.979323 24.169652 
L 142.068815 24.498861 
L 142.333029 26.598837 
L 142.66969 29.061296 
L 142.699521 29.004381 
L 142.784751 28.23579 
L 143.100104 24.195829 
L 143.159765 24.317788 
L 143.325965 25.373624 
L 143.798994 29.002311 
L 143.858655 28.800361 
L 143.977978 27.1454 
L 144.229408 24.21849 
L 144.237931 24.221286 
L 144.306116 24.404113 
L 144.506407 25.815489 
L 144.924037 28.96515 
L 144.966652 28.874694 
L 145.060406 27.921362 
L 145.358712 24.234543 
L 145.397066 24.290296 
L 145.524912 24.963851 
L 146.053341 28.93702 
L 146.13431 28.554094 
L 146.296248 25.907848 
L 146.483755 24.247145 
L 146.49654 24.2546 
L 146.573247 24.500207 
L 146.803369 26.232046 
L 147.174122 28.914598 
L 147.208214 28.856238 
L 147.293445 28.133271 
L 147.608798 24.258474 
L 147.67272 24.399778 
L 147.851705 25.586606 
L 148.299165 28.893168 
L 148.346041 28.773471 
L 148.448318 27.651102 
L 148.729579 24.269199 
L 148.759409 24.299256 
L 148.865948 24.778948 
L 149.232439 27.864341 
L 149.419946 28.872027 
L 149.454038 28.815051 
L 149.539269 28.113298 
L 149.854621 24.280873 
L 149.922806 24.435119 
L 150.106051 25.669482 
L 150.544988 28.847931 
L 150.583342 28.766568 
L 150.677096 27.891792 
L 150.975403 24.294482 
L 151.026541 24.377925 
L 151.171433 25.219589 
L 151.66577 28.819354 
L 151.725431 28.640375 
L 151.840492 27.238284 
L 152.100445 24.312324 
L 152.117491 24.323066 
L 152.202722 24.623884 
L 152.466936 26.679526 
L 152.786551 28.779356 
L 152.81212 28.752083 
L 152.888827 28.281835 
L 153.225488 24.339645 
L 153.340549 24.719266 
L 153.647379 27.160893 
L 153.915855 28.712395 
L 153.937163 28.688213 
L 154.01387 28.25436 
L 154.235469 25.035147 
L 154.359054 24.392928 
L 154.397407 24.448135 
L 154.525253 25.107293 
L 155.049421 28.56262 
L 155.109082 28.440381 
L 155.224143 27.447397 
L 155.52245 24.564941 
L 155.556542 24.602656 
L 155.675865 25.109968 
L 156.225602 27.648018 
L 156.41737 28.292531 
L 156.702892 29.775759 
L 156.762554 29.557573 
L 156.877615 27.854102 
L 157.17166 24.01608 
L 157.235583 24.132732 
L 157.401783 25.10493 
L 157.921689 29.229716 
L 158.002658 28.827017 
L 158.164596 25.938686 
L 158.356364 24.14411 
L 158.369149 24.150419 
L 158.445856 24.386165 
L 158.667456 26.018914 
L 159.068039 29.077901 
L 159.106393 28.987559 
L 159.200146 27.99126 
L 159.498453 24.18993 
L 159.536807 24.242788 
L 159.660391 24.877264 
L 160.197343 29.011533 
L 160.286835 28.562228 
L 160.482865 25.236118 
L 160.632019 24.215085 
L 160.657588 24.242977 
L 160.759864 24.689952 
L 161.088002 27.461246 
L 161.326647 28.971302 
L 161.356478 28.922134 
L 161.437447 28.263044 
L 161.757061 24.231624 
L 161.833769 24.416414 
L 162.034061 25.827695 
L 162.45169 28.942429 
L 162.494305 28.8459 
L 162.588059 27.887736 
L 162.882104 24.244767 
L 162.924719 24.304269 
L 163.052565 24.984275 
L 163.576733 28.918675 
L 163.657702 28.555172 
L 163.815378 26.022954 
L 164.007147 24.256154 
L 164.024193 24.266249 
L 164.105162 24.542926 
L 164.35233 26.451466 
L 164.697514 28.897462 
L 164.727344 28.856275 
L 164.808313 28.246868 
L 165.132189 24.267089 
L 165.21742 24.496112 
L 165.439019 26.13051 
L 165.822556 28.87613 
L 165.852387 28.828689 
L 165.933356 28.207024 
L 166.257232 24.278731 
L 166.338201 24.495492 
L 166.551277 26.043325 
L 166.943338 28.853274 
L 166.97743 28.797923 
L 167.06266 28.10895 
L 167.378013 24.291563 
L 167.450459 24.459665 
L 167.642228 25.777955 
L 168.06838 28.825301 
L 168.102472 28.762266 
L 168.191964 28.007586 
L 168.503056 24.308488 
L 168.562717 24.431421 
L 168.728917 25.488557 
L 169.189161 28.788434 
L 169.236038 28.684472 
L 169.338315 27.668181 
L 169.628098 24.33332 
L 169.662191 24.377979 
L 169.781513 24.969217 
L 170.314204 28.729176 
L 170.395173 28.426747 
L 170.540065 26.425887 
L 170.757403 24.378762 
L 170.770187 24.386454 
L 170.851156 24.650693 
L 171.102586 26.518269 
L 171.44777 28.605391 
L 171.460554 28.597717 
L 171.528739 28.344762 
L 171.673631 26.617751 
L 171.908014 24.506499 
L 171.920799 24.513492 
L 172.001768 24.758767 
L 172.28729 26.660367 
L 172.606905 28.072036 
L 172.926519 28.781113 
L 173.033057 29.057173 
L 173.079934 28.954082 
L 173.177949 27.946272 
L 173.506086 23.972691 
L 173.535917 23.997599 
L 173.642455 24.397695 
L 173.923716 26.553882 
L 174.277423 29.274686 
L 174.320038 29.166724 
L 174.413791 28.078499 
L 174.712098 24.132736 
L 174.741929 24.161992 
L 174.848467 24.62874 
L 175.172343 27.373669 
L 175.428034 29.093084 
L 175.457865 29.035562 
L 175.543096 28.256776 
L 175.858448 24.18471 
L 175.91811 24.30527 
L 176.084309 25.357567 
L 176.5616 29.019085 
L 176.621261 28.801923 
L 176.740584 27.109899 
L 176.992014 24.211755 
L 177.000537 24.215761 
L 177.072983 24.425301 
L 177.286059 25.973218 
L 177.686643 28.976744 
L 177.724996 28.900086 
L 177.814488 28.042464 
L 178.117057 24.229335 
L 178.168195 24.312829 
L 178.313087 25.1549 
L 178.811685 28.946569 
L 178.884131 28.670493 
L 179.0205 26.613056 
L 179.246361 24.242999 
L 179.254884 24.246976 
L 179.32733 24.457016 
L 179.540406 26.006215 
L 179.936728 28.922353 
L 179.975082 28.84788 
L 180.064574 28.017936 
L 180.371404 24.254641 
L 180.422542 24.349696 
L 180.575957 25.274626 
L 181.061771 28.900588 
L 181.121432 28.707411 
L 181.240755 27.137546 
L 181.492185 24.265342 
L 181.504969 24.27072 
L 181.581677 24.507351 
L 181.807538 26.190158 
L 182.182552 28.879686 
L 182.216644 28.823864 
L 182.301875 28.122265 
L 182.617227 24.276625 
L 182.685412 24.430128 
L 182.868657 25.66413 
L 183.307594 28.856778 
L 183.35021 28.758589 
L 183.448225 27.774439 
L 183.74227 24.289643 
L 183.780624 24.347445 
L 183.90847 25.024872 
L 184.428376 28.830443 
L 184.505083 28.532118 
L 184.645713 26.479119 
L 184.863051 24.305338 
L 184.875836 24.31158 
L 184.952543 24.55154 
L 185.182666 26.264445 
L 185.549157 28.79533 
L 185.578987 28.757515 
L 185.659956 28.198836 
L 185.988094 24.328419 
L 186.081847 24.597749 
L 186.324754 26.428552 
L 186.674199 28.741058 
L 186.695507 28.721772 
L 186.767953 28.336726 
L 186.946937 25.656794 
L 187.117398 24.369037 
L 187.138706 24.387872 
L 187.232459 24.757389 
L 187.556335 27.303922 
L 187.807765 28.6334 
L 187.824811 28.618612 
L 187.897257 28.290874 
L 188.059195 26.140878 
L 188.259487 24.472331 
L 188.276533 24.482218 
L 188.361763 24.764405 
L 188.664332 26.890102 
L 188.9669 28.265668 
L 189.05213 28.24416 
L 189.073438 28.213278 
L 189.324868 27.581495 
L 189.465498 26.758498 
L 189.802159 23.956375 
L 189.857559 24.02584 
L 190.002451 24.667652 
L 190.339111 27.392961 
L 190.611849 29.341432 
L 190.645941 29.265547 
L 190.731171 28.391193 
L 191.046524 24.117287 
L 191.097663 24.197917 
L 191.242554 25.015218 
L 191.766722 29.113308 
L 191.84343 28.744273 
L 192.001106 26.040098 
L 192.197136 24.177994 
L 192.209921 24.184766 
L 192.286628 24.424961 
L 192.512489 26.109457 
L 192.900288 29.029615 
L 192.938641 28.945033 
L 193.032395 27.980825 
L 193.330702 24.207645 
L 193.373317 24.270334 
L 193.505424 24.983899 
L 194.029592 28.983015 
L 194.110561 28.602188 
L 194.272499 25.913429 
L 194.460006 24.226526 
L 194.477052 24.237955 
L 194.562283 24.541293 
L 194.817974 26.550774 
L 195.154635 28.951377 
L 195.184465 28.903553 
L 195.265434 28.254912 
L 195.585049 24.240592 
L 195.666018 24.442469 
L 195.870571 25.90653 
L 196.279677 28.926317 
L 196.318031 28.846377 
L 196.411785 27.936936 
L 196.710091 24.252414 
L 196.756968 24.325229 
L 196.893337 25.088465 
L 197.40472 28.904091 
L 197.477166 28.607226 
L 197.617796 26.478448 
L 197.835134 24.263385 
L 197.843657 24.266465 
L 197.911841 24.451585 
L 198.112133 25.865231 
L 198.525501 28.883469 
L 198.563855 28.807927 
L 198.653347 27.99237 
L 198.960177 24.274681 
L 199.011315 24.369167 
L 199.16473 25.292958 
L 199.646282 28.86138 
L 199.705944 28.689383 
L 199.821005 27.265596 
L 200.080958 24.286848 
L 200.098004 24.297183 
L 200.178973 24.574575 
L 200.426141 26.475249 
L 200.771325 28.835522 
L 200.796894 28.800237 
L 200.873601 28.280968 
L 201.206 24.302185 
L 201.308277 24.621451 
L 201.572492 26.688024 
L 201.892106 28.802622 
L 201.917675 28.772341 
L 201.994383 28.282644 
L 202.331043 24.323647 
L 202.437581 24.669968 
L 202.718842 26.888842 
L 203.017149 28.753 
L 203.038456 28.730532 
L 203.110902 28.328508 
L 203.298409 25.486396 
L 203.456086 24.359295 
L 203.481655 24.38273 
L 203.57967 24.789512 
L 203.933377 27.608256 
L 204.146453 28.660451 
L 204.172022 28.630288 
L 204.252991 28.160428 
L 204.593913 24.442847 
L 204.704713 24.781992 
L 205.03285 27.185825 
L 205.309849 28.39014 
L 205.382295 28.257848 
L 205.527187 27.336531 
L 205.944816 24.651089 
L 206.09397 24.655206 
L 206.251646 24.9248 
L 206.447676 25.801722 
L 206.79286 28.613673 
L 206.950536 29.501456 
L 206.993152 29.397505 
L 207.086905 28.296308 
L 207.397997 24.085755 
L 207.427827 24.118679 
L 207.538627 24.609955 
L 207.866764 27.390496 
L 208.122456 29.152528 
L 208.152287 29.100046 
L 208.233256 28.385767 
L 208.557131 24.16613 
L 208.625316 24.325063 
L 208.812823 25.592115 
L 209.260283 29.047609 
L 209.311421 28.897825 
L 209.41796 27.556927 
L 209.690697 24.200854 
L 209.707743 24.211285 
L 209.792974 24.510068 
L 210.044404 26.476741 
L 210.389587 28.994209 
L 210.42368 28.932278 
L 210.50891 28.170639 
L 210.820001 24.221882 
L 210.883924 24.351348 
L 211.054385 25.453495 
L 211.518891 28.958929 
L 211.57003 28.804967 
L 211.680829 27.423639 
L 211.949306 24.237053 
L 211.966352 24.249515 
L 212.051582 24.556733 
L 212.311535 26.607359 
L 212.639673 28.932976 
L 212.669503 28.891679 
L 212.750472 28.269782 
L 213.074348 24.249318 
L 213.155317 24.460403 
L 213.368393 26.006655 
L 213.764715 28.910514 
L 213.803069 28.836248 
L 213.892561 28.01196 
L 214.199391 24.260528 
L 214.250529 24.355092 
L 214.403944 25.279324 
L 214.889758 28.889157 
L 214.949419 28.694659 
L 215.068742 27.131102 
L 215.320172 24.271308 
L 215.332957 24.276828 
L 215.409664 24.514072 
L 215.635525 26.19641 
L 216.010539 28.867787 
L 216.04037 28.823708 
L 216.121339 28.215877 
L 216.445215 24.283258 
L 216.530445 24.514077 
L 216.752044 26.146862 
L 217.13132 28.843445 
L 217.165412 28.791766 
L 217.250643 28.117843 
L 217.565996 24.297434 
L 217.642703 24.477746 
L 217.838733 25.842773 
L 218.256363 28.812855 
L 218.290455 28.754013 
L 218.375686 28.073209 
L 218.691038 24.316517 
L 218.763484 24.48336 
L 218.955253 25.795169 
L 219.377144 28.769569 
L 219.411236 28.720537 
L 219.496467 28.089665 
L 219.816081 24.346821 
L 219.89705 24.545938 
L 220.105865 26.020054 
L 220.506448 28.694082 
L 220.527756 28.672154 
L 220.600202 28.29362 
L 220.779186 25.703893 
L 220.949647 24.40959 
L 220.975216 24.430869 
L 221.073231 24.826215 
L 221.648537 28.508073 
L 221.746552 28.194446 
L 221.912752 26.3602 
L 222.142874 24.651034 
L 222.151397 24.654265 
L 222.232366 24.84522 
L 223.16564 28.831732 
L 223.336101 29.724743 
L 223.374455 29.636516 
L 223.463947 28.66528 
L 223.796346 24.046997 
L 223.838961 24.108226 
L 223.971068 24.777022 
L 224.375913 28.333789 
L 224.53359 29.196817 
L 224.571943 29.10785 
L 224.661435 28.153509 
L 224.968265 24.153168 
L 225.006619 24.208457 
L 225.134465 24.871598 
L 225.675678 29.065742 
L 225.76517 28.578965 
L 226.106092 24.194228 
L 226.221154 24.578296 
L 226.506676 26.908639 
L 226.804982 29.004779 
L 226.834813 28.958634 
L 226.915782 28.299342 
L 227.235397 24.217561 
L 227.312104 24.397517 
L 227.508134 25.766755 
L 227.934287 28.96658 
L 227.976902 28.863085 
L 228.074917 27.808796 
L 228.364701 24.233666 
L 228.398793 24.275532 
L 228.513854 24.8349 
L 229.059329 28.938705 
L 229.153083 28.43978 
L 229.489743 24.246431 
L 229.604805 24.62999 
L 229.894588 26.990981 
L 230.184372 28.915291 
L 230.209941 28.875792 
L 230.286649 28.315866 
L 230.614786 24.257726 
L 230.70854 24.528185 
L 230.947185 26.347994 
L 231.305153 28.894482 
L 231.334984 28.849633 
L 231.415953 28.229594 
L 231.739829 24.268789 
L 231.820798 24.483131 
L 232.033874 26.030387 
L 232.430196 28.872732 
L 232.460026 28.821486 
L 232.545257 28.134777 
L 232.86061 24.280175 
L 232.933056 24.445656 
L 233.124824 25.762986 
L 233.550977 28.849612 
L 233.589331 28.774268 
L 233.683084 27.915371 
L 233.985653 24.29374 
L 234.036791 24.385825 
L 234.185944 25.272089 
L 234.671758 28.821195 
L 234.731419 28.651487 
L 234.846481 27.265295 
L 235.106434 24.311282 
L 235.127741 24.325551 
L 235.217233 24.661362 
L 235.498494 26.891787 
L 235.796801 28.781676 
L 235.818108 28.75788 
L 235.890554 28.340847 
L 236.086584 25.319358 
L 236.235738 24.33813 
L 236.265569 24.374656 
L 236.376368 24.893044 
L 236.921843 28.717322 
L 237.011335 28.345201 
L 237.177535 25.934088 
L 237.365042 24.388738 
L 237.382088 24.400827 
L 237.467319 24.701485 
L 237.744318 26.795939 
L 238.055409 28.575234 
L 238.068194 28.56972 
L 238.132117 28.36547 
L 238.264224 26.96525 
L 238.524177 24.546829 
L 238.541223 24.55693 
L 238.626453 24.824623 
L 239.691835 29.70818 
L 239.730189 29.621576 
L 239.819681 28.702111 
L 240.164864 24.00589 
L 240.211741 24.073781 
L 240.352371 24.78751 
L 240.757216 28.335242 
L 240.919154 29.240104 
L 240.957508 29.148464 
L 241.051261 28.106818 
L 241.35383 24.14146 
L 241.387922 24.184392 
L 241.507245 24.764077 
L 241.895043 28.150213 
L 242.065504 29.081508 
L 242.099597 29.007858 
L 242.189089 28.121945 
L 242.495918 24.188677 
L 242.542795 24.266536 
L 242.683426 25.064111 
L 243.194809 29.01354 
L 243.271516 28.686797 
L 243.416408 26.347136 
L 243.625223 24.214049 
L 243.638007 24.21881 
L 243.710453 24.431506 
L 243.923529 25.982957 
L 244.324113 28.972635 
L 244.362466 28.891359 
L 244.451958 28.023086 
L 244.754527 24.231038 
L 244.805665 24.318208 
L 244.954818 25.198173 
L 245.449155 28.943463 
L 245.51734 28.690579 
L 245.645186 26.831536 
L 245.879569 24.244282 
L 245.888092 24.246456 
L 245.956277 24.425907 
L 246.152307 25.797715 
L 246.574198 28.919575 
L 246.612552 28.839279 
L 246.706305 27.931938 
L 247.004612 24.255713 
L 247.051489 24.328668 
L 247.187858 25.092159 
L 247.694979 28.8983 
L 247.767425 28.633064 
L 247.899532 26.713339 
L 248.129655 24.266644 
L 248.138178 24.269875 
L 248.206362 24.455923 
L 248.406654 25.870286 
L 248.820022 28.877019 
L 248.858376 28.799711 
L 248.952129 27.921159 
L 249.254697 24.278235 
L 249.301574 24.360022 
L 249.446466 25.200563 
L 249.940803 28.854266 
L 250.004726 28.652362 
L 250.124049 27.105362 
L 250.375479 24.290981 
L 250.388263 24.297159 
L 250.464971 24.537116 
L 250.695093 26.254805 
L 251.065846 28.826575 
L 251.091415 28.790076 
L 251.172384 28.221458 
L 251.500521 24.307694 
L 251.590013 24.56113 
L 251.824397 26.316075 
L 252.186627 28.790234 
L 252.212196 28.759375 
L 252.288903 28.272241 
L 252.625564 24.33207 
L 252.732102 24.676016 
L 253.013363 26.886241 
L 253.311669 28.732297 
L 253.332977 28.711024 
L 253.405423 28.321075 
L 253.584407 25.651698 
L 253.754868 24.376211 
L 253.776176 24.395629 
L 253.869929 24.766153 
L 254.198067 27.335528 
L 254.445235 28.612954 
L 254.466543 28.592348 
L 254.54325 28.217898 
L 254.726496 25.75478 
L 254.901218 24.496766 
L 254.922526 24.511625 
L 255.01628 24.849037 
L 255.757785 28.2507 
L 255.902677 28.510242 
L 256.017738 28.715848 
L 256.060353 28.625266 
L 256.154107 27.781459 
L 256.490767 23.962585 
L 256.529121 24.007392 
L 256.652705 24.536924 
L 256.97232 27.124037 
L 257.266365 29.287188 
L 257.300457 29.217646 
L 257.385688 28.367711 
L 257.70104 24.129723 
L 257.75644 24.225952 
L 257.909855 25.13323 
L 258.416977 29.097295 
L 258.489423 28.776355 
L 258.634314 26.383697 
L 258.847391 24.183299 
L 258.855914 24.186277 
L 258.924098 24.369051 
L 259.12439 25.77566 
L 259.550542 29.02145 
L 259.593158 28.914704 
L 259.691173 27.828634 
L 259.980956 24.21081 
L 260.010787 24.243894 
L 260.117325 24.728306 
L 260.46677 27.71333 
L 260.679847 28.977583 
L 260.709677 28.922415 
L 260.794908 28.184424 
L 261.110261 24.228844 
L 261.174183 24.368126 
L 261.348906 25.516919 
L 261.804889 28.947291 
L 261.856028 28.798558 
L 261.962566 27.510673 
L 262.235303 24.242384 
L 262.256611 24.259729 
L 262.350364 24.629357 
L 262.640148 26.993645 
L 262.929932 28.922732 
L 262.955501 28.882742 
L 263.03647 28.266904 
L 263.360346 24.254037 
L 263.445576 24.483496 
L 263.667176 26.119939 
L 264.050713 28.901561 
L 264.084805 28.84302 
L 264.170036 28.124638 
L 264.485389 24.265101 
L 264.549311 24.406015 
L 264.728296 25.592136 
L 265.175756 28.880121 
L 265.218371 28.779529 
L 265.316386 27.776086 
L 265.60617 24.27614 
L 265.644523 24.32572 
L 265.768108 24.95861 
L 266.296537 28.857952 
L 266.377506 28.516351 
L 266.530921 26.150162 
L 266.731212 24.288876 
L 266.743997 24.296204 
L 266.820704 24.541239 
L 267.050827 26.264464 
L 267.417318 28.831642 
L 267.447149 28.791534 
L 267.528118 28.210436 
L 267.856255 24.305014 
L 267.941486 24.543948 
L 268.167346 26.21453 
L 268.542361 28.796702 
L 268.56793 28.762745 
L 268.644637 28.262162 
L 268.977036 24.327309 
L 269.083574 24.657343 
L 269.356312 26.788882 
L 269.667403 28.743298 
L 269.688711 28.718659 
L 269.765418 28.27049 
L 270.10634 24.366774 
L 270.225663 24.773929 
L 270.562324 27.435002 
L 270.72 28.471554 
L 270.72 28.471554 
" clip-path="url(#pca38755c47)" style="fill: none; stroke: #808080; stroke-width: 1.5; stroke-linecap: square"/>
   </g>
   <g id="patch_3">
    <path d="M 57.648 161.7 
L 57.648 17.28 
" style="fill: none; stroke: #000000; stroke-width: 0.8; stroke-linejoin: miter; stroke-linecap: square"/>
   </g>
   <g id="patch_4">
    <path d="M 270.72 161.7 
L 270.72 17.28 
" style="fill: none; stroke: #000000; stroke-width: 0.8; stroke-linejoin: miter; stroke-linecap: square"/>
   </g>
   <g id="patch_5">
    <path d="M 57.648 161.7 
L 270.72 161.7 
" style="fill: none; stroke: #000000; stroke-width: 0.8; stroke-linejoin: miter; stroke-linecap: square"/>
   </g>
   <g id="patch_6">
    <path d="M 57.648 17.28 
L 270.72 17.28 
" style="fill: none; stroke: #000000; stroke-width: 0.8; stroke-linejoin: miter; stroke-linecap: square"/>
   </g>
  </g>
 </g>
 <defs>
  <clipPath id="pca38755c47">
   <rect x="57.648" y="17.28" width="213.072" height="144.42"/>
  </clipPath>
 </defs>
</svg>
