<?xml version="1.0" encoding="utf-8" standalone="no"?>
<!DOCTYPE svg PUBLIC "-//W3C//DTD SVG 1.1//EN"
  "http://www.w3.org/Graphics/SVG/1.1/DTD/svg11.dtd">
<svg xmlns:xlink="http://www.w3.org/1999/xlink" width="288pt" height="216pt" viewBox="0 0 288 216" xmlns="http://www.w3.org/2000/svg" version="1.1">
 <metadata>
  <rdf:RDF xmlns:dc="http://purl.org/dc/elements/1.1/" xmlns:cc="http://creativecommons.org/ns#" xmlns:rdf="http://www.w3.org/1999/02/22-rdf-syntax-ns#">
   <cc:Work>
    <dc:type rdf:resource="http://purl.org/dc/dcmitype/StillImage"/>
    <dc:date>2024-03-05T18:24:20.458665</dc:date>
    <dc:format>image/svg+xml</dc:format>
    <dc:creator>
     <cc:Agent>
      <dc:title>Matplotlib v3.7.2, https://matplotlib.org/</dc:title>
     </cc:Agent>
    </dc:creator>
   </cc:Work>
  </rdf:RDF>
 </metadata>
 <defs>
  <style type="text/css">*{stroke-linejoin: round; stroke-linecap: butt}</style>
 </defs>
 <g id="figure_1">
  <g id="patch_1">
   <path d="M 0 216 
L 288 216 
L 288 0 
L 0 0 
L 0 216 
z
" style="fill: none"/>
  </g>
  <g id="axes_1">
   <g id="patch_2">
    <path d="M 61.698 161.7 
L 261.81 161.7 
L 261.81 17.28 
L 61.698 17.28 
L 61.698 161.7 
z
" style="fill: none"/>
   </g>
   <g id="matplotlib.axis_1">
    <g id="xtick_1">
     <g id="line2d_1">
      <defs>
       <path id="m5d778aad5d" d="M 0 0 
L 0 -3.5 
" style="stroke: #000000; stroke-width: 0.8"/>
      </defs>
      <g>
       <use xlink:href="#m5d778aad5d" x="61.698" y="161.7" style="stroke: #000000; stroke-width: 0.8"/>
      </g>
     </g>
     <g id="text_1">
      <!-- 0 -->
      <g transform="translate(57.24925 176.6525) scale(0.16 -0.16)">
       <defs>
        <path id="ArialMT-30" d="M 266 2259 
Q 266 3072 433 3567 
Q 600 4063 929 4331 
Q 1259 4600 1759 4600 
Q 2128 4600 2406 4451 
Q 2684 4303 2865 4023 
Q 3047 3744 3150 3342 
Q 3253 2941 3253 2259 
Q 3253 1453 3087 958 
Q 2922 463 2592 192 
Q 2263 -78 1759 -78 
Q 1097 -78 719 397 
Q 266 969 266 2259 
z
M 844 2259 
Q 844 1131 1108 757 
Q 1372 384 1759 384 
Q 2147 384 2411 759 
Q 2675 1134 2675 2259 
Q 2675 3391 2411 3762 
Q 2147 4134 1753 4134 
Q 1366 4134 1134 3806 
Q 844 3388 844 2259 
z
" transform="scale(0.015625)"/>
       </defs>
       <use xlink:href="#ArialMT-30"/>
      </g>
     </g>
    </g>
    <g id="xtick_2">
     <g id="line2d_2">
      <g>
       <use xlink:href="#m5d778aad5d" x="111.726" y="161.7" style="stroke: #000000; stroke-width: 0.8"/>
      </g>
     </g>
     <g id="text_2">
      <!-- 5 -->
      <g transform="translate(107.27725 176.6525) scale(0.16 -0.16)">
       <defs>
        <path id="ArialMT-35" d="M 266 1200 
L 856 1250 
Q 922 819 1161 601 
Q 1400 384 1738 384 
Q 2144 384 2425 690 
Q 2706 997 2706 1503 
Q 2706 1984 2436 2262 
Q 2166 2541 1728 2541 
Q 1456 2541 1237 2417 
Q 1019 2294 894 2097 
L 366 2166 
L 809 4519 
L 3088 4519 
L 3088 3981 
L 1259 3981 
L 1013 2750 
Q 1425 3038 1878 3038 
Q 2478 3038 2890 2622 
Q 3303 2206 3303 1553 
Q 3303 931 2941 478 
Q 2500 -78 1738 -78 
Q 1113 -78 717 272 
Q 322 622 266 1200 
z
" transform="scale(0.015625)"/>
       </defs>
       <use xlink:href="#ArialMT-35"/>
      </g>
     </g>
    </g>
    <g id="xtick_3">
     <g id="line2d_3">
      <g>
       <use xlink:href="#m5d778aad5d" x="161.754" y="161.7" style="stroke: #000000; stroke-width: 0.8"/>
      </g>
     </g>
     <g id="text_3">
      <!-- 10 -->
      <g transform="translate(152.8565 176.6525) scale(0.16 -0.16)">
       <defs>
        <path id="ArialMT-31" d="M 2384 0 
L 1822 0 
L 1822 3584 
Q 1619 3391 1289 3197 
Q 959 3003 697 2906 
L 697 3450 
Q 1169 3672 1522 3987 
Q 1875 4303 2022 4600 
L 2384 4600 
L 2384 0 
z
" transform="scale(0.015625)"/>
       </defs>
       <use xlink:href="#ArialMT-31"/>
       <use xlink:href="#ArialMT-30" x="55.615234"/>
      </g>
     </g>
    </g>
    <g id="xtick_4">
     <g id="line2d_4">
      <g>
       <use xlink:href="#m5d778aad5d" x="211.782" y="161.7" style="stroke: #000000; stroke-width: 0.8"/>
      </g>
     </g>
     <g id="text_4">
      <!-- 15 -->
      <g transform="translate(202.8845 176.6525) scale(0.16 -0.16)">
       <use xlink:href="#ArialMT-31"/>
       <use xlink:href="#ArialMT-35" x="55.615234"/>
      </g>
     </g>
    </g>
    <g id="xtick_5">
     <g id="line2d_5">
      <g>
       <use xlink:href="#m5d778aad5d" x="261.81" y="161.7" style="stroke: #000000; stroke-width: 0.8"/>
      </g>
     </g>
     <g id="text_5">
      <!-- 20 -->
      <g transform="translate(252.9125 176.6525) scale(0.16 -0.16)">
       <defs>
        <path id="ArialMT-32" d="M 3222 541 
L 3222 0 
L 194 0 
Q 188 203 259 391 
Q 375 700 629 1000 
Q 884 1300 1366 1694 
Q 2113 2306 2375 2664 
Q 2638 3022 2638 3341 
Q 2638 3675 2398 3904 
Q 2159 4134 1775 4134 
Q 1369 4134 1125 3890 
Q 881 3647 878 3216 
L 300 3275 
Q 359 3922 746 4261 
Q 1134 4600 1788 4600 
Q 2447 4600 2831 4234 
Q 3216 3869 3216 3328 
Q 3216 3053 3103 2787 
Q 2991 2522 2730 2228 
Q 2469 1934 1863 1422 
Q 1356 997 1212 845 
Q 1069 694 975 541 
L 3222 541 
z
" transform="scale(0.015625)"/>
       </defs>
       <use xlink:href="#ArialMT-32"/>
       <use xlink:href="#ArialMT-30" x="55.615234"/>
      </g>
     </g>
    </g>
    <g id="text_6">
     <!-- $t$ -->
     <g transform="translate(158.554 195.285) scale(0.16 -0.16)">
      <defs>
       <path id="DejaVuSans-Oblique-74" d="M 2706 3500 
L 2619 3053 
L 1472 3053 
L 1100 1153 
Q 1081 1047 1072 975 
Q 1063 903 1063 863 
Q 1063 663 1183 572 
Q 1303 481 1569 481 
L 2150 481 
L 2053 0 
L 1503 0 
Q 991 0 739 200 
Q 488 400 488 806 
Q 488 878 497 964 
Q 506 1050 525 1153 
L 897 3053 
L 409 3053 
L 500 3500 
L 978 3500 
L 1172 4494 
L 1747 4494 
L 1556 3500 
L 2706 3500 
z
" transform="scale(0.015625)"/>
      </defs>
      <use xlink:href="#DejaVuSans-Oblique-74" transform="translate(0 0.78125)"/>
     </g>
    </g>
   </g>
   <g id="matplotlib.axis_2">
    <g id="ytick_1">
     <g id="line2d_6">
      <defs>
       <path id="m5472c634a6" d="M 0 0 
L 3.5 0 
" style="stroke: #000000; stroke-width: 0.8"/>
      </defs>
      <g>
       <use xlink:href="#m5472c634a6" x="61.698" y="155.13555" style="stroke: #000000; stroke-width: 0.8"/>
      </g>
     </g>
     <g id="text_7">
      <!-- −1 -->
      <g transform="translate(39.9555 160.8618) scale(0.16 -0.16)">
       <defs>
        <path id="ArialMT-2212" d="M 3381 1997 
L 356 1997 
L 356 2522 
L 3381 2522 
L 3381 1997 
z
" transform="scale(0.015625)"/>
       </defs>
       <use xlink:href="#ArialMT-2212"/>
       <use xlink:href="#ArialMT-31" x="58.398438"/>
      </g>
     </g>
    </g>
    <g id="ytick_2">
     <g id="line2d_7">
      <g>
       <use xlink:href="#m5472c634a6" x="61.698" y="98.557747" style="stroke: #000000; stroke-width: 0.8"/>
      </g>
     </g>
     <g id="text_8">
      <!-- 0 -->
      <g transform="translate(49.3005 104.283997) scale(0.16 -0.16)">
       <use xlink:href="#ArialMT-30"/>
      </g>
     </g>
    </g>
    <g id="ytick_3">
     <g id="line2d_8">
      <g>
       <use xlink:href="#m5472c634a6" x="61.698" y="41.979944" style="stroke: #000000; stroke-width: 0.8"/>
      </g>
     </g>
     <g id="text_9">
      <!-- 1 -->
      <g transform="translate(49.3005 47.706194) scale(0.16 -0.16)">
       <use xlink:href="#ArialMT-31"/>
      </g>
     </g>
    </g>
    <g id="text_10">
     <!-- $Re(a_i)/r_i$ -->
     <g transform="translate(32.7755 120.69) rotate(-90) scale(0.16 -0.16)">
      <defs>
       <path id="DejaVuSans-Oblique-52" d="M 1613 4147 
L 1294 2491 
L 2106 2491 
Q 2584 2491 2879 2755 
Q 3175 3019 3175 3444 
Q 3175 3784 2976 3965 
Q 2778 4147 2406 4147 
L 1613 4147 
z
M 2772 2241 
Q 2972 2194 3105 2009 
Q 3238 1825 3413 1275 
L 3809 0 
L 3144 0 
L 2778 1197 
Q 2638 1659 2453 1815 
Q 2269 1972 1888 1972 
L 1191 1972 
L 806 0 
L 172 0 
L 1081 4666 
L 2503 4666 
Q 3150 4666 3495 4373 
Q 3841 4081 3841 3531 
Q 3841 3044 3547 2687 
Q 3253 2331 2772 2241 
z
" transform="scale(0.015625)"/>
       <path id="DejaVuSans-Oblique-65" d="M 3078 2063 
Q 3088 2113 3092 2166 
Q 3097 2219 3097 2272 
Q 3097 2653 2873 2875 
Q 2650 3097 2266 3097 
Q 1838 3097 1509 2826 
Q 1181 2556 1013 2059 
L 3078 2063 
z
M 3578 1613 
L 903 1613 
Q 884 1494 878 1425 
Q 872 1356 872 1306 
Q 872 872 1139 634 
Q 1406 397 1894 397 
Q 2269 397 2603 481 
Q 2938 566 3225 728 
L 3116 159 
Q 2806 34 2476 -28 
Q 2147 -91 1806 -91 
Q 1078 -91 686 257 
Q 294 606 294 1247 
Q 294 1794 489 2264 
Q 684 2734 1063 3103 
Q 1306 3334 1642 3459 
Q 1978 3584 2356 3584 
Q 2950 3584 3301 3228 
Q 3653 2872 3653 2272 
Q 3653 2128 3634 1964 
Q 3616 1800 3578 1613 
z
" transform="scale(0.015625)"/>
       <path id="DejaVuSans-28" d="M 1984 4856 
Q 1566 4138 1362 3434 
Q 1159 2731 1159 2009 
Q 1159 1288 1364 580 
Q 1569 -128 1984 -844 
L 1484 -844 
Q 1016 -109 783 600 
Q 550 1309 550 2009 
Q 550 2706 781 3412 
Q 1013 4119 1484 4856 
L 1984 4856 
z
" transform="scale(0.015625)"/>
       <path id="DejaVuSans-Oblique-61" d="M 3438 1997 
L 3047 0 
L 2472 0 
L 2578 531 
Q 2325 219 2001 64 
Q 1678 -91 1281 -91 
Q 834 -91 548 182 
Q 263 456 263 884 
Q 263 1497 752 1853 
Q 1241 2209 2100 2209 
L 2900 2209 
L 2931 2363 
Q 2938 2388 2941 2417 
Q 2944 2447 2944 2509 
Q 2944 2788 2717 2942 
Q 2491 3097 2081 3097 
Q 1800 3097 1504 3025 
Q 1209 2953 897 2809 
L 997 3341 
Q 1322 3463 1633 3523 
Q 1944 3584 2234 3584 
Q 2853 3584 3176 3315 
Q 3500 3047 3500 2534 
Q 3500 2431 3484 2292 
Q 3469 2153 3438 1997 
z
M 2816 1759 
L 2241 1759 
Q 1534 1759 1195 1570 
Q 856 1381 856 984 
Q 856 709 1029 553 
Q 1203 397 1509 397 
Q 1978 397 2328 733 
Q 2678 1069 2791 1631 
L 2816 1759 
z
" transform="scale(0.015625)"/>
       <path id="DejaVuSans-Oblique-69" d="M 1172 4863 
L 1747 4863 
L 1606 4134 
L 1031 4134 
L 1172 4863 
z
M 909 3500 
L 1484 3500 
L 800 0 
L 225 0 
L 909 3500 
z
" transform="scale(0.015625)"/>
       <path id="DejaVuSans-29" d="M 513 4856 
L 1013 4856 
Q 1481 4119 1714 3412 
Q 1947 2706 1947 2009 
Q 1947 1309 1714 600 
Q 1481 -109 1013 -844 
L 513 -844 
Q 928 -128 1133 580 
Q 1338 1288 1338 2009 
Q 1338 2731 1133 3434 
Q 928 4138 513 4856 
z
" transform="scale(0.015625)"/>
       <path id="DejaVuSans-2f" d="M 1625 4666 
L 2156 4666 
L 531 -594 
L 0 -594 
L 1625 4666 
z
" transform="scale(0.015625)"/>
       <path id="DejaVuSans-Oblique-72" d="M 2853 2969 
Q 2766 3016 2653 3041 
Q 2541 3066 2413 3066 
Q 1953 3066 1609 2717 
Q 1266 2369 1153 1784 
L 800 0 
L 225 0 
L 909 3500 
L 1484 3500 
L 1375 2956 
Q 1603 3259 1920 3421 
Q 2238 3584 2597 3584 
Q 2691 3584 2781 3573 
Q 2872 3563 2963 3538 
L 2853 2969 
z
" transform="scale(0.015625)"/>
      </defs>
      <use xlink:href="#DejaVuSans-Oblique-52" transform="translate(0 0.125)"/>
      <use xlink:href="#DejaVuSans-Oblique-65" transform="translate(69.482422 0.125)"/>
      <use xlink:href="#DejaVuSans-28" transform="translate(131.005859 0.125)"/>
      <use xlink:href="#DejaVuSans-Oblique-61" transform="translate(170.019531 0.125)"/>
      <use xlink:href="#DejaVuSans-Oblique-69" transform="translate(231.298828 -16.28125) scale(0.7)"/>
      <use xlink:href="#DejaVuSans-29" transform="translate(253.481445 0.125)"/>
      <use xlink:href="#DejaVuSans-2f" transform="translate(292.495117 0.125)"/>
      <use xlink:href="#DejaVuSans-Oblique-72" transform="translate(326.186523 0.125)"/>
      <use xlink:href="#DejaVuSans-Oblique-69" transform="translate(367.299805 -16.28125) scale(0.7)"/>
     </g>
    </g>
   </g>
   <g id="line2d_9">
    <path d="M 61.698 67.766432 
L 62.398742 58.773702 
L 63.099485 52.306222 
L 63.800227 47.707848 
L 64.500969 44.577197 
L 65.101606 42.898678 
L 65.602136 42.156957 
L 66.00256 41.979994 
L 66.302878 42.086802 
L 66.703303 42.545971 
L 67.103727 43.364535 
L 67.604257 44.887855 
L 68.204893 47.436019 
L 68.905636 51.367727 
L 69.80659 57.839991 
L 70.907757 67.646196 
L 72.309242 82.416137 
L 77.114332 135.355473 
L 78.215499 144.170962 
L 79.116453 149.633322 
L 79.817196 152.647866 
L 80.417832 154.30864 
L 80.818256 154.923439 
L 81.118574 155.120515 
L 81.418892 155.088837 
L 81.719211 154.827124 
L 82.119635 154.119801 
L 82.620165 152.662563 
L 83.220801 150.087585 
L 83.921544 145.986439 
L 84.722392 139.952228 
L 85.723453 130.636911 
L 87.024831 116.253257 
L 91.930028 59.399272 
L 92.931089 51.372278 
L 93.731937 46.59867 
L 94.332573 44.084343 
L 94.833104 42.72541 
L 95.233528 42.133232 
L 95.533846 41.981314 
L 95.834164 42.080794 
L 96.134482 42.431286 
L 96.534906 43.286298 
L 97.035437 44.968132 
L 97.636073 47.857134 
L 98.336815 52.361758 
L 99.23777 59.775757 
L 100.338936 70.903415 
L 101.840527 88.580709 
L 105.244133 129.477889 
L 106.445406 140.864417 
L 107.34636 147.479126 
L 108.047103 151.288065 
L 108.647739 153.543978 
L 109.148269 154.681282 
L 109.548693 155.094579 
L 109.849012 155.112583 
L 110.14933 154.880209 
L 110.549754 154.182958 
L 111.050284 152.697307 
L 111.65092 150.039459 
L 112.351663 145.793886 
L 113.152511 139.560655 
L 114.153572 129.991119 
L 115.555057 114.138466 
L 119.859617 63.317258 
L 120.960783 53.697546 
L 121.861738 47.770818 
L 122.56248 44.536634 
L 123.163117 42.788587 
L 123.563541 42.165252 
L 123.863859 41.986082 
L 124.164177 42.05493 
L 124.464495 42.371408 
L 124.864919 43.175879 
L 125.36545 44.786508 
L 125.966086 47.579228 
L 126.666828 51.958859 
L 127.567783 59.198109 
L 128.668949 70.105085 
L 130.17054 87.508357 
L 133.774358 130.294436 
L 134.875525 140.585893 
L 135.776479 147.207835 
L 136.577328 151.507425 
L 137.177964 153.667068 
L 137.678494 154.738211 
L 138.078918 155.108712 
L 138.379237 155.100854 
L 138.679555 154.848132 
L 139.079979 154.132487 
L 139.580509 152.637991 
L 140.181146 149.990024 
L 140.881888 145.782905 
L 141.782842 138.763216 
L 142.884009 128.10525 
L 144.3856 110.97019 
L 148.18963 66.173707 
L 149.290796 56.069091 
L 150.191751 49.596327 
L 150.992599 45.418065 
L 151.593236 43.338728 
L 152.093766 42.325827 
L 152.49419 41.995532 
L 152.794508 42.029556 
L 153.094826 42.304876 
L 153.495251 43.044935 
L 153.995781 44.560563 
L 154.596417 47.220049 
L 155.29716 51.421978 
L 156.198114 58.407718 
L 157.299281 68.989463 
L 158.800871 85.981875 
L 162.705008 131.497465 
L 163.806174 141.418246 
L 164.707129 147.753707 
L 165.507977 151.828665 
L 166.108613 153.845807 
L 166.609144 154.818461 
L 167.009568 155.124747 
L 167.309886 155.077698 
L 167.610204 154.793719 
L 168.010628 154.048983 
L 168.511159 152.53854 
L 169.111795 149.901103 
L 169.812537 145.745465 
L 170.713492 138.847822 
L 171.814658 128.406797 
L 173.216143 112.812724 
L 177.420597 64.481603 
L 178.521764 54.885595 
L 179.422718 48.811699 
L 180.123461 45.350666 
L 180.724097 43.328647 
L 181.224627 42.334799 
L 181.625052 42.000132 
L 181.92537 42.019237 
L 182.225688 42.269633 
L 182.626112 42.961021 
L 183.126642 44.391579 
L 183.727279 46.91527 
L 184.428021 50.91679 
L 185.328975 57.590462 
L 186.430142 67.736973 
L 187.831627 82.967248 
L 192.336399 133.77538 
L 193.437566 143.001089 
L 194.33852 148.795021 
L 195.039263 152.066111 
L 195.639899 153.951209 
L 196.140429 154.852296 
L 196.540853 155.128062 
L 196.841172 155.074196 
L 197.14149 154.797366 
L 197.541914 154.083954 
L 198.042444 152.647348 
L 198.643081 150.147717 
L 199.343823 146.215861 
L 200.244777 139.691583 
L 201.345944 129.801543 
L 202.747429 114.966672 
L 207.452413 63.133577 
L 208.55358 54.151155 
L 209.454534 48.473727 
L 210.155277 45.229703 
L 210.755913 43.318682 
L 211.256443 42.359651 
L 211.656867 42.013339 
L 211.957186 42.000205 
L 212.257504 42.198102 
L 212.657928 42.788112 
L 213.158458 44.04245 
L 213.759095 46.28524 
L 214.459837 49.87143 
L 215.260685 55.152426 
L 216.261746 63.311052 
L 217.563125 75.963031 
L 219.565246 98.004501 
L 222.067897 125.121921 
L 223.369276 136.989484 
L 224.470442 145.050621 
L 225.371397 150.017796 
L 226.072139 152.762745 
L 226.672775 154.295427 
L 227.173306 154.979672 
L 227.57373 155.135023 
L 227.874048 155.022594 
L 228.274472 154.568827 
L 228.775003 153.518656 
L 229.375639 151.565925 
L 230.076381 148.370705 
L 230.87723 143.588024 
L 231.87829 136.092336 
L 233.079563 125.259928 
L 234.781366 107.600983 
L 238.48529 68.505974 
L 239.786668 57.435603 
L 240.787729 50.668821 
L 241.588577 46.553016 
L 242.28932 43.991133 
L 242.889956 42.610732 
L 243.29038 42.121316 
L 243.690804 41.981821 
L 243.991123 42.108206 
L 244.391547 42.584963 
L 244.892077 43.673701 
L 245.492713 45.691917 
L 246.193456 48.996935 
L 246.994304 53.95721 
L 247.995365 61.76024 
L 249.196637 73.080905 
L 250.89844 91.57801 
L 254.302046 129.095573 
L 255.503319 139.813268 
L 256.504379 146.878086 
L 257.305228 151.07193 
L 258.00597 153.568008 
L 258.5065 154.643895 
L 258.906924 155.068716 
L 259.207243 155.130056 
L 259.507561 154.969941 
L 259.907985 154.412296 
L 260.408515 153.166469 
L 261.009152 150.882689 
L 261.709894 147.173504 
L 261.81 146.555632 
L 261.81 146.555632 
" clip-path="url(#p208c54892f)" style="fill: none; stroke: #000000; stroke-width: 1.5; stroke-linecap: square"/>
   </g>
   <g id="line2d_10">
    <path d="M 61.698 23.844545 
L 62.298636 29.071698 
L 62.899273 32.54557 
L 63.800227 36.315596 
L 64.801288 40.674679 
L 65.602136 45.272748 
L 66.503091 51.980522 
L 67.504151 61.254172 
L 68.905636 76.631128 
L 72.709666 119.893762 
L 73.810832 129.631971 
L 74.811893 136.568757 
L 75.612741 140.66197 
L 76.313484 143.138774 
L 76.91412 144.435728 
L 77.314544 144.880125 
L 77.714968 144.992722 
L 78.015287 144.862269 
L 78.415711 144.405961 
L 78.916241 143.389337 
L 79.516877 141.528873 
L 80.21762 138.498927 
L 81.018468 133.945415 
L 81.919423 127.520557 
L 83.020589 118.035199 
L 84.622286 102.000298 
L 87.525362 72.54045 
L 88.726634 62.782925 
L 89.627589 57.140878 
L 90.328331 53.922949 
L 90.928967 52.048797 
L 91.429498 51.136623 
L 91.829922 50.840205 
L 92.13024 50.872069 
L 92.430558 51.121391 
L 92.830982 51.789427 
L 93.331513 53.154577 
L 93.932149 55.544437 
L 94.632891 59.309242 
L 95.533846 65.541915 
L 96.635013 74.923276 
L 98.136603 89.831112 
L 101.440103 123.283293 
L 102.641376 132.946889 
L 103.54233 138.586666 
L 104.343179 142.237513 
L 104.943815 144.061685 
L 105.444345 144.957372 
L 105.844769 145.257585 
L 106.145088 145.23851 
L 106.445406 145.010413 
L 106.84583 144.383517 
L 107.34636 143.089607 
L 107.946996 140.812236 
L 108.647739 137.211544 
L 109.548693 131.23164 
L 110.64986 122.200771 
L 112.151451 107.788683 
L 115.655163 73.397009 
L 116.756329 64.854315 
L 117.657284 59.353411 
L 118.458132 55.778491 
L 119.058768 53.979849 
L 119.559299 53.084376 
L 119.959723 52.770565 
L 120.260041 52.771515 
L 120.560359 52.974825 
L 120.960783 53.558596 
L 121.461314 54.783127 
L 122.06195 56.956201 
L 122.762692 60.409579 
L 123.663647 66.167372 
L 124.764813 74.893977 
L 126.266404 88.877086 
L 129.870222 123.388809 
L 131.071495 132.37896 
L 131.972449 137.585806 
L 132.673192 140.576839 
L 133.273828 142.344085 
L 133.774358 143.232067 
L 134.174782 143.552243 
L 134.475101 143.563251 
L 134.775419 143.377984 
L 135.175843 142.827555 
L 135.676373 141.659109 
L 136.27701 139.573204 
L 136.977752 136.246211 
L 137.878706 130.683403 
L 138.979873 122.229855 
L 140.481464 108.641142 
L 144.285494 73.211869 
L 145.38666 65.258036 
L 146.287615 60.180174 
L 147.088463 56.917524 
L 147.6891 55.305741 
L 148.18963 54.53166 
L 148.590054 54.291228 
L 148.890372 54.332948 
L 149.290796 54.683853 
L 149.691221 55.369111 
L 150.191751 56.686831 
L 150.792387 58.921552 
L 151.49313 62.377858 
L 152.394084 68.03415 
L 153.495251 76.49082 
L 154.996841 89.901092 
L 158.500553 121.907794 
L 159.701826 130.604408 
L 160.60278 135.714413 
L 161.403629 139.064712 
L 162.004265 140.778481 
L 162.504795 141.660494 
L 162.90522 142.001598 
L 163.205538 142.043316 
L 163.505856 141.901532 
L 163.90628 141.428637 
L 164.40681 140.387608 
L 165.007447 138.496923 
L 165.708189 135.450664 
L 166.509038 130.951692 
L 167.510098 124.008338 
L 168.811477 113.310204 
L 173.916885 69.388448 
L 174.917946 63.423025 
L 175.718794 59.814949 
L 176.419537 57.595811 
L 177.020173 56.428423 
L 177.420597 56.036542 
L 177.821022 55.956586 
L 178.12134 56.101307 
L 178.521764 56.565445 
L 179.022294 57.575202 
L 179.62293 59.399103 
L 180.323673 62.328974 
L 181.124521 66.648741 
L 182.125582 73.310222 
L 183.42696 83.576536 
L 186.029718 106.467423 
L 187.831627 121.184872 
L 189.032899 129.243564 
L 189.933854 133.996115 
L 190.734702 137.13998 
L 191.335339 138.776614 
L 191.835869 139.648574 
L 192.236293 140.018185 
L 192.636717 140.094355 
L 193.037142 139.877533 
L 193.437566 139.370247 
L 193.938096 138.334833 
L 194.538732 136.521973 
L 195.239475 133.661892 
L 196.140429 128.910327 
L 197.241596 121.708306 
L 198.643081 110.919835 
L 203.247959 74.100075 
L 204.349126 67.519161 
L 205.25008 63.328747 
L 206.050928 60.623177 
L 206.651565 59.265038 
L 207.152095 58.58667 
L 207.552519 58.34437 
L 207.952943 58.369547 
L 208.353368 58.660719 
L 208.853898 59.393627 
L 209.454534 60.800324 
L 210.155277 63.135705 
L 210.956125 66.653465 
L 211.957186 72.17311 
L 213.158458 80.121868 
L 214.960367 93.736562 
L 217.963549 116.517011 
L 219.264927 124.750476 
L 220.366094 130.354834 
L 221.267049 133.829099 
L 221.967791 135.772062 
L 222.568427 136.882622 
L 223.068957 137.407841 
L 223.469382 137.563811 
L 223.869806 137.484994 
L 224.27023 137.172894 
L 224.77076 136.45916 
L 225.371397 135.139535 
L 226.072139 132.987649 
L 226.872987 129.773673 
L 227.874048 124.74244 
L 229.075321 117.469885 
L 230.677018 106.310529 
L 234.881472 76.253731 
L 236.18285 68.87965 
L 237.183911 64.3965 
L 237.984759 61.689651 
L 238.685502 60.026963 
L 239.286138 59.157438 
L 239.786668 58.838618 
L 240.187093 58.854355 
L 240.587517 59.113081 
L 241.088047 59.77903 
L 241.688683 61.0776 
L 242.389426 63.26768 
L 243.190274 66.62402 
L 244.091229 71.407232 
L 245.192395 78.514372 
L 246.59388 89.09134 
L 251.39897 126.885517 
L 252.500137 133.153945 
L 253.300985 136.623424 
L 254.001728 138.80374 
L 254.602364 139.990579 
L 255.102894 140.478964 
L 255.503319 140.535312 
L 255.903743 140.292151 
L 256.304167 139.749744 
L 256.804697 138.654985 
L 257.405334 136.743828 
L 258.106076 133.726196 
L 259.007031 128.69837 
L 260.108197 121.04713 
L 261.509682 109.5418 
L 261.81 106.905721 
L 261.81 106.905721 
" clip-path="url(#p208c54892f)" style="fill: none; stroke: #808080; stroke-width: 1.5; stroke-linecap: square"/>
   </g>
   <g id="line2d_11">
    <path d="M 61.698 53.612768 
L 62.19853 45.541451 
L 62.598954 41.724402 
L 62.899273 40.233172 
L 63.099485 39.82802 
L 63.299697 39.854576 
L 63.499909 40.279965 
L 63.800227 41.596796 
L 64.200651 44.463237 
L 64.801288 50.700106 
L 65.602136 61.629526 
L 67.003621 84.453982 
L 69.105848 118.192619 
L 70.207015 132.345367 
L 71.107969 141.191165 
L 71.808711 146.163023 
L 72.409348 149.040731 
L 72.909878 150.458913 
L 73.310302 150.961251 
L 73.61062 150.977551 
L 73.910938 150.693072 
L 74.311363 149.861572 
L 74.811893 148.131202 
L 75.412529 145.11722 
L 76.213378 139.692999 
L 77.214438 131.06496 
L 78.515817 117.682833 
L 83.52112 63.734793 
L 84.52218 56.219449 
L 85.323029 51.788665 
L 85.923665 49.504272 
L 86.424195 48.32276 
L 86.824619 47.863842 
L 87.124937 47.806626 
L 87.425256 47.995928 
L 87.82568 48.63003 
L 88.32621 50.027388 
L 88.926846 52.563904 
L 89.627589 56.641788 
L 90.428437 62.63849 
L 91.429498 71.823237 
L 92.830982 86.918648 
L 96.534906 128.024984 
L 97.636073 137.396684 
L 98.537028 143.255418 
L 99.23777 146.515274 
L 99.838406 148.337532 
L 100.338936 149.145625 
L 100.639255 149.315887 
L 100.939573 149.249417 
L 101.239891 148.94686 
L 101.640315 148.179374 
L 102.140845 146.645524 
L 102.741482 143.991485 
L 103.442224 139.840631 
L 104.343179 133.006308 
L 105.444345 122.769833 
L 107.046042 105.464634 
L 110.049224 72.67448 
L 111.250496 62.139115 
L 112.151451 55.968424 
L 112.952299 51.95869 
L 113.552935 49.944285 
L 114.053466 48.945254 
L 114.45389 48.59965 
L 114.754208 48.606731 
L 115.054526 48.841803 
L 115.45495 49.507398 
L 115.955481 50.896296 
L 116.556117 53.353911 
L 117.256859 57.25094 
L 118.157814 63.733729 
L 119.25898 73.530531 
L 120.760571 89.156491 
L 124.164177 125.336001 
L 125.36545 135.373403 
L 126.266404 141.181794 
L 126.967147 144.509392 
L 127.567783 146.464942 
L 128.068313 147.435919 
L 128.468737 147.773127 
L 128.769056 147.767976 
L 129.069374 147.541842 
L 129.469798 146.898901 
L 129.970328 145.555071 
L 130.570964 143.174767 
L 131.271707 139.396985 
L 132.172661 133.106072 
L 133.273828 123.585678 
L 134.775419 108.36547 
L 138.279131 71.968952 
L 139.380297 62.914442 
L 140.281252 57.080018 
L 141.0821 53.285417 
L 141.682736 51.374136 
L 142.183267 50.42069 
L 142.583691 50.084558 
L 142.884009 50.082933 
L 143.184327 50.295829 
L 143.584751 50.911207 
L 144.085282 52.205104 
L 144.685918 54.50397 
L 145.38666 58.159746 
L 146.287615 64.257765 
L 147.388781 73.502862 
L 148.890372 88.319462 
L 152.49419 124.885898 
L 153.595357 133.702207 
L 154.496311 139.38408 
L 155.29716 143.083559 
L 155.897796 144.951677 
L 156.398326 145.888757 
L 156.79875 146.224966 
L 157.099069 146.234393 
L 157.399387 146.035923 
L 157.799811 145.449977 
L 158.300341 144.208882 
L 158.900977 141.995798 
L 159.60172 138.468532 
L 160.502674 132.574338 
L 161.603841 123.622177 
L 163.105432 109.240814 
L 166.909462 71.788273 
L 168.010628 63.389972 
L 168.911583 58.03106 
L 169.712431 54.589409 
L 170.313068 52.88993 
L 170.813598 52.074092 
L 171.214022 51.820898 
L 171.51434 51.865051 
L 171.814658 52.109344 
L 172.215083 52.743927 
L 172.715613 54.025238 
L 173.316249 56.255836 
L 174.016991 59.761155 
L 174.917946 65.562298 
L 176.019113 74.310712 
L 177.520703 88.28815 
L 181.224627 123.703164 
L 182.4259 132.65773 
L 183.326854 137.865784 
L 184.127703 141.233849 
L 184.728339 142.91923 
L 185.228869 143.751507 
L 185.629294 144.036633 
L 185.929612 144.027417 
L 186.22993 143.827424 
L 186.630354 143.266274 
L 187.130884 142.099241 
L 187.731521 140.037147 
L 188.432263 136.768032 
L 189.333218 131.324054 
L 190.434384 123.072109 
L 191.935975 109.817461 
L 195.840111 74.209151 
L 197.041384 65.731731 
L 197.942338 60.800108 
L 198.743187 57.6016 
L 199.343823 55.989482 
L 199.844353 55.18015 
L 200.244777 54.887409 
L 200.545096 54.875452 
L 200.94552 55.135268 
L 201.345944 55.707071 
L 201.846474 56.851855 
L 202.447111 58.834855 
L 203.147853 61.940633 
L 204.048807 67.06813 
L 205.149974 74.789989 
L 206.651565 87.134203 
L 210.655807 121.03038 
L 211.85708 128.89562 
L 212.758034 133.512992 
L 213.558882 136.561036 
L 214.259625 138.354111 
L 214.760155 139.118658 
L 215.160579 139.416945 
L 215.561004 139.436761 
L 215.961428 139.180235 
L 216.361852 138.651404 
L 216.862382 137.616584 
L 217.463019 135.847492 
L 218.163761 133.100853 
L 219.064715 128.595903 
L 220.165882 121.843692 
L 221.667473 111.071687 
L 226.072139 78.455016 
L 227.273412 71.582237 
L 228.274472 67.056997 
L 229.075321 64.32349 
L 229.776063 62.618045 
L 230.376699 61.680093 
L 230.87723 61.27095 
L 231.277654 61.186764 
L 231.678078 61.316669 
L 232.178608 61.775384 
L 232.679139 62.555576 
L 233.279775 63.901128 
L 233.980517 66.006664 
L 234.881472 69.495532 
L 235.982638 74.80997 
L 237.284017 82.296853 
L 239.085926 94.105861 
L 243.090168 120.846977 
L 244.391547 127.974594 
L 245.492713 132.817294 
L 246.393668 135.778164 
L 247.09441 137.371454 
L 247.695047 138.201065 
L 248.195577 138.494609 
L 248.596001 138.460544 
L 248.996425 138.182595 
L 249.496955 137.487843 
L 250.097592 136.142158 
L 250.798334 133.871787 
L 251.599183 130.380717 
L 252.500137 125.382828 
L 253.601304 117.920808 
L 255.002788 106.769616 
L 259.707773 67.752205 
L 260.708833 61.715337 
L 261.509682 57.99661 
L 261.81 56.886478 
L 261.81 56.886478 
" clip-path="url(#p208c54892f)" style="fill: none; stroke: #808080; stroke-width: 1.5; stroke-linecap: square"/>
   </g>
   <g id="patch_3">
    <path d="M 61.698 161.7 
L 61.698 17.28 
" style="fill: none; stroke: #000000; stroke-width: 0.8; stroke-linejoin: miter; stroke-linecap: square"/>
   </g>
   <g id="patch_4">
    <path d="M 261.81 161.7 
L 261.81 17.28 
" style="fill: none; stroke: #000000; stroke-width: 0.8; stroke-linejoin: miter; stroke-linecap: square"/>
   </g>
   <g id="patch_5">
    <path d="M 61.698 161.7 
L 261.81 161.7 
" style="fill: none; stroke: #000000; stroke-width: 0.8; stroke-linejoin: miter; stroke-linecap: square"/>
   </g>
   <g id="patch_6">
    <path d="M 61.698 17.28 
L 261.81 17.28 
" style="fill: none; stroke: #000000; stroke-width: 0.8; stroke-linejoin: miter; stroke-linecap: square"/>
   </g>
  </g>
 </g>
 <defs>
  <clipPath id="p208c54892f">
   <rect x="61.698" y="17.28" width="200.112" height="144.42"/>
  </clipPath>
 </defs>
</svg>
