<?xml version="1.0" encoding="utf-8" standalone="no"?>
<!DOCTYPE svg PUBLIC "-//W3C//DTD SVG 1.1//EN"
  "http://www.w3.org/Graphics/SVG/1.1/DTD/svg11.dtd">
<svg xmlns:xlink="http://www.w3.org/1999/xlink" width="288pt" height="216pt" viewBox="0 0 288 216" xmlns="http://www.w3.org/2000/svg" version="1.1">
 <metadata>
  <rdf:RDF xmlns:dc="http://purl.org/dc/elements/1.1/" xmlns:cc="http://creativecommons.org/ns#" xmlns:rdf="http://www.w3.org/1999/02/22-rdf-syntax-ns#">
   <cc:Work>
    <dc:type rdf:resource="http://purl.org/dc/dcmitype/StillImage"/>
    <dc:date>2024-07-17T13:39:22.646299</dc:date>
    <dc:format>image/svg+xml</dc:format>
    <dc:creator>
     <cc:Agent>
      <dc:title>Matplotlib v3.7.2, https://matplotlib.org/</dc:title>
     </cc:Agent>
    </dc:creator>
   </cc:Work>
  </rdf:RDF>
 </metadata>
 <defs>
  <style type="text/css">*{stroke-linejoin: round; stroke-linecap: butt}</style>
 </defs>
 <g id="figure_1">
  <g id="patch_1">
   <path d="M 0 216 
L 288 216 
L 288 0 
L 0 0 
L 0 216 
z
" style="fill: none"/>
  </g>
  <g id="axes_1">
   <g id="patch_2">
    <path d="M 61.698 161.7 
L 252.9 161.7 
L 252.9 17.28 
L 61.698 17.28 
L 61.698 161.7 
z
" style="fill: none"/>
   </g>
   <g id="matplotlib.axis_1">
    <g id="xtick_1">
     <g id="line2d_1">
      <defs>
       <path id="m524a4be48a" d="M 0 0 
L 0 -3.5 
" style="stroke: #000000; stroke-width: 0.8"/>
      </defs>
      <g>
       <use xlink:href="#m524a4be48a" x="61.698" y="161.7" style="stroke: #000000; stroke-width: 0.8"/>
      </g>
     </g>
     <g id="text_1">
      <!-- 0 -->
      <g transform="translate(57.24925 176.6525) scale(0.16 -0.16)">
       <defs>
        <path id="ArialMT-30" d="M 266 2259 
Q 266 3072 433 3567 
Q 600 4063 929 4331 
Q 1259 4600 1759 4600 
Q 2128 4600 2406 4451 
Q 2684 4303 2865 4023 
Q 3047 3744 3150 3342 
Q 3253 2941 3253 2259 
Q 3253 1453 3087 958 
Q 2922 463 2592 192 
Q 2263 -78 1759 -78 
Q 1097 -78 719 397 
Q 266 969 266 2259 
z
M 844 2259 
Q 844 1131 1108 757 
Q 1372 384 1759 384 
Q 2147 384 2411 759 
Q 2675 1134 2675 2259 
Q 2675 3391 2411 3762 
Q 2147 4134 1753 4134 
Q 1366 4134 1134 3806 
Q 844 3388 844 2259 
z
" transform="scale(0.015625)"/>
       </defs>
       <use xlink:href="#ArialMT-30"/>
      </g>
     </g>
    </g>
    <g id="xtick_2">
     <g id="line2d_2">
      <g>
       <use xlink:href="#m524a4be48a" x="157.299" y="161.7" style="stroke: #000000; stroke-width: 0.8"/>
      </g>
     </g>
     <g id="text_2">
      <!-- 2000 -->
      <g transform="translate(139.504 176.6525) scale(0.16 -0.16)">
       <defs>
        <path id="ArialMT-32" d="M 3222 541 
L 3222 0 
L 194 0 
Q 188 203 259 391 
Q 375 700 629 1000 
Q 884 1300 1366 1694 
Q 2113 2306 2375 2664 
Q 2638 3022 2638 3341 
Q 2638 3675 2398 3904 
Q 2159 4134 1775 4134 
Q 1369 4134 1125 3890 
Q 881 3647 878 3216 
L 300 3275 
Q 359 3922 746 4261 
Q 1134 4600 1788 4600 
Q 2447 4600 2831 4234 
Q 3216 3869 3216 3328 
Q 3216 3053 3103 2787 
Q 2991 2522 2730 2228 
Q 2469 1934 1863 1422 
Q 1356 997 1212 845 
Q 1069 694 975 541 
L 3222 541 
z
" transform="scale(0.015625)"/>
       </defs>
       <use xlink:href="#ArialMT-32"/>
       <use xlink:href="#ArialMT-30" x="55.615234"/>
       <use xlink:href="#ArialMT-30" x="111.230469"/>
       <use xlink:href="#ArialMT-30" x="166.845703"/>
      </g>
     </g>
    </g>
    <g id="xtick_3">
     <g id="line2d_3">
      <g>
       <use xlink:href="#m524a4be48a" x="252.9" y="161.7" style="stroke: #000000; stroke-width: 0.8"/>
      </g>
     </g>
     <g id="text_3">
      <!-- 4000 -->
      <g transform="translate(235.105 176.6525) scale(0.16 -0.16)">
       <defs>
        <path id="ArialMT-34" d="M 2069 0 
L 2069 1097 
L 81 1097 
L 81 1613 
L 2172 4581 
L 2631 4581 
L 2631 1613 
L 3250 1613 
L 3250 1097 
L 2631 1097 
L 2631 0 
L 2069 0 
z
M 2069 1613 
L 2069 3678 
L 634 1613 
L 2069 1613 
z
" transform="scale(0.015625)"/>
       </defs>
       <use xlink:href="#ArialMT-34"/>
       <use xlink:href="#ArialMT-30" x="55.615234"/>
       <use xlink:href="#ArialMT-30" x="111.230469"/>
       <use xlink:href="#ArialMT-30" x="166.845703"/>
      </g>
     </g>
    </g>
    <g id="text_4">
     <!-- $t$ -->
     <g transform="translate(154.099 195.285) scale(0.16 -0.16)">
      <defs>
       <path id="DejaVuSans-Oblique-74" d="M 2706 3500 
L 2619 3053 
L 1472 3053 
L 1100 1153 
Q 1081 1047 1072 975 
Q 1063 903 1063 863 
Q 1063 663 1183 572 
Q 1303 481 1569 481 
L 2150 481 
L 2053 0 
L 1503 0 
Q 991 0 739 200 
Q 488 400 488 806 
Q 488 878 497 964 
Q 506 1050 525 1153 
L 897 3053 
L 409 3053 
L 500 3500 
L 978 3500 
L 1172 4494 
L 1747 4494 
L 1556 3500 
L 2706 3500 
z
" transform="scale(0.015625)"/>
      </defs>
      <use xlink:href="#DejaVuSans-Oblique-74" transform="translate(0 0.78125)"/>
     </g>
    </g>
   </g>
   <g id="matplotlib.axis_2">
    <g id="ytick_1">
     <g id="line2d_4">
      <defs>
       <path id="m7354147255" d="M 0 0 
L 3.5 0 
" style="stroke: #000000; stroke-width: 0.8"/>
      </defs>
      <g>
       <use xlink:href="#m7354147255" x="61.698" y="153.864601" style="stroke: #000000; stroke-width: 0.8"/>
      </g>
     </g>
     <g id="text_5">
      <!-- −1 -->
      <g transform="translate(39.9555 159.590851) scale(0.16 -0.16)">
       <defs>
        <path id="ArialMT-2212" d="M 3381 1997 
L 356 1997 
L 356 2522 
L 3381 2522 
L 3381 1997 
z
" transform="scale(0.015625)"/>
        <path id="ArialMT-31" d="M 2384 0 
L 1822 0 
L 1822 3584 
Q 1619 3391 1289 3197 
Q 959 3003 697 2906 
L 697 3450 
Q 1169 3672 1522 3987 
Q 1875 4303 2022 4600 
L 2384 4600 
L 2384 0 
z
" transform="scale(0.015625)"/>
       </defs>
       <use xlink:href="#ArialMT-2212"/>
       <use xlink:href="#ArialMT-31" x="58.398438"/>
      </g>
     </g>
    </g>
    <g id="ytick_2">
     <g id="line2d_5">
      <g>
       <use xlink:href="#m7354147255" x="61.698" y="110.62692" style="stroke: #000000; stroke-width: 0.8"/>
      </g>
     </g>
     <g id="text_6">
      <!-- 0 -->
      <g transform="translate(49.3005 116.35317) scale(0.16 -0.16)">
       <use xlink:href="#ArialMT-30"/>
      </g>
     </g>
    </g>
    <g id="ytick_3">
     <g id="line2d_6">
      <g>
       <use xlink:href="#m7354147255" x="61.698" y="67.389239" style="stroke: #000000; stroke-width: 0.8"/>
      </g>
     </g>
     <g id="text_7">
      <!-- 1 -->
      <g transform="translate(49.3005 73.115489) scale(0.16 -0.16)">
       <use xlink:href="#ArialMT-31"/>
      </g>
     </g>
    </g>
    <g id="ytick_4">
     <g id="line2d_7">
      <g>
       <use xlink:href="#m7354147255" x="61.698" y="24.151558" style="stroke: #000000; stroke-width: 0.8"/>
      </g>
     </g>
     <g id="text_8">
      <!-- 2 -->
      <g transform="translate(49.3005 29.877808) scale(0.16 -0.16)">
       <use xlink:href="#ArialMT-32"/>
      </g>
     </g>
    </g>
    <g id="text_9">
     <!-- $Re(a_i)/r_i$ -->
     <g transform="translate(32.7755 120.69) rotate(-90) scale(0.16 -0.16)">
      <defs>
       <path id="DejaVuSans-Oblique-52" d="M 1613 4147 
L 1294 2491 
L 2106 2491 
Q 2584 2491 2879 2755 
Q 3175 3019 3175 3444 
Q 3175 3784 2976 3965 
Q 2778 4147 2406 4147 
L 1613 4147 
z
M 2772 2241 
Q 2972 2194 3105 2009 
Q 3238 1825 3413 1275 
L 3809 0 
L 3144 0 
L 2778 1197 
Q 2638 1659 2453 1815 
Q 2269 1972 1888 1972 
L 1191 1972 
L 806 0 
L 172 0 
L 1081 4666 
L 2503 4666 
Q 3150 4666 3495 4373 
Q 3841 4081 3841 3531 
Q 3841 3044 3547 2687 
Q 3253 2331 2772 2241 
z
" transform="scale(0.015625)"/>
       <path id="DejaVuSans-Oblique-65" d="M 3078 2063 
Q 3088 2113 3092 2166 
Q 3097 2219 3097 2272 
Q 3097 2653 2873 2875 
Q 2650 3097 2266 3097 
Q 1838 3097 1509 2826 
Q 1181 2556 1013 2059 
L 3078 2063 
z
M 3578 1613 
L 903 1613 
Q 884 1494 878 1425 
Q 872 1356 872 1306 
Q 872 872 1139 634 
Q 1406 397 1894 397 
Q 2269 397 2603 481 
Q 2938 566 3225 728 
L 3116 159 
Q 2806 34 2476 -28 
Q 2147 -91 1806 -91 
Q 1078 -91 686 257 
Q 294 606 294 1247 
Q 294 1794 489 2264 
Q 684 2734 1063 3103 
Q 1306 3334 1642 3459 
Q 1978 3584 2356 3584 
Q 2950 3584 3301 3228 
Q 3653 2872 3653 2272 
Q 3653 2128 3634 1964 
Q 3616 1800 3578 1613 
z
" transform="scale(0.015625)"/>
       <path id="DejaVuSans-28" d="M 1984 4856 
Q 1566 4138 1362 3434 
Q 1159 2731 1159 2009 
Q 1159 1288 1364 580 
Q 1569 -128 1984 -844 
L 1484 -844 
Q 1016 -109 783 600 
Q 550 1309 550 2009 
Q 550 2706 781 3412 
Q 1013 4119 1484 4856 
L 1984 4856 
z
" transform="scale(0.015625)"/>
       <path id="DejaVuSans-Oblique-61" d="M 3438 1997 
L 3047 0 
L 2472 0 
L 2578 531 
Q 2325 219 2001 64 
Q 1678 -91 1281 -91 
Q 834 -91 548 182 
Q 263 456 263 884 
Q 263 1497 752 1853 
Q 1241 2209 2100 2209 
L 2900 2209 
L 2931 2363 
Q 2938 2388 2941 2417 
Q 2944 2447 2944 2509 
Q 2944 2788 2717 2942 
Q 2491 3097 2081 3097 
Q 1800 3097 1504 3025 
Q 1209 2953 897 2809 
L 997 3341 
Q 1322 3463 1633 3523 
Q 1944 3584 2234 3584 
Q 2853 3584 3176 3315 
Q 3500 3047 3500 2534 
Q 3500 2431 3484 2292 
Q 3469 2153 3438 1997 
z
M 2816 1759 
L 2241 1759 
Q 1534 1759 1195 1570 
Q 856 1381 856 984 
Q 856 709 1029 553 
Q 1203 397 1509 397 
Q 1978 397 2328 733 
Q 2678 1069 2791 1631 
L 2816 1759 
z
" transform="scale(0.015625)"/>
       <path id="DejaVuSans-Oblique-69" d="M 1172 4863 
L 1747 4863 
L 1606 4134 
L 1031 4134 
L 1172 4863 
z
M 909 3500 
L 1484 3500 
L 800 0 
L 225 0 
L 909 3500 
z
" transform="scale(0.015625)"/>
       <path id="DejaVuSans-29" d="M 513 4856 
L 1013 4856 
Q 1481 4119 1714 3412 
Q 1947 2706 1947 2009 
Q 1947 1309 1714 600 
Q 1481 -109 1013 -844 
L 513 -844 
Q 928 -128 1133 580 
Q 1338 1288 1338 2009 
Q 1338 2731 1133 3434 
Q 928 4138 513 4856 
z
" transform="scale(0.015625)"/>
       <path id="DejaVuSans-2f" d="M 1625 4666 
L 2156 4666 
L 531 -594 
L 0 -594 
L 1625 4666 
z
" transform="scale(0.015625)"/>
       <path id="DejaVuSans-Oblique-72" d="M 2853 2969 
Q 2766 3016 2653 3041 
Q 2541 3066 2413 3066 
Q 1953 3066 1609 2717 
Q 1266 2369 1153 1784 
L 800 0 
L 225 0 
L 909 3500 
L 1484 3500 
L 1375 2956 
Q 1603 3259 1920 3421 
Q 2238 3584 2597 3584 
Q 2691 3584 2781 3573 
Q 2872 3563 2963 3538 
L 2853 2969 
z
" transform="scale(0.015625)"/>
      </defs>
      <use xlink:href="#DejaVuSans-Oblique-52" transform="translate(0 0.125)"/>
      <use xlink:href="#DejaVuSans-Oblique-65" transform="translate(69.482422 0.125)"/>
      <use xlink:href="#DejaVuSans-28" transform="translate(131.005859 0.125)"/>
      <use xlink:href="#DejaVuSans-Oblique-61" transform="translate(170.019531 0.125)"/>
      <use xlink:href="#DejaVuSans-Oblique-69" transform="translate(231.298828 -16.28125) scale(0.7)"/>
      <use xlink:href="#DejaVuSans-29" transform="translate(253.481445 0.125)"/>
      <use xlink:href="#DejaVuSans-2f" transform="translate(292.495117 0.125)"/>
      <use xlink:href="#DejaVuSans-Oblique-72" transform="translate(326.186523 0.125)"/>
      <use xlink:href="#DejaVuSans-Oblique-69" transform="translate(367.299805 -16.28125) scale(0.7)"/>
     </g>
    </g>
   </g>
   <g id="line2d_8">
    <path d="M 61.698 86.189955 
L 61.770658 125.861293 
L 61.858613 101.744032 
L 62.000105 67.392972 
L 62.045995 72.274203 
L 62.183663 124.680921 
L 62.30221 153.864136 
L 62.3481 149.08834 
L 62.485768 96.110227 
L 62.604316 67.391967 
L 62.650205 72.500645 
L 62.795521 129.054121 
L 62.902597 153.862194 
L 62.95231 148.374101 
L 63.105275 88.447336 
L 63.204702 67.390568 
L 63.254415 73.274046 
L 63.422677 139.040983 
L 63.502983 153.860512 
L 63.556521 147.57264 
L 63.805088 67.389707 
L 63.904515 88.912947 
L 64.103369 153.858399 
L 64.160731 146.720891 
L 64.405474 67.389285 
L 64.501077 87.318997 
L 64.70758 153.85606 
L 64.761117 146.796541 
L 65.005861 67.389302 
L 65.101464 87.20311 
L 65.307966 153.858578 
L 65.361504 146.871823 
L 65.606247 67.389758 
L 65.70185 87.08746 
L 65.908352 153.860657 
L 65.965714 145.979538 
L 66.206633 67.390653 
L 66.298412 85.54363 
L 66.508739 153.862298 
L 66.5661 146.058656 
L 66.80702 67.391986 
L 66.898798 85.431572 
L 67.109125 153.8635 
L 67.166487 146.137414 
L 67.407406 67.393757 
L 67.499185 85.319769 
L 67.709511 153.864263 
L 67.770697 145.205422 
L 68.007792 67.395968 
L 68.095747 83.829851 
L 68.309897 153.864588 
L 68.371083 145.287935 
L 68.612003 67.397185 
L 68.696133 83.721897 
L 68.910284 153.864474 
L 68.975294 144.313087 
L 69.212389 67.394764 
L 69.292695 82.28574 
L 69.51067 153.863921 
L 69.57568 144.399261 
L 69.812775 67.392781 
L 69.896906 83.50681 
L 70.111056 153.86293 
L 70.176066 144.485092 
L 70.413161 67.391237 
L 70.497292 83.399678 
L 70.711443 153.861499 
L 70.776453 144.570579 
L 71.013548 67.390133 
L 71.097678 83.292823 
L 71.311829 153.85963 
L 71.376839 144.655723 
L 71.613934 67.389466 
L 71.698065 83.186245 
L 71.912215 153.857323 
L 71.977225 144.74052 
L 72.21432 67.389239 
L 72.298451 83.079946 
L 72.516426 153.857229 
L 72.577611 144.824972 
L 72.814707 67.38945 
L 72.898837 82.973926 
L 73.116812 153.859553 
L 73.181822 143.828005 
L 73.415093 67.3901 
L 73.495399 81.564728 
L 73.717198 153.861438 
L 73.786032 142.786046 
L 74.015479 67.391189 
L 74.091962 80.209722 
L 74.317584 153.862884 
L 74.390243 141.700505 
L 74.615865 67.392716 
L 74.692348 80.11199 
L 74.917971 153.863892 
L 74.990629 141.796119 
L 75.216252 67.394682 
L 75.292734 80.014567 
L 75.518357 153.864461 
L 75.591015 141.891417 
L 75.816638 67.397087 
L 75.89312 79.917456 
L 76.118743 153.864592 
L 76.191401 141.986397 
L 76.420848 67.396058 
L 76.493507 79.820656 
L 76.71913 153.864283 
L 76.791788 142.081059 
L 77.021235 67.393831 
L 77.093893 79.724168 
L 77.319516 153.863536 
L 77.392174 142.175402 
L 77.621621 67.392043 
L 77.694279 79.627994 
L 77.919902 153.86235 
L 77.99256 142.269425 
L 78.222007 67.390694 
L 78.29849 80.758427 
L 78.520288 153.860726 
L 78.592947 142.363126 
L 78.822394 67.389783 
L 78.898876 80.658992 
L 79.120675 153.858662 
L 79.193333 142.456506 
L 79.42278 67.389311 
L 79.499262 80.559862 
L 79.721061 153.856161 
L 79.793719 142.549563 
L 80.023166 67.389278 
L 80.099649 80.461036 
L 80.325271 153.858312 
L 80.394105 142.642295 
L 80.623552 67.389684 
L 80.700035 80.362517 
L 80.925658 153.860442 
L 80.994492 142.734703 
L 81.223939 67.390528 
L 81.300421 80.264305 
L 81.526044 153.862133 
L 81.594878 142.826785 
L 81.824325 67.391811 
L 81.904631 81.417894 
L 82.12643 153.863385 
L 82.195264 142.918541 
L 82.424711 67.393533 
L 82.505018 81.316491 
L 82.726817 153.864198 
L 82.795651 143.009969 
L 83.025098 67.395693 
L 83.105404 81.215385 
L 83.327203 153.864573 
L 83.396037 143.101068 
L 83.629308 67.397489 
L 83.70579 81.114578 
L 83.927589 153.864509 
L 83.996423 143.191837 
L 84.229694 67.395018 
L 84.306177 81.01407 
L 84.527975 153.864007 
L 84.596809 143.282276 
L 84.830081 67.392985 
L 84.906563 80.913862 
L 85.128362 153.863065 
L 85.197196 143.372384 
L 85.430467 67.391392 
L 85.510773 82.090105 
L 85.728748 153.861685 
L 85.797582 143.46216 
L 86.030853 67.390237 
L 86.11116 81.986777 
L 86.329134 153.859866 
L 86.397968 143.551602 
L 86.631239 67.38952 
L 86.711546 81.88374 
L 86.929521 153.857609 
L 86.998355 143.640711 
L 87.231626 67.389243 
L 87.311932 81.780994 
L 87.533731 153.856935 
L 87.598741 143.729484 
L 87.832012 67.389404 
L 87.912318 81.678541 
L 88.134117 153.859309 
L 88.199127 143.817921 
L 88.432398 67.390004 
L 88.512705 81.576382 
L 88.734504 153.861245 
L 88.799514 143.906022 
L 89.032785 67.391042 
L 89.116915 82.774765 
L 89.33489 153.862741 
L 89.3999 143.993785 
L 89.633171 67.392519 
L 89.717301 82.669557 
L 89.935276 153.863799 
L 90.000286 144.081209 
L 90.233557 67.394435 
L 90.317688 82.564634 
L 90.535662 153.864419 
L 90.600672 144.168294 
L 90.833943 67.39679 
L 90.918074 82.459995 
L 91.136049 153.864599 
L 91.201059 144.255039 
L 91.438154 67.396341 
L 91.51846 82.355642 
L 91.736435 153.864341 
L 91.801445 144.341442 
L 92.03854 67.394064 
L 92.118847 82.251576 
L 92.336821 153.863644 
L 92.405655 143.322223 
L 92.638926 67.392226 
L 92.715409 80.86958 
L 92.937208 153.862508 
L 93.009866 142.258697 
L 93.239313 67.390826 
L 93.315795 80.769808 
L 93.537594 153.860934 
L 93.610252 142.352436 
L 93.839699 67.389865 
L 93.916181 80.670339 
L 94.13798 153.85892 
L 94.210638 142.445852 
L 94.440085 67.389343 
L 94.516568 80.571173 
L 94.738366 153.856469 
L 94.811025 142.538946 
L 95.040472 67.38926 
L 95.116954 80.472313 
L 95.342577 153.858041 
L 95.411411 142.631716 
L 95.640858 67.389615 
L 95.71734 80.373759 
L 95.942963 153.860221 
L 96.011797 142.724161 
L 96.241244 67.390409 
L 96.317727 80.275512 
L 96.543349 153.861962 
L 96.612183 142.81628 
L 96.84163 67.391642 
L 96.921937 81.4295 
L 97.143736 153.863264 
L 97.21257 142.908073 
L 97.442017 67.393314 
L 97.522323 81.328063 
L 97.744122 153.864128 
L 97.812956 142.999538 
L 98.042403 67.395424 
L 98.122709 81.226923 
L 98.344508 153.864553 
L 98.413342 143.090675 
L 98.646613 67.397799 
L 98.723096 81.126081 
L 98.944895 153.864539 
L 99.013729 143.181482 
L 99.247 67.395278 
L 99.323482 81.025539 
L 99.545281 153.864086 
L 99.614115 143.271959 
L 99.847386 67.393196 
L 99.923868 80.925297 
L 100.145667 153.863195 
L 100.214501 143.362105 
L 100.447772 67.391552 
L 100.528079 82.10193 
L 100.746053 153.861865 
L 100.814887 143.451918 
L 101.048159 67.390346 
L 101.128465 81.998569 
L 101.34644 153.860096 
L 101.415274 143.541399 
L 101.648545 67.38958 
L 101.728851 81.895498 
L 101.946826 153.857889 
L 102.01566 143.630545 
L 102.248931 67.389252 
L 102.329238 81.79272 
L 102.551036 153.856636 
L 102.616046 143.719357 
L 102.849317 67.389363 
L 102.929624 81.690233 
L 103.151423 153.85906 
L 103.216433 143.807833 
L 103.449704 67.389913 
L 103.53001 81.58804 
L 103.751809 153.861046 
L 103.816819 143.895972 
L 104.05009 67.390901 
L 104.134221 82.786804 
L 104.352195 153.862593 
L 104.417205 143.983774 
L 104.650476 67.392328 
L 104.734607 82.681565 
L 104.952582 153.863701 
L 105.017592 144.071237 
L 105.250863 67.394194 
L 105.334993 82.576609 
L 105.552968 153.86437 
L 105.617978 144.15836 
L 105.851249 67.396499 
L 105.935379 82.471937 
L 106.153354 153.864601 
L 106.218364 144.245144 
L 106.455459 67.396629 
L 106.535766 82.367551 
L 106.75374 153.864392 
L 106.81875 144.331586 
L 107.055846 67.394302 
L 107.136152 82.263452 
L 107.354127 153.863746 
L 107.422961 143.311923 
L 107.656232 67.392413 
L 107.732714 80.881 
L 107.954513 153.86266 
L 108.027171 142.247966 
L 108.256618 67.390964 
L 108.333101 80.781193 
L 108.554899 153.861136 
L 108.627557 142.341741 
L 108.857004 67.389953 
L 108.933487 80.681689 
L 109.155286 153.859173 
L 109.227944 142.435194 
L 109.457391 67.389381 
L 109.533873 80.582489 
L 109.755672 153.856771 
L 109.82833 142.528325 
L 110.057777 67.389247 
L 110.134259 80.483594 
L 110.359882 153.857764 
L 110.428716 142.621132 
L 110.658163 67.389552 
L 110.734646 80.385005 
L 110.960269 153.859994 
L 111.029103 142.713614 
L 111.25855 67.390296 
L 111.335032 80.286722 
L 111.560655 153.861785 
L 111.629489 142.805771 
L 111.858936 67.391479 
L 111.939242 81.44111 
L 112.161041 153.863137 
L 112.229875 142.897601 
L 112.459322 67.393101 
L 112.539629 81.339638 
L 112.761427 153.864051 
L 112.830261 142.989103 
L 113.059708 67.395161 
L 113.140015 81.238465 
L 113.361814 153.864526 
L 113.430648 143.080278 
L 113.660095 67.39766 
L 113.740401 81.137589 
L 113.9622 153.864563 
L 114.031034 143.171123 
L 114.264305 67.395544 
L 114.340787 81.037012 
L 114.562586 153.86416 
L 114.63142 143.261638 
L 114.864691 67.393411 
L 114.941174 80.936736 
L 115.162973 153.863319 
L 115.231807 143.351821 
L 115.465078 67.391717 
L 115.545384 82.113759 
L 115.763359 153.862039 
L 115.832193 143.441673 
L 116.065464 67.390462 
L 116.14577 82.010365 
L 116.363745 153.86032 
L 116.432579 143.531191 
L 116.66585 67.389645 
L 116.746157 81.907261 
L 116.964131 153.858163 
L 117.032965 143.620376 
L 117.266237 67.389267 
L 117.346543 81.804449 
L 117.568342 153.856331 
L 117.633352 143.709226 
L 117.866623 67.389328 
L 117.946929 81.701929 
L 118.168728 153.858806 
L 118.233738 143.79774 
L 118.467009 67.389828 
L 118.547316 81.599703 
L 118.769114 153.860841 
L 118.834124 143.885918 
L 119.067395 67.390766 
L 119.151526 82.798847 
L 119.369501 153.862438 
L 119.434511 143.973758 
L 119.667782 67.392143 
L 119.751912 82.693576 
L 119.969887 153.863596 
L 120.034897 144.06126 
L 120.268168 67.393959 
L 120.352299 82.588587 
L 120.570273 153.864316 
L 120.635283 144.148422 
L 120.868554 67.396213 
L 120.952685 82.483883 
L 121.17066 153.864596 
L 121.23567 144.235245 
L 121.472765 67.396923 
L 121.553071 82.379465 
L 121.771046 153.864438 
L 121.836056 144.321726 
L 122.073151 67.394545 
L 122.153457 82.275333 
L 122.371432 153.863842 
L 122.440266 143.301618 
L 122.673537 67.392607 
L 122.75002 80.892423 
L 122.971818 153.862806 
L 123.044477 142.23723 
L 123.273924 67.391107 
L 123.350406 80.792582 
L 123.572205 153.861332 
L 123.644863 142.331042 
L 123.87431 67.390046 
L 123.950792 80.693044 
L 124.172591 153.859419 
L 124.245249 142.424532 
L 124.474696 67.389424 
L 124.551179 80.593809 
L 124.772977 153.857068 
L 124.845635 142.5177 
L 125.075082 67.38924 
L 125.151565 80.494879 
L 125.377188 153.857481 
L 125.446022 142.610544 
L 125.675469 67.389495 
L 125.751951 80.396255 
L 125.977574 153.859761 
L 126.046408 142.703063 
L 126.275855 67.390189 
L 126.352337 80.297937 
L 126.57796 153.861602 
L 126.646794 142.795257 
L 126.876241 67.391322 
L 126.952724 80.199927 
L 127.178347 153.863005 
L 127.251005 141.710088 
L 127.476628 67.392893 
L 127.55311 80.102226 
L 127.778733 153.863969 
L 127.851391 141.80567 
L 128.077014 67.394903 
L 128.153496 80.004835 
L 128.379119 153.864494 
L 128.451777 141.900936 
L 128.6774 67.397352 
L 128.753883 79.907755 
L 128.979505 153.864581 
L 129.052164 141.995884 
L 129.281611 67.395816 
L 129.354269 79.810986 
L 129.579892 153.864228 
L 129.65255 142.090514 
L 129.881997 67.393633 
L 129.954655 79.71453 
L 130.180278 153.863437 
L 130.252936 142.184825 
L 130.482383 67.391889 
L 130.555041 79.618387 
L 130.780664 153.862207 
L 130.857147 141.075573 
L 131.082769 67.390583 
L 131.155428 79.522559 
L 131.381051 153.860539 
L 131.457533 141.173206 
L 131.683156 67.389716 
L 131.755814 79.427047 
L 131.981437 153.858432 
L 132.057919 141.270528 
L 132.283542 67.389288 
L 132.3562 79.331852 
L 132.585647 153.856021 
L 132.658305 141.36754 
L 132.883928 67.389299 
L 132.956587 79.236973 
L 133.186034 153.858545 
L 133.258692 141.464239 
L 133.484315 67.389749 
L 133.556973 79.142414 
L 133.78642 153.860631 
L 133.859078 141.560626 
L 134.084701 67.390637 
L 134.157359 79.048174 
L 134.386806 153.862278 
L 134.459464 141.656699 
L 134.685087 67.391964 
L 134.76157 80.156621 
L 134.987192 153.863486 
L 135.059851 141.752457 
L 135.285473 67.393729 
L 135.361956 80.059057 
L 135.587579 153.864256 
L 135.660237 141.847899 
L 135.88586 67.395934 
L 135.962342 79.961803 
L 136.187965 153.864587 
L 136.260623 141.943025 
L 136.49007 67.397222 
L 136.562728 79.86486 
L 136.788351 153.864479 
L 136.861009 142.037832 
L 137.090456 67.394795 
L 137.163115 79.76823 
L 137.388738 153.863932 
L 137.461396 142.132321 
L 137.690843 67.392806 
L 137.763501 79.671913 
L 137.989124 153.862947 
L 138.061782 142.22649 
L 138.291229 67.391256 
L 138.367711 80.803975 
L 138.58951 153.861523 
L 138.662168 142.320339 
L 138.891615 67.390145 
L 138.968098 80.704402 
L 139.189896 153.85966 
L 139.262555 142.413866 
L 139.492002 67.389473 
L 139.568484 80.605133 
L 139.790283 153.857359 
L 139.862941 142.50707 
L 140.092388 67.389239 
L 140.16887 80.506168 
L 140.394493 153.857193 
L 140.463327 142.599951 
L 140.692774 67.389444 
L 140.769257 80.407508 
L 140.994879 153.859523 
L 141.063713 142.692508 
L 141.29316 67.390088 
L 141.369643 80.309156 
L 141.595266 153.861414 
L 141.6641 142.784739 
L 141.893547 67.39117 
L 141.970029 80.211111 
L 142.195652 153.862867 
L 142.26831 141.699146 
L 142.493933 67.392691 
L 142.570415 80.113375 
L 142.796038 153.863881 
L 142.868696 141.794764 
L 143.094319 67.394651 
L 143.170802 80.015948 
L 143.396425 153.864456 
L 143.469083 141.890066 
L 143.694706 67.39705 
L 143.771188 79.918832 
L 143.996811 153.864593 
L 144.069469 141.985051 
L 144.298916 67.396093 
L 144.371574 79.822027 
L 144.597197 153.864291 
L 144.669855 142.079718 
L 144.899302 67.39386 
L 144.971961 79.725535 
L 145.197583 153.86355 
L 145.270242 142.174065 
L 145.499689 67.392066 
L 145.572347 79.629357 
L 145.79797 153.86237 
L 145.870628 142.268092 
L 146.100075 67.39071 
L 146.176557 80.75984 
L 146.398356 153.860752 
L 146.471014 142.361799 
L 146.700461 67.389793 
L 146.776943 80.660401 
L 146.998742 153.858695 
L 147.0714 142.455183 
L 147.300847 67.389315 
L 147.37733 80.561267 
L 147.599129 153.856199 
L 147.671787 142.548244 
L 147.901234 67.389276 
L 147.977716 80.462437 
L 148.203339 153.858279 
L 148.272173 142.640982 
L 148.50162 67.389675 
L 148.578102 80.363913 
L 148.803725 153.860415 
L 148.872559 142.733394 
L 149.102006 67.390513 
L 149.178489 80.265697 
L 149.404112 153.862112 
L 149.472946 142.825481 
L 149.702393 67.39179 
L 149.782699 81.419336 
L 150.004498 153.86337 
L 150.073332 142.917241 
L 150.302779 67.393505 
L 150.383085 81.317928 
L 150.604884 153.86419 
L 150.673718 143.008673 
L 150.903165 67.395659 
L 150.983472 81.216818 
L 151.20527 153.864571 
L 151.274104 143.099777 
L 151.507376 67.397527 
L 151.583858 81.116006 
L 151.805657 153.864513 
L 151.874491 143.190551 
L 152.107762 67.39505 
L 152.184244 81.015494 
L 152.406043 153.864017 
L 152.474877 143.280995 
L 152.708148 67.393011 
L 152.78463 80.915282 
L 153.006429 153.863082 
L 153.075263 143.371108 
L 153.308534 67.391411 
L 153.388841 82.091573 
L 153.606816 153.861708 
L 153.67565 143.460888 
L 153.908921 67.39025 
L 153.989227 81.988241 
L 154.207202 153.859895 
L 154.276036 143.550335 
L 154.509307 67.389527 
L 154.589613 81.8852 
L 154.807588 153.857644 
L 154.876422 143.639448 
L 155.109693 67.389244 
L 155.19 81.78245 
L 155.411799 153.856899 
L 155.476808 143.728226 
L 155.71008 67.389398 
L 155.790386 81.679993 
L 156.012185 153.859279 
L 156.077195 143.816668 
L 156.310466 67.389992 
L 156.390772 81.57783 
L 156.612571 153.86122 
L 156.677581 143.904774 
L 156.910852 67.391024 
L 156.994983 82.77626 
L 157.212957 153.862723 
L 157.277967 143.992541 
L 157.511238 67.392495 
L 157.595369 82.671049 
L 157.813344 153.863787 
L 157.878354 144.079971 
L 158.111625 67.394405 
L 158.195755 82.566121 
L 158.41373 153.864413 
L 158.47874 144.16706 
L 158.712011 67.396754 
L 158.796142 82.461478 
L 159.014116 153.864599 
L 159.079126 144.25381 
L 159.316221 67.396376 
L 159.396528 82.357121 
L 159.614503 153.864347 
L 159.679513 144.340218 
L 159.916608 67.394093 
L 159.996914 82.253051 
L 160.214889 153.863657 
L 160.283723 143.320944 
L 160.516994 67.392249 
L 160.593476 80.870998 
L 160.815275 153.862527 
L 160.887933 142.257365 
L 161.11738 67.390843 
L 161.193863 80.771222 
L 161.415661 153.860959 
L 161.48832 142.351108 
L 161.717767 67.389876 
L 161.794249 80.671748 
L 162.016048 153.858952 
L 162.088706 142.444529 
L 162.318153 67.389348 
L 162.394635 80.572579 
L 162.616434 153.856507 
L 162.689092 142.537627 
L 162.918539 67.389258 
L 162.995022 80.473714 
L 163.220644 153.858007 
L 163.289478 142.630401 
L 163.518925 67.389607 
L 163.595408 80.375156 
L 163.821031 153.860193 
L 163.889865 142.722851 
L 164.119312 67.390395 
L 164.195794 80.276904 
L 164.421417 153.86194 
L 164.490251 142.814975 
L 164.719698 67.391622 
L 164.800004 81.430942 
L 165.021803 153.863249 
L 165.090637 142.906772 
L 165.320084 67.393287 
L 165.400391 81.3295 
L 165.62219 153.864118 
L 165.691024 142.998242 
L 165.920471 67.395391 
L 166.000777 81.228356 
L 166.222576 153.86455 
L 166.29141 143.089384 
L 166.524681 67.397838 
L 166.601163 81.12751 
L 166.822962 153.864542 
L 166.891796 143.180196 
L 167.125067 67.395311 
L 167.20155 81.026964 
L 167.423348 153.864096 
L 167.492182 143.270677 
L 167.725454 67.393222 
L 167.801936 80.926718 
L 168.023735 153.863211 
L 168.092569 143.360828 
L 168.32584 67.391572 
L 168.406146 82.103399 
L 168.624121 153.861887 
L 168.692955 143.450646 
L 168.926226 67.39036 
L 169.006533 82.000034 
L 169.224507 153.860124 
L 169.293341 143.540131 
L 169.526612 67.389588 
L 169.606919 81.896959 
L 169.824894 153.857923 
L 169.893728 143.629283 
L 170.126999 67.389254 
L 170.207305 81.794176 
L 170.429104 153.856599 
L 170.494114 143.718099 
L 170.727385 67.389359 
L 170.807691 81.691686 
L 171.02949 153.859029 
L 171.0945 143.80658 
L 171.327771 67.389902 
L 171.408078 81.589489 
L 171.629877 153.861021 
L 171.694886 143.894723 
L 171.928158 67.390884 
L 172.012288 82.7883 
L 172.230263 153.862574 
L 172.295273 143.98253 
L 172.528544 67.392305 
L 172.612674 82.683056 
L 172.830649 153.863688 
L 172.895659 144.069998 
L 173.12893 67.394165 
L 173.213061 82.578096 
L 173.431035 153.864364 
L 173.496045 144.157126 
L 173.729316 67.396463 
L 173.813447 82.473421 
L 174.031422 153.8646 
L 174.096432 144.243915 
L 174.333527 67.396665 
L 174.413833 82.369031 
L 174.631808 153.864398 
L 174.696818 144.330362 
L 174.933913 67.394332 
L 175.01422 82.264928 
L 175.232194 153.863758 
L 175.301028 143.310643 
L 175.534299 67.392437 
L 175.610782 80.882418 
L 175.832581 153.862678 
L 175.905239 142.246633 
L 176.134686 67.390981 
L 176.211168 80.782607 
L 176.432967 153.86116 
L 176.505625 142.340412 
L 176.735072 67.389964 
L 176.811554 80.683099 
L 177.033353 153.859204 
L 177.106011 142.43387 
L 177.335458 67.389386 
L 177.411941 80.583895 
L 177.633739 153.856808 
L 177.706398 142.527005 
L 177.935845 67.389246 
L 178.012327 80.484996 
L 178.23795 153.857729 
L 178.306784 142.619817 
L 178.536231 67.389545 
L 178.612713 80.386402 
L 178.838336 153.859965 
L 178.90717 142.712304 
L 179.136617 67.390283 
L 179.2131 80.288115 
L 179.438722 153.861763 
L 179.507556 142.804465 
L 179.737003 67.391459 
L 179.81731 81.442552 
L 180.039109 153.863121 
L 180.107943 142.8963 
L 180.33739 67.393075 
L 180.417696 81.341077 
L 180.639495 153.864041 
L 180.708329 142.987807 
L 180.937776 67.395129 
L 181.018082 81.239898 
L 181.239881 153.864523 
L 181.308715 143.078986 
L 181.538162 67.397621 
L 181.618469 81.139018 
L 181.840268 153.864565 
L 181.909102 143.169836 
L 182.142373 67.395577 
L 182.218855 81.038438 
L 182.440654 153.864169 
L 182.509488 143.260355 
L 182.742759 67.393438 
L 182.819241 80.938157 
L 183.04104 153.863334 
L 183.109874 143.350544 
L 183.343145 67.391738 
L 183.423452 82.115228 
L 183.641426 153.86206 
L 183.71026 143.4404 
L 183.943532 67.390477 
L 184.023838 82.01183 
L 184.241813 153.860348 
L 184.310647 143.529923 
L 184.543918 67.389654 
L 184.624224 81.908722 
L 184.842199 153.858197 
L 184.911033 143.619113 
L 185.144304 67.38927 
L 185.224611 81.805906 
L 185.446409 153.856293 
L 185.511419 143.707967 
L 185.74469 67.389324 
L 185.824997 81.703382 
L 186.046796 153.858774 
L 186.111806 143.796486 
L 186.345077 67.389818 
L 186.425383 81.601152 
L 186.647182 153.860815 
L 186.712192 143.884669 
L 186.945463 67.39075 
L 187.029594 82.800344 
L 187.247568 153.862418 
L 187.312578 143.972514 
L 187.545849 67.392121 
L 187.62998 82.695068 
L 187.847955 153.863583 
L 187.912964 144.06002 
L 188.146236 67.39393 
L 188.230366 82.590075 
L 188.448341 153.864309 
L 188.513351 144.147188 
L 188.746622 67.396178 
L 188.830752 82.485367 
L 189.048727 153.864596 
L 189.113737 144.234015 
L 189.350832 67.396959 
L 189.431139 82.380945 
L 189.649113 153.864444 
L 189.714123 144.320501 
L 189.951219 67.394576 
L 190.031525 82.276809 
L 190.2495 153.863853 
L 190.318334 143.300338 
L 190.551605 67.392631 
L 190.628087 80.893843 
L 190.849886 153.862824 
L 190.922544 142.235896 
L 191.151991 67.391125 
L 191.228473 80.793997 
L 191.450272 153.861356 
L 191.52293 142.329713 
L 191.752377 67.390058 
L 191.82886 80.694454 
L 192.050659 153.859449 
L 192.123317 142.423208 
L 192.352764 67.38943 
L 192.429246 80.595215 
L 192.651045 153.857104 
L 192.723703 142.51638 
L 192.95315 67.38924 
L 193.029632 80.496281 
L 193.255255 153.857446 
L 193.324089 142.609228 
L 193.553536 67.389489 
L 193.630019 80.397652 
L 193.855642 153.859732 
L 193.924476 142.701752 
L 194.153923 67.390176 
L 194.230405 80.29933 
L 194.456028 153.861579 
L 194.524862 142.793951 
L 194.754309 67.391303 
L 194.830791 80.201316 
L 195.056414 153.862988 
L 195.129072 141.708729 
L 195.354695 67.392868 
L 195.431178 80.103611 
L 195.6568 153.863958 
L 195.729459 141.804316 
L 195.955081 67.394872 
L 196.031564 80.006215 
L 196.257187 153.86449 
L 196.329845 141.899586 
L 196.555468 67.397314 
L 196.63195 79.90913 
L 196.857573 153.864582 
L 196.930231 141.994539 
L 197.159678 67.39585 
L 197.232336 79.812357 
L 197.457959 153.864236 
L 197.530617 142.089174 
L 197.760064 67.393661 
L 197.832723 79.715896 
L 198.058346 153.863452 
L 198.131004 142.183489 
L 198.360451 67.39191 
L 198.433109 79.61975 
L 198.658732 153.862228 
L 198.735214 141.074185 
L 198.960837 67.390599 
L 199.033495 79.523917 
L 199.259118 153.860566 
L 199.3356 141.171822 
L 199.561223 67.389726 
L 199.633882 79.428401 
L 199.859504 153.858465 
L 199.935987 141.269149 
L 200.16161 67.389291 
L 200.234268 79.3332 
L 200.463715 153.855982 
L 200.536373 141.366165 
L 200.761996 67.389296 
L 200.834654 79.238318 
L 201.064101 153.858512 
L 201.136759 141.462869 
L 201.362382 67.389739 
L 201.43504 79.143754 
L 201.664487 153.860604 
L 201.737146 141.55926 
L 201.962768 67.390621 
L 202.035427 79.049509 
L 202.264874 153.862257 
L 202.337532 141.655338 
L 202.563155 67.391942 
L 202.639637 80.158008 
L 202.86526 153.863472 
L 202.937918 141.7511 
L 203.163541 67.393701 
L 203.240023 80.060439 
L 203.465646 153.864248 
L 203.538304 141.846547 
L 203.763927 67.395899 
L 203.84041 79.963181 
L 204.066033 153.864585 
L 204.138691 141.941677 
L 204.368138 67.39726 
L 204.440796 79.866234 
L 204.666419 153.864483 
L 204.739077 142.036489 
L 204.968524 67.394826 
L 205.041182 79.769599 
L 205.266805 153.863943 
L 205.339463 142.130982 
L 205.56891 67.392831 
L 205.641569 79.673277 
L 205.867191 153.862964 
L 205.93985 142.225156 
L 206.169297 67.391275 
L 206.245779 80.805391 
L 206.467578 153.861546 
L 206.540236 142.319009 
L 206.769683 67.390158 
L 206.846165 80.705813 
L 207.067964 153.859689 
L 207.140622 142.412541 
L 207.370069 67.389479 
L 207.446551 80.606539 
L 207.66835 153.857394 
L 207.741008 142.50575 
L 207.970455 67.389239 
L 208.046938 80.50757 
L 208.272561 153.857156 
L 208.341395 142.598635 
L 208.570842 67.389438 
L 208.647324 80.408907 
L 208.872947 153.859493 
L 208.941781 142.691196 
L 209.171228 67.390076 
L 209.24771 80.31055 
L 209.473333 153.861391 
L 209.542167 142.783432 
L 209.771614 67.391152 
L 209.848097 80.2125 
L 210.07372 153.862849 
L 210.146378 141.697787 
L 210.372001 67.392667 
L 210.448483 80.11476 
L 210.674106 153.86387 
L 210.746764 141.793409 
L 210.972387 67.39462 
L 211.048869 80.017329 
L 211.274492 153.864451 
L 211.34715 141.888716 
L 211.572773 67.397013 
L 211.649256 79.920208 
L 211.874878 153.864594 
L 211.947537 141.983705 
L 212.176984 67.396128 
L 212.249642 79.823399 
L 212.475265 153.864298 
L 212.547923 142.078376 
L 212.77737 67.393889 
L 212.850028 79.726903 
L 213.075651 153.863563 
L 213.148309 142.172728 
L 213.377756 67.392088 
L 213.450414 79.63072 
L 213.676037 153.86239 
L 213.748695 142.26676 
L 213.978142 67.390726 
L 214.054625 80.761254 
L 214.276424 153.860778 
L 214.349082 142.360471 
L 214.578529 67.389803 
L 214.655011 80.661811 
L 214.87681 153.858727 
L 214.949468 142.45386 
L 215.178915 67.389319 
L 215.255397 80.562671 
L 215.477196 153.856238 
L 215.549854 142.546926 
L 215.779301 67.389273 
L 215.855784 80.463838 
L 216.081407 153.858245 
L 216.150241 142.639668 
L 216.379688 67.389666 
L 216.45617 80.36531 
L 216.681793 153.860387 
L 216.750627 142.732085 
L 216.980074 67.390498 
L 217.056556 80.267089 
L 217.282179 153.862091 
L 217.351013 142.824176 
L 217.58046 67.391769 
L 217.660767 81.420777 
L 217.882565 153.863355 
L 217.951399 142.915941 
L 218.180846 67.393478 
L 218.261153 81.319365 
L 218.482952 153.864181 
L 218.551786 143.007378 
L 218.781233 67.395626 
L 218.861539 81.218251 
L 219.083338 153.864569 
L 219.152172 143.098486 
L 219.385443 67.397566 
L 219.461925 81.117435 
L 219.683724 153.864517 
L 219.752558 143.189265 
L 219.985829 67.395082 
L 220.062312 81.016919 
L 220.284111 153.864027 
L 220.352945 143.279714 
L 220.586216 67.393037 
L 220.662698 80.916703 
L 220.884497 153.863098 
L 220.953331 143.369831 
L 221.186602 67.391431 
L 221.266908 82.093042 
L 221.484883 153.86173 
L 221.553717 143.459616 
L 221.786988 67.390263 
L 221.867295 81.989706 
L 222.085269 153.859924 
L 222.154103 143.549068 
L 222.387375 67.389535 
L 222.467681 81.88666 
L 222.685656 153.857679 
L 222.75449 143.638186 
L 222.987761 67.389244 
L 223.068067 81.783907 
L 223.289866 153.856862 
L 223.354876 143.726968 
L 223.588147 67.389393 
L 223.668454 81.681445 
L 223.890252 153.859248 
L 223.955262 143.815415 
L 224.188533 67.389981 
L 224.26884 81.579278 
L 224.490639 153.861196 
L 224.555649 143.903526 
L 224.78892 67.391007 
L 224.87305 82.777755 
L 225.091025 153.862705 
L 225.156035 143.991298 
L 225.389306 67.392471 
L 225.473437 82.67254 
L 225.691411 153.863775 
L 225.756421 144.078732 
L 225.989692 67.394375 
L 226.073823 82.567608 
L 226.291798 153.864407 
L 226.356807 144.165827 
L 226.590079 67.396717 
L 226.674209 82.462961 
L 226.892184 153.8646 
L 226.957194 144.252581 
L 227.194289 67.396412 
L 227.274595 82.3586 
L 227.49257 153.864354 
L 227.55758 144.338994 
L 227.794675 67.394122 
L 227.874982 82.254526 
L 228.092956 153.86367 
L 228.16179 143.319665 
L 228.395062 67.392272 
L 228.471544 80.872416 
L 228.693343 153.862546 
L 228.766001 142.256032 
L 228.995448 67.39086 
L 229.07193 80.772636 
L 229.293729 153.860984 
L 229.366387 142.349779 
L 229.595834 67.389886 
L 229.672316 80.673158 
L 229.894115 153.858984 
L 229.966773 142.443205 
L 230.19622 67.389352 
L 230.272703 80.573984 
L 230.494502 153.856544 
L 230.56716 142.536308 
L 230.796607 67.389256 
L 230.873089 80.475115 
L 231.098712 153.857973 
L 231.167546 142.629087 
L 231.396993 67.389599 
L 231.473475 80.376552 
L 231.699098 153.860165 
L 231.767932 142.721541 
L 231.997379 67.390381 
L 232.073862 80.278296 
L 232.299485 153.861918 
L 232.368319 142.81367 
L 232.597766 67.391601 
L 232.678072 81.432384 
L 232.899871 153.863233 
L 232.968705 142.905472 
L 233.198152 67.39326 
L 233.278458 81.330938 
L 233.500257 153.864109 
L 233.569091 142.996946 
L 233.798538 67.395358 
L 233.878845 81.22979 
L 234.100643 153.864547 
L 234.169477 143.088092 
L 234.402749 67.397877 
L 234.479231 81.12894 
L 234.70103 153.864545 
L 234.769864 143.178909 
L 235.003135 67.395344 
L 235.079617 81.028389 
L 235.301416 153.864105 
L 235.37025 143.269395 
L 235.603521 67.393249 
L 235.680003 80.928139 
L 235.901802 153.863226 
L 235.970636 143.359551 
L 236.203907 67.391592 
L 236.284214 82.104868 
L 236.502189 153.861909 
L 236.571023 143.449374 
L 236.804294 67.390375 
L 236.8846 82.001499 
L 237.102575 153.860152 
L 237.171409 143.538864 
L 237.40468 67.389596 
L 237.484986 81.89842 
L 237.702961 153.857957 
L 237.771795 143.62802 
L 238.005066 67.389255 
L 238.085373 81.795633 
L 238.307172 153.856561 
L 238.372181 143.716841 
L 238.605453 67.389354 
L 238.685759 81.693138 
L 238.907558 153.858998 
L 238.972568 143.805326 
L 239.205839 67.389891 
L 239.286145 81.590937 
L 239.507944 153.860996 
L 239.572954 143.893475 
L 239.806225 67.390867 
L 239.890356 82.789796 
L 240.10833 153.862555 
L 240.17334 143.981286 
L 240.406611 67.392282 
L 240.490742 82.684548 
L 240.708717 153.863675 
L 240.773727 144.068759 
L 241.006998 67.394135 
L 241.091128 82.579584 
L 241.309103 153.864357 
L 241.374113 144.155892 
L 241.607384 67.396427 
L 241.691515 82.474904 
L 241.909489 153.8646 
L 241.974499 144.242685 
L 242.211594 67.396701 
L 242.291901 82.370511 
L 242.509876 153.864404 
L 242.574885 144.329137 
L 242.811981 67.394362 
L 242.892287 82.266403 
L 243.110262 153.86377 
L 243.179096 143.309363 
L 243.412367 67.392461 
L 243.488849 80.883837 
L 243.710648 153.862697 
L 243.783306 142.245299 
L 244.012753 67.390999 
L 244.089236 80.784022 
L 244.311034 153.861185 
L 244.383693 142.339083 
L 244.61314 67.389975 
L 244.689622 80.684509 
L 244.911421 153.859234 
L 244.984079 142.432546 
L 245.213526 67.389391 
L 245.290008 80.585301 
L 245.511807 153.856845 
L 245.584465 142.525686 
L 245.813912 67.389245 
L 245.890394 80.486397 
L 246.116017 153.857694 
L 246.184851 142.618502 
L 246.414298 67.389538 
L 246.490781 80.387799 
L 246.716404 153.859937 
L 246.785238 142.710993 
L 247.014685 67.390269 
L 247.091167 80.289508 
L 247.31679 153.86174 
L 247.385624 142.803159 
L 247.615071 67.39144 
L 247.695377 81.443994 
L 247.917176 153.863105 
L 247.98601 142.894999 
L 248.215457 67.393049 
L 248.295764 81.342515 
L 248.517563 153.864031 
L 248.586397 142.986511 
L 248.815844 67.395096 
L 248.89615 81.241332 
L 249.117949 153.864519 
L 249.186783 143.077694 
L 249.41623 67.397583 
L 249.496536 81.140448 
L 249.718335 153.864568 
L 249.787169 143.168549 
L 250.02044 67.395611 
L 250.096923 81.039863 
L 250.318721 153.864178 
L 250.387555 143.259073 
L 250.620827 67.393466 
L 250.697309 80.939578 
L 250.919108 153.863349 
L 250.987942 143.349266 
L 251.221213 67.391759 
L 251.301519 82.116698 
L 251.519494 153.862081 
L 251.588328 143.439127 
L 251.821599 67.390491 
L 251.901906 82.013296 
L 252.11988 153.860375 
L 252.188714 143.528655 
L 252.421985 67.389662 
L 252.502292 81.910184 
L 252.720267 153.85823 
L 252.789101 143.617849 
L 252.9 98.178609 
L 252.9 98.178609 
" clip-path="url(#p6cc0971af5)" style="fill: none; stroke: #000000; stroke-width: 1.5; stroke-linecap: square"/>
   </g>
   <g id="line2d_9">
    <path d="M 61.698 51.332154 
L 61.724769 23.844545 
L 61.774482 95.459258 
L 61.896854 155.135455 
L 61.931271 151.716543 
L 62.049819 107.089086 
L 62.191311 67.390917 
L 62.233376 71.714977 
L 62.363396 121.059024 
L 62.489592 153.86381 
L 62.535482 149.095007 
L 62.67315 96.061293 
L 62.791697 67.39282 
L 62.837587 72.535753 
L 62.982903 129.125996 
L 63.089978 153.862971 
L 63.139692 148.334512 
L 63.292657 88.377466 
L 63.392084 67.391284 
L 63.441797 73.315186 
L 63.610058 139.102424 
L 63.690365 153.861557 
L 63.743902 147.530191 
L 63.99247 67.390164 
L 64.091897 88.983542 
L 64.290751 153.859704 
L 64.348113 146.675905 
L 64.592856 67.389482 
L 64.688459 87.38776 
L 64.891137 153.857412 
L 64.948499 146.751771 
L 65.193242 67.389239 
L 65.288845 87.271732 
L 65.495348 153.857139 
L 65.548885 146.82727 
L 65.793629 67.389435 
L 65.889232 87.155941 
L 66.095734 153.859478 
L 66.153096 145.9325 
L 66.394015 67.39007 
L 66.485794 85.610133 
L 66.69612 153.861379 
L 66.753482 146.011831 
L 66.994401 67.391143 
L 67.08618 85.497924 
L 67.296507 153.862841 
L 67.353868 146.090802 
L 67.594788 67.392655 
L 67.686566 85.38597 
L 67.896893 153.863864 
L 67.958079 145.156377 
L 68.195174 67.394606 
L 68.283129 83.89393 
L 68.497279 153.864449 
L 68.558465 145.239098 
L 68.79556 67.396995 
L 68.883515 83.785815 
L 69.097665 153.864595 
L 69.158851 145.321467 
L 69.399771 67.396145 
L 69.483901 83.677973 
L 69.698052 153.864302 
L 69.763062 144.348254 
L 70.000157 67.393903 
L 70.080463 82.243366 
L 70.298438 153.86357 
L 70.367272 143.329343 
L 70.600543 67.392099 
L 70.677026 80.861686 
L 70.898824 153.8624 
L 70.971482 142.266115 
L 71.200929 67.390734 
L 71.277412 80.761938 
L 71.499211 153.86079 
L 71.571869 142.359828 
L 71.801316 67.389808 
L 71.877798 80.662493 
L 72.099597 153.858743 
L 72.172255 142.453219 
L 72.401702 67.389321 
L 72.478184 80.563352 
L 72.699983 153.856256 
L 72.772641 142.546287 
L 73.002088 67.389272 
L 73.078571 80.464516 
L 73.304194 153.858229 
L 73.373028 142.639031 
L 73.602475 67.389662 
L 73.678957 80.365986 
L 73.90458 153.860374 
L 73.973414 142.731451 
L 74.202861 67.390491 
L 74.279343 80.267763 
L 74.504966 153.862081 
L 74.5738 142.823544 
L 74.803247 67.391758 
L 74.883554 81.421475 
L 75.105352 153.863348 
L 75.174186 142.915311 
L 75.403633 67.393465 
L 75.48394 81.320061 
L 75.705739 153.864177 
L 75.774573 143.00675 
L 76.00402 67.39561 
L 76.084326 81.218945 
L 76.306125 153.864567 
L 76.374959 143.097861 
L 76.60823 67.397584 
L 76.684712 81.118127 
L 76.906511 153.864519 
L 76.975345 143.188642 
L 77.208616 67.395098 
L 77.285099 81.017609 
L 77.506898 153.864032 
L 77.575732 143.279093 
L 77.809003 67.39305 
L 77.885485 80.91739 
L 78.107284 153.863106 
L 78.176118 143.369213 
L 78.409389 67.39144 
L 78.489695 82.093753 
L 78.70767 153.861741 
L 78.776504 143.459 
L 79.009775 67.39027 
L 79.090082 81.990415 
L 79.308056 153.859938 
L 79.37689 143.548454 
L 79.610162 67.389538 
L 79.690468 81.887368 
L 79.908443 153.857696 
L 79.977277 143.637574 
L 80.210548 67.389245 
L 80.290854 81.784612 
L 80.512653 153.856844 
L 80.577663 143.726359 
L 80.810934 67.389391 
L 80.891241 81.682149 
L 81.113039 153.859233 
L 81.178049 143.814809 
L 81.41132 67.389975 
L 81.491627 81.579979 
L 81.713426 153.861184 
L 81.778436 143.902921 
L 82.011707 67.390998 
L 82.095837 82.778479 
L 82.313812 153.862696 
L 82.378822 143.990696 
L 82.612093 67.39246 
L 82.696224 82.673262 
L 82.914198 153.863769 
L 82.979208 144.078132 
L 83.212479 67.39436 
L 83.29661 82.568329 
L 83.514585 153.864404 
L 83.579595 144.165229 
L 83.812866 67.3967 
L 83.896996 82.46368 
L 84.114971 153.8646 
L 84.179981 144.251986 
L 84.417076 67.396429 
L 84.497382 82.359317 
L 84.715357 153.864357 
L 84.780367 144.338401 
L 85.017462 67.394137 
L 85.097769 82.25524 
L 85.315743 153.863676 
L 85.384577 143.319045 
L 85.617849 67.392283 
L 85.694331 80.873103 
L 85.91613 153.862556 
L 85.988788 142.255386 
L 86.218235 67.390868 
L 86.294717 80.773321 
L 86.516516 153.860997 
L 86.589174 142.349136 
L 86.818621 67.389892 
L 86.895104 80.673841 
L 87.116902 153.858999 
L 87.18956 142.442564 
L 87.419007 67.389354 
L 87.49549 80.574665 
L 87.717289 153.856563 
L 87.789947 142.535669 
L 88.019394 67.389255 
L 88.095876 80.475794 
L 88.321499 153.857956 
L 88.390333 142.62845 
L 88.61978 67.389595 
L 88.696262 80.377229 
L 88.921885 153.860151 
L 88.990719 142.720907 
L 89.220166 67.390374 
L 89.296649 80.278971 
L 89.522272 153.861908 
L 89.591106 142.813038 
L 89.820553 67.391591 
L 89.900859 81.433082 
L 90.122658 153.863226 
L 90.191492 142.904842 
L 90.420939 67.393247 
L 90.501245 81.331634 
L 90.723044 153.864105 
L 90.791878 142.996319 
L 91.021325 67.395342 
L 91.101632 81.230484 
L 91.32343 153.864545 
L 91.392264 143.087467 
L 91.621711 67.397876 
L 91.702018 81.129632 
L 91.923817 153.864547 
L 91.992651 143.178286 
L 92.225922 67.39536 
L 92.302404 81.029079 
L 92.524203 153.86411 
L 92.593037 143.268775 
L 92.826308 67.393261 
L 92.90279 80.928827 
L 93.124589 153.863234 
L 93.193423 143.358932 
L 93.426694 67.391602 
L 93.507001 82.10558 
L 93.724976 153.861919 
L 93.79381 143.448757 
L 94.027081 67.390381 
L 94.107387 82.002208 
L 94.325362 153.860166 
L 94.394196 143.53825 
L 94.627467 67.389599 
L 94.707773 81.899128 
L 94.925748 153.857974 
L 94.994582 143.627408 
L 95.227853 67.389256 
L 95.30816 81.796339 
L 95.529959 153.856543 
L 95.594968 143.716231 
L 95.82824 67.389352 
L 95.908546 81.693842 
L 96.130345 153.858982 
L 96.195355 143.804719 
L 96.428626 67.389886 
L 96.508932 81.591639 
L 96.730731 153.860983 
L 96.795741 143.89287 
L 97.029012 67.390859 
L 97.113143 82.79052 
L 97.331117 153.862546 
L 97.396127 143.980683 
L 97.629398 67.392271 
L 97.713529 82.685271 
L 97.931504 153.863669 
L 97.996514 144.068159 
L 98.229785 67.394121 
L 98.313915 82.580304 
L 98.53189 153.864354 
L 98.5969 144.155294 
L 98.830171 67.39641 
L 98.914302 82.475623 
L 99.132276 153.8646 
L 99.197286 144.24209 
L 99.434381 67.396719 
L 99.514688 82.371227 
L 99.732663 153.864407 
L 99.797673 144.328544 
L 100.034768 67.394376 
L 100.115074 82.267118 
L 100.333049 153.863776 
L 100.401883 143.308743 
L 100.635154 67.392472 
L 100.711636 80.884524 
L 100.933435 153.862706 
L 101.006093 142.244653 
L 101.23554 67.391007 
L 101.312023 80.784707 
L 101.533821 153.861197 
L 101.60648 142.33844 
L 101.835927 67.389981 
L 101.912409 80.685192 
L 102.134208 153.859249 
L 102.206866 142.431905 
L 102.436313 67.389393 
L 102.512795 80.585982 
L 102.734594 153.856863 
L 102.807252 142.525047 
L 103.036699 67.389244 
L 103.113182 80.487076 
L 103.338804 153.857677 
L 103.407638 142.617865 
L 103.637085 67.389534 
L 103.713568 80.388476 
L 103.939191 153.859923 
L 104.008025 142.710359 
L 104.237472 67.390263 
L 104.313954 80.290183 
L 104.539577 153.861729 
L 104.608411 142.802527 
L 104.837858 67.39143 
L 104.918164 81.444693 
L 105.139963 153.863097 
L 105.208797 142.894368 
L 105.438244 67.393036 
L 105.518551 81.343211 
L 105.74035 153.864026 
L 105.809184 142.985883 
L 106.038631 67.395081 
L 106.118937 81.242027 
L 106.340736 153.864517 
L 106.40957 143.077069 
L 106.639017 67.397564 
L 106.719323 81.141141 
L 106.941122 153.864569 
L 107.009956 143.167925 
L 107.243227 67.395627 
L 107.31971 81.040554 
L 107.541508 153.864182 
L 107.610342 143.258452 
L 107.843614 67.393479 
L 107.920096 80.940267 
L 108.141895 153.863356 
L 108.210729 143.348647 
L 108.444 67.39177 
L 108.524306 82.11741 
L 108.742281 153.862092 
L 108.811115 143.43851 
L 109.044386 67.390499 
L 109.124693 82.014005 
L 109.342667 153.860389 
L 109.411501 143.528041 
L 109.644772 67.389667 
L 109.725079 81.910892 
L 109.943054 153.858247 
L 110.011888 143.617237 
L 110.245159 67.389273 
L 110.325465 81.808069 
L 110.547264 153.856236 
L 110.612274 143.706099 
L 110.845545 67.389319 
L 110.925851 81.705539 
L 111.14765 153.858726 
L 111.21266 143.794625 
L 111.445931 67.389803 
L 111.526238 81.603302 
L 111.748037 153.860777 
L 111.813047 143.882814 
L 112.046318 67.390726 
L 112.130448 82.802564 
L 112.348423 153.862389 
L 112.413433 143.970667 
L 112.646704 67.392087 
L 112.730834 82.697283 
L 112.948809 153.863563 
L 113.013819 144.05818 
L 113.24709 67.393887 
L 113.331221 82.592284 
L 113.549195 153.864298 
L 113.614205 144.145355 
L 113.847476 67.396126 
L 113.931607 82.48757 
L 114.149582 153.864594 
L 114.214592 144.232189 
L 114.451687 67.397014 
L 114.531993 82.383141 
L 114.749968 153.864451 
L 114.814978 144.318683 
L 115.052073 67.394622 
L 115.13238 82.279 
L 115.350354 153.86387 
L 115.415364 144.404834 
L 115.652459 67.392668 
L 115.73659 83.499858 
L 115.950741 153.86285 
L 116.015751 144.490643 
L 116.252846 67.391153 
L 116.336976 83.392744 
L 116.551127 153.861391 
L 116.616137 144.576108 
L 116.853232 67.390076 
L 116.937363 83.285907 
L 117.151513 153.859494 
L 117.216523 144.661229 
L 117.453618 67.389438 
L 117.537749 83.179347 
L 117.751899 153.857158 
L 117.816909 144.746004 
L 118.054005 67.389239 
L 118.138135 83.073066 
L 118.35611 153.857393 
L 118.417296 144.830433 
L 118.654391 67.389479 
L 118.738521 82.967064 
L 118.956496 153.859688 
L 119.021506 143.833723 
L 119.254777 67.390157 
L 119.335084 81.558119 
L 119.556882 153.861545 
L 119.625716 142.792012 
L 119.855163 67.391274 
L 119.931646 80.203378 
L 120.157269 153.862963 
L 120.229927 141.706712 
L 120.45555 67.39283 
L 120.532032 80.105666 
L 120.757655 153.863942 
L 120.830313 141.802305 
L 121.055936 67.394825 
L 121.132418 80.008264 
L 121.358041 153.864483 
L 121.430699 141.897582 
L 121.656322 67.397258 
L 121.732805 79.911172 
L 121.958428 153.864585 
L 122.031086 141.992542 
L 122.260533 67.395901 
L 122.333191 79.814393 
L 122.558814 153.864248 
L 122.631472 142.087183 
L 122.860919 67.393702 
L 122.933577 79.717925 
L 123.1592 153.863473 
L 123.231858 142.181505 
L 123.461305 67.391943 
L 123.533964 79.621772 
L 123.759586 153.862258 
L 123.836069 141.072125 
L 124.061692 67.390622 
L 124.13435 79.525933 
L 124.359973 153.860605 
L 124.436455 141.169768 
L 124.662078 67.38974 
L 124.734736 79.43041 
L 124.960359 153.858514 
L 125.036841 141.267102 
L 125.262464 67.389296 
L 125.335122 79.335203 
L 125.560745 153.855983 
L 125.637228 141.364124 
L 125.86285 67.389291 
L 125.935509 79.240313 
L 126.164956 153.858463 
L 126.237614 141.460835 
L 126.463237 67.389725 
L 126.535895 79.145743 
L 126.765342 153.860565 
L 126.838 141.557233 
L 127.063623 67.390598 
L 127.136281 79.051491 
L 127.365728 153.862227 
L 127.438386 141.653317 
L 127.664009 67.391909 
L 127.740492 80.160066 
L 127.966115 153.863451 
L 128.038773 141.749086 
L 128.264396 67.39366 
L 128.340878 80.062492 
L 128.566501 153.864236 
L 128.639159 141.844539 
L 128.864782 67.395848 
L 128.941264 79.965227 
L 129.166887 153.864582 
L 129.239545 141.939676 
L 129.468992 67.397316 
L 129.541651 79.868273 
L 129.767273 153.86449 
L 129.839932 142.034495 
L 130.069379 67.394873 
L 130.142037 79.771632 
L 130.36766 153.863959 
L 130.440318 142.128995 
L 130.669765 67.392869 
L 130.742423 79.675303 
L 130.968046 153.862989 
L 131.040704 142.223175 
L 131.270151 67.391304 
L 131.342809 79.579289 
L 131.568432 153.86158 
L 131.644915 141.115406 
L 131.870537 67.390177 
L 131.943196 79.48359 
L 132.168819 153.859733 
L 132.245301 141.212912 
L 132.470924 67.389489 
L 132.543582 79.388206 
L 132.769205 153.857447 
L 132.845687 141.310108 
L 133.07131 67.38924 
L 133.143968 79.29314 
L 133.373415 153.857103 
L 133.446073 141.406993 
L 133.671696 67.389429 
L 133.744355 79.198392 
L 133.973802 153.859448 
L 134.04646 141.503565 
L 134.272083 67.390058 
L 134.344741 79.103962 
L 134.574188 153.861355 
L 134.646846 141.599824 
L 134.872469 67.391125 
L 134.945127 79.009853 
L 135.174574 153.862823 
L 135.251056 140.468425 
L 135.472855 67.39263 
L 135.545513 78.916064 
L 135.77496 153.863853 
L 135.851443 140.567942 
L 136.073241 67.394575 
L 136.1459 78.822597 
L 136.375347 153.864444 
L 136.451829 140.667155 
L 136.673628 67.396958 
L 136.746286 78.729453 
L 136.975733 153.864596 
L 137.052215 140.766063 
L 137.277838 67.39618 
L 137.346672 78.636632 
L 137.576119 153.864309 
L 137.652602 140.864665 
L 137.878224 67.393931 
L 137.947059 78.544136 
L 138.176506 153.863583 
L 138.252988 140.96296 
L 138.478611 67.392122 
L 138.547445 78.451966 
L 138.776892 153.862419 
L 138.857198 139.808425 
L 139.078997 67.39075 
L 139.147831 78.360122 
L 139.377278 153.860816 
L 139.457585 139.909909 
L 139.679383 67.389818 
L 139.748217 78.268605 
L 139.977664 153.858775 
L 140.057971 140.011096 
L 140.27977 67.389324 
L 140.348604 78.177417 
L 140.578051 153.856295 
L 140.658357 140.111984 
L 140.880156 67.38927 
L 140.94899 78.086558 
L 141.182261 153.858195 
L 141.258743 140.212573 
L 141.480542 67.389653 
L 141.549376 77.996029 
L 141.782647 153.860347 
L 141.85913 140.312862 
L 142.080928 67.390476 
L 142.149763 77.905831 
L 142.383034 153.862059 
L 142.46334 139.135695 
L 142.681315 67.391737 
L 142.750149 77.815966 
L 142.98342 153.863333 
L 143.063726 139.239101 
L 143.281701 67.393437 
L 143.350535 77.726433 
L 143.583806 153.864169 
L 143.664113 139.342217 
L 143.882087 67.395576 
L 143.950921 77.637234 
L 144.184193 153.864565 
L 144.264499 139.445042 
L 144.486298 67.397623 
L 144.551308 77.54837 
L 144.784579 153.864523 
L 144.864885 139.547574 
L 145.086684 67.39513 
L 145.151694 77.459842 
L 145.384965 153.864042 
L 145.465272 139.649813 
L 145.68707 67.393076 
L 145.75208 77.37165 
L 145.985351 153.863122 
L 146.069482 138.450527 
L 146.287457 67.39146 
L 146.352467 77.283795 
L 146.585738 153.861764 
L 146.669868 138.555811 
L 146.887843 67.390283 
L 146.952853 77.196279 
L 147.186124 153.859966 
L 147.270255 138.660811 
L 147.488229 67.389545 
L 147.553239 77.109102 
L 147.78651 153.857731 
L 147.870641 138.765527 
L 148.088615 67.389246 
L 148.153625 77.022265 
L 148.390721 153.856807 
L 148.471027 138.869958 
L 148.689002 67.389385 
L 148.754012 76.935769 
L 148.991107 153.859202 
L 149.071413 138.974102 
L 149.289388 67.389964 
L 149.354398 76.849615 
L 149.591493 153.861159 
L 149.675624 137.75322 
L 149.889774 67.390981 
L 149.954784 76.763804 
L 150.19188 153.862678 
L 150.27601 137.860336 
L 150.490161 67.392436 
L 150.555171 76.678337 
L 150.792266 153.863757 
L 150.876396 137.967175 
L 151.090547 67.39433 
L 151.155557 76.593213 
L 151.392652 153.864398 
L 151.476783 138.073737 
L 151.690933 67.396663 
L 151.755943 76.508436 
L 151.993038 153.8646 
L 152.077169 138.18002 
L 152.295144 67.396465 
L 152.356329 76.424004 
L 152.593425 153.864364 
L 152.677555 138.286024 
L 152.89553 67.394166 
L 152.96054 77.420743 
L 153.193811 153.863689 
L 153.274117 139.694997 
L 153.495916 67.392306 
L 153.56475 78.462481 
L 153.794197 153.862574 
L 153.87068 141.049767 
L 154.096302 67.390885 
L 154.168961 79.547807 
L 154.394584 153.861022 
L 154.471066 141.147481 
L 154.696689 67.389902 
L 154.769347 79.452212 
L 154.99497 153.85903 
L 155.071452 141.244885 
L 155.297075 67.389359 
L 155.369733 79.356932 
L 155.595356 153.8566 
L 155.671838 141.341979 
L 155.897461 67.389254 
L 155.97012 79.26197 
L 156.199567 153.857922 
L 156.272225 141.438761 
L 156.497848 67.389587 
L 156.570506 79.167327 
L 156.799953 153.860123 
L 156.872611 141.535231 
L 157.098234 67.39036 
L 157.170892 79.073002 
L 157.400339 153.861886 
L 157.472997 141.631386 
L 157.69862 67.391571 
L 157.775103 80.182409 
L 158.000725 153.86321 
L 158.073384 141.727228 
L 158.299006 67.393221 
L 158.375489 80.084763 
L 158.601112 153.864095 
L 158.67377 141.822753 
L 158.899393 67.395309 
L 158.975875 79.987427 
L 159.201498 153.864542 
L 159.274156 141.917962 
L 159.499779 67.397837 
L 159.576261 79.890403 
L 159.801884 153.86455 
L 159.874542 142.012854 
L 160.103989 67.395392 
L 160.176648 79.79369 
L 160.402271 153.864119 
L 160.474929 142.107427 
L 160.704376 67.393288 
L 160.777034 79.69729 
L 161.002657 153.863249 
L 161.075315 142.20168 
L 161.304762 67.391623 
L 161.37742 79.601203 
L 161.603043 153.861941 
L 161.679525 141.09308 
L 161.905148 67.390396 
L 161.977807 79.505432 
L 162.203429 153.860194 
L 162.279912 141.190657 
L 162.505535 67.389608 
L 162.578193 79.409976 
L 162.803816 153.858008 
L 162.880298 141.287924 
L 163.105921 67.389258 
L 163.178579 79.314838 
L 163.408026 153.856505 
L 163.480684 141.384879 
L 163.706307 67.389347 
L 163.778965 79.220017 
L 164.008412 153.858951 
L 164.081071 141.481523 
L 164.306693 67.389875 
L 164.379352 79.125514 
L 164.608799 153.860958 
L 164.681457 141.577854 
L 164.90708 67.390842 
L 164.979738 79.031331 
L 165.209185 153.862526 
L 165.281843 141.67387 
L 165.507466 67.392248 
L 165.583948 80.139126 
L 165.809571 153.863656 
L 165.882229 141.769572 
L 166.107852 67.394092 
L 166.184335 80.041618 
L 166.409958 153.864347 
L 166.482616 141.864957 
L 166.708239 67.396375 
L 166.784721 79.94442 
L 167.010344 153.864599 
L 167.083002 141.960026 
L 167.312449 67.396755 
L 167.385107 79.847533 
L 167.61073 153.864413 
L 167.683388 142.054776 
L 167.912835 67.394406 
L 167.985494 79.750959 
L 168.211116 153.863788 
L 168.283775 142.149208 
L 168.513222 67.392496 
L 168.58588 79.654697 
L 168.811503 153.862724 
L 168.884161 142.24332 
L 169.113608 67.391025 
L 169.19009 80.786122 
L 169.411889 153.861221 
L 169.484547 142.337111 
L 169.713994 67.389993 
L 169.790476 80.686603 
L 170.012275 153.85928 
L 170.084933 142.43058 
L 170.31438 67.389399 
L 170.390863 80.587388 
L 170.612662 153.8569 
L 170.68532 142.523727 
L 170.914767 67.389243 
L 170.991249 80.488478 
L 171.216872 153.857642 
L 171.285706 142.61655 
L 171.515153 67.389527 
L 171.591635 80.389873 
L 171.817258 153.859894 
L 171.886092 142.709048 
L 172.115539 67.390249 
L 172.192022 80.291576 
L 172.417645 153.861707 
L 172.486479 142.801221 
L 172.715926 67.39141 
L 172.796232 81.446135 
L 173.018031 153.863081 
L 173.086865 142.893067 
L 173.316312 67.39301 
L 173.396618 81.344649 
L 173.618417 153.864016 
L 173.687251 142.984586 
L 173.916698 67.395049 
L 173.997005 81.243461 
L 174.218803 153.864513 
L 174.287637 143.075777 
L 174.517084 67.397526 
L 174.597391 81.14257 
L 174.81919 153.864571 
L 174.888024 143.166638 
L 175.121295 67.395661 
L 175.197777 81.041979 
L 175.419576 153.86419 
L 175.48841 143.257169 
L 175.721681 67.393506 
L 175.798163 80.941688 
L 176.019962 153.863371 
L 176.088796 143.347369 
L 176.322067 67.391791 
L 176.402374 82.118879 
L 176.620349 153.862113 
L 176.689183 143.437237 
L 176.922454 67.390514 
L 177.00276 82.015471 
L 177.220735 153.860416 
L 177.289569 143.526772 
L 177.52284 67.389675 
L 177.603146 81.912353 
L 177.821121 153.85828 
L 177.889955 143.615973 
L 178.123226 67.389276 
L 178.203533 81.809526 
L 178.425332 153.856198 
L 178.490341 143.70484 
L 178.723613 67.389315 
L 178.803919 81.706992 
L 179.025718 153.858694 
L 179.090728 143.793371 
L 179.323999 67.389793 
L 179.404305 81.604751 
L 179.626104 153.860751 
L 179.691114 143.881565 
L 179.924385 67.390709 
L 180.008516 82.804061 
L 180.22649 153.862369 
L 180.2915 143.969422 
L 180.524771 67.392065 
L 180.608902 82.698775 
L 180.826877 153.863549 
L 180.891887 144.056941 
L 181.125158 67.393859 
L 181.209288 82.593772 
L 181.427263 153.86429 
L 181.492273 144.14412 
L 181.725544 67.396092 
L 181.809675 82.489054 
L 182.027649 153.864593 
L 182.092659 144.230959 
L 182.329754 67.397051 
L 182.410061 82.384622 
L 182.628036 153.864457 
L 182.693046 144.317457 
L 182.930141 67.394653 
L 183.010447 82.280476 
L 183.228422 153.863882 
L 183.293432 144.403614 
L 183.530527 67.392692 
L 183.614658 83.50138 
L 183.828808 153.862868 
L 183.893818 144.489428 
L 184.130913 67.391171 
L 184.215044 83.394263 
L 184.429194 153.861415 
L 184.494204 144.574898 
L 184.7313 67.390088 
L 184.81543 83.287422 
L 185.029581 153.859524 
L 185.094591 144.660023 
L 185.331686 67.389444 
L 185.415816 83.180858 
L 185.629967 153.857194 
L 185.694977 144.744803 
L 185.932072 67.389239 
L 186.016203 83.074572 
L 186.234177 153.857357 
L 186.295363 144.829238 
L 186.532458 67.389472 
L 186.616589 82.968567 
L 186.834564 153.859659 
L 186.899574 143.832471 
L 187.132845 67.390145 
L 187.213151 81.559566 
L 187.43495 153.861522 
L 187.503784 142.790705 
L 187.733231 67.391256 
L 187.809713 80.204767 
L 188.035336 153.862946 
L 188.107994 141.705353 
L 188.333617 67.392805 
L 188.4101 80.107051 
L 188.635723 153.863932 
L 188.708381 141.800951 
L 188.934004 67.394794 
L 189.010486 80.009644 
L 189.236109 153.864478 
L 189.308767 141.896232 
L 189.53439 67.397221 
L 189.610872 79.912548 
L 189.836495 153.864587 
L 189.909153 141.991196 
L 190.1386 67.395935 
L 190.211259 79.815764 
L 190.436881 153.864256 
L 190.50954 142.085842 
L 190.738987 67.39373 
L 190.811645 79.719292 
L 191.037268 153.863487 
L 191.109926 142.180169 
L 191.339373 67.391965 
L 191.412031 79.623134 
L 191.637654 153.862279 
L 191.714136 141.070737 
L 191.939759 67.390637 
L 192.012417 79.527291 
L 192.23804 153.860632 
L 192.314523 141.168385 
L 192.540145 67.389749 
L 192.612804 79.431763 
L 192.838427 153.858546 
L 192.914909 141.265722 
L 193.140532 67.389299 
L 193.21319 79.336552 
L 193.438813 153.856022 
L 193.515295 141.362749 
L 193.740918 67.389288 
L 193.813576 79.241658 
L 194.043023 153.85843 
L 194.115681 141.459465 
L 194.341304 67.389716 
L 194.413963 79.147083 
L 194.64341 153.860538 
L 194.716068 141.555867 
L 194.941691 67.390583 
L 195.014349 79.052827 
L 195.243796 153.862207 
L 195.316454 141.651955 
L 195.542077 67.391888 
L 195.618559 80.161454 
L 195.844182 153.863437 
L 195.91684 141.747729 
L 196.142463 67.393632 
L 196.218945 80.063874 
L 196.444568 153.864228 
L 196.517227 141.843187 
L 196.742849 67.395814 
L 196.819332 79.966605 
L 197.044955 153.86458 
L 197.117613 141.938328 
L 197.34706 67.397353 
L 197.419718 79.869647 
L 197.645341 153.864494 
L 197.717999 142.033151 
L 197.947446 67.394905 
L 198.020104 79.773001 
L 198.245727 153.863969 
L 198.318385 142.127656 
L 198.547832 67.392894 
L 198.620491 79.676668 
L 198.846114 153.863006 
L 198.918772 142.221841 
L 199.148219 67.391323 
L 199.220877 79.58065 
L 199.4465 153.861603 
L 199.522982 141.11402 
L 199.748605 67.39019 
L 199.821263 79.484946 
L 200.046886 153.859762 
L 200.123368 141.211531 
L 200.348991 67.389496 
L 200.42165 79.389558 
L 200.647272 153.857483 
L 200.723755 141.308731 
L 200.949378 67.38924 
L 201.022036 79.294487 
L 201.251483 153.857066 
L 201.324141 141.40562 
L 201.549764 67.389424 
L 201.622422 79.199734 
L 201.851869 153.859418 
L 201.924527 141.502197 
L 202.15015 67.390046 
L 202.222808 79.1053 
L 202.452255 153.861331 
L 202.524914 141.59846 
L 202.750536 67.391106 
L 202.823195 79.011186 
L 203.052642 153.862805 
L 203.129124 140.467011 
L 203.350923 67.392606 
L 203.423581 78.917393 
L 203.653028 153.863841 
L 203.72951 140.566532 
L 203.951309 67.394544 
L 204.023967 78.823921 
L 204.253414 153.864438 
L 204.329897 140.665749 
L 204.551695 67.396921 
L 204.624354 78.730772 
L 204.853801 153.864596 
L 204.930283 140.764661 
L 205.155906 67.396215 
L 205.22474 78.637947 
L 205.454187 153.864316 
L 205.530669 140.863268 
L 205.756292 67.39396 
L 205.825126 78.545447 
L 206.054573 153.863597 
L 206.131055 140.961567 
L 206.356678 67.392144 
L 206.425512 78.453272 
L 206.654959 153.862439 
L 206.735266 139.806983 
L 206.957065 67.390767 
L 207.025899 78.361423 
L 207.255346 153.860842 
L 207.335652 139.908471 
L 207.557451 67.389828 
L 207.626285 78.269902 
L 207.855732 153.858807 
L 207.936038 140.009662 
L 208.157837 67.389328 
L 208.226671 78.178709 
L 208.456118 153.856333 
L 208.536425 140.110554 
L 208.758223 67.389267 
L 208.827058 78.087845 
L 209.060329 153.858162 
L 209.136811 140.211148 
L 209.35861 67.389645 
L 209.427444 77.997312 
L 209.660715 153.860319 
L 209.737197 140.311441 
L 209.958996 67.390461 
L 210.02783 77.907109 
L 210.261101 153.862038 
L 210.337584 140.411433 
L 210.559382 67.391716 
L 210.632041 78.969609 
L 210.861488 153.863318 
L 210.93797 140.511123 
L 211.159769 67.39341 
L 211.232427 78.875958 
L 211.461874 153.86416 
L 211.538356 140.610509 
L 211.760155 67.395543 
L 211.832813 78.782629 
L 212.06226 153.864562 
L 212.138742 140.709591 
L 212.364365 67.397661 
L 212.433199 78.689623 
L 212.662646 153.864526 
L 212.739129 140.808369 
L 212.964752 67.395162 
L 213.033586 78.596942 
L 213.263033 153.864052 
L 213.339515 140.906839 
L 213.565138 67.393102 
L 213.633972 78.504585 
L 213.863419 153.863138 
L 213.939901 141.005003 
L 214.165524 67.39148 
L 214.238182 79.591605 
L 214.463805 153.861786 
L 214.540288 141.102858 
L 214.76591 67.390297 
L 214.838569 79.495865 
L 215.064192 153.859995 
L 215.140674 141.200404 
L 215.366297 67.389553 
L 215.438955 79.400441 
L 215.664578 153.857765 
L 215.74106 141.29764 
L 215.966683 67.389247 
L 216.039341 79.305334 
L 216.268788 153.856769 
L 216.341446 141.394565 
L 216.567069 67.38938 
L 216.639728 79.210545 
L 216.869175 153.859171 
L 216.941833 141.491177 
L 217.167456 67.389952 
L 217.240114 79.116075 
L 217.469561 153.861135 
L 217.542219 141.587476 
L 217.767842 67.390963 
L 217.8405 79.021924 
L 218.069947 153.862659 
L 218.146429 140.45562 
L 218.368228 67.392412 
L 218.440886 78.928094 
L 218.670333 153.863745 
L 218.746816 140.555175 
L 218.968614 67.3943 
L 219.041273 78.834586 
L 219.27072 153.864392 
L 219.347202 140.654427 
L 219.569001 67.396627 
L 219.641659 78.7414 
L 219.871106 153.864601 
L 219.947588 140.753374 
L 220.173211 67.3965 
L 220.242045 78.648538 
L 220.471492 153.86437 
L 220.547975 140.852016 
L 220.773597 67.394196 
L 220.842432 78.556 
L 221.071879 153.863701 
L 221.148361 140.950351 
L 221.373984 67.392329 
L 221.442818 78.463787 
L 221.672265 153.862593 
L 221.748747 141.048378 
L 221.97437 67.390902 
L 222.047028 79.549166 
L 222.272651 153.861047 
L 222.349133 141.146096 
L 222.574756 67.389913 
L 222.647415 79.453566 
L 222.873037 153.859062 
L 222.94952 141.243505 
L 223.175143 67.389363 
L 223.247801 79.358283 
L 223.473424 153.856638 
L 223.549906 141.340603 
L 223.775529 67.389252 
L 223.848187 79.263316 
L 224.077634 153.857887 
L 224.150292 141.43739 
L 224.375915 67.38958 
L 224.448573 79.168668 
L 224.67802 153.860095 
L 224.750679 141.533864 
L 224.976301 67.390346 
L 225.04896 79.074339 
L 225.278407 153.861864 
L 225.351065 141.630024 
L 225.576688 67.391551 
L 225.65317 80.183797 
L 225.878793 153.863194 
L 225.951451 141.72587 
L 226.177074 67.393194 
L 226.253556 80.086147 
L 226.479179 153.864086 
L 226.551837 141.8214 
L 226.77746 67.395277 
L 226.853943 79.988807 
L 227.079566 153.864539 
L 227.152224 141.916613 
L 227.377847 67.397798 
L 227.454329 79.891777 
L 227.679952 153.864553 
L 227.75261 142.011509 
L 227.982057 67.395426 
L 228.054715 79.79506 
L 228.280338 153.864128 
L 228.352996 142.106087 
L 228.582443 67.393315 
L 228.655102 79.698656 
L 228.880724 153.863265 
L 228.953383 142.200345 
L 229.18283 67.391643 
L 229.255488 79.602565 
L 229.481111 153.861963 
L 229.557593 141.091692 
L 229.783216 67.39041 
L 229.855874 79.506789 
L 230.081497 153.860222 
L 230.157979 141.189274 
L 230.383602 67.389616 
L 230.45626 79.411329 
L 230.681883 153.858042 
L 230.758366 141.286545 
L 230.983988 67.38926 
L 231.056647 79.316186 
L 231.286094 153.856467 
L 231.358752 141.383505 
L 231.584375 67.389343 
L 231.657033 79.22136 
L 231.88648 153.858919 
L 231.959138 141.480154 
L 232.184761 67.389865 
L 232.257419 79.126853 
L 232.486866 153.860933 
L 232.559524 141.576489 
L 232.785147 67.390825 
L 232.857806 79.032666 
L 233.087253 153.862507 
L 233.159911 141.67251 
L 233.385534 67.392225 
L 233.462016 80.140513 
L 233.687639 153.863643 
L 233.760297 141.768216 
L 233.98592 67.394063 
L 234.062402 80.043 
L 234.288025 153.86434 
L 234.360683 141.863606 
L 234.586306 67.396339 
L 234.662788 79.945797 
L 234.888411 153.864599 
L 234.96107 141.958679 
L 235.190517 67.396792 
L 235.263175 79.848906 
L 235.488798 153.864419 
L 235.561456 142.053434 
L 235.790903 67.394437 
L 235.863561 79.752327 
L 236.089184 153.8638 
L 236.161842 142.14787 
L 236.391289 67.39252 
L 236.463947 79.656061 
L 236.68957 153.862742 
L 236.762228 142.241987 
L 236.991675 67.391043 
L 237.068158 80.787536 
L 237.289957 153.861246 
L 237.362615 142.335782 
L 237.592062 67.390004 
L 237.668544 80.688013 
L 237.890343 153.859311 
L 237.963001 142.429256 
L 238.192448 67.389404 
L 238.26893 80.588794 
L 238.490729 153.856937 
L 238.563387 142.522407 
L 238.792834 67.389243 
L 238.869317 80.489879 
L 239.094939 153.857607 
L 239.163774 142.615235 
L 239.393221 67.38952 
L 239.469703 80.391271 
L 239.695326 153.859865 
L 239.76416 142.707738 
L 239.993607 67.390236 
L 240.070089 80.292969 
L 240.295712 153.861684 
L 240.364546 142.799915 
L 240.593993 67.391391 
L 240.6743 81.447578 
L 240.896098 153.863064 
L 240.964932 142.891766 
L 241.194379 67.392984 
L 241.274686 81.346088 
L 241.496485 153.864006 
L 241.565319 142.983289 
L 241.794766 67.395017 
L 241.875072 81.244895 
L 242.096871 153.864509 
L 242.165705 143.074485 
L 242.395152 67.397488 
L 242.475458 81.144 
L 242.697257 153.864573 
L 242.766091 143.165351 
L 242.999362 67.395695 
L 243.075845 81.043405 
L 243.297644 153.864199 
L 243.366478 143.255887 
L 243.599749 67.393534 
L 243.676231 80.943109 
L 243.89803 153.863386 
L 243.966864 143.346091 
L 244.200135 67.391812 
L 244.276617 80.843115 
L 244.498416 153.862134 
L 244.571074 142.283565 
L 244.800521 67.390529 
L 244.877004 80.743423 
L 245.098802 153.860443 
L 245.171461 142.377218 
L 245.400908 67.389684 
L 245.47739 80.644035 
L 245.699189 153.858314 
L 245.771847 142.470549 
L 246.001294 67.389278 
L 246.077776 80.54495 
L 246.303399 153.856159 
L 246.372233 142.563557 
L 246.60168 67.389311 
L 246.678162 80.446171 
L 246.903785 153.858661 
L 246.972619 142.656241 
L 247.202066 67.389783 
L 247.278549 80.347698 
L 247.504172 153.860725 
L 247.573006 142.7486 
L 247.802453 67.390693 
L 247.878935 80.249532 
L 248.104558 153.862349 
L 248.177216 141.661554 
L 248.402839 67.392042 
L 248.479321 80.151675 
L 248.704944 153.863536 
L 248.777602 141.757296 
L 249.003225 67.39383 
L 249.079708 80.054126 
L 249.305331 153.864283 
L 249.377989 141.852722 
L 249.603612 67.396057 
L 249.680094 79.956888 
L 249.905717 153.864592 
L 249.978375 141.947831 
L 250.207822 67.397089 
L 250.28048 79.859962 
L 250.506103 153.864462 
L 250.578761 142.042623 
L 250.808208 67.394684 
L 250.880866 79.763347 
L 251.106489 153.863893 
L 251.179148 142.137096 
L 251.408595 67.392717 
L 251.481253 79.667045 
L 251.706876 153.862885 
L 251.779534 142.231249 
L 252.008981 67.39119 
L 252.085463 80.798928 
L 252.307262 153.861439 
L 252.37992 142.325081 
L 252.609367 67.390101 
L 252.685849 80.69937 
L 252.9 153.668492 
L 252.9 153.668492 
" clip-path="url(#p6cc0971af5)" style="fill: none; stroke: #808080; stroke-width: 1.5; stroke-linecap: square"/>
   </g>
   <g id="patch_3">
    <path d="M 61.698 161.7 
L 61.698 17.28 
" style="fill: none; stroke: #000000; stroke-width: 0.8; stroke-linejoin: miter; stroke-linecap: square"/>
   </g>
   <g id="patch_4">
    <path d="M 252.9 161.7 
L 252.9 17.28 
" style="fill: none; stroke: #000000; stroke-width: 0.8; stroke-linejoin: miter; stroke-linecap: square"/>
   </g>
   <g id="patch_5">
    <path d="M 61.698 161.7 
L 252.9 161.7 
" style="fill: none; stroke: #000000; stroke-width: 0.8; stroke-linejoin: miter; stroke-linecap: square"/>
   </g>
   <g id="patch_6">
    <path d="M 61.698 17.28 
L 252.9 17.28 
" style="fill: none; stroke: #000000; stroke-width: 0.8; stroke-linejoin: miter; stroke-linecap: square"/>
   </g>
  </g>
 </g>
 <defs>
  <clipPath id="p6cc0971af5">
   <rect x="61.698" y="17.28" width="191.202" height="144.42"/>
  </clipPath>
 </defs>
</svg>
