<?xml version="1.0" encoding="utf-8" standalone="no"?>
<!DOCTYPE svg PUBLIC "-//W3C//DTD SVG 1.1//EN"
  "http://www.w3.org/Graphics/SVG/1.1/DTD/svg11.dtd">
<svg xmlns:xlink="http://www.w3.org/1999/xlink" width="288pt" height="216pt" viewBox="0 0 288 216" xmlns="http://www.w3.org/2000/svg" version="1.1">
 <metadata>
  <rdf:RDF xmlns:dc="http://purl.org/dc/elements/1.1/" xmlns:cc="http://creativecommons.org/ns#" xmlns:rdf="http://www.w3.org/1999/02/22-rdf-syntax-ns#">
   <cc:Work>
    <dc:type rdf:resource="http://purl.org/dc/dcmitype/StillImage"/>
    <dc:date>2024-03-24T17:52:25.394506</dc:date>
    <dc:format>image/svg+xml</dc:format>
    <dc:creator>
     <cc:Agent>
      <dc:title>Matplotlib v3.7.2, https://matplotlib.org/</dc:title>
     </cc:Agent>
    </dc:creator>
   </cc:Work>
  </rdf:RDF>
 </metadata>
 <defs>
  <style type="text/css">*{stroke-linejoin: round; stroke-linecap: butt}</style>
 </defs>
 <g id="figure_1">
  <g id="patch_1">
   <path d="M 0 216 
L 288 216 
L 288 0 
L 0 0 
L 0 216 
z
" style="fill: none"/>
  </g>
  <g id="axes_1">
   <g id="patch_2">
    <path d="M 75.774 155.94 
L 268.56 155.94 
L 268.56 19.44 
L 75.774 19.44 
L 75.774 155.94 
z
" style="fill: none"/>
   </g>
   <g id="matplotlib.axis_1">
    <g id="xtick_1">
     <g id="line2d_1">
      <defs>
       <path id="m5caaaba470" d="M 0 0 
L 0 -3.5 
" style="stroke: #000000; stroke-width: 0.8"/>
      </defs>
      <g>
       <use xlink:href="#m5caaaba470" x="75.774" y="155.94" style="stroke: #000000; stroke-width: 0.8"/>
      </g>
     </g>
     <g id="text_1">
      <!-- 0 -->
      <g transform="translate(70.769156 172.324062) scale(0.18 -0.18)">
       <defs>
        <path id="ArialMT-30" d="M 266 2259 
Q 266 3072 433 3567 
Q 600 4063 929 4331 
Q 1259 4600 1759 4600 
Q 2128 4600 2406 4451 
Q 2684 4303 2865 4023 
Q 3047 3744 3150 3342 
Q 3253 2941 3253 2259 
Q 3253 1453 3087 958 
Q 2922 463 2592 192 
Q 2263 -78 1759 -78 
Q 1097 -78 719 397 
Q 266 969 266 2259 
z
M 844 2259 
Q 844 1131 1108 757 
Q 1372 384 1759 384 
Q 2147 384 2411 759 
Q 2675 1134 2675 2259 
Q 2675 3391 2411 3762 
Q 2147 4134 1753 4134 
Q 1366 4134 1134 3806 
Q 844 3388 844 2259 
z
" transform="scale(0.015625)"/>
       </defs>
       <use xlink:href="#ArialMT-30"/>
      </g>
     </g>
    </g>
    <g id="xtick_2">
     <g id="line2d_2">
      <g>
       <use xlink:href="#m5caaaba470" x="152.8884" y="155.94" style="stroke: #000000; stroke-width: 0.8"/>
      </g>
     </g>
     <g id="text_2">
      <!-- 200 -->
      <g transform="translate(137.873869 172.324062) scale(0.18 -0.18)">
       <defs>
        <path id="ArialMT-32" d="M 3222 541 
L 3222 0 
L 194 0 
Q 188 203 259 391 
Q 375 700 629 1000 
Q 884 1300 1366 1694 
Q 2113 2306 2375 2664 
Q 2638 3022 2638 3341 
Q 2638 3675 2398 3904 
Q 2159 4134 1775 4134 
Q 1369 4134 1125 3890 
Q 881 3647 878 3216 
L 300 3275 
Q 359 3922 746 4261 
Q 1134 4600 1788 4600 
Q 2447 4600 2831 4234 
Q 3216 3869 3216 3328 
Q 3216 3053 3103 2787 
Q 2991 2522 2730 2228 
Q 2469 1934 1863 1422 
Q 1356 997 1212 845 
Q 1069 694 975 541 
L 3222 541 
z
" transform="scale(0.015625)"/>
       </defs>
       <use xlink:href="#ArialMT-32"/>
       <use xlink:href="#ArialMT-30" x="55.615234"/>
       <use xlink:href="#ArialMT-30" x="111.230469"/>
      </g>
     </g>
    </g>
    <g id="xtick_3">
     <g id="line2d_3">
      <g>
       <use xlink:href="#m5caaaba470" x="230.0028" y="155.94" style="stroke: #000000; stroke-width: 0.8"/>
      </g>
     </g>
     <g id="text_3">
      <!-- 400 -->
      <g transform="translate(214.988269 172.324062) scale(0.18 -0.18)">
       <defs>
        <path id="ArialMT-34" d="M 2069 0 
L 2069 1097 
L 81 1097 
L 81 1613 
L 2172 4581 
L 2631 4581 
L 2631 1613 
L 3250 1613 
L 3250 1097 
L 2631 1097 
L 2631 0 
L 2069 0 
z
M 2069 1613 
L 2069 3678 
L 634 1613 
L 2069 1613 
z
" transform="scale(0.015625)"/>
       </defs>
       <use xlink:href="#ArialMT-34"/>
       <use xlink:href="#ArialMT-30" x="55.615234"/>
       <use xlink:href="#ArialMT-30" x="111.230469"/>
      </g>
     </g>
    </g>
    <g id="text_4">
     <!-- $t$ -->
     <g transform="translate(168.567 192.785625) scale(0.18 -0.18)">
      <defs>
       <path id="DejaVuSans-Oblique-74" d="M 2706 3500 
L 2619 3053 
L 1472 3053 
L 1100 1153 
Q 1081 1047 1072 975 
Q 1063 903 1063 863 
Q 1063 663 1183 572 
Q 1303 481 1569 481 
L 2150 481 
L 2053 0 
L 1503 0 
Q 991 0 739 200 
Q 488 400 488 806 
Q 488 878 497 964 
Q 506 1050 525 1153 
L 897 3053 
L 409 3053 
L 500 3500 
L 978 3500 
L 1172 4494 
L 1747 4494 
L 1556 3500 
L 2706 3500 
z
" transform="scale(0.015625)"/>
      </defs>
      <use xlink:href="#DejaVuSans-Oblique-74" transform="translate(0 0.78125)"/>
     </g>
    </g>
   </g>
   <g id="matplotlib.axis_2">
    <g id="ytick_1">
     <g id="line2d_4">
      <defs>
       <path id="mc19b18873f" d="M 0 0 
L 3.5 0 
" style="stroke: #000000; stroke-width: 0.8"/>
      </defs>
      <g>
       <use xlink:href="#mc19b18873f" x="75.774" y="150.563612" style="stroke: #000000; stroke-width: 0.8"/>
      </g>
     </g>
     <g id="text_5">
      <!-- 0 -->
      <g transform="translate(62.264313 157.005643) scale(0.18 -0.18)">
       <use xlink:href="#ArialMT-30"/>
      </g>
     </g>
    </g>
    <g id="ytick_2">
     <g id="line2d_5">
      <g>
       <use xlink:href="#mc19b18873f" x="75.774" y="67.747875" style="stroke: #000000; stroke-width: 0.8"/>
      </g>
     </g>
     <g id="text_6">
      <!-- 100 -->
      <g transform="translate(42.244938 74.189906) scale(0.18 -0.18)">
       <defs>
        <path id="ArialMT-31" d="M 2384 0 
L 1822 0 
L 1822 3584 
Q 1619 3391 1289 3197 
Q 959 3003 697 2906 
L 697 3450 
Q 1169 3672 1522 3987 
Q 1875 4303 2022 4600 
L 2384 4600 
L 2384 0 
z
" transform="scale(0.015625)"/>
       </defs>
       <use xlink:href="#ArialMT-31"/>
       <use xlink:href="#ArialMT-30" x="55.615234"/>
       <use xlink:href="#ArialMT-30" x="111.230469"/>
      </g>
     </g>
    </g>
    <g id="text_7">
     <!-- $r_i / r_0$ -->
     <g transform="translate(34.667438 104.43) rotate(-90) scale(0.18 -0.18)">
      <defs>
       <path id="DejaVuSans-Oblique-72" d="M 2853 2969 
Q 2766 3016 2653 3041 
Q 2541 3066 2413 3066 
Q 1953 3066 1609 2717 
Q 1266 2369 1153 1784 
L 800 0 
L 225 0 
L 909 3500 
L 1484 3500 
L 1375 2956 
Q 1603 3259 1920 3421 
Q 2238 3584 2597 3584 
Q 2691 3584 2781 3573 
Q 2872 3563 2963 3538 
L 2853 2969 
z
" transform="scale(0.015625)"/>
       <path id="DejaVuSans-Oblique-69" d="M 1172 4863 
L 1747 4863 
L 1606 4134 
L 1031 4134 
L 1172 4863 
z
M 909 3500 
L 1484 3500 
L 800 0 
L 225 0 
L 909 3500 
z
" transform="scale(0.015625)"/>
       <path id="DejaVuSans-2f" d="M 1625 4666 
L 2156 4666 
L 531 -594 
L 0 -594 
L 1625 4666 
z
" transform="scale(0.015625)"/>
       <path id="DejaVuSans-30" d="M 2034 4250 
Q 1547 4250 1301 3770 
Q 1056 3291 1056 2328 
Q 1056 1369 1301 889 
Q 1547 409 2034 409 
Q 2525 409 2770 889 
Q 3016 1369 3016 2328 
Q 3016 3291 2770 3770 
Q 2525 4250 2034 4250 
z
M 2034 4750 
Q 2819 4750 3233 4129 
Q 3647 3509 3647 2328 
Q 3647 1150 3233 529 
Q 2819 -91 2034 -91 
Q 1250 -91 836 529 
Q 422 1150 422 2328 
Q 422 3509 836 4129 
Q 1250 4750 2034 4750 
z
" transform="scale(0.015625)"/>
      </defs>
      <use xlink:href="#DejaVuSans-Oblique-72" transform="translate(0 0.09375)"/>
      <use xlink:href="#DejaVuSans-Oblique-69" transform="translate(41.113281 -16.3125) scale(0.7)"/>
      <use xlink:href="#DejaVuSans-2f" transform="translate(63.295898 0.09375)"/>
      <use xlink:href="#DejaVuSans-Oblique-72" transform="translate(96.987305 0.09375)"/>
      <use xlink:href="#DejaVuSans-30" transform="translate(138.100586 -16.3125) scale(0.7)"/>
     </g>
    </g>
   </g>
   <g id="line2d_6">
    <path d="M 75.774 149.735455 
L 268.56 149.735455 
L 268.56 149.735455 
" clip-path="url(#p6635c3eb92)" style="fill: none; stroke: #000000; stroke-width: 1.5; stroke-linecap: square"/>
   </g>
   <g id="line2d_7">
    <path d="M 75.774 149.218095 
L 76.109454 149.461969 
L 76.683968 149.566801 
L 77.728889 149.516128 
L 78.338105 149.301701 
L 78.642713 148.965579 
L 78.850926 148.378674 
L 79.01287 147.147076 
L 79.128543 144.282644 
L 79.205659 135.319817 
L 79.244217 98.159876 
L 79.259641 25.644545 
L 79.340612 140.800368 
L 79.506412 147.219678 
L 79.733904 148.667895 
L 80.019233 149.195317 
L 80.408668 149.444729 
L 81.087288 149.580936 
L 82.186191 149.569737 
L 82.73757 149.382485 
L 83.038322 149.035609 
L 83.300516 148.764726 
L 83.319795 148.779406 
L 83.516441 149.115716 
L 83.859607 149.519564 
L 84.303023 149.665743 
L 85.324809 149.703401 
L 86.855561 149.577235 
L 87.460921 149.510524 
L 88.112551 149.694524 
L 89.543052 149.705206 
L 90.958129 149.564252 
L 91.47095 149.514268 
L 92.19584 149.700297 
L 93.853833 149.698071 
L 95.033707 149.55027 
L 95.492546 149.509989 
L 96.252138 149.701828 
L 97.987247 149.694637 
L 99.086149 149.54349 
L 99.521854 149.508605 
L 100.29687 149.702537 
L 102.066681 149.692851 
L 103.130881 149.539305 
L 103.551162 149.50723 
L 104.337745 149.702998 
L 106.130691 149.691577 
L 107.1679 149.537805 
L 107.584326 149.507395 
L 108.370909 149.703022 
L 110.16771 149.691398 
L 111.201064 149.537659 
L 111.61749 149.507559 
L 112.400217 149.702828 
L 114.185451 149.692022 
L 115.230372 149.538869 
L 115.650654 149.507724 
L 116.433381 149.702851 
L 118.218615 149.692005 
L 119.263536 149.538724 
L 119.683818 149.507889 
L 120.466544 149.702875 
L 122.255634 149.691829 
L 123.296699 149.538579 
L 123.716981 149.508055 
L 124.495852 149.702679 
L 126.273375 149.692443 
L 127.326007 149.539786 
L 127.750145 149.50822 
L 128.529016 149.702703 
L 130.306539 149.692426 
L 131.359171 149.539641 
L 131.783309 149.508386 
L 132.558324 149.702505 
L 134.328135 149.692873 
L 135.392335 149.539496 
L 135.812617 149.507014 
L 136.603055 149.703182 
L 138.407568 149.690948 
L 139.43321 149.53664 
L 139.845781 149.507178 
L 140.632363 149.702991 
L 142.425309 149.691583 
L 143.462518 149.537852 
L 143.878944 149.507342 
L 144.665527 149.703014 
L 146.458473 149.691565 
L 147.495682 149.537706 
L 147.912108 149.507507 
L 148.698691 149.703037 
L 150.495492 149.691386 
L 151.528846 149.537561 
L 151.945272 149.507671 
L 152.727999 149.702844 
L 154.513233 149.692011 
L 155.558154 149.538771 
L 155.978436 149.507836 
L 156.761163 149.702867 
L 158.546397 149.691994 
L 159.591318 149.538625 
L 160.0116 149.508002 
L 160.790471 149.702672 
L 162.567993 149.692448 
L 163.624481 149.53848 
L 164.044763 149.508167 
L 164.823634 149.702695 
L 166.601157 149.692431 
L 167.653789 149.539688 
L 168.077927 149.508333 
L 168.852942 149.702497 
L 170.618897 149.69303 
L 171.683097 149.540893 
L 172.111091 149.508499 
L 172.886106 149.702521 
L 174.655917 149.692861 
L 175.720117 149.539398 
L 176.140399 149.507125 
L 176.930837 149.703198 
L 178.73535 149.690936 
L 179.760992 149.536541 
L 180.173563 149.507289 
L 180.960145 149.703007 
L 182.753091 149.691571 
L 183.7903 149.537753 
L 184.206726 149.507454 
L 184.993309 149.70303 
L 186.790111 149.691392 
L 187.823464 149.537607 
L 188.23989 149.507618 
L 189.022617 149.702836 
L 190.807851 149.692016 
L 191.852772 149.538817 
L 192.273054 149.507783 
L 193.055781 149.70286 
L 194.841015 149.691999 
L 195.885936 149.538672 
L 196.306218 149.507948 
L 197.085089 149.702664 
L 198.862611 149.692453 
L 199.9191 149.538527 
L 200.339382 149.508114 
L 201.118253 149.702688 
L 202.895775 149.692437 
L 203.948408 149.539734 
L 204.372545 149.50828 
L 205.151416 149.702711 
L 206.928939 149.69242 
L 207.981572 149.539589 
L 208.405709 149.508445 
L 209.180724 149.702514 
L 210.950535 149.692867 
L 212.014735 149.539444 
L 212.435017 149.507072 
L 213.225456 149.703191 
L 215.029969 149.690941 
L 216.055611 149.536588 
L 216.468181 149.507237 
L 217.254764 149.702999 
L 219.047709 149.691577 
L 220.084919 149.5378 
L 220.501345 149.507401 
L 221.287927 149.703022 
L 223.084729 149.691397 
L 224.118082 149.537654 
L 224.534509 149.507565 
L 225.317235 149.702829 
L 227.102469 149.692022 
L 228.14739 149.538864 
L 228.567672 149.50773 
L 229.350399 149.702852 
L 231.135633 149.692005 
L 232.180554 149.538719 
L 232.600836 149.507895 
L 233.383563 149.702876 
L 235.172653 149.691828 
L 236.213718 149.538573 
L 236.634 149.508061 
L 237.412871 149.70268 
L 239.190393 149.692442 
L 240.243026 149.539781 
L 240.667164 149.508226 
L 241.446035 149.702704 
L 243.223557 149.692425 
L 244.27619 149.539636 
L 244.700327 149.508392 
L 245.475343 149.702506 
L 247.245154 149.692872 
L 248.309354 149.539491 
L 248.729635 149.50702 
L 249.520074 149.703183 
L 251.324587 149.690947 
L 252.350229 149.536635 
L 252.762799 149.507184 
L 253.549382 149.702992 
L 255.342327 149.691582 
L 256.379537 149.537846 
L 256.795963 149.507348 
L 257.582546 149.703015 
L 259.375491 149.691565 
L 260.412701 149.537701 
L 260.829127 149.507513 
L 261.615709 149.703038 
L 263.412511 149.691386 
L 264.445864 149.537555 
L 264.862291 149.507677 
L 265.645017 149.702845 
L 267.430251 149.69201 
L 268.475172 149.538765 
L 268.56 149.509051 
L 268.56 149.509051 
" clip-path="url(#p6635c3eb92)" style="fill: none; stroke: #808080; stroke-width: 1.5; stroke-linecap: square"/>
   </g>
   <g id="patch_3">
    <path d="M 75.774 155.94 
L 75.774 19.44 
" style="fill: none; stroke: #000000; stroke-width: 0.8; stroke-linejoin: miter; stroke-linecap: square"/>
   </g>
   <g id="patch_4">
    <path d="M 268.56 155.94 
L 268.56 19.44 
" style="fill: none; stroke: #000000; stroke-width: 0.8; stroke-linejoin: miter; stroke-linecap: square"/>
   </g>
   <g id="patch_5">
    <path d="M 75.774 155.94 
L 268.56 155.94 
" style="fill: none; stroke: #000000; stroke-width: 0.8; stroke-linejoin: miter; stroke-linecap: square"/>
   </g>
   <g id="patch_6">
    <path d="M 75.774 19.44 
L 268.56 19.44 
" style="fill: none; stroke: #000000; stroke-width: 0.8; stroke-linejoin: miter; stroke-linecap: square"/>
   </g>
  </g>
 </g>
 <defs>
  <clipPath id="p6635c3eb92">
   <rect x="75.774" y="19.44" width="192.786" height="136.5"/>
  </clipPath>
 </defs>
</svg>
