<?xml version="1.0" encoding="utf-8" standalone="no"?>
<!DOCTYPE svg PUBLIC "-//W3C//DTD SVG 1.1//EN"
  "http://www.w3.org/Graphics/SVG/1.1/DTD/svg11.dtd">
<svg xmlns:xlink="http://www.w3.org/1999/xlink" width="288pt" height="216pt" viewBox="0 0 288 216" xmlns="http://www.w3.org/2000/svg" version="1.1">
 <metadata>
  <rdf:RDF xmlns:dc="http://purl.org/dc/elements/1.1/" xmlns:cc="http://creativecommons.org/ns#" xmlns:rdf="http://www.w3.org/1999/02/22-rdf-syntax-ns#">
   <cc:Work>
    <dc:type rdf:resource="http://purl.org/dc/dcmitype/StillImage"/>
    <dc:date>2024-06-20T18:09:02.425665</dc:date>
    <dc:format>image/svg+xml</dc:format>
    <dc:creator>
     <cc:Agent>
      <dc:title>Matplotlib v3.7.2, https://matplotlib.org/</dc:title>
     </cc:Agent>
    </dc:creator>
   </cc:Work>
  </rdf:RDF>
 </metadata>
 <defs>
  <style type="text/css">*{stroke-linejoin: round; stroke-linecap: butt}</style>
 </defs>
 <g id="figure_1">
  <g id="patch_1">
   <path d="M 0 216 
L 288 216 
L 288 0 
L 0 0 
L 0 216 
z
" style="fill: none"/>
  </g>
  <g id="axes_1">
   <g id="patch_2">
    <path d="M 57.648 161.7 
L 270.72 161.7 
L 270.72 17.28 
L 57.648 17.28 
L 57.648 161.7 
z
" style="fill: none"/>
   </g>
   <g id="matplotlib.axis_1">
    <g id="xtick_1">
     <g id="line2d_1">
      <defs>
       <path id="m8f4e5aa91d" d="M 0 0 
L 0 -3.5 
" style="stroke: #000000; stroke-width: 0.8"/>
      </defs>
      <g>
       <use xlink:href="#m8f4e5aa91d" x="57.648" y="161.7" style="stroke: #000000; stroke-width: 0.8"/>
      </g>
     </g>
     <g id="text_1">
      <!-- 0 -->
      <g transform="translate(53.19925 176.6525) scale(0.16 -0.16)">
       <defs>
        <path id="ArialMT-30" d="M 266 2259 
Q 266 3072 433 3567 
Q 600 4063 929 4331 
Q 1259 4600 1759 4600 
Q 2128 4600 2406 4451 
Q 2684 4303 2865 4023 
Q 3047 3744 3150 3342 
Q 3253 2941 3253 2259 
Q 3253 1453 3087 958 
Q 2922 463 2592 192 
Q 2263 -78 1759 -78 
Q 1097 -78 719 397 
Q 266 969 266 2259 
z
M 844 2259 
Q 844 1131 1108 757 
Q 1372 384 1759 384 
Q 2147 384 2411 759 
Q 2675 1134 2675 2259 
Q 2675 3391 2411 3762 
Q 2147 4134 1753 4134 
Q 1366 4134 1134 3806 
Q 844 3388 844 2259 
z
" transform="scale(0.015625)"/>
       </defs>
       <use xlink:href="#ArialMT-30"/>
      </g>
     </g>
    </g>
    <g id="xtick_2">
     <g id="line2d_2">
      <g>
       <use xlink:href="#m8f4e5aa91d" x="142.8768" y="161.7" style="stroke: #000000; stroke-width: 0.8"/>
      </g>
     </g>
     <g id="text_2">
      <!-- 200 -->
      <g transform="translate(129.53055 176.6525) scale(0.16 -0.16)">
       <defs>
        <path id="ArialMT-32" d="M 3222 541 
L 3222 0 
L 194 0 
Q 188 203 259 391 
Q 375 700 629 1000 
Q 884 1300 1366 1694 
Q 2113 2306 2375 2664 
Q 2638 3022 2638 3341 
Q 2638 3675 2398 3904 
Q 2159 4134 1775 4134 
Q 1369 4134 1125 3890 
Q 881 3647 878 3216 
L 300 3275 
Q 359 3922 746 4261 
Q 1134 4600 1788 4600 
Q 2447 4600 2831 4234 
Q 3216 3869 3216 3328 
Q 3216 3053 3103 2787 
Q 2991 2522 2730 2228 
Q 2469 1934 1863 1422 
Q 1356 997 1212 845 
Q 1069 694 975 541 
L 3222 541 
z
" transform="scale(0.015625)"/>
       </defs>
       <use xlink:href="#ArialMT-32"/>
       <use xlink:href="#ArialMT-30" x="55.615234"/>
       <use xlink:href="#ArialMT-30" x="111.230469"/>
      </g>
     </g>
    </g>
    <g id="xtick_3">
     <g id="line2d_3">
      <g>
       <use xlink:href="#m8f4e5aa91d" x="228.1056" y="161.7" style="stroke: #000000; stroke-width: 0.8"/>
      </g>
     </g>
     <g id="text_3">
      <!-- 400 -->
      <g transform="translate(214.75935 176.6525) scale(0.16 -0.16)">
       <defs>
        <path id="ArialMT-34" d="M 2069 0 
L 2069 1097 
L 81 1097 
L 81 1613 
L 2172 4581 
L 2631 4581 
L 2631 1613 
L 3250 1613 
L 3250 1097 
L 2631 1097 
L 2631 0 
L 2069 0 
z
M 2069 1613 
L 2069 3678 
L 634 1613 
L 2069 1613 
z
" transform="scale(0.015625)"/>
       </defs>
       <use xlink:href="#ArialMT-34"/>
       <use xlink:href="#ArialMT-30" x="55.615234"/>
       <use xlink:href="#ArialMT-30" x="111.230469"/>
      </g>
     </g>
    </g>
    <g id="text_4">
     <!-- $t$ -->
     <g transform="translate(160.984 195.285) scale(0.16 -0.16)">
      <defs>
       <path id="DejaVuSans-Oblique-74" d="M 2706 3500 
L 2619 3053 
L 1472 3053 
L 1100 1153 
Q 1081 1047 1072 975 
Q 1063 903 1063 863 
Q 1063 663 1183 572 
Q 1303 481 1569 481 
L 2150 481 
L 2053 0 
L 1503 0 
Q 991 0 739 200 
Q 488 400 488 806 
Q 488 878 497 964 
Q 506 1050 525 1153 
L 897 3053 
L 409 3053 
L 500 3500 
L 978 3500 
L 1172 4494 
L 1747 4494 
L 1556 3500 
L 2706 3500 
z
" transform="scale(0.015625)"/>
      </defs>
      <use xlink:href="#DejaVuSans-Oblique-74" transform="translate(0 0.78125)"/>
     </g>
    </g>
   </g>
   <g id="matplotlib.axis_2">
    <g id="ytick_1">
     <g id="line2d_4">
      <defs>
       <path id="m086ff1f2b0" d="M 0 0 
L 3.5 0 
" style="stroke: #000000; stroke-width: 0.8"/>
      </defs>
      <g>
       <use xlink:href="#m086ff1f2b0" x="57.648" y="128.566732" style="stroke: #000000; stroke-width: 0.8"/>
      </g>
     </g>
     <g id="text_5">
      <!-- $\mathdefault{10^{0}}$ -->
      <g transform="translate(29.028 136.816732) scale(0.16 -0.16)">
       <defs>
        <path id="ArialMT-31" d="M 2384 0 
L 1822 0 
L 1822 3584 
Q 1619 3391 1289 3197 
Q 959 3003 697 2906 
L 697 3450 
Q 1169 3672 1522 3987 
Q 1875 4303 2022 4600 
L 2384 4600 
L 2384 0 
z
" transform="scale(0.015625)"/>
       </defs>
       <use xlink:href="#ArialMT-31" transform="translate(0 0.99375)"/>
       <use xlink:href="#ArialMT-30" transform="translate(55.615234 0.99375)"/>
       <use xlink:href="#ArialMT-30" transform="translate(112.972813 70.6875) scale(0.7)"/>
      </g>
     </g>
    </g>
    <g id="ytick_2">
     <g id="line2d_5">
      <g>
       <use xlink:href="#m086ff1f2b0" x="57.648" y="66.041485" style="stroke: #000000; stroke-width: 0.8"/>
      </g>
     </g>
     <g id="text_6">
      <!-- $\mathdefault{10^{1}}$ -->
      <g transform="translate(29.028 74.291485) scale(0.16 -0.16)">
       <use xlink:href="#ArialMT-31" transform="translate(0 0.99375)"/>
       <use xlink:href="#ArialMT-30" transform="translate(55.615234 0.99375)"/>
       <use xlink:href="#ArialMT-31" transform="translate(112.972813 70.6875) scale(0.7)"/>
      </g>
     </g>
    </g>
    <g id="ytick_3">
     <g id="line2d_6">
      <defs>
       <path id="m3a30ac5d70" d="M 0 0 
L 2 0 
" style="stroke: #000000; stroke-width: 0.6"/>
      </defs>
      <g>
       <use xlink:href="#m3a30ac5d70" x="57.648" y="161.259855" style="stroke: #000000; stroke-width: 0.6"/>
      </g>
     </g>
    </g>
    <g id="ytick_4">
     <g id="line2d_7">
      <g>
       <use xlink:href="#m3a30ac5d70" x="57.648" y="153.448029" style="stroke: #000000; stroke-width: 0.6"/>
      </g>
     </g>
    </g>
    <g id="ytick_5">
     <g id="line2d_8">
      <g>
       <use xlink:href="#m3a30ac5d70" x="57.648" y="147.388707" style="stroke: #000000; stroke-width: 0.6"/>
      </g>
     </g>
    </g>
    <g id="ytick_6">
     <g id="line2d_9">
      <g>
       <use xlink:href="#m3a30ac5d70" x="57.648" y="142.43788" style="stroke: #000000; stroke-width: 0.6"/>
      </g>
     </g>
    </g>
    <g id="ytick_7">
     <g id="line2d_10">
      <g>
       <use xlink:href="#m3a30ac5d70" x="57.648" y="138.252015" style="stroke: #000000; stroke-width: 0.6"/>
      </g>
     </g>
    </g>
    <g id="ytick_8">
     <g id="line2d_11">
      <g>
       <use xlink:href="#m3a30ac5d70" x="57.648" y="134.626054" style="stroke: #000000; stroke-width: 0.6"/>
      </g>
     </g>
    </g>
    <g id="ytick_9">
     <g id="line2d_12">
      <g>
       <use xlink:href="#m3a30ac5d70" x="57.648" y="131.42773" style="stroke: #000000; stroke-width: 0.6"/>
      </g>
     </g>
    </g>
    <g id="ytick_10">
     <g id="line2d_13">
      <g>
       <use xlink:href="#m3a30ac5d70" x="57.648" y="109.744757" style="stroke: #000000; stroke-width: 0.6"/>
      </g>
     </g>
    </g>
    <g id="ytick_11">
     <g id="line2d_14">
      <g>
       <use xlink:href="#m3a30ac5d70" x="57.648" y="98.734607" style="stroke: #000000; stroke-width: 0.6"/>
      </g>
     </g>
    </g>
    <g id="ytick_12">
     <g id="line2d_15">
      <g>
       <use xlink:href="#m3a30ac5d70" x="57.648" y="90.922782" style="stroke: #000000; stroke-width: 0.6"/>
      </g>
     </g>
    </g>
    <g id="ytick_13">
     <g id="line2d_16">
      <g>
       <use xlink:href="#m3a30ac5d70" x="57.648" y="84.863459" style="stroke: #000000; stroke-width: 0.6"/>
      </g>
     </g>
    </g>
    <g id="ytick_14">
     <g id="line2d_17">
      <g>
       <use xlink:href="#m3a30ac5d70" x="57.648" y="79.912633" style="stroke: #000000; stroke-width: 0.6"/>
      </g>
     </g>
    </g>
    <g id="ytick_15">
     <g id="line2d_18">
      <g>
       <use xlink:href="#m3a30ac5d70" x="57.648" y="75.726768" style="stroke: #000000; stroke-width: 0.6"/>
      </g>
     </g>
    </g>
    <g id="ytick_16">
     <g id="line2d_19">
      <g>
       <use xlink:href="#m3a30ac5d70" x="57.648" y="72.100807" style="stroke: #000000; stroke-width: 0.6"/>
      </g>
     </g>
    </g>
    <g id="ytick_17">
     <g id="line2d_20">
      <g>
       <use xlink:href="#m3a30ac5d70" x="57.648" y="68.902483" style="stroke: #000000; stroke-width: 0.6"/>
      </g>
     </g>
    </g>
    <g id="ytick_18">
     <g id="line2d_21">
      <g>
       <use xlink:href="#m3a30ac5d70" x="57.648" y="47.21951" style="stroke: #000000; stroke-width: 0.6"/>
      </g>
     </g>
    </g>
    <g id="ytick_19">
     <g id="line2d_22">
      <g>
       <use xlink:href="#m3a30ac5d70" x="57.648" y="36.20936" style="stroke: #000000; stroke-width: 0.6"/>
      </g>
     </g>
    </g>
    <g id="ytick_20">
     <g id="line2d_23">
      <g>
       <use xlink:href="#m3a30ac5d70" x="57.648" y="28.397535" style="stroke: #000000; stroke-width: 0.6"/>
      </g>
     </g>
    </g>
    <g id="ytick_21">
     <g id="line2d_24">
      <g>
       <use xlink:href="#m3a30ac5d70" x="57.648" y="22.338212" style="stroke: #000000; stroke-width: 0.6"/>
      </g>
     </g>
    </g>
    <g id="ytick_22">
     <g id="line2d_25">
      <g>
       <use xlink:href="#m3a30ac5d70" x="57.648" y="17.387385" style="stroke: #000000; stroke-width: 0.6"/>
      </g>
     </g>
    </g>
    <g id="text_7">
     <!-- $r_i$ -->
     <g transform="translate(21.848 94.61) rotate(-90) scale(0.16 -0.16)">
      <defs>
       <path id="DejaVuSans-Oblique-72" d="M 2853 2969 
Q 2766 3016 2653 3041 
Q 2541 3066 2413 3066 
Q 1953 3066 1609 2717 
Q 1266 2369 1153 1784 
L 800 0 
L 225 0 
L 909 3500 
L 1484 3500 
L 1375 2956 
Q 1603 3259 1920 3421 
Q 2238 3584 2597 3584 
Q 2691 3584 2781 3573 
Q 2872 3563 2963 3538 
L 2853 2969 
z
" transform="scale(0.015625)"/>
       <path id="DejaVuSans-Oblique-69" d="M 1172 4863 
L 1747 4863 
L 1606 4134 
L 1031 4134 
L 1172 4863 
z
M 909 3500 
L 1484 3500 
L 800 0 
L 225 0 
L 909 3500 
z
" transform="scale(0.015625)"/>
      </defs>
      <use xlink:href="#DejaVuSans-Oblique-72"/>
      <use xlink:href="#DejaVuSans-Oblique-69" transform="translate(41.113281 -16.40625) scale(0.7)"/>
     </g>
    </g>
   </g>
   <g id="line2d_26">
    <path d="M 57.648 150.149997 
L 57.660785 150.395315 
L 57.7034 148.682466 
L 57.886645 124.273785 
L 58.649458 29.635026 
L 58.862535 24.356523 
L 59.041519 23.845181 
L 59.203457 23.938155 
L 60.128208 24.661986 
L 61.25325 25.154176 
L 63.136844 25.733826 
L 63.580043 25.664141 
L 63.899658 25.375599 
L 64.675255 24.528155 
L 65.020439 24.747639 
L 65.761944 25.163813 
L 67.313139 25.687845 
L 67.896968 25.710305 
L 68.229367 25.501878 
L 68.608643 24.950209 
L 68.987919 24.527118 
L 69.222303 24.581868 
L 70.769236 25.381039 
L 72.111617 25.737982 
L 72.507938 25.628708 
L 72.831814 25.286525 
L 73.483828 24.520934 
L 73.752304 24.648331 
L 74.685578 25.188779 
L 76.258081 25.705836 
L 76.790771 25.70031 
L 77.118909 25.472103 
L 77.532277 24.84871 
L 77.864676 24.523959 
L 78.103321 24.593828 
L 79.449963 25.316216 
L 80.924451 25.736769 
L 81.34208 25.645438 
L 81.661695 25.331746 
L 82.373369 24.524139 
L 82.667415 24.687957 
L 83.485627 25.163548 
L 85.0283 25.685942 
L 85.61639 25.71131 
L 85.948789 25.505679 
L 86.323803 24.963634 
L 86.711602 24.527091 
L 86.945986 24.582281 
L 88.488658 25.379791 
L 89.8353 25.737981 
L 90.231622 25.628232 
L 90.555498 25.285444 
L 91.207511 24.520979 
L 91.475987 24.648867 
L 92.405 25.187352 
L 93.977503 25.705133 
L 94.514455 25.700059 
L 94.842592 25.471282 
L 95.260222 24.840757 
L 95.592621 24.523123 
L 95.835528 24.599741 
L 97.105462 25.291432 
L 98.622565 25.735335 
L 99.048718 25.654617 
L 99.368332 25.35416 
L 100.109837 24.526836 
L 100.42519 24.714146 
L 101.200788 25.160297 
L 102.734937 25.682058 
L 103.335812 25.712272 
L 103.672472 25.50492 
L 104.047487 24.962389 
L 104.435286 24.526906 
L 104.669669 24.582725 
L 106.203818 25.37704 
L 107.554722 25.737972 
L 107.951044 25.630488 
L 108.27492 25.290597 
L 108.931195 24.521022 
L 109.199671 24.649405 
L 110.128683 25.187654 
L 111.701186 25.705282 
L 112.238138 25.699806 
L 112.566276 25.470458 
L 112.983905 24.83958 
L 113.312043 24.523698 
L 113.550688 24.594767 
L 114.880284 25.310531 
L 116.367556 25.736635 
L 116.785186 25.647042 
L 117.1048 25.335607 
L 117.820736 24.5244 
L 118.119043 24.692266 
L 118.928733 25.162389 
L 120.467143 25.684277 
L 121.059495 25.71207 
L 121.391894 25.508501 
L 121.766909 24.968287 
L 122.158969 24.526723 
L 122.393353 24.58317 
L 123.918979 25.374286 
L 125.278405 25.737975 
L 125.674727 25.630014 
L 125.998603 25.289511 
L 126.654878 24.521068 
L 126.923354 24.649944 
L 127.848105 25.186226 
L 129.420608 25.704575 
L 129.95756 25.700994 
L 130.285698 25.474344 
L 130.699066 24.851953 
L 131.035726 24.523572 
L 131.274371 24.595238 
L 132.599706 25.309243 
L 134.086978 25.736455 
L 134.508869 25.646615 
L 134.828483 25.334575 
L 135.54442 24.524533 
L 135.842726 24.692824 
L 136.652416 25.1627 
L 138.190827 25.684453 
L 138.783179 25.711868 
L 139.115578 25.507748 
L 139.490592 24.967041 
L 139.882652 24.526543 
L 140.117036 24.583616 
L 141.629878 25.370017 
L 142.997827 25.737956 
L 143.398411 25.629538 
L 143.722287 25.288423 
L 144.378561 24.521117 
L 144.647038 24.650484 
L 145.571789 25.186528 
L 147.144291 25.704725 
L 147.681244 25.700745 
L 148.009381 25.473526 
L 148.422749 24.850767 
L 148.759409 24.523448 
L 148.998055 24.59571 
L 150.319128 25.307953 
L 151.810661 25.736494 
L 152.228291 25.648629 
L 152.547905 25.33945 
L 153.268103 24.524669 
L 153.56641 24.693382 
L 154.3761 25.16301 
L 155.91451 25.68463 
L 156.506862 25.711665 
L 156.839261 25.506993 
L 157.214275 24.965795 
L 157.602074 24.52742 
L 157.836458 24.581513 
L 159.396176 25.385352 
L 160.730034 25.73798 
L 161.126356 25.626303 
L 161.450232 25.281069 
L 162.097983 24.520909 
L 162.366459 24.647933 
L 163.299734 25.188557 
L 164.872236 25.705728 
L 165.409189 25.699042 
L 165.737326 25.467979 
L 166.159217 24.829349 
L 166.483093 24.523327 
L 166.726 24.59891 
L 168.004457 25.294109 
L 169.517299 25.735534 
L 169.943451 25.652987 
L 170.263066 25.350122 
L 171.00031 24.526548 
L 171.311401 24.709966 
L 172.095522 25.16154 
L 173.633932 25.683793 
L 174.226284 25.712619 
L 174.562945 25.506236 
L 174.937959 24.964549 
L 175.325758 24.527229 
L 175.560142 24.581955 
L 177.107075 25.381103 
L 178.449456 25.737981 
L 178.845778 25.628584 
L 179.169653 25.286245 
L 179.821667 24.520948 
L 180.090143 24.648471 
L 181.023417 25.188858 
L 182.59592 25.705876 
L 183.12861 25.700244 
L 183.456748 25.471886 
L 183.874377 24.841622 
L 184.206776 24.523208 
L 184.449683 24.599389 
L 185.723879 25.292808 
L 187.240982 25.735583 
L 187.667135 25.652577 
L 187.986749 25.349109 
L 188.723993 24.526713 
L 189.039346 24.713735 
L 189.814943 25.160068 
L 191.349093 25.681927 
L 191.949968 25.712419 
L 192.286628 25.505478 
L 192.661642 24.963303 
L 193.049441 24.527042 
L 193.283825 24.582398 
L 194.822236 25.378354 
L 196.173139 25.737982 
L 196.569461 25.628105 
L 196.893337 25.285154 
L 197.54535 24.52099 
L 197.813826 24.64901 
L 198.742839 25.187432 
L 200.315342 25.705173 
L 200.852294 25.699992 
L 201.180431 25.471063 
L 201.598061 24.840445 
L 201.93046 24.523093 
L 202.173367 24.599868 
L 203.43904 25.289926 
L 204.960404 25.735349 
L 205.386557 25.65451 
L 205.706171 25.353893 
L 206.447676 24.52688 
L 206.763029 24.714294 
L 207.538627 25.160379 
L 209.072776 25.682106 
L 209.673651 25.712218 
L 210.010312 25.504719 
L 210.385326 24.962058 
L 210.773125 24.526857 
L 211.007508 24.582843 
L 212.537396 25.375602 
L 213.892561 25.737973 
L 214.288883 25.630362 
L 214.612759 25.290309 
L 215.269034 24.521034 
L 215.53751 24.649548 
L 216.466522 25.187734 
L 218.039025 25.705322 
L 218.575977 25.699739 
L 218.904115 25.470239 
L 219.321744 24.839268 
L 219.649882 24.523664 
L 219.888527 24.594892 
L 221.218123 25.310603 
L 222.705395 25.736645 
L 223.123025 25.646929 
L 223.442639 25.335334 
L 224.158575 24.524435 
L 224.456882 24.692414 
L 225.266572 25.162472 
L 226.804982 25.684324 
L 227.397335 25.712017 
L 227.729733 25.508302 
L 228.104748 24.967957 
L 228.496808 24.526675 
L 228.731192 24.583288 
L 230.252556 25.372846 
L 231.611983 25.737951 
L 232.012566 25.629888 
L 232.336442 25.289222 
L 232.992717 24.521081 
L 233.261193 24.650088 
L 234.185944 25.186306 
L 235.758447 25.704615 
L 236.295399 25.700928 
L 236.623537 25.474127 
L 237.036905 24.851638 
L 237.373565 24.523539 
L 237.61221 24.595363 
L 238.937545 25.309315 
L 240.424817 25.736466 
L 240.842447 25.64894 
L 241.162061 25.340204 
L 241.88652 24.525382 
L 242.189089 24.699375 
L 242.985994 25.161001 
L 244.524404 25.683485 
L 245.121018 25.711814 
L 245.453417 25.507548 
L 245.828431 24.96671 
L 246.21623 24.527561 
L 246.450614 24.581189 
L 248.014594 25.386661 
L 249.344189 25.737981 
L 249.740511 25.626659 
L 250.064387 25.281874 
L 250.712139 24.520881 
L 250.980615 24.647538 
L 251.918151 25.190061 
L 253.494915 25.707302 
L 254.023344 25.69923 
L 254.351482 25.468587 
L 254.773373 24.830206 
L 255.10151 24.522762 
L 255.344417 24.601312 
L 256.593044 25.284423 
L 258.122931 25.734905 
L 258.553345 25.655614 
L 258.87296 25.356643 
L 259.618727 24.527395 
L 259.938341 24.719182 
L 260.709677 25.161312 
L 262.248088 25.683662 
L 262.844701 25.71161 
L 263.1771 25.506792 
L 263.552115 24.965464 
L 263.939913 24.527369 
L 264.174297 24.58163 
L 265.729754 25.383919 
L 267.067873 25.73798 
L 267.464195 25.626175 
L 267.788071 25.280778 
L 268.431561 24.520736 
L 268.695776 24.641934 
L 269.654619 25.195514 
L 270.72 25.572548 
L 270.72 25.572548 
" clip-path="url(#pff44e8d4a9)" style="fill: none; stroke: #000000; stroke-width: 1.5; stroke-linecap: square"/>
   </g>
   <g id="line2d_27">
    <path d="M 57.648 142.577194 
L 57.741754 154.235803 
L 57.792892 150.187907 
L 58.79435 29.819178 
L 58.986119 28.005482 
L 59.062826 27.974219 
L 59.105442 28.017306 
L 59.35261 28.541754 
L 60.153777 30.167442 
L 61.521726 32.272613 
L 62.450739 33.931355 
L 63.729197 36.521266 
L 63.784596 36.474037 
L 63.938011 36.100663 
L 64.172395 34.79986 
L 64.760486 31.419323 
L 64.982085 31.207148 
L 65.199423 31.309912 
L 65.646883 31.83977 
L 66.550326 33.274433 
L 67.313139 34.900261 
L 68.092998 36.51934 
L 68.233629 36.453258 
L 68.391305 36.035873 
L 68.638474 34.596732 
L 69.179687 31.473773 
L 69.405548 31.220904 
L 69.618624 31.306143 
L 70.036254 31.784505 
L 70.922651 33.168575 
L 71.689726 34.768361 
L 72.537769 36.523138 
L 72.674138 36.439005 
L 72.836076 35.979425 
L 73.096029 34.401368 
L 73.594627 31.513573 
L 73.82475 31.223357 
L 74.033565 31.294032 
L 74.429886 31.734865 
L 75.303499 33.080055 
L 76.079097 34.669455 
L 76.978278 36.524697 
L 77.110386 36.430278 
L 77.272324 35.9561 
L 77.536538 34.328739 
L 78.022352 31.521399 
L 78.256736 31.223104 
L 78.465551 31.294985 
L 78.861873 31.736527 
L 79.735485 33.082256 
L 80.511083 34.672426 
L 81.410265 36.524822 
L 81.542372 36.428233 
L 81.70431 35.950731 
L 81.968524 34.319409 
L 82.454338 31.518144 
L 82.688722 31.22285 
L 82.897537 31.295938 
L 83.29812 31.743858 
L 84.171733 33.091965 
L 84.947331 34.685532 
L 85.837989 36.524492 
L 85.970097 36.433114 
L 86.132035 35.963607 
L 86.396249 34.341852 
L 86.886325 31.51491 
L 87.116447 31.223481 
L 87.325262 31.293654 
L 87.721584 31.734192 
L 88.595196 33.079161 
L 89.370794 34.668249 
L 90.269976 36.524641 
L 90.402083 36.431102 
L 90.564021 35.958274 
L 90.828235 34.332529 
L 91.318311 31.511697 
L 91.548433 31.223211 
L 91.757248 31.2946 
L 92.15357 31.735853 
L 93.027182 33.081362 
L 93.80278 34.671219 
L 94.701962 36.524773 
L 94.834069 36.429067 
L 94.996007 35.952915 
L 95.260222 34.323199 
L 95.746036 31.519464 
L 95.980419 31.222952 
L 96.189234 31.295551 
L 96.585556 31.737515 
L 97.459169 33.083563 
L 98.234766 34.674191 
L 99.129687 36.524427 
L 99.261794 36.433924 
L 99.423732 35.965765 
L 99.683685 34.377333 
L 100.178022 31.516221 
L 100.408144 31.223594 
L 100.616959 31.293271 
L 101.013281 31.733518 
L 101.886893 33.078268 
L 102.662491 34.667043 
L 103.561673 36.524583 
L 103.69378 36.431922 
L 103.855718 35.960443 
L 104.119933 34.336315 
L 104.610008 31.512999 
L 104.84013 31.223319 
L 105.048945 31.294216 
L 105.445267 31.735178 
L 106.31888 33.080468 
L 107.094477 34.670013 
L 107.993659 36.524722 
L 108.125766 36.429896 
L 108.287704 35.955094 
L 108.551919 34.326988 
L 109.037733 31.520787 
L 109.272117 31.223056 
L 109.480931 31.295164 
L 109.877253 31.73684 
L 110.750866 33.082669 
L 111.526463 34.672984 
L 112.425645 36.524843 
L 112.557753 36.427847 
L 112.719691 35.949719 
L 112.983905 34.317655 
L 113.469719 31.517535 
L 113.699841 31.223708 
L 113.908656 31.292889 
L 114.300716 31.727199 
L 115.170068 33.062414 
L 115.945665 34.645642 
L 116.857632 36.524948 
L 116.989739 36.425773 
L 117.155938 35.925722 
L 117.428676 34.212589 
L 117.897444 31.525395 
L 118.131828 31.223429 
L 118.340642 31.293832 
L 118.736964 31.734504 
L 119.610577 33.079574 
L 120.386174 34.668807 
L 121.285356 36.524667 
L 121.417464 36.430722 
L 121.579402 35.957269 
L 121.843616 34.330776 
L 122.32943 31.522113 
L 122.563814 31.223162 
L 122.772629 31.294778 
L 123.16895 31.736165 
L 124.042563 33.081775 
L 124.818161 34.671778 
L 125.717343 36.524796 
L 125.84945 36.428682 
L 126.011388 35.951905 
L 126.275602 34.321446 
L 126.761416 31.518853 
L 126.9958 31.222904 
L 127.204615 31.29573 
L 127.605198 31.743495 
L 128.478811 33.091484 
L 129.254408 34.684883 
L 130.145067 36.524457 
L 130.277175 36.43355 
L 130.439112 35.964767 
L 130.699066 34.375587 
L 131.193402 31.515614 
L 131.423525 31.223541 
L 131.63234 31.293448 
L 132.028661 31.73383 
L 132.902274 33.078681 
L 133.677872 34.667601 
L 134.577053 36.52461 
L 134.709161 36.431543 
L 134.871099 35.95944 
L 135.135313 34.334563 
L 135.625389 31.512396 
L 135.855511 31.223269 
L 136.064326 31.294393 
L 136.460648 31.73549 
L 137.33426 33.080882 
L 138.109858 34.670571 
L 139.00904 36.524746 
L 139.141147 36.429513 
L 139.303085 35.954086 
L 139.5673 34.325235 
L 140.053113 31.520174 
L 140.287497 31.223008 
L 140.496312 31.295343 
L 140.892634 31.737152 
L 141.766247 33.083083 
L 142.541844 34.673543 
L 143.441026 36.524864 
L 143.573133 36.427459 
L 143.739333 35.930184 
L 144.007809 34.252169 
L 144.480838 31.528076 
L 144.715222 31.223655 
L 144.924037 31.293066 
L 145.316097 31.72751 
L 146.185448 33.062826 
L 146.961046 34.646198 
L 147.873012 36.524965 
L 148.005119 36.425381 
L 148.171319 35.924688 
L 148.444057 34.210825 
L 148.912824 31.524777 
L 149.147208 31.223378 
L 149.356023 31.294009 
L 149.752345 31.734816 
L 150.625957 33.079988 
L 151.401555 34.669365 
L 152.300737 36.524693 
L 152.432844 36.43034 
L 152.594782 35.956263 
L 152.858997 34.329024 
L 153.344811 31.521499 
L 153.579194 31.223112 
L 153.788009 31.294957 
L 154.184331 31.736477 
L 155.057944 33.082189 
L 155.833541 34.672336 
L 156.732723 36.524818 
L 156.86483 36.428296 
L 157.026768 35.950894 
L 157.290983 34.319692 
L 157.776797 31.518243 
L 158.011181 31.222857 
L 158.219995 31.295909 
L 158.620579 31.743808 
L 159.494191 33.091898 
L 160.269789 34.685442 
L 161.160448 36.524487 
L 161.292555 36.433175 
L 161.454493 35.963769 
L 161.718708 34.342134 
L 162.208783 31.515008 
L 162.438905 31.223489 
L 162.64772 31.293626 
L 163.044042 31.734142 
L 163.917655 33.079094 
L 164.693252 34.668159 
L 165.592434 36.524637 
L 165.724541 36.431164 
L 165.886479 35.958436 
L 166.150694 34.332811 
L 166.640769 31.511794 
L 166.870892 31.223219 
L 167.079706 31.294571 
L 167.476028 31.735803 
L 168.349641 33.081295 
L 169.125239 34.671129 
L 170.02442 36.524769 
L 170.156528 36.429129 
L 170.318466 35.953077 
L 170.58268 34.323482 
L 171.068494 31.519562 
L 171.302878 31.22296 
L 171.511693 31.295522 
L 171.908014 31.737464 
L 172.781627 33.083497 
L 173.557225 34.674101 
L 174.452145 36.524421 
L 174.584252 36.433985 
L 174.74619 35.965926 
L 175.006143 34.377615 
L 175.50048 31.516319 
L 175.730603 31.223602 
L 175.939417 31.293243 
L 176.335739 31.733468 
L 177.209352 33.078201 
L 177.984949 34.666953 
L 178.884131 36.524578 
L 179.016239 36.431983 
L 179.178177 35.960605 
L 179.442391 34.336598 
L 179.932466 31.513096 
L 180.162589 31.223327 
L 180.371404 31.294187 
L 180.767725 31.735128 
L 181.641338 33.080401 
L 182.416936 34.669923 
L 183.316118 36.524718 
L 183.448225 36.429958 
L 183.610163 35.955257 
L 183.874377 34.327271 
L 184.360191 31.520886 
L 184.594575 31.223064 
L 184.80339 31.295135 
L 185.199712 31.736789 
L 186.073324 33.082602 
L 186.848922 34.672894 
L 187.748104 36.52484 
L 187.880211 36.427909 
L 188.042149 35.949882 
L 188.306364 34.317939 
L 188.792177 31.517633 
L 189.0223 31.223717 
L 189.231115 31.292861 
L 189.623175 31.727149 
L 190.492526 33.062348 
L 191.268124 34.645552 
L 192.18009 36.524945 
L 192.312197 36.425837 
L 192.478397 35.925889 
L 192.751134 34.212874 
L 193.219902 31.525495 
L 193.454286 31.223438 
L 193.663101 31.293803 
L 194.059423 31.734454 
L 194.933035 33.079508 
L 195.708633 34.668717 
L 196.607815 36.524663 
L 196.739922 36.430783 
L 196.90186 35.957431 
L 197.166075 34.331059 
L 197.651888 31.522212 
L 197.886272 31.22317 
L 198.095087 31.29475 
L 198.491409 31.736115 
L 199.365022 33.081709 
L 200.140619 34.671688 
L 201.039801 36.524792 
L 201.171908 36.428744 
L 201.333846 35.952068 
L 201.598061 34.321729 
L 202.083875 31.518951 
L 202.318259 31.222912 
L 202.527073 31.295701 
L 202.927657 31.743444 
L 203.801269 33.091417 
L 204.576867 34.684793 
L 205.467526 36.524452 
L 205.599633 36.433611 
L 205.761571 35.964929 
L 206.021524 34.375869 
L 206.515861 31.515712 
L 206.745983 31.22355 
L 206.954798 31.29342 
L 207.35112 31.73378 
L 208.224732 33.078614 
L 209.00033 34.667511 
L 209.899512 36.524606 
L 210.031619 36.431604 
L 210.193557 35.959602 
L 210.457772 34.334846 
L 210.947847 31.512493 
L 211.177969 31.223277 
L 211.386784 31.294365 
L 211.783106 31.73544 
L 212.656719 33.080815 
L 213.432316 34.670481 
L 214.331498 36.524742 
L 214.463605 36.429575 
L 214.625543 35.954249 
L 214.889758 34.325518 
L 215.375572 31.520273 
L 215.609956 31.223015 
L 215.81877 31.295314 
L 216.215092 31.737102 
L 217.088705 33.083016 
L 217.864303 34.673453 
L 218.763484 36.524861 
L 218.895592 36.427521 
L 219.05753 35.94887 
L 219.321744 34.316185 
L 219.807558 31.517025 
L 220.03768 31.223663 
L 220.246495 31.293038 
L 220.638555 31.72746 
L 221.507907 33.06276 
L 222.283504 34.646108 
L 223.195471 36.524962 
L 223.327578 36.425445 
L 223.493777 35.924855 
L 223.766515 34.211109 
L 224.235283 31.524876 
L 224.469667 31.223386 
L 224.678481 31.29398 
L 225.074803 31.734766 
L 225.948416 33.079921 
L 226.724014 34.669275 
L 227.623195 36.524689 
L 227.755303 36.430402 
L 227.917241 35.956426 
L 228.181455 34.329307 
L 228.667269 31.521598 
L 228.901653 31.22312 
L 229.110468 31.294928 
L 229.506789 31.736427 
L 230.380402 33.082122 
L 231.156 34.672246 
L 232.055182 36.524815 
L 232.187289 36.428358 
L 232.349227 35.951057 
L 232.613441 34.319975 
L 233.099255 31.518341 
L 233.333639 31.222865 
L 233.542454 31.29588 
L 233.943037 31.743757 
L 234.81665 33.091831 
L 235.592248 34.685352 
L 236.482906 36.524482 
L 236.615014 36.433235 
L 236.776952 35.96393 
L 237.041166 34.342417 
L 237.531242 31.515106 
L 237.761364 31.223498 
L 237.970179 31.293597 
L 238.3665 31.734092 
L 239.240113 33.079028 
L 240.015711 34.668069 
L 240.914893 36.524633 
L 241.047 36.431225 
L 241.208938 35.958598 
L 241.473152 34.333094 
L 241.963228 31.511891 
L 242.19335 31.223227 
L 242.402165 31.294543 
L 242.798487 31.735752 
L 243.672099 33.081228 
L 244.447697 34.671039 
L 245.346879 36.524766 
L 245.478986 36.429191 
L 245.640924 35.95324 
L 245.905139 34.323765 
L 246.390952 31.519661 
L 246.625336 31.222967 
L 246.834151 31.295493 
L 247.230473 31.737414 
L 248.104086 33.08343 
L 248.879683 34.674011 
L 249.774603 36.524416 
L 249.906711 36.434045 
L 250.068649 35.966087 
L 250.328602 34.377897 
L 250.822939 31.516417 
L 251.053061 31.22361 
L 251.261876 31.293214 
L 251.653936 31.727771 
L 252.523287 33.063172 
L 253.298885 34.646664 
L 254.210851 36.52498 
L 254.342959 36.425052 
L 254.509158 35.923819 
L 254.781896 34.209345 
L 255.250663 31.524259 
L 255.485047 31.223336 
L 255.693862 31.294158 
L 256.090184 31.735078 
L 256.963797 33.080335 
L 257.739394 34.669833 
L 258.638576 36.524714 
L 258.770683 36.43002 
L 258.932621 35.955419 
L 259.196836 34.327554 
L 259.68265 31.520985 
L 259.917034 31.223072 
L 260.125848 31.295107 
L 260.52217 31.736739 
L 261.395783 33.082536 
L 262.17138 34.672804 
L 263.070562 36.524836 
L 263.202669 36.427971 
L 263.364607 35.950046 
L 263.628822 34.318222 
L 264.114636 31.517732 
L 264.344758 31.223725 
L 264.553573 31.292832 
L 264.945633 31.727098 
L 265.814984 33.062281 
L 266.590582 34.645462 
L 267.502548 36.524942 
L 267.634656 36.4259 
L 267.800855 35.926056 
L 268.073593 34.213159 
L 268.542361 31.525595 
L 268.776744 31.223446 
L 268.985559 31.293774 
L 269.381881 31.734404 
L 270.255494 33.079441 
L 270.72 33.971865 
L 270.72 33.971865 
" clip-path="url(#pff44e8d4a9)" style="fill: none; stroke: #808080; stroke-width: 1.5; stroke-linecap: square"/>
   </g>
   <g id="line2d_28">
    <path d="M 57.648 151.438546 
L 57.728969 155.135455 
L 57.780107 153.770652 
L 57.907953 140.478544 
L 58.807135 29.173855 
L 59.011688 26.587865 
L 59.139534 26.436475 
L 59.169365 26.451052 
L 59.378179 26.731533 
L 60.741867 28.807081 
L 61.926571 30.613779 
L 62.523185 31.958751 
L 62.996214 33.596074 
L 63.413844 35.894863 
L 64.070119 40.455574 
L 64.151088 40.226562 
L 64.283195 38.82754 
L 64.986346 29.767502 
L 65.22073 29.397477 
L 65.433807 29.423723 
L 65.774729 29.743892 
L 66.358558 30.629512 
L 66.938125 31.907096 
L 67.415416 33.52294 
L 67.837307 35.799325 
L 68.506366 40.431799 
L 68.591597 40.18539 
L 68.727966 38.701129 
L 69.405548 29.843601 
L 69.644194 29.417595 
L 69.85727 29.427893 
L 70.181146 29.717637 
L 70.747929 30.556127 
L 71.331758 31.807898 
L 71.81331 33.385372 
L 72.235201 35.579993 
L 72.938353 40.430987 
L 73.036368 40.095742 
L 73.185521 38.270515 
L 73.777873 30.082338 
L 74.025041 29.455588 
L 74.238118 29.407111 
L 74.52364 29.619324 
L 75.043546 30.327412 
L 75.648683 31.521841 
L 76.147281 33.008029 
L 76.577695 35.031984 
L 77.020894 38.318629 
L 77.370339 40.430768 
L 77.378862 40.426836 
L 77.442785 40.24265 
L 77.57063 38.983834 
L 78.32492 29.673034 
L 78.555043 29.399046 
L 78.776642 29.462742 
L 79.151656 29.853361 
L 79.756793 30.827835 
L 80.315053 32.144535 
L 80.779559 33.839206 
L 81.197188 36.271797 
L 81.798063 40.43108 
L 81.861986 40.297083 
L 81.977048 39.312968 
L 82.26257 34.204501 
L 82.586446 30.365993 
L 82.842137 29.507552 
L 83.059475 29.397226 
L 83.315166 29.550097 
L 83.783934 30.137642 
L 84.401855 31.271432 
L 84.921761 32.698529 
L 85.360699 34.588241 
L 85.786851 37.510748 
L 86.23005 40.431017 
L 86.247096 40.420443 
L 86.319542 40.155446 
L 86.460172 38.558503 
L 87.107924 29.920368 
L 87.350831 29.428183 
L 87.559646 29.418406 
L 87.866475 29.674422 
L 88.416212 30.461395 
L 89.012826 31.699694 
L 89.502901 33.251078 
L 89.929054 35.393344 
L 90.414867 39.176274 
L 90.662036 40.430859 
L 90.679082 40.418937 
L 90.751528 40.147542 
L 90.89642 38.469787 
L 91.527126 29.966459 
L 91.770033 29.436545 
L 91.978847 29.413586 
L 92.277154 29.652138 
L 92.814106 30.405932 
L 93.414981 31.627859 
L 93.909318 33.156027 
L 94.335471 35.241889 
L 94.795715 38.761269 
L 95.094022 40.430605 
L 95.102545 40.426276 
L 95.17073 40.216004 
L 95.302837 38.848544 
L 96.018773 29.752264 
L 96.253157 29.40661 
L 96.470495 29.444119 
L 96.81994 29.783606 
L 97.40803 30.692601 
L 97.979075 31.977461 
L 98.452104 33.614597 
L 98.869734 35.915735 
L 99.521747 40.431054 
L 99.602716 40.209053 
L 99.734823 38.829879 
L 100.446498 29.761252 
L 100.680882 29.407798 
L 100.893958 29.439847 
L 101.239142 29.76933 
L 101.822971 30.663606 
L 102.398276 31.945713 
L 102.871306 33.564874 
L 103.293197 35.865888 
L 103.953733 40.430935 
L 104.034702 40.201988 
L 104.171071 38.746544 
L 104.861438 29.810988 
L 105.100083 29.412921 
L 105.31316 29.433403 
L 105.645559 29.739763 
L 106.220865 30.604203 
L 106.800432 31.86833 
L 107.277723 33.462003 
L 107.699614 35.701989 
L 108.385719 40.43072 
L 108.475211 40.142791 
L 108.620103 38.457706 
L 109.246547 29.981076 
L 109.489454 29.439311 
L 109.698269 29.412213 
L 109.996576 29.648289 
L 110.533528 30.400054 
L 111.134403 31.619125 
L 111.62874 33.142468 
L 112.054893 35.220314 
L 112.515137 38.731456 
L 112.813444 40.431075 
L 112.826229 40.425682 
L 112.894413 40.21189 
L 113.02652 38.837469 
L 113.738195 29.762784 
L 113.972579 29.408005 
L 114.185655 29.439555 
L 114.530839 29.768705 
L 115.114668 30.662678 
L 115.689974 31.944321 
L 116.163003 33.562698 
L 116.584894 35.86242 
L 117.24543 40.430995 
L 117.326399 40.204871 
L 117.458507 38.818749 
L 118.16592 29.771953 
L 118.400304 29.409264 
L 118.61338 29.437837 
L 118.954302 29.759791 
L 119.538131 30.649426 
L 120.113437 31.924467 
L 120.586466 33.531675 
L 121.008357 35.812986 
L 121.677417 40.430819 
L 121.762647 40.172565 
L 121.903277 38.602554 
L 122.559552 29.898416 
L 122.798198 29.427182 
L 123.011274 29.420984 
L 123.322365 29.685758 
L 123.876364 30.485836 
L 124.468716 31.725233 
L 124.954529 33.273892 
L 125.380682 35.429744 
L 125.875019 39.291127 
L 126.109403 40.430546 
L 126.126449 40.417017 
L 126.203156 40.109726 
L 126.35231 38.304726 
L 126.953185 30.052342 
L 127.200353 29.449562 
L 127.41343 29.40934 
L 127.703213 29.630702 
L 128.227381 30.351929 
L 128.832517 31.558158 
L 129.331116 33.064176 
L 129.76153 35.121447 
L 130.213252 38.520008 
L 130.537128 40.431039 
L 130.545651 40.428187 
L 130.609573 40.252946 
L 130.737419 39.012801 
L 131.500232 29.657147 
L 131.730355 29.397696 
L 131.956215 29.470215 
L 132.339753 29.878756 
L 132.949151 30.873564 
L 133.503149 32.201049 
L 133.963394 33.908521 
L 134.381023 36.381458 
L 134.969114 40.430902 
L 135.024514 40.322728 
L 135.135313 39.4435 
L 135.382482 35.115917 
L 135.731927 30.515237 
L 135.987618 29.543086 
L 136.204956 29.394774 
L 136.447863 29.517932 
L 136.8868 30.040176 
L 137.504721 31.128094 
L 138.037412 32.521662 
L 138.484872 34.352687 
L 138.906763 37.112139 
L 139.4011 40.430668 
L 139.426669 40.404154 
L 139.5119 39.987121 
L 139.678099 37.717817 
L 140.193744 30.31991 
L 140.445174 29.502765 
L 140.662511 29.397809 
L 140.922465 29.557327 
L 141.395494 30.155829 
L 142.013415 31.298235 
L 142.52906 32.72503 
L 142.967997 34.630301 
L 143.394149 37.575017 
L 143.828825 40.431067 
L 143.845871 40.421331 
L 143.918317 40.160322 
L 144.058947 38.570942 
L 144.71096 29.906996 
L 144.949606 29.428716 
L 145.158421 29.418064 
L 145.46525 29.673543 
L 146.014987 30.460064 
L 146.611601 31.697709 
L 147.101676 33.247989 
L 147.527829 35.388416 
L 148.013643 39.169926 
L 148.260811 40.430969 
L 148.277857 40.419889 
L 148.350303 40.15249 
L 148.490933 38.551001 
L 149.138685 29.918547 
L 149.381592 29.427864 
L 149.590407 29.418612 
L 149.897237 29.674951 
L 150.446973 30.462197 
L 151.043587 31.700889 
L 151.533662 33.252939 
L 151.959815 35.396313 
L 152.445629 39.180092 
L 152.692797 40.430775 
L 152.709843 40.418345 
L 152.782289 40.144541 
L 152.927181 38.462147 
L 153.553625 29.982222 
L 153.796532 29.43953 
L 154.005347 29.412108 
L 154.299392 29.643357 
L 154.832083 30.385413 
L 155.432958 31.597392 
L 155.927295 33.108782 
L 156.353447 35.166748 
L 156.809431 38.620442 
L 157.120522 40.43108 
L 157.133307 40.425904 
L 157.201491 40.213406 
L 157.333598 38.841542 
L 158.049534 29.750874 
L 158.283918 29.40643 
L 158.501256 29.444401 
L 158.850701 29.784191 
L 159.438792 30.693468 
L 160.009836 31.978761 
L 160.482865 33.616637 
L 160.900495 35.918971 
L 161.552508 40.431021 
L 161.633477 40.206412 
L 161.765584 38.822842 
L 162.472998 29.772792 
L 162.707382 29.409382 
L 162.920458 29.437683 
L 163.26138 29.759458 
L 163.845209 30.64893 
L 164.420515 31.923724 
L 164.893544 33.530516 
L 165.315435 35.811137 
L 165.984494 40.430865 
L 166.069725 40.174218 
L 166.210355 38.606864 
L 166.86663 29.899444 
L 167.105276 29.427364 
L 167.318352 29.420859 
L 167.629443 29.685447 
L 168.183441 30.485367 
L 168.775793 31.724534 
L 169.261607 33.272806 
L 169.68776 35.42801 
L 170.182097 39.288951 
L 170.416481 40.430614 
L 170.433527 40.41738 
L 170.510234 40.111578 
L 170.659388 38.309294 
L 171.260263 30.053586 
L 171.507431 29.449809 
L 171.720507 29.409243 
L 172.010291 29.630411 
L 172.534459 30.351481 
L 173.139595 31.557494 
L 173.638194 33.063148 
L 174.068608 35.119807 
L 174.520329 38.517675 
L 174.844205 40.431056 
L 174.852728 40.428348 
L 174.916651 40.254305 
L 175.040236 39.076493 
L 175.824356 29.618916 
L 176.050217 29.395789 
L 176.280339 29.482468 
L 176.680923 29.924268 
L 177.294582 30.94902 
L 177.844319 32.302533 
L 178.300302 34.048345 
L 178.717932 36.602092 
L 179.276192 40.43094 
L 179.323068 40.35384 
L 179.425345 39.640692 
L 179.638421 36.117097 
L 180.030482 30.575672 
L 180.286173 29.558102 
L 180.507772 29.394604 
L 180.750679 29.514086 
L 181.185355 30.027496 
L 181.803276 31.109462 
L 182.335967 32.493238 
L 182.783427 34.307651 
L 183.201056 37.008117 
L 183.708178 40.430728 
L 183.738009 40.39616 
L 183.827501 39.918292 
L 184.002223 37.408935 
L 184.483775 30.425325 
L 184.739467 29.521398 
L 184.956805 29.395907 
L 185.208235 29.537463 
L 185.664218 30.097796 
L 186.282139 31.212785 
L 186.806307 32.623068 
L 187.249505 34.491324 
L 187.671396 37.326832 
L 188.135903 40.431076 
L 188.15721 40.416379 
L 188.233918 40.106524 
L 188.383071 38.296852 
L 188.979685 30.069772 
L 189.226853 29.453048 
L 189.439929 29.408023 
L 189.725451 29.622166 
L 190.245358 30.331805 
L 190.850494 31.52834 
L 191.349093 33.018061 
L 191.779507 35.047957 
L 192.222705 38.341734 
L 192.567889 40.430999 
L 192.576412 40.427897 
L 192.640335 40.250591 
L 192.76818 39.006123 
L 193.530993 29.65602 
L 193.756854 29.398454 
L 193.978454 29.464589 
L 194.357729 29.862485 
L 194.962866 30.841288 
L 195.521126 32.164835 
L 195.981371 33.851585 
L 196.399 36.291393 
L 196.999875 40.430825 
L 197.059536 40.303713 
L 197.174598 39.33277 
L 197.451597 34.387468 
L 197.779734 30.401761 
L 198.035426 29.515852 
L 198.252763 29.396373 
L 198.508455 29.544734 
L 198.972961 30.122468 
L 199.590882 31.249088 
L 200.110788 32.664298 
L 200.549726 34.533997 
L 200.971617 37.392446 
L 201.4276 40.43108 
L 201.448907 40.417067 
L 201.525615 40.109984 
L 201.674768 38.305361 
L 202.275643 30.052514 
L 202.522812 29.449596 
L 202.735888 29.409326 
L 203.025672 29.630661 
L 203.549839 30.351866 
L 204.154976 31.558066 
L 204.653574 33.064033 
L 205.083988 35.121219 
L 205.53571 38.519684 
L 205.859586 40.431042 
L 205.868109 40.428209 
L 205.932032 40.253135 
L 206.059878 39.013339 
L 206.822691 29.657238 
L 207.052813 29.397704 
L 207.278674 29.470188 
L 207.662211 29.878705 
L 208.271609 30.87349 
L 208.825608 32.200936 
L 209.285852 33.908344 
L 209.703482 36.381179 
L 210.291572 40.430907 
L 210.346972 40.322874 
L 210.457772 39.443955 
L 210.70494 35.116645 
L 211.054385 30.515493 
L 211.310077 29.543149 
L 211.527415 29.394772 
L 211.770321 29.517899 
L 212.209259 30.040121 
L 212.82718 31.128013 
L 213.35987 32.521539 
L 213.807331 34.352491 
L 214.229222 37.111836 
L 214.723558 40.430677 
L 214.749128 40.404225 
L 214.834358 39.987426 
L 215.000558 37.718505 
L 215.516202 30.320131 
L 215.767632 29.502817 
L 215.98497 29.397803 
L 216.244923 29.557292 
L 216.717952 30.155771 
L 217.335873 31.29815 
L 217.851518 32.7249 
L 218.290455 34.630094 
L 218.716608 37.574702 
L 219.151283 40.431069 
L 219.168329 40.421373 
L 219.240775 40.160558 
L 219.381406 38.571546 
L 220.033419 29.90714 
L 220.272064 29.428742 
L 220.480879 29.418048 
L 220.787709 29.6735 
L 221.337446 30.459999 
L 221.934059 31.697613 
L 222.424135 33.247839 
L 222.850287 35.388176 
L 223.336101 39.169618 
L 223.583269 40.430974 
L 223.600316 40.419934 
L 223.672761 40.152729 
L 223.813392 38.551606 
L 224.461144 29.918694 
L 224.704051 29.42789 
L 224.912865 29.418595 
L 225.219695 29.674908 
L 225.769432 30.462132 
L 226.366045 31.700793 
L 226.856121 33.252789 
L 227.282273 35.396073 
L 227.768087 39.179784 
L 228.015256 40.430782 
L 228.032302 40.418394 
L 228.104748 40.144784 
L 228.24964 38.462764 
L 228.876084 29.982381 
L 229.118991 29.43956 
L 229.327805 29.412093 
L 229.621851 29.643316 
L 230.154541 30.38535 
L 230.755416 31.597298 
L 231.249753 33.108637 
L 231.675906 35.166518 
L 232.131889 38.620119 
L 232.44298 40.43108 
L 232.455765 40.425935 
L 232.523949 40.213616 
L 232.656057 38.842107 
L 233.371993 29.750986 
L 233.606377 29.406445 
L 233.823715 29.444378 
L 234.17316 29.784144 
L 234.76125 30.693398 
L 235.332294 31.978656 
L 235.805324 33.616472 
L 236.222953 35.918709 
L 236.874967 40.431024 
L 236.955936 40.206626 
L 237.088043 38.82341 
L 237.795456 29.772909 
L 238.02984 29.409398 
L 238.242916 29.437662 
L 238.583838 29.759412 
L 239.167667 30.648861 
L 239.742973 31.923621 
L 240.216002 33.530354 
L 240.637893 35.81088 
L 241.306953 40.430871 
L 241.392183 40.174447 
L 241.532814 38.607463 
L 242.189089 29.899587 
L 242.427734 29.42739 
L 242.64081 29.420841 
L 242.951902 29.685404 
L 243.5059 30.485302 
L 244.098252 31.724437 
L 244.584066 33.272655 
L 245.010218 35.427769 
L 245.504555 39.288648 
L 245.738939 40.430623 
L 245.755985 40.41743 
L 245.832693 40.111835 
L 245.981846 38.309928 
L 246.582721 30.053759 
L 246.82989 29.449843 
L 247.042966 29.40923 
L 247.33275 29.63037 
L 247.856917 30.351419 
L 248.462054 31.557402 
L 248.960652 33.063005 
L 249.391066 35.119579 
L 249.842788 38.517351 
L 250.166664 40.431058 
L 250.175187 40.42837 
L 250.23911 40.254494 
L 250.362694 39.07702 
L 251.146815 29.618998 
L 251.372675 29.395793 
L 251.602798 29.48244 
L 252.003381 29.924216 
L 252.617041 30.948944 
L 253.166778 32.302418 
L 253.622761 34.048163 
L 254.04039 36.601805 
L 254.59865 40.430945 
L 254.645527 40.353962 
L 254.747803 39.6411 
L 254.96088 36.117842 
L 255.35294 30.575938 
L 255.612893 29.550776 
L 255.834492 29.394759 
L 256.077399 29.517667 
L 256.516336 30.039727 
L 257.134258 31.127433 
L 257.666948 32.520653 
L 258.114408 34.351087 
L 258.536299 37.10965 
L 259.030636 40.430735 
L 259.056205 40.404733 
L 259.141436 39.989615 
L 259.307635 37.723455 
L 259.82328 30.321729 
L 260.07471 29.503187 
L 260.292048 29.397755 
L 260.552001 29.557035 
L 261.02503 30.155356 
L 261.642951 31.297538 
L 262.158596 32.723962 
L 262.597533 34.628604 
L 263.023685 37.572431 
L 263.458361 40.431077 
L 263.475407 40.421674 
L 263.547853 40.16225 
L 263.688483 38.575885 
L 264.340497 29.90818 
L 264.579142 29.428929 
L 264.787957 29.417929 
L 265.094787 29.673194 
L 265.644523 30.459534 
L 266.241137 31.69692 
L 266.731212 33.246759 
L 267.157365 35.386455 
L 267.643179 39.167397 
L 267.890347 40.431002 
L 267.907393 40.420257 
L 267.979839 40.154447 
L 268.12047 38.555964 
L 268.768221 29.919751 
L 269.011128 29.428075 
L 269.219943 29.418475 
L 269.526773 29.674601 
L 270.07651 30.461667 
L 270.673123 31.700099 
L 270.72 31.821486 
L 270.72 31.821486 
" clip-path="url(#pff44e8d4a9)" style="fill: none; stroke: #808080; stroke-width: 1.5; stroke-linecap: square"/>
   </g>
   <g id="patch_3">
    <path d="M 57.648 161.7 
L 57.648 17.28 
" style="fill: none; stroke: #000000; stroke-width: 0.8; stroke-linejoin: miter; stroke-linecap: square"/>
   </g>
   <g id="patch_4">
    <path d="M 270.72 161.7 
L 270.72 17.28 
" style="fill: none; stroke: #000000; stroke-width: 0.8; stroke-linejoin: miter; stroke-linecap: square"/>
   </g>
   <g id="patch_5">
    <path d="M 57.648 161.7 
L 270.72 161.7 
" style="fill: none; stroke: #000000; stroke-width: 0.8; stroke-linejoin: miter; stroke-linecap: square"/>
   </g>
   <g id="patch_6">
    <path d="M 57.648 17.28 
L 270.72 17.28 
" style="fill: none; stroke: #000000; stroke-width: 0.8; stroke-linejoin: miter; stroke-linecap: square"/>
   </g>
  </g>
 </g>
 <defs>
  <clipPath id="pff44e8d4a9">
   <rect x="57.648" y="17.28" width="213.072" height="144.42"/>
  </clipPath>
 </defs>
</svg>
