<?xml version="1.0" encoding="utf-8" standalone="no"?>
<!DOCTYPE svg PUBLIC "-//W3C//DTD SVG 1.1//EN"
  "http://www.w3.org/Graphics/SVG/1.1/DTD/svg11.dtd">
<svg xmlns:xlink="http://www.w3.org/1999/xlink" width="288pt" height="216pt" viewBox="0 0 288 216" xmlns="http://www.w3.org/2000/svg" version="1.1">
 <metadata>
  <rdf:RDF xmlns:dc="http://purl.org/dc/elements/1.1/" xmlns:cc="http://creativecommons.org/ns#" xmlns:rdf="http://www.w3.org/1999/02/22-rdf-syntax-ns#">
   <cc:Work>
    <dc:type rdf:resource="http://purl.org/dc/dcmitype/StillImage"/>
    <dc:date>2024-02-20T15:09:18.435530</dc:date>
    <dc:format>image/svg+xml</dc:format>
    <dc:creator>
     <cc:Agent>
      <dc:title>Matplotlib v3.7.2, https://matplotlib.org/</dc:title>
     </cc:Agent>
    </dc:creator>
   </cc:Work>
  </rdf:RDF>
 </metadata>
 <defs>
  <style type="text/css">*{stroke-linejoin: round; stroke-linecap: butt}</style>
 </defs>
 <g id="figure_1">
  <g id="patch_1">
   <path d="M 0 216 
L 288 216 
L 288 0 
L 0 0 
L 0 216 
z
" style="fill: none"/>
  </g>
  <g id="axes_1">
   <g id="patch_2">
    <path d="M 82.65 155.94 
L 253.53 155.94 
L 253.53 25.92 
L 82.65 25.92 
L 82.65 155.94 
z
" style="fill: none"/>
   </g>
   <g id="matplotlib.axis_1">
    <g id="xtick_1">
     <g id="line2d_1">
      <defs>
       <path id="m0e3de67c72" d="M 0 0 
L 0 -3.5 
" style="stroke: #000000; stroke-width: 0.8"/>
      </defs>
      <g>
       <use xlink:href="#m0e3de67c72" x="82.65" y="155.94" style="stroke: #000000; stroke-width: 0.8"/>
      </g>
     </g>
     <g id="text_1">
      <!-- 0 -->
      <g transform="translate(77.645156 172.324062) scale(0.18 -0.18)">
       <defs>
        <path id="ArialMT-30" d="M 266 2259 
Q 266 3072 433 3567 
Q 600 4063 929 4331 
Q 1259 4600 1759 4600 
Q 2128 4600 2406 4451 
Q 2684 4303 2865 4023 
Q 3047 3744 3150 3342 
Q 3253 2941 3253 2259 
Q 3253 1453 3087 958 
Q 2922 463 2592 192 
Q 2263 -78 1759 -78 
Q 1097 -78 719 397 
Q 266 969 266 2259 
z
M 844 2259 
Q 844 1131 1108 757 
Q 1372 384 1759 384 
Q 2147 384 2411 759 
Q 2675 1134 2675 2259 
Q 2675 3391 2411 3762 
Q 2147 4134 1753 4134 
Q 1366 4134 1134 3806 
Q 844 3388 844 2259 
z
" transform="scale(0.015625)"/>
       </defs>
       <use xlink:href="#ArialMT-30"/>
      </g>
     </g>
    </g>
    <g id="xtick_2">
     <g id="line2d_2">
      <g>
       <use xlink:href="#m0e3de67c72" x="168.09" y="155.94" style="stroke: #000000; stroke-width: 0.8"/>
      </g>
     </g>
     <g id="text_2">
      <!-- 100 -->
      <g transform="translate(153.075469 172.324062) scale(0.18 -0.18)">
       <defs>
        <path id="ArialMT-31" d="M 2384 0 
L 1822 0 
L 1822 3584 
Q 1619 3391 1289 3197 
Q 959 3003 697 2906 
L 697 3450 
Q 1169 3672 1522 3987 
Q 1875 4303 2022 4600 
L 2384 4600 
L 2384 0 
z
" transform="scale(0.015625)"/>
       </defs>
       <use xlink:href="#ArialMT-31"/>
       <use xlink:href="#ArialMT-30" x="55.615234"/>
       <use xlink:href="#ArialMT-30" x="111.230469"/>
      </g>
     </g>
    </g>
    <g id="xtick_3">
     <g id="line2d_3">
      <g>
       <use xlink:href="#m0e3de67c72" x="253.53" y="155.94" style="stroke: #000000; stroke-width: 0.8"/>
      </g>
     </g>
     <g id="text_3">
      <!-- 200 -->
      <g transform="translate(238.515469 172.324062) scale(0.18 -0.18)">
       <defs>
        <path id="ArialMT-32" d="M 3222 541 
L 3222 0 
L 194 0 
Q 188 203 259 391 
Q 375 700 629 1000 
Q 884 1300 1366 1694 
Q 2113 2306 2375 2664 
Q 2638 3022 2638 3341 
Q 2638 3675 2398 3904 
Q 2159 4134 1775 4134 
Q 1369 4134 1125 3890 
Q 881 3647 878 3216 
L 300 3275 
Q 359 3922 746 4261 
Q 1134 4600 1788 4600 
Q 2447 4600 2831 4234 
Q 3216 3869 3216 3328 
Q 3216 3053 3103 2787 
Q 2991 2522 2730 2228 
Q 2469 1934 1863 1422 
Q 1356 997 1212 845 
Q 1069 694 975 541 
L 3222 541 
z
" transform="scale(0.015625)"/>
       </defs>
       <use xlink:href="#ArialMT-32"/>
       <use xlink:href="#ArialMT-30" x="55.615234"/>
       <use xlink:href="#ArialMT-30" x="111.230469"/>
      </g>
     </g>
    </g>
    <g id="text_4">
     <!-- $t$ -->
     <g transform="translate(164.49 192.785625) scale(0.18 -0.18)">
      <defs>
       <path id="DejaVuSans-Oblique-74" d="M 2706 3500 
L 2619 3053 
L 1472 3053 
L 1100 1153 
Q 1081 1047 1072 975 
Q 1063 903 1063 863 
Q 1063 663 1183 572 
Q 1303 481 1569 481 
L 2150 481 
L 2053 0 
L 1503 0 
Q 991 0 739 200 
Q 488 400 488 806 
Q 488 878 497 964 
Q 506 1050 525 1153 
L 897 3053 
L 409 3053 
L 500 3500 
L 978 3500 
L 1172 4494 
L 1747 4494 
L 1556 3500 
L 2706 3500 
z
" transform="scale(0.015625)"/>
      </defs>
      <use xlink:href="#DejaVuSans-Oblique-74" transform="translate(0 0.78125)"/>
     </g>
    </g>
   </g>
   <g id="matplotlib.axis_2">
    <g id="ytick_1">
     <g id="line2d_4">
      <defs>
       <path id="m9d48489169" d="M 0 0 
L 3.5 0 
" style="stroke: #000000; stroke-width: 0.8"/>
      </defs>
      <g>
       <use xlink:href="#m9d48489169" x="82.65" y="155.94" style="stroke: #000000; stroke-width: 0.8"/>
      </g>
     </g>
     <g id="text_5">
      <!-- −1 -->
      <g transform="translate(58.627188 162.382031) scale(0.18 -0.18)">
       <defs>
        <path id="ArialMT-2212" d="M 3381 1997 
L 356 1997 
L 356 2522 
L 3381 2522 
L 3381 1997 
z
" transform="scale(0.015625)"/>
       </defs>
       <use xlink:href="#ArialMT-2212"/>
       <use xlink:href="#ArialMT-31" x="58.398438"/>
      </g>
     </g>
    </g>
    <g id="ytick_2">
     <g id="line2d_5">
      <g>
       <use xlink:href="#m9d48489169" x="82.65" y="90.93" style="stroke: #000000; stroke-width: 0.8"/>
      </g>
     </g>
     <g id="text_6">
      <!-- 0 -->
      <g transform="translate(69.140313 97.372031) scale(0.18 -0.18)">
       <use xlink:href="#ArialMT-30"/>
      </g>
     </g>
    </g>
    <g id="ytick_3">
     <g id="line2d_6">
      <g>
       <use xlink:href="#m9d48489169" x="82.65" y="25.92" style="stroke: #000000; stroke-width: 0.8"/>
      </g>
     </g>
     <g id="text_7">
      <!-- 1 -->
      <g transform="translate(69.140313 32.362031) scale(0.18 -0.18)">
       <use xlink:href="#ArialMT-31"/>
      </g>
     </g>
    </g>
    <g id="text_8">
     <!-- $\phi_i - \phi_0$ -->
     <g transform="translate(50.847188 120.18) rotate(-90) scale(0.18 -0.18)">
      <defs>
       <path id="DejaVuSans-Oblique-3d5" d="M 2991 4863 
L 2738 3572 
Q 3363 3572 3684 3094 
Q 4016 2606 3850 1747 
Q 3681 888 3159 400 
Q 2653 -78 2028 -78 
L 1784 -1331 
L 1213 -1331 
L 1456 -78 
Q 834 -78 509 400 
Q 178 888 347 1747 
Q 513 2606 1034 3094 
Q 1544 3572 2166 3572 
L 2419 4863 
L 2991 4863 
z
M 2128 434 
Q 2481 434 2784 756 
Q 3116 1116 3244 1747 
Q 3369 2372 3169 2738 
Q 2991 3059 2638 3059 
L 2128 434 
z
M 1556 434 
L 2066 3059 
Q 1716 3059 1413 2738 
Q 1072 2372 953 1747 
Q 834 1116 1028 756 
Q 1203 434 1556 434 
z
" transform="scale(0.015625)"/>
       <path id="DejaVuSans-Oblique-69" d="M 1172 4863 
L 1747 4863 
L 1606 4134 
L 1031 4134 
L 1172 4863 
z
M 909 3500 
L 1484 3500 
L 800 0 
L 225 0 
L 909 3500 
z
" transform="scale(0.015625)"/>
       <path id="DejaVuSans-2212" d="M 678 2272 
L 4684 2272 
L 4684 1741 
L 678 1741 
L 678 2272 
z
" transform="scale(0.015625)"/>
       <path id="DejaVuSans-30" d="M 2034 4250 
Q 1547 4250 1301 3770 
Q 1056 3291 1056 2328 
Q 1056 1369 1301 889 
Q 1547 409 2034 409 
Q 2525 409 2770 889 
Q 3016 1369 3016 2328 
Q 3016 3291 2770 3770 
Q 2525 4250 2034 4250 
z
M 2034 4750 
Q 2819 4750 3233 4129 
Q 3647 3509 3647 2328 
Q 3647 1150 3233 529 
Q 2819 -91 2034 -91 
Q 1250 -91 836 529 
Q 422 1150 422 2328 
Q 422 3509 836 4129 
Q 1250 4750 2034 4750 
z
" transform="scale(0.015625)"/>
      </defs>
      <use xlink:href="#DejaVuSans-Oblique-3d5" transform="translate(0 0.015625)"/>
      <use xlink:href="#DejaVuSans-Oblique-69" transform="translate(65.966797 -16.390625) scale(0.7)"/>
      <use xlink:href="#DejaVuSans-2212" transform="translate(107.631836 0.015625)"/>
      <use xlink:href="#DejaVuSans-Oblique-3d5" transform="translate(210.90332 0.015625)"/>
      <use xlink:href="#DejaVuSans-30" transform="translate(276.870117 -16.390625) scale(0.7)"/>
     </g>
    </g>
   </g>
   <g id="line2d_7">
    <path d="M 82.65 90.93 
L 253.53 90.93 
L 253.53 90.93 
" clip-path="url(#p7b8b9a5704)" style="fill: none; stroke: #000000; stroke-width: 1.5; stroke-linecap: square"/>
   </g>
   <g id="line2d_8">
    <path d="M 82.65 76.002912 
L 82.889244 87.714217 
L 83.145577 91.024904 
L 83.453176 92.368699 
L 84.264897 94.864072 
L 84.649396 95.311862 
L 85.059528 95.45595 
L 85.64055 95.396556 
L 90.955183 94.284182 
L 94.526754 93.987554 
L 99.909743 93.78217 
L 109.462413 93.671705 
L 139.077397 93.643333 
L 253.53 93.643113 
L 253.53 93.643113 
" clip-path="url(#p7b8b9a5704)" style="fill: none; stroke: #808080; stroke-width: 1.5; stroke-linecap: square"/>
   </g>
   <g id="line2d_9">
    <path d="M 82.65 126.965587 
L 82.846522 131.543887 
L 82.897788 131.640578 
L 82.949055 131.515635 
L 83.111399 130.297102 
L 83.581343 124.653211 
L 84.333252 116.894139 
L 85.033895 111.768757 
L 85.700361 108.425255 
L 86.366826 106.147704 
L 87.058924 104.534969 
L 87.80229 103.351928 
L 88.622555 102.457621 
L 89.588075 101.735844 
L 90.792839 101.121169 
L 92.373558 100.5754 
L 94.492576 100.090164 
L 97.312237 99.683076 
L 101.114507 99.371472 
L 106.625663 99.160998 
L 116.203966 99.048776 
L 145.37464 99.019789 
L 253.53 99.019547 
L 253.53 99.019547 
" clip-path="url(#p7b8b9a5704)" style="fill: none; stroke: #808080; stroke-width: 1.5; stroke-linecap: square"/>
   </g>
   <g id="line2d_10">
    <path d="M 82.65 76.129673 
L 82.897788 87.762242 
L 83.154121 91.072562 
L 83.333554 91.832485 
L 83.359187 91.813952 
L 83.453176 91.469707 
L 83.709509 89.338314 
L 84.230719 85.567786 
L 84.65794 83.979129 
L 85.076617 83.190078 
L 85.503839 82.82562 
L 85.982327 82.707114 
L 86.648792 82.791968 
L 87.930456 83.227079 
L 90.844106 84.211761 
L 93.193823 84.745159 
L 96.039117 85.153218 
L 99.815754 85.456718 
L 105.361088 85.660523 
L 115.212812 85.767979 
L 146.93827 85.79414 
L 253.53 85.794283 
L 253.53 85.794283 
" clip-path="url(#p7b8b9a5704)" style="fill: none; stroke: #808080; stroke-width: 1.5; stroke-linecap: square"/>
   </g>
   <g id="line2d_11">
    <path d="M 82.65 121.587996 
L 82.761078 123.742607 
L 82.8038 123.547002 
L 82.906333 121.255619 
L 83.145577 109.008991 
L 83.777864 79.263395 
L 84.128186 74.340813 
L 84.572496 71.057204 
L 85.059528 68.993785 
L 85.546561 67.825872 
L 86.025049 67.215547 
L 86.503537 66.945912 
L 87.041836 66.901552 
L 87.742479 67.084648 
L 88.913065 67.656991 
L 91.997603 69.215314 
L 93.97991 69.924811 
L 96.21855 70.483926 
L 98.944223 70.927111 
L 102.473071 71.264282 
L 107.437383 71.499174 
L 115.563134 71.634787 
L 135.446016 71.681093 
L 253.53 71.682926 
L 253.53 71.682926 
" clip-path="url(#p7b8b9a5704)" style="fill: none; stroke: #808080; stroke-width: 1.5; stroke-linecap: square"/>
   </g>
   <g id="line2d_12">
    <path d="M 82.65 45.145316 
L 82.735444 41.992905 
L 82.786711 42.652795 
L 83.000322 51.435704 
L 83.470265 65.18901 
L 83.700965 67.622599 
L 83.760776 67.670964 
L 83.812042 67.600539 
L 83.982931 66.938585 
L 84.974084 62.541193 
L 85.48675 61.394655 
L 85.973782 60.812452 
L 86.45227 60.57198 
L 86.982025 60.560318 
L 87.674123 60.787501 
L 88.836165 61.442174 
L 91.732726 63.112207 
L 93.603956 63.895628 
L 95.671707 64.515254 
L 98.132502 65.013243 
L 101.225585 65.402367 
L 105.386721 65.687784 
L 111.615608 65.871576 
L 123.415462 65.959137 
L 175.596279 65.973809 
L 253.53 65.973812 
L 253.53 65.973812 
" clip-path="url(#p7b8b9a5704)" style="fill: none; stroke: #808080; stroke-width: 1.5; stroke-linecap: square"/>
   </g>
   <g id="line2d_13">
    <path d="M 82.65 116.76533 
L 82.889244 85.09833 
L 83.000322 85.96471 
L 83.512987 90.674705 
L 83.991475 92.894 
L 84.828829 95.573575 
L 85.871249 98.2322 
L 86.89658 100.253123 
L 87.981723 101.909598 
L 89.152309 103.295684 
L 90.416884 104.452197 
L 91.809626 105.425565 
L 93.373256 106.245369 
L 95.17613 106.934892 
L 97.312237 107.506807 
L 99.926832 107.968255 
L 103.284792 108.324476 
L 107.924416 108.578057 
L 115.238445 108.731365 
L 131.182347 108.79211 
L 253.53 108.796875 
L 253.53 108.796875 
" clip-path="url(#p7b8b9a5704)" style="fill: none; stroke: #808080; stroke-width: 1.5; stroke-linecap: square"/>
   </g>
   <g id="line2d_14">
    <path d="M 82.65 62.589342 
L 83.102855 91.449467 
L 83.342099 94.168042 
L 83.726598 95.965423 
L 84.820285 99.957621 
L 85.649094 102.020796 
L 86.68297 103.994475 
L 87.853556 105.758806 
L 89.092498 107.229449 
L 90.399795 108.438063 
L 91.809626 109.438634 
L 93.373256 110.273907 
L 95.159041 110.972223 
L 97.269515 111.552397 
L 99.849932 112.022266 
L 103.148081 112.38584 
L 107.676627 112.646398 
L 114.72578 112.806269 
L 129.558905 112.872637 
L 242.276989 112.878983 
L 253.53 112.878983 
L 253.53 112.878983 
" clip-path="url(#p7b8b9a5704)" style="fill: none; stroke: #808080; stroke-width: 1.5; stroke-linecap: square"/>
   </g>
   <g id="line2d_15">
    <path d="M 82.65 51.411152 
L 82.846522 55.707768 
L 82.8807 55.755453 
L 82.931966 55.627431 
L 83.060133 54.472828 
L 83.504443 49.701777 
L 83.512987 49.704734 
L 83.61552 49.886536 
L 84.427241 51.860123 
L 84.73484 51.891002 
L 86.16176 51.71105 
L 86.828225 52.024676 
L 87.870645 52.79864 
L 90.801384 55.056642 
L 92.450458 55.994724 
L 94.227699 56.746933 
L 96.261273 57.361003 
L 98.704979 57.859155 
L 101.780973 58.249521 
L 105.916475 58.536554 
L 112.094096 58.722077 
L 123.723062 58.811202 
L 173.631061 58.826634 
L 253.53 58.826638 
L 253.53 58.826638 
" clip-path="url(#p7b8b9a5704)" style="fill: none; stroke: #808080; stroke-width: 1.5; stroke-linecap: square"/>
   </g>
   <g id="patch_3">
    <path d="M 82.65 155.94 
L 82.65 25.92 
" style="fill: none; stroke: #000000; stroke-width: 0.8; stroke-linejoin: miter; stroke-linecap: square"/>
   </g>
   <g id="patch_4">
    <path d="M 253.53 155.94 
L 253.53 25.92 
" style="fill: none; stroke: #000000; stroke-width: 0.8; stroke-linejoin: miter; stroke-linecap: square"/>
   </g>
   <g id="patch_5">
    <path d="M 82.65 155.94 
L 253.53 155.94 
" style="fill: none; stroke: #000000; stroke-width: 0.8; stroke-linejoin: miter; stroke-linecap: square"/>
   </g>
   <g id="patch_6">
    <path d="M 82.65 25.92 
L 253.53 25.92 
" style="fill: none; stroke: #000000; stroke-width: 0.8; stroke-linejoin: miter; stroke-linecap: square"/>
   </g>
  </g>
 </g>
 <defs>
  <clipPath id="p7b8b9a5704">
   <rect x="82.65" y="25.92" width="170.88" height="130.02"/>
  </clipPath>
 </defs>
</svg>
