<?xml version="1.0" encoding="utf-8" standalone="no"?>
<!DOCTYPE svg PUBLIC "-//W3C//DTD SVG 1.1//EN"
  "http://www.w3.org/Graphics/SVG/1.1/DTD/svg11.dtd">
<svg xmlns:xlink="http://www.w3.org/1999/xlink" width="288pt" height="216pt" viewBox="0 0 288 216" xmlns="http://www.w3.org/2000/svg" version="1.1">
 <metadata>
  <rdf:RDF xmlns:dc="http://purl.org/dc/elements/1.1/" xmlns:cc="http://creativecommons.org/ns#" xmlns:rdf="http://www.w3.org/1999/02/22-rdf-syntax-ns#">
   <cc:Work>
    <dc:type rdf:resource="http://purl.org/dc/dcmitype/StillImage"/>
    <dc:date>2024-02-20T17:24:48.865849</dc:date>
    <dc:format>image/svg+xml</dc:format>
    <dc:creator>
     <cc:Agent>
      <dc:title>Matplotlib v3.8.2, https://matplotlib.org/</dc:title>
     </cc:Agent>
    </dc:creator>
   </cc:Work>
  </rdf:RDF>
 </metadata>
 <defs>
  <style type="text/css">*{stroke-linejoin: round; stroke-linecap: butt}</style>
 </defs>
 <g id="figure_1">
  <g id="patch_1">
   <path d="M 0 216 
L 288 216 
L 288 0 
L 0 0 
L 0 216 
z
" style="fill: none"/>
  </g>
  <g id="axes_1">
   <g id="patch_2">
    <path d="M 53.58 155.94 
L 253.53 155.94 
L 253.53 21.150507 
L 53.58 21.150507 
L 53.58 155.94 
z
" style="fill: none"/>
   </g>
   <g id="matplotlib.axis_1">
    <g id="xtick_1">
     <g id="line2d_1">
      <defs>
       <path id="m74d31a46ef" d="M 0 0 
L 0 -3.5 
" style="stroke: #000000; stroke-width: 0.8"/>
      </defs>
      <g>
       <use xlink:href="#m74d31a46ef" x="53.58" y="155.94" style="stroke: #000000; stroke-width: 0.8"/>
      </g>
     </g>
     <g id="text_1">
      <!-- 0 -->
      <g transform="translate(48.575156 172.324062) scale(0.18 -0.18)">
       <defs>
        <path id="ArialMT-30" d="M 266 2259 
Q 266 3072 433 3567 
Q 600 4063 929 4331 
Q 1259 4600 1759 4600 
Q 2128 4600 2406 4451 
Q 2684 4303 2865 4023 
Q 3047 3744 3150 3342 
Q 3253 2941 3253 2259 
Q 3253 1453 3087 958 
Q 2922 463 2592 192 
Q 2263 -78 1759 -78 
Q 1097 -78 719 397 
Q 266 969 266 2259 
z
M 844 2259 
Q 844 1131 1108 757 
Q 1372 384 1759 384 
Q 2147 384 2411 759 
Q 2675 1134 2675 2259 
Q 2675 3391 2411 3762 
Q 2147 4134 1753 4134 
Q 1366 4134 1134 3806 
Q 844 3388 844 2259 
z
" transform="scale(0.015625)"/>
       </defs>
       <use xlink:href="#ArialMT-30"/>
      </g>
     </g>
    </g>
    <g id="xtick_2">
     <g id="line2d_2">
      <g>
       <use xlink:href="#m74d31a46ef" x="153.555" y="155.94" style="stroke: #000000; stroke-width: 0.8"/>
      </g>
     </g>
     <g id="text_2">
      <!-- 100 -->
      <g transform="translate(138.540469 172.324062) scale(0.18 -0.18)">
       <defs>
        <path id="ArialMT-31" d="M 2384 0 
L 1822 0 
L 1822 3584 
Q 1619 3391 1289 3197 
Q 959 3003 697 2906 
L 697 3450 
Q 1169 3672 1522 3987 
Q 1875 4303 2022 4600 
L 2384 4600 
L 2384 0 
z
" transform="scale(0.015625)"/>
       </defs>
       <use xlink:href="#ArialMT-31"/>
       <use xlink:href="#ArialMT-30" x="55.615234"/>
       <use xlink:href="#ArialMT-30" x="111.230469"/>
      </g>
     </g>
    </g>
    <g id="xtick_3">
     <g id="line2d_3">
      <g>
       <use xlink:href="#m74d31a46ef" x="253.53" y="155.94" style="stroke: #000000; stroke-width: 0.8"/>
      </g>
     </g>
     <g id="text_3">
      <!-- 200 -->
      <g transform="translate(238.515469 172.324062) scale(0.18 -0.18)">
       <defs>
        <path id="ArialMT-32" d="M 3222 541 
L 3222 0 
L 194 0 
Q 188 203 259 391 
Q 375 700 629 1000 
Q 884 1300 1366 1694 
Q 2113 2306 2375 2664 
Q 2638 3022 2638 3341 
Q 2638 3675 2398 3904 
Q 2159 4134 1775 4134 
Q 1369 4134 1125 3890 
Q 881 3647 878 3216 
L 300 3275 
Q 359 3922 746 4261 
Q 1134 4600 1788 4600 
Q 2447 4600 2831 4234 
Q 3216 3869 3216 3328 
Q 3216 3053 3103 2787 
Q 2991 2522 2730 2228 
Q 2469 1934 1863 1422 
Q 1356 997 1212 845 
Q 1069 694 975 541 
L 3222 541 
z
" transform="scale(0.015625)"/>
       </defs>
       <use xlink:href="#ArialMT-32"/>
       <use xlink:href="#ArialMT-30" x="55.615234"/>
       <use xlink:href="#ArialMT-30" x="111.230469"/>
      </g>
     </g>
    </g>
    <g id="text_4">
     <!-- $t$ -->
     <g transform="translate(149.955 192.785625) scale(0.18 -0.18)">
      <defs>
       <path id="DejaVuSans-Oblique-74" d="M 2706 3500 
L 2619 3053 
L 1472 3053 
L 1100 1153 
Q 1081 1047 1072 975 
Q 1063 903 1063 863 
Q 1063 663 1183 572 
Q 1303 481 1569 481 
L 2150 481 
L 2053 0 
L 1503 0 
Q 991 0 739 200 
Q 488 400 488 806 
Q 488 878 497 964 
Q 506 1050 525 1153 
L 897 3053 
L 409 3053 
L 500 3500 
L 978 3500 
L 1172 4494 
L 1747 4494 
L 1556 3500 
L 2706 3500 
z
" transform="scale(0.015625)"/>
      </defs>
      <use xlink:href="#DejaVuSans-Oblique-74" transform="translate(0 0.78125)"/>
     </g>
    </g>
   </g>
   <g id="matplotlib.axis_2">
    <g id="ytick_1">
     <g id="line2d_4">
      <defs>
       <path id="m960e70e990" d="M 0 0 
L 3.5 0 
" style="stroke: #000000; stroke-width: 0.8"/>
      </defs>
      <g>
       <use xlink:href="#m960e70e990" x="53.58" y="149.813205" style="stroke: #000000; stroke-width: 0.8"/>
      </g>
     </g>
     <g id="text_5">
      <!-- 0 -->
      <g transform="translate(40.070313 156.255236) scale(0.18 -0.18)">
       <use xlink:href="#ArialMT-30"/>
      </g>
     </g>
    </g>
    <g id="ytick_2">
     <g id="line2d_5">
      <g>
       <use xlink:href="#m960e70e990" x="53.58" y="66.614943" style="stroke: #000000; stroke-width: 0.8"/>
      </g>
     </g>
     <g id="text_6">
      <!-- 2 -->
      <g transform="translate(40.070313 73.056974) scale(0.18 -0.18)">
       <use xlink:href="#ArialMT-32"/>
      </g>
     </g>
    </g>
    <g id="text_7">
     <!-- $r_i$ -->
     <g transform="translate(32.492813 94.305253) rotate(-90) scale(0.18 -0.18)">
      <defs>
       <path id="DejaVuSans-Oblique-72" d="M 2853 2969 
Q 2766 3016 2653 3041 
Q 2541 3066 2413 3066 
Q 1953 3066 1609 2717 
Q 1266 2369 1153 1784 
L 800 0 
L 225 0 
L 909 3500 
L 1484 3500 
L 1375 2956 
Q 1603 3259 1920 3421 
Q 2238 3584 2597 3584 
Q 2691 3584 2781 3573 
Q 2872 3563 2963 3538 
L 2853 2969 
z
" transform="scale(0.015625)"/>
       <path id="DejaVuSans-Oblique-69" d="M 1172 4863 
L 1747 4863 
L 1606 4134 
L 1031 4134 
L 1172 4863 
z
M 909 3500 
L 1484 3500 
L 800 0 
L 225 0 
L 909 3500 
z
" transform="scale(0.015625)"/>
      </defs>
      <use xlink:href="#DejaVuSans-Oblique-72"/>
      <use xlink:href="#DejaVuSans-Oblique-69" transform="translate(41.113281 -16.40625) scale(0.7)"/>
     </g>
    </g>
   </g>
   <g id="line2d_6">
    <path d="M 53.58 108.081258 
L 53.749966 107.350365 
L 53.819952 107.520209 
L 53.969922 108.824992 
L 54.489818 116.355037 
L 55.169682 124.45887 
L 55.839548 129.907523 
L 56.549406 133.954536 
L 57.319252 137.10114 
L 58.149086 139.584933 
L 59.048906 141.595959 
L 60.02871 143.253006 
L 61.098496 144.63082 
L 62.268262 145.777507 
L 63.568002 146.73855 
L 65.02771 147.537668 
L 66.707374 148.198278 
L 68.696976 148.734662 
L 71.146486 149.155912 
L 74.345846 149.468627 
L 78.944926 149.67699 
L 86.963322 149.786215 
L 112.298253 149.813043 
L 253.53 149.813205 
L 253.53 149.813205 
" clip-path="url(#p72d43543e8)" style="fill: none; stroke: #000000; stroke-width: 1.5; stroke-linecap: square"/>
   </g>
   <g id="line2d_7">
    <path d="M 53.58 113.498933 
L 53.809954 117.314968 
L 54.459824 121.623922 
L 55.809554 130.902693 
L 56.589398 134.535853 
L 57.419232 137.37867 
L 58.32905 139.722102 
L 59.32885 141.694004 
L 60.408634 143.343081 
L 61.5784 144.72955 
L 62.838148 145.881108 
L 64.217872 146.840254 
L 65.747566 147.630553 
L 67.497216 148.279563 
L 69.566802 148.802692 
L 72.116292 149.20879 
L 75.47562 149.506229 
L 80.394636 149.69944 
L 89.382838 149.794677 
L 124.055901 149.813188 
L 253.53 149.813205 
L 253.53 149.813205 
" clip-path="url(#p72d43543e8)" style="fill: none; stroke: #808080; stroke-width: 1.5; stroke-linecap: square"/>
   </g>
   <g id="line2d_8">
    <path d="M 53.58 113.839613 
L 54.059904 124.489817 
L 54.52981 130.445039 
L 54.959724 133.388488 
L 55.389638 134.926369 
L 55.869542 135.848533 
L 56.72937 136.9188 
L 58.139088 138.76591 
L 61.408434 143.209995 
L 62.888138 144.770249 
L 64.337848 145.980782 
L 65.847546 146.953098 
L 67.487218 147.741977 
L 69.32685 148.376457 
L 71.496416 148.882561 
L 74.17588 149.270136 
L 77.745166 149.548703 
L 83.114092 149.723707 
L 93.631988 149.802508 
L 150.060699 149.813205 
L 253.53 149.813205 
L 253.53 149.813205 
" clip-path="url(#p72d43543e8)" style="fill: none; stroke: #808080; stroke-width: 1.5; stroke-linecap: square"/>
   </g>
   <g id="line2d_9">
    <path d="M 53.58 54.378555 
L 53.859944 95.358916 
L 54.17988 112.822122 
L 54.559804 122.314223 
L 55.009714 128.301586 
L 55.569602 132.8717 
L 56.249466 136.638871 
L 56.999316 139.598521 
L 57.799156 141.884604 
L 58.638988 143.632912 
L 59.52881 144.987471 
L 60.498616 146.066734 
L 61.588398 146.94707 
L 62.848146 147.674969 
L 64.357844 148.283075 
L 66.217472 148.783967 
L 68.596996 149.184837 
L 71.806354 149.486566 
L 76.515412 149.687182 
L 84.933728 149.790167 
L 113.787955 149.813137 
L 253.53 149.813205 
L 253.53 149.813205 
" clip-path="url(#p72d43543e8)" style="fill: none; stroke: #808080; stroke-width: 1.5; stroke-linecap: square"/>
   </g>
   <g id="line2d_10">
    <path d="M 53.58 63.076754 
L 53.849946 123.052749 
L 54.109894 139.870785 
L 54.289858 141.795681 
L 54.359844 141.708837 
L 54.849746 140.745809 
L 55.039708 140.894494 
L 55.369642 141.514312 
L 57.509214 146.111899 
L 58.369042 147.232098 
L 59.268862 148.047416 
L 60.268662 148.651413 
L 61.448426 149.09655 
L 62.958124 149.416345 
L 65.12769 149.630021 
L 68.97692 149.752226 
L 80.114692 149.807081 
L 177.155279 149.813205 
L 253.53 149.813205 
L 253.53 149.813205 
" clip-path="url(#p72d43543e8)" style="fill: none; stroke: #808080; stroke-width: 1.5; stroke-linecap: square"/>
   </g>
   <g id="line2d_11">
    <path d="M 53.58 141.069096 
L 53.739968 142.28154 
L 53.87994 142.394677 
L 53.909934 142.370043 
L 54.059904 142.025179 
L 54.439828 141.218043 
L 54.619792 141.246761 
L 54.869742 141.588193 
L 55.459624 142.90038 
L 56.549406 145.184611 
L 57.419232 146.5005 
L 58.299056 147.441849 
L 59.248866 148.135115 
L 60.348646 148.656501 
L 61.72837 149.053557 
L 63.657984 149.360669 
L 66.657384 149.591892 
L 71.846346 149.742662 
L 83.434028 149.806916 
L 174.695771 149.813205 
L 253.53 149.813205 
L 253.53 149.813205 
" clip-path="url(#p72d43543e8)" style="fill: none; stroke: #808080; stroke-width: 1.5; stroke-linecap: square"/>
   </g>
   <g id="line2d_12">
    <path d="M 53.58 134.639545 
L 53.659984 141.401314 
L 53.719972 139.317107 
L 53.989918 131.238323 
L 54.17988 130.38191 
L 54.299856 130.428457 
L 54.519812 130.885957 
L 55.009714 132.513737 
L 57.189278 140.375354 
L 58.099096 142.571364 
L 59.018912 144.22726 
L 59.97872 145.508592 
L 61.018512 146.529057 
L 62.17828 147.353255 
L 63.508014 148.022309 
L 65.107694 148.571885 
L 67.107294 149.014732 
L 69.736768 149.357859 
L 73.456024 149.603288 
L 79.454824 149.751677 
L 92.932128 149.809194 
L 235.0337 149.813205 
L 253.53 149.813205 
L 253.53 149.813205 
" clip-path="url(#p72d43543e8)" style="fill: none; stroke: #808080; stroke-width: 1.5; stroke-linecap: square"/>
   </g>
   <g id="line2d_13">
    <path d="M 53.58 76.820163 
L 53.819952 123.76847 
L 54.02991 132.02478 
L 54.22987 133.119512 
L 54.92973 134.851819 
L 57.039308 141.417411 
L 57.969122 143.371535 
L 58.918932 144.862418 
L 59.918732 146.024386 
L 61.008514 146.951123 
L 62.238268 147.701515 
L 63.67798 148.312944 
L 65.42763 148.806894 
L 67.667182 149.198308 
L 70.716572 149.491961 
L 75.285658 149.68873 
L 83.603994 149.790384 
L 112.538205 149.813139 
L 253.53 149.813205 
L 253.53 149.813205 
" clip-path="url(#p72d43543e8)" style="fill: none; stroke: #808080; stroke-width: 1.5; stroke-linecap: square"/>
   </g>
   <g id="line2d_14">
    <path d="M 53.58 27.277302 
L 53.87994 93.888448 
L 54.189878 120.526376 
L 54.519812 132.094185 
L 54.87974 137.595716 
L 55.27966 140.51425 
L 55.739568 142.322212 
L 56.319452 143.71948 
L 57.0793 144.966838 
L 58.009114 146.066256 
L 59.068902 146.976828 
L 60.27866 147.7219 
L 61.698376 148.330933 
L 63.42803 148.824132 
L 65.637588 149.212899 
L 68.646986 149.502242 
L 73.17608 149.694022 
L 81.584398 149.792118 
L 112.328247 149.813163 
L 253.53 149.813205 
L 253.53 149.813205 
" clip-path="url(#p72d43543e8)" style="fill: none; stroke: #808080; stroke-width: 1.5; stroke-linecap: square"/>
   </g>
   <g id="patch_3">
    <path d="M 53.58 155.94 
L 53.58 21.150507 
" style="fill: none; stroke: #000000; stroke-width: 0.8; stroke-linejoin: miter; stroke-linecap: square"/>
   </g>
   <g id="patch_4">
    <path d="M 253.53 155.94 
L 253.53 21.150507 
" style="fill: none; stroke: #000000; stroke-width: 0.8; stroke-linejoin: miter; stroke-linecap: square"/>
   </g>
   <g id="patch_5">
    <path d="M 53.58 155.94 
L 253.53 155.94 
" style="fill: none; stroke: #000000; stroke-width: 0.8; stroke-linejoin: miter; stroke-linecap: square"/>
   </g>
   <g id="patch_6">
    <path d="M 53.58 21.150507 
L 253.53 21.150507 
" style="fill: none; stroke: #000000; stroke-width: 0.8; stroke-linejoin: miter; stroke-linecap: square"/>
   </g>
  </g>
 </g>
 <defs>
  <clipPath id="p72d43543e8">
   <rect x="53.58" y="21.150507" width="199.95" height="134.789493"/>
  </clipPath>
 </defs>
</svg>
