<?xml version="1.0" encoding="utf-8" standalone="no"?>
<!DOCTYPE svg PUBLIC "-//W3C//DTD SVG 1.1//EN"
  "http://www.w3.org/Graphics/SVG/1.1/DTD/svg11.dtd">
<svg xmlns:xlink="http://www.w3.org/1999/xlink" width="288pt" height="216pt" viewBox="0 0 288 216" xmlns="http://www.w3.org/2000/svg" version="1.1">
 <metadata>
  <rdf:RDF xmlns:dc="http://purl.org/dc/elements/1.1/" xmlns:cc="http://creativecommons.org/ns#" xmlns:rdf="http://www.w3.org/1999/02/22-rdf-syntax-ns#">
   <cc:Work>
    <dc:type rdf:resource="http://purl.org/dc/dcmitype/StillImage"/>
    <dc:date>2024-02-22T17:26:34.623302</dc:date>
    <dc:format>image/svg+xml</dc:format>
    <dc:creator>
     <cc:Agent>
      <dc:title>Matplotlib v3.7.2, https://matplotlib.org/</dc:title>
     </cc:Agent>
    </dc:creator>
   </cc:Work>
  </rdf:RDF>
 </metadata>
 <defs>
  <style type="text/css">*{stroke-linejoin: round; stroke-linecap: butt}</style>
 </defs>
 <g id="figure_1">
  <g id="patch_1">
   <path d="M 0 216 
L 288 216 
L 288 0 
L 0 0 
L 0 216 
z
" style="fill: none"/>
  </g>
  <g id="axes_1">
   <g id="patch_2">
    <path d="M 74.01 155.94 
L 253.575 155.94 
L 253.575 19.44 
L 74.01 19.44 
L 74.01 155.94 
z
" style="fill: none"/>
   </g>
   <g id="matplotlib.axis_1">
    <g id="xtick_1">
     <g id="line2d_1">
      <defs>
       <path id="m7b4396d4ba" d="M 0 0 
L 0 -3.5 
" style="stroke: #000000; stroke-width: 0.8"/>
      </defs>
      <g>
       <use xlink:href="#m7b4396d4ba" x="74.01" y="155.94" style="stroke: #000000; stroke-width: 0.8"/>
      </g>
     </g>
     <g id="text_1">
      <!-- 0 -->
      <g transform="translate(69.005156 172.324062) scale(0.18 -0.18)">
       <defs>
        <path id="ArialMT-30" d="M 266 2259 
Q 266 3072 433 3567 
Q 600 4063 929 4331 
Q 1259 4600 1759 4600 
Q 2128 4600 2406 4451 
Q 2684 4303 2865 4023 
Q 3047 3744 3150 3342 
Q 3253 2941 3253 2259 
Q 3253 1453 3087 958 
Q 2922 463 2592 192 
Q 2263 -78 1759 -78 
Q 1097 -78 719 397 
Q 266 969 266 2259 
z
M 844 2259 
Q 844 1131 1108 757 
Q 1372 384 1759 384 
Q 2147 384 2411 759 
Q 2675 1134 2675 2259 
Q 2675 3391 2411 3762 
Q 2147 4134 1753 4134 
Q 1366 4134 1134 3806 
Q 844 3388 844 2259 
z
" transform="scale(0.015625)"/>
       </defs>
       <use xlink:href="#ArialMT-30"/>
      </g>
     </g>
    </g>
    <g id="xtick_2">
     <g id="line2d_2">
      <g>
       <use xlink:href="#m7b4396d4ba" x="163.7925" y="155.94" style="stroke: #000000; stroke-width: 0.8"/>
      </g>
     </g>
     <g id="text_2">
      <!-- 100 -->
      <g transform="translate(148.777969 172.324062) scale(0.18 -0.18)">
       <defs>
        <path id="ArialMT-31" d="M 2384 0 
L 1822 0 
L 1822 3584 
Q 1619 3391 1289 3197 
Q 959 3003 697 2906 
L 697 3450 
Q 1169 3672 1522 3987 
Q 1875 4303 2022 4600 
L 2384 4600 
L 2384 0 
z
" transform="scale(0.015625)"/>
       </defs>
       <use xlink:href="#ArialMT-31"/>
       <use xlink:href="#ArialMT-30" x="55.615234"/>
       <use xlink:href="#ArialMT-30" x="111.230469"/>
      </g>
     </g>
    </g>
    <g id="xtick_3">
     <g id="line2d_3">
      <g>
       <use xlink:href="#m7b4396d4ba" x="253.575" y="155.94" style="stroke: #000000; stroke-width: 0.8"/>
      </g>
     </g>
     <g id="text_3">
      <!-- 200 -->
      <g transform="translate(238.560469 172.324062) scale(0.18 -0.18)">
       <defs>
        <path id="ArialMT-32" d="M 3222 541 
L 3222 0 
L 194 0 
Q 188 203 259 391 
Q 375 700 629 1000 
Q 884 1300 1366 1694 
Q 2113 2306 2375 2664 
Q 2638 3022 2638 3341 
Q 2638 3675 2398 3904 
Q 2159 4134 1775 4134 
Q 1369 4134 1125 3890 
Q 881 3647 878 3216 
L 300 3275 
Q 359 3922 746 4261 
Q 1134 4600 1788 4600 
Q 2447 4600 2831 4234 
Q 3216 3869 3216 3328 
Q 3216 3053 3103 2787 
Q 2991 2522 2730 2228 
Q 2469 1934 1863 1422 
Q 1356 997 1212 845 
Q 1069 694 975 541 
L 3222 541 
z
" transform="scale(0.015625)"/>
       </defs>
       <use xlink:href="#ArialMT-32"/>
       <use xlink:href="#ArialMT-30" x="55.615234"/>
       <use xlink:href="#ArialMT-30" x="111.230469"/>
      </g>
     </g>
    </g>
    <g id="text_4">
     <!-- $t$ -->
     <g transform="translate(160.1925 192.785625) scale(0.18 -0.18)">
      <defs>
       <path id="DejaVuSans-Oblique-74" d="M 2706 3500 
L 2619 3053 
L 1472 3053 
L 1100 1153 
Q 1081 1047 1072 975 
Q 1063 903 1063 863 
Q 1063 663 1183 572 
Q 1303 481 1569 481 
L 2150 481 
L 2053 0 
L 1503 0 
Q 991 0 739 200 
Q 488 400 488 806 
Q 488 878 497 964 
Q 506 1050 525 1153 
L 897 3053 
L 409 3053 
L 500 3500 
L 978 3500 
L 1172 4494 
L 1747 4494 
L 1556 3500 
L 2706 3500 
z
" transform="scale(0.015625)"/>
      </defs>
      <use xlink:href="#DejaVuSans-Oblique-74" transform="translate(0 0.78125)"/>
     </g>
    </g>
   </g>
   <g id="matplotlib.axis_2">
    <g id="ytick_1">
     <g id="line2d_4">
      <defs>
       <path id="mf463e1590d" d="M 0 0 
L 3.5 0 
" style="stroke: #000000; stroke-width: 0.8"/>
      </defs>
      <g>
       <use xlink:href="#mf463e1590d" x="74.01" y="145.519675" style="stroke: #000000; stroke-width: 0.8"/>
      </g>
     </g>
     <g id="text_5">
      <!-- −10 -->
      <g transform="translate(39.9775 151.961706) scale(0.18 -0.18)">
       <defs>
        <path id="ArialMT-2212" d="M 3381 1997 
L 356 1997 
L 356 2522 
L 3381 2522 
L 3381 1997 
z
" transform="scale(0.015625)"/>
       </defs>
       <use xlink:href="#ArialMT-2212"/>
       <use xlink:href="#ArialMT-31" x="58.398438"/>
       <use xlink:href="#ArialMT-30" x="114.013672"/>
      </g>
     </g>
    </g>
    <g id="ytick_2">
     <g id="line2d_5">
      <g>
       <use xlink:href="#mf463e1590d" x="74.01" y="87.689976" style="stroke: #000000; stroke-width: 0.8"/>
      </g>
     </g>
     <g id="text_6">
      <!-- 0 -->
      <g transform="translate(60.500313 94.132007) scale(0.18 -0.18)">
       <use xlink:href="#ArialMT-30"/>
      </g>
     </g>
    </g>
    <g id="ytick_3">
     <g id="line2d_6">
      <g>
       <use xlink:href="#mf463e1590d" x="74.01" y="29.860277" style="stroke: #000000; stroke-width: 0.8"/>
      </g>
     </g>
     <g id="text_7">
      <!-- 10 -->
      <g transform="translate(50.490625 36.302308) scale(0.18 -0.18)">
       <use xlink:href="#ArialMT-31"/>
       <use xlink:href="#ArialMT-30" x="55.615234"/>
      </g>
     </g>
    </g>
    <g id="text_8">
     <!-- $r_i$ -->
     <g transform="translate(32.4 93.45) rotate(-90) scale(0.18 -0.18)">
      <defs>
       <path id="DejaVuSans-Oblique-72" d="M 2853 2969 
Q 2766 3016 2653 3041 
Q 2541 3066 2413 3066 
Q 1953 3066 1609 2717 
Q 1266 2369 1153 1784 
L 800 0 
L 225 0 
L 909 3500 
L 1484 3500 
L 1375 2956 
Q 1603 3259 1920 3421 
Q 2238 3584 2597 3584 
Q 2691 3584 2781 3573 
Q 2872 3563 2963 3538 
L 2853 2969 
z
" transform="scale(0.015625)"/>
       <path id="DejaVuSans-Oblique-69" d="M 1172 4863 
L 1747 4863 
L 1606 4134 
L 1031 4134 
L 1172 4863 
z
M 909 3500 
L 1484 3500 
L 800 0 
L 225 0 
L 909 3500 
z
" transform="scale(0.015625)"/>
      </defs>
      <use xlink:href="#DejaVuSans-Oblique-72"/>
      <use xlink:href="#DejaVuSans-Oblique-69" transform="translate(41.113281 -16.40625) scale(0.7)"/>
     </g>
    </g>
   </g>
   <g id="line2d_7">
    <path d="M 74.01 86.268498 
L 74.297318 84.91138 
L 74.476892 84.735336 
L 74.485871 84.74015 
L 74.611573 84.951745 
L 74.809104 85.821762 
L 75.195188 88.812383 
L 75.617187 91.441425 
L 75.751868 91.598405 
L 75.778804 91.578607 
L 75.895527 91.292562 
L 76.102037 90.045794 
L 76.999907 83.147531 
L 77.053779 83.192103 
L 77.179481 83.614356 
L 77.403948 85.360901 
L 78.247946 92.909053 
L 78.328754 92.81784 
L 78.472413 92.134764 
L 78.723817 89.578838 
L 79.442113 81.77422 
L 79.522921 81.695346 
L 79.567815 81.757729 
L 79.693516 82.333254 
L 79.917984 84.670797 
L 80.753003 94.581011 
L 80.824832 94.499878 
L 80.950534 93.824111 
L 81.175002 91.11759 
L 82.010021 79.774026 
L 82.072872 79.850073 
L 82.189595 80.510096 
L 82.405084 83.329272 
L 83.276017 96.775629 
L 83.293975 96.761742 
L 83.374783 96.470886 
L 83.5364 94.807288 
L 83.832697 88.863054 
L 84.407333 77.725008 
L 84.524056 77.273239 
L 84.56895 77.334309 
L 84.676694 78.017937 
L 84.874226 81.095295 
L 85.323161 92.83048 
L 85.682309 99.261856 
L 85.781074 99.61572 
L 85.825968 99.536692 
L 85.933712 98.732673 
L 86.131244 95.177237 
L 86.598136 81.212657 
L 86.939326 74.443827 
L 87.038092 74.061666 
L 87.082986 74.162287 
L 87.19073 75.105188 
L 87.388261 79.20414 
L 87.873111 95.744731 
L 88.205323 102.89253 
L 88.286131 103.229036 
L 88.340004 103.101123 
L 88.456727 101.857507 
L 88.663237 96.710423 
L 89.543149 70.024101 
L 89.579064 70.0955 
L 89.67783 71.028731 
L 89.866382 75.626218 
L 90.243488 91.873748 
L 90.665487 106.620627 
L 90.800167 107.698961 
L 90.836082 107.606697 
L 90.934847 106.519279 
L 91.1234 101.265698 
L 91.509484 82.39055 
L 91.922504 66.302113 
L 92.057185 65.131416 
L 92.0931 65.247793 
L 92.191865 66.506525 
L 92.380418 72.477805 
L 92.775481 94.272383 
L 93.179522 111.716304 
L 93.305224 112.984745 
L 93.341139 112.892432 
L 93.430926 111.76772 
L 93.6105 105.899387 
L 93.960669 85.015525 
L 94.427561 61.082878 
L 94.562242 59.516207 
L 94.598157 59.632514 
L 94.696922 61.12294 
L 94.885475 68.422187 
L 95.271559 94.709744 
L 95.684579 117.146466 
L 95.81926 118.829206 
L 95.855175 118.687377 
L 95.95394 117.005908 
L 96.142493 108.895974 
L 96.537556 79.196668 
L 96.941597 55.368412 
L 97.076278 53.570076 
L 97.112192 53.737764 
L 97.210958 55.61117 
L 97.399511 64.5312 
L 97.794573 96.966093 
L 98.198615 122.812551 
L 98.324317 124.727356 
L 98.36921 124.533662 
L 98.467976 122.474932 
L 98.656529 112.771299 
L 99.06057 76.858087 
L 99.455633 49.910783 
L 99.581335 47.878573 
L 99.626228 48.095924 
L 99.724994 50.325404 
L 99.913546 60.760155 
L 100.317588 99.196487 
L 100.712651 127.910388 
L 100.838352 130.060897 
L 100.883246 129.825472 
L 100.982012 127.44719 
L 101.170564 116.356579 
L 101.583584 74.689122 
L 101.978647 44.99312 
L 102.09537 43.025745 
L 102.140264 43.271929 
L 102.239029 45.771279 
L 102.427582 57.425767 
L 102.840602 101.148217 
L 103.235665 132.275733 
L 103.352388 134.352268 
L 103.397282 134.103796 
L 103.496047 131.514626 
L 103.6846 119.397354 
L 104.09762 73.921683 
L 104.492683 41.522364 
L 104.618385 39.331099 
L 104.654299 39.573122 
L 104.753065 42.2198 
L 104.941618 54.697285 
L 105.354638 101.627163 
L 105.749701 135.144508 
L 105.875403 137.460486 
L 105.911317 137.229395 
L 106.010083 134.556413 
L 106.198636 121.81642 
L 106.602677 74.803642 
L 106.99774 39.578595 
L 107.13242 36.770115 
L 107.168335 36.983565 
L 107.267101 39.654329 
L 107.455654 52.568362 
L 107.859695 100.482173 
L 108.263736 136.944246 
L 108.389438 139.529501 
L 108.425353 139.339578 
L 108.51514 137.062543 
L 108.694714 125.323073 
L 109.053862 83.156663 
L 109.502797 38.651436 
L 109.646456 35.125705 
L 109.682371 35.287136 
L 109.772158 37.518519 
L 109.951732 49.277936 
L 110.31088 91.860447 
L 110.768793 137.543916 
L 110.912453 140.825272 
L 110.948367 140.589988 
L 111.047133 137.77368 
L 111.235686 124.2813 
L 111.648706 73.335742 
L 112.043769 36.76973 
L 112.16947 34.113341 
L 112.205385 34.313725 
L 112.304151 37.053492 
L 112.492704 50.488033 
L 112.896745 100.53805 
L 113.300787 138.796481 
L 113.435467 141.603015 
L 113.471382 141.332366 
L 113.570148 138.39071 
L 113.7587 124.574932 
L 114.180699 71.726632 
L 114.566783 36.099697 
L 114.692485 33.513471 
L 114.7284 33.744945 
L 114.827165 36.591631 
L 115.015718 50.292277 
L 115.419759 100.915139 
L 115.823801 139.325143 
L 115.949503 142.064469 
L 115.985418 141.873887 
L 116.075205 139.510896 
L 116.254778 127.273877 
L 116.613926 83.313451 
L 117.062861 36.899265 
L 117.215499 33.165322 
L 117.242435 33.317555 
L 117.332222 35.582111 
L 117.502818 46.848518 
L 117.844008 87.923601 
L 118.328858 138.85089 
L 118.472517 142.331041 
L 118.508432 142.116464 
L 118.607198 139.297066 
L 118.79575 125.570459 
L 119.199792 74.620386 
L 119.603833 35.793452 
L 119.729535 32.964668 
L 119.774428 33.24666 
L 119.873194 36.245867 
L 120.061747 50.278606 
L 120.483746 103.836317 
L 120.86983 139.875642 
L 120.995532 142.483335 
L 121.031446 142.247081 
L 121.130212 139.363551 
L 121.318765 125.509117 
L 121.731785 73.189283 
L 122.126848 35.611812 
L 122.252549 32.847494 
L 122.288464 33.039189 
L 122.378251 35.420411 
L 122.557825 47.752942 
L 122.916973 92.044824 
L 123.365908 138.800671 
L 123.518546 142.569304 
L 123.545482 142.418019 
L 123.635269 140.145653 
L 123.805864 128.82177 
L 124.147055 87.520448 
L 124.631905 36.294076 
L 124.775564 32.780855 
L 124.811479 32.992339 
L 124.910244 35.813862 
L 125.098797 49.584584 
L 125.502838 100.741632 
L 125.90688 139.759848 
L 126.032582 142.617264 
L 126.077475 142.340891 
L 126.176241 139.345333 
L 126.364793 125.287784 
L 126.786792 71.570603 
L 127.172876 35.379745 
L 127.298578 32.743433 
L 127.334493 32.974117 
L 127.433259 35.848647 
L 127.621811 49.711591 
L 128.025853 100.952395 
L 128.429894 139.853606 
L 128.555596 142.647425 
L 128.60049 142.347301 
L 128.699255 139.299691 
L 128.887808 125.153349 
L 129.309807 71.364463 
L 129.695891 35.295549 
L 129.821593 32.722989 
L 129.857507 32.97253 
L 129.956273 35.898481 
L 130.144826 49.848468 
L 130.557846 102.347293 
L 130.952909 139.934288 
L 131.07861 142.664567 
L 131.114525 142.460638 
L 131.204312 140.045099 
L 131.383886 127.634778 
L 131.743034 83.20851 
L 132.191969 36.441339 
L 132.344607 32.712532 
L 132.371543 32.872483 
L 132.46133 35.176254 
L 132.640904 47.39186 
L 133.000052 91.661645 
L 133.457966 139.198166 
L 133.601625 142.673977 
L 133.63754 142.451458 
L 133.736305 139.597392 
L 133.924858 125.76219 
L 134.328899 74.514112 
L 134.732941 35.529592 
L 134.858643 32.705143 
L 134.903536 32.994814 
L 135.002302 36.021201 
L 135.190855 50.137369 
L 135.612853 103.928986 
L 135.998937 140.075413 
L 136.124639 142.678664 
L 136.160554 142.437639 
L 136.25932 139.533707 
L 136.447872 125.616382 
L 136.860893 73.122945 
L 137.255955 35.460869 
L 137.381657 32.69981 
L 137.417572 32.895088 
L 137.507359 35.28997 
L 137.686933 47.666394 
L 138.046081 92.073786 
L 138.495016 138.914196 
L 138.647654 142.680338 
L 138.67459 142.526937 
L 138.764377 140.244227 
L 138.934972 128.889083 
L 139.276163 87.504705 
L 139.761012 36.207942 
L 139.904671 32.69694 
L 139.940586 32.910663 
L 140.039352 35.741462 
L 140.227905 49.540043 
L 140.631946 100.77078 
L 141.035988 139.825345 
L 141.161689 142.680683 
L 141.206583 142.402065 
L 141.305349 139.399076 
L 141.493901 125.319868 
L 141.9159 71.54484 
L 142.301984 35.330007 
L 142.427686 32.695802 
L 142.463601 32.927947 
L 142.562366 35.80825 
L 142.750919 49.687831 
L 143.15496 100.970969 
L 143.559002 139.89143 
L 143.684704 142.68343 
L 143.729597 142.381799 
L 143.828363 139.329476 
L 144.016916 125.170044 
L 144.438914 71.347884 
L 144.824998 35.266712 
L 144.9507 32.695979 
L 144.986615 32.946531 
L 145.085381 35.876246 
L 145.273933 49.836465 
L 145.686954 102.360233 
L 146.082016 139.95637 
L 146.207718 142.684995 
L 146.243633 142.480221 
L 146.33342 140.061938 
L 146.512994 127.64406 
L 146.872142 83.200626 
L 147.321077 36.42425 
L 147.473715 32.697236 
L 147.500651 32.857741 
L 147.590438 35.163794 
L 147.770012 47.385484 
L 148.12916 91.668569 
L 148.587073 139.211413 
L 148.730733 142.685556 
L 148.766647 142.46238 
L 148.865413 139.606103 
L 149.053966 125.765535 
L 149.458007 74.506324 
L 149.862049 35.51933 
L 149.98775 32.696361 
L 150.032644 32.986776 
L 150.13141 36.015115 
L 150.319962 50.135776 
L 150.741961 103.936241 
L 151.128045 140.083448 
L 151.253747 142.685215 
L 151.289662 142.443642 
L 151.388427 139.537986 
L 151.57698 125.616853 
L 151.99 73.116542 
L 152.385063 35.454445 
L 152.510765 32.694828 
L 152.54668 32.890614 
L 152.636467 35.286903 
L 152.816041 47.666457 
L 153.175189 92.079073 
L 153.624123 138.91958 
L 153.776761 142.684028 
L 153.803697 142.530266 
L 153.893484 140.24626 
L 154.06408 128.888474 
L 154.40527 87.499848 
L 154.89012 36.203533 
L 155.033779 32.694122 
L 155.069694 32.908307 
L 155.16846 35.740455 
L 155.357012 49.541667 
L 155.761054 100.775961 
L 156.165095 139.828916 
L 156.290797 142.682854 
L 156.335691 142.403677 
L 156.434456 139.399403 
L 156.623009 125.317786 
L 157.045008 71.539839 
L 157.431092 35.327018 
L 157.556794 32.694217 
L 157.592708 32.926798 
L 157.691474 35.808332 
L 157.880027 49.690164 
L 158.284068 100.975791 
L 158.68811 139.894058 
L 158.813811 142.684665 
L 158.858705 142.3825 
L 158.957471 139.328985 
L 159.146023 125.167436 
L 159.568022 71.343196 
L 159.954106 35.264439 
L 160.079808 32.695102 
L 160.115723 32.946074 
L 160.214488 35.876953 
L 160.403041 49.839203 
L 160.816061 102.364837 
L 161.211124 139.958456 
L 161.336826 142.685692 
L 161.372741 142.480503 
L 161.471506 139.672516 
L 161.660059 125.910778 
L 162.0641 74.701772 
L 162.468142 35.583093 
L 162.602822 32.696767 
L 162.638737 32.966127 
L 162.737503 35.946308 
L 162.926056 49.988778 
L 163.339076 102.563096 
L 163.734138 140.022113 
L 163.85984 142.685941 
L 163.895755 142.462356 
L 163.994521 139.604966 
L 164.183073 125.762524 
L 164.587115 74.501861 
L 164.991156 35.517617 
L 165.116858 32.69603 
L 165.161752 32.986953 
L 165.260517 36.016393 
L 165.44907 50.138885 
L 165.871069 103.940618 
L 166.257153 140.085032 
L 166.382855 142.685415 
L 166.418769 142.443437 
L 166.517535 139.536685 
L 166.706088 125.613734 
L 167.119108 73.112154 
L 167.514171 35.452876 
L 167.639872 32.69464 
L 167.675787 32.89083 
L 167.765574 35.288114 
L 167.945148 47.669427 
L 168.304296 92.083564 
L 168.753231 138.921334 
L 168.905869 142.684116 
L 168.932805 142.530052 
L 169.022592 140.245053 
L 169.193187 128.885587 
L 169.534378 87.495358 
L 170.019228 36.201864 
L 170.162887 32.694022 
L 170.198802 32.90861 
L 170.297567 35.741842 
L 170.48612 49.544839 
L 170.890162 100.780338 
L 171.294203 139.830412 
L 171.419905 142.682972 
L 171.464798 142.403293 
L 171.563564 139.39794 
L 171.752117 125.31456 
L 172.174115 71.535535 
L 172.5602 35.325595 
L 172.685901 32.694176 
L 172.721816 32.927158 
L 172.820582 35.809771 
L 173.009134 49.69337 
L 173.422155 102.170705 
L 173.817217 139.895508 
L 173.942919 142.684735 
L 173.987813 142.382069 
L 174.086578 139.327479 
L 174.275131 125.164181 
L 174.69713 71.338907 
L 175.083214 35.263055 
L 175.208916 32.6951 
L 175.24483 32.946473 
L 175.343596 35.878428 
L 175.532149 49.842434 
L 175.945169 102.369162 
L 176.340232 139.959871 
L 176.465934 142.685728 
L 176.501848 142.480139 
L 176.600614 139.671074 
L 176.789167 125.907571 
L 177.193208 74.697414 
L 177.59725 35.581643 
L 177.73193 32.696795 
L 177.767845 32.966556 
L 177.866611 35.94781 
L 178.055163 49.992029 
L 178.468183 102.567413 
L 178.863246 140.023502 
L 178.988948 142.68595 
L 179.024863 142.461965 
L 179.123628 139.6035 
L 179.312181 125.7593 
L 179.716223 74.49751 
L 180.120264 35.516191 
L 180.245966 32.695982 
L 180.290859 32.987405 
L 180.389625 36.017917 
L 180.578178 50.142151 
L 181.000177 103.944899 
L 181.386261 140.0864 
L 181.511962 142.685402 
L 181.547877 142.443024 
L 181.646643 139.535198 
L 181.835196 125.610496 
L 182.248216 73.107834 
L 182.643278 35.451471 
L 182.76898 32.694613 
L 182.804895 32.891203 
L 182.894682 35.289468 
L 183.074256 47.672496 
L 183.433404 92.088029 
L 183.882339 138.922966 
L 184.034977 142.684083 
L 184.061913 142.529719 
L 184.1517 140.243737 
L 184.322295 128.882623 
L 184.663486 87.49088 
L 185.148335 36.200288 
L 185.291995 32.694014 
L 185.327909 32.909002 
L 185.426675 35.743309 
L 185.615228 49.548063 
L 186.019269 100.784688 
L 186.423311 139.831839 
L 186.549012 142.68302 
L 186.593906 142.402841 
L 186.692672 139.396417 
L 186.881224 125.311295 
L 187.303223 71.531254 
L 187.689307 35.324225 
L 187.815009 32.694186 
L 187.850924 32.927568 
L 187.949689 35.811256 
L 188.138242 49.696607 
L 188.551262 102.175026 
L 188.946325 139.896917 
L 189.072027 142.684766 
L 189.11692 142.381601 
L 189.215686 139.32594 
L 189.404239 125.160904 
L 189.826238 71.334631 
L 190.212322 35.261702 
L 190.338023 32.695128 
L 190.373938 32.946901 
L 190.472704 35.879928 
L 190.661257 49.845683 
L 191.074277 102.373477 
L 191.469339 139.961264 
L 191.595041 142.685742 
L 191.630956 142.479752 
L 191.729722 139.669612 
L 191.918274 125.904351 
L 192.322316 74.693062 
L 192.726357 35.580211 
L 192.861038 32.69684 
L 192.896953 32.967001 
L 192.995718 35.949327 
L 193.184271 49.995289 
L 193.597291 102.571724 
L 193.992354 140.024879 
L 194.118056 142.685947 
L 194.15397 142.461561 
L 194.252736 139.602022 
L 194.441289 125.756068 
L 194.84533 74.493163 
L 195.249372 35.514775 
L 195.375074 32.695944 
L 195.419967 32.987867 
L 195.518733 36.01945 
L 195.707285 50.145423 
L 196.129284 103.949177 
L 196.515368 140.087761 
L 196.64107 142.685382 
L 196.676985 142.442604 
L 196.775751 139.533704 
L 196.964303 125.607252 
L 197.377323 73.103517 
L 197.772386 35.45007 
L 197.898088 32.694592 
L 197.934003 32.891582 
L 198.02379 35.290827 
L 198.203364 47.675567 
L 198.562512 92.092492 
L 199.011447 138.924594 
L 199.164084 142.684046 
L 199.191021 142.529382 
L 199.280808 140.242417 
L 199.451403 128.879656 
L 199.792593 87.486402 
L 200.277443 36.198714 
L 200.421102 32.69401 
L 200.457017 32.909398 
L 200.555783 35.74478 
L 200.744335 49.551289 
L 201.148377 100.789037 
L 201.552418 139.833262 
L 201.67812 142.683067 
L 201.723014 142.402388 
L 201.821779 139.394891 
L 202.010332 125.308029 
L 202.432331 71.526974 
L 202.818415 35.322857 
L 202.944117 32.694198 
L 202.980032 32.92798 
L 203.078797 35.812742 
L 203.26735 49.699844 
L 203.68037 102.179345 
L 204.075433 139.898325 
L 204.201135 142.684796 
L 204.246028 142.38113 
L 204.344794 139.324398 
L 204.533346 125.157626 
L 204.955345 71.330356 
L 205.341429 35.26035 
L 205.467131 32.695157 
L 205.503046 32.94733 
L 205.601812 35.881431 
L 205.790364 49.848932 
L 206.203384 102.377793 
L 206.598447 139.962656 
L 206.724149 142.685754 
L 206.760064 142.479365 
L 206.858829 139.66815 
L 207.047382 125.901131 
L 207.451424 74.688712 
L 207.855465 35.578779 
L 207.990146 32.696886 
L 208.02606 32.967446 
L 208.124826 35.950845 
L 208.313379 49.99855 
L 208.726399 102.576034 
L 209.121462 140.026255 
L 209.247163 142.685943 
L 209.283078 142.461157 
L 209.381844 139.600543 
L 209.570397 125.752836 
L 209.974438 74.488816 
L 210.378479 35.51336 
L 210.504181 32.695906 
L 210.549075 32.988329 
L 210.64784 36.020984 
L 210.836393 50.148695 
L 211.258392 103.953455 
L 211.644476 140.089121 
L 211.770178 142.685361 
L 211.806093 142.442183 
L 211.904858 139.53221 
L 212.093411 125.604009 
L 212.506431 73.099199 
L 212.901494 35.448671 
L 213.027196 32.694571 
L 213.06311 32.891962 
L 213.152897 35.292187 
L 213.332471 47.678639 
L 213.691619 92.096955 
L 214.140554 138.926221 
L 214.293192 142.684009 
L 214.320128 142.529044 
L 214.409915 140.241097 
L 214.580511 128.876688 
L 214.921701 87.481924 
L 215.406551 36.197142 
L 215.55021 32.694006 
L 215.586125 32.909794 
L 215.68489 35.74625 
L 215.873443 49.554515 
L 216.277485 100.793386 
L 216.681526 139.834686 
L 216.807228 142.683113 
L 216.852121 142.401933 
L 216.950887 139.393365 
L 217.13944 125.304763 
L 217.561439 71.522694 
L 217.947523 35.321489 
L 218.073224 32.694211 
L 218.109139 32.928393 
L 218.207905 35.814228 
L 218.396458 49.703082 
L 218.809478 102.183665 
L 219.20454 139.899732 
L 219.330242 142.684825 
L 219.375136 142.380659 
L 219.473901 139.322857 
L 219.662454 125.154348 
L 220.084453 71.326081 
L 220.470537 35.258998 
L 220.596239 32.695186 
L 220.632154 32.947759 
L 220.730919 35.882933 
L 220.919472 49.852181 
L 221.332492 102.382108 
L 221.727555 139.964047 
L 221.853257 142.685767 
L 221.889171 142.478977 
L 221.987937 139.666687 
L 222.17649 125.89791 
L 222.580531 74.684361 
L 222.984573 35.577348 
L 223.119253 32.696932 
L 223.155168 32.967893 
L 223.253934 35.952363 
L 223.442486 50.00181 
L 223.864485 103.761008 
L 224.250569 140.02763 
L 224.376271 142.685938 
L 224.412186 142.460753 
L 224.510952 139.599064 
L 224.699504 125.749604 
L 225.103546 74.484469 
L 225.507587 35.511945 
L 225.633289 32.695869 
L 225.678182 32.988792 
L 225.776948 36.022518 
L 225.965501 50.151967 
L 226.3875 103.957732 
L 226.773584 140.09048 
L 226.899285 142.68534 
L 226.9352 142.441761 
L 227.033966 139.530715 
L 227.222519 125.600765 
L 227.635539 73.094882 
L 228.030602 35.447272 
L 228.156303 32.69455 
L 228.192218 32.892341 
L 228.282005 35.293547 
L 228.461579 47.681711 
L 228.820727 92.101419 
L 229.269662 138.927848 
L 229.4223 142.683971 
L 229.449236 142.528706 
L 229.539023 140.239777 
L 229.709618 128.873721 
L 230.050809 87.477446 
L 230.535659 36.195569 
L 230.679318 32.694002 
L 230.715233 32.91019 
L 230.813998 35.747722 
L 231.002551 49.557742 
L 231.406592 100.797735 
L 231.810634 139.836109 
L 231.936336 142.683158 
L 231.981229 142.401479 
L 232.079995 139.391839 
L 232.268547 125.301496 
L 232.690546 71.518414 
L 233.07663 35.320122 
L 233.202332 32.694224 
L 233.238247 32.928806 
L 233.337013 35.815715 
L 233.525565 49.70632 
L 233.938585 102.187984 
L 234.333648 139.901139 
L 234.45935 142.684853 
L 234.504243 142.380188 
L 234.603009 139.321315 
L 234.791562 125.15107 
L 235.213561 71.321806 
L 235.599645 35.257647 
L 235.725347 32.695216 
L 235.761261 32.948189 
L 235.860027 35.884436 
L 236.04858 49.855431 
L 236.4616 102.386423 
L 236.856663 139.965438 
L 236.982364 142.685779 
L 237.018279 142.478588 
L 237.117045 139.665223 
L 237.305598 125.89469 
L 237.709639 74.68001 
L 238.11368 35.575918 
L 238.248361 32.696978 
L 238.284276 32.968339 
L 238.383041 35.953882 
L 238.571594 50.005072 
L 238.993593 103.76529 
L 239.379677 140.029006 
L 239.505379 142.685934 
L 239.541294 142.460348 
L 239.640059 139.597585 
L 239.828612 125.746372 
L 240.232653 74.480123 
L 240.636695 35.51053 
L 240.762397 32.695832 
L 240.80729 32.989255 
L 240.906056 36.024052 
L 241.094608 50.15524 
L 241.516607 103.96201 
L 241.902691 140.09184 
L 242.028393 142.685318 
L 242.064308 142.44134 
L 242.163074 139.52922 
L 242.351626 125.597521 
L 242.764646 73.090565 
L 243.159709 35.445873 
L 243.285411 32.69453 
L 243.321326 32.892722 
L 243.411113 35.294908 
L 243.590687 47.684784 
L 243.949835 92.105882 
L 244.39877 138.929475 
L 244.551408 142.683932 
L 244.578344 142.528367 
L 244.668131 140.238456 
L 244.838726 128.870753 
L 245.179916 87.472969 
L 245.664766 36.193997 
L 245.808425 32.693998 
L 245.84434 32.910587 
L 245.943106 35.749193 
L 246.131659 49.560968 
L 246.5357 100.802083 
L 246.939741 139.837531 
L 247.065443 142.683203 
L 247.110337 142.401024 
L 247.209102 139.390313 
L 247.397655 125.298229 
L 247.819654 71.514134 
L 248.205738 35.318755 
L 248.33144 32.694237 
L 248.367355 32.92922 
L 248.46612 35.817203 
L 248.654673 49.709559 
L 249.067693 102.192304 
L 249.462756 139.902546 
L 249.588458 142.684882 
L 249.633351 142.379716 
L 249.741096 138.883016 
L 249.938627 123.309056 
L 250.854454 32.695246 
L 250.899348 33.080578 
L 251.007092 36.7637 
L 251.213602 53.577612 
L 252.111472 142.68579 
L 252.138408 142.571333 
L 252.219216 140.752653 
L 252.380833 130.842755 
L 252.695088 94.222731 
L 253.224831 36.412376 
L 253.377469 32.697025 
L 253.404405 32.85964 
L 253.494192 35.172612 
L 253.575 39.498628 
L 253.575 39.498628 
" clip-path="url(#pf008c7004a)" style="fill: none; stroke: #000000; stroke-width: 1.5; stroke-linecap: square"/>
   </g>
   <g id="line2d_8">
    <path d="M 74.01 84.240848 
L 74.21651 84.718257 
L 74.414041 85.122176 
L 74.638509 86.274349 
L 75.482507 91.495754 
L 75.509443 91.485521 
L 75.617187 91.271068 
L 75.80574 90.263786 
L 76.182845 86.700208 
L 76.604844 83.459185 
L 76.748503 83.230572 
L 76.775439 83.251189 
L 76.892162 83.574532 
L 77.098672 85.005261 
L 77.996542 92.830903 
L 78.041436 92.788266 
L 78.158159 92.3742 
L 78.373648 90.565193 
L 79.244581 81.777459 
L 79.271518 81.791428 
L 79.370283 82.073513 
L 79.549857 83.468618 
L 79.900027 88.428537 
L 80.366919 94.123043 
L 80.501599 94.485272 
L 80.537514 94.452778 
L 80.645259 94.025218 
L 80.84279 92.045424 
L 81.273767 84.699778 
L 81.641894 80.180795 
L 81.758617 79.88484 
L 81.794532 79.927009 
L 81.902276 80.432446 
L 82.099808 82.728915 
L 82.539764 91.353025 
L 82.898912 96.325612 
L 83.006656 96.649838 
L 83.05155 96.593777 
L 83.159294 95.997294 
L 83.356826 93.336159 
L 83.814739 83.029099 
L 84.164908 77.712352 
L 84.263674 77.41631 
L 84.308568 77.488504 
L 84.416312 78.191041 
L 84.613843 81.270796 
L 85.080736 93.319486 
L 85.421926 99.134327 
L 85.520692 99.453934 
L 85.565586 99.362268 
L 85.682309 98.430141 
L 85.888819 94.542444 
L 86.768731 74.24079 
L 86.804646 74.291776 
L 86.903412 74.993665 
L 87.082986 78.260483 
L 87.442134 89.91535 
L 87.891069 102.191239 
L 88.025749 103.030573 
L 88.061664 102.963249 
L 88.16043 102.137963 
L 88.348982 98.117259 
L 88.735066 83.598962 
L 89.148086 71.159538 
L 89.282767 70.242077 
L 89.318682 70.328884 
L 89.417447 71.294992 
L 89.606 75.910938 
L 89.992084 92.431014 
L 90.405104 106.464664 
L 90.530806 107.46564 
L 90.5757 107.353618 
L 90.683444 106.067422 
L 90.880975 100.261155 
L 91.32991 78.14975 
L 91.689058 66.049937 
L 91.787824 65.375416 
L 91.832717 65.517155 
L 91.940462 67.003619 
L 92.137993 73.602807 
L 92.604885 99.483571 
L 92.946076 112.011134 
L 93.044842 112.732648 
L 93.089735 112.55727 
L 93.19748 110.852062 
L 93.395011 103.398513 
L 93.879861 73.364953 
L 94.212073 60.396472 
L 94.30186 59.767588 
L 94.346753 59.979972 
L 94.454497 61.918994 
L 94.661008 70.781193 
L 95.549899 118.592516 
L 95.594792 118.418962 
L 95.693558 116.670527 
L 95.882111 108.487427 
L 96.286152 78.194143 
L 96.681215 55.455601 
L 96.806917 53.779965 
L 96.842831 53.910548 
L 96.941597 55.675032 
L 97.13015 64.380769 
L 97.516234 95.74418 
L 97.929254 122.509075 
L 98.063934 124.555167 
L 98.099849 124.402496 
L 98.198615 122.457821 
L 98.387168 112.969498 
L 98.78223 78.153719 
L 99.195251 49.896095 
L 99.320952 48.00288 
L 99.356867 48.175057 
L 99.455633 50.286835 
L 99.644185 60.509444 
L 100.039248 97.834872 
L 100.44329 127.692156 
L 100.57797 129.993267 
L 100.613885 129.805846 
L 100.712651 127.547455 
L 100.901203 116.662258 
L 101.296266 77.051568 
L 101.700308 45.462763 
L 101.834988 43.031429 
L 101.870903 43.228381 
L 101.969668 45.606905 
L 102.158221 57.065236 
L 102.562263 99.691948 
L 102.966304 132.174894 
L 103.092006 134.409996 
L 103.127921 134.210229 
L 103.226686 131.741893 
L 103.415239 119.810206 
L 103.81928 75.41544 
L 104.223322 41.570939 
L 104.349024 39.212086 
L 104.384938 39.407497 
L 104.483704 41.933902 
L 104.672257 54.236536 
L 105.076298 100.102564 
L 105.48034 135.143304 
L 105.606042 137.632046 
L 105.641956 137.448084 
L 105.731743 135.24866 
L 105.911317 123.903526 
L 106.270465 83.087245 
L 106.7194 39.949778 
L 106.863059 36.553355 
L 106.898974 36.719275 
L 106.988761 38.914512 
L 107.168335 50.418149 
L 107.527483 92.031253 
L 107.985397 136.630529 
L 108.129056 139.787339 
L 108.155992 139.641625 
L 108.245779 137.47287 
L 108.416374 126.669021 
L 108.757565 87.191889 
L 109.242415 38.153476 
L 109.386074 34.830184 
L 109.421989 35.049331 
L 109.520754 37.812275 
L 109.709307 51.180851 
L 110.113348 100.744549 
L 110.51739 138.451216 
L 110.643092 141.144891 
L 110.679006 140.957424 
L 110.768793 138.631942 
L 110.948367 126.58102 
L 111.307515 83.241219 
L 111.75645 37.443876 
L 111.909088 33.773897 
L 111.936024 33.928615 
L 112.025811 36.18319 
L 112.196407 47.361133 
L 112.537597 88.085439 
L 113.022447 138.546108 
L 113.166106 141.964921 
L 113.202021 141.7419 
L 113.300787 138.913232 
L 113.489339 125.220998 
L 113.893381 74.495798 
L 114.297422 35.917447 
L 114.423124 33.142939 
L 114.468017 33.440543 
L 114.566783 36.466693 
L 114.755336 50.522217 
L 115.177335 104.010106 
L 115.563419 139.894152 
L 115.68912 142.445975 
L 115.725035 142.194064 
L 115.823801 139.269057 
L 116.012354 125.346267 
L 116.425374 72.965239 
L 116.820437 35.480956 
L 116.946138 32.773963 
L 116.982053 32.983706 
L 117.080819 35.801697 
L 117.269371 49.573959 
L 117.673413 100.77964 
L 118.077454 139.860254 
L 118.203156 142.723467 
L 118.24805 142.446556 
L 118.346815 139.444489 
L 118.535368 125.35382 
L 118.957367 71.494648 
L 119.343451 35.202526 
L 119.469153 32.561937 
L 119.505068 32.794732 
L 119.603833 35.682879 
L 119.792386 49.60191 
L 120.196427 101.042906 
L 120.600469 140.088216 
L 120.726171 142.886168 
L 120.771064 142.581778 
L 120.86983 139.514182 
L 121.058382 125.29272 
L 121.480381 71.242538 
L 121.866465 35.016527 
L 121.992167 32.441505 
L 122.028082 32.695468 
L 122.126848 35.645138 
L 122.3154 49.682876 
L 122.72842 102.475143 
L 123.123483 140.245862 
L 123.249185 142.978996 
L 123.2851 142.770174 
L 123.383865 139.940135 
L 123.572418 126.091594 
L 123.97646 74.588204 
L 124.380501 35.266107 
L 124.515182 32.374098 
L 124.551096 32.64812 
L 124.649862 35.65426 
L 124.838415 49.794385 
L 125.260414 103.884476 
L 125.646498 140.36281 
L 125.772199 143.031431 
L 125.808114 142.80296 
L 125.90688 139.91812 
L 126.095433 125.972147 
L 126.499474 74.371637 
L 126.903515 35.16039 
L 127.029217 32.333199 
L 127.074111 32.630774 
L 127.172876 35.690444 
L 127.361429 49.923493 
L 127.783428 104.095857 
L 128.169512 140.456183 
L 128.295214 143.060481 
L 128.331129 142.812833 
L 128.429894 139.87538 
L 128.618447 125.839109 
L 129.031467 72.963748 
L 129.42653 35.07263 
L 129.552232 32.309506 
L 129.588146 32.511262 
L 129.677933 34.935647 
L 129.857507 47.422034 
L 130.216655 92.164465 
L 130.66559 139.304237 
L 130.818228 143.075885 
L 130.845164 142.917479 
L 130.934951 140.605537 
L 131.105547 129.146945 
L 131.446737 87.44328 
L 131.931587 35.812198 
L 132.075246 32.296311 
L 132.111161 32.516873 
L 132.209926 35.382505 
L 132.398479 49.305025 
L 132.802521 100.925371 
L 133.206562 140.227326 
L 133.332264 143.085258 
L 133.377157 142.797915 
L 133.475923 139.758534 
L 133.664476 125.552456 
L 134.086475 71.367562 
L 134.472559 34.924514 
L 134.59826 32.289417 
L 134.634175 32.528667 
L 134.732941 35.444743 
L 134.921494 49.450665 
L 135.334514 102.327819 
L 135.729576 140.298247 
L 135.855278 143.092307 
L 135.891193 142.899134 
L 135.98098 140.495034 
L 136.160554 128.041039 
L 136.519702 83.312868 
L 136.968637 36.095664 
L 137.121275 32.286434 
L 137.148211 32.438316 
L 137.237998 34.729428 
L 137.408593 46.155191 
L 137.749784 87.836961 
L 138.234633 139.544898 
L 138.378293 143.096214 
L 138.414207 142.884438 
L 138.512973 140.041909 
L 138.701526 126.155207 
L 139.105567 74.549338 
L 139.509609 35.175199 
L 139.644289 32.286008 
L 139.680204 32.562453 
L 139.77897 35.578523 
L 139.967522 49.748181 
L 140.389521 103.918688 
L 140.775605 140.431749 
L 140.901307 143.098 
L 140.937222 142.867654 
L 141.035988 139.975192 
L 141.22454 126.006691 
L 141.628582 74.347465 
L 142.032623 35.108101 
L 142.158325 32.282889 
L 142.203218 32.582363 
L 142.301984 35.648183 
L 142.490537 49.898823 
L 142.912536 104.117295 
L 143.29862 140.495945 
L 143.424321 143.098249 
L 143.460236 142.84935 
L 143.559002 139.907069 
L 143.747555 125.857199 
L 144.160575 72.947396 
L 144.555638 35.042319 
L 144.681339 32.280953 
L 144.717254 32.483729 
L 144.807041 34.911557 
L 144.986615 47.407825 
L 145.345763 92.173703 
L 145.794698 139.327484 
L 145.947336 143.097289 
L 145.974272 142.938229 
L 146.064059 140.623487 
L 146.234654 129.157515 
L 146.575845 87.436587 
L 147.060695 35.794297 
L 147.204354 32.28012 
L 147.240269 32.501441 
L 147.339034 35.369739 
L 147.527587 49.299066 
L 147.931628 100.93454 
L 148.33567 140.241115 
L 148.461372 143.097523 
L 148.506265 142.809339 
L 148.605031 139.767651 
L 148.793583 125.555977 
L 149.215582 71.359105 
L 149.601666 34.913813 
L 149.727368 32.280248 
L 149.763283 32.520106 
L 149.862049 35.43817 
L 150.050601 49.448728 
L 150.463621 102.335073 
L 150.858684 140.306681 
L 150.984386 143.099267 
L 151.020301 142.905541 
L 151.110088 140.499859 
L 151.289662 128.042161 
L 151.64881 83.307229 
L 152.097745 36.088773 
L 152.250383 32.281257 
L 152.277319 32.433526 
L 152.367106 34.726066 
L 152.537701 46.154876 
L 152.878891 87.841994 
L 153.363741 139.550449 
L 153.5074 143.100155 
L 153.543315 142.887891 
L 153.642081 140.043896 
L 153.830634 126.154202 
L 154.234675 74.543799 
L 154.638716 35.170761 
L 154.773397 32.283102 
L 154.809312 32.560019 
L 154.908077 35.577465 
L 155.09663 49.74981 
L 155.518629 103.924004 
L 155.904713 140.435395 
L 156.030415 143.100223 
L 156.06633 142.869424 
L 156.165095 139.975661 
L 156.353648 126.004699 
L 156.757689 74.342423 
L 157.161731 35.104975 
L 157.287433 32.281171 
L 157.332326 32.581196 
L 157.431092 35.648264 
L 157.619644 49.901186 
L 158.041643 104.122177 
L 158.427727 140.498597 
L 158.553429 143.099489 
L 158.589344 142.850159 
L 158.68811 139.906671 
L 158.876662 125.854644 
L 159.289682 72.942645 
L 159.684745 35.039945 
L 159.810447 32.279981 
L 159.846362 32.483181 
L 159.936149 34.912078 
L 160.115723 47.410344 
L 160.474871 92.178359 
L 160.923806 139.329843 
L 161.076444 143.097965 
L 161.10338 142.93859 
L 161.193167 140.622798 
L 161.363762 129.154976 
L 161.704952 87.432002 
L 162.189802 35.79217 
L 162.333461 32.279578 
L 162.369376 32.501314 
L 162.468142 35.370748 
L 162.656695 49.302011 
L 163.060736 100.939081 
L 163.464777 140.242959 
L 163.590479 143.097974 
L 163.635373 142.809275 
L 163.734138 139.766466 
L 163.922691 125.552911 
L 164.34469 71.354655 
L 164.730774 34.912126 
L 164.856476 32.279958 
L 164.892391 32.520226 
L 164.991156 35.439402 
L 165.179709 49.451819 
L 165.592729 102.339521 
L 165.987792 140.30833 
L 166.113494 143.099524 
L 166.149408 142.90539 
L 166.239195 140.4987 
L 166.418769 128.03921 
L 166.777917 83.302694 
L 167.226852 36.086954 
L 167.37949 32.281117 
L 167.406426 32.433691 
L 167.496213 34.727235 
L 167.666809 46.157752 
L 168.007999 87.846523 
L 168.492849 139.55217 
L 168.636508 143.100295 
L 168.672423 142.887625 
L 168.771189 140.042534 
L 168.959741 126.15103 
L 169.363783 74.539377 
L 169.767824 35.169222 
L 169.902505 32.283054 
L 169.938419 32.560376 
L 170.037185 35.578912 
L 170.225738 49.753043 
L 170.647737 103.928351 
L 171.033821 140.436853 
L 171.159522 143.100289 
L 171.195437 142.869085 
L 171.294203 139.974233 
L 171.482756 126.001482 
L 171.886797 74.338022 
L 172.290839 35.103496 
L 172.41654 32.281081 
L 172.461434 32.581612 
L 172.5602 35.649765 
L 172.748752 49.904454 
L 173.170751 104.126505 
L 173.556835 140.500006 
L 173.682537 143.099506 
L 173.718452 142.849772 
L 173.817217 139.905199 
L 174.00577 125.851397 
L 174.41879 72.938283 
L 174.813853 35.038506 
L 174.939555 32.279932 
L 174.97547 32.483537 
L 175.065257 34.913424 
L 175.24483 47.413422 
L 175.603978 92.182861 
L 176.052913 139.331503 
L 176.205551 143.097947 
L 176.232487 142.938269 
L 176.322274 140.621486 
L 176.49287 129.151999 
L 176.83406 87.427488 
L 177.31891 35.790572 
L 177.462569 32.27956 
L 177.498484 32.5017 
L 177.59725 35.372218 
L 177.785802 49.305255 
L 178.189844 100.943467 
L 178.593885 140.244403 
L 178.719587 143.098029 
L 178.76448 142.808826 
L 178.863246 139.764936 
L 179.051799 125.549624 
L 179.473798 71.35034 
L 179.859882 34.910742 
L 179.985584 32.279964 
L 180.021498 32.520636 
L 180.120264 35.440895 
L 180.308817 49.455078 
L 180.721837 102.343876 
L 181.1169 140.309752 
L 181.242601 143.099557 
L 181.278516 142.905019 
L 181.368303 140.497341 
L 181.547877 128.036122 
L 181.907025 83.298195 
L 182.35596 36.085305 
L 182.508598 32.281145 
L 182.535534 32.434022 
L 182.625321 34.728556 
L 182.795916 46.160735 
L 183.137107 87.851035 
L 183.621957 139.553763 
L 183.765616 143.100308 
L 183.801531 142.887234 
L 183.900296 140.041059 
L 184.088849 126.147784 
L 184.49289 74.534993 
L 184.896932 35.167781 
L 185.031612 32.283101 
L 185.067527 32.560827 
L 185.166293 35.580443 
L 185.354845 49.756329 
L 185.776844 103.932666 
L 186.162928 140.438238 
L 186.28863 143.100283 
L 186.324545 142.868676 
L 186.423311 139.972741 
L 186.611863 125.998224 
L 187.015905 74.333643 
L 187.419946 35.102072 
L 187.545648 32.281046 
L 187.590542 32.58208 
L 187.689307 35.651312 
L 187.87786 49.907753 
L 188.299859 104.130814 
L 188.685943 140.501373 
L 188.811645 143.099482 
L 188.847559 142.849344 
L 188.946325 139.90369 
L 189.134878 125.848126 
L 189.547898 72.933934 
L 189.942961 35.0371 
L 190.068662 32.279915 
L 190.104577 32.483922 
L 190.194364 34.914798 
L 190.373938 47.41652 
L 190.733086 92.187358 
L 191.182021 139.333139 
L 191.334659 143.097905 
L 191.361595 142.937925 
L 191.451382 140.620152 
L 191.621977 129.149006 
L 191.963168 87.422977 
L 192.448018 35.788991 
L 192.591677 32.27956 
L 192.627592 32.502103 
L 192.726357 35.373704 
L 192.91491 49.308508 
L 193.318951 100.947848 
L 193.722993 140.245833 
L 193.848695 143.098071 
L 193.893588 142.808364 
L 193.992354 139.763395 
L 194.180907 125.54633 
L 194.602905 71.346029 
L 194.988989 34.909368 
L 195.114691 32.279982 
L 195.150606 32.521056 
L 195.249372 35.442397 
L 195.437924 49.458343 
L 195.850945 102.348227 
L 196.246007 140.311165 
L 196.371709 143.099582 
L 196.407624 142.904641 
L 196.497411 140.495974 
L 196.676985 128.03303 
L 197.036133 83.293698 
L 197.485068 36.083661 
L 197.637706 32.281179 
L 197.664642 32.434358 
L 197.754429 34.729882 
L 197.925024 46.163721 
L 198.266215 87.855546 
L 198.751064 139.555351 
L 198.894723 143.100316 
L 198.930638 142.886839 
L 199.029404 140.039581 
L 199.217957 126.144536 
L 199.621998 74.530611 
L 200.02604 35.166344 
L 200.151741 32.282903 
L 200.196635 32.561281 
L 200.295401 35.581977 
L 200.483953 49.759618 
L 200.905952 103.936979 
L 201.292036 140.439619 
L 201.417738 143.100274 
L 201.453653 142.868263 
L 201.552418 139.971246 
L 201.740971 125.994964 
L 202.145013 74.329264 
L 202.549054 35.100651 
L 202.674756 32.281013 
L 202.719649 32.582551 
L 202.818415 35.652862 
L 203.006968 49.911053 
L 203.428966 104.135122 
L 203.815051 140.502738 
L 203.940752 143.099456 
L 203.976667 142.848915 
L 204.075433 139.90218 
L 204.263985 125.844855 
L 204.677006 72.929585 
L 205.072068 35.035694 
L 205.19777 32.279899 
L 205.233685 32.48431 
L 205.323472 34.916172 
L 205.503046 47.419619 
L 205.862194 92.191854 
L 206.311129 139.334774 
L 206.463767 143.097862 
L 206.490703 142.93758 
L 206.58049 140.618817 
L 206.760064 128.313134 
L 207.119212 83.702754 
L 207.577125 35.787411 
L 207.720785 32.279561 
L 207.756699 32.502507 
L 207.855465 35.375191 
L 208.044018 49.311762 
L 208.448059 100.952228 
L 208.852101 140.247262 
L 208.977802 143.098112 
L 209.022696 142.807902 
L 209.121462 139.761853 
L 209.310014 125.543036 
L 209.732013 71.341718 
L 210.118097 34.907995 
L 210.243799 32.279999 
L 210.279714 32.521477 
L 210.378479 35.443899 
L 210.567032 49.461609 
L 210.980052 102.352577 
L 211.375115 140.312579 
L 211.500817 143.099606 
L 211.536732 142.904262 
L 211.626519 140.494607 
L 211.806093 128.029937 
L 212.165241 83.2892 
L 212.614175 36.082019 
L 212.766813 32.281214 
L 212.793749 32.434695 
L 212.883536 34.731209 
L 213.054132 46.166709 
L 213.395322 87.860058 
L 213.880172 139.556939 
L 214.023831 143.100323 
L 214.059746 142.886443 
L 214.158512 140.038102 
L 214.347064 126.141288 
L 214.751106 74.526228 
L 215.155147 35.164907 
L 215.280849 32.282853 
L 215.325743 32.561735 
L 215.424508 35.583511 
L 215.613061 49.762907 
L 216.03506 103.941292 
L 216.421144 140.441 
L 216.546846 143.100264 
L 216.58276 142.867851 
L 216.681526 139.969752 
L 216.870079 125.991704 
L 217.27412 74.324886 
L 217.678162 35.09923 
L 217.803863 32.28098 
L 217.848757 32.583023 
L 217.947523 35.654413 
L 218.136075 49.914354 
L 218.558074 104.13943 
L 218.944158 140.504103 
L 219.06986 143.09943 
L 219.105775 142.848486 
L 219.20454 139.900669 
L 219.393093 125.841583 
L 219.806113 72.925237 
L 220.201176 35.034289 
L 220.326878 32.279883 
L 220.362793 32.484697 
L 220.45258 34.917548 
L 220.632154 47.422718 
L 220.991302 92.196351 
L 221.440237 139.336408 
L 221.592874 143.097819 
L 221.61981 142.937234 
L 221.709597 140.617482 
L 221.889171 128.310065 
L 222.248319 83.698254 
L 222.706233 35.785831 
L 222.849892 32.279562 
L 222.885807 32.502911 
L 222.984573 35.376678 
L 223.173125 49.315017 
L 223.577167 100.956609 
L 223.981208 140.248691 
L 224.10691 143.098153 
L 224.151804 142.807438 
L 224.250569 139.76031 
L 224.439122 125.539741 
L 224.861121 71.337407 
L 225.247205 34.906622 
L 225.372907 32.280017 
L 225.408821 32.521898 
L 225.507587 35.445402 
L 225.69614 49.464875 
L 226.10916 102.356928 
L 226.504223 140.313991 
L 226.629924 143.09963 
L 226.665839 142.903882 
L 226.755626 140.49324 
L 226.9352 128.026844 
L 227.294348 83.284703 
L 227.743283 36.080376 
L 227.895921 32.281249 
L 227.922857 32.435033 
L 228.012644 34.732537 
L 228.183239 46.169696 
L 228.52443 87.864569 
L 229.00928 139.558526 
L 229.152939 143.10033 
L 229.188854 142.886047 
L 229.287619 140.036623 
L 229.476172 126.138039 
L 229.880214 74.521846 
L 230.284255 35.16347 
L 230.409957 32.282804 
L 230.45485 32.56219 
L 230.553616 35.585046 
L 230.742169 49.766196 
L 231.164167 103.945605 
L 231.550252 140.442381 
L 231.675953 143.100255 
L 231.711868 142.867438 
L 231.810634 139.968256 
L 231.999186 125.988443 
L 232.403228 74.320508 
L 232.807269 35.097809 
L 232.932971 32.280948 
L 232.977865 32.583494 
L 233.07663 35.655963 
L 233.265183 49.917655 
L 233.687182 104.143739 
L 234.073266 140.505468 
L 234.198968 143.099403 
L 234.234882 142.848056 
L 234.333648 139.899158 
L 234.522201 125.838311 
L 234.935221 72.920888 
L 235.330284 35.032885 
L 235.455986 32.279868 
L 235.4919 32.485085 
L 235.581687 34.918923 
L 235.761261 47.425817 
L 236.120409 92.200848 
L 236.569344 139.338042 
L 236.721982 143.097775 
L 236.748918 142.936888 
L 236.838705 140.616147 
L 237.018279 128.306997 
L 237.377427 83.693754 
L 237.835341 35.784252 
L 237.979 32.279564 
L 238.014915 32.503316 
L 238.11368 35.378165 
L 238.302233 49.318271 
L 238.706275 100.960989 
L 239.110316 140.250119 
L 239.236018 143.098193 
L 239.280911 142.806975 
L 239.379677 139.758767 
L 239.56823 125.536446 
L 239.990229 71.333097 
L 240.376313 34.905249 
L 240.502014 32.280036 
L 240.537929 32.52232 
L 240.636695 35.446906 
L 240.825248 49.468141 
L 241.238268 102.361279 
L 241.63333 140.315404 
L 241.759032 143.099653 
L 241.794947 142.903503 
L 241.884734 140.491872 
L 242.064308 128.023751 
L 242.423456 83.280206 
L 242.872391 36.078735 
L 243.025029 32.281284 
L 243.051965 32.435371 
L 243.141752 34.733864 
L 243.312347 46.172684 
L 243.653538 87.869081 
L 244.138387 139.560113 
L 244.282047 143.100337 
L 244.317961 142.88565 
L 244.416727 140.035143 
L 244.60528 126.134791 
L 245.009321 74.517464 
L 245.413363 35.162034 
L 245.539064 32.282756 
L 245.583958 32.562645 
L 245.682724 35.586581 
L 245.871276 49.769486 
L 246.293275 103.949918 
L 246.679359 140.443761 
L 246.805061 143.100244 
L 246.840976 142.867024 
L 246.939741 139.966761 
L 247.128294 125.985183 
L 247.532336 74.316129 
L 247.936377 35.096389 
L 248.062079 32.280916 
L 248.106972 32.583966 
L 248.205738 35.657514 
L 248.394291 49.920956 
L 248.81629 104.148047 
L 249.202374 140.506832 
L 249.328075 143.099376 
L 249.36399 142.847626 
L 249.462756 139.897646 
L 249.651309 125.835039 
L 250.064329 72.91654 
L 250.459391 35.03148 
L 250.585093 32.279853 
L 250.621008 32.485474 
L 250.710795 34.920299 
L 250.890369 47.428917 
L 251.249517 92.205344 
L 251.698452 139.339676 
L 251.85109 143.097731 
L 251.878026 142.936541 
L 251.967813 140.614811 
L 252.147387 128.303928 
L 252.506535 83.689254 
L 252.964448 35.782673 
L 253.108108 32.279566 
L 253.144022 32.503721 
L 253.242788 35.379653 
L 253.431341 49.321526 
L 253.575 65.760888 
L 253.575 65.760888 
" clip-path="url(#pf008c7004a)" style="fill: none; stroke: #808080; stroke-width: 1.5; stroke-linecap: square"/>
   </g>
   <g id="line2d_9">
    <path d="M 74.01 85.615095 
L 74.207531 84.813872 
L 74.28834 84.926458 
L 74.449956 85.704103 
L 74.818083 88.94541 
L 75.213146 91.627427 
L 75.338847 91.778571 
L 75.365784 91.756066 
L 75.482507 91.433532 
L 75.689017 90.042413 
L 76.568929 82.775344 
L 76.604844 82.803568 
L 76.721567 83.170808 
L 76.928077 84.769541 
L 77.816968 93.385674 
L 77.861862 93.345835 
L 77.978585 92.905805 
L 78.185095 91.037543 
L 79.073986 81.134306 
L 79.109901 81.168373 
L 79.217645 81.588925 
L 79.415177 83.511942 
L 79.855133 90.757165 
L 80.22326 94.992591 
L 80.331004 95.225118 
L 80.366919 95.181314 
L 80.474663 94.684144 
L 80.672195 92.452099 
L 81.12113 83.945642 
L 81.480278 79.28657 
L 81.579043 79.032299 
L 81.623937 79.090925 
L 81.731681 79.677904 
L 81.929212 82.266577 
L 82.396105 92.429072 
L 82.737295 97.352255 
L 82.836061 97.62752 
L 82.880955 97.552509 
L 82.988699 96.860586 
L 83.18623 93.861231 
L 83.67108 81.76221 
L 84.003292 76.536749 
L 84.093079 76.295273 
L 84.137972 76.390108 
L 84.254695 77.308648 
L 84.461206 81.099168 
L 85.341118 100.741732 
L 85.377033 100.686606 
L 85.475799 99.989875 
L 85.664351 96.574655 
L 86.041457 84.511296 
L 86.463455 73.560676 
L 86.598136 72.768222 
L 86.634051 72.840361 
L 86.732816 73.661536 
L 86.921369 77.605879 
L 87.307453 91.770072 
L 87.720473 103.845124 
L 87.846175 104.713343 
L 87.891069 104.619219 
L 87.989834 103.654769 
L 88.178387 99.111127 
L 88.57345 82.537366 
L 88.977491 69.271245 
L 89.103193 68.322602 
L 89.139108 68.400111 
L 89.237873 69.421291 
L 89.417447 74.137099 
L 89.776595 90.891215 
L 90.22553 108.460417 
L 90.360211 109.646015 
L 90.396126 109.545379 
L 90.494891 108.353574 
L 90.683444 102.589661 
L 91.069528 81.868253 
L 91.482548 64.196024 
L 91.60825 62.908198 
L 91.653143 63.036223 
L 91.751909 64.418468 
L 91.940462 70.979348 
L 92.335525 94.936761 
L 92.739566 114.119586 
L 92.865268 115.51447 
L 92.901183 115.412735 
L 92.99097 114.174742 
L 93.170544 107.715723 
L 93.520713 84.724992 
L 93.987605 58.37226 
L 94.122286 56.649315 
L 94.1582 56.778416 
L 94.256966 58.423632 
L 94.445519 66.47444 
L 94.831603 95.466937 
L 95.244623 120.210024 
L 95.379303 122.0603 
L 95.415218 121.901688 
L 95.513984 120.039472 
L 95.702537 111.073069 
L 96.097599 78.251243 
L 96.501641 51.930155 
L 96.636321 49.953641 
L 96.672236 50.142672 
L 96.771002 52.225128 
L 96.959554 62.113464 
L 97.354617 98.037978 
L 97.758659 126.638629 
L 97.88436 128.74297 
L 97.929254 128.521438 
L 98.02802 126.223765 
L 98.216572 115.435969 
L 98.620614 75.566485 
L 99.015677 45.694956 
L 99.141378 43.463296 
L 99.177293 43.619651 
L 99.26708 45.56302 
L 99.446654 55.693717 
L 99.796823 91.493129 
L 100.263716 132.164982 
L 100.398396 134.864719 
L 100.434311 134.692108 
L 100.524098 132.607626 
L 100.703672 121.803576 
L 101.06282 82.679095 
L 101.520734 40.705039 
L 101.655414 37.856298 
L 101.691329 38.039177 
L 101.781116 40.23961 
L 101.96069 51.627284 
L 102.319838 92.783517 
L 102.777751 136.853958 
L 102.912432 139.854817 
L 102.948347 139.668864 
L 103.038134 137.381758 
L 103.217708 125.51176 
L 103.576856 82.616986 
L 104.034769 36.692029 
L 104.16945 33.534456 
L 104.205365 33.715683 
L 104.295152 36.058442 
L 104.474725 48.305837 
L 104.833873 92.643028 
L 105.291787 140.185747 
L 105.435446 143.50532 
L 105.462382 143.336777 
L 105.552169 140.968904 
L 105.731743 128.445705 
L 106.081913 84.211364 
L 106.548805 34.006567 
L 106.692464 30.51329 
L 106.7194 30.667935 
L 106.809187 33.032583 
L 106.979782 44.875942 
L 107.320973 88.266619 
L 107.805823 142.286881 
L 107.949482 145.96049 
L 107.985397 145.721229 
L 108.084162 142.679783 
L 108.272715 127.936575 
L 108.676757 73.205651 
L 109.080798 31.529189 
L 109.2065 28.554115 
L 109.242415 28.76314 
L 109.332202 31.341035 
L 109.511776 44.691059 
L 109.870924 92.709031 
L 110.319858 143.450863 
L 110.472496 147.502503 
L 110.499432 147.327175 
L 110.589219 144.813004 
L 110.768793 131.481667 
L 111.127941 83.107715 
L 111.585855 31.119247 
L 111.729514 27.347284 
L 111.765429 27.602802 
L 111.864195 30.768995 
L 112.052747 46.03343 
L 112.456789 102.500573 
L 112.86083 145.381611 
L 112.986532 148.438688 
L 113.022447 148.224616 
L 113.112234 145.580743 
L 113.291808 131.894647 
L 113.650956 82.720093 
L 114.099891 30.796654 
L 114.252529 26.630775 
L 114.279465 26.804155 
L 114.369252 29.350373 
L 114.539847 41.989664 
L 114.881038 88.041914 
L 115.365887 145.108531 
L 115.509546 148.989755 
L 115.545461 148.743053 
L 115.644227 145.563262 
L 115.83278 130.131084 
L 116.236821 72.915002 
L 116.640863 29.363019 
L 116.766564 26.211034 
L 116.811458 26.537319 
L 116.910224 29.927593 
L 117.098776 45.73014 
L 117.520775 105.948553 
L 117.906859 146.405805 
L 118.032561 149.308051 
L 118.068476 149.033532 
L 118.167241 145.766662 
L 118.355794 130.14399 
L 118.768814 71.259265 
L 119.163877 29.044766 
L 119.289579 25.967207 
L 119.325494 26.192731 
L 119.415281 28.896906 
L 119.594854 42.820859 
L 119.954002 92.717672 
L 120.402937 145.289098 
L 120.555575 149.489463 
L 120.582511 149.311221 
L 120.672298 146.726306 
L 120.842894 133.929382 
L 121.184084 87.369591 
L 121.668934 29.742906 
L 121.812593 25.828033 
L 121.848508 26.077343 
L 121.947274 29.285996 
L 122.135826 44.850523 
L 122.539868 102.526328 
L 122.943909 146.413657 
L 123.069611 149.594603 
L 123.114504 149.268806 
L 123.21327 145.861947 
L 123.401823 129.967871 
L 123.823822 69.39116 
L 124.209906 28.680797 
L 124.335608 25.749454 
L 124.371522 26.021276 
L 124.470288 29.293423 
L 124.658841 44.973516 
L 125.071861 104.115978 
L 125.466924 146.547279 
L 125.592625 149.656021 
L 125.62854 149.435202 
L 125.718327 146.734501 
L 125.897901 132.78356 
L 126.257049 82.733035 
L 126.705984 29.946494 
L 126.858622 25.705902 
L 126.885558 25.879642 
L 126.975345 28.455475 
L 127.14594 41.260154 
L 127.487131 87.916938 
L 127.971981 145.737595 
L 128.11564 149.690719 
L 128.151555 149.448403 
L 128.25032 146.253141 
L 128.438873 130.689473 
L 128.842914 72.921767 
L 129.246956 28.89591 
L 129.372658 25.681491 
L 129.417551 25.997602 
L 129.516317 29.388039 
L 129.704869 45.271313 
L 130.126868 105.916654 
L 130.512952 146.744915 
L 130.638654 149.709834 
L 130.674569 149.446338 
L 130.773335 146.193467 
L 130.961887 130.532845 
L 131.374907 71.347953 
L 131.76997 28.807744 
L 131.895672 25.66495 
L 131.940566 26.007399 
L 132.039331 29.454856 
L 132.227884 45.432881 
L 132.649883 106.143448 
L 133.035967 146.826575 
L 133.161669 149.719716 
L 133.197583 149.435225 
L 133.296349 146.125603 
L 133.484902 130.370841 
L 133.897922 71.120584 
L 134.292985 28.726784 
L 134.418686 25.655593 
L 134.454601 25.888523 
L 134.553367 29.059891 
L 134.74192 44.589632 
L 135.145961 102.358077 
L 135.550003 146.473749 
L 135.684683 149.723981 
L 135.720598 149.418604 
L 135.819363 146.052741 
L 136.007916 130.20554 
L 136.429915 69.563063 
L 136.815999 28.650276 
L 136.941701 25.650692 
L 136.977616 25.904479 
L 137.076381 29.132037 
L 137.264934 44.75427 
L 137.668975 102.584984 
L 138.073017 146.551131 
L 138.198719 149.728666 
L 138.243612 149.398482 
L 138.342378 145.976694 
L 138.530931 130.038118 
L 138.952929 69.339917 
L 139.339013 28.576656 
L 139.464715 25.648694 
L 139.50063 25.923291 
L 139.599396 29.206798 
L 139.787948 44.920673 
L 140.200969 104.153438 
L 140.596031 146.626138 
L 140.721733 149.732173 
L 140.757648 149.50921 
L 140.847435 146.800746 
L 141.027009 132.825932 
L 141.386157 82.714895 
L 141.835092 29.886843 
L 141.98773 25.64872 
L 142.014666 25.823762 
L 142.104453 28.405617 
L 142.275048 41.227555 
L 142.616239 87.928157 
L 143.101088 145.783036 
L 143.244747 149.733939 
L 143.280662 149.490196 
L 143.379428 146.289424 
L 143.567981 130.71022 
L 143.972022 72.90383 
L 144.376064 28.861239 
L 144.501765 25.64881 
L 144.546659 25.96641 
L 144.645425 29.361385 
L 144.833977 45.256961 
L 145.255976 105.932733 
L 145.64206 146.771411 
L 145.767762 149.734342 
L 145.803677 149.469832 
L 145.902442 146.213289 
L 146.090995 130.542967 
L 146.504015 71.335189 
L 146.899078 28.787373 
L 147.02478 25.646403 
L 147.069673 25.989949 
L 147.168439 29.440519 
L 147.356992 45.426394 
L 147.77899 106.15471 
L 148.165075 146.842273 
L 148.290776 149.733595 
L 148.326691 149.448329 
L 148.425457 146.136088 
L 148.614009 130.374954 
L 149.02703 71.111196 
L 149.422092 28.714545 
L 149.547794 25.645077 
L 149.583709 25.878694 
L 149.682475 29.052314 
L 149.871027 44.587326 
L 150.275069 102.366136 
L 150.67911 146.483394 
L 150.813791 149.73182 
L 150.849705 149.425805 
L 150.948471 146.057928 
L 151.137024 130.206253 
L 151.559023 69.55551 
L 151.945107 28.642666 
L 152.070809 25.64474 
L 152.106723 25.899114 
L 152.205489 29.128479 
L 152.394042 44.754562 
L 152.798083 102.591693 
L 153.202125 146.557288 
L 153.327826 149.733205 
L 153.37272 149.402329 
L 153.471486 145.978871 
L 153.660038 130.036906 
L 154.082037 69.333533 
L 154.468121 28.571682 
L 154.593823 25.645339 
L 154.629738 25.920466 
L 154.728503 29.205524 
L 154.917056 44.922439 
L 155.330076 104.159401 
L 155.725139 146.630306 
L 155.850841 149.734746 
L 155.886756 149.511276 
L 155.976543 146.801482 
L 156.156117 132.824001 
L 156.515265 82.70942 
L 156.964199 29.883071 
L 157.116837 25.646847 
L 157.143773 25.82226 
L 157.23356 28.405388 
L 157.404156 41.229699 
L 157.745346 87.933415 
L 158.230196 145.786271 
L 158.373855 149.73539 
L 158.40977 149.491163 
L 158.508536 146.289034 
L 158.697088 130.707396 
L 159.10113 72.898488 
L 159.505171 28.858527 
L 159.630873 25.647667 
L 159.675767 25.965862 
L 159.774532 29.362158 
L 159.963085 45.260043 
L 160.385084 105.937938 
L 160.771168 146.773789 
L 160.89687 149.735147 
L 160.932784 149.470168 
L 161.03155 146.212331 
L 161.220103 130.539775 
L 161.633123 71.330052 
L 162.028186 28.785157 
L 162.153887 25.645752 
L 162.198781 25.98988 
L 162.297547 29.441721 
L 162.486099 45.429751 
L 162.908098 106.159749 
L 163.294182 146.844271 
L 163.419884 149.734026 
L 163.455799 149.448299 
L 163.554564 146.1348 
L 163.743117 130.371548 
L 164.156137 71.106177 
L 164.5512 28.712619 
L 164.676902 25.644712 
L 164.712817 25.878789 
L 164.811582 29.053657 
L 165.000135 44.590761 
L 165.404176 102.37115 
L 165.808218 146.485276 
L 165.942898 149.732031 
L 165.978813 149.425559 
L 166.077579 146.056445 
L 166.266132 130.202721 
L 166.68813 69.550588 
L 167.074214 28.640912 
L 167.199916 25.644546 
L 167.235831 25.899376 
L 167.334597 29.129973 
L 167.523149 44.758097 
L 167.927191 102.596658 
L 168.331232 146.559036 
L 168.456934 149.733397 
L 168.501828 149.401952 
L 168.600593 145.977271 
L 168.789146 130.033296 
L 169.211145 69.328656 
L 169.597229 28.570034 
L 169.722931 25.645251 
L 169.758845 25.920831 
L 169.857611 29.207112 
L 170.046164 44.926036 
L 170.459184 104.164308 
L 170.854247 146.631971 
L 170.979948 149.734854 
L 171.015863 149.51093 
L 171.10565 146.800023 
L 171.285224 132.820586 
L 171.644372 82.70437 
L 172.093307 29.881171 
L 172.245945 25.646826 
L 172.272881 25.822579 
L 172.362668 28.40682 
L 172.533263 41.233007 
L 172.874454 87.938474 
L 173.359304 145.788094 
L 173.502963 149.735442 
L 173.538878 149.490762 
L 173.637643 146.287416 
L 173.826196 130.703783 
L 174.230238 72.893567 
L 174.634279 28.856885 
L 174.759981 25.64758 
L 174.804874 25.96634 
L 174.90364 29.363849 
L 175.092193 45.263709 
L 175.514191 105.942779 
L 175.900276 146.775359 
L 176.025977 149.735159 
L 176.061892 149.469728 
L 176.160658 146.210677 
L 176.34921 130.536137 
L 176.762231 71.32517 
L 177.157293 28.783549 
L 177.282995 25.645699 
L 177.327889 25.990392 
L 177.435633 29.936261 
L 177.633164 47.507976 
L 178.548992 149.734008 
L 178.593885 149.298873 
L 178.70163 145.142689 
L 178.90814 126.172045 
L 179.80601 25.644688 
L 179.832946 25.774063 
L 179.913754 27.826592 
L 180.075371 39.008072 
L 180.389625 80.323489 
L 180.919368 145.541762 
L 181.072006 149.731987 
L 181.098942 149.548281 
L 181.188729 146.938023 
L 181.368303 133.134573 
L 181.727451 83.162371 
L 182.185365 29.550327 
L 182.329024 25.644545 
L 182.364939 25.899827 
L 182.463704 29.131637 
L 182.652257 44.761741 
L 183.056299 102.601563 
L 183.46034 146.560637 
L 183.586042 149.733443 
L 183.630935 149.401434 
L 183.729701 145.975543 
L 183.918254 130.029607 
L 184.340253 69.323829 
L 184.726337 28.568497 
L 184.852038 25.645272 
L 184.887953 25.921304 
L 184.986719 29.208796 
L 185.175272 44.929694 
L 185.588292 104.16918 
L 185.983354 146.633551 
L 186.109056 149.734879 
L 186.144971 149.510503 
L 186.234758 146.79849 
L 186.414332 132.817121 
L 186.77348 82.699334 
L 187.222415 29.879334 
L 187.375053 25.646868 
L 187.401989 25.822959 
L 187.491776 28.408309 
L 187.662371 41.236355 
L 188.003562 87.943526 
L 188.488411 145.789868 
L 188.632071 149.735446 
L 188.667985 149.490315 
L 188.766751 146.285757 
L 188.955304 130.700143 
L 189.359345 72.888661 
L 189.763387 28.85528 
L 189.889088 25.647528 
L 189.933982 25.966853 
L 190.032748 29.36557 
L 190.2213 45.267395 
L 190.643299 105.947607 
L 191.029383 146.776901 
L 191.155085 149.735144 
L 191.191 149.469261 
L 191.289765 146.208999 
L 191.478318 130.532483 
L 191.891338 71.320297 
L 192.286401 28.781962 
L 192.412103 25.645667 
L 192.456996 25.990924 
L 192.564741 29.938107 
L 192.762272 47.511825 
L 193.678099 149.733974 
L 193.722993 149.298275 
L 193.830737 145.140782 
L 194.037247 126.168082 
L 194.935117 25.644675 
L 194.962053 25.774389 
L 195.042862 27.82792 
L 195.204478 39.011204 
L 195.518733 80.328505 
L 196.048476 145.543588 
L 196.201114 149.731934 
L 196.22805 149.547889 
L 196.317837 146.936524 
L 196.497411 133.131134 
L 196.856559 83.157333 
L 197.314472 29.548562 
L 197.458132 25.644552 
L 197.494046 25.900285 
L 197.592812 29.133307 
L 197.781365 44.765388 
L 198.185406 102.606467 
L 198.589448 146.562232 
L 198.71515 149.733483 
L 198.760043 149.40091 
L 198.858809 145.973811 
L 199.047361 130.025914 
L 199.46936 69.319003 
L 199.855444 28.566965 
L 199.981146 25.645298 
L 200.017061 25.921781 
L 200.115827 29.210484 
L 200.304379 44.933355 
L 200.717399 104.17405 
L 201.112462 146.635128 
L 201.238164 149.734901 
L 201.274079 149.510073 
L 201.363866 146.796954 
L 201.54344 132.813653 
L 201.902588 82.694298 
L 202.351523 29.8775 
L 202.50416 25.646912 
L 202.531097 25.823342 
L 202.620884 28.4098 
L 202.791479 41.239703 
L 203.132669 87.948578 
L 203.617519 145.791641 
L 203.761178 149.735449 
L 203.797093 149.489866 
L 203.895859 146.284096 
L 204.084411 130.696501 
L 204.488453 72.883755 
L 204.892494 28.853676 
L 205.018196 25.647479 
L 205.06309 25.967367 
L 205.161855 29.367294 
L 205.350408 45.271081 
L 205.772407 105.952435 
L 206.158491 146.778442 
L 206.284193 149.735128 
L 206.320108 149.468794 
L 206.418873 146.20732 
L 206.607426 130.528829 
L 207.020446 71.315424 
L 207.415509 28.780376 
L 207.541211 25.645636 
L 207.586104 25.991457 
L 207.693848 29.939954 
L 207.89138 47.515675 
L 208.807207 149.733938 
L 208.852101 149.297676 
L 208.959845 145.138874 
L 209.166355 126.164119 
L 210.064225 25.644663 
L 210.091161 25.774716 
L 210.171969 27.829249 
L 210.333586 39.014337 
L 210.64784 80.333521 
L 211.177584 145.545413 
L 211.330222 149.73188 
L 211.357158 149.547496 
L 211.446945 146.935023 
L 211.626519 133.127694 
L 211.985667 83.152295 
L 212.44358 29.546799 
L 212.587239 25.644559 
L 212.623154 25.900744 
L 212.72192 29.134977 
L 212.910473 44.769036 
L 213.314514 102.611371 
L 213.718555 146.563827 
L 213.844257 149.733524 
L 213.889151 149.400386 
L 213.987916 145.972079 
L 214.176469 130.022221 
L 214.598468 69.314178 
L 214.984552 28.565433 
L 215.110254 25.645324 
L 215.146169 25.922258 
L 215.244934 29.212172 
L 215.433487 44.937015 
L 215.846507 104.17892 
L 216.24157 146.636705 
L 216.367272 149.734922 
L 216.403186 149.509643 
L 216.492973 146.795417 
L 216.672547 132.810186 
L 217.031695 82.689263 
L 217.48063 29.875666 
L 217.633268 25.646957 
L 217.660204 25.823726 
L 217.749991 28.411292 
L 217.920587 41.243053 
L 218.261777 87.953629 
L 218.746627 145.793413 
L 218.890286 149.735451 
L 218.926201 149.489417 
L 219.024966 146.282434 
L 219.213519 130.69286 
L 219.617561 72.878849 
L 220.021602 28.852072 
L 220.147304 25.647429 
L 220.192197 25.967882 
L 220.290963 29.369017 
L 220.479516 45.274768 
L 220.901515 105.957263 
L 221.287599 146.779983 
L 221.4133 149.735112 
L 221.449215 149.468326 
L 221.547981 146.205641 
L 221.736534 130.525174 
L 222.149554 71.310551 
L 222.544616 28.778791 
L 222.670318 25.645606 
L 222.706233 25.860732 
L 222.79602 28.550087 
L 222.975594 42.491882 
L 223.334742 92.577475 
L 223.783677 145.462966 
L 223.936315 149.733903 
L 223.963251 149.564749 
L 224.053038 147.002099 
L 224.223633 134.212126 
L 224.564824 87.539898 
L 225.049673 29.626475 
L 225.193333 25.644652 
L 225.229247 25.880534 
L 225.328013 29.060255 
L 225.516566 44.605293 
L 225.920607 102.390786 
L 226.324649 146.491736 
L 226.459329 149.731825 
L 226.495244 149.423548 
L 226.59401 146.049595 
L 226.782562 130.188006 
L 227.204561 69.531262 
L 227.590645 28.634704 
L 227.716347 25.644566 
L 227.752262 25.901202 
L 227.851028 29.136648 
L 228.03958 44.772684 
L 228.443622 102.616274 
L 228.847663 146.565421 
L 228.973365 149.733563 
L 229.018258 149.399861 
L 229.117024 145.970346 
L 229.305577 130.018527 
L 229.727576 69.309353 
L 230.11366 28.563901 
L 230.239361 25.64535 
L 230.275276 25.922736 
L 230.374042 29.21386 
L 230.562595 44.940677 
L 230.975615 104.18379 
L 231.370678 146.638281 
L 231.496379 149.734943 
L 231.532294 149.509212 
L 231.622081 146.79388 
L 231.801655 132.806718 
L 232.160803 82.684228 
L 232.609738 29.873833 
L 232.762376 25.647002 
L 232.789312 25.82411 
L 232.879099 28.412784 
L 233.049694 41.246402 
L 233.390885 87.958681 
L 233.875735 145.795185 
L 234.019394 149.735453 
L 234.055309 149.488967 
L 234.154074 146.280772 
L 234.342627 130.689218 
L 234.746668 72.873943 
L 235.15071 28.850469 
L 235.276412 25.64738 
L 235.321305 25.968398 
L 235.420071 29.370742 
L 235.608623 45.278455 
L 236.030622 105.962091 
L 236.416706 146.781523 
L 236.542408 149.735095 
L 236.578323 149.467857 
L 236.677089 146.203961 
L 236.865641 130.52152 
L 237.278661 71.305679 
L 237.673724 28.777206 
L 237.799426 25.645576 
L 237.835341 25.861154 
L 237.925128 28.551615 
L 238.104702 42.495343 
L 238.46385 92.582511 
L 238.912785 145.464808 
L 239.065423 149.733867 
L 239.092359 149.564375 
L 239.182146 147.000616 
L 239.352741 134.208783 
L 239.693931 87.534847 
L 240.178781 29.624694 
L 240.32244 25.64464 
L 240.358355 25.880975 
L 240.457121 29.061909 
L 240.645674 44.608928 
L 241.049715 102.395694 
L 241.453756 146.493348 
L 241.588437 149.73177 
L 241.624352 149.423042 
L 241.723117 146.04788 
L 241.91167 130.184325 
L 242.333669 69.526431 
L 242.719753 28.633155 
L 242.845455 25.644574 
L 242.88137 25.901662 
L 242.980135 29.138319 
L 243.168688 44.776333 
L 243.572729 102.621178 
L 243.976771 146.567015 
L 244.102473 149.733602 
L 244.147366 149.399337 
L 244.246132 145.968613 
L 244.434684 130.014833 
L 244.856683 69.304528 
L 245.242767 28.56237 
L 245.368469 25.645377 
L 245.404384 25.923214 
L 245.50315 29.215549 
L 245.691702 44.944338 
L 246.104722 104.18866 
L 246.499785 146.639857 
L 246.625487 149.734963 
L 246.661402 149.508781 
L 246.751189 146.792343 
L 246.930763 132.80325 
L 247.289911 82.679192 
L 247.738846 29.872 
L 247.891484 25.647048 
L 247.91842 25.824494 
L 248.008207 28.414276 
L 248.178802 41.249752 
L 248.519992 87.963733 
L 249.004842 145.796956 
L 249.148501 149.735455 
L 249.184416 149.488517 
L 249.283182 146.27911 
L 249.471735 130.685576 
L 249.875776 72.869038 
L 250.279817 28.848866 
L 250.405519 25.647332 
L 250.450413 25.968913 
L 250.549178 29.372466 
L 250.737731 45.282143 
L 251.15973 105.966919 
L 251.545814 146.783063 
L 251.671516 149.735077 
L 251.707431 149.467388 
L 251.806196 146.202281 
L 251.994749 130.517864 
L 252.407769 71.300807 
L 252.802832 28.775621 
L 252.928534 25.645546 
L 252.964448 25.861576 
L 253.054235 28.553143 
L 253.233809 42.498804 
L 253.575 89.815893 
L 253.575 89.815893 
" clip-path="url(#pf008c7004a)" style="fill: none; stroke: #808080; stroke-width: 1.5; stroke-linecap: square"/>
   </g>
   <g id="patch_3">
    <path d="M 74.01 155.94 
L 74.01 19.44 
" style="fill: none; stroke: #000000; stroke-width: 0.8; stroke-linejoin: miter; stroke-linecap: square"/>
   </g>
   <g id="patch_4">
    <path d="M 253.575 155.94 
L 253.575 19.44 
" style="fill: none; stroke: #000000; stroke-width: 0.8; stroke-linejoin: miter; stroke-linecap: square"/>
   </g>
   <g id="patch_5">
    <path d="M 74.01 155.94 
L 253.575 155.94 
" style="fill: none; stroke: #000000; stroke-width: 0.8; stroke-linejoin: miter; stroke-linecap: square"/>
   </g>
   <g id="patch_6">
    <path d="M 74.01 19.44 
L 253.575 19.44 
" style="fill: none; stroke: #000000; stroke-width: 0.8; stroke-linejoin: miter; stroke-linecap: square"/>
   </g>
  </g>
 </g>
 <defs>
  <clipPath id="pf008c7004a">
   <rect x="74.01" y="19.44" width="179.565" height="136.5"/>
  </clipPath>
 </defs>
</svg>
