<?xml version="1.0" encoding="utf-8" standalone="no"?>
<!DOCTYPE svg PUBLIC "-//W3C//DTD SVG 1.1//EN"
  "http://www.w3.org/Graphics/SVG/1.1/DTD/svg11.dtd">
<svg xmlns:xlink="http://www.w3.org/1999/xlink" width="288pt" height="216pt" viewBox="0 0 288 216" xmlns="http://www.w3.org/2000/svg" version="1.1">
 <metadata>
  <rdf:RDF xmlns:dc="http://purl.org/dc/elements/1.1/" xmlns:cc="http://creativecommons.org/ns#" xmlns:rdf="http://www.w3.org/1999/02/22-rdf-syntax-ns#">
   <cc:Work>
    <dc:type rdf:resource="http://purl.org/dc/dcmitype/StillImage"/>
    <dc:date>2024-07-16T09:58:44.783033</dc:date>
    <dc:format>image/svg+xml</dc:format>
    <dc:creator>
     <cc:Agent>
      <dc:title>Matplotlib v3.7.2, https://matplotlib.org/</dc:title>
     </cc:Agent>
    </dc:creator>
   </cc:Work>
  </rdf:RDF>
 </metadata>
 <defs>
  <style type="text/css">*{stroke-linejoin: round; stroke-linecap: butt}</style>
 </defs>
 <g id="figure_1">
  <g id="patch_1">
   <path d="M 0 216 
L 288 216 
L 288 0 
L 0 0 
L 0 216 
z
" style="fill: none"/>
  </g>
  <g id="axes_1">
   <g id="patch_2">
    <path d="M 61.698 161.7 
L 252.9 161.7 
L 252.9 17.28 
L 61.698 17.28 
L 61.698 161.7 
z
" style="fill: none"/>
   </g>
   <g id="matplotlib.axis_1">
    <g id="xtick_1">
     <g id="line2d_1">
      <defs>
       <path id="m2d1cfc1341" d="M 0 0 
L 0 -3.5 
" style="stroke: #000000; stroke-width: 0.8"/>
      </defs>
      <g>
       <use xlink:href="#m2d1cfc1341" x="61.698" y="161.7" style="stroke: #000000; stroke-width: 0.8"/>
      </g>
     </g>
     <g id="text_1">
      <!-- 0 -->
      <g transform="translate(57.24925 176.6525) scale(0.16 -0.16)">
       <defs>
        <path id="ArialMT-30" d="M 266 2259 
Q 266 3072 433 3567 
Q 600 4063 929 4331 
Q 1259 4600 1759 4600 
Q 2128 4600 2406 4451 
Q 2684 4303 2865 4023 
Q 3047 3744 3150 3342 
Q 3253 2941 3253 2259 
Q 3253 1453 3087 958 
Q 2922 463 2592 192 
Q 2263 -78 1759 -78 
Q 1097 -78 719 397 
Q 266 969 266 2259 
z
M 844 2259 
Q 844 1131 1108 757 
Q 1372 384 1759 384 
Q 2147 384 2411 759 
Q 2675 1134 2675 2259 
Q 2675 3391 2411 3762 
Q 2147 4134 1753 4134 
Q 1366 4134 1134 3806 
Q 844 3388 844 2259 
z
" transform="scale(0.015625)"/>
       </defs>
       <use xlink:href="#ArialMT-30"/>
      </g>
     </g>
    </g>
    <g id="xtick_2">
     <g id="line2d_2">
      <g>
       <use xlink:href="#m2d1cfc1341" x="157.299" y="161.7" style="stroke: #000000; stroke-width: 0.8"/>
      </g>
     </g>
     <g id="text_2">
      <!-- 2000 -->
      <g transform="translate(139.504 176.6525) scale(0.16 -0.16)">
       <defs>
        <path id="ArialMT-32" d="M 3222 541 
L 3222 0 
L 194 0 
Q 188 203 259 391 
Q 375 700 629 1000 
Q 884 1300 1366 1694 
Q 2113 2306 2375 2664 
Q 2638 3022 2638 3341 
Q 2638 3675 2398 3904 
Q 2159 4134 1775 4134 
Q 1369 4134 1125 3890 
Q 881 3647 878 3216 
L 300 3275 
Q 359 3922 746 4261 
Q 1134 4600 1788 4600 
Q 2447 4600 2831 4234 
Q 3216 3869 3216 3328 
Q 3216 3053 3103 2787 
Q 2991 2522 2730 2228 
Q 2469 1934 1863 1422 
Q 1356 997 1212 845 
Q 1069 694 975 541 
L 3222 541 
z
" transform="scale(0.015625)"/>
       </defs>
       <use xlink:href="#ArialMT-32"/>
       <use xlink:href="#ArialMT-30" x="55.615234"/>
       <use xlink:href="#ArialMT-30" x="111.230469"/>
       <use xlink:href="#ArialMT-30" x="166.845703"/>
      </g>
     </g>
    </g>
    <g id="xtick_3">
     <g id="line2d_3">
      <g>
       <use xlink:href="#m2d1cfc1341" x="252.9" y="161.7" style="stroke: #000000; stroke-width: 0.8"/>
      </g>
     </g>
     <g id="text_3">
      <!-- 4000 -->
      <g transform="translate(235.105 176.6525) scale(0.16 -0.16)">
       <defs>
        <path id="ArialMT-34" d="M 2069 0 
L 2069 1097 
L 81 1097 
L 81 1613 
L 2172 4581 
L 2631 4581 
L 2631 1613 
L 3250 1613 
L 3250 1097 
L 2631 1097 
L 2631 0 
L 2069 0 
z
M 2069 1613 
L 2069 3678 
L 634 1613 
L 2069 1613 
z
" transform="scale(0.015625)"/>
       </defs>
       <use xlink:href="#ArialMT-34"/>
       <use xlink:href="#ArialMT-30" x="55.615234"/>
       <use xlink:href="#ArialMT-30" x="111.230469"/>
       <use xlink:href="#ArialMT-30" x="166.845703"/>
      </g>
     </g>
    </g>
    <g id="text_4">
     <!-- $t$ -->
     <g transform="translate(154.099 195.285) scale(0.16 -0.16)">
      <defs>
       <path id="DejaVuSans-Oblique-74" d="M 2706 3500 
L 2619 3053 
L 1472 3053 
L 1100 1153 
Q 1081 1047 1072 975 
Q 1063 903 1063 863 
Q 1063 663 1183 572 
Q 1303 481 1569 481 
L 2150 481 
L 2053 0 
L 1503 0 
Q 991 0 739 200 
Q 488 400 488 806 
Q 488 878 497 964 
Q 506 1050 525 1153 
L 897 3053 
L 409 3053 
L 500 3500 
L 978 3500 
L 1172 4494 
L 1747 4494 
L 1556 3500 
L 2706 3500 
z
" transform="scale(0.015625)"/>
      </defs>
      <use xlink:href="#DejaVuSans-Oblique-74" transform="translate(0 0.78125)"/>
     </g>
    </g>
   </g>
   <g id="matplotlib.axis_2">
    <g id="ytick_1">
     <g id="line2d_4">
      <defs>
       <path id="m9894029bc4" d="M 0 0 
L 3.5 0 
" style="stroke: #000000; stroke-width: 0.8"/>
      </defs>
      <g>
       <use xlink:href="#m9894029bc4" x="61.698" y="154.942103" style="stroke: #000000; stroke-width: 0.8"/>
      </g>
     </g>
     <g id="text_5">
      <!-- −1 -->
      <g transform="translate(39.9555 160.668353) scale(0.16 -0.16)">
       <defs>
        <path id="ArialMT-2212" d="M 3381 1997 
L 356 1997 
L 356 2522 
L 3381 2522 
L 3381 1997 
z
" transform="scale(0.015625)"/>
        <path id="ArialMT-31" d="M 2384 0 
L 1822 0 
L 1822 3584 
Q 1619 3391 1289 3197 
Q 959 3003 697 2906 
L 697 3450 
Q 1169 3672 1522 3987 
Q 1875 4303 2022 4600 
L 2384 4600 
L 2384 0 
z
" transform="scale(0.015625)"/>
       </defs>
       <use xlink:href="#ArialMT-2212"/>
       <use xlink:href="#ArialMT-31" x="58.398438"/>
      </g>
     </g>
    </g>
    <g id="ytick_2">
     <g id="line2d_5">
      <g>
       <use xlink:href="#m9894029bc4" x="61.698" y="111.0026" style="stroke: #000000; stroke-width: 0.8"/>
      </g>
     </g>
     <g id="text_6">
      <!-- 0 -->
      <g transform="translate(49.3005 116.72885) scale(0.16 -0.16)">
       <use xlink:href="#ArialMT-30"/>
      </g>
     </g>
    </g>
    <g id="ytick_3">
     <g id="line2d_6">
      <g>
       <use xlink:href="#m9894029bc4" x="61.698" y="67.063096" style="stroke: #000000; stroke-width: 0.8"/>
      </g>
     </g>
     <g id="text_7">
      <!-- 1 -->
      <g transform="translate(49.3005 72.789346) scale(0.16 -0.16)">
       <use xlink:href="#ArialMT-31"/>
      </g>
     </g>
    </g>
    <g id="ytick_4">
     <g id="line2d_7">
      <g>
       <use xlink:href="#m9894029bc4" x="61.698" y="23.123593" style="stroke: #000000; stroke-width: 0.8"/>
      </g>
     </g>
     <g id="text_8">
      <!-- 2 -->
      <g transform="translate(49.3005 28.849843) scale(0.16 -0.16)">
       <use xlink:href="#ArialMT-32"/>
      </g>
     </g>
    </g>
    <g id="text_9">
     <!-- $Re(a_i)/r_i$ -->
     <g transform="translate(32.7755 120.69) rotate(-90) scale(0.16 -0.16)">
      <defs>
       <path id="DejaVuSans-Oblique-52" d="M 1613 4147 
L 1294 2491 
L 2106 2491 
Q 2584 2491 2879 2755 
Q 3175 3019 3175 3444 
Q 3175 3784 2976 3965 
Q 2778 4147 2406 4147 
L 1613 4147 
z
M 2772 2241 
Q 2972 2194 3105 2009 
Q 3238 1825 3413 1275 
L 3809 0 
L 3144 0 
L 2778 1197 
Q 2638 1659 2453 1815 
Q 2269 1972 1888 1972 
L 1191 1972 
L 806 0 
L 172 0 
L 1081 4666 
L 2503 4666 
Q 3150 4666 3495 4373 
Q 3841 4081 3841 3531 
Q 3841 3044 3547 2687 
Q 3253 2331 2772 2241 
z
" transform="scale(0.015625)"/>
       <path id="DejaVuSans-Oblique-65" d="M 3078 2063 
Q 3088 2113 3092 2166 
Q 3097 2219 3097 2272 
Q 3097 2653 2873 2875 
Q 2650 3097 2266 3097 
Q 1838 3097 1509 2826 
Q 1181 2556 1013 2059 
L 3078 2063 
z
M 3578 1613 
L 903 1613 
Q 884 1494 878 1425 
Q 872 1356 872 1306 
Q 872 872 1139 634 
Q 1406 397 1894 397 
Q 2269 397 2603 481 
Q 2938 566 3225 728 
L 3116 159 
Q 2806 34 2476 -28 
Q 2147 -91 1806 -91 
Q 1078 -91 686 257 
Q 294 606 294 1247 
Q 294 1794 489 2264 
Q 684 2734 1063 3103 
Q 1306 3334 1642 3459 
Q 1978 3584 2356 3584 
Q 2950 3584 3301 3228 
Q 3653 2872 3653 2272 
Q 3653 2128 3634 1964 
Q 3616 1800 3578 1613 
z
" transform="scale(0.015625)"/>
       <path id="DejaVuSans-28" d="M 1984 4856 
Q 1566 4138 1362 3434 
Q 1159 2731 1159 2009 
Q 1159 1288 1364 580 
Q 1569 -128 1984 -844 
L 1484 -844 
Q 1016 -109 783 600 
Q 550 1309 550 2009 
Q 550 2706 781 3412 
Q 1013 4119 1484 4856 
L 1984 4856 
z
" transform="scale(0.015625)"/>
       <path id="DejaVuSans-Oblique-61" d="M 3438 1997 
L 3047 0 
L 2472 0 
L 2578 531 
Q 2325 219 2001 64 
Q 1678 -91 1281 -91 
Q 834 -91 548 182 
Q 263 456 263 884 
Q 263 1497 752 1853 
Q 1241 2209 2100 2209 
L 2900 2209 
L 2931 2363 
Q 2938 2388 2941 2417 
Q 2944 2447 2944 2509 
Q 2944 2788 2717 2942 
Q 2491 3097 2081 3097 
Q 1800 3097 1504 3025 
Q 1209 2953 897 2809 
L 997 3341 
Q 1322 3463 1633 3523 
Q 1944 3584 2234 3584 
Q 2853 3584 3176 3315 
Q 3500 3047 3500 2534 
Q 3500 2431 3484 2292 
Q 3469 2153 3438 1997 
z
M 2816 1759 
L 2241 1759 
Q 1534 1759 1195 1570 
Q 856 1381 856 984 
Q 856 709 1029 553 
Q 1203 397 1509 397 
Q 1978 397 2328 733 
Q 2678 1069 2791 1631 
L 2816 1759 
z
" transform="scale(0.015625)"/>
       <path id="DejaVuSans-Oblique-69" d="M 1172 4863 
L 1747 4863 
L 1606 4134 
L 1031 4134 
L 1172 4863 
z
M 909 3500 
L 1484 3500 
L 800 0 
L 225 0 
L 909 3500 
z
" transform="scale(0.015625)"/>
       <path id="DejaVuSans-29" d="M 513 4856 
L 1013 4856 
Q 1481 4119 1714 3412 
Q 1947 2706 1947 2009 
Q 1947 1309 1714 600 
Q 1481 -109 1013 -844 
L 513 -844 
Q 928 -128 1133 580 
Q 1338 1288 1338 2009 
Q 1338 2731 1133 3434 
Q 928 4138 513 4856 
z
" transform="scale(0.015625)"/>
       <path id="DejaVuSans-2f" d="M 1625 4666 
L 2156 4666 
L 531 -594 
L 0 -594 
L 1625 4666 
z
" transform="scale(0.015625)"/>
       <path id="DejaVuSans-Oblique-72" d="M 2853 2969 
Q 2766 3016 2653 3041 
Q 2541 3066 2413 3066 
Q 1953 3066 1609 2717 
Q 1266 2369 1153 1784 
L 800 0 
L 225 0 
L 909 3500 
L 1484 3500 
L 1375 2956 
Q 1603 3259 1920 3421 
Q 2238 3584 2597 3584 
Q 2691 3584 2781 3573 
Q 2872 3563 2963 3538 
L 2853 2969 
z
" transform="scale(0.015625)"/>
      </defs>
      <use xlink:href="#DejaVuSans-Oblique-52" transform="translate(0 0.125)"/>
      <use xlink:href="#DejaVuSans-Oblique-65" transform="translate(69.482422 0.125)"/>
      <use xlink:href="#DejaVuSans-28" transform="translate(131.005859 0.125)"/>
      <use xlink:href="#DejaVuSans-Oblique-61" transform="translate(170.019531 0.125)"/>
      <use xlink:href="#DejaVuSans-Oblique-69" transform="translate(231.298828 -16.28125) scale(0.7)"/>
      <use xlink:href="#DejaVuSans-29" transform="translate(253.481445 0.125)"/>
      <use xlink:href="#DejaVuSans-2f" transform="translate(292.495117 0.125)"/>
      <use xlink:href="#DejaVuSans-Oblique-72" transform="translate(326.186523 0.125)"/>
      <use xlink:href="#DejaVuSans-Oblique-69" transform="translate(367.299805 -16.28125) scale(0.7)"/>
     </g>
    </g>
   </g>
   <g id="line2d_8">
    <path d="M 61.698 86.168981 
L 61.770658 124.647238 
L 61.858613 102.357776 
L 62.007753 67.067444 
L 62.053643 71.833527 
L 62.187487 122.128549 
L 62.313683 154.934431 
L 62.359572 150.47613 
L 62.489592 101.019317 
L 62.619612 67.064258 
L 62.665501 72.108259 
L 62.806994 127.467188 
L 62.921717 154.941025 
L 62.967607 149.881321 
L 63.109099 94.41136 
L 63.223822 67.065924 
L 63.269712 72.220562 
L 63.415028 129.418484 
L 63.525928 154.935741 
L 63.571817 149.666687 
L 63.717134 92.37205 
L 63.824209 67.070201 
L 63.873922 72.432278 
L 64.023063 131.314455 
L 64.126314 154.935887 
L 64.176027 149.570582 
L 64.325168 90.860149 
L 64.432243 67.067113 
L 64.478133 72.178461 
L 64.623449 128.512796 
L 64.738173 154.941779 
L 64.784062 150.320769 
L 64.933203 97.850669 
L 65.040278 75.995806 
L 65.082343 83.363319 
L 65.135881 95.815425 
L 65.197067 85.089645 
L 65.304142 67.067277 
L 65.353855 71.750944 
L 65.483875 119.565887 
L 65.617719 154.941133 
L 65.663609 150.265663 
L 65.797453 98.977768 
L 65.923649 67.067604 
L 65.969538 72.246259 
L 66.114855 129.310899 
L 66.225754 154.938654 
L 66.271643 149.770248 
L 66.41696 92.600484 
L 66.527859 67.068946 
L 66.573749 72.322966 
L 66.719065 129.612871 
L 66.82614 154.935043 
L 66.875854 149.563573 
L 67.024994 90.605325 
L 67.128245 67.066672 
L 67.177959 72.545038 
L 67.327099 131.539221 
L 67.430351 154.939644 
L 67.480064 149.432343 
L 67.633029 89.03131 
L 67.732456 67.069329 
L 67.782169 72.387872 
L 67.93131 130.657331 
L 68.038385 154.93862 
L 68.088099 149.756007 
L 68.241063 92.986951 
L 68.401676 67.112177 
L 68.420797 67.285359 
L 68.459038 71.332914 
L 68.497279 75.142455 
L 68.558465 69.546506 
L 68.60053 67.0633 
L 68.650244 71.3355 
L 68.772615 113.906439 
L 68.921756 154.940875 
L 68.963821 150.781276 
L 69.090017 103.659444 
L 69.223861 67.070014 
L 69.269751 71.593514 
L 69.399771 121.330529 
L 69.529791 154.934795 
L 69.571856 150.455351 
L 69.701876 100.631964 
L 69.828072 67.070595 
L 69.873961 71.62016 
L 70.007805 123.267511 
L 70.130177 154.938363 
L 70.176066 150.276071 
L 70.30991 98.498554 
L 70.432282 67.064376 
L 70.478171 71.832631 
L 70.61584 125.353418 
L 70.734387 154.941635 
L 70.780277 150.125522 
L 70.917945 96.666104 
L 71.036492 67.064696 
L 71.082382 71.7652 
L 71.216226 123.113207 
L 71.342422 154.941573 
L 71.388311 150.114169 
L 71.529803 97.020588 
L 71.663648 67.063275 
L 71.705713 69.384928 
L 71.763075 73.645276 
L 71.808964 68.676778 
L 71.87015 67.063232 
L 71.919863 68.590341 
L 72.00017 85.109441 
L 72.221969 154.937571 
L 72.290803 144.939918 
L 72.527898 67.06507 
L 72.612028 82.410095 
L 72.830003 154.936765 
L 72.898837 144.601698 
L 73.132108 67.067016 
L 73.212415 81.121623 
L 73.434213 154.940637 
L 73.503048 144.354737 
L 73.736319 67.063244 
L 73.816625 81.472162 
L 74.038424 154.942076 
L 74.107258 144.118086 
L 74.340529 67.063114 
L 74.420836 81.403848 
L 74.646458 154.933877 
L 74.711468 145.014294 
L 74.956212 67.068406 
L 75.044167 79.171655 
L 75.124473 93.300246 
L 75.166538 84.121596 
L 75.220076 74.427825 
L 75.281262 82.557608 
L 75.526005 154.940915 
L 75.61396 138.324561 
L 75.831935 67.0631 
L 75.896944 76.621344 
L 76.13404 154.940176 
L 76.21817 139.495665 
L 76.436145 67.064551 
L 76.501155 76.528127 
L 76.73825 154.941867 
L 76.822381 139.228824 
L 77.040355 67.063222 
L 77.105365 76.823965 
L 77.342461 154.941127 
L 77.426591 138.927512 
L 77.644566 67.063947 
L 77.709576 76.862126 
L 77.946671 154.940771 
L 78.030801 139.759261 
L 78.256424 67.063532 
L 78.321434 75.316325 
L 78.482047 119.174888 
L 78.539409 103.337956 
L 78.581474 94.637357 
L 78.64266 106.533715 
L 78.826218 154.942022 
L 78.883579 147.964479 
L 79.135971 67.065201 
L 79.235398 88.651306 
L 79.438076 154.94193 
L 79.491614 148.384482 
L 79.740182 67.063268 
L 79.839609 88.469061 
L 80.042287 154.942044 
L 80.095824 148.245462 
L 80.344392 67.064274 
L 80.443819 88.874681 
L 80.646497 154.938912 
L 80.700035 148.010952 
L 80.948602 67.066754 
L 81.044205 87.471592 
L 81.250708 154.94193 
L 81.308069 147.398877 
L 81.556637 67.065412 
L 81.65224 84.856033 
L 81.843446 142.179214 
L 81.893159 132.222885 
L 81.942873 120.596322 
L 82.004059 132.082283 
L 82.12643 154.941948 
L 82.176144 149.831702 
L 82.313812 98.016562 
L 82.436184 67.070185 
L 82.482073 71.524428 
L 82.612093 120.897448 
L 82.742113 154.941726 
L 82.788002 149.966066 
L 82.929495 94.70085 
L 83.044218 67.063256 
L 83.090108 72.033954 
L 83.2316 127.405196 
L 83.346323 154.941145 
L 83.392213 149.882712 
L 83.533705 94.385809 
L 83.648429 67.066378 
L 83.694318 72.239223 
L 83.839634 129.447233 
L 83.950534 154.935521 
L 83.996423 149.666013 
L 84.14174 92.418833 
L 84.252639 67.071219 
L 84.298528 72.361726 
L 84.443845 129.482374 
L 84.554744 154.938816 
L 84.600634 149.838805 
L 84.74595 93.367098 
L 84.860674 67.067041 
L 84.906563 71.966863 
L 85.055703 126.658632 
L 85.204844 154.230628 
L 85.235437 153.161998 
L 85.300447 143.183929 
L 85.369281 150.74898 
L 85.422819 154.942091 
L 85.472532 150.3928 
L 85.598728 105.372606 
L 85.74022 67.063508 
L 85.78611 71.759355 
L 85.919954 122.966512 
L 86.04615 154.939147 
L 86.092039 149.821947 
L 86.233531 94.450474 
L 86.348255 67.064632 
L 86.394144 72.146656 
L 86.535637 127.616518 
L 86.65036 154.939135 
L 86.696249 149.780452 
L 86.841566 92.583747 
L 86.952465 67.069523 
L 86.998355 72.340966 
L 87.143671 129.646364 
L 87.250746 154.935478 
L 87.30046 149.556223 
L 87.4496 90.630855 
L 87.552852 67.067721 
L 87.602565 72.493503 
L 87.751706 131.333881 
L 87.854957 154.93428 
L 87.90467 149.647539 
L 88.053811 91.292818 
L 88.160886 67.064202 
L 88.2106 72.429844 
L 88.363564 130.36733 
L 88.485936 154.942019 
L 88.531825 152.817506 
L 88.566242 151.095332 
L 88.615956 154.541205 
L 88.707735 154.940891 
L 88.661845 154.466584 
L 88.726855 154.547888 
L 88.784217 147.18965 
L 88.956302 82.94811 
L 89.044257 67.066276 
L 89.09397 72.866936 
L 89.250759 134.422466 
L 89.350186 154.933602 
L 89.396076 149.66509 
L 89.541392 92.589092 
L 89.652291 67.067554 
L 89.698181 72.264391 
L 89.843497 129.434069 
L 89.954397 154.935962 
L 90.000286 149.675956 
L 90.145603 92.388144 
L 90.252678 67.070104 
L 90.302391 72.443315 
L 90.451532 131.408905 
L 90.554783 154.938775 
L 90.604496 149.447563 
L 90.757461 88.890493 
L 90.856888 67.064771 
L 90.906602 72.620795 
L 91.059566 133.125014 
L 91.158993 154.939396 
L 91.208707 149.47125 
L 91.361672 89.330489 
L 91.464923 67.064463 
L 91.514636 72.810117 
L 91.675249 134.71023 
L 91.7785 154.942041 
L 91.828214 150.701055 
L 91.927641 133.874878 
L 91.977354 143.563709 
L 92.023244 150.482354 
L 92.088254 143.559989 
L 92.260339 81.910383 
L 92.344469 67.063962 
L 92.398007 73.238868 
L 92.566268 139.010422 
L 92.650399 154.939435 
L 92.703936 148.623201 
L 92.887494 77.248792 
L 92.952504 67.071328 
L 93.006042 73.252041 
L 93.181951 142.41576 
L 93.254609 154.935059 
L 93.308147 148.700015 
L 93.48788 78.261277 
L 93.556714 67.066793 
L 93.610252 73.423669 
L 93.85882 154.940927 
L 93.958247 133.688126 
L 94.160925 67.063314 
L 94.218287 74.583316 
L 94.46303 154.941771 
L 94.558633 135.18847 
L 94.765135 67.07089 
L 94.822497 74.035935 
L 95.078713 154.936502 
L 95.17814 136.686388 
L 95.289039 108.619114 
L 95.334929 119.470372 
L 95.384642 132.630639 
L 95.449652 121.116191 
L 95.644682 67.069761 
L 95.705868 74.643214 
L 95.954435 154.942077 
L 96.050038 135.219569 
L 96.256541 67.066739 
L 96.313902 74.324098 
L 96.558646 154.93862 
L 96.654249 135.377632 
L 96.860751 67.064523 
L 96.918113 74.4794 
L 97.162856 154.941979 
L 97.258459 134.983401 
L 97.464961 67.06321 
L 97.522323 74.721101 
L 97.767067 154.941922 
L 97.858845 136.353675 
L 98.069172 67.064487 
L 98.130358 75.318417 
L 98.378925 154.938093 
L 98.470704 137.823259 
L 98.650438 84.200737 
L 98.700151 95.222147 
L 98.74604 107.181899 
L 98.807226 96.22934 
L 98.944895 67.068887 
L 98.998432 72.634113 
L 99.143749 128.298935 
L 99.258472 154.939836 
L 99.304361 149.915428 
L 99.445854 94.90401 
L 99.560577 67.06389 
L 99.606467 71.836338 
L 99.744135 125.257769 
L 99.862682 154.940985 
L 99.908572 150.168365 
L 100.04624 96.639738 
L 100.164788 67.063308 
L 100.210677 71.92571 
L 100.348345 125.585163 
L 100.466893 154.941963 
L 100.512782 149.964763 
L 100.654275 94.555939 
L 100.768998 67.064349 
L 100.814887 72.136918 
L 100.95638 127.587563 
L 101.071103 154.940217 
L 101.116993 149.851037 
L 101.258485 94.534545 
L 101.373209 67.063159 
L 101.419098 71.948391 
L 101.556766 124.948311 
L 101.679138 154.942101 
L 101.725027 150.319245 
L 101.86652 99.275417 
L 102.011836 69.198186 
L 102.046253 71.484097 
L 102.107439 83.075169 
L 102.172449 74.702057 
L 102.245107 67.064801 
L 102.294821 71.93906 
L 102.424841 119.373951 
L 102.558685 154.936468 
L 102.604574 150.466959 
L 102.734594 101.173872 
L 102.864614 67.063135 
L 102.910503 71.975789 
L 103.048172 125.511218 
L 103.166719 154.942053 
L 103.212609 150.058463 
L 103.350277 96.425028 
L 103.468824 67.063176 
L 103.514714 72.025876 
L 103.656206 127.423731 
L 103.77093 154.940896 
L 103.816819 149.864762 
L 103.958311 94.352109 
L 104.073035 67.066652 
L 104.118924 72.245223 
L 104.264241 129.41821 
L 104.37514 154.936923 
L 104.421029 149.72034 
L 104.566346 92.637129 
L 104.677245 67.065461 
L 104.723135 72.140038 
L 104.864627 127.107472 
L 104.97935 154.933969 
L 105.029064 149.843005 
L 105.178204 93.848056 
L 105.312048 67.066516 
L 105.354114 68.425379 
L 105.373234 68.881956 
L 105.422948 67.063144 
L 105.472661 68.773462 
L 105.533847 67.063395 
L 105.568264 68.708423 
L 105.652395 88.809385 
L 105.862721 154.942101 
L 105.920083 147.600313 
L 106.168651 67.064982 
L 106.264253 87.280576 
L 106.470756 154.941692 
L 106.528118 147.243403 
L 106.772861 67.064166 
L 106.86464 85.905157 
L 107.074966 154.938784 
L 107.132328 147.020287 
L 107.377071 67.070058 
L 107.465026 84.86718 
L 107.675352 154.934513 
L 107.736538 146.819298 
L 107.981282 67.07047 
L 108.069236 84.721221 
L 108.283387 154.941807 
L 108.344573 146.706914 
L 108.600789 67.065069 
L 108.700216 79.867874 
L 108.734633 83.363066 
L 108.780522 75.739143 
L 108.830236 69.312927 
L 108.891422 74.219887 
L 109.013793 114.204501 
L 109.166758 154.934122 
L 109.208823 150.639258 
L 109.335019 103.652871 
L 109.472687 67.070166 
L 109.514752 71.5009 
L 109.644772 121.046157 
L 109.774792 154.939721 
L 109.820682 149.823363 
L 109.962174 94.350762 
L 110.076898 67.066338 
L 110.122787 72.233028 
L 110.268103 129.427343 
L 110.379003 154.935623 
L 110.424892 149.662808 
L 110.570209 92.352391 
L 110.677284 67.069464 
L 110.726997 72.458691 
L 110.876138 131.412746 
L 110.979389 154.938409 
L 111.029103 149.471813 
L 111.178243 90.542286 
L 111.281494 67.067415 
L 111.331208 72.480297 
L 111.480348 131.119782 
L 111.587424 154.940158 
L 111.633313 149.954583 
L 111.774805 95.81616 
L 111.897177 67.063176 
L 111.943066 71.164089 
L 112.096031 107.554121 
L 112.157217 90.533836 
L 112.191634 84.491682 
L 112.25282 94.306734 
L 112.46697 154.941382 
L 112.535805 144.637828 
L 112.7729 67.06622 
L 112.85703 82.2626 
L 113.078829 154.935902 
L 113.143839 144.823797 
L 113.380934 67.069768 
L 113.461241 82.120113 
L 113.679215 154.935176 
L 113.748049 144.628349 
L 113.981321 67.0663 
L 114.061627 81.169351 
L 114.283426 154.940861 
L 114.35226 144.356306 
L 114.585531 67.064227 
L 114.665837 81.238107 
L 114.887636 154.934362 
L 114.95647 144.874611 
L 115.19739 67.063142 
L 115.28152 81.066408 
L 115.45743 132.95661 
L 115.510967 119.349724 
L 115.553032 108.982774 
L 115.614218 120.268089 
L 115.767183 154.941903 
L 115.816896 149.694788 
L 115.958389 95.796109 
L 116.076936 67.063117 
L 116.122826 71.869994 
L 116.260494 125.037842 
L 116.379042 154.936376 
L 116.428755 149.561054 
L 116.577896 90.728359 
L 116.681147 67.069414 
L 116.73086 72.452134 
L 116.880001 131.392698 
L 116.983252 154.938496 
L 117.032965 149.456361 
L 117.182106 90.402491 
L 117.285357 67.064224 
L 117.335071 72.670273 
L 117.488035 133.337799 
L 117.587462 154.941996 
L 117.637176 149.235421 
L 117.793965 87.06769 
L 117.889568 67.063108 
L 117.939281 72.780853 
L 118.09607 134.791617 
L 118.191673 154.940363 
L 118.241386 149.462572 
L 118.394351 89.660926 
L 118.497602 67.066802 
L 118.547316 72.16315 
L 118.704104 128.802983 
L 118.818828 150.646509 
L 118.860893 145.70372 
L 118.914431 134.1834 
L 118.975617 142.969356 
L 119.063571 154.936934 
L 119.117109 149.693485 
L 119.254777 98.254565 
L 119.380973 67.066078 
L 119.426862 72.097137 
L 119.568355 127.024802 
L 119.683078 154.940359 
L 119.728968 150.232417 
L 119.862812 98.573102 
L 119.985183 67.065935 
L 120.031073 71.750747 
L 120.164917 123.508092 
L 120.287289 154.94076 
L 120.333178 150.174469 
L 120.470846 96.619452 
L 120.589394 67.06321 
L 120.635283 71.943544 
L 120.772951 125.618914 
L 120.891499 154.941908 
L 120.937388 149.960136 
L 121.078881 94.588599 
L 121.193604 67.063746 
L 121.239494 72.079799 
L 121.380986 127.356269 
L 121.495709 154.942103 
L 121.541599 150.079262 
L 121.679267 96.98416 
L 121.801639 67.064307 
L 121.847528 71.896692 
L 121.98902 124.345454 
L 122.138161 154.940896 
L 122.172578 154.45912 
L 122.214643 154.938591 
L 122.24906 152.775902 
L 122.275829 151.241444 
L 122.340839 154.590034 
L 122.356136 154.93931 
L 122.394377 152.851346 
L 122.486156 128.122309 
L 122.681186 67.066521 
L 122.734723 73.216868 
L 122.902984 139.269882 
L 122.987115 154.942076 
L 123.040652 148.372251 
L 123.28922 67.06378 
L 123.388647 88.336787 
L 123.591325 154.941936 
L 123.648687 147.39951 
L 123.89343 67.063245 
L 123.985209 85.75767 
L 124.195536 154.94067 
L 124.252897 147.131525 
L 124.497641 67.065915 
L 124.58942 86.009584 
L 124.799746 154.94068 
L 124.857108 147.20685 
L 125.101851 67.068264 
L 125.197454 85.791511 
L 125.419253 154.935934 
L 125.480439 149.888501 
L 125.541625 142.923267 
L 125.587514 149.508032 
L 125.637228 154.164933 
L 125.698413 150.598974 
L 125.801665 121.375936 
L 125.985222 67.063888 
L 126.031112 71.884815 
L 126.16878 124.591399 
L 126.291152 154.940902 
L 126.337041 149.925722 
L 126.478533 94.73345 
L 126.593257 67.063101 
L 126.639146 71.979651 
L 126.776814 125.617395 
L 126.895362 154.941978 
L 126.941251 149.971759 
L 127.082744 94.575805 
L 127.197467 67.064327 
L 127.243357 72.14187 
L 127.384849 127.660084 
L 127.499572 154.938334 
L 127.545462 149.74977 
L 127.690778 92.546178 
L 127.801678 67.069444 
L 127.847567 72.325889 
L 127.992883 129.504282 
L 128.103783 154.936815 
L 128.149672 149.739421 
L 128.294989 92.87051 
L 128.405888 67.063168 
L 128.451777 71.818109 
L 128.589446 124.020341 
L 128.719465 154.93637 
L 128.761531 151.261933 
L 128.903023 120.223454 
L 128.960385 135.255 
L 128.998626 141.926861 
L 129.059812 132.842777 
L 129.285435 67.064798 
L 129.361917 79.268289 
L 129.595188 154.935903 
L 129.667846 142.602863 
L 129.897293 67.064104 
L 129.969952 79.21285 
L 130.199399 154.94082 
L 130.272057 142.725837 
L 130.501504 67.066465 
L 130.574162 79.437091 
L 130.803609 154.934937 
L 130.876267 142.396913 
L 131.10189 67.069682 
L 131.178372 79.723436 
L 131.403995 154.935577 
L 131.480478 142.341272 
L 131.709925 67.065208 
L 131.782583 79.090819 
L 132.015854 154.935883 
L 132.092336 143.799658 
L 132.264421 94.284393 
L 132.321783 110.284987 
L 132.360024 118.826012 
L 132.42121 107.401994 
L 132.585647 67.067442 
L 132.639185 72.806907 
L 132.79215 131.985741 
L 132.895401 154.938919 
L 132.945114 149.546554 
L 133.094255 90.973592 
L 133.20133 67.067067 
L 133.247219 72.234481 
L 133.392536 129.316626 
L 133.503435 154.938374 
L 133.549325 149.757587 
L 133.694641 92.565619 
L 133.80554 67.069682 
L 133.85143 72.344458 
L 133.996746 129.655947 
L 134.103821 154.93586 
L 134.153535 149.541446 
L 134.302676 90.569289 
L 134.405927 67.066249 
L 134.45564 72.559595 
L 134.608605 133.078605 
L 134.708032 154.939589 
L 134.757745 149.44027 
L 134.91071 89.08842 
L 135.010137 67.071476 
L 135.059851 72.314652 
L 135.205167 128.799851 
L 135.319891 154.938953 
L 135.36578 150.145217 
L 135.518745 95.772127 
L 135.62582 74.218455 
L 135.667885 80.292855 
L 135.721423 92.976987 
L 135.782609 83.228094 
L 135.88586 67.063177 
L 135.935573 71.947823 
L 136.069417 121.55715 
L 136.199437 154.942102 
L 136.245327 150.132983 
L 136.382995 97.048839 
L 136.501543 67.071135 
L 136.551256 72.374974 
L 136.696572 129.553701 
L 136.807472 154.934527 
L 136.853361 149.644926 
L 136.998678 92.361785 
L 137.105753 67.069855 
L 137.155466 72.448094 
L 137.304607 131.41576 
L 137.407858 154.938958 
L 137.457572 149.437276 
L 137.610536 88.84464 
L 137.709963 67.064102 
L 137.759677 72.673286 
L 137.912641 133.297397 
L 138.012069 154.94166 
L 138.061782 149.301309 
L 138.218571 87.308244 
L 138.314174 67.065508 
L 138.363887 72.523941 
L 138.516852 132.449348 
L 138.620103 154.941534 
L 138.669817 149.589291 
L 138.826605 91.07773 
L 138.971922 67.063146 
L 139.002515 67.063275 
L 139.017811 67.247118 
L 139.082821 73.459817 
L 139.151655 68.21077 
L 139.182248 67.067828 
L 139.224313 70.310365 
L 139.331389 104.281193 
L 139.503474 154.93743 
L 139.545539 150.651492 
L 139.671735 103.377462 
L 139.805579 67.065979 
L 139.851469 71.715498 
L 139.985313 123.277781 
L 140.107684 154.936843 
L 140.153574 150.337685 
L 140.287418 98.687195 
L 140.40979 67.066525 
L 140.455679 71.737312 
L 140.589523 123.518931 
L 140.711895 154.941 
L 140.757784 150.157915 
L 140.895452 96.582978 
L 141.014 67.063156 
L 141.059889 71.952581 
L 141.197558 125.603217 
L 141.316105 154.942057 
L 141.361995 150.003111 
L 141.499663 96.410113 
L 141.61821 67.063207 
L 141.6641 71.891538 
L 141.801768 125.044767 
L 141.92414 154.938926 
L 141.970029 149.964709 
L 142.115346 95.074429 
L 142.241541 67.066328 
L 142.287431 69.786629 
L 142.348617 75.362692 
L 142.394506 69.972848 
L 142.44422 67.130404 
L 142.505405 69.265318 
L 142.59336 89.515285 
L 142.803686 154.941075 
L 142.861048 147.805897 
L 143.109616 67.063309 
L 143.205219 86.801169 
L 143.411721 154.940122 
L 143.469083 147.586851 
L 143.713826 67.064288 
L 143.809429 86.829656 
L 144.015931 154.941996 
L 144.073293 147.381444 
L 144.318037 67.063348 
L 144.409815 85.775542 
L 144.620142 154.940977 
L 144.677504 147.169826 
L 144.922247 67.063722 
L 145.014026 85.689482 
L 145.224352 154.938329 
L 145.285538 146.904156 
L 145.53793 67.063415 
L 145.637357 82.72624 
L 145.710015 96.170764 
L 145.755904 86.053404 
L 145.805618 76.212179 
L 145.866804 84.389361 
L 146.107723 154.936844 
L 146.191854 139.401408 
L 146.413652 67.063911 
L 146.478662 76.795997 
L 146.715758 154.941872 
L 146.799888 139.291847 
L 147.017863 67.063196 
L 147.082873 76.691949 
L 147.319968 154.941945 
L 147.404099 139.027599 
L 147.622073 67.064631 
L 147.687083 76.98957 
L 147.924178 154.938567 
L 148.004485 140.055837 
L 148.226284 67.066472 
L 148.291294 77.035153 
L 148.528389 154.942074 
L 148.612519 139.527939 
L 148.838142 67.063652 
L 148.903152 75.625116 
L 149.071413 122.189132 
L 149.128775 105.738912 
L 149.167016 97.515015 
L 149.228202 108.877455 
L 149.407936 154.94095 
L 149.461473 148.666298 
L 149.629734 83.298601 
L 149.717689 67.069001 
L 149.767403 73.080972 
L 149.93184 137.987691 
L 150.019794 154.941857 
L 150.069508 149.139358 
L 150.230121 85.509621 
L 150.321899 67.063325 
L 150.371613 72.886763 
L 150.532226 136.619442 
L 150.624005 154.940831 
L 150.673718 149.013762 
L 150.838155 83.793112 
L 150.92611 67.066974 
L 150.975823 73.117158 
L 151.144085 139.739651 
L 151.228215 154.934938 
L 151.277929 148.789866 
L 151.453838 79.640308 
L 151.53032 67.071056 
L 151.580034 73.212862 
L 151.755943 142.184918 
L 151.832425 154.9402 
L 151.885963 148.186237 
L 152.138355 67.063182 
L 152.237782 86.564598 
L 152.432812 144.277715 
L 152.482525 134.280989 
L 152.528415 123.555769 
L 152.589601 134.113306 
L 152.708148 154.937936 
L 152.757862 149.635791 
L 152.899354 96.085142 
L 153.017902 67.065836 
L 153.063791 71.653527 
L 153.197635 122.853637 
L 153.323831 154.939746 
L 153.36972 149.839971 
L 153.511213 94.452938 
L 153.625936 67.064771 
L 153.671826 72.15691 
L 153.813318 127.649041 
L 153.928041 154.938628 
L 153.973931 149.759849 
L 154.119247 92.540882 
L 154.230147 67.07036 
L 154.276036 72.363301 
L 154.421352 129.685257 
L 154.528428 154.936111 
L 154.578141 149.539966 
L 154.727282 90.614066 
L 154.830533 67.067671 
L 154.880246 72.49056 
L 155.029387 131.292367 
L 155.136462 154.934484 
L 155.182352 149.70491 
L 155.327668 93.08947 
L 155.438567 67.07005 
L 155.488281 72.132325 
L 155.637421 127.176176 
L 155.79421 154.677011 
L 155.817155 154.277872 
L 155.889813 145.186905 
L 155.958647 152.135588 
L 156.004537 154.936125 
L 156.050426 150.851227 
L 156.168974 110.044993 
L 156.321938 67.063259 
L 156.364004 71.138909 
L 156.486375 116.444755 
L 156.627868 154.935087 
L 156.669933 150.488704 
L 156.799953 100.840564 
L 156.929973 67.067664 
L 156.972038 71.476526 
L 157.102058 121.212192 
L 157.232078 154.935295 
L 157.274143 150.457682 
L 157.404163 100.587074 
L 157.530359 67.06928 
L 157.576248 71.655923 
L 157.710093 123.349202 
L 157.832464 154.939257 
L 157.878354 150.247078 
L 158.012198 98.475011 
L 158.134569 67.064662 
L 158.180459 71.803054 
L 158.314303 123.513742 
L 158.436675 154.938632 
L 158.482564 150.320664 
L 158.616408 99.075946 
L 158.742604 67.063097 
L 158.788493 71.78918 
L 158.926162 123.112023 
L 159.06383 154.938529 
L 159.105895 152.966516 
L 159.155609 149.733914 
L 159.201498 153.79184 
L 159.281804 154.941918 
L 159.312397 154.171777 
L 159.381231 142.999843 
L 159.625975 67.071389 
L 159.706281 81.685414 
L 159.92808 154.938053 
L 159.996914 144.619607 
L 160.230185 67.071394 
L 160.314316 82.188078 
L 160.53229 154.93567 
L 160.601125 144.616831 
L 160.834396 67.066207 
L 160.914702 81.178749 
L 161.136501 154.941222 
L 161.205335 144.308307 
L 161.438606 67.063255 
L 161.518913 81.435224 
L 161.740711 154.941583 
L 161.809545 144.359557 
L 162.046641 67.067897 
L 162.126947 81.57111 
L 162.360218 154.939466 
L 162.429052 146.74093 
L 162.517007 131.184958 
L 162.562896 140.646379 
L 162.61261 149.044088 
L 162.673796 141.936643 
L 162.926187 67.06316 
L 163.02179 86.270435 
L 163.232117 154.941644 
L 163.289478 147.540728 
L 163.534222 67.066948 
L 163.629825 86.553382 
L 163.836327 154.93899 
L 163.893689 147.626671 
L 164.138432 67.064175 
L 164.234035 86.855872 
L 164.440538 154.942063 
L 164.497899 147.36282 
L 164.742643 67.063278 
L 164.834422 85.725023 
L 165.044748 154.941988 
L 165.10211 147.326683 
L 165.346853 67.066345 
L 165.442456 86.171827 
L 165.656607 154.939156 
L 165.713968 148.656469 
L 165.878405 105.546226 
L 165.935767 122.148949 
L 165.974008 129.915041 
L 166.035194 118.817108 
L 166.2264 67.064684 
L 166.287586 74.841048 
L 166.536153 154.941444 
L 166.627932 136.422938 
L 166.838259 67.064089 
L 166.899444 75.471797 
L 167.140364 154.941153 
L 167.228318 138.001456 
L 167.442469 67.063193 
L 167.503655 75.636156 
L 167.744574 154.94182 
L 167.832529 137.629067 
L 168.046679 67.064603 
L 168.107865 75.89461 
L 168.348785 154.940319 
L 168.436739 137.540537 
L 168.65089 67.063141 
L 168.712076 75.490652 
L 168.956819 154.936312 
L 169.048598 138.711494 
L 169.239804 81.824283 
L 169.289517 93.018118 
L 169.335407 104.142329 
L 169.396592 92.947963 
L 169.526612 67.063787 
L 169.576326 72.034249 
L 169.713994 123.775551 
L 169.84019 154.935829 
L 169.886079 149.779814 
L 170.027572 94.645561 
L 170.142295 67.063097 
L 170.188185 71.959822 
L 170.325853 125.510177 
L 170.4444 154.942077 
L 170.49029 150.047779 
L 170.627958 96.391347 
L 170.746506 67.063277 
L 170.792395 72.046299 
L 170.933887 127.467603 
L 171.048611 154.940519 
L 171.0945 149.842915 
L 171.235993 94.312669 
L 171.350716 67.067129 
L 171.396605 72.260751 
L 171.541922 129.434483 
L 171.652821 154.936914 
L 171.698711 149.724418 
L 171.844027 92.682273 
L 171.954926 67.064537 
L 172.000816 72.080093 
L 172.142308 126.856516 
L 172.260856 154.940672 
L 172.306745 150.155019 
L 172.452062 97.237254 
L 172.601202 68.352278 
L 172.631795 69.928381 
L 172.696805 80.779486 
L 172.761815 72.82143 
L 172.823001 67.065967 
L 172.876538 72.164708 
L 173.010383 121.372852 
L 173.140403 154.940312 
L 173.186292 150.334785 
L 173.320136 99.215665 
L 173.446332 67.064362 
L 173.492221 72.101932 
L 173.633714 127.397195 
L 173.748437 154.941649 
L 173.794326 149.936229 
L 173.935819 94.541923 
L 174.050542 67.06446 
L 174.096432 72.147731 
L 174.237924 127.666437 
L 174.352647 154.938174 
L 174.398537 149.741833 
L 174.543853 92.507693 
L 174.654753 67.070785 
L 174.700642 72.370016 
L 174.845958 129.658513 
L 174.953034 154.934715 
L 175.002747 149.592933 
L 175.151888 90.825248 
L 175.258963 67.069221 
L 175.304852 72.271876 
L 175.450169 128.973986 
L 175.561068 154.938947 
L 175.610782 149.68493 
L 175.763746 91.945997 
L 175.889942 67.064871 
L 175.932008 68.749499 
L 175.9626 69.862649 
L 176.012314 67.124486 
L 176.111741 67.063568 
L 176.058203 68.033571 
L 176.119389 67.134747 
L 176.161455 70.356971 
L 176.264706 101.268493 
L 176.444439 154.941024 
L 176.490329 150.0594 
L 176.627997 97.138601 
L 176.750368 67.068439 
L 176.796258 72.256454 
L 176.941574 129.260427 
L 177.052474 154.939725 
L 177.098363 149.819748 
L 177.239855 94.32652 
L 177.354579 67.06679 
L 177.400468 72.251356 
L 177.545785 129.468343 
L 177.656684 154.934785 
L 177.702573 149.640169 
L 177.84789 92.310593 
L 177.954965 67.068756 
L 178.004679 72.478129 
L 178.153819 131.439302 
L 178.25707 154.93865 
L 178.306784 149.465986 
L 178.455924 90.556964 
L 178.559176 67.068099 
L 178.608889 72.448443 
L 178.75803 130.982125 
L 178.865105 154.941868 
L 178.914818 149.299982 
L 179.075431 87.53753 
L 179.178682 67.066244 
L 179.228396 71.024154 
L 179.323999 85.824751 
L 179.369888 77.216786 
L 179.419602 70.382122 
L 179.480788 76.273318 
L 179.62228 125.733163 
L 179.744652 154.939043 
L 179.790541 150.497368 
L 179.920561 101.66421 
L 180.050581 67.068166 
L 180.09647 71.623912 
L 180.230314 122.997916 
L 180.35651 154.936107 
L 180.4024 149.697446 
L 180.547716 92.505536 
L 180.658616 67.070329 
L 180.704505 72.357569 
L 180.849821 129.665144 
L 180.956897 154.935975 
L 181.00661 149.537644 
L 181.155751 90.550372 
L 181.259002 67.065781 
L 181.308715 72.585455 
L 181.46168 133.173488 
L 181.561107 154.941046 
L 181.610821 149.342729 
L 181.763785 88.781136 
L 181.863212 67.064443 
L 181.912926 72.612933 
L 182.06589 132.89435 
L 182.169142 154.936385 
L 182.215031 149.813462 
L 182.360347 93.914785 
L 182.478895 67.064649 
L 182.524784 71.397605 
L 182.685397 110.631326 
L 182.746583 92.759841 
L 182.781 87.000197 
L 182.842186 97.631727 
L 183.048688 154.937577 
L 183.109874 146.524652 
L 183.354618 67.063732 
L 183.446396 85.207277 
L 183.656723 154.935917 
L 183.717909 146.789642 
L 183.958828 67.068984 
L 184.050607 85.058051 
L 184.260933 154.939049 
L 184.322119 146.620125 
L 184.563038 67.063916 
L 184.654817 85.440793 
L 184.865144 154.942053 
L 184.92633 146.368323 
L 185.167249 67.06312 
L 185.255204 84.109759 
L 185.469354 154.938823 
L 185.534364 145.76913 
L 185.779108 67.064269 
L 185.867062 82.638112 
L 186.046796 135.568282 
L 186.096509 123.358024 
L 186.142399 112.050105 
L 186.203584 123.694819 
L 186.348901 154.938334 
L 186.398614 149.509351 
L 186.543931 93.905284 
L 186.658654 67.063817 
L 186.704544 72.002192 
L 186.842212 125.300644 
L 186.960759 154.939926 
L 187.006649 150.246464 
L 187.140493 98.572707 
L 187.262865 67.065721 
L 187.308754 71.761813 
L 187.442598 123.542852 
L 187.56497 154.941074 
L 187.610859 150.154247 
L 187.748527 96.574688 
L 187.867075 67.063128 
L 187.912964 71.964893 
L 188.050633 125.658779 
L 188.16918 154.941788 
L 188.21507 149.945341 
L 188.356562 94.572949 
L 188.471286 67.063737 
L 188.517175 72.074581 
L 188.658667 127.307406 
L 188.773391 154.941969 
L 188.81928 150.141818 
L 188.956948 97.250683 
L 189.07932 67.063671 
L 189.125209 71.569415 
L 189.266702 122.28242 
L 189.408194 151.875802 
L 189.442611 148.874535 
L 189.503797 136.732074 
L 189.564983 145.292034 
L 189.645289 154.942008 
L 189.695003 150.230731 
L 189.825023 102.871435 
L 189.962691 67.070668 
L 190.004756 71.452081 
L 190.134776 120.652684 
L 190.264796 154.941947 
L 190.310686 150.108954 
L 190.448354 96.654308 
L 190.566901 67.063718 
L 190.612791 71.870584 
L 190.750459 125.424099 
L 190.869007 154.942029 
L 190.914896 150.054902 
L 191.052564 96.372173 
L 191.171112 67.063395 
L 191.217001 72.064234 
L 191.358493 127.500948 
L 191.473217 154.940336 
L 191.519106 149.837563 
L 191.660599 94.342939 
L 191.775322 67.066012 
L 191.821212 72.204985 
L 191.966528 129.210084 
L 192.077427 154.94123 
L 192.123317 149.949637 
L 192.264809 95.079921 
L 192.383357 67.067899 
L 192.429246 72.053188 
L 192.574562 126.321358 
L 192.712231 154.939556 
L 192.754296 154.025131 
L 192.865195 152.375509 
L 192.811658 154.941643 
L 192.891964 153.264763 
L 192.937854 154.939357 
L 192.979919 152.136819 
L 193.079346 123.071612 
L 193.262903 67.063702 
L 193.308793 71.712078 
L 193.442637 122.752665 
L 193.568833 154.941509 
L 193.614722 149.959717 
L 193.756214 94.755399 
L 193.870938 67.063102 
L 193.916827 71.984067 
L 194.054496 125.642867 
L 194.173043 154.941875 
L 194.218933 149.953455 
L 194.360425 94.533706 
L 194.475148 67.064707 
L 194.521038 72.16411 
L 194.66253 127.702634 
L 194.777254 154.937763 
L 194.823143 149.730977 
L 194.968459 92.519628 
L 195.079359 67.069734 
L 195.125248 72.33076 
L 195.270565 129.487441 
L 195.381464 154.937601 
L 195.427353 149.773112 
L 195.57267 93.017571 
L 195.683569 67.064623 
L 195.733283 72.446885 
L 195.886247 130.97465 
L 196.000971 154.942021 
L 196.04686 151.614955 
L 196.130991 140.732502 
L 196.17688 148.300588 
L 196.226594 153.48492 
L 196.28778 148.937189 
L 196.402503 112.993573 
L 196.56694 67.067211 
L 196.609005 71.27083 
L 196.735201 118.159254 
L 196.872869 154.937923 
L 196.914935 150.582517 
L 197.044955 101.127893 
L 197.174975 67.06404 
L 197.220864 72.103108 
L 197.362356 127.500262 
L 197.47708 154.940559 
L 197.522969 149.849524 
L 197.664462 94.332844 
L 197.779185 67.067068 
L 197.825074 72.264796 
L 197.970391 129.504243 
L 198.08129 154.934114 
L 198.12718 149.625216 
L 198.272496 92.30711 
L 198.379571 67.069269 
L 198.429285 72.452771 
L 198.578425 131.311995 
L 198.681677 154.93501 
L 198.73139 149.608986 
L 198.880531 91.049474 
L 198.987606 67.063636 
L 199.033495 71.957164 
L 199.174988 125.959692 
L 199.297359 154.939976 
L 199.343249 151.025671 
L 199.492389 117.196191 
L 199.549751 133.185374 
L 199.587992 139.670501 
L 199.649178 129.70251 
L 199.867153 67.063099 
L 199.935987 77.217845 
L 200.173082 154.936351 
L 200.257213 139.878909 
L 200.479011 67.066756 
L 200.544021 77.073465 
L 200.781116 154.938009 
L 200.861423 140.009316 
L 201.083222 67.070492 
L 201.148232 77.271595 
L 201.381503 154.936613 
L 201.465633 139.652415 
L 201.683608 67.065901 
L 201.752442 77.540508 
L 201.985713 154.939407 
L 202.06602 140.895106 
L 202.291642 67.069001 
L 202.360477 78.126295 
L 202.597572 154.94075 
L 202.677878 142.362066 
L 202.853788 91.484276 
L 202.907325 106.20975 
L 202.949391 115.78513 
L 203.010576 103.888046 
L 203.167365 67.063511 
L 203.220903 72.994046 
L 203.377692 133.747016 
L 203.477119 154.941469 
L 203.526832 149.407857 
L 203.679797 89.199383 
L 203.783048 67.071554 
L 203.828937 72.362251 
L 203.974254 129.558469 
L 204.085153 154.934129 
L 204.131043 149.63242 
L 204.276359 92.327356 
L 204.383434 67.069115 
L 204.433148 72.469738 
L 204.582288 131.457859 
L 204.685539 154.939496 
L 204.735253 149.414843 
L 204.888218 88.809406 
L 204.987645 67.063881 
L 205.037358 72.688268 
L 205.190323 133.308681 
L 205.28975 154.941642 
L 205.339463 149.308599 
L 205.496252 87.362954 
L 205.591855 67.066853 
L 205.641569 72.452194 
L 205.790709 130.637601 
L 205.897784 154.934547 
L 205.947498 149.968969 
L 206.100462 95.093645 
L 206.215186 72.628645 
L 206.257251 78.618819 
L 206.310789 90.21963 
L 206.371975 80.576911 
L 206.467578 67.065435 
L 206.517291 72.152411 
L 206.654959 123.526001 
L 206.781155 154.941008 
L 206.827045 149.99817 
L 206.964713 96.783047 
L 207.08326 67.06675 
L 207.12915 71.695005 
L 207.262994 123.269373 
L 207.385366 154.937044 
L 207.431255 150.329074 
L 207.565099 98.655628 
L 207.687471 67.066034 
L 207.73336 71.756595 
L 207.867204 123.563746 
L 207.989576 154.941311 
L 208.035465 150.136458 
L 208.173134 96.541344 
L 208.291681 67.06311 
L 208.337571 71.968859 
L 208.475239 125.624852 
L 208.593786 154.942047 
L 208.639676 150.003907 
L 208.777344 96.443867 
L 208.895892 67.06347 
L 208.941781 71.842783 
L 209.079449 124.83441 
L 209.201821 154.941981 
L 209.24771 150.216968 
L 209.389203 98.004543 
L 209.542167 67.063322 
L 209.576584 67.252692 
L 209.603353 67.063445 
L 209.614826 67.295664 
L 209.672187 71.955122 
L 209.733373 67.971414 
L 209.760142 67.063178 
L 209.802207 69.97303 
L 209.905458 101.415554 
L 210.081368 154.935483 
L 210.127257 150.519304 
L 210.257277 101.395137 
L 210.387297 67.063681 
L 210.433186 71.839138 
L 210.570855 125.199239 
L 210.689402 154.940159 
L 210.735292 150.218535 
L 210.869136 98.434037 
L 210.991507 67.064027 
L 211.037397 71.855881 
L 211.175065 125.43427 
L 211.293613 154.942075 
L 211.339502 150.038369 
L 211.47717 96.335543 
L 211.595718 67.063508 
L 211.641607 72.07391 
L 211.7831 127.486259 
L 211.897823 154.940865 
L 211.943712 149.879317 
L 212.085205 94.524677 
L 212.199928 67.063454 
L 212.245818 72.019271 
L 212.38731 126.946456 
L 212.505858 154.934084 
L 212.551747 149.814042 
L 212.697063 94.69331 
L 212.823259 67.063522 
L 212.869149 70.187578 
L 212.937983 77.244753 
L 212.983872 70.887859 
L 213.033586 67.407968 
L 213.094772 70.506968 
L 213.194199 97.190167 
L 213.385404 154.942091 
L 213.435118 149.415334 
L 213.584258 91.191866 
L 213.691334 67.063331 
L 213.741047 72.828898 
L 213.897836 134.859242 
L 213.993439 154.941849 
L 214.043152 149.274724 
L 214.199941 87.139733 
L 214.295544 67.063138 
L 214.345258 72.7909 
L 214.502046 135.031014 
L 214.597649 154.941794 
L 214.647363 149.097632 
L 214.807976 85.325152 
L 214.899755 67.06502 
L 214.949468 73.028149 
L 215.113905 138.239556 
L 215.20186 154.938276 
L 215.251573 148.904491 
L 215.419834 82.399475 
L 215.503965 67.066029 
L 215.553678 73.029522 
L 215.718115 137.878164 
L 215.80607 154.941231 
L 215.859608 148.616529 
L 216.119648 67.064373 
L 216.226723 85.553827 
L 216.299381 99.094855 
L 216.345271 88.055488 
L 216.394984 78.175659 
L 216.45617 87.291424 
L 216.685617 154.937337 
L 216.765923 141.693007 
L 216.99537 67.066571 
L 217.068029 79.277354 
L 217.297476 154.94192 
L 217.370134 142.908822 
L 217.599581 67.063426 
L 217.676063 80.396198 
L 217.901686 154.940459 
L 217.97052 143.869467 
L 218.203791 67.067605 
L 218.280273 80.737948 
L 218.505896 154.934414 
L 218.57473 143.596866 
L 218.808002 67.070668 
L 218.884484 80.78306 
L 219.110107 154.941444 
L 219.178941 144.207277 
L 219.41986 67.067624 
L 219.500167 80.112324 
L 219.66078 125.127716 
L 219.710493 111.518789 
L 219.756382 100.475557 
L 219.817568 112.418972 
L 219.989654 154.936081 
L 220.039367 149.328713 
L 220.188508 91.73395 
L 220.295583 67.069009 
L 220.345296 72.369379 
L 220.490613 129.305367 
L 220.601512 154.940112 
L 220.647402 149.850943 
L 220.788894 94.446815 
L 220.903617 67.064973 
L 220.949507 72.169746 
L 221.090999 127.684678 
L 221.205723 154.938053 
L 221.251612 149.738431 
L 221.396928 92.497715 
L 221.507828 67.071237 
L 221.553717 72.385214 
L 221.699034 129.721996 
L 221.806109 154.936655 
L 221.855822 149.525757 
L 222.004963 90.603511 
L 222.108214 67.067764 
L 222.157928 72.482016 
L 222.307068 131.233169 
L 222.414143 154.936624 
L 222.460033 149.779749 
L 222.605349 93.39891 
L 222.720073 67.063952 
L 222.765962 71.732687 
L 222.915103 124.283245 
L 223.022178 146.198867 
L 223.064243 139.040822 
L 223.117781 126.473681 
L 223.178967 137.04816 
L 223.286042 154.939381 
L 223.335755 150.204394 
L 223.465775 102.337749 
L 223.59962 67.063512 
L 223.645509 71.78472 
L 223.779353 123.123053 
L 223.905549 154.936068 
L 223.951438 149.712293 
L 224.096755 92.604815 
L 224.207654 67.067888 
L 224.253543 72.281312 
L 224.39886 129.493819 
L 224.509759 154.934543 
L 224.555649 149.635593 
L 224.700965 92.303528 
L 224.80804 67.068508 
L 224.857754 72.488746 
L 225.006894 131.486737 
L 225.110146 154.939671 
L 225.159859 149.41256 
L 225.312824 88.852134 
L 225.412251 67.064624 
L 225.461964 72.620757 
L 225.614929 133.05957 
L 225.714356 154.937433 
L 225.764069 149.569651 
L 225.91321 91.257478 
L 226.020285 67.065402 
L 226.069999 72.298726 
L 226.222963 129.126696 
L 226.383576 154.906792 
L 226.402697 154.759686 
L 226.440938 150.88389 
L 226.479179 147.036777 
L 226.540365 152.512873 
L 226.58243 154.942103 
L 226.632144 150.617961 
L 226.754516 107.992486 
L 226.903656 67.065204 
L 226.945721 71.266988 
L 227.071917 118.444204 
L 227.205761 154.936833 
L 227.251651 150.367812 
L 227.385495 98.891372 
L 227.507867 67.071278 
L 227.553756 71.593245 
L 227.683776 121.468662 
L 227.809972 154.936308 
L 227.855861 150.341425 
L 227.989705 98.643531 
L 228.112077 67.065667 
L 228.157966 71.773209 
L 228.29181 123.600659 
L 228.414182 154.941463 
L 228.460072 150.127987 
L 228.59774 96.558928 
L 228.716287 67.06322 
L 228.762177 71.924608 
L 228.899845 125.432426 
L 229.018393 154.941238 
L 229.064282 150.195177 
L 229.20195 97.141532 
L 229.324322 67.064246 
L 229.370211 71.938038 
L 229.511704 125.088429 
L 229.645548 154.94131 
L 229.687613 152.564852 
L 229.744975 148.192785 
L 229.790864 153.186086 
L 229.848226 154.9421 
L 229.901763 153.371628 
L 229.98207 136.796656 
L 230.203869 67.066269 
L 230.268879 76.060336 
L 230.509798 154.940959 
L 230.597753 138.172062 
L 230.811903 67.06701 
L 230.876913 76.364467 
L 231.114008 154.939386 
L 231.201963 138.148249 
L 231.416114 67.063871 
L 231.481124 76.59848 
L 231.718219 154.942101 
L 231.802349 139.138903 
L 232.020324 67.063344 
L 232.085334 76.826749 
L 232.322429 154.942062 
L 232.40656 139.21597 
L 232.624534 67.069932 
L 232.689544 75.991235 
L 232.938112 154.938464 
L 233.033715 140.887705 
L 233.106373 128.415303 
L 233.152262 138.84084 
L 233.201976 147.409134 
L 233.263162 139.32224 
L 233.507905 67.065183 
L 233.59586 83.760906 
L 233.813835 154.942025 
L 233.878845 145.321892 
L 234.11594 67.064211 
L 234.20007 82.584557 
L 234.418045 154.941338 
L 234.483055 145.416117 
L 234.72015 67.06312 
L 234.804281 82.85161 
L 235.022255 154.941634 
L 235.087265 145.119483 
L 235.324361 67.064837 
L 235.404667 81.823971 
L 235.626466 154.940527 
L 235.691476 145.08068 
L 235.928571 67.063762 
L 236.012702 82.322643 
L 236.238324 154.94202 
L 236.303334 146.619738 
L 236.467771 102.521461 
L 236.521309 118.165215 
L 236.563374 127.08745 
L 236.62456 115.308172 
L 236.808118 67.063103 
L 236.86548 74.097718 
L 237.117871 154.938904 
L 237.213474 134.749315 
L 237.419976 67.063103 
L 237.477338 74.62288 
L 237.722082 154.942096 
L 237.81386 136.385492 
L 238.024187 67.063426 
L 238.081549 74.773328 
L 238.326292 154.940098 
L 238.418071 136.000679 
L 238.628397 67.067582 
L 238.685759 75.022396 
L 238.930502 154.937063 
L 239.022281 135.905969 
L 239.232608 67.063664 
L 239.289969 74.662633 
L 239.538537 154.940747 
L 239.63414 137.057827 
L 239.82917 79.60674 
L 239.875059 89.329242 
L 239.924773 101.114965 
L 239.985959 89.779117 
L 240.10833 67.063705 
L 240.158044 72.224772 
L 240.295712 124.086934 
L 240.418084 154.93671 
L 240.463973 150.43663 
L 240.593993 101.010924 
L 240.724013 67.063995 
L 240.769903 72.084885 
L 240.911395 127.395756 
L 241.026118 154.941569 
L 241.072008 149.925743 
L 241.2135 94.508972 
L 241.328224 67.064812 
L 241.374113 72.168287 
L 241.515605 127.710144 
L 241.630329 154.937514 
L 241.676218 149.719693 
L 241.821535 92.468946 
L 241.932434 67.071488 
L 241.978323 72.385951 
L 242.127464 131.242674 
L 242.230715 154.934759 
L 242.280429 149.596427 
L 242.429569 90.868647 
L 242.536644 67.067713 
L 242.582534 72.213171 
L 242.72785 128.730778 
L 242.842574 154.936647 
L 242.888463 149.989855 
L 243.037604 95.233906 
L 243.190568 67.720097 
L 243.217337 68.715737 
L 243.286171 78.616076 
L 243.351181 71.188156 
L 243.404719 67.063397 
L 243.454432 71.664375 
L 243.580628 116.737253 
L 243.72212 154.942014 
L 243.76801 150.200342 
L 243.901854 98.942773 
L 244.02805 67.067314 
L 244.073939 72.229697 
L 244.219256 129.248722 
L 244.330155 154.939635 
L 244.376044 149.812533 
L 244.517537 94.297808 
L 244.63226 67.067316 
L 244.67815 72.270986 
L 244.823466 129.510457 
L 244.934365 154.93389 
L 244.980255 149.617531 
L 245.125571 92.270042 
L 245.232646 67.068127 
L 245.28236 72.496172 
L 245.431501 131.461396 
L 245.534752 154.938796 
L 245.584465 149.46416 
L 245.73743 89.055884 
L 245.836857 67.06916 
L 245.88657 72.405085 
L 246.035711 130.802216 
L 246.142786 154.941603 
L 246.1925 149.525761 
L 246.349288 90.088192 
L 246.467836 67.06314 
L 246.513725 69.249796 
L 246.551967 71.036732 
L 246.597856 67.536996 
L 246.613153 67.063252 
L 246.708755 67.479523 
L 246.766117 74.888975 
L 246.942027 140.413589 
L 247.026157 154.937568 
L 247.075871 149.087635 
L 247.232659 87.498247 
L 247.328262 67.069955 
L 247.377976 72.387311 
L 247.523292 129.505666 
L 247.634192 154.936132 
L 247.680081 149.694269 
L 247.825397 92.481991 
L 247.936297 67.070989 
L 247.982186 72.375929 
L 248.127503 129.705866 
L 248.234578 154.936738 
L 248.284291 149.514763 
L 248.433432 90.509471 
L 248.536683 67.065326 
L 248.586397 72.605258 
L 248.739361 133.199558 
L 248.838788 154.941178 
L 248.888502 149.336396 
L 249.041466 88.794958 
L 249.140893 67.064817 
L 249.190607 72.581974 
L 249.343572 132.761708 
L 249.446823 154.939822 
L 249.496536 149.144546 
L 249.660973 85.819405 
L 249.7604 67.063121 
L 249.810114 71.363058 
L 249.913365 88.391579 
L 249.959254 78.792323 
L 250.008968 71.658623 
L 250.070154 78.555465 
L 250.242239 140.176617 
L 250.32637 154.94177 
L 250.379907 148.71361 
L 250.551992 81.607599 
L 250.632299 67.064779 
L 250.685837 73.433434 
L 250.934404 154.935669 
L 251.037655 132.619792 
L 251.236509 67.068492 
L 251.290047 73.355716 
L 251.477429 146.031562 
L 251.538615 154.93957 
L 251.592152 148.530611 
L 251.84072 67.063664 
L 251.940147 88.401184 
L 252.142825 154.942085 
L 252.196363 148.319052 
L 252.44493 67.063156 
L 252.544357 88.374389 
L 252.747035 154.936086 
L 252.804397 147.9145 
L 252.9 111.8659 
L 252.9 111.8659 
" clip-path="url(#pe0f55d049b)" style="fill: none; stroke: #000000; stroke-width: 1.5; stroke-linecap: square"/>
   </g>
   <g id="line2d_9">
    <path d="M 61.698 50.745377 
L 61.724769 23.844545 
L 61.774482 94.748282 
L 61.896854 155.135455 
L 61.927447 152.29343 
L 62.034522 111.852187 
L 62.179839 67.071343 
L 62.225728 71.844708 
L 62.363396 126.588392 
L 62.47812 154.941566 
L 62.524009 149.78639 
L 62.669326 91.889018 
L 62.776401 67.06394 
L 62.82229 72.210394 
L 62.967607 129.949144 
L 63.074682 154.942103 
L 63.124395 149.081645 
L 63.285008 84.81219 
L 63.372963 67.06469 
L 63.426501 73.628921 
L 63.671244 154.935456 
L 63.770671 133.730673 
L 63.973349 67.068668 
L 64.026887 74.225402 
L 64.27163 154.937161 
L 64.363409 135.336857 
L 64.566087 67.064895 
L 64.623449 74.814606 
L 64.85672 154.940919 
L 64.944675 132.909445 
L 65.067047 67.114957 
L 65.112936 104.349455 
L 65.212363 154.932089 
L 65.258252 147.425579 
L 65.487699 67.064675 
L 65.57183 84.039943 
L 65.782156 154.942064 
L 65.843342 146.040354 
L 66.080437 67.063664 
L 66.164568 83.355689 
L 66.378719 154.942103 
L 66.443729 145.086437 
L 66.677 67.064662 
L 66.76113 82.840492 
L 66.975281 154.935426 
L 67.040291 145.567673 
L 67.277386 67.068226 
L 67.361517 83.687116 
L 67.575667 154.93855 
L 67.636853 145.773089 
L 67.870124 67.06906 
L 67.958079 84.369043 
L 68.164581 154.939423 
L 68.225767 144.697995 
L 68.401676 67.065462 
L 68.45139 101.430905 
L 68.531696 154.924859 
L 68.589058 140.958978 
L 68.791736 67.065061 
L 68.852922 76.079924 
L 69.086193 154.941875 
L 69.170324 138.76912 
L 69.384474 67.063393 
L 69.449484 77.060259 
L 69.682755 154.9421 
L 69.763062 140.215838 
L 69.981036 67.064643 
L 70.04987 77.8105 
L 70.279317 154.935437 
L 70.359624 140.784109 
L 70.581423 67.06791 
L 70.650257 78.506524 
L 70.879704 154.939496 
L 70.956186 141.083755 
L 71.177985 67.070394 
L 71.246819 78.807177 
L 71.468618 154.937098 
L 71.5451 140.794586 
L 71.732482 67.07793 
L 71.786019 93.027545 
L 71.858677 154.933006 
L 71.927512 129.940271 
L 72.099597 67.064246 
L 72.145486 72.651425 
L 72.306099 138.176802 
L 72.39023 154.940344 
L 72.443767 148.259291 
L 72.688511 67.063176 
L 72.784114 87.587806 
L 72.986792 154.942087 
L 73.044154 147.215497 
L 73.285073 67.064637 
L 73.376852 85.642708 
L 73.583354 154.935475 
L 73.64454 146.630095 
L 73.885459 67.067693 
L 73.973414 85.046661 
L 74.18374 154.940145 
L 74.244926 145.884783 
L 74.482021 67.067133 
L 74.566152 83.843067 
L 74.776478 154.94075 
L 74.837664 145.424304 
L 75.051815 67.066813 
L 75.120649 91.707487 
L 75.193307 154.937088 
L 75.262141 120.612554 
L 75.407458 67.06678 
L 75.445699 71.259468 
L 75.575719 123.413062 
L 75.694266 154.936291 
L 75.74398 149.300245 
L 75.900769 86.129149 
L 75.992547 67.063099 
L 76.042261 72.953902 
L 76.206698 138.781526 
L 76.290828 154.942055 
L 76.344366 148.197125 
L 76.58911 67.06465 
L 76.688537 88.605252 
L 76.887391 154.935531 
L 76.944752 147.632736 
L 77.189496 67.067553 
L 77.281275 86.477166 
L 77.487777 154.940592 
L 77.545139 146.969038 
L 77.786058 67.065221 
L 77.874013 85.077915 
L 78.080515 154.941377 
L 78.141701 145.940113 
L 78.3635 67.066092 
L 78.443806 89.170097 
L 78.535585 154.931911 
L 78.592947 116.325772 
L 78.715318 67.063162 
L 78.757384 72.139497 
L 78.910348 135.82071 
L 79.002127 154.93707 
L 79.051841 148.564896 
L 79.296584 67.063307 
L 79.396011 88.974368 
L 79.594865 154.941987 
L 79.648403 148.211939 
L 79.893146 67.064688 
L 79.992573 88.605403 
L 80.191427 154.935593 
L 80.248789 147.630957 
L 80.493533 67.067471 
L 80.585311 86.466619 
L 80.791814 154.9409 
L 80.849175 146.997968 
L 81.090095 67.064129 
L 81.181873 86.379516 
L 81.384552 154.936518 
L 81.445738 146.306417 
L 81.675185 67.064931 
L 81.759315 87.92406 
L 81.877863 154.9127 
L 81.923752 118.727499 
L 82.027003 67.064503 
L 82.072893 73.683412 
L 82.306164 154.941925 
L 82.397943 135.294781 
L 82.600621 67.064038 
L 82.657982 74.722817 
L 82.898902 154.941856 
L 82.990681 136.123541 
L 83.197183 67.06476 
L 83.258369 75.605921 
L 83.495464 154.935651 
L 83.583419 138.089834 
L 83.797569 67.067437 
L 83.858755 76.203791 
L 84.09585 154.941112 
L 84.179981 138.609782 
L 84.394131 67.063535 
L 84.459141 77.115313 
L 84.692412 154.93586 
L 84.772719 139.264383 
L 84.983045 67.064949 
L 85.048055 78.65795 
L 85.216316 154.915379 
L 85.262206 120.708798 
L 85.346336 67.069695 
L 85.403698 80.012207 
L 85.6102 154.937841 
L 85.67521 144.960331 
L 85.904657 67.065694 
L 85.984964 81.622727 
L 86.202938 154.941619 
L 86.271773 144.040483 
L 86.50122 67.064876 
L 86.581526 81.506913 
L 86.799501 154.935695 
L 86.868335 144.443838 
L 87.101606 67.067437 
L 87.181912 82.253188 
L 87.399887 154.941257 
L 87.464897 144.901657 
L 87.698168 67.06324 
L 87.778474 81.964929 
L 87.996449 154.939611 
L 88.061459 144.591552 
L 88.287082 67.071158 
L 88.367388 82.595657 
L 88.547122 154.925343 
L 88.596835 129.615925 
L 88.669494 67.081347 
L 88.738328 89.06314 
L 88.918061 154.941656 
L 88.963951 149.445143 
L 89.120739 85.500772 
L 89.208694 67.068955 
L 89.262232 73.568982 
L 89.506975 154.941207 
L 89.606402 133.221815 
L 89.805256 67.065049 
L 89.862618 74.576896 
L 90.103537 154.935714 
L 90.19914 135.220998 
L 90.405642 67.067463 
L 90.463004 75.153029 
L 90.703924 154.941353 
L 90.791878 137.261751 
L 91.002205 67.06312 
L 91.06339 75.898987 
L 91.300486 154.941376 
L 91.384616 138.418516 
L 91.594943 67.063238 
L 91.656129 76.476568 
L 91.866455 154.939343 
L 91.935289 128.771699 
L 92.004123 67.090796 
L 92.072957 98.372875 
L 92.225922 154.938291 
L 92.264163 150.784124 
L 92.390359 100.578449 
L 92.516555 67.069755 
L 92.562444 72.547856 
L 92.715409 134.095898 
L 92.811012 154.940513 
L 92.860725 149.231749 
L 93.017514 86.357279 
L 93.109293 67.065299 
L 93.159006 72.711797 
L 93.315795 135.433009 
L 93.407574 154.935696 
L 93.461112 148.570462 
L 93.709679 67.067506 
L 93.809106 89.459241 
L 94.00796 154.941415 
L 94.061498 148.039344 
L 94.306241 67.063097 
L 94.401844 87.48975 
L 94.604522 154.942027 
L 94.661884 147.061801 
L 94.898979 67.066231 
L 94.990758 86.444622 
L 95.181964 154.942084 
L 95.239326 143.058678 
L 95.346401 67.070477 
L 95.415235 111.724722 
L 95.533783 154.941616 
L 95.575848 149.842655 
L 95.728813 86.375069 
L 95.820591 67.064718 
L 95.870305 73.281916 
L 96.115048 154.939372 
L 96.214475 133.344037 
L 96.413329 67.065653 
L 96.470691 74.552037 
L 96.711611 154.93563 
L 96.807213 135.218827 
L 97.013716 67.067556 
L 97.071077 75.155834 
L 97.311997 154.941451 
L 97.399951 137.287958 
L 97.610278 67.063124 
L 97.671464 75.825843 
L 97.908559 154.942068 
L 97.996514 137.35431 
L 98.20684 67.07026 
L 98.268026 76.632267 
L 98.493649 154.938876 
L 98.570131 136.957482 
L 98.688679 67.081009 
L 98.738392 105.916259 
L 98.845468 154.940194 
L 98.891357 148.172531 
L 99.124628 67.0633 
L 99.216407 86.459595 
L 99.419085 154.937516 
L 99.476447 147.480985 
L 99.717366 67.066151 
L 99.812969 87.036628 
L 100.015647 154.9355 
L 100.073009 147.627788 
L 100.317752 67.067606 
L 100.409531 86.46058 
L 100.616033 154.941467 
L 100.673395 147.069491 
L 100.914315 67.063171 
L 101.006093 85.924718 
L 101.212596 154.941791 
L 101.273781 146.204967 
L 101.510877 67.065146 
L 101.595007 83.912645 
L 101.80151 154.940715 
L 101.862695 144.516584 
L 102.027132 67.063152 
L 102.076846 105.980836 
L 102.160976 154.941916 
L 102.214514 144.416882 
L 102.428665 67.070771 
L 102.501323 79.262054 
L 102.723122 154.93452 
L 102.799604 141.927644 
L 103.021403 67.066851 
L 103.094061 78.901972 
L 103.319684 154.935291 
L 103.396166 142.052512 
L 103.621789 67.067647 
L 103.694447 79.68676 
L 103.92007 154.94147 
L 103.992728 142.591966 
L 104.218351 67.063222 
L 104.291009 79.198472 
L 104.516632 154.941372 
L 104.593115 141.605414 
L 104.814913 67.063312 
L 104.883747 78.382177 
L 105.10937 154.934165 
L 105.182029 140.820811 
L 105.357938 67.085187 
L 105.411476 96.57916 
L 105.484134 154.939898 
L 105.549144 135.837986 
L 105.736525 67.063139 
L 105.786239 73.370076 
L 106.030982 154.935919 
L 106.126585 133.666698 
L 106.325439 67.067836 
L 106.382801 74.477143 
L 106.62372 154.934979 
L 106.719323 135.231973 
L 106.925826 67.067669 
L 106.983187 75.161563 
L 107.224107 154.941461 
L 107.312061 137.300161 
L 107.522388 67.063266 
L 107.583574 75.766707 
L 107.820669 154.940911 
L 107.908624 137.65505 
L 108.11895 67.063186 
L 108.180136 75.921582 
L 108.413407 154.941959 
L 108.497538 137.766298 
L 108.684919 67.074316 
L 108.738457 85.286829 
L 108.818763 154.917688 
L 108.891422 122.114975 
L 109.044386 67.066577 
L 109.086451 71.987663 
L 109.227944 129.668669 
L 109.335019 154.93978 
L 109.380908 149.613745 
L 109.530049 89.744029 
L 109.629476 67.069231 
L 109.67919 72.595218 
L 109.832154 133.847602 
L 109.927757 154.934537 
L 109.977471 149.476855 
L 110.126611 89.915035 
L 110.229862 67.067664 
L 110.275752 72.366798 
L 110.421068 130.1852 
L 110.528143 154.941446 
L 110.577857 148.967926 
L 110.746118 81.895399 
L 110.826424 67.0633 
L 110.879962 73.763462 
L 111.124706 154.940466 
L 111.224133 133.318482 
L 111.422987 67.063913 
L 111.480348 74.74963 
L 111.717444 154.934997 
L 111.809222 135.71568 
L 112.000428 67.066708 
L 112.05779 80.259476 
L 112.157217 154.938525 
L 112.226051 113.162422 
L 112.352247 67.064823 
L 112.394312 72.166566 
L 112.547277 135.430883 
L 112.639056 154.94202 
L 112.688769 148.881776 
L 112.864679 78.735727 
L 112.933513 67.071226 
L 112.98705 73.439178 
L 113.231794 154.933927 
L 113.331221 133.767725 
L 113.533899 67.06762 
L 113.587437 74.170377 
L 113.83218 154.941427 
L 113.927783 134.388621 
L 114.130461 67.063323 
L 114.187823 74.723885 
L 114.428742 154.940068 
L 114.520521 136.344152 
L 114.727023 67.065021 
L 114.788209 75.675195 
L 115.025304 154.939246 
L 115.113259 136.393514 
L 115.312113 67.069065 
L 115.369475 77.742148 
L 115.499495 154.929789 
L 115.556857 110.666009 
L 115.663932 67.074363 
L 115.709821 73.943398 
L 115.943092 154.940312 
L 116.034871 135.798728 
L 116.241373 67.070224 
L 116.298735 75.333387 
L 116.539654 154.933322 
L 116.627609 136.734623 
L 116.837936 67.067529 
L 116.895297 75.160498 
L 117.136217 154.941407 
L 117.224171 137.29537 
L 117.434498 67.063335 
L 117.495684 75.74443 
L 117.732779 154.939732 
L 117.820733 137.807519 
L 118.03106 67.066248 
L 118.09607 76.667256 
L 118.329341 154.941961 
L 118.413472 138.312483 
L 118.619974 67.064312 
L 118.68116 77.642463 
L 118.837948 154.925942 
L 118.887662 116.571425 
L 118.975617 67.07057 
L 119.029154 76.61286 
L 119.250953 154.935305 
L 119.323611 141.669021 
L 119.54541 67.067483 
L 119.614244 78.604261 
L 119.843691 154.934344 
L 119.916349 142.134153 
L 120.141972 67.067379 
L 120.21463 79.685056 
L 120.440253 154.94139 
L 120.512911 142.585352 
L 120.738534 67.063338 
L 120.811193 79.149644 
L 121.036815 154.939461 
L 121.113298 141.83059 
L 121.335097 67.067447 
L 121.407755 78.906975 
L 121.633378 154.941691 
L 121.70986 141.344539 
L 121.927835 67.068618 
L 121.996669 79.840653 
L 122.172578 154.936301 
L 122.222292 125.624918 
L 122.298774 67.063326 
L 122.363784 85.116707 
L 122.55499 154.941977 
L 122.608527 147.785357 
L 122.849447 67.064978 
L 122.941225 86.547097 
L 123.147728 154.935546 
L 123.20509 146.73138 
L 123.446009 67.06716 
L 123.533964 85.013531 
L 123.74429 154.941379 
L 123.805476 146.026151 
L 124.042571 67.063334 
L 124.130526 84.400536 
L 124.340852 154.939254 
L 124.402038 146.462456 
L 124.639133 67.068544 
L 124.727088 84.062639 
L 124.937414 154.940024 
L 125.002424 145.187733 
L 125.231871 67.064294 
L 125.316002 84.168881 
L 125.499559 154.940849 
L 125.553097 135.018732 
L 125.629579 67.063323 
L 125.702238 96.729328 
L 125.86285 154.939302 
L 125.904916 150.082253 
L 126.046408 92.58572 
L 126.153483 67.063306 
L 126.203197 73.106155 
L 126.375282 141.890551 
L 126.451764 154.936911 
L 126.501478 148.707968 
L 126.750045 67.066863 
L 126.849473 89.45211 
L 127.048327 154.941379 
L 127.101864 148.041248 
L 127.346608 67.063326 
L 127.442211 87.292608 
L 127.644889 154.939107 
L 127.70225 147.4869 
L 127.94317 67.069503 
L 128.038773 86.873926 
L 128.241451 154.937792 
L 128.298813 147.446057 
L 128.539732 67.069636 
L 128.631511 87.682401 
L 128.815068 154.93428 
L 128.87243 141.979089 
L 128.968033 67.063462 
L 129.040691 108.459494 
L 129.170711 154.939091 
L 129.212776 149.851193 
L 129.361917 88.309172 
L 129.45752 67.063616 
L 129.507233 72.965029 
L 129.675495 140.49909 
L 129.755801 154.938393 
L 129.805515 148.752132 
L 129.989072 76.600866 
L 130.054082 67.066482 
L 130.10762 74.137782 
L 130.352363 154.941392 
L 130.447966 134.376585 
L 130.650644 67.063315 
L 130.708006 74.719275 
L 130.948925 154.939011 
L 131.040704 136.473631 
L 131.247206 67.070311 
L 131.308392 75.386079 
L 131.545488 154.935432 
L 131.637266 136.474737 
L 131.843769 67.063618 
L 131.904954 76.314524 
L 132.130577 154.931004 
L 132.20706 135.058907 
L 132.310311 67.072678 
L 132.363848 105.829744 
L 132.478572 154.93837 
L 132.520637 149.924743 
L 132.673602 85.87958 
L 132.761557 67.068165 
L 132.815094 73.701801 
L 133.059838 154.939893 
L 133.155441 134.044709 
L 133.358119 67.066014 
L 133.411656 74.121237 
L 133.6564 154.941424 
L 133.752003 134.377156 
L 133.954681 67.063304 
L 134.012043 74.721197 
L 134.252962 154.938958 
L 134.344741 136.482459 
L 134.551243 67.070969 
L 134.612429 75.35876 
L 134.853348 154.933169 
L 134.941303 136.614592 
L 135.147805 67.063542 
L 135.208991 75.976572 
L 135.438438 154.940786 
L 135.518745 136.660343 
L 135.648765 67.119814 
L 135.698478 104.688227 
L 135.794081 154.939844 
L 135.843794 146.35816 
L 136.069417 67.066397 
L 136.149724 82.792111 
L 136.363874 154.941224 
L 136.428884 144.798826 
L 136.662155 67.065465 
L 136.742462 82.181443 
L 136.960436 154.941477 
L 137.025446 144.935613 
L 137.258718 67.063294 
L 137.339024 81.686872 
L 137.556999 154.938941 
L 137.625833 144.295134 
L 137.85528 67.071487 
L 137.935586 81.182157 
L 138.157385 154.935033 
L 138.226219 143.341966 
L 138.451842 67.06612 
L 138.528324 80.442502 
L 138.746299 154.938295 
L 138.815133 142.116126 
L 138.987218 67.065647 
L 139.036932 101.318536 
L 139.113414 154.941899 
L 139.1746 139.629694 
L 139.373454 67.063978 
L 139.430816 75.107711 
L 139.667911 154.942041 
L 139.755866 137.193029 
L 139.966192 67.064851 
L 140.027378 76.106138 
L 140.264473 154.941553 
L 140.348604 138.689523 
L 140.562754 67.063288 
L 140.627764 76.83116 
L 140.861035 154.938951 
L 140.945166 139.280405 
L 141.159316 67.071879 
L 141.22815 77.496396 
L 141.461422 154.936368 
L 141.541728 139.59536 
L 141.755879 67.069745 
L 141.824713 77.754147 
L 142.050336 154.938978 
L 142.130642 139.340462 
L 142.3142 67.063231 
L 142.367737 89.377718 
L 142.440395 154.906015 
L 142.513054 128.390695 
L 142.681315 67.065028 
L 142.72338 71.850413 
L 142.861048 127.513257 
L 142.971948 154.941713 
L 143.021661 149.065752 
L 143.186098 83.007996 
L 143.270229 67.06421 
L 143.319942 73.11063 
L 143.492027 141.625597 
L 143.56851 154.941652 
L 143.622047 148.059358 
L 143.866791 67.063286 
L 143.962394 87.30494 
L 144.165072 154.938979 
L 144.222434 147.501383 
L 144.467177 67.071773 
L 144.558956 86.689175 
L 144.765458 154.93733 
L 144.82282 146.798651 
L 145.063739 67.070657 
L 145.151694 85.437481 
L 145.358196 154.939136 
L 145.415558 146.451119 
L 145.633533 67.063142 
L 145.706191 92.618307 
L 145.778849 154.940039 
L 145.847683 119.103467 
L 145.989176 67.067042 
L 146.027417 71.292503 
L 146.157437 123.573975 
L 146.275984 154.939081 
L 146.321874 150.048925 
L 146.459542 95.347337 
L 146.574265 67.063613 
L 146.620155 72.206319 
L 146.765471 130.046632 
L 146.872546 154.941771 
L 146.92226 148.989091 
L 147.086697 83.237866 
L 147.170827 67.063292 
L 147.224365 73.760182 
L 147.469109 154.939018 
L 147.568536 133.535403 
L 147.771214 67.071589 
L 147.824751 74.30127 
L 148.069495 154.938026 
L 148.161274 135.495188 
L 148.367776 67.067986 
L 148.425138 75.267727 
L 148.662233 154.94205 
L 148.750188 136.763785 
L 148.945218 67.068282 
L 149.006403 79.084331 
L 149.121127 154.934221 
L 149.186137 109.050755 
L 149.297036 67.063498 
L 149.342926 73.069122 
L 149.583845 154.933822 
L 149.679448 133.310536 
L 149.878302 67.063186 
L 149.93184 73.938859 
L 150.176583 154.941899 
L 150.272186 134.429041 
L 150.474864 67.063307 
L 150.532226 74.725492 
L 150.773145 154.939061 
L 150.864924 136.487211 
L 151.07525 67.071484 
L 151.132612 75.296005 
L 151.373532 154.938529 
L 151.461486 136.988723 
L 151.671813 67.066265 
L 151.732998 76.231235 
L 151.96627 154.939225 
L 152.0504 138.734326 
L 152.256902 67.064874 
L 152.318088 78.122499 
L 152.463405 154.908832 
L 152.513118 114.034324 
L 152.608721 67.069794 
L 152.658435 74.700528 
L 152.887882 154.941112 
L 152.972012 138.044132 
L 153.182339 67.063149 
L 153.243524 75.887246 
L 153.48062 154.942018 
L 153.568574 137.365078 
L 153.778901 67.063335 
L 153.840087 75.747601 
L 154.077182 154.9391 
L 154.165137 137.901005 
L 154.379287 67.071442 
L 154.440473 76.349915 
L 154.677568 154.938891 
L 154.761699 138.426715 
L 154.975849 67.065154 
L 155.037035 76.152061 
L 155.270306 154.93412 
L 155.358261 137.7154 
L 155.564763 67.065756 
L 155.625949 77.363745 
L 155.798034 154.917769 
L 155.851572 115.678181 
L 155.928054 67.064123 
L 155.985416 79.800129 
L 156.191918 154.939616 
L 156.256928 144.849957 
L 156.486375 67.063878 
L 156.566682 81.788262 
L 156.784656 154.942095 
L 156.85349 143.886075 
L 157.082937 67.063382 
L 157.15942 80.392759 
L 157.381219 154.939128 
L 157.453877 143.109657 
L 157.683324 67.071447 
L 157.755982 79.847172 
L 157.981605 154.939148 
L 158.054263 142.381751 
L 158.279886 67.064437 
L 158.352544 79.562072 
L 158.578167 154.936821 
L 158.650825 142.035507 
L 158.8688 67.068835 
L 158.941458 79.874063 
L 159.12884 154.941209 
L 159.182377 129.437071 
L 159.255036 67.063864 
L 159.32387 90.569636 
L 159.499779 154.941055 
L 159.545668 149.377073 
L 159.706281 83.908813 
L 159.790412 67.066032 
L 159.84395 73.682256 
L 160.088693 154.942073 
L 160.18812 133.02061 
L 160.386974 67.063456 
L 160.440512 73.74415 
L 160.685255 154.939138 
L 160.784682 133.524378 
L 160.98736 67.071486 
L 161.040898 74.29262 
L 161.285641 154.939323 
L 161.37742 135.629177 
L 161.583923 67.063976 
L 161.641284 74.995119 
L 161.882204 154.939575 
L 161.970158 136.833477 
L 162.176661 67.06394 
L 162.237846 76.554736 
L 162.448173 154.928438 
L 162.517007 131.25632 
L 162.589665 67.079534 
L 162.658499 99.887101 
L 162.80764 154.937741 
L 162.845881 150.745503 
L 162.975901 98.667818 
L 163.094449 67.070777 
L 163.144162 72.649256 
L 163.300951 135.77096 
L 163.39273 154.94186 
L 163.442443 149.118026 
L 163.603056 84.726049 
L 163.691011 67.063571 
L 163.740724 72.828312 
L 163.901337 137.072273 
L 163.989292 154.939123 
L 164.042829 148.445999 
L 164.291397 67.071547 
L 164.387 88.142806 
L 164.589678 154.939438 
L 164.643216 147.910975 
L 164.887959 67.063679 
L 164.983562 87.685692 
L 165.18624 154.94105 
L 165.243602 146.936423 
L 165.480697 67.064439 
L 165.572476 86.563729 
L 165.763682 154.941337 
L 165.821044 143.580266 
L 165.931943 67.069109 
L 166.000777 113.121183 
L 166.115501 154.941915 
L 166.16139 148.906751 
L 166.402309 67.066772 
L 166.497912 88.420423 
L 166.696766 154.941303 
L 166.754128 147.288214 
L 166.995047 67.063748 
L 167.086826 85.791984 
L 167.293328 154.939074 
L 167.354514 146.480857 
L 167.595434 67.071617 
L 167.683388 85.207658 
L 167.893715 154.939504 
L 167.951076 146.929262 
L 168.191996 67.06349 
L 168.283775 86.156196 
L 168.490277 154.941773 
L 168.547639 147.03242 
L 168.784734 67.070451 
L 168.876513 85.94929 
L 169.075367 154.939278 
L 169.132728 144.886505 
L 169.274221 67.081277 
L 169.327758 110.493984 
L 169.427185 154.941967 
L 169.473075 148.223235 
L 169.706346 67.06312 
L 169.798125 86.624091 
L 170.000803 154.940157 
L 170.058165 147.35515 
L 170.299084 67.064018 
L 170.390863 85.767628 
L 170.597365 154.93898 
L 170.658551 146.483216 
L 170.89947 67.071686 
L 170.987425 85.21041 
L 171.197751 154.939534 
L 171.255113 146.93277 
L 171.496032 67.063371 
L 171.587811 86.117575 
L 171.794314 154.942058 
L 171.851675 147.108855 
L 172.092595 67.067599 
L 172.180549 85.502241 
L 172.383227 154.940148 
L 172.440589 145.771383 
L 172.612674 67.06848 
L 172.662388 106.040546 
L 172.742694 154.934686 
L 172.800056 143.210114 
L 173.010383 67.068209 
L 173.079217 78.161776 
L 173.30484 154.938014 
L 173.381322 141.769094 
L 173.603121 67.06443 
L 173.675779 79.062108 
L 173.901402 154.938829 
L 173.977884 141.883641 
L 174.203507 67.07174 
L 174.272341 78.635867 
L 174.501788 154.939536 
L 174.57827 141.166885 
L 174.800069 67.063295 
L 174.868903 78.161621 
L 175.09835 154.942097 
L 175.174832 141.441598 
L 175.396631 67.064488 
L 175.465465 78.518448 
L 175.687264 154.933269 
L 175.763746 140.793949 
L 175.94348 67.063281 
L 175.993193 92.014426 
L 176.069676 154.935099 
L 176.134686 134.386706 
L 176.318243 67.063441 
L 176.367957 73.447226 
L 176.608876 154.934195 
L 176.708303 133.477692 
L 176.907157 67.065057 
L 176.964519 74.60665 
L 177.205438 154.938603 
L 177.301041 135.033326 
L 177.507544 67.071767 
L 177.561081 74.300826 
L 177.805825 154.939518 
L 177.897603 135.668116 
L 178.104106 67.063249 
L 178.161467 74.874492 
L 178.402387 154.942008 
L 178.494166 136.037769 
L 178.700668 67.063287 
L 178.75803 74.998911 
L 178.995125 154.942081 
L 179.08308 136.194624 
L 179.266637 67.063641 
L 179.320175 83.265598 
L 179.404305 154.894252 
L 179.476964 120.512585 
L 179.626104 67.067348 
L 179.668169 72.036642 
L 179.813486 131.44343 
L 179.916737 154.937211 
L 179.962626 149.512989 
L 180.111767 89.54904 
L 180.211194 67.066011 
L 180.260907 72.70749 
L 180.417696 135.533438 
L 180.509475 154.938281 
L 180.559189 149.362033 
L 180.712153 88.179901 
L 180.81158 67.071754 
L 180.861294 73.36099 
L 181.109861 154.939486 
L 181.209288 132.67022 
L 181.408142 67.06322 
L 181.46168 73.89004 
L 181.706423 154.941862 
L 181.802026 134.629882 
L 182.004705 67.063121 
L 182.062066 74.873057 
L 182.299162 154.937834 
L 182.39094 135.602871 
L 182.582146 67.063947 
L 182.639508 79.559069 
L 182.742759 154.93871 
L 182.811593 111.720299 
L 182.933965 67.064432 
L 182.97603 72.185778 
L 183.128995 135.56923 
L 183.220774 154.941222 
L 183.270487 148.778645 
L 183.515231 67.067468 
L 183.618482 90.085636 
L 183.813512 154.937831 
L 183.867049 148.483117 
L 184.115617 67.071688 
L 184.21122 88.156299 
L 184.413898 154.939447 
L 184.467436 147.918376 
L 184.712179 67.063205 
L 184.807782 87.509099 
L 185.01046 154.941701 
L 185.067822 147.287976 
L 185.308741 67.06349 
L 185.40052 85.990666 
L 185.607022 154.936637 
L 185.664384 146.517616 
L 185.893831 67.068011 
L 185.974137 87.299831 
L 186.085037 154.931219 
L 186.13475 116.977025 
L 186.24565 67.069464 
L 186.287715 72.899102 
L 186.52481 154.941561 
L 186.620413 134.131644 
L 186.819267 67.069697 
L 186.876629 74.451982 
L 187.117548 154.93721 
L 187.213151 135.085276 
L 187.419653 67.071554 
L 187.473191 74.299137 
L 187.717935 154.939408 
L 187.809713 135.663034 
L 188.016216 67.063197 
L 188.073577 74.854743 
L 188.314497 154.941549 
L 188.406276 136.193923 
L 188.612778 67.064109 
L 188.673964 75.72253 
L 188.911059 154.940978 
L 188.999014 136.731422 
L 189.201692 67.064697 
L 189.262878 77.582946 
L 189.423491 154.936724 
L 189.473204 116.410081 
L 189.561159 67.071366 
L 189.614696 77.782808 
L 189.828847 154.933187 
L 189.901505 142.80496 
L 190.127128 67.071108 
L 190.199786 79.986874 
L 190.421585 154.936355 
L 190.494243 143.197295 
L 190.72369 67.071335 
L 190.796348 79.852534 
L 191.021971 154.939376 
L 191.094629 142.418517 
L 191.320252 67.063196 
L 191.39291 79.314479 
L 191.618533 154.941419 
L 191.695016 141.662318 
L 191.916814 67.064811 
L 191.989473 79.062688 
L 192.215096 154.942098 
L 192.291578 141.199858 
L 192.509553 67.070506 
L 192.578387 79.856588 
L 192.75812 154.940069 
L 192.807834 125.685502 
L 192.884316 67.082161 
L 192.945502 84.784513 
L 193.136708 154.942091 
L 193.190245 147.699318 
L 193.431165 67.067463 
L 193.522943 86.730899 
L 193.725622 154.935178 
L 193.782983 147.603686 
L 194.027727 67.071019 
L 194.119506 86.655325 
L 194.326008 154.939357 
L 194.38337 146.926054 
L 194.624289 67.063199 
L 194.716068 86.022417 
L 194.92257 154.941316 
L 194.983756 146.322234 
L 195.220851 67.065504 
L 195.308806 84.243991 
L 195.519132 154.941597 
L 195.580318 146.153759 
L 195.813589 67.063445 
L 195.901544 85.734224 
L 196.081277 154.938182 
L 196.134815 137.514907 
L 196.215121 67.067956 
L 196.28778 98.31955 
L 196.444568 154.938405 
L 196.486634 150.028879 
L 196.628126 92.418531 
L 196.735201 67.064419 
L 196.781091 72.33593 
L 196.926407 130.576572 
L 197.029658 154.933548 
L 197.079372 149.475156 
L 197.228512 89.806715 
L 197.331763 67.070588 
L 197.377653 72.460698 
L 197.526793 131.965625 
L 197.630044 154.939358 
L 197.679758 148.839627 
L 197.851843 80.420785 
L 197.928326 67.063205 
L 197.981863 73.879462 
L 198.226607 154.941241 
L 198.326034 133.298638 
L 198.524888 67.066137 
L 198.582249 74.540873 
L 198.823169 154.940333 
L 198.918772 134.642512 
L 199.117626 67.071799 
L 199.174988 74.701311 
L 199.40061 154.931875 
L 199.477093 129.152585 
L 199.553575 67.063782 
L 199.618585 104.718532 
L 199.752429 154.939292 
L 199.794494 149.82366 
L 199.943635 88.164007 
L 200.039238 67.063102 
L 200.088951 73.067835 
L 200.261037 141.94849 
L 200.337519 154.93487 
L 200.387232 148.63469 
L 200.6358 67.070031 
L 200.735227 89.643421 
L 200.934081 154.939389 
L 200.987619 147.912279 
L 201.232362 67.063212 
L 201.327965 87.495789 
L 201.530643 154.941192 
L 201.588005 147.36102 
L 201.828924 67.066685 
L 201.924527 87.01138 
L 202.127205 154.938773 
L 202.184567 147.427609 
L 202.425487 67.064946 
L 202.517265 87.052127 
L 202.712295 154.933254 
L 202.765833 145.362024 
L 202.895853 67.070578 
L 202.957039 113.518907 
L 203.06029 154.935242 
L 203.106179 149.007985 
L 203.343275 67.065776 
L 203.442702 89.143423 
L 203.641556 154.937089 
L 203.695093 147.749559 
L 203.939837 67.069336 
L 204.031615 86.607032 
L 204.238118 154.939456 
L 204.29548 146.926727 
L 204.536399 67.063221 
L 204.628178 86.026771 
L 204.83468 154.941165 
L 204.895866 146.345317 
L 205.132961 67.06714 
L 205.220916 84.088346 
L 205.431242 154.937169 
L 205.496252 145.41849 
L 205.729523 67.063097 
L 205.813654 83.620975 
L 206.020156 154.940552 
L 206.081342 144.243769 
L 206.234307 67.101981 
L 206.287844 109.518685 
L 206.375799 154.941799 
L 206.429337 145.230508 
L 206.651135 67.068708 
L 206.723793 80.269302 
L 206.945592 154.939292 
L 207.014426 143.48746 
L 207.243873 67.068499 
L 207.320356 81.042037 
L 207.542154 154.939566 
L 207.610988 143.627975 
L 207.840435 67.063228 
L 207.916918 80.56857 
L 208.138717 154.941158 
L 208.211375 142.953377 
L 208.436998 67.067502 
L 208.51348 80.075479 
L 208.735279 154.935657 
L 208.807937 143.187978 
L 209.03356 67.064163 
L 209.110042 80.584661 
L 209.328017 154.936874 
L 209.396851 142.11661 
L 209.57276 67.087108 
L 209.61865 96.164884 
L 209.695132 154.919774 
L 209.760142 138.258538 
L 209.955172 67.063338 
L 210.012534 75.202423 
L 210.249629 154.941161 
L 210.337584 137.014908 
L 210.54791 67.067525 
L 210.605272 75.194391 
L 210.846191 154.939728 
L 210.934146 137.105667 
L 211.144472 67.063233 
L 211.205658 75.892983 
L 211.442753 154.941164 
L 211.530708 137.717904 
L 211.741034 67.067777 
L 211.806044 76.527045 
L 212.039315 154.934304 
L 212.123446 139.421252 
L 212.337596 67.066525 
L 212.402606 76.745378 
L 212.632053 154.94045 
L 212.716184 137.830247 
L 212.895917 67.079489 
L 212.949455 86.29875 
L 213.025937 154.93127 
L 213.10242 124.683304 
L 213.263033 67.065937 
L 213.305098 71.90759 
L 213.44659 129.334537 
L 213.553666 154.942096 
L 213.603379 148.958755 
L 213.77164 81.496914 
L 213.851947 67.06644 
L 213.90166 73.228083 
L 214.081394 144.212934 
L 214.150228 154.939947 
L 214.203765 147.931491 
L 214.448509 67.063234 
L 214.544112 87.506695 
L 214.74679 154.941181 
L 214.804152 147.367712 
L 215.045071 67.067974 
L 215.140674 86.886704 
L 215.347176 154.933276 
L 215.404538 146.663885 
L 215.641633 67.069349 
L 215.733412 85.610185 
L 215.939914 154.936859 
L 215.997276 146.367866 
L 216.215251 67.064793 
L 216.287909 90.665113 
L 216.364391 154.941375 
L 216.433225 117.603387 
L 216.570893 67.067149 
L 216.612959 72.161748 
L 216.762099 133.627021 
L 216.857702 154.940958 
L 216.907416 149.095901 
L 217.071853 82.943249 
L 217.155983 67.065298 
L 217.205697 73.18511 
L 217.381606 143.0013 
L 217.454264 154.940225 
L 217.507802 147.943405 
L 217.752545 67.063229 
L 217.848148 87.507973 
L 218.050826 154.941202 
L 218.108188 147.366314 
L 218.349108 67.068102 
L 218.44471 86.87244 
L 218.651213 154.934209 
L 218.708575 146.699341 
L 218.949494 67.071895 
L 219.037449 85.430106 
L 219.243951 154.941942 
L 219.305137 145.738422 
L 219.526935 67.070583 
L 219.607242 87.599824 
L 219.706669 154.936336 
L 219.764031 114.021242 
L 219.878754 67.064365 
L 219.920819 72.130296 
L 220.077608 137.547186 
L 220.161739 154.935548 
L 220.215276 148.357832 
L 220.46002 67.064207 
L 220.555623 87.847603 
L 220.758301 154.940561 
L 220.811839 147.959418 
L 221.056582 67.063216 
L 221.152185 87.5076 
L 221.354863 154.941225 
L 221.412225 147.364431 
L 221.653144 67.068174 
L 221.748747 86.862716 
L 221.955249 154.934897 
L 222.012611 146.727213 
L 222.253531 67.069574 
L 222.341485 85.287375 
L 222.547987 154.94105 
L 222.609173 146.085532 
L 222.83862 67.064934 
L 222.918927 85.603155 
L 223.048947 154.902268 
L 223.094836 117.880559 
L 223.194263 67.074055 
L 223.240153 74.616812 
L 223.4696 154.93966 
L 223.55373 137.891874 
L 223.764057 67.063364 
L 223.825242 76.022396 
L 224.062338 154.940944 
L 224.146468 138.574792 
L 224.360619 67.063196 
L 224.425629 76.979622 
L 224.6589 154.941246 
L 224.74303 139.090654 
L 224.957181 67.068199 
L 225.022191 76.497083 
L 225.259286 154.9354 
L 225.343417 138.242775 
L 225.557567 67.06797 
L 225.618753 76.290548 
L 225.852024 154.937589 
L 225.939979 137.562176 
L 226.146481 67.066801 
L 226.207667 77.357457 
L 226.383576 154.938319 
L 226.43329 120.888895 
L 226.513596 67.080141 
L 226.570958 81.085228 
L 226.773636 154.940888 
L 226.834822 145.869904 
L 227.068093 67.063122 
L 227.152224 83.309829 
L 227.366374 154.941351 
L 227.431384 144.883942 
L 227.664655 67.063168 
L 227.744962 81.86135 
L 227.962936 154.94126 
L 228.031771 144.131466 
L 228.261218 67.06819 
L 228.341524 81.292001 
L 228.563323 154.93576 
L 228.628333 144.599258 
L 228.861604 67.066851 
L 228.94191 82.309003 
L 229.156061 154.933195 
L 229.224895 144.324832 
L 229.450518 67.066852 
L 229.530824 82.677786 
L 229.714382 154.927811 
L 229.764095 133.186994 
L 229.840578 67.070158 
L 229.909412 92.098654 
L 230.081497 154.940252 
L 230.123562 150.173673 
L 230.26123 94.58039 
L 230.37213 67.064115 
L 230.421843 72.879934 
L 230.582456 137.504305 
L 230.670411 154.941738 
L 230.720124 148.962924 
L 230.888386 81.775041 
L 230.968692 67.063136 
L 231.02223 73.870369 
L 231.266973 154.941264 
L 231.3664 133.318652 
L 231.565254 67.068156 
L 231.622616 74.424544 
L 231.867359 154.936009 
L 231.959138 135.432898 
L 232.16564 67.066064 
L 232.223002 75.128103 
L 232.463922 154.936678 
L 232.551876 136.662802 
L 232.758378 67.065256 
L 232.81574 75.525613 
L 233.033715 154.937876 
L 233.102549 130.391779 
L 233.175207 67.072517 
L 233.244041 101.398591 
L 233.389358 154.937308 
L 233.427599 150.709613 
L 233.557619 98.504756 
L 233.676166 67.067488 
L 233.72588 72.751125 
L 233.882669 135.954397 
L 233.974448 154.942027 
L 234.024161 149.003375 
L 234.188598 83.14937 
L 234.272729 67.063108 
L 234.322442 72.94589 
L 234.486879 138.657342 
L 234.57101 154.941254 
L 234.624547 148.320444 
L 234.869291 67.068107 
L 234.968718 88.347354 
L 235.171396 154.93617 
L 235.224934 147.781496 
L 235.469677 67.065508 
L 235.56528 87.882433 
L 235.767958 154.93894 
L 235.821496 147.810173 
L 236.062415 67.063389 
L 236.158018 88.223746 
L 236.3454 154.939822 
L 236.402761 144.030082 
L 236.517485 67.06754 
L 236.582495 111.618141 
L 236.697218 154.942069 
L 236.743108 148.898539 
L 236.984027 67.069629 
L 237.07963 88.598125 
L 237.278484 154.942084 
L 237.332022 148.136795 
L 237.576765 67.063097 
L 237.672368 87.457882 
L 237.875046 154.941226 
L 237.932408 147.359783 
L 238.173327 67.068053 
L 238.26893 86.856166 
L 238.475433 154.936263 
L 238.532794 146.791664 
L 238.773714 67.065115 
L 238.861668 84.905648 
L 239.071995 154.940313 
L 239.133181 145.852102 
L 239.366452 67.067294 
L 239.454406 84.625376 
L 239.657085 154.939492 
L 239.71827 143.696844 
L 239.859763 67.083007 
L 239.9133 111.220084 
L 240.008903 154.94105 
L 240.058617 147.194904 
L 240.288064 67.063627 
L 240.372194 83.881448 
L 240.582521 154.94168 
L 240.643707 146.19543 
L 240.880802 67.063127 
L 240.968757 84.529069 
L 241.179083 154.941172 
L 241.240269 146.342132 
L 241.477364 67.068002 
L 241.565319 83.991324 
L 241.779469 154.936303 
L 241.840655 145.742514 
L 242.07775 67.064838 
L 242.161881 83.470204 
L 242.376031 154.941134 
L 242.437217 145.932725 
L 242.674313 67.071023 
L 242.758443 84.211625 
L 242.964945 154.939398 
L 243.026131 144.576898 
L 243.198216 67.084531 
L 243.24793 106.050983 
L 243.328236 154.935393 
L 243.385598 141.952257 
L 243.5921 67.066205 
L 243.65711 77.103032 
L 243.886557 154.940432 
L 243.966864 140.31168 
L 244.184839 67.063236 
L 244.253673 78.028057 
L 244.48312 154.941085 
L 244.563426 140.426848 
L 244.781401 67.067965 
L 244.850235 77.623962 
L 245.083506 154.936303 
L 245.159988 140.992878 
L 245.381787 67.064645 
L 245.450621 78.318835 
L 245.680068 154.941611 
L 245.75655 141.276774 
L 245.978349 67.066696 
L 246.047183 78.656063 
L 246.268982 154.935642 
L 246.345464 140.759812 
L 246.529022 67.078754 
L 246.578735 92.148169 
L 246.651394 154.921159 
L 246.720228 132.906666 
L 246.899961 67.064017 
L 246.945851 72.603284 
L 247.102639 136.580241 
L 247.190594 154.937681 
L 247.244132 148.386583 
L 247.488875 67.063486 
L 247.588302 88.86618 
L 247.787156 154.940952 
L 247.840694 148.335562 
L 248.085437 67.067949 
L 248.184864 88.358293 
L 248.387543 154.936272 
L 248.44108 147.7908 
L 248.685824 67.064514 
L 248.781427 87.739263 
L 248.984105 154.941876 
L 249.041466 147.087408 
L 249.282386 67.064471 
L 249.374165 86.538972 
L 249.576843 154.94164 
L 249.634205 146.581973 
L 249.848355 67.065525 
L 249.917189 93.104317 
L 249.986023 154.905889 
L 250.054857 123.620539 
L 250.207822 67.068061 
L 250.246063 71.257454 
L 250.376083 123.259832 
L 250.498455 154.933715 
L 250.544344 149.411719 
L 250.697309 87.828408 
L 250.792912 67.063978 
L 250.842625 72.820704 
L 251.003238 137.168344 
L 251.091193 154.940758 
L 251.144731 148.34571 
L 251.389474 67.067964 
L 251.488901 88.360193 
L 251.691579 154.936223 
L 251.745117 147.789733 
L 251.98986 67.06443 
L 252.085463 87.722241 
L 252.288141 154.942014 
L 252.345503 147.125511 
L 252.586422 67.063451 
L 252.678201 86.333805 
L 252.880879 154.939971 
L 252.9 154.106643 
" clip-path="url(#pe0f55d049b)" style="fill: none; stroke: #808080; stroke-width: 1.5; stroke-linecap: square"/>
   </g>
   <g id="patch_3">
    <path d="M 61.698 161.7 
L 61.698 17.28 
" style="fill: none; stroke: #000000; stroke-width: 0.8; stroke-linejoin: miter; stroke-linecap: square"/>
   </g>
   <g id="patch_4">
    <path d="M 252.9 161.7 
L 252.9 17.28 
" style="fill: none; stroke: #000000; stroke-width: 0.8; stroke-linejoin: miter; stroke-linecap: square"/>
   </g>
   <g id="patch_5">
    <path d="M 61.698 161.7 
L 252.9 161.7 
" style="fill: none; stroke: #000000; stroke-width: 0.8; stroke-linejoin: miter; stroke-linecap: square"/>
   </g>
   <g id="patch_6">
    <path d="M 61.698 17.28 
L 252.9 17.28 
" style="fill: none; stroke: #000000; stroke-width: 0.8; stroke-linejoin: miter; stroke-linecap: square"/>
   </g>
  </g>
 </g>
 <defs>
  <clipPath id="pe0f55d049b">
   <rect x="61.698" y="17.28" width="191.202" height="144.42"/>
  </clipPath>
 </defs>
</svg>
