<?xml version="1.0" encoding="utf-8" standalone="no"?>
<!DOCTYPE svg PUBLIC "-//W3C//DTD SVG 1.1//EN"
  "http://www.w3.org/Graphics/SVG/1.1/DTD/svg11.dtd">
<svg xmlns:xlink="http://www.w3.org/1999/xlink" width="288pt" height="216pt" viewBox="0 0 288 216" xmlns="http://www.w3.org/2000/svg" version="1.1">
 <metadata>
  <rdf:RDF xmlns:dc="http://purl.org/dc/elements/1.1/" xmlns:cc="http://creativecommons.org/ns#" xmlns:rdf="http://www.w3.org/1999/02/22-rdf-syntax-ns#">
   <cc:Work>
    <dc:type rdf:resource="http://purl.org/dc/dcmitype/StillImage"/>
    <dc:date>2024-02-20T17:24:49.096787</dc:date>
    <dc:format>image/svg+xml</dc:format>
    <dc:creator>
     <cc:Agent>
      <dc:title>Matplotlib v3.8.2, https://matplotlib.org/</dc:title>
     </cc:Agent>
    </dc:creator>
   </cc:Work>
  </rdf:RDF>
 </metadata>
 <defs>
  <style type="text/css">*{stroke-linejoin: round; stroke-linecap: butt}</style>
 </defs>
 <g id="figure_1">
  <g id="patch_1">
   <path d="M 0 216 
L 288 216 
L 288 0 
L 0 0 
L 0 216 
z
" style="fill: none"/>
  </g>
  <g id="axes_1">
   <g id="patch_2">
    <path d="M 55.884 155.94 
L 253.53 155.94 
L 253.53 21.705469 
L 55.884 21.705469 
L 55.884 155.94 
z
" style="fill: none"/>
   </g>
   <g id="matplotlib.axis_1">
    <g id="xtick_1">
     <g id="line2d_1">
      <defs>
       <path id="mb1bb81a77c" d="M 0 0 
L 0 -3.5 
" style="stroke: #000000; stroke-width: 0.8"/>
      </defs>
      <g>
       <use xlink:href="#mb1bb81a77c" x="55.884" y="155.94" style="stroke: #000000; stroke-width: 0.8"/>
      </g>
     </g>
     <g id="text_1">
      <!-- 0 -->
      <g transform="translate(50.879156 172.324063) scale(0.18 -0.18)">
       <defs>
        <path id="ArialMT-30" d="M 266 2259 
Q 266 3072 433 3567 
Q 600 4063 929 4331 
Q 1259 4600 1759 4600 
Q 2128 4600 2406 4451 
Q 2684 4303 2865 4023 
Q 3047 3744 3150 3342 
Q 3253 2941 3253 2259 
Q 3253 1453 3087 958 
Q 2922 463 2592 192 
Q 2263 -78 1759 -78 
Q 1097 -78 719 397 
Q 266 969 266 2259 
z
M 844 2259 
Q 844 1131 1108 757 
Q 1372 384 1759 384 
Q 2147 384 2411 759 
Q 2675 1134 2675 2259 
Q 2675 3391 2411 3762 
Q 2147 4134 1753 4134 
Q 1366 4134 1134 3806 
Q 844 3388 844 2259 
z
" transform="scale(0.015625)"/>
       </defs>
       <use xlink:href="#ArialMT-30"/>
      </g>
     </g>
    </g>
    <g id="xtick_2">
     <g id="line2d_2">
      <g>
       <use xlink:href="#mb1bb81a77c" x="154.707" y="155.94" style="stroke: #000000; stroke-width: 0.8"/>
      </g>
     </g>
     <g id="text_2">
      <!-- 100 -->
      <g transform="translate(139.692469 172.324063) scale(0.18 -0.18)">
       <defs>
        <path id="ArialMT-31" d="M 2384 0 
L 1822 0 
L 1822 3584 
Q 1619 3391 1289 3197 
Q 959 3003 697 2906 
L 697 3450 
Q 1169 3672 1522 3987 
Q 1875 4303 2022 4600 
L 2384 4600 
L 2384 0 
z
" transform="scale(0.015625)"/>
       </defs>
       <use xlink:href="#ArialMT-31"/>
       <use xlink:href="#ArialMT-30" x="55.615234"/>
       <use xlink:href="#ArialMT-30" x="111.230469"/>
      </g>
     </g>
    </g>
    <g id="xtick_3">
     <g id="line2d_3">
      <g>
       <use xlink:href="#mb1bb81a77c" x="253.53" y="155.94" style="stroke: #000000; stroke-width: 0.8"/>
      </g>
     </g>
     <g id="text_3">
      <!-- 200 -->
      <g transform="translate(238.515469 172.324063) scale(0.18 -0.18)">
       <defs>
        <path id="ArialMT-32" d="M 3222 541 
L 3222 0 
L 194 0 
Q 188 203 259 391 
Q 375 700 629 1000 
Q 884 1300 1366 1694 
Q 2113 2306 2375 2664 
Q 2638 3022 2638 3341 
Q 2638 3675 2398 3904 
Q 2159 4134 1775 4134 
Q 1369 4134 1125 3890 
Q 881 3647 878 3216 
L 300 3275 
Q 359 3922 746 4261 
Q 1134 4600 1788 4600 
Q 2447 4600 2831 4234 
Q 3216 3869 3216 3328 
Q 3216 3053 3103 2787 
Q 2991 2522 2730 2228 
Q 2469 1934 1863 1422 
Q 1356 997 1212 845 
Q 1069 694 975 541 
L 3222 541 
z
" transform="scale(0.015625)"/>
       </defs>
       <use xlink:href="#ArialMT-32"/>
       <use xlink:href="#ArialMT-30" x="55.615234"/>
       <use xlink:href="#ArialMT-30" x="111.230469"/>
      </g>
     </g>
    </g>
    <g id="text_4">
     <!-- $t$ -->
     <g transform="translate(151.107 192.785625) scale(0.18 -0.18)">
      <defs>
       <path id="DejaVuSans-Oblique-74" d="M 2706 3500 
L 2619 3053 
L 1472 3053 
L 1100 1153 
Q 1081 1047 1072 975 
Q 1063 903 1063 863 
Q 1063 663 1183 572 
Q 1303 481 1569 481 
L 2150 481 
L 2053 0 
L 1503 0 
Q 991 0 739 200 
Q 488 400 488 806 
Q 488 878 497 964 
Q 506 1050 525 1153 
L 897 3053 
L 409 3053 
L 500 3500 
L 978 3500 
L 1172 4494 
L 1747 4494 
L 1556 3500 
L 2706 3500 
z
" transform="scale(0.015625)"/>
      </defs>
      <use xlink:href="#DejaVuSans-Oblique-74" transform="translate(0 0.78125)"/>
     </g>
    </g>
   </g>
   <g id="matplotlib.axis_2">
    <g id="ytick_1">
     <g id="line2d_4">
      <defs>
       <path id="me9ee1eb8f4" d="M 0 0 
L 3.5 0 
" style="stroke: #000000; stroke-width: 0.8"/>
      </defs>
      <g>
       <use xlink:href="#me9ee1eb8f4" x="55.884" y="152.192292" style="stroke: #000000; stroke-width: 0.8"/>
      </g>
     </g>
     <g id="text_5">
      <!-- 0 -->
      <g transform="translate(42.374313 158.634323) scale(0.18 -0.18)">
       <use xlink:href="#ArialMT-30"/>
      </g>
     </g>
    </g>
    <g id="ytick_2">
     <g id="line2d_5">
      <g>
       <use xlink:href="#me9ee1eb8f4" x="55.884" y="67.468736" style="stroke: #000000; stroke-width: 0.8"/>
      </g>
     </g>
     <g id="text_6">
      <!-- 2 -->
      <g transform="translate(42.374313 73.910767) scale(0.18 -0.18)">
       <use xlink:href="#ArialMT-32"/>
      </g>
     </g>
    </g>
    <g id="text_7">
     <!-- $r_i / r_0$ -->
     <g transform="translate(34.796813 105.562735) rotate(-90) scale(0.18 -0.18)">
      <defs>
       <path id="DejaVuSans-Oblique-72" d="M 2853 2969 
Q 2766 3016 2653 3041 
Q 2541 3066 2413 3066 
Q 1953 3066 1609 2717 
Q 1266 2369 1153 1784 
L 800 0 
L 225 0 
L 909 3500 
L 1484 3500 
L 1375 2956 
Q 1603 3259 1920 3421 
Q 2238 3584 2597 3584 
Q 2691 3584 2781 3573 
Q 2872 3563 2963 3538 
L 2853 2969 
z
" transform="scale(0.015625)"/>
       <path id="DejaVuSans-Oblique-69" d="M 1172 4863 
L 1747 4863 
L 1606 4134 
L 1031 4134 
L 1172 4863 
z
M 909 3500 
L 1484 3500 
L 800 0 
L 225 0 
L 909 3500 
z
" transform="scale(0.015625)"/>
       <path id="DejaVuSans-2f" d="M 1625 4666 
L 2156 4666 
L 531 -594 
L 0 -594 
L 1625 4666 
z
" transform="scale(0.015625)"/>
       <path id="DejaVuSans-30" d="M 2034 4250 
Q 1547 4250 1301 3770 
Q 1056 3291 1056 2328 
Q 1056 1369 1301 889 
Q 1547 409 2034 409 
Q 2525 409 2770 889 
Q 3016 1369 3016 2328 
Q 3016 3291 2770 3770 
Q 2525 4250 2034 4250 
z
M 2034 4750 
Q 2819 4750 3233 4129 
Q 3647 3509 3647 2328 
Q 3647 1150 3233 529 
Q 2819 -91 2034 -91 
Q 1250 -91 836 529 
Q 422 1150 422 2328 
Q 422 3509 836 4129 
Q 1250 4750 2034 4750 
z
" transform="scale(0.015625)"/>
      </defs>
      <use xlink:href="#DejaVuSans-Oblique-72" transform="translate(0 0.09375)"/>
      <use xlink:href="#DejaVuSans-Oblique-69" transform="translate(41.113281 -16.3125) scale(0.7)"/>
      <use xlink:href="#DejaVuSans-2f" transform="translate(63.295898 0.09375)"/>
      <use xlink:href="#DejaVuSans-Oblique-72" transform="translate(96.987305 0.09375)"/>
      <use xlink:href="#DejaVuSans-30" transform="translate(138.100586 -16.3125) scale(0.7)"/>
     </g>
    </g>
   </g>
   <g id="line2d_6">
    <path d="M 55.884 109.830514 
L 253.53 109.830514 
L 253.53 109.830514 
" clip-path="url(#p43dd115a7c)" style="fill: none; stroke: #000000; stroke-width: 1.5; stroke-linecap: square"/>
   </g>
   <g id="line2d_7">
    <path d="M 55.884 115.329953 
L 56.111304 119.675542 
L 56.190367 119.851387 
L 56.239781 119.787949 
L 56.397905 119.1084 
L 57.366419 114.252017 
L 57.989035 112.574864 
L 58.868604 110.870966 
L 59.955711 109.23571 
L 61.042819 107.985266 
L 62.149691 107.04372 
L 63.335627 106.325004 
L 64.679687 105.773254 
L 66.300465 105.35638 
L 68.395617 105.059446 
L 71.429635 104.873055 
L 76.973883 104.791672 
L 105.86129 104.794377 
L 253.53 104.79479 
L 253.53 104.79479 
" clip-path="url(#p43dd115a7c)" style="fill: none; stroke: #808080; stroke-width: 1.5; stroke-linecap: square"/>
   </g>
   <g id="line2d_8">
    <path d="M 55.884 115.675775 
L 56.249663 124.155935 
L 56.55603 126.502802 
L 56.832748 127.261476 
L 57.010639 127.308151 
L 57.178646 127.082056 
L 57.435599 126.292929 
L 57.840793 124.201948 
L 58.591886 118.897971 
L 60.153367 107.948988 
L 61.121881 102.757991 
L 62.050864 98.941729 
L 62.960081 96.1038 
L 63.87918 93.93665 
L 64.808163 92.29333 
L 65.776677 91.020957 
L 66.794605 90.0439 
L 67.901478 89.286407 
L 69.156593 88.698745 
L 70.648894 88.251869 
L 72.536508 87.928943 
L 75.165331 87.72094 
L 79.573058 87.624628 
L 94.891388 87.635262 
L 212.071679 87.64269 
L 253.53 87.64269 
L 253.53 87.64269 
" clip-path="url(#p43dd115a7c)" style="fill: none; stroke: #808080; stroke-width: 1.5; stroke-linecap: square"/>
   </g>
   <g id="line2d_9">
    <path d="M 55.884 55.317312 
L 56.150835 96.574177 
L 56.427554 109.779061 
L 56.73392 115.218515 
L 57.060053 117.590391 
L 57.415833 118.7058 
L 57.870442 119.393359 
L 59.906297 121.956186 
L 61.6852 124.286016 
L 62.861253 125.45231 
L 64.027422 126.300593 
L 65.29242 126.943441 
L 66.745191 127.426864 
L 68.543859 127.78219 
L 70.994792 128.024327 
L 74.868848 128.158695 
L 84.079612 128.193265 
L 253.53 128.185431 
L 253.53 128.185431 
" clip-path="url(#p43dd115a7c)" style="fill: none; stroke: #808080; stroke-width: 1.5; stroke-linecap: square"/>
   </g>
   <g id="line2d_10">
    <path d="M 55.884 64.146788 
L 56.140953 124.136059 
L 56.397905 141.171068 
L 56.546147 142.930883 
L 56.575796 142.894005 
L 56.684506 142.257619 
L 57.317005 138.061417 
L 57.662903 137.226088 
L 57.96927 136.986552 
L 58.255871 137.030429 
L 58.621534 137.33436 
L 59.17497 138.123848 
L 60.173133 140.008749 
L 62.169457 143.757168 
L 63.365275 145.506337 
L 64.511679 146.798246 
L 65.677849 147.780863 
L 66.903315 148.523828 
L 68.247375 149.076725 
L 69.798974 149.46852 
L 71.736002 149.717085 
L 74.532833 149.831059 
L 80.600868 149.797397 
L 99.042162 149.698084 
L 192.464215 149.689298 
L 253.53 149.689298 
L 253.53 149.689298 
" clip-path="url(#p43dd115a7c)" style="fill: none; stroke: #808080; stroke-width: 1.5; stroke-linecap: square"/>
   </g>
   <g id="line2d_11">
    <path d="M 55.884 143.316214 
L 56.042125 144.677829 
L 56.13107 144.751559 
L 56.170601 144.710138 
L 56.299077 144.248732 
L 57.237943 139.822495 
L 57.593723 139.389667 
L 57.939621 139.297391 
L 58.334933 139.435102 
L 58.878487 139.888524 
L 59.777821 140.978373 
L 61.784028 143.440847 
L 62.900784 144.425332 
L 64.047188 145.138933 
L 65.3616 145.688118 
L 67.041675 146.136785 
L 69.462959 146.534898 
L 73.159124 146.899886 
L 78.436536 147.185884 
L 86.154998 147.362413 
L 101.068135 147.439018 
L 186.317117 147.448604 
L 253.53 147.448604 
L 253.53 147.448604 
" clip-path="url(#p43dd115a7c)" style="fill: none; stroke: #808080; stroke-width: 1.5; stroke-linecap: square"/>
   </g>
   <g id="line2d_12">
    <path d="M 55.884 136.789626 
L 55.963062 143.744582 
L 56.022359 141.712804 
L 56.30896 132.563795 
L 56.644975 129.154051 
L 57.277474 125.135054 
L 57.781496 123.193458 
L 58.236105 122.232186 
L 58.651182 121.823075 
L 59.046494 121.730149 
L 59.49122 121.868946 
L 60.084188 122.313784 
L 61.072467 123.378362 
L 63.612345 126.174372 
L 65.035467 127.366535 
L 66.498121 128.302244 
L 68.099134 129.059178 
L 69.937333 129.676064 
L 72.141196 130.173571 
L 74.938027 130.566991 
L 78.742903 130.86366 
L 84.455158 131.066411 
L 94.753029 131.177201 
L 126.44715 131.206704 
L 253.53 131.206976 
L 253.53 131.206976 
" clip-path="url(#p43dd115a7c)" style="fill: none; stroke: #808080; stroke-width: 1.5; stroke-linecap: square"/>
   </g>
   <g id="line2d_13">
    <path d="M 55.884 78.097616 
L 56.121187 126.1052 
L 56.318843 133.385132 
L 56.397905 133.672607 
L 56.447319 133.586757 
L 56.635092 132.601451 
L 57.307122 129.088435 
L 57.821028 127.557316 
L 58.305285 126.753432 
L 58.759893 126.392445 
L 59.214502 126.303139 
L 59.73829 126.43451 
L 60.449851 126.863812 
L 61.724731 127.943854 
L 64.066954 129.899515 
L 65.687732 130.946372 
L 67.367807 131.766465 
L 69.245538 132.431485 
L 71.449401 132.969338 
L 74.177052 133.397027 
L 77.784272 133.724502 
L 82.972739 133.95476 
L 91.659715 134.090517 
L 112.907722 134.138554 
L 253.53 134.1407 
L 253.53 134.1407 
" clip-path="url(#p43dd115a7c)" style="fill: none; stroke: #808080; stroke-width: 1.5; stroke-linecap: square"/>
   </g>
   <g id="line2d_14">
    <path d="M 55.884 27.807039 
L 56.180484 95.650887 
L 56.476968 119.012471 
L 56.8031 129.27763 
L 57.139115 133.745589 
L 57.485013 135.730965 
L 57.83091 136.568177 
L 58.196574 136.910245 
L 58.680831 137.038554 
L 60.934108 137.386021 
L 63.246682 138.176125 
L 66.448707 139.191279 
L 69.25542 139.837537 
L 72.417915 140.330923 
L 76.301853 140.701684 
L 81.510085 140.961257 
L 89.574445 141.11766 
L 106.839687 141.180465 
L 253.53 141.185757 
L 253.53 141.185757 
" clip-path="url(#p43dd115a7c)" style="fill: none; stroke: #808080; stroke-width: 1.5; stroke-linecap: square"/>
   </g>
   <g id="patch_3">
    <path d="M 55.884 155.94 
L 55.884 21.705469 
" style="fill: none; stroke: #000000; stroke-width: 0.8; stroke-linejoin: miter; stroke-linecap: square"/>
   </g>
   <g id="patch_4">
    <path d="M 253.53 155.94 
L 253.53 21.705469 
" style="fill: none; stroke: #000000; stroke-width: 0.8; stroke-linejoin: miter; stroke-linecap: square"/>
   </g>
   <g id="patch_5">
    <path d="M 55.884 155.94 
L 253.53 155.94 
" style="fill: none; stroke: #000000; stroke-width: 0.8; stroke-linejoin: miter; stroke-linecap: square"/>
   </g>
   <g id="patch_6">
    <path d="M 55.884 21.705469 
L 253.53 21.705469 
" style="fill: none; stroke: #000000; stroke-width: 0.8; stroke-linejoin: miter; stroke-linecap: square"/>
   </g>
  </g>
 </g>
 <defs>
  <clipPath id="p43dd115a7c">
   <rect x="55.884" y="21.705469" width="197.646" height="134.234531"/>
  </clipPath>
 </defs>
</svg>
