<?xml version="1.0" encoding="utf-8" standalone="no"?>
<!DOCTYPE svg PUBLIC "-//W3C//DTD SVG 1.1//EN"
  "http://www.w3.org/Graphics/SVG/1.1/DTD/svg11.dtd">
<svg xmlns:xlink="http://www.w3.org/1999/xlink" width="288pt" height="216pt" viewBox="0 0 288 216" xmlns="http://www.w3.org/2000/svg" version="1.1">
 <metadata>
  <rdf:RDF xmlns:dc="http://purl.org/dc/elements/1.1/" xmlns:cc="http://creativecommons.org/ns#" xmlns:rdf="http://www.w3.org/1999/02/22-rdf-syntax-ns#">
   <cc:Work>
    <dc:type rdf:resource="http://purl.org/dc/dcmitype/StillImage"/>
    <dc:date>2024-02-23T16:56:46.631837</dc:date>
    <dc:format>image/svg+xml</dc:format>
    <dc:creator>
     <cc:Agent>
      <dc:title>Matplotlib v3.7.2, https://matplotlib.org/</dc:title>
     </cc:Agent>
    </dc:creator>
   </cc:Work>
  </rdf:RDF>
 </metadata>
 <defs>
  <style type="text/css">*{stroke-linejoin: round; stroke-linecap: butt}</style>
 </defs>
 <g id="figure_1">
  <g id="patch_1">
   <path d="M 0 216 
L 288 216 
L 288 0 
L 0 0 
L 0 216 
z
" style="fill: none"/>
  </g>
  <g id="axes_1">
   <g id="patch_2">
    <path d="M 84 155.94 
L 253.575 155.94 
L 253.575 20.728902 
L 84 20.728902 
L 84 155.94 
z
" style="fill: none"/>
   </g>
   <g id="matplotlib.axis_1">
    <g id="xtick_1">
     <g id="line2d_1">
      <defs>
       <path id="mb07518eb3c" d="M 0 0 
L 0 -3.5 
" style="stroke: #000000; stroke-width: 0.8"/>
      </defs>
      <g>
       <use xlink:href="#mb07518eb3c" x="84" y="155.94" style="stroke: #000000; stroke-width: 0.8"/>
      </g>
     </g>
     <g id="text_1">
      <!-- 0 -->
      <g transform="translate(78.995156 172.324063) scale(0.18 -0.18)">
       <defs>
        <path id="ArialMT-30" d="M 266 2259 
Q 266 3072 433 3567 
Q 600 4063 929 4331 
Q 1259 4600 1759 4600 
Q 2128 4600 2406 4451 
Q 2684 4303 2865 4023 
Q 3047 3744 3150 3342 
Q 3253 2941 3253 2259 
Q 3253 1453 3087 958 
Q 2922 463 2592 192 
Q 2263 -78 1759 -78 
Q 1097 -78 719 397 
Q 266 969 266 2259 
z
M 844 2259 
Q 844 1131 1108 757 
Q 1372 384 1759 384 
Q 2147 384 2411 759 
Q 2675 1134 2675 2259 
Q 2675 3391 2411 3762 
Q 2147 4134 1753 4134 
Q 1366 4134 1134 3806 
Q 844 3388 844 2259 
z
" transform="scale(0.015625)"/>
       </defs>
       <use xlink:href="#ArialMT-30"/>
      </g>
     </g>
    </g>
    <g id="xtick_2">
     <g id="line2d_2">
      <g>
       <use xlink:href="#mb07518eb3c" x="168.7875" y="155.94" style="stroke: #000000; stroke-width: 0.8"/>
      </g>
     </g>
     <g id="text_2">
      <!-- 100 -->
      <g transform="translate(153.772969 172.324063) scale(0.18 -0.18)">
       <defs>
        <path id="ArialMT-31" d="M 2384 0 
L 1822 0 
L 1822 3584 
Q 1619 3391 1289 3197 
Q 959 3003 697 2906 
L 697 3450 
Q 1169 3672 1522 3987 
Q 1875 4303 2022 4600 
L 2384 4600 
L 2384 0 
z
" transform="scale(0.015625)"/>
       </defs>
       <use xlink:href="#ArialMT-31"/>
       <use xlink:href="#ArialMT-30" x="55.615234"/>
       <use xlink:href="#ArialMT-30" x="111.230469"/>
      </g>
     </g>
    </g>
    <g id="xtick_3">
     <g id="line2d_3">
      <g>
       <use xlink:href="#mb07518eb3c" x="253.575" y="155.94" style="stroke: #000000; stroke-width: 0.8"/>
      </g>
     </g>
     <g id="text_3">
      <!-- 200 -->
      <g transform="translate(238.560469 172.324063) scale(0.18 -0.18)">
       <defs>
        <path id="ArialMT-32" d="M 3222 541 
L 3222 0 
L 194 0 
Q 188 203 259 391 
Q 375 700 629 1000 
Q 884 1300 1366 1694 
Q 2113 2306 2375 2664 
Q 2638 3022 2638 3341 
Q 2638 3675 2398 3904 
Q 2159 4134 1775 4134 
Q 1369 4134 1125 3890 
Q 881 3647 878 3216 
L 300 3275 
Q 359 3922 746 4261 
Q 1134 4600 1788 4600 
Q 2447 4600 2831 4234 
Q 3216 3869 3216 3328 
Q 3216 3053 3103 2787 
Q 2991 2522 2730 2228 
Q 2469 1934 1863 1422 
Q 1356 997 1212 845 
Q 1069 694 975 541 
L 3222 541 
z
" transform="scale(0.015625)"/>
       </defs>
       <use xlink:href="#ArialMT-32"/>
       <use xlink:href="#ArialMT-30" x="55.615234"/>
       <use xlink:href="#ArialMT-30" x="111.230469"/>
      </g>
     </g>
    </g>
    <g id="text_4">
     <!-- $t$ -->
     <g transform="translate(165.1875 192.785625) scale(0.18 -0.18)">
      <defs>
       <path id="DejaVuSans-Oblique-74" d="M 2706 3500 
L 2619 3053 
L 1472 3053 
L 1100 1153 
Q 1081 1047 1072 975 
Q 1063 903 1063 863 
Q 1063 663 1183 572 
Q 1303 481 1569 481 
L 2150 481 
L 2053 0 
L 1503 0 
Q 991 0 739 200 
Q 488 400 488 806 
Q 488 878 497 964 
Q 506 1050 525 1153 
L 897 3053 
L 409 3053 
L 500 3500 
L 978 3500 
L 1172 4494 
L 1747 4494 
L 1556 3500 
L 2706 3500 
z
" transform="scale(0.015625)"/>
      </defs>
      <use xlink:href="#DejaVuSans-Oblique-74" transform="translate(0 0.78125)"/>
     </g>
    </g>
   </g>
   <g id="matplotlib.axis_2">
    <g id="ytick_1">
     <g id="line2d_4">
      <defs>
       <path id="mcd41d8b938" d="M 0 0 
L 3.5 0 
" style="stroke: #000000; stroke-width: 0.8"/>
      </defs>
      <g>
       <use xlink:href="#mcd41d8b938" x="84" y="151.513652" style="stroke: #000000; stroke-width: 0.8"/>
      </g>
     </g>
     <g id="text_5">
      <!-- −100 -->
      <g transform="translate(39.957813 157.955683) scale(0.18 -0.18)">
       <defs>
        <path id="ArialMT-2212" d="M 3381 1997 
L 356 1997 
L 356 2522 
L 3381 2522 
L 3381 1997 
z
" transform="scale(0.015625)"/>
       </defs>
       <use xlink:href="#ArialMT-2212"/>
       <use xlink:href="#ArialMT-31" x="58.398438"/>
       <use xlink:href="#ArialMT-30" x="114.013672"/>
       <use xlink:href="#ArialMT-30" x="169.628906"/>
      </g>
     </g>
    </g>
    <g id="ytick_2">
     <g id="line2d_5">
      <g>
       <use xlink:href="#mcd41d8b938" x="84" y="88.231348" style="stroke: #000000; stroke-width: 0.8"/>
      </g>
     </g>
     <g id="text_6">
      <!-- 0 -->
      <g transform="translate(70.490313 94.673379) scale(0.18 -0.18)">
       <use xlink:href="#ArialMT-30"/>
      </g>
     </g>
    </g>
    <g id="ytick_3">
     <g id="line2d_6">
      <g>
       <use xlink:href="#mcd41d8b938" x="84" y="24.949044" style="stroke: #000000; stroke-width: 0.8"/>
      </g>
     </g>
     <g id="text_7">
      <!-- 100 -->
      <g transform="translate(50.470938 31.391076) scale(0.18 -0.18)">
       <use xlink:href="#ArialMT-31"/>
       <use xlink:href="#ArialMT-30" x="55.615234"/>
       <use xlink:href="#ArialMT-30" x="111.230469"/>
      </g>
     </g>
    </g>
    <g id="text_8">
     <!-- $r_i$ -->
     <g transform="translate(32.380313 94.094451) rotate(-90) scale(0.18 -0.18)">
      <defs>
       <path id="DejaVuSans-Oblique-72" d="M 2853 2969 
Q 2766 3016 2653 3041 
Q 2541 3066 2413 3066 
Q 1953 3066 1609 2717 
Q 1266 2369 1153 1784 
L 800 0 
L 225 0 
L 909 3500 
L 1484 3500 
L 1375 2956 
Q 1603 3259 1920 3421 
Q 2238 3584 2597 3584 
Q 2691 3584 2781 3573 
Q 2872 3563 2963 3538 
L 2853 2969 
z
" transform="scale(0.015625)"/>
       <path id="DejaVuSans-Oblique-69" d="M 1172 4863 
L 1747 4863 
L 1606 4134 
L 1031 4134 
L 1172 4863 
z
M 909 3500 
L 1484 3500 
L 800 0 
L 225 0 
L 909 3500 
z
" transform="scale(0.015625)"/>
      </defs>
      <use xlink:href="#DejaVuSans-Oblique-72"/>
      <use xlink:href="#DejaVuSans-Oblique-69" transform="translate(41.113281 -16.40625) scale(0.7)"/>
     </g>
    </g>
   </g>
   <g id="line2d_7">
    <path d="M 84 88.075797 
L 84.10175 87.509084 
L 84.2035 85.468207 
L 84.313729 77.707992 
L 84.474834 43.577901 
L 84.559625 35.46295 
L 84.610501 37.190339 
L 84.788563 55.65432 
L 85.611043 149.794041 
L 85.653439 149.346337 
L 85.763668 144.573185 
L 85.967168 123.546269 
L 86.77269 26.874861 
L 86.781169 26.887658 
L 86.832044 27.647645 
L 86.950753 33.860254 
L 87.17969 60.684585 
L 87.874982 148.945526 
L 87.925858 149.539945 
L 87.976733 148.952578 
L 88.086962 143.709764 
L 88.298941 120.380146 
L 89.053588 27.044526 
L 89.079025 26.937627 
L 89.112942 27.256069 
L 89.206213 30.809826 
L 89.392755 48.592902 
L 90.223714 149.52483 
L 90.274589 148.944083 
L 90.384818 143.705841 
L 90.596797 120.358524 
L 91.351444 27.042848 
L 91.376881 26.942471 
L 91.410798 27.269901 
L 91.512548 31.364364 
L 91.707569 50.894277 
L 92.52157 149.523879 
L 92.547007 149.372117 
L 92.631799 146.744011 
L 92.801383 132.395407 
L 93.165987 76.4901 
L 93.556029 29.881415 
L 93.666258 26.941672 
L 93.708654 27.28529 
L 93.810404 31.418679 
L 94.005425 51.009643 
L 94.819426 149.52352 
L 94.844863 149.361566 
L 94.929655 146.700105 
L 95.099239 132.293417 
L 95.463843 76.345793 
L 95.853885 29.836533 
L 95.964114 26.940452 
L 96.00651 27.301117 
L 96.10826 31.47413 
L 96.303281 51.126805 
L 97.117282 149.522867 
L 97.14272 149.350665 
L 97.227511 146.655701 
L 97.397095 132.190802 
L 97.761699 76.201178 
L 98.151741 29.7919 
L 98.261971 26.93957 
L 98.304366 27.317303 
L 98.406117 31.529963 
L 98.601138 51.244287 
L 99.415138 149.521863 
L 99.432097 149.433162 
L 99.508409 147.413929 
L 99.661034 135.866082 
L 99.966285 91.611217 
L 100.441118 30.188712 
L 100.559827 26.939041 
L 100.602223 27.333842 
L 100.703973 31.586129 
L 100.898994 51.36199 
L 101.712994 149.520504 
L 101.729953 149.424966 
L 101.806265 147.375397 
L 101.95889 135.77314 
L 102.264141 91.463957 
L 102.738974 30.141496 
L 102.857683 26.938867 
L 102.900079 27.350733 
L 103.001829 31.642622 
L 103.19685 51.479907 
L 104.002371 149.520533 
L 104.027809 149.416416 
L 104.104121 147.336522 
L 104.265226 134.767323 
L 104.587434 87.05319 
L 105.036831 30.094617 
L 105.155539 26.939048 
L 105.197935 27.367977 
L 105.299685 31.699443 
L 105.494706 51.598036 
L 106.300228 149.521885 
L 106.325665 149.407512 
L 106.401978 147.297305 
L 106.563082 134.671211 
L 106.885291 86.905745 
L 107.334687 30.048075 
L 107.453395 26.939583 
L 107.495791 27.385573 
L 107.597541 31.756591 
L 107.792562 51.716378 
L 108.598084 149.522882 
L 108.615042 149.472748 
L 108.682875 147.959945 
L 108.827021 138.091718 
L 109.106834 99.488495 
L 109.641022 29.573784 
L 109.751251 26.940474 
L 109.793647 27.403522 
L 109.903876 32.384813 
L 110.107377 54.160941 
L 110.89594 149.523525 
L 110.921377 149.388641 
L 110.99769 147.217846 
L 111.158794 134.47818 
L 111.481003 86.610881 
L 111.92192 30.412171 
L 112.049107 26.941719 
L 112.083024 27.260083 
L 112.176295 30.81536 
L 112.362837 48.606655 
L 113.193796 149.523812 
L 113.244671 148.9376 
L 113.3549 143.687374 
L 113.56688 120.3206 
L 114.321526 27.040265 
L 114.346964 26.943319 
L 114.38088 27.275338 
L 114.48263 31.383278 
L 114.677651 50.93461 
L 115.491652 149.523745 
L 115.51709 149.368354 
L 115.601881 146.728355 
L 115.771465 132.358977 
L 116.136069 76.438391 
L 116.526111 29.865275 
L 116.636341 26.941205 
L 116.678736 27.290946 
L 116.780487 31.438577 
L 116.975508 51.051746 
L 117.789508 149.523323 
L 117.814946 149.35768 
L 117.899737 146.684155 
L 118.069321 132.256498 
L 118.433925 76.293706 
L 118.823967 29.82042 
L 118.934197 26.940094 
L 118.976593 27.306907 
L 119.078343 31.494204 
L 119.273364 51.169098 
L 120.087364 149.522546 
L 120.112802 149.346651 
L 120.197594 146.639618 
L 120.367177 132.153764 
L 120.731782 76.149089 
L 121.121824 29.775902 
L 121.232053 26.939338 
L 121.274449 27.32322 
L 121.376199 31.550159 
L 121.57122 51.286665 
L 122.385221 149.521414 
L 122.402179 149.43025 
L 122.478491 147.400087 
L 122.631117 135.832631 
L 122.936367 91.558168 
L 123.411201 30.171663 
L 123.529909 26.938937 
L 123.572305 27.339886 
L 123.674055 31.606443 
L 123.869076 51.404445 
L 124.683077 149.519927 
L 124.700035 149.421927 
L 124.776348 147.361432 
L 124.928973 135.73959 
L 125.234223 91.410901 
L 125.709057 30.124569 
L 125.827765 26.938891 
L 125.870161 27.356905 
L 125.971911 31.663054 
L 126.166932 51.522439 
L 126.972454 149.521061 
L 126.997891 149.413249 
L 127.074204 147.322434 
L 127.235308 134.732729 
L 127.557517 87.000071 
L 128.006913 30.077811 
L 128.125621 26.9392 
L 128.168017 27.374276 
L 128.269767 31.719993 
L 128.464788 51.640645 
L 129.27031 149.522285 
L 129.295747 149.404217 
L 129.37206 147.283093 
L 129.533164 134.63652 
L 129.855373 86.85263 
L 130.304769 30.03139 
L 130.423477 26.939863 
L 130.465873 27.391999 
L 130.567623 31.777259 
L 130.762644 51.759063 
L 131.568166 149.523155 
L 131.585124 149.470556 
L 131.652958 147.947997 
L 131.797104 138.0608 
L 132.076916 99.436266 
L 132.602625 29.985306 
L 132.721334 26.940882 
L 132.763729 27.410074 
L 132.873959 32.406727 
L 133.077459 54.205118 
L 133.866022 149.523669 
L 133.899939 149.273054 
L 133.99321 145.89923 
L 134.171272 129.473871 
L 134.620669 59.321215 
L 134.942877 28.139206 
L 135.01919 26.942255 
L 135.070065 27.624174 
L 135.188773 33.707453 
L 135.409232 59.204229 
L 136.121482 149.112978 
L 136.163878 149.523829 
L 136.214753 148.930247 
L 136.324982 143.664727 
L 136.536962 120.275323 
L 137.291608 27.037233 
L 137.308567 26.942102 
L 137.350963 27.28092 
L 137.452713 31.403162 
L 137.647734 50.976784 
L 138.461734 149.523634 
L 138.487172 149.364549 
L 138.571964 146.712471 
L 138.741547 132.322088 
L 139.106152 76.38626 
L 139.496194 29.849077 
L 139.606423 26.940764 
L 139.648819 27.296655 
L 139.750569 31.458578 
L 139.94559 51.093998 
L 140.75959 149.523084 
L 140.785028 149.353747 
L 140.86982 146.66815 
L 141.039403 132.219517 
L 141.404008 76.241599 
L 141.79405 29.804343 
L 141.904279 26.939781 
L 141.946675 27.312743 
L 142.048425 31.514324 
L 142.243446 51.211427 
L 143.057447 149.522179 
L 143.074405 149.435389 
L 143.150718 147.424638 
L 143.303343 135.89201 
L 143.608593 91.652372 
L 144.083427 30.201968 
L 144.202135 26.939153 
L 144.244531 27.329183 
L 144.346281 31.570398 
L 144.541302 51.329071 
L 145.355303 149.520919 
L 145.372261 149.427292 
L 145.448574 147.386201 
L 145.601199 135.799144 
L 145.906449 91.505117 
L 146.381283 30.154659 
L 146.499991 26.93888 
L 146.542387 27.345976 
L 146.644137 31.6268 
L 146.839158 51.446928 
L 147.64468 149.520092 
L 147.670117 149.418841 
L 147.74643 147.347422 
L 147.907534 134.794137 
L 148.229743 87.0944 
L 148.679139 30.107686 
L 148.797847 26.938962 
L 148.840243 27.363122 
L 148.941993 31.683529 
L 149.137014 51.564998 
L 149.942536 149.521543 
L 149.967973 149.410036 
L 150.044286 147.308301 
L 150.20539 134.6981 
L 150.527599 86.946954 
L 150.976995 30.061049 
L 151.095704 26.939398 
L 151.138099 27.38062 
L 151.239849 31.740586 
L 151.43487 51.683281 
L 152.240392 149.522639 
L 152.26583 149.400877 
L 152.342142 147.268837 
L 152.503246 134.601794 
L 152.825455 86.799516 
L 153.274851 30.014749 
L 153.39356 26.940189 
L 153.435956 27.39847 
L 153.537706 31.79797 
L 153.732727 51.801775 
L 154.538248 149.523381 
L 154.555207 149.468319 
L 154.62304 147.936005 
L 154.767186 138.029845 
L 155.046999 99.384028 
L 155.572707 29.968786 
L 155.691416 26.941335 
L 155.733812 27.416672 
L 155.844041 32.428683 
L 156.047541 54.249321 
L 156.836104 149.523767 
L 156.870021 149.26823 
L 156.963292 145.88121 
L 157.141355 129.434554 
L 157.590751 59.274379 
L 157.912959 28.128766 
L 157.989272 26.942836 
L 158.040147 27.632119 
L 158.158855 33.731743 
L 158.379314 59.251033 
L 159.091565 149.119096 
L 159.13396 149.523799 
L 159.184835 148.922848 
L 159.295065 143.642038 
L 159.507044 120.230021 
L 160.261691 27.034247 
L 160.278649 26.941579 
L 160.321045 27.286548 
L 160.422795 31.423088 
L 160.617816 51.018986 
L 161.431817 149.523476 
L 161.457254 149.360699 
L 161.542046 146.696543 
L 161.711629 132.285166 
L 162.076234 76.334137 
L 162.466276 29.832923 
L 162.576505 26.940369 
L 162.618901 27.30241 
L 162.720651 31.478623 
L 162.915672 51.136277 
L 163.729673 149.522799 
L 163.75511 149.349769 
L 163.839902 146.6521 
L 164.009485 132.182503 
L 164.37409 76.189502 
L 164.764132 29.788311 
L 164.874361 26.939514 
L 164.916757 27.318625 
L 165.018507 31.534487 
L 165.213528 51.253784 
L 166.027529 149.521766 
L 166.044487 149.432513 
L 166.1208 147.41083 
L 166.273425 135.858586 
L 166.578675 91.599325 
L 167.053509 30.184886 
L 167.172217 26.939014 
L 167.214613 27.335193 
L 167.316363 31.590679 
L 167.511384 51.371505 
L 168.325385 149.520378 
L 168.342343 149.424289 
L 168.418656 147.37227 
L 168.571281 135.765622 
L 168.876531 91.452063 
L 169.351365 30.137698 
L 169.470074 26.938868 
L 169.512469 27.352113 
L 169.614219 31.647199 
L 169.80924 51.489439 
L 170.614762 149.520655 
L 170.6402 149.41571 
L 170.716512 147.333368 
L 170.877616 134.759571 
L 171.199825 87.041282 
L 171.649221 30.090846 
L 171.76793 26.939078 
L 171.810326 27.369385 
L 171.912076 31.704046 
L 172.107097 51.607586 
L 172.912618 149.521979 
L 172.938056 149.406777 
L 173.014368 147.294123 
L 173.175473 134.663437 
L 173.497681 86.893838 
L 173.947077 30.04433 
L 174.065786 26.939642 
L 174.108182 27.38701 
L 174.209932 31.761221 
L 174.404953 51.725945 
L 175.210474 149.522947 
L 175.227433 149.472261 
L 175.295266 147.95727 
L 175.439412 138.08479 
L 175.719225 99.476787 
L 176.253413 29.57033 
L 176.363642 26.940561 
L 176.406038 27.404987 
L 176.516267 32.389722 
L 176.719767 54.170842 
L 177.50833 149.523561 
L 177.533768 149.387849 
L 177.610081 147.214608 
L 177.771185 134.470363 
L 178.093393 86.598975 
L 178.53431 30.40822 
L 178.661498 26.941835 
L 178.695415 27.261302 
L 178.788686 30.819529 
L 178.975228 48.615743 
L 179.806187 149.52382 
L 179.857062 148.935956 
L 179.967291 143.682301 
L 180.17927 120.310452 
L 180.933917 27.039581 
L 180.959354 26.943464 
L 180.993271 27.276586 
L 181.095021 31.387732 
L 181.290042 50.944061 
L 182.104043 149.523724 
L 182.12948 149.367505 
L 182.214272 146.724798 
L 182.383855 132.35071 
L 182.74846 76.426704 
L 183.138502 29.86164 
L 183.248731 26.941102 
L 183.291127 27.292222 
L 183.392877 31.443057 
L 183.587898 51.061216 
L 184.401899 149.523273 
L 184.427336 149.356802 
L 184.512128 146.680571 
L 184.681712 132.248211 
L 185.046316 76.282024 
L 185.436358 29.816812 
L 185.546587 26.94002 
L 185.588983 27.308211 
L 185.690733 31.49871 
L 185.885754 51.178585 
L 186.699755 149.522467 
L 186.725193 149.345745 
L 186.809984 146.636006 
L 186.979568 132.145456 
L 187.344172 76.137413 
L 187.734214 29.772322 
L 187.844443 26.939293 
L 187.886839 27.324553 
L 187.988589 31.554692 
L 188.18361 51.296169 
L 188.997611 149.521307 
L 189.014569 149.429591 
L 189.090882 147.396978 
L 189.243507 135.825127 
L 189.548757 91.546276 
L 190.023591 30.167847 
L 190.1423 26.938921 
L 190.184695 27.341247 
L 190.286446 31.611003 
L 190.481467 51.413966 
L 191.295467 149.519792 
L 191.312426 149.421239 
L 191.388738 147.358295 
L 191.541363 135.732064 
L 191.846614 91.399007 
L 192.321447 30.12078 
L 192.440156 26.938903 
L 192.482552 27.358294 
L 192.584302 31.667641 
L 192.779323 51.531977 
L 193.584844 149.521173 
L 193.610282 149.412533 
L 193.686594 147.319269 
L 193.847699 134.724969 
L 194.169907 86.988164 
L 194.619303 30.07405 
L 194.738012 26.93924 
L 194.780408 27.375694 
L 194.882158 31.724606 
L 195.077179 51.6502 
L 195.8827 149.522369 
L 195.908138 149.403472 
L 195.98445 147.279901 
L 196.145555 134.628738 
L 196.467763 86.840723 
L 196.91716 30.027656 
L 197.035868 26.939932 
L 197.078264 27.393446 
L 197.180014 31.781899 
L 197.375035 51.768636 
L 198.180557 149.523209 
L 198.197515 149.470059 
L 198.265348 147.945313 
L 198.409494 138.053864 
L 198.689307 99.424556 
L 199.215016 29.981599 
L 199.333724 26.940979 
L 199.37612 27.411549 
L 199.486349 32.411646 
L 199.689849 54.215025 
L 200.478413 149.523695 
L 200.512329 149.271976 
L 200.6056 145.895194 
L 200.783663 129.465059 
L 201.233059 59.310714 
L 201.555268 28.136862 
L 201.63158 26.942381 
L 201.682455 27.625951 
L 201.801164 33.712895 
L 202.021622 59.21472 
L 202.733873 149.114353 
L 202.776269 149.523826 
L 202.827144 148.928593 
L 202.937373 143.659644 
L 203.149352 120.265169 
L 203.903999 27.03656 
L 203.920957 26.941981 
L 203.963353 27.282178 
L 204.065103 31.407625 
L 204.260124 50.986242 
L 205.074125 149.523602 
L 205.099562 149.36369 
L 205.184354 146.708904 
L 205.353938 132.313814 
L 205.718542 76.374574 
L 206.108584 29.845452 
L 206.218813 26.940671 
L 206.261209 27.297941 
L 206.362959 31.463068 
L 206.55798 51.103474 
L 207.371981 149.523024 
L 207.397419 149.35286 
L 207.48221 146.664555 
L 207.651794 132.211222 
L 208.016398 76.229919 
L 208.40644 29.800745 
L 208.51667 26.939717 
L 208.559065 27.314058 
L 208.660816 31.51884 
L 208.855837 51.22092 
L 209.669837 149.52209 
L 209.686796 149.434748 
L 209.763108 147.421546 
L 209.915733 135.88452 
L 210.220984 91.64048 
L 210.695817 30.198135 
L 210.814526 26.939118 
L 210.856922 27.330527 
L 210.958672 31.574941 
L 211.153693 51.338581 
L 211.967693 149.520802 
L 211.984652 149.426623 
L 212.060964 147.383082 
L 212.213589 135.791633 
L 212.51884 91.493224 
L 212.993673 30.150853 
L 213.112382 26.938873 
L 213.154778 27.347348 
L 213.256528 31.631369 
L 213.451549 51.456456 
L 214.25707 149.520222 
L 214.282508 149.418143 
L 214.35882 147.344275 
L 214.519925 134.786391 
L 214.842133 87.082492 
L 215.29153 30.103907 
L 215.410238 26.938984 
L 215.452634 27.364522 
L 215.554384 31.688125 
L 215.749405 51.574543 
L 216.554926 149.521645 
L 216.580364 149.40931 
L 216.656677 147.305126 
L 216.817781 134.690333 
L 217.139989 86.935047 
L 217.589386 30.057297 
L 217.708094 26.939449 
L 217.75049 27.382048 
L 217.85224 31.745208 
L 218.047261 51.692843 
L 218.852783 149.522712 
L 218.869741 149.473937 
L 218.937574 147.966516 
L 219.08172 138.108757 
L 219.361533 99.517303 
L 219.895721 29.582292 
L 220.00595 26.940269 
L 220.048346 27.399927 
L 220.150096 31.802618 
L 220.345117 51.811354 
L 221.150639 149.523425 
L 221.167597 149.467811 
L 221.235431 147.933311 
L 221.379576 138.0229 
L 221.659389 99.372317 
L 222.185098 29.965089 
L 222.303806 26.941443 
L 222.346202 27.418158 
L 222.456432 32.433611 
L 222.659932 54.259233 
L 223.448495 149.523783 
L 223.482412 149.267142 
L 223.575683 145.877164 
L 223.753745 129.425735 
L 224.203141 59.263882 
L 224.52535 28.126432 
L 224.601663 26.942973 
L 224.644058 27.436741 
L 224.754288 32.494803 
L 224.966267 55.576247 
L 225.729393 149.461209 
L 225.746351 149.523786 
L 225.780268 149.253483 
L 225.873539 145.826888 
L 226.060081 128.250503 
L 226.89104 26.941468 
L 226.950394 27.656228 
L 227.069102 33.804857 
L 227.289561 59.391574 
L 228.001811 149.137176 
L 228.044207 149.523435 
L 228.095082 148.900378 
L 228.205312 143.573721 
L 228.417291 120.093973 
L 229.171937 27.025566 
L 229.188896 26.940287 
L 229.231292 27.303707 
L 229.333042 31.483122 
L 229.528063 51.145759 
L 230.342063 149.522728 
L 230.367501 149.348871 
L 230.452293 146.648496 
L 230.621876 132.174201 
L 230.986481 76.177824 
L 231.376523 29.784722 
L 231.486752 26.93946 
L 231.529148 27.31995 
L 231.630898 31.539013 
L 231.825919 51.263283 
L 232.639919 149.521667 
L 232.656878 149.431862 
L 232.73319 147.407729 
L 232.885816 135.851089 
L 233.191066 91.587433 
L 233.6659 30.181063 
L 233.784608 26.938989 
L 233.827004 27.336546 
L 233.928754 31.595231 
L 234.123775 51.381021 
L 234.937776 149.520251 
L 234.954734 149.423609 
L 235.031047 147.369141 
L 235.183672 135.758102 
L 235.488922 91.440169 
L 235.963756 30.133901 
L 236.082464 26.938872 
L 236.12486 27.353494 
L 236.22661 31.651778 
L 236.421631 51.498973 
L 237.227153 149.520775 
L 237.25259 149.415002 
L 237.328903 147.330211 
L 237.490007 134.751817 
L 237.812216 87.029374 
L 238.261612 30.087077 
L 238.38032 26.93911 
L 238.422716 27.370795 
L 238.524466 31.708652 
L 238.719487 51.617136 
L 239.525009 149.52207 
L 239.550446 149.40604 
L 239.626759 147.290939 
L 239.787863 134.655661 
L 240.110072 86.881931 
L 240.559468 30.040589 
L 240.678176 26.939703 
L 240.720572 27.388449 
L 240.822322 31.765853 
L 241.017343 51.735512 
L 241.822865 149.52301 
L 241.839823 149.471771 
L 241.907657 147.954594 
L 242.051803 138.07786 
L 242.331615 99.465079 
L 242.865803 29.566879 
L 242.976033 26.940651 
L 243.018428 27.406454 
L 243.128658 32.394633 
L 243.332158 54.180745 
L 244.120721 149.523595 
L 244.154638 149.275695 
L 244.247909 145.909153 
L 244.425971 129.495547 
L 244.875368 59.347061 
L 245.197576 28.144985 
L 245.273889 26.941954 
L 245.324764 27.61981 
L 245.443472 33.694071 
L 245.663931 59.17842 
L 246.376181 149.109583 
L 246.418577 149.523825 
L 246.469452 148.934309 
L 246.579681 143.677225 
L 246.791661 120.300303 
L 247.546307 27.0389 
L 247.563266 26.94241 
L 247.605662 27.277835 
L 247.707412 31.392188 
L 247.902433 50.953515 
L 248.716433 149.523701 
L 248.741871 149.366654 
L 248.826663 146.721238 
L 248.996246 132.342442 
L 249.360851 76.415017 
L 249.750893 29.858008 
L 249.861122 26.941002 
L 249.903518 27.2935 
L 250.005268 31.447539 
L 250.200289 51.070686 
L 251.014289 149.523221 
L 251.039727 149.355922 
L 251.124519 146.676985 
L 251.294102 132.239922 
L 251.658707 76.270343 
L 252.048749 29.813206 
L 252.158978 26.939948 
L 252.201374 27.309518 
L 252.303124 31.503219 
L 252.498145 51.188073 
L 253.312146 149.522387 
L 253.337583 149.344837 
L 253.422375 146.632392 
L 253.575 134.073103 
L 253.575 134.073103 
" clip-path="url(#p064a62e883)" style="fill: none; stroke: #000000; stroke-width: 1.5; stroke-linecap: square"/>
   </g>
   <g id="line2d_8">
    <path d="M 84 87.853914 
L 84.110229 87.059334 
L 84.220459 84.360735 
L 84.347646 74.09399 
L 84.50875 54.886647 
L 84.568105 58.362589 
L 84.830959 98.106948 
L 85.22948 144.800903 
L 85.348189 147.75197 
L 85.390585 147.309444 
L 85.500814 142.532866 
L 85.704314 121.645497 
L 86.492877 29.45989 
L 86.501356 29.454728 
L 86.518315 29.538977 
L 86.594627 31.467118 
L 86.747252 42.5023 
L 87.052503 84.811049 
L 87.527336 143.659377 
L 87.646045 146.826505 
L 87.688441 146.472062 
L 87.790191 142.462796 
L 87.985212 123.654271 
L 88.799212 29.68263 
L 88.82465 29.849709 
L 88.909442 32.432104 
L 89.079025 46.261661 
L 89.44363 99.746545 
L 89.833672 144.052264 
L 89.943901 146.768795 
L 89.986297 146.405136 
L 90.088047 142.375223 
L 90.283068 123.537348 
L 91.097069 29.698451 
L 91.114027 29.784183 
L 91.19034 31.71708 
L 91.342965 42.753377 
L 91.648215 85.024813 
L 92.123049 143.668752 
L 92.241757 146.765401 
L 92.284153 146.385912 
L 92.385903 142.319301 
L 92.580924 123.424622 
L 93.394925 29.700776 
L 93.411883 29.792988 
L 93.488196 31.754635 
L 93.640821 42.842462 
L 93.946071 85.165161 
L 94.420905 143.71346 
L 94.539613 146.765262 
L 94.582009 146.369508 
L 94.683759 142.265156 
L 94.87878 123.311963 
L 95.684302 29.700377 
L 95.709739 29.801265 
L 95.786052 31.791856 
L 95.947156 43.803441 
L 96.269365 89.37742 
L 96.718761 143.75816 
L 96.837469 146.765023 
L 96.879865 146.352975 
L 96.981615 142.210836 
L 97.176636 123.199119 
L 97.982158 29.699141 
L 98.007595 29.809823 
L 98.083908 31.829359 
L 98.245012 43.895266 
L 98.567221 89.518226 
L 99.016617 143.802558 
L 99.135326 146.764459 
L 99.177721 146.33612 
L 99.279471 142.156213 
L 99.474492 123.086073 
L 100.280014 29.698239 
L 100.296972 29.747088 
L 100.364806 31.195651 
L 100.508952 40.627218 
L 100.788764 77.501436 
L 101.322952 144.254991 
L 101.433182 146.763559 
L 101.475578 146.318929 
L 101.585807 141.555774 
L 101.789307 120.750944 
L 102.57787 29.697676 
L 102.611787 29.934251 
L 102.705058 33.148827 
L 102.88312 48.822984 
L 103.332517 115.814051 
L 103.654725 145.613057 
L 103.731038 146.762319 
L 103.781913 146.115221 
L 103.900621 140.314899 
L 104.12108 115.978287 
L 104.83333 30.09326 
L 104.875726 29.697452 
L 104.926601 30.260185 
L 105.036831 35.280144 
L 105.24881 57.604176 
L 106.003456 146.669615 
L 106.028894 146.76074 
L 106.062811 146.441726 
L 106.164561 142.513034 
L 106.359582 123.832858 
L 107.173582 29.697567 
L 107.19902 29.84742 
L 107.283812 32.373362 
L 107.453395 46.104301 
L 107.818 99.514091 
L 108.208042 143.976938 
L 108.318271 146.763195 
L 108.360667 146.42677 
L 108.462417 142.460178 
L 108.657438 123.720963 
L 109.471439 29.69802 
L 109.496876 29.857664 
L 109.581668 32.41562 
L 109.751251 46.202204 
L 110.115856 99.652254 
L 110.505898 144.019727 
L 110.616127 146.764205 
L 110.658523 146.411478 
L 110.760273 142.407008 
L 110.955294 123.608862 
L 111.769295 29.698813 
L 111.794732 29.868246 
L 111.879524 32.458202 
L 112.049107 46.30035 
L 112.413712 99.790352 
L 112.803754 144.062193 
L 112.913983 146.764877 
L 112.956379 146.395849 
L 113.058129 142.353524 
L 113.25315 123.496557 
L 114.067151 29.699944 
L 114.084109 29.787976 
L 114.160422 31.731075 
L 114.313047 42.785643 
L 114.618297 85.075168 
L 115.093131 143.684658 
L 115.211839 146.765209 
L 115.254235 146.379883 
L 115.355985 142.299727 
L 115.551006 123.384047 
L 116.365007 29.701414 
L 116.381965 29.795975 
L 116.458278 31.768039 
L 116.619382 43.744832 
L 116.941591 89.287334 
L 117.390987 143.729585 
L 117.509695 146.765203 
L 117.552091 146.36358 
L 117.653841 142.245617 
L 117.848862 123.271333 
L 118.654384 29.699896 
L 118.679821 29.804312 
L 118.756134 31.805331 
L 118.917238 43.836492 
L 119.239447 89.428146 
L 119.688843 143.77419 
L 119.807552 146.764858 
L 119.849947 146.346941 
L 119.951698 142.191194 
L 120.146719 123.158417 
L 120.95224 29.698777 
L 120.977678 29.812987 
L 121.05399 31.842949 
L 121.215095 43.92841 
L 121.537303 89.56895 
L 121.986699 143.818475 
L 122.105408 146.764174 
L 122.147804 146.329965 
L 122.249554 142.136459 
L 122.444575 123.045299 
L 123.250096 29.697997 
L 123.267055 29.749199 
L 123.334888 31.207078 
L 123.479034 40.656759 
L 123.758847 77.551317 
L 124.284555 143.862437 
L 124.403264 146.763151 
L 124.44566 146.312653 
L 124.555889 141.53483 
L 124.759389 120.708745 
L 125.547952 29.697556 
L 125.581869 29.938832 
L 125.67514 33.166013 
L 125.853203 48.860515 
L 126.302599 115.858791 
L 126.624807 145.623053 
L 126.70112 146.761789 
L 126.751995 146.107659 
L 126.870704 140.291726 
L 127.091162 115.933602 
L 127.803413 30.087391 
L 127.845809 29.697454 
L 127.896684 30.267225 
L 128.006913 35.301789 
L 128.218892 57.647425 
L 128.973539 146.672492 
L 128.990497 146.762371 
L 129.032893 146.436377 
L 129.134643 142.494028 
L 129.329664 123.792571 
L 130.143665 29.697691 
L 130.169102 29.851071 
L 130.253894 32.388549 
L 130.423477 46.139542 
L 130.788082 99.563872 
L 131.178124 143.99239 
L 131.288353 146.763598 
L 131.330749 146.4213 
L 131.432499 142.441059 
L 131.62752 123.680602 
L 132.441521 29.698267 
L 132.466958 29.861437 
L 132.55175 32.430923 
L 132.721334 46.237533 
L 133.085938 99.702012 
L 133.47598 144.035063 
L 133.586209 146.764486 
L 133.628605 146.405886 
L 133.730355 142.387776 
L 133.925376 123.568427 
L 134.739377 29.699181 
L 134.756335 29.783036 
L 134.832648 31.707598 
L 134.985273 42.728912 
L 135.290523 84.985203 
L 135.765357 143.655748 
L 135.884065 146.765036 
L 135.926461 146.390136 
L 136.028211 142.334179 
L 136.223232 123.456048 
L 137.037233 29.700434 
L 137.054191 29.790818 
L 137.130504 31.744354 
L 137.283129 42.817637 
L 137.588379 85.125833 
L 138.063213 143.70088 
L 138.181922 146.765246 
L 138.224317 146.374048 
L 138.326068 142.280269 
L 138.521089 123.343465 
L 139.32661 29.700789 
L 139.352048 29.798939 
L 139.42836 31.781436 
L 139.589464 43.777823 
L 139.911673 89.338063 
L 140.361069 143.745691 
L 140.479778 146.765118 
L 140.522174 146.357625 
L 140.623924 142.226047 
L 140.818945 123.230678 
L 141.624466 29.699454 
L 141.649904 29.807398 
L 141.726216 31.818845 
L 141.887321 43.869576 
L 142.209529 89.478872 
L 142.658925 143.790181 
L 142.777634 146.764651 
L 142.82003 146.340864 
L 142.92178 142.171511 
L 143.116801 123.117689 
L 143.922322 29.698457 
L 143.939281 29.745481 
L 144.007114 31.186815 
L 144.15126 40.604324 
L 144.431073 77.462742 
L 144.965261 144.243575 
L 145.07549 146.763845 
L 145.117886 146.323767 
L 145.228115 141.571996 
L 145.431615 120.783666 
L 146.220179 29.697799 
L 146.245616 29.825331 
L 146.321929 31.894643 
L 146.483033 44.053852 
L 146.805242 89.760468 
L 147.246159 143.442151 
L 147.373346 146.7627 
L 147.407263 146.46037 
L 147.500534 143.069669 
L 147.687076 126.086712 
L 148.518035 29.69748 
L 148.56891 30.254753 
L 148.679139 35.263379 
L 148.891118 57.570638 
L 149.645765 146.667352 
L 149.671202 146.761216 
L 149.705119 146.445846 
L 149.806869 142.527751 
L 150.00189 123.864096 
L 150.815891 29.6975 
L 150.841328 29.844617 
L 150.92612 32.361609 
L 151.095704 46.076981 
L 151.460308 99.475463 
L 151.85035 143.964921 
L 151.960579 146.762852 
L 152.002975 146.430984 
L 152.104725 142.474982 
L 152.299746 123.752258 
L 153.113747 29.697859 
L 153.139184 29.854767 
L 153.223976 32.403777 
L 153.39356 46.174816 
L 153.758164 99.613645 
L 154.148206 144.007801 
L 154.258435 146.763957 
L 154.300831 146.415786 
L 154.402581 142.4219 
L 154.597602 123.640214 
L 155.411603 29.698557 
L 155.437041 29.865254 
L 155.521832 32.446268 
L 155.691416 46.272894 
L 156.05602 99.751761 
L 156.446062 144.050357 
L 156.556292 146.764723 
L 156.598687 146.400251 
L 156.700438 142.368504 
L 156.895459 123.527966 
L 157.709459 29.699593 
L 157.726418 29.7858 
L 157.80273 31.720802 
L 157.955355 42.760845 
L 158.260606 85.035863 
L 158.735439 143.672044 
L 158.854148 146.765151 
L 158.896544 146.384379 
L 158.998294 142.314794 
L 159.193315 123.415513 
L 160.007315 29.700969 
L 160.024274 29.793705 
L 160.100586 31.757675 
L 160.253211 42.849665 
L 160.558462 85.1765 
L 161.033295 143.71706 
L 161.152004 146.765239 
L 161.1944 146.368171 
L 161.29615 142.260771 
L 161.491171 123.302856 
L 162.296692 29.700269 
L 162.32213 29.801948 
L 162.398442 31.794875 
L 162.559547 43.810848 
L 162.881755 89.38879 
L 163.331152 143.761756 
L 163.44986 146.764989 
L 163.492256 146.351625 
L 163.594006 142.206436 
L 163.789027 123.189997 
L 164.594548 29.699056 
L 164.619986 29.810529 
L 164.696299 31.832402 
L 164.857403 43.902693 
L 165.179611 89.529597 
L 165.629008 143.80613 
L 165.747716 146.764399 
L 165.790112 146.334744 
L 165.891862 142.151788 
L 166.086883 123.076935 
L 166.892405 29.698181 
L 166.909363 29.747558 
L 166.977196 31.198209 
L 167.121342 40.633837 
L 167.401155 77.512617 
L 167.935343 144.258286 
L 168.045572 146.763471 
L 168.087968 146.317526 
L 168.198197 141.551083 
L 168.401698 120.741486 
L 169.190261 29.697645 
L 169.224177 29.935274 
L 169.317448 33.152676 
L 169.495511 48.831395 
L 169.944907 115.824082 
L 170.267116 145.615302 
L 170.343428 146.762204 
L 170.394303 146.113529 
L 170.513012 140.309708 
L 170.73347 115.968272 
L 171.445721 30.09194 
L 171.488117 29.697449 
L 171.538992 30.26176 
L 171.649221 35.284993 
L 171.861201 57.613869 
L 172.615847 146.670264 
L 172.632805 146.761967 
L 172.675201 146.440531 
L 172.776951 142.508777 
L 172.971972 123.823829 
L 173.785973 29.697591 
L 173.811411 29.848234 
L 173.896202 32.376763 
L 174.065786 46.112198 
L 174.43039 99.525251 
L 174.820432 143.980406 
L 174.930662 146.763289 
L 174.973057 146.425548 
L 175.074807 142.455895 
L 175.269828 123.711917 
L 176.083829 29.698072 
L 176.109267 29.858506 
L 176.194058 32.419047 
L 176.363642 46.210121 
L 176.728246 99.66341 
L 177.118288 144.023169 
L 177.228518 146.764272 
L 177.270914 146.410228 
L 177.372664 142.4027 
L 177.567685 123.5998 
L 178.381685 29.698891 
L 178.407123 29.869115 
L 178.491915 32.461655 
L 178.661498 46.308287 
L 179.026103 99.801502 
L 179.416145 144.065609 
L 179.526374 146.764916 
L 179.56877 146.394572 
L 179.67052 142.349191 
L 179.865541 123.487478 
L 180.679541 29.70005 
L 180.6965 29.788609 
L 180.772812 31.734048 
L 180.925438 42.792812 
L 181.230688 85.086526 
L 181.705522 143.688298 
L 181.82423 146.765221 
L 181.866626 146.378579 
L 181.968376 142.295368 
L 182.163397 123.374952 
L 182.968918 29.701223 
L 182.994356 29.796635 
L 183.070669 31.771039 
L 183.231773 43.752225 
L 183.553981 89.298706 
L 184.003378 143.733199 
L 184.122086 146.765188 
L 184.164482 146.362249 
L 184.266232 142.241233 
L 184.461253 123.262222 
L 185.266775 29.699793 
L 185.292212 29.805 
L 185.368525 31.808357 
L 185.529629 43.843906 
L 185.851838 89.439517 
L 186.301234 143.777779 
L 186.419942 146.764815 
L 186.462338 146.345583 
L 186.564088 142.186785 
L 186.759109 123.149289 
L 187.564631 29.698702 
L 187.590068 29.813703 
L 187.666381 31.846001 
L 187.827485 43.935844 
L 188.149694 89.580321 
L 188.59909 143.822037 
L 188.717798 146.764104 
L 188.760194 146.32858 
L 188.861944 142.132025 
L 189.056965 123.036155 
L 189.862487 29.697949 
L 189.879445 29.749679 
L 189.947279 31.209645 
L 190.091425 40.663386 
L 190.371237 77.562501 
L 190.896946 143.865973 
L 191.015655 146.763054 
L 191.05805 146.311241 
L 191.16828 141.530129 
L 191.37178 120.699282 
L 192.160343 29.697536 
L 192.19426 29.939865 
L 192.287531 33.169871 
L 192.465593 48.868932 
L 192.914989 115.868818 
L 193.237198 145.625288 
L 193.313511 146.761665 
L 193.364386 146.105957 
L 193.483094 140.286526 
L 193.703553 115.923582 
L 194.415803 30.086081 
L 194.458199 29.697461 
L 194.509074 30.26881 
L 194.619303 35.306646 
L 194.831283 57.657123 
L 195.585929 146.673131 
L 195.602888 146.762483 
L 195.645284 146.435172 
L 195.747034 142.489762 
L 195.942055 123.783536 
L 196.756055 29.697725 
L 196.781493 29.851896 
L 196.866285 32.391959 
L 197.035868 46.147447 
L 197.400473 99.575031 
L 197.790515 143.995849 
L 197.900744 146.763682 
L 197.94314 146.420068 
L 198.04489 142.436768 
L 198.239911 123.67155 
L 199.053911 29.698328 
L 199.079349 29.862289 
L 199.164141 32.434359 
L 199.333724 46.245457 
L 199.698329 99.713165 
L 200.088371 144.038495 
L 200.1986 146.764543 
L 200.240996 146.404627 
L 200.342746 142.383459 
L 200.537767 123.559359 
L 201.351768 29.69927 
L 201.368726 29.783652 
L 201.445039 31.710555 
L 201.597664 42.736068 
L 201.902914 84.996559 
L 202.377748 143.659404 
L 202.496456 146.765065 
L 202.538852 146.388849 
L 202.640602 142.329837 
L 202.835623 123.446963 
L 203.649624 29.70055 
L 203.666582 29.791462 
L 203.742895 31.747336 
L 203.89552 42.824814 
L 204.20077 85.137191 
L 204.675604 143.704511 
L 204.794312 146.765248 
L 204.836708 146.372735 
L 204.938458 142.275902 
L 205.133479 123.334364 
L 205.939001 29.700669 
L 205.964438 29.79961 
L 206.040751 31.784445 
L 206.201855 43.785224 
L 206.524064 89.349435 
L 206.97346 143.749296 
L 207.092168 146.765093 
L 207.134564 146.356284 
L 207.236314 142.221654 
L 207.431335 123.221561 
L 208.236857 29.699361 
L 208.262294 29.808096 
L 208.338607 31.821881 
L 208.499711 43.876997 
L 208.82192 89.490243 
L 209.271316 143.79376 
L 209.390025 146.764598 
L 209.43242 146.339496 
L 209.53417 142.167093 
L 209.729191 123.108555 
L 210.534713 29.698391 
L 210.551671 29.745942 
L 210.619505 31.189365 
L 210.763651 40.610937 
L 211.043463 77.473922 
L 211.577651 144.246876 
L 211.687881 146.763765 
L 211.730277 146.322372 
L 211.840506 141.567311 
L 212.044006 120.774212 
L 212.832569 29.697761 
L 212.858007 29.826084 
L 212.934319 31.897731 
L 213.095424 44.061314 
L 213.417632 89.771838 
L 213.858549 143.445928 
L 213.985737 146.762592 
L 214.019653 146.45921 
L 214.112924 143.065691 
L 214.299466 126.078036 
L 215.130425 29.69747 
L 215.1813 30.25632 
L 215.29153 35.268221 
L 215.503509 57.580327 
L 216.258155 146.668009 
L 216.283593 146.761081 
L 216.31751 146.444658 
L 216.41926 142.523501 
L 216.614281 123.855071 
L 217.428281 29.697517 
L 217.453719 29.845424 
L 217.538511 32.365003 
L 217.708094 46.084873 
L 218.072699 99.486625 
L 218.462741 143.968396 
L 218.57297 146.762954 
L 218.615366 146.429769 
L 218.717116 142.470707 
L 218.912137 123.743217 
L 219.726138 29.697903 
L 219.751575 29.855601 
L 219.836367 32.407197 
L 220.00595 46.182728 
L 220.370555 99.624802 
L 220.760597 144.011249 
L 220.870826 146.764031 
L 220.913222 146.414544 
L 221.014972 142.417599 
L 221.209993 123.631157 
L 222.023994 29.698628 
L 222.049431 29.866116 
L 222.134223 32.449714 
L 222.303806 46.280825 
L 222.668411 99.762913 
L 223.058453 144.053779 
L 223.168682 146.76477 
L 223.211078 146.398982 
L 223.312828 142.364178 
L 223.507849 123.518892 
L 224.32185 29.699692 
L 224.338808 29.786426 
L 224.415121 31.723768 
L 224.567746 42.768008 
L 224.872996 85.04722 
L 225.34783 143.675691 
L 225.466538 146.76517 
L 225.508934 146.383083 
L 225.610684 142.310443 
L 225.805705 123.406422 
L 226.619706 29.701095 
L 226.636664 29.794358 
L 226.712977 31.760667 
L 226.865602 42.856849 
L 227.170852 85.187858 
L 227.645686 143.720682 
L 227.764394 146.765231 
L 227.80679 146.366847 
L 227.90854 142.256395 
L 228.103561 123.293749 
L 228.909083 29.700159 
L 228.93452 29.802628 
L 229.010833 31.797894 
L 229.171937 43.818256 
L 229.494146 89.400162 
L 229.943542 143.765351 
L 230.062251 146.764954 
L 230.104646 146.350275 
L 230.206397 142.202034 
L 230.401418 123.180874 
L 231.206939 29.698973 
L 231.232377 29.811236 
L 231.308689 31.835447 
L 231.469793 43.910122 
L 231.792002 89.540968 
L 232.241398 143.809699 
L 232.360107 146.764337 
L 232.402503 146.333366 
L 232.504253 142.147361 
L 232.699274 123.067795 
L 233.504795 29.698125 
L 233.521754 29.748029 
L 233.589587 31.200769 
L 233.733733 40.640458 
L 234.013546 77.523799 
L 234.547734 144.261578 
L 234.657963 146.763381 
L 234.700359 146.316121 
L 234.810588 141.546389 
L 235.014088 120.732027 
L 235.802651 29.697617 
L 235.836568 29.9363 
L 235.929839 33.156527 
L 236.107902 48.839807 
L 236.557298 115.834113 
L 236.879506 145.617544 
L 236.955819 146.762087 
L 237.006694 146.111836 
L 237.125403 140.304514 
L 237.345861 115.958255 
L 238.058112 30.090623 
L 238.100508 29.697448 
L 238.151383 30.263336 
L 238.261612 35.289844 
L 238.473591 57.623563 
L 239.228238 146.67091 
L 239.245196 146.762087 
L 239.287592 146.439333 
L 239.389342 142.504518 
L 239.584363 123.814799 
L 240.398364 29.697617 
L 240.423801 29.849051 
L 240.508593 32.380166 
L 240.678176 46.120097 
L 241.042781 99.536411 
L 241.432823 143.983871 
L 241.543052 146.763381 
L 241.585448 146.424323 
L 241.687198 142.451611 
L 241.882219 123.70287 
L 242.69622 29.698125 
L 242.721657 29.85935 
L 242.806449 32.422476 
L 242.976033 46.21804 
L 243.340637 99.674564 
L 243.730679 144.026608 
L 243.840908 146.764337 
L 243.883304 146.408976 
L 243.985054 142.39839 
L 244.180075 123.590736 
L 244.994076 29.698972 
L 245.011034 29.781529 
L 245.087347 31.700333 
L 245.239972 42.711311 
L 245.545222 84.957257 
L 246.020056 143.64674 
L 246.138764 146.764953 
L 246.18116 146.393293 
L 246.28291 142.344856 
L 246.477931 123.478398 
L 247.291932 29.700158 
L 247.30889 29.789245 
L 247.385203 31.737023 
L 247.537828 42.799983 
L 247.843078 85.097883 
L 248.317912 143.691936 
L 248.436621 146.765231 
L 248.479016 146.377272 
L 248.580767 142.291008 
L 248.775788 123.365855 
L 249.581309 29.701095 
L 249.606747 29.797298 
L 249.683059 31.774041 
L 249.844163 43.75962 
L 250.166372 89.310078 
L 250.615768 143.736811 
L 250.734477 146.76517 
L 250.776873 146.360915 
L 250.878623 142.236847 
L 251.073644 123.253109 
L 251.879165 29.699692 
L 251.904603 29.80569 
L 251.980915 31.811385 
L 252.14202 43.851321 
L 252.464228 89.450889 
L 252.913624 143.781365 
L 253.032333 146.76477 
L 253.074729 146.344222 
L 253.176479 142.182374 
L 253.3715 123.14016 
L 253.575 93.045233 
L 253.575 93.045233 
" clip-path="url(#p064a62e883)" style="fill: none; stroke: #808080; stroke-width: 1.5; stroke-linecap: square"/>
   </g>
   <g id="line2d_9">
    <path d="M 84 88.004296 
L 84.110229 87.184527 
L 84.237417 84.224928 
L 84.407 77.159336 
L 84.457875 79.245023 
L 84.602021 103.96114 
L 84.932709 146.809032 
L 85.02598 149.234842 
L 85.076855 148.611372 
L 85.187084 142.778079 
L 85.407543 116.077736 
L 86.077398 28.722539 
L 86.136752 27.967782 
L 86.187627 28.626662 
L 86.306335 34.710373 
L 86.526794 60.223789 
L 87.222086 147.72642 
L 87.272961 148.303234 
L 87.323836 147.708586 
L 87.434065 142.492734 
L 87.646045 119.415088 
L 88.392212 28.364286 
L 88.41765 28.209563 
L 88.460046 28.598348 
L 88.561796 32.773677 
L 88.756817 52.173899 
L 89.562338 148.236917 
L 89.587776 148.136539 
L 89.664088 146.103915 
L 89.825193 133.801506 
L 90.147401 87.08324 
L 90.596797 31.314033 
L 90.715506 28.22581 
L 90.757902 28.646366 
L 90.859652 32.888766 
L 91.054673 52.373618 
L 91.860194 148.234414 
L 91.885632 148.121592 
L 91.961944 146.053141 
L 92.123049 133.687236 
L 92.445257 86.92023 
L 92.894653 31.266189 
L 93.013362 28.227465 
L 93.055758 28.665713 
L 93.157508 32.948694 
L 93.352529 52.495054 
L 94.15805 148.235098 
L 94.175009 148.185343 
L 94.242842 146.701656 
L 94.386988 137.035574 
L 94.666801 99.237607 
L 95.200989 30.80207 
L 95.311218 28.228446 
L 95.353614 28.683459 
L 95.463843 33.564321 
L 95.667343 54.889032 
L 96.455907 148.235674 
L 96.489823 147.993783 
L 96.583094 144.700125 
L 96.761157 128.634871 
L 97.210553 59.961603 
L 97.532762 29.409248 
L 97.609074 28.229706 
L 97.659949 28.892123 
L 97.778658 34.836094 
L 97.999116 59.781295 
L 98.711367 147.829382 
L 98.753763 148.235919 
L 98.804638 147.659987 
L 98.914867 142.51585 
L 99.126846 119.633808 
L 99.881493 28.325194 
L 99.90693 28.231308 
L 99.940847 28.55771 
L 100.042597 32.583288 
L 100.237618 51.729965 
L 101.051619 148.235817 
L 101.077056 148.08267 
L 101.161848 145.494803 
L 101.331432 131.42155 
L 101.696036 76.671771 
L 102.086078 31.087203 
L 102.196307 28.228932 
L 102.238703 28.573025 
L 102.340453 32.637457 
L 102.535474 51.844662 
L 103.349475 148.235369 
L 103.374912 148.072185 
L 103.459704 145.451498 
L 103.629288 131.321199 
L 103.993892 76.530133 
L 104.383934 31.043324 
L 104.494163 28.22788 
L 104.536559 28.588686 
L 104.638309 32.691948 
L 104.83333 51.95957 
L 105.647331 148.234573 
L 105.672769 148.061353 
L 105.75756 145.407863 
L 105.927144 131.220598 
L 106.291748 76.388562 
L 106.68179 30.999775 
L 106.79202 28.227176 
L 106.834415 28.604692 
L 106.936166 32.746761 
L 107.131187 52.074687 
L 107.945187 148.233429 
L 107.962146 148.1435 
L 108.038458 146.152973 
L 108.191083 134.823156 
L 108.496334 91.473592 
L 108.971167 31.38693 
L 109.089876 28.226819 
L 109.132272 28.621043 
L 109.234022 32.801895 
L 109.429043 52.190014 
L 110.243043 148.231939 
L 110.260002 148.135316 
L 110.336314 146.115096 
L 110.488939 134.732042 
L 110.79419 91.329417 
L 111.269023 31.340859 
L 111.387732 28.226809 
L 111.430128 28.637739 
L 111.531878 32.857349 
L 111.726899 52.305549 
L 112.53242 148.233354 
L 112.557858 148.126786 
L 112.63417 146.076883 
L 112.795275 133.746049 
L 113.117483 87.011253 
L 113.56688 31.295117 
L 113.685588 28.227146 
L 113.727984 28.65478 
L 113.829734 32.913124 
L 114.024755 52.421293 
L 114.830277 148.234517 
L 114.855714 148.117908 
L 114.932027 146.038335 
L 115.093131 133.651835 
L 115.41534 86.86691 
L 115.864736 31.249705 
L 115.983444 28.227831 
L 116.02584 28.672166 
L 116.12759 32.96922 
L 116.322611 52.537244 
L 117.128133 148.235333 
L 117.145091 148.183159 
L 117.212924 146.689894 
L 117.35707 137.005206 
L 117.636883 99.186377 
L 118.162592 31.204623 
L 118.2813 28.228863 
L 118.323696 28.689896 
L 118.433925 33.585806 
L 118.637426 54.932314 
L 119.425989 148.235801 
L 119.459905 147.989091 
L 119.553176 144.682509 
L 119.731239 128.596395 
L 120.180635 59.915731 
L 120.502844 29.398995 
L 120.579156 28.230243 
L 120.630032 28.89987 
L 120.74874 34.859845 
L 120.969198 59.827101 
L 121.681449 147.835404 
L 121.723845 148.235922 
L 121.77472 147.652775 
L 121.884949 142.493667 
L 122.096929 119.589475 
L 122.851575 28.322239 
L 122.868533 28.229788 
L 122.910929 28.563188 
L 123.012679 32.602766 
L 123.2077 51.771261 
L 124.021701 148.235696 
L 124.047139 148.078933 
L 124.13193 145.47924 
L 124.301514 131.385427 
L 124.666118 76.620737 
L 125.05616 31.071357 
L 125.16639 28.228513 
L 125.208785 28.578627 
L 125.310536 32.657051 
L 125.505557 51.886034 
L 126.319557 148.235122 
L 126.344995 148.068323 
L 126.429786 145.435817 
L 126.59937 131.284986 
L 126.963974 76.479124 
L 127.354016 31.027597 
L 127.464246 28.227587 
L 127.506642 28.594412 
L 127.608392 32.711658 
L 127.803413 52.001017 
L 128.617413 148.234201 
L 128.634372 148.148553 
L 128.710684 146.177029 
L 128.863309 134.881304 
L 129.16856 91.565817 
L 129.643393 31.416577 
L 129.762102 28.227007 
L 129.804498 28.610542 
L 129.906248 32.766586 
L 130.101269 52.11621 
L 130.91527 148.232932 
L 130.932228 148.140592 
L 131.00854 146.139366 
L 131.161166 134.790363 
L 131.466416 91.421655 
L 131.94125 31.370295 
L 132.059958 28.226775 
L 132.102354 28.627018 
L 132.204104 32.821835 
L 132.399125 52.231612 
L 133.204646 148.232428 
L 133.230084 148.132283 
L 133.306397 146.101368 
L 133.467501 133.806184 
L 133.789709 87.1036 
L 134.239106 31.324342 
L 134.357814 28.22689 
L 134.40021 28.643838 
L 134.50196 32.877405 
L 134.696981 52.347222 
L 135.502503 148.233813 
L 135.52794 148.123627 
L 135.604253 146.063035 
L 135.765357 133.712138 
L 136.087566 86.959252 
L 136.536962 31.278719 
L 136.65567 28.227353 
L 136.698066 28.661003 
L 136.799816 32.933296 
L 136.994837 52.463041 
L 137.800359 148.234851 
L 137.817317 148.18696 
L 137.885151 146.710656 
L 138.029296 137.058949 
L 138.309109 99.277176 
L 138.843297 30.813769 
L 138.953526 28.228163 
L 138.995922 28.678513 
L 139.106152 33.547715 
L 139.309652 54.855516 
L 140.098215 148.235542 
L 140.123652 148.105276 
L 140.199965 145.985364 
L 140.361069 133.523258 
L 140.683278 86.670581 
L 141.124195 31.635612 
L 141.251383 28.22932 
L 141.285299 28.538619 
L 141.37857 32.012833 
L 141.565112 49.419694 
L 142.396071 148.235885 
L 142.446946 147.66555 
L 142.557175 142.533032 
L 142.769155 119.668186 
L 143.523801 28.327518 
L 143.549239 28.230825 
L 143.583155 28.553492 
L 143.684905 32.568206 
L 143.879926 51.697946 
L 144.693927 148.235881 
L 144.719365 148.085539 
L 144.804156 145.506847 
L 144.97374 131.449553 
L 145.338344 76.71137 
L 145.728386 31.099527 
L 145.838616 28.229289 
L 145.881012 28.56871 
L 145.982762 32.622285 
L 146.177783 51.812584 
L 146.991783 148.235529 
L 147.017221 148.07515 
L 147.102013 145.463635 
L 147.271596 131.349271 
L 147.636201 76.569713 
L 148.026243 31.055555 
L 148.136472 28.228139 
L 148.178868 28.584274 
L 148.280618 32.676686 
L 148.475639 51.927432 
L 149.289639 148.23483 
L 149.315077 148.064415 
L 149.399869 145.420092 
L 149.569452 131.248741 
L 149.934057 76.428123 
L 150.324099 31.011914 
L 150.434328 28.227338 
L 150.476724 28.600183 
L 150.578474 32.731409 
L 150.773495 52.042491 
L 151.587496 148.233784 
L 151.604454 148.145725 
L 151.680767 146.1635 
L 151.833392 134.848573 
L 152.138642 91.513884 
L 152.613476 31.399866 
L 152.732184 28.226883 
L 152.77458 28.616438 
L 152.87633 32.786453 
L 153.071351 52.15776 
L 153.885352 148.23239 
L 153.90231 148.137638 
L 153.978623 146.125716 
L 154.131248 134.757534 
L 154.436498 91.369715 
L 154.911332 31.353703 
L 155.03004 28.226776 
L 155.072436 28.633037 
L 155.174186 32.841818 
L 155.369207 52.273237 
L 156.174729 148.232967 
L 156.200166 148.129205 
L 156.276479 146.087597 
L 156.437583 133.772334 
L 156.759792 87.051597 
L 157.209188 31.307869 
L 157.327896 28.227017 
L 157.370292 28.649982 
L 157.472042 32.897503 
L 157.667063 52.388922 
L 158.472585 148.234227 
L 158.498022 148.120424 
L 158.574335 146.049143 
L 158.735439 133.678194 
L 159.057648 86.907253 
L 159.507044 31.262364 
L 159.625753 28.227605 
L 159.668148 28.667272 
L 159.769898 32.953509 
L 159.964919 52.504815 
L 160.770441 148.23514 
L 160.787399 148.184837 
L 160.855233 146.698982 
L 160.999379 137.028699 
L 161.279191 99.226049 
L 161.813379 30.798683 
L 161.923609 28.22854 
L 161.966005 28.684906 
L 162.076234 33.569149 
L 162.279734 54.898753 
L 163.068297 148.235705 
L 163.102214 147.992733 
L 163.195485 144.696177 
L 163.373547 128.626243 
L 163.822944 59.951314 
L 164.145152 29.406946 
L 164.221465 28.229822 
L 164.27234 28.893856 
L 164.391048 34.841416 
L 164.611507 59.791563 
L 165.323757 147.830736 
L 165.366153 148.235923 
L 165.417028 147.658374 
L 165.527258 142.51088 
L 165.739237 119.623871 
L 166.493883 28.324528 
L 166.510842 28.230206 
L 166.553238 28.558934 
L 166.654988 32.587651 
L 166.850009 51.73922 
L 167.664009 148.235794 
L 167.689447 148.081836 
L 167.774239 145.491318 
L 167.943822 131.413455 
L 168.308427 76.66033 
L 168.698469 31.083647 
L 168.808698 28.228835 
L 168.851094 28.574277 
L 168.952844 32.641846 
L 169.147865 51.853934 
L 169.961866 148.235317 
L 169.987303 148.071323 
L 170.072095 145.447987 
L 170.241678 131.313084 
L 170.606283 76.518697 
L 170.996325 31.039795 
L 171.106554 28.227811 
L 171.14895 28.589966 
L 171.2507 32.696363 
L 171.445721 51.968859 
L 172.259722 148.234493 
L 172.285159 148.060463 
L 172.369951 145.404324 
L 172.539534 131.212463 
L 172.904139 76.377132 
L 173.294181 30.996273 
L 173.40441 28.227134 
L 173.446806 28.605999 
L 173.548556 32.751202 
L 173.743577 52.083993 
L 174.557578 148.233322 
L 174.574536 148.142852 
L 174.650849 146.149927 
L 174.803474 134.815807 
L 175.108724 91.461949 
L 175.583558 31.383197 
L 175.702266 28.226805 
L 175.744662 28.622378 
L 175.846412 32.806361 
L 176.041433 52.199337 
L 176.846955 148.231978 
L 176.872392 148.13464 
L 176.948705 146.112022 
L 177.109809 133.832422 
L 177.432018 87.143945 
L 177.881414 31.337153 
L 178.000123 28.226823 
L 178.042518 28.639102 
L 178.144268 32.861842 
L 178.339289 52.314889 
L 179.144811 148.233461 
L 179.170249 148.126081 
L 179.246561 146.073782 
L 179.407665 133.73845 
L 179.729874 86.999596 
L 180.17927 31.291438 
L 180.297979 28.227189 
L 180.340375 28.656171 
L 180.442125 32.917643 
L 180.637146 52.430649 
L 181.442667 148.234596 
L 181.468105 148.117176 
L 181.544417 146.035208 
L 181.705522 133.644215 
L 182.02773 86.855254 
L 182.477126 31.246052 
L 182.595835 28.227901 
L 182.638231 28.673585 
L 182.739981 32.973764 
L 182.935002 52.546617 
L 183.740523 148.235384 
L 183.757482 148.182669 
L 183.825315 146.687263 
L 183.969461 136.998413 
L 184.249274 99.174913 
L 184.774982 31.200996 
L 184.893691 28.228962 
L 184.936087 28.691343 
L 185.046316 33.590623 
L 185.249816 54.942014 
L 186.038379 148.235824 
L 186.072296 147.988033 
L 186.165567 144.678555 
L 186.34363 128.587767 
L 186.793026 59.905452 
L 187.115235 29.396703 
L 187.191547 28.230369 
L 187.242422 28.901613 
L 187.361131 34.865175 
L 187.581589 59.837373 
L 188.29384 147.836748 
L 188.336236 148.235917 
L 188.387111 147.651152 
L 188.49734 142.488688 
L 188.709319 119.579533 
L 189.463966 28.321582 
L 189.480924 28.229672 
L 189.52332 28.564422 
L 189.62507 32.607138 
L 189.820091 51.780522 
L 190.634092 148.235662 
L 190.659529 148.078089 
L 190.744321 145.475746 
L 190.913904 131.377324 
L 191.278509 76.609298 
L 191.668551 31.067811 
L 191.77878 28.228426 
L 191.821176 28.579889 
L 191.922926 32.661449 
L 192.117947 51.895312 
L 192.931948 148.235061 
L 192.957385 148.067451 
L 193.042177 145.432295 
L 193.211761 131.276863 
L 193.576365 76.46769 
L 193.966407 31.024078 
L 194.076636 28.227527 
L 194.119032 28.595702 
L 194.220782 32.716082 
L 194.415803 52.010312 
L 195.229804 148.234111 
L 195.246762 148.147923 
L 195.323075 146.174 
L 195.4757 134.87397 
L 195.78095 91.554175 
L 196.255784 31.412827 
L 196.374492 28.226975 
L 196.416888 28.61186 
L 196.518638 32.771036 
L 196.713659 52.125522 
L 197.52766 148.232815 
L 197.544618 148.139933 
L 197.620931 146.13631 
L 197.773556 134.783006 
L 198.078806 91.410011 
L 198.55364 31.366572 
L 198.672349 28.226771 
L 198.714744 28.628363 
L 198.816495 32.826311 
L 199.011516 52.240941 
L 199.817037 148.232552 
L 199.842475 148.131597 
L 199.918787 146.098285 
L 200.079891 133.798599 
L 200.4021 87.091942 
L 200.851496 31.320646 
L 200.970205 28.226915 
L 201.012601 28.645211 
L 201.114351 32.881907 
L 201.309372 52.356568 
L 202.114893 148.23391 
L 202.140331 148.122913 
L 202.216643 146.059924 
L 202.377748 133.704532 
L 202.699956 86.947595 
L 203.149352 31.275049 
L 203.268061 28.227405 
L 203.310457 28.662405 
L 203.412207 32.937824 
L 203.607228 52.472403 
L 204.412749 148.23492 
L 204.429708 148.186488 
L 204.497541 146.708043 
L 204.641687 137.052171 
L 204.9215 99.265715 
L 205.455688 30.810383 
L 205.565917 28.228243 
L 205.608313 28.679943 
L 205.718542 33.552517 
L 205.922042 54.865207 
L 206.710606 148.235582 
L 206.736043 148.104506 
L 206.812356 145.982199 
L 206.97346 133.515608 
L 207.295669 86.658925 
L 207.736586 31.631739 
L 207.863773 28.229429 
L 207.89769 28.539807 
L 207.990961 32.016911 
L 208.177503 49.428587 
L 209.008462 148.235897 
L 209.059337 147.663945 
L 209.169566 142.52807 
L 209.381545 119.658254 
L 210.136192 28.326844 
L 210.161629 28.230962 
L 210.195546 28.554708 
L 210.297296 32.572561 
L 210.492317 51.707196 
L 211.306318 148.235865 
L 211.331755 148.084713 
L 211.416547 145.503369 
L 211.586131 131.441463 
L 211.950735 76.699927 
L 212.340777 31.095963 
L 212.451006 28.229183 
L 212.493402 28.569954 
L 212.595152 32.626667 
L 212.790173 51.821851 
L 213.604174 148.235486 
L 213.629611 148.074296 
L 213.714403 145.460131 
L 213.883987 131.341162 
L 214.248591 76.558276 
L 214.638633 31.052018 
L 214.748862 28.228062 
L 214.791258 28.585546 
L 214.893008 32.681094 
L 215.088029 51.936717 
L 215.90203 148.234759 
L 215.927468 148.063533 
L 216.012259 145.416561 
L 216.181843 131.240611 
L 216.546447 76.416692 
L 216.936489 31.008404 
L 217.046719 28.227288 
L 217.089114 28.601483 
L 217.190865 32.735842 
L 217.385886 52.051793 
L 218.199886 148.233684 
L 218.216845 148.145085 
L 218.293157 146.160461 
L 218.445782 134.841231 
L 218.751033 91.502242 
L 219.225866 31.396125 
L 219.344575 28.226862 
L 219.386971 28.617766 
L 219.488721 32.790912 
L 219.683742 52.167078 
L 220.497742 148.232263 
L 220.514701 148.13697 
L 220.591013 146.12265 
L 220.743638 134.75017 
L 221.048889 91.358071 
L 221.523722 31.349989 
L 221.642431 28.226783 
L 221.684827 28.634393 
L 221.786577 32.846303 
L 221.981598 52.282572 
L 222.787119 148.233081 
L 222.812557 148.128508 
L 222.888869 146.084504 
L 223.049974 133.764741 
L 223.372182 87.03994 
L 223.821579 31.304181 
L 223.940287 28.227051 
L 223.982683 28.651366 
L 224.084433 32.902014 
L 224.279454 52.398274 
L 225.084975 148.234314 
L 225.110413 148.1197 
L 225.186726 146.046023 
L 225.34783 133.670579 
L 225.670039 86.895596 
L 226.119435 31.258704 
L 226.238143 28.227667 
L 226.280539 28.668683 
L 226.382289 32.958046 
L 226.57731 52.514184 
L 227.382832 148.235198 
L 227.39979 148.184355 
L 227.467623 146.696359 
L 227.611769 137.021913 
L 227.891582 99.214586 
L 228.42577 30.795307 
L 228.535999 28.22863 
L 228.578395 28.686345 
L 228.688624 33.573959 
L 228.892125 54.908449 
L 229.680688 148.235736 
L 229.714604 147.991684 
L 229.807875 144.69223 
L 229.985938 128.61762 
L 230.435334 59.941031 
L 230.757543 29.404646 
L 230.833855 28.229941 
L 230.88473 28.895591 
L 231.003439 34.846739 
L 231.223897 59.80183 
L 231.936148 147.832088 
L 231.978544 148.235926 
L 232.029419 147.656759 
L 232.139648 142.505909 
L 232.351628 119.613934 
L 233.106274 28.323863 
L 233.123232 28.230082 
L 233.165628 28.560161 
L 233.267378 32.592016 
L 233.462399 51.748477 
L 234.2764 148.235768 
L 234.301838 148.081 
L 234.386629 145.487831 
L 234.556213 131.405358 
L 234.920817 76.648889 
L 235.310859 31.080094 
L 235.421089 28.228739 
L 235.463484 28.575532 
L 235.565235 32.646237 
L 235.760256 51.863208 
L 236.574256 148.235264 
L 236.599694 148.070459 
L 236.684485 145.444473 
L 236.854069 131.304967 
L 237.218673 76.507262 
L 237.608715 31.036268 
L 237.718945 28.227743 
L 237.761341 28.591248 
L 237.863091 32.70078 
L 238.058112 51.978149 
L 238.872112 148.234412 
L 238.889071 148.150094 
L 238.965383 146.184474 
L 239.118008 134.899345 
L 239.423259 91.594465 
L 239.898092 31.425814 
L 240.016801 28.227095 
L 240.059197 28.607309 
L 240.160947 32.755644 
L 240.355968 52.0933 
L 241.169968 148.233212 
L 241.186927 148.142201 
L 241.263239 146.146878 
L 241.415865 134.808457 
L 241.721115 91.450306 
L 242.195949 31.379467 
L 242.314657 28.226793 
L 242.357053 28.623716 
L 242.458803 32.81083 
L 242.653824 52.208661 
L 243.459345 148.232111 
L 243.484783 148.133962 
L 243.561096 146.108946 
L 243.7222 133.824843 
L 244.044408 87.132287 
L 244.493805 31.333449 
L 244.612513 28.22684 
L 244.654909 28.640468 
L 244.756659 32.866336 
L 244.95168 52.32423 
L 245.757202 148.233565 
L 245.782639 148.125375 
L 245.858952 146.070679 
L 246.020056 133.730849 
L 246.342265 86.987938 
L 246.791661 31.28776 
L 246.910369 28.227233 
L 246.952765 28.657565 
L 247.054515 32.922163 
L 247.249536 52.440007 
L 248.055058 148.234672 
L 248.080495 148.116442 
L 248.156808 146.032078 
L 248.317912 133.636593 
L 248.640121 86.843597 
L 249.089517 31.242401 
L 249.208225 28.227974 
L 249.250621 28.675006 
L 249.352371 32.97831 
L 249.547392 52.555991 
L 250.352914 148.235432 
L 250.369872 148.182176 
L 250.437706 146.68463 
L 250.581852 136.991618 
L 250.861664 99.163449 
L 251.387373 31.197372 
L 251.506082 28.229063 
L 251.548477 28.692793 
L 251.658707 33.595443 
L 251.862207 54.951716 
L 252.65077 148.235844 
L 252.684687 147.986973 
L 252.777958 144.674599 
L 252.95602 128.579137 
L 253.405417 59.895173 
L 253.575 39.224391 
L 253.575 39.224391 
" clip-path="url(#p064a62e883)" style="fill: none; stroke: #808080; stroke-width: 1.5; stroke-linecap: square"/>
   </g>
   <g id="patch_3">
    <path d="M 84 155.94 
L 84 20.728902 
" style="fill: none; stroke: #000000; stroke-width: 0.8; stroke-linejoin: miter; stroke-linecap: square"/>
   </g>
   <g id="patch_4">
    <path d="M 253.575 155.94 
L 253.575 20.728902 
" style="fill: none; stroke: #000000; stroke-width: 0.8; stroke-linejoin: miter; stroke-linecap: square"/>
   </g>
   <g id="patch_5">
    <path d="M 84 155.94 
L 253.575 155.94 
" style="fill: none; stroke: #000000; stroke-width: 0.8; stroke-linejoin: miter; stroke-linecap: square"/>
   </g>
   <g id="patch_6">
    <path d="M 84 20.728902 
L 253.575 20.728902 
" style="fill: none; stroke: #000000; stroke-width: 0.8; stroke-linejoin: miter; stroke-linecap: square"/>
   </g>
  </g>
 </g>
 <defs>
  <clipPath id="p064a62e883">
   <rect x="84" y="20.728902" width="169.575" height="135.211098"/>
  </clipPath>
 </defs>
</svg>
