<?xml version="1.0" encoding="utf-8" standalone="no"?>
<!DOCTYPE svg PUBLIC "-//W3C//DTD SVG 1.1//EN"
  "http://www.w3.org/Graphics/SVG/1.1/DTD/svg11.dtd">
<svg xmlns:xlink="http://www.w3.org/1999/xlink" width="288pt" height="216pt" viewBox="0 0 288 216" xmlns="http://www.w3.org/2000/svg" version="1.1">
 <metadata>
  <rdf:RDF xmlns:dc="http://purl.org/dc/elements/1.1/" xmlns:cc="http://creativecommons.org/ns#" xmlns:rdf="http://www.w3.org/1999/02/22-rdf-syntax-ns#">
   <cc:Work>
    <dc:type rdf:resource="http://purl.org/dc/dcmitype/StillImage"/>
    <dc:date>2024-03-05T17:25:07.956669</dc:date>
    <dc:format>image/svg+xml</dc:format>
    <dc:creator>
     <cc:Agent>
      <dc:title>Matplotlib v3.7.2, https://matplotlib.org/</dc:title>
     </cc:Agent>
    </dc:creator>
   </cc:Work>
  </rdf:RDF>
 </metadata>
 <defs>
  <style type="text/css">*{stroke-linejoin: round; stroke-linecap: butt}</style>
 </defs>
 <g id="figure_1">
  <g id="patch_1">
   <path d="M 0 216 
L 288 216 
L 288 0 
L 0 0 
L 0 216 
z
" style="fill: none"/>
  </g>
  <g id="axes_1">
   <g id="patch_2">
    <path d="M 73.848 161.7 
L 270.72 161.7 
L 270.72 17.28 
L 73.848 17.28 
L 73.848 161.7 
z
" style="fill: none"/>
   </g>
   <g id="matplotlib.axis_1">
    <g id="xtick_1">
     <g id="line2d_1">
      <defs>
       <path id="mce3d835c7d" d="M 0 0 
L 0 -3.5 
" style="stroke: #000000; stroke-width: 0.8"/>
      </defs>
      <g>
       <use xlink:href="#mce3d835c7d" x="73.848" y="161.7" style="stroke: #000000; stroke-width: 0.8"/>
      </g>
     </g>
     <g id="text_1">
      <!-- 0 -->
      <g transform="translate(69.39925 176.6525) scale(0.16 -0.16)">
       <defs>
        <path id="ArialMT-30" d="M 266 2259 
Q 266 3072 433 3567 
Q 600 4063 929 4331 
Q 1259 4600 1759 4600 
Q 2128 4600 2406 4451 
Q 2684 4303 2865 4023 
Q 3047 3744 3150 3342 
Q 3253 2941 3253 2259 
Q 3253 1453 3087 958 
Q 2922 463 2592 192 
Q 2263 -78 1759 -78 
Q 1097 -78 719 397 
Q 266 969 266 2259 
z
M 844 2259 
Q 844 1131 1108 757 
Q 1372 384 1759 384 
Q 2147 384 2411 759 
Q 2675 1134 2675 2259 
Q 2675 3391 2411 3762 
Q 2147 4134 1753 4134 
Q 1366 4134 1134 3806 
Q 844 3388 844 2259 
z
" transform="scale(0.015625)"/>
       </defs>
       <use xlink:href="#ArialMT-30"/>
      </g>
     </g>
    </g>
    <g id="xtick_2">
     <g id="line2d_2">
      <g>
       <use xlink:href="#mce3d835c7d" x="152.5968" y="161.7" style="stroke: #000000; stroke-width: 0.8"/>
      </g>
     </g>
     <g id="text_2">
      <!-- 200 -->
      <g transform="translate(139.25055 176.6525) scale(0.16 -0.16)">
       <defs>
        <path id="ArialMT-32" d="M 3222 541 
L 3222 0 
L 194 0 
Q 188 203 259 391 
Q 375 700 629 1000 
Q 884 1300 1366 1694 
Q 2113 2306 2375 2664 
Q 2638 3022 2638 3341 
Q 2638 3675 2398 3904 
Q 2159 4134 1775 4134 
Q 1369 4134 1125 3890 
Q 881 3647 878 3216 
L 300 3275 
Q 359 3922 746 4261 
Q 1134 4600 1788 4600 
Q 2447 4600 2831 4234 
Q 3216 3869 3216 3328 
Q 3216 3053 3103 2787 
Q 2991 2522 2730 2228 
Q 2469 1934 1863 1422 
Q 1356 997 1212 845 
Q 1069 694 975 541 
L 3222 541 
z
" transform="scale(0.015625)"/>
       </defs>
       <use xlink:href="#ArialMT-32"/>
       <use xlink:href="#ArialMT-30" x="55.615234"/>
       <use xlink:href="#ArialMT-30" x="111.230469"/>
      </g>
     </g>
    </g>
    <g id="xtick_3">
     <g id="line2d_3">
      <g>
       <use xlink:href="#mce3d835c7d" x="231.3456" y="161.7" style="stroke: #000000; stroke-width: 0.8"/>
      </g>
     </g>
     <g id="text_3">
      <!-- 400 -->
      <g transform="translate(217.99935 176.6525) scale(0.16 -0.16)">
       <defs>
        <path id="ArialMT-34" d="M 2069 0 
L 2069 1097 
L 81 1097 
L 81 1613 
L 2172 4581 
L 2631 4581 
L 2631 1613 
L 3250 1613 
L 3250 1097 
L 2631 1097 
L 2631 0 
L 2069 0 
z
M 2069 1613 
L 2069 3678 
L 634 1613 
L 2069 1613 
z
" transform="scale(0.015625)"/>
       </defs>
       <use xlink:href="#ArialMT-34"/>
       <use xlink:href="#ArialMT-30" x="55.615234"/>
       <use xlink:href="#ArialMT-30" x="111.230469"/>
      </g>
     </g>
    </g>
    <g id="text_4">
     <!-- $t$ -->
     <g transform="translate(169.084 195.285) scale(0.16 -0.16)">
      <defs>
       <path id="DejaVuSans-Oblique-74" d="M 2706 3500 
L 2619 3053 
L 1472 3053 
L 1100 1153 
Q 1081 1047 1072 975 
Q 1063 903 1063 863 
Q 1063 663 1183 572 
Q 1303 481 1569 481 
L 2150 481 
L 2053 0 
L 1503 0 
Q 991 0 739 200 
Q 488 400 488 806 
Q 488 878 497 964 
Q 506 1050 525 1153 
L 897 3053 
L 409 3053 
L 500 3500 
L 978 3500 
L 1172 4494 
L 1747 4494 
L 1556 3500 
L 2706 3500 
z
" transform="scale(0.015625)"/>
      </defs>
      <use xlink:href="#DejaVuSans-Oblique-74" transform="translate(0 0.78125)"/>
     </g>
    </g>
   </g>
   <g id="matplotlib.axis_2">
    <g id="ytick_1">
     <g id="line2d_4">
      <defs>
       <path id="m34f9c2e135" d="M 0 0 
L 3.5 0 
" style="stroke: #000000; stroke-width: 0.8"/>
      </defs>
      <g>
       <use xlink:href="#m34f9c2e135" x="73.848" y="136.874635" style="stroke: #000000; stroke-width: 0.8"/>
      </g>
     </g>
     <g id="text_5">
      <!-- 0.5 -->
      <g transform="translate(48.108 142.600885) scale(0.16 -0.16)">
       <defs>
        <path id="ArialMT-2e" d="M 581 0 
L 581 641 
L 1222 641 
L 1222 0 
L 581 0 
z
" transform="scale(0.015625)"/>
        <path id="ArialMT-35" d="M 266 1200 
L 856 1250 
Q 922 819 1161 601 
Q 1400 384 1738 384 
Q 2144 384 2425 690 
Q 2706 997 2706 1503 
Q 2706 1984 2436 2262 
Q 2166 2541 1728 2541 
Q 1456 2541 1237 2417 
Q 1019 2294 894 2097 
L 366 2166 
L 809 4519 
L 3088 4519 
L 3088 3981 
L 1259 3981 
L 1013 2750 
Q 1425 3038 1878 3038 
Q 2478 3038 2890 2622 
Q 3303 2206 3303 1553 
Q 3303 931 2941 478 
Q 2500 -78 1738 -78 
Q 1113 -78 717 272 
Q 322 622 266 1200 
z
" transform="scale(0.015625)"/>
       </defs>
       <use xlink:href="#ArialMT-30"/>
       <use xlink:href="#ArialMT-2e" x="55.615234"/>
       <use xlink:href="#ArialMT-35" x="83.398438"/>
      </g>
     </g>
    </g>
    <g id="ytick_2">
     <g id="line2d_5">
      <g>
       <use xlink:href="#m34f9c2e135" x="73.848" y="68.092115" style="stroke: #000000; stroke-width: 0.8"/>
      </g>
     </g>
     <g id="text_6">
      <!-- 1.0 -->
      <g transform="translate(48.108 73.818365) scale(0.16 -0.16)">
       <defs>
        <path id="ArialMT-31" d="M 2384 0 
L 1822 0 
L 1822 3584 
Q 1619 3391 1289 3197 
Q 959 3003 697 2906 
L 697 3450 
Q 1169 3672 1522 3987 
Q 1875 4303 2022 4600 
L 2384 4600 
L 2384 0 
z
" transform="scale(0.015625)"/>
       </defs>
       <use xlink:href="#ArialMT-31"/>
       <use xlink:href="#ArialMT-2e" x="55.615234"/>
       <use xlink:href="#ArialMT-30" x="83.398438"/>
      </g>
     </g>
    </g>
    <g id="text_7">
     <!-- $r_i / r_0$ -->
     <g transform="translate(40.928 104.37) rotate(-90) scale(0.16 -0.16)">
      <defs>
       <path id="DejaVuSans-Oblique-72" d="M 2853 2969 
Q 2766 3016 2653 3041 
Q 2541 3066 2413 3066 
Q 1953 3066 1609 2717 
Q 1266 2369 1153 1784 
L 800 0 
L 225 0 
L 909 3500 
L 1484 3500 
L 1375 2956 
Q 1603 3259 1920 3421 
Q 2238 3584 2597 3584 
Q 2691 3584 2781 3573 
Q 2872 3563 2963 3538 
L 2853 2969 
z
" transform="scale(0.015625)"/>
       <path id="DejaVuSans-Oblique-69" d="M 1172 4863 
L 1747 4863 
L 1606 4134 
L 1031 4134 
L 1172 4863 
z
M 909 3500 
L 1484 3500 
L 800 0 
L 225 0 
L 909 3500 
z
" transform="scale(0.015625)"/>
       <path id="DejaVuSans-2f" d="M 1625 4666 
L 2156 4666 
L 531 -594 
L 0 -594 
L 1625 4666 
z
" transform="scale(0.015625)"/>
       <path id="DejaVuSans-30" d="M 2034 4250 
Q 1547 4250 1301 3770 
Q 1056 3291 1056 2328 
Q 1056 1369 1301 889 
Q 1547 409 2034 409 
Q 2525 409 2770 889 
Q 3016 1369 3016 2328 
Q 3016 3291 2770 3770 
Q 2525 4250 2034 4250 
z
M 2034 4750 
Q 2819 4750 3233 4129 
Q 3647 3509 3647 2328 
Q 3647 1150 3233 529 
Q 2819 -91 2034 -91 
Q 1250 -91 836 529 
Q 422 1150 422 2328 
Q 422 3509 836 4129 
Q 1250 4750 2034 4750 
z
" transform="scale(0.015625)"/>
      </defs>
      <use xlink:href="#DejaVuSans-Oblique-72" transform="translate(0 0.09375)"/>
      <use xlink:href="#DejaVuSans-Oblique-69" transform="translate(41.113281 -16.3125) scale(0.7)"/>
      <use xlink:href="#DejaVuSans-2f" transform="translate(63.295898 0.09375)"/>
      <use xlink:href="#DejaVuSans-Oblique-72" transform="translate(96.987305 0.09375)"/>
      <use xlink:href="#DejaVuSans-30" transform="translate(138.100586 -16.3125) scale(0.7)"/>
     </g>
    </g>
   </g>
   <g id="line2d_6">
    <path d="M 73.848 68.092115 
L 270.72 68.092115 
L 270.72 68.092115 
" clip-path="url(#p6de232b321)" style="fill: none; stroke: #000000; stroke-width: 1.5; stroke-linecap: square"/>
   </g>
   <g id="line2d_7">
    <path d="M 73.848 23.844545 
L 74.119689 53.139541 
L 74.383503 93.558989 
L 74.663066 128.768539 
L 74.678816 128.536993 
L 74.737879 123.627176 
L 75.076506 69.858445 
L 75.194631 72.555642 
L 75.45057 86.711434 
L 75.730134 103.959874 
L 75.781322 102.277628 
L 75.903385 86.181283 
L 76.108136 69.286051 
L 76.116011 69.296224 
L 76.163261 69.928465 
L 76.316824 75.951755 
L 76.635763 98.212756 
L 76.777514 105.752048 
L 76.820827 104.580073 
L 76.923202 91.932322 
L 77.155516 69.396327 
L 77.163391 69.40672 
L 77.210641 70.062227 
L 77.364204 76.294121 
L 77.683143 99.36149 
L 77.820956 106.989106 
L 77.868207 105.600259 
L 77.97452 91.411461 
L 78.198958 69.4825 
L 78.206833 69.492491 
L 78.254083 70.161457 
L 78.407647 76.536938 
L 78.722648 99.869746 
L 78.864399 107.972105 
L 78.907712 106.710491 
L 79.010087 93.134001 
L 79.242401 69.556077 
L 79.250276 69.574448 
L 79.301463 70.394154 
L 79.462902 77.520043 
L 79.793653 103.083379 
L 79.907841 108.834595 
L 79.951154 107.373441 
L 80.057467 92.397048 
L 80.281906 69.626352 
L 80.285843 69.629464 
L 80.325218 70.089537 
L 80.455156 75.070798 
L 80.742595 95.643118 
L 80.947346 109.671642 
L 80.990659 108.214263 
L 81.096972 92.95758 
L 81.321411 69.69879 
L 81.325348 69.701472 
L 81.360786 70.086994 
L 81.482849 74.611521 
L 81.762413 94.379736 
L 81.986851 110.556689 
L 82.030164 109.083535 
L 82.136477 93.499409 
L 82.360916 69.780358 
L 82.364853 69.783113 
L 82.400291 70.175198 
L 82.522354 74.77467 
L 82.79798 94.571316 
L 83.026356 111.587294 
L 83.073606 109.819545 
L 83.187794 91.80515 
L 83.40042 69.8823 
L 83.404358 69.884452 
L 83.439796 70.278914 
L 83.561859 74.956814 
L 83.837485 95.204044 
L 84.065861 112.928188 
L 84.113111 111.223309 
L 84.223362 93.64288 
L 84.443863 70.02677 
L 84.4478 70.034954 
L 84.491113 70.662563 
L 84.632864 76.911621 
L 84.920303 100.281733 
L 85.109304 114.955583 
L 85.156554 113.209566 
L 85.266804 94.902705 
L 85.487305 70.270863 
L 85.491243 70.277502 
L 85.534556 70.909997 
L 85.676306 77.365627 
L 85.959808 101.514122 
L 86.164559 118.832303 
L 86.207871 117.046124 
L 86.314184 98.470194 
L 86.54256 70.837987 
L 86.574061 71.171396 
L 86.684311 75.588693 
L 86.932375 95.66885 
L 87.259189 131.106922 
L 87.326127 126.064621 
L 87.656878 73.699431 
L 87.755316 76.478601 
L 87.98763 93.754922 
L 88.149068 101.830481 
L 88.188443 101.202197 
L 88.345944 92.77884 
L 88.483757 89.659234 
L 88.519195 89.812598 
L 88.672758 91.409738 
L 88.731821 90.73493 
L 88.834196 85.129043 
L 89.109823 68.818942 
L 89.137385 68.939106 
L 89.231886 70.799536 
L 89.468137 80.717183 
L 89.822514 99.773946 
L 89.889451 97.493228 
L 90.054827 77.193073 
L 90.20839 69.084769 
L 90.235953 69.233929 
L 90.330453 71.580573 
L 90.578517 84.416316 
L 90.889581 103.461704 
L 90.944706 101.502178 
L 91.078582 83.417128 
L 91.267583 69.258258 
L 91.279396 69.284945 
L 91.338458 70.277532 
L 91.519584 78.194676 
L 91.936961 105.440054 
L 92.023587 100.604931 
L 92.3189 69.375931 
L 92.385838 70.403628 
L 92.563027 78.355436 
L 92.984341 106.762105 
L 93.067029 101.927773 
L 93.362343 69.465322 
L 93.433218 70.611843 
L 93.618282 79.340986 
L 94.027784 107.781365 
L 94.110471 102.682722 
L 94.401848 69.542167 
L 94.472723 70.641414 
L 94.653849 79.221073 
L 95.067289 108.662462 
L 95.149976 103.621846 
L 95.44529 69.612053 
L 95.516166 70.81629 
L 95.701229 79.883925 
L 96.106793 109.497125 
L 96.189481 104.422008 
L 96.484795 69.683284 
L 96.555671 70.897288 
L 96.740734 80.100509 
L 97.146298 110.364143 
L 97.228986 105.205123 
L 97.5243 69.762239 
L 97.595176 70.995916 
L 97.780239 80.353477 
L 98.189741 111.352815 
L 98.272429 105.575681 
L 98.563805 69.858499 
L 98.626805 70.870689 
L 98.796119 79.102507 
L 99.12687 107.180504 
L 99.229246 112.612422 
L 99.276496 110.763852 
L 99.390684 92.248873 
L 99.60331 69.990965 
L 99.607248 69.994466 
L 99.646623 70.48845 
L 99.776561 75.830871 
L 100.056125 97.476831 
L 100.272688 114.446373 
L 100.316001 112.803232 
L 100.422314 95.678651 
L 100.646753 70.205937 
L 100.65069 70.210111 
L 100.690065 70.723899 
L 100.820003 76.252423 
L 101.09563 98.482425 
L 101.320068 117.743255 
L 101.367319 115.855784 
L 101.477569 96.491904 
L 101.69807 70.664076 
L 101.702008 70.669075 
L 101.741383 71.213697 
L 101.871321 77.074015 
L 102.139072 100.326925 
L 102.398948 126.708033 
L 102.450136 124.009843 
L 102.576137 97.561667 
L 102.784825 72.47189 
L 102.788763 72.472399 
L 102.820263 72.842548 
L 102.930513 77.738345 
L 103.178577 100.284504 
L 103.438453 123.083698 
L 103.477829 122.308127 
L 103.592017 112.91743 
L 104.096019 71.458749 
L 104.214145 68.768078 
L 104.25352 69.014708 
L 104.375583 71.777372 
L 104.643334 83.66167 
L 104.942586 98.818932 
L 104.993773 97.483192 
L 105.111899 84.927238 
L 105.328462 69.048117 
L 105.336337 69.05762 
L 105.383588 69.623286 
L 105.533213 74.891561 
L 105.848215 94.765691 
L 106.009653 103.028438 
L 106.052966 101.965005 
L 106.155341 90.490668 
L 106.391592 69.234395 
L 106.399468 69.248314 
L 106.450655 69.975878 
L 106.612094 76.442201 
L 106.946783 99.837015 
L 107.060971 105.17762 
L 107.108221 103.845204 
L 107.214534 90.427795 
L 107.44291 69.359097 
L 107.446847 69.36564 
L 107.49016 69.903072 
L 107.631911 75.30011 
L 107.9351 96.268248 
L 108.108351 106.573554 
L 108.151663 105.329739 
L 108.254039 92.259674 
L 108.486352 69.451835 
L 108.494227 69.468126 
L 108.545415 70.257705 
L 108.706853 77.185538 
L 109.037605 101.97296 
L 109.151793 107.62871 
L 109.199043 106.053965 
L 109.309294 90.598379 
L 109.529795 69.529783 
L 109.533732 69.536627 
L 109.577045 70.101054 
L 109.718796 75.755158 
L 110.018047 97.467485 
L 110.191298 108.523064 
L 110.234611 107.282534 
L 110.336986 93.56405 
L 110.5693 69.600356 
L 110.577175 69.617437 
L 110.628363 70.438468 
L 110.789801 77.628161 
L 111.116615 103.175305 
L 111.234741 109.36 
L 111.278053 107.884905 
L 111.384366 92.701505 
L 111.608805 69.671243 
L 111.612742 69.674661 
L 111.652118 70.141602 
L 111.782056 75.175817 
L 112.069495 95.990036 
L 112.274245 110.217788 
L 112.317558 108.730653 
L 112.423871 93.233833 
L 112.64831 69.748427 
L 112.652247 69.751857 
L 112.691622 70.225954 
L 112.821561 75.340397 
L 113.105062 96.189886 
L 113.31375 111.180559 
L 113.357063 109.67966 
L 113.463376 93.8377 
L 113.687815 69.841023 
L 113.691752 69.844289 
L 113.731127 70.324877 
L 113.861066 75.527711 
L 114.144567 96.833588 
L 114.353255 112.380176 
L 114.400506 110.613851 
L 114.514694 92.313822 
L 114.72732 69.96614 
L 114.735195 69.977985 
L 114.782445 70.721166 
L 114.936008 77.780825 
L 115.23526 102.711088 
L 115.396698 114.08492 
L 115.440011 112.482189 
L 115.546324 95.539082 
L 115.770762 70.16147 
L 115.7747 70.164879 
L 115.814075 70.669606 
L 115.944013 76.152376 
L 116.219639 98.172816 
L 116.444078 117.024471 
L 116.491328 115.047841 
L 116.605516 94.867532 
L 116.82208 70.556526 
L 116.85358 70.885089 
L 116.96383 75.183641 
L 117.215832 94.862202 
L 117.515083 124.278136 
L 117.574146 120.506834 
L 117.763147 80.973586 
L 117.897022 71.891421 
L 117.928522 72.221579 
L 118.034835 76.695948 
L 118.275024 97.748075 
L 118.692401 145.439647 
L 118.763276 142.307209 
L 118.893215 120.454189 
L 119.220029 69.433777 
L 119.283029 68.765509 
L 119.338154 69.176362 
L 119.48778 72.752678 
L 119.775219 85.548125 
L 120.035095 97.67585 
L 120.078408 96.777243 
L 120.180783 87.580427 
L 120.424909 69.007798 
L 120.436722 69.040112 
L 120.499722 70.04233 
L 120.684786 77.483145 
L 121.110038 102.535669 
L 121.192725 98.276008 
L 121.491977 69.209411 
L 121.56679 70.388234 
L 121.755791 78.80721 
L 122.161355 104.892828 
L 122.244043 100.496704 
L 122.543294 69.341604 
L 122.618107 70.58823 
L 122.811046 79.637066 
L 123.208735 106.373295 
L 123.287485 102.108854 
L 123.586737 69.437838 
L 123.669425 70.908696 
L 123.870238 80.904525 
L 124.252178 107.468842 
L 124.32699 103.477994 
L 124.630179 69.51736 
L 124.720742 71.315966 
L 124.933368 82.603447 
L 125.29562 108.380248 
L 125.362558 104.918783 
L 125.669684 69.588954 
L 125.779935 72.104138 
L 126.016186 85.934894 
L 126.335125 109.223488 
L 126.394188 106.548732 
L 126.547751 81.373542 
L 126.709189 69.659674 
L 126.728877 69.752689 
L 126.807627 71.736842 
L 127.028128 84.187845 
L 127.37463 110.072381 
L 127.441568 106.57722 
L 127.748694 69.735334 
L 127.858945 72.307993 
L 128.095196 86.594881 
L 128.414135 111.010165 
L 128.477135 107.876525 
L 128.788199 69.824555 
L 128.9142 73.11942 
L 129.162263 89.250462 
L 129.45364 112.15673 
L 129.512703 109.415914 
L 129.662328 83.192357 
L 129.831642 69.942665 
L 129.847392 70.032303 
L 129.926142 72.102398 
L 130.142706 84.972203 
L 130.497082 113.747983 
L 130.567958 109.403215 
L 130.871147 70.120951 
L 130.965647 72.239762 
L 131.178273 85.120348 
L 131.544462 116.385761 
L 131.619275 111.151452 
L 131.918527 70.463741 
L 131.997277 72.059311 
L 132.186278 83.117939 
L 132.513092 116.633531 
L 132.607592 122.387054 
L 132.654843 120.067529 
L 132.772968 96.9827 
L 132.985594 71.488697 
L 132.989532 71.490401 
L 133.024969 71.943066 
L 133.143095 77.268973 
L 133.391159 99.63478 
L 133.824286 155.135455 
L 133.906973 149.183373 
L 134.072349 108.487439 
L 134.312538 70.811122 
L 134.359788 70.369873 
L 134.418851 70.845063 
L 134.607852 74.975355 
L 134.891353 86.260144 
L 135.123667 95.393784 
L 135.166979 94.605224 
L 135.269355 86.485788 
L 135.517419 68.93853 
L 135.533169 68.98281 
L 135.604044 70.175886 
L 135.804858 78.359339 
L 136.210422 101.630913 
L 136.285235 98.342116 
L 136.592361 69.164882 
L 136.690799 70.969063 
L 136.9113 81.75317 
L 137.265677 104.392924 
L 137.332615 101.615429 
L 137.647616 69.31101 
L 137.769679 72.155073 
L 138.021681 86.520882 
L 138.313057 106.033413 
L 138.368182 104.121501 
L 138.494183 86.059277 
L 138.691059 69.415608 
L 138.702871 69.440564 
L 138.761934 70.475301 
L 138.94306 78.772021 
L 139.360437 107.202658 
L 139.443125 102.11648 
L 139.734501 69.498148 
L 139.805377 70.593353 
L 139.986502 79.088256 
L 140.399942 108.153437 
L 140.48263 103.206336 
L 140.777944 69.570505 
L 140.848819 70.750937 
L 141.033882 79.717268 
L 141.439447 109.00387 
L 141.522135 104.074264 
L 141.817449 69.640529 
L 141.892262 70.94002 
L 142.081262 80.414895 
L 142.482889 109.843166 
L 142.56164 104.854989 
L 142.856954 69.714116 
L 142.931766 71.029981 
L 143.120767 80.654311 
L 143.522394 110.748818 
L 143.601145 105.671027 
L 143.896459 69.798682 
L 143.971271 71.136536 
L 144.160272 80.929972 
L 144.561899 111.825986 
L 144.644587 106.152191 
L 144.935964 69.906764 
L 145.002901 71.00902 
L 145.176152 79.663722 
L 145.518716 109.25429 
L 145.601404 113.264387 
L 145.652592 111.223039 
L 145.770717 91.367508 
L 145.979406 70.065047 
L 145.983344 70.073342 
L 146.026656 70.705067 
L 146.168407 76.993429 
L 146.455846 100.561714 
L 146.648784 115.524587 
L 146.692097 113.834755 
L 146.79841 96.311922 
L 147.022848 70.345223 
L 147.026786 70.349019 
L 147.066161 70.867809 
L 147.196099 76.495513 
L 147.467788 98.897302 
L 147.704039 120.145081 
L 147.751289 118.024541 
L 147.865477 96.736749 
L 148.082041 71.06187 
L 148.085979 71.066515 
L 148.125354 71.623933 
L 148.255292 77.708586 
L 148.515168 101.38851 
L 148.826232 138.04635 
L 148.889232 133.891035 
L 149.062483 93.88996 
L 149.255422 75.870405 
L 149.279047 76.027827 
L 149.373547 78.853259 
L 149.570423 84.600434 
L 149.613736 84.29312 
L 149.802737 81.682537 
L 149.873612 82.174183 
L 150.0193 85.781951 
L 150.255551 92.567822 
L 150.302802 91.854204 
L 150.405177 85.05242 
L 150.661116 68.864626 
L 150.680803 68.924697 
L 150.759554 70.286491 
L 150.97218 78.830761 
L 151.365932 100.536592 
L 151.440744 97.423814 
L 151.751808 69.116287 
L 151.854184 71.071428 
L 152.08256 82.302717 
L 152.425124 103.830648 
L 152.492062 101.159554 
L 152.677125 75.475911 
L 152.807064 69.278227 
L 152.842501 69.570249 
L 152.956689 73.177963 
L 153.232316 90.040609 
L 153.476442 105.670483 
L 153.523692 104.199741 
L 153.633942 89.679593 
L 153.854443 69.390434 
L 153.862319 69.404896 
L 153.913506 70.17255 
L 154.074945 76.971257 
L 154.409634 101.596071 
L 154.519884 106.929843 
L 154.567134 105.485786 
L 154.677385 90.52027 
L 154.897886 69.477524 
L 154.905761 69.491053 
L 154.956949 70.27187 
L 155.118387 77.225529 
L 155.449139 102.18577 
L 155.563327 107.921545 
L 155.610577 106.355081 
L 155.720827 90.801936 
L 155.941328 69.552361 
L 155.945266 69.558938 
L 155.988579 70.123887 
L 156.130329 75.804943 
L 156.429581 97.649419 
L 156.602832 108.788464 
L 156.646144 107.536198 
L 156.74852 93.707751 
L 156.980833 69.622326 
L 156.988708 69.640253 
L 157.039896 70.469235 
L 157.201334 77.700679 
L 157.528148 103.409431 
L 157.646274 109.622867 
L 157.689587 108.12164 
L 157.7959 92.799852 
L 158.020338 69.694388 
L 158.024276 69.698592 
L 158.063651 70.17417 
L 158.197527 75.451192 
L 158.484966 96.552621 
L 158.685779 110.503261 
L 158.729092 108.985545 
L 158.835405 93.336425 
L 159.059843 69.775208 
L 159.063781 69.779508 
L 159.103156 70.263098 
L 159.237032 75.627373 
L 159.52447 97.151252 
L 159.725284 111.522784 
L 159.768597 109.99759 
L 159.87491 93.998918 
L 160.099348 69.875467 
L 160.103286 69.879277 
L 160.142661 70.367102 
L 160.272599 75.609976 
L 160.5561 97.09411 
L 160.764789 112.841118 
L 160.812039 111.076224 
L 160.92229 93.427325 
L 161.138853 70.017135 
L 161.142791 70.017791 
L 161.178228 70.409249 
L 161.300291 75.172793 
L 161.57198 95.602622 
L 161.808231 114.813299 
L 161.855482 112.985623 
L 161.965732 94.591483 
L 162.186233 70.253187 
L 162.217733 70.572962 
L 162.327984 74.719329 
L 162.58786 94.191818 
L 162.859549 118.515212 
L 162.914674 115.830998 
L 163.04855 89.856595 
L 163.237551 70.785735 
L 163.245426 70.804481 
L 163.296613 71.765965 
L 163.454114 80.125519 
L 163.733678 107.680708 
L 163.950242 129.723265 
L 163.997492 127.29963 
L 164.115617 102.779773 
L 164.340056 73.294074 
L 164.343993 73.288959 
L 164.363681 73.423822 
L 164.442431 76.039841 
L 164.655057 92.197211 
L 164.879496 107.102767 
L 164.918871 106.435053 
L 165.052747 98.037992 
L 165.257498 91.736098 
L 165.367748 91.537492 
L 165.446499 89.443795 
L 165.607937 76.825368 
L 165.796938 68.806153 
L 165.80875 68.83575 
L 165.875688 69.731119 
L 166.060752 76.014907 
L 166.509629 99.538358 
L 166.600192 95.449574 
L 166.899443 69.075166 
L 166.970318 70.06206 
L 167.151444 77.465679 
L 167.576696 103.354424 
L 167.663322 98.781528 
L 167.958636 69.251815 
L 168.029511 70.305931 
L 168.210637 78.247545 
L 168.628014 105.374536 
L 168.710702 100.866025 
L 169.006016 69.371804 
L 169.084766 70.654128 
L 169.277704 79.810685 
L 169.675394 106.712543 
L 169.754144 102.229334 
L 170.053396 69.462419 
L 170.132146 70.874168 
L 170.329022 80.613681 
L 170.714899 107.740651 
L 170.793649 103.476788 
L 171.092901 69.5384 
L 171.179526 71.1566 
L 171.384277 81.786585 
L 171.758341 108.626547 
L 171.833154 104.431 
L 172.136343 69.609802 
L 172.222968 71.352272 
L 172.431657 82.530549 
L 172.797846 109.462393 
L 172.868722 105.69367 
L 173.175848 69.680709 
L 173.274286 71.873117 
L 173.498725 84.77166 
L 173.837351 110.326851 
L 173.904289 106.931401 
L 174.215353 69.759185 
L 174.329541 72.62683 
L 174.56973 87.553893 
L 174.876856 111.308521 
L 174.935919 108.663852 
L 175.081607 83.665058 
L 175.254858 69.854369 
L 175.270608 69.93825 
L 175.345421 71.813406 
L 175.558047 84.009856 
L 175.920299 112.549043 
L 175.991174 108.20997 
L 176.294363 69.984134 
L 176.384926 71.947755 
L 176.597552 84.411157 
L 176.959804 114.346875 
L 177.034616 109.752416 
L 177.337805 70.194014 
L 177.424431 72.081282 
L 177.629182 84.249318 
L 178.011121 117.54734 
L 178.089871 111.777245 
L 178.389123 70.63467 
L 178.459998 72.052558 
L 178.641124 82.52386 
L 178.940375 113.707807 
L 179.086064 126.00782 
L 179.129376 124.102966 
L 179.235689 103.901911 
L 179.47194 72.296369 
L 179.495566 72.478111 
L 179.582191 75.576609 
L 179.798755 92.847225 
L 180.161006 128.271805 
L 180.224007 126.049869 
L 180.420882 104.802116 
L 180.861885 68.868003 
L 180.889447 68.757229 
L 180.936697 69.086556 
L 181.070573 72.30145 
L 181.350137 85.096144 
L 181.621826 98.580046 
L 181.669076 97.519911 
L 181.775389 87.151307 
L 182.01164 69.039207 
L 182.019515 69.056104 
L 182.07464 69.823084 
L 182.243954 76.280034 
L 182.602268 99.708972 
L 182.692831 102.92237 
L 182.740081 101.567965 
L 182.850332 88.348947 
L 183.07477 69.229033 
L 183.078708 69.234782 
L 183.12202 69.74268 
L 183.263771 74.902944 
L 183.56696 94.962687 
L 183.744148 105.116302 
L 183.787461 103.94939 
L 183.889837 91.532375 
L 184.12215 69.355553 
L 184.130025 69.364835 
L 184.177275 70.007226 
L 184.330839 76.15688 
L 184.649778 98.922408 
L 184.791528 106.528874 
L 184.834841 105.228972 
L 184.941154 91.375189 
L 185.16953 69.448919 
L 185.173468 69.454922 
L 185.21678 70.000961 
L 185.358531 75.52847 
L 185.66172 97.070143 
L 185.834971 107.592244 
L 185.878283 106.221776 
L 185.984596 91.852039 
L 186.209035 69.527706 
L 186.21691 69.536532 
L 186.26416 70.207481 
L 186.413786 76.43028 
L 186.72485 99.591292 
L 186.874476 108.492479 
L 186.917788 107.199838 
L 187.020164 93.391147 
L 187.252478 69.597928 
L 187.256415 69.603997 
L 187.299728 70.170054 
L 187.441478 75.904219 
L 187.74073 98.012677 
L 187.913981 109.329393 
L 187.957293 108.059661 
L 188.059669 94.021142 
L 188.291982 69.668516 
L 188.29592 69.673737 
L 188.335295 70.155248 
L 188.469171 75.418145 
L 188.760547 96.758524 
L 188.953486 110.183365 
L 189.000736 108.642649 
L 189.107049 93.059239 
L 189.331487 69.745318 
L 189.335425 69.750566 
L 189.3748 70.239333 
L 189.508676 75.585815 
L 189.796115 96.971256 
L 189.996928 111.140242 
L 190.040241 109.584293 
L 190.146554 93.653873 
L 190.370992 69.837073 
L 190.37493 69.84222 
L 190.414305 70.337951 
L 190.548181 75.776966 
L 190.83562 97.63235 
L 191.036433 112.328793 
L 191.079746 110.795928 
L 191.186059 94.524122 
L 191.410497 69.960074 
L 191.414435 69.963385 
L 191.45381 70.45356 
L 191.583748 75.766204 
L 191.863312 97.2645 
L 192.079876 114.00515 
L 192.123188 112.33271 
L 192.233439 94.4544 
L 192.45394 70.15193 
L 192.457877 70.157739 
L 192.497253 70.681595 
L 192.631128 76.416382 
L 192.910692 99.023032 
L 193.127256 116.872797 
L 193.170568 115.123815 
L 193.280819 96.242148 
L 193.50132 70.533771 
L 193.505257 70.536605 
L 193.540695 70.969508 
L 193.662758 76.107611 
L 193.926572 97.7946 
L 194.194323 123.813392 
L 194.249448 120.669526 
L 194.395137 89.844733 
L 194.576262 71.787968 
L 194.588075 71.835717 
L 194.651075 73.408305 
L 194.828264 84.842997 
L 195.115702 119.036935 
L 195.403141 151.007905 
L 195.434641 150.415723 
L 195.513392 142.391247 
L 195.714205 89.982263 
L 195.911081 69.12036 
L 195.950456 68.826777 
L 196.009519 69.250672 
L 196.163082 72.855896 
L 196.450521 85.319137 
L 196.710398 97.27539 
L 196.757648 96.302392 
L 196.863961 86.614961 
L 197.104149 68.995332 
L 197.112024 69.014791 
L 197.16715 69.775152 
L 197.336463 76.091232 
L 197.69084 98.817394 
L 197.78534 102.370393 
L 197.836528 100.985458 
L 197.950716 87.32588 
L 198.171217 69.201047 
L 198.175155 69.207394 
L 198.218467 69.715189 
L 198.360218 74.830245 
L 198.663407 94.693488 
L 198.840595 104.798493 
L 198.883908 103.689272 
L 198.986283 91.497388 
L 199.222535 69.335474 
L 199.23041 69.356074 
L 199.285535 70.241305 
L 199.454848 77.52706 
L 199.887975 106.308236 
L 199.978538 100.727826 
L 200.265977 69.43358 
L 200.32504 70.213732 
L 200.486478 77.080423 
L 200.81723 101.709916 
L 200.931418 107.417383 
L 200.978668 105.930159 
L 201.088918 90.703228 
L 201.309419 69.513375 
L 201.313357 69.517416 
L 201.352732 69.973296 
L 201.486608 75.036151 
L 201.777984 95.497279 
L 201.97486 108.337042 
L 202.018173 106.944925 
L 202.124486 92.271672 
L 202.348924 69.585903 
L 202.356799 69.596202 
L 202.40405 70.283231 
L 202.557613 76.823461 
L 202.868677 100.505682 
L 203.014365 109.180929 
L 203.057678 107.8176 
L 203.160053 93.648836 
L 203.392367 69.65644 
L 203.396304 69.664888 
L 203.443555 70.351713 
L 203.59318 76.756055 
L 203.900307 100.386033 
L 204.05387 110.027065 
L 204.097183 108.65856 
L 204.199558 94.20736 
L 204.431872 69.731556 
L 204.435809 69.739993 
L 204.48306 70.436347 
L 204.632685 76.941004 
L 204.935874 100.670339 
L 205.093375 110.957356 
L 205.136688 109.575624 
L 205.239063 94.805923 
L 205.471377 69.819731 
L 205.475314 69.828238 
L 205.522565 70.53577 
L 205.67219 77.15335 
L 205.975379 101.414789 
L 206.13288 112.087783 
L 206.18013 110.441477 
L 206.290381 93.243393 
L 206.510882 69.934707 
L 206.514819 69.941952 
L 206.558132 70.553303 
L 206.699883 76.695147 
L 206.991259 99.963592 
L 207.176322 113.648086 
L 207.219635 112.118623 
L 207.325948 95.442374 
L 207.550387 70.109511 
L 207.554324 70.111119 
L 207.589762 70.514961 
L 207.711825 75.36035 
L 207.983514 96.195432 
L 208.223702 116.202717 
L 208.270953 114.172162 
L 208.389078 93.298379 
L 208.597767 70.438067 
L 208.601704 70.440867 
L 208.637142 70.869544 
L 208.759205 75.949927 
L 209.023019 97.288309 
L 209.282895 121.881042 
L 209.33802 119.040863 
L 209.471896 91.752029 
L 209.664834 71.387213 
L 209.672709 71.411114 
L 209.727835 72.56626 
L 209.889273 81.913633 
L 210.160962 111.33772 
L 210.475963 151.100088 
L 210.527151 148.588919 
L 210.649214 125.063409 
L 210.960278 73.192216 
L 211.042966 71.947159 
L 211.098091 72.238423 
L 211.259529 74.912432 
L 211.507593 82.932461 
L 211.806844 94.680784 
L 211.86197 93.529706 
L 211.980095 83.235128 
L 212.204534 68.919003 
L 212.212409 68.929568 
L 212.263597 69.522206 
L 212.41716 74.633683 
L 212.732161 93.323701 
L 212.897537 101.36005 
L 212.94085 100.396779 
L 213.039288 90.299531 
L 213.283414 69.152317 
L 213.291289 69.169603 
L 213.346414 69.982496 
L 213.515728 76.791683 
L 213.95673 104.249849 
L 214.047293 98.998736 
L 214.338669 69.302932 
L 214.397732 70.111035 
L 214.563108 77.001411 
L 214.909609 101.91931 
L 215.00411 105.939336 
L 215.05136 104.550904 
L 215.157673 90.750706 
L 215.382111 69.409065 
L 215.389987 69.418358 
L 215.437237 70.071022 
L 215.5908 76.316901 
L 215.905801 99.138147 
L 216.047552 107.130514 
L 216.094802 105.737456 
L 216.201115 91.48962 
L 216.425554 69.492807 
L 216.433429 69.503137 
L 216.480679 70.175448 
L 216.634242 76.570322 
L 216.949244 99.976048 
L 217.090995 108.091827 
L 217.134307 106.813363 
L 217.236683 93.164596 
L 217.468996 69.565581 
L 217.472934 69.57114 
L 217.516247 70.128708 
L 217.657997 75.813122 
L 217.957249 97.721396 
L 218.1305 108.945803 
L 218.17775 107.457781 
L 218.284063 92.394589 
L 218.508501 69.635637 
L 218.512439 69.639614 
L 218.551814 70.107724 
L 218.68569 75.315958 
L 218.977066 96.456682 
L 219.173942 109.78411 
L 219.217255 108.295946 
L 219.323568 92.943617 
L 219.548006 69.708787 
L 219.551944 69.712473 
L 219.591319 70.185114 
L 219.721257 75.262566 
L 220.008696 96.276925 
L 220.213447 110.682269 
L 220.25676 109.177033 
L 220.363073 93.491453 
L 220.587511 69.792275 
L 220.591449 69.79604 
L 220.630824 70.276684 
L 220.760762 75.439451 
L 221.044263 96.513749 
L 221.252952 111.742721 
L 221.296265 110.236913 
L 221.402578 94.202905 
L 221.627016 69.898148 
L 221.630954 69.901115 
L 221.666391 70.302747 
L 221.788454 75.005022 
L 222.064081 95.338135 
L 222.292457 113.146092 
L 222.339707 111.426117 
L 222.449958 93.74802 
L 222.670459 70.051519 
L 222.674396 70.059911 
L 222.717709 70.691403 
L 222.85946 76.967891 
L 223.146898 100.468483 
L 223.339837 115.321087 
L 223.38315 113.605986 
L 223.4934 95.241847 
L 223.713901 70.318228 
L 223.717839 70.323226 
L 223.757214 70.850404 
L 223.887152 76.475483 
L 224.158841 98.7882 
L 224.395092 119.659357 
L 224.442342 117.392395 
L 224.564405 94.191218 
L 224.773094 70.978488 
L 224.804594 71.323833 
L 224.914844 75.814405 
L 225.162908 96.294353 
L 225.505472 135.243273 
L 225.576348 129.560375 
L 225.918912 75.011144 
L 226.005537 77.115771 
L 226.296913 90.18664 
L 226.379601 88.716897 
L 226.57254 84.370149 
L 226.61979 84.627232 
L 226.741853 87.239785 
L 226.938729 92.017796 
L 226.989917 91.340559 
L 227.092292 84.917772 
L 227.352168 68.849439 
L 227.375794 68.932476 
L 227.458481 70.438691 
L 227.678983 79.435713 
L 228.060922 100.285083 
L 228.131797 97.49703 
L 228.446799 69.105701 
L 228.557049 71.314306 
L 228.7933 83.227762 
L 229.120114 103.706749 
L 229.183115 101.41708 
L 229.33274 80.504578 
L 229.502054 69.271509 
L 229.521741 69.357976 
L 229.600492 71.14788 
L 229.820993 82.354428 
L 230.171432 105.592986 
L 230.23837 102.678379 
L 230.549434 69.385934 
L 230.671497 72.194586 
L 230.91956 86.516381 
L 231.218812 106.871364 
L 231.273937 104.656218 
L 231.41175 83.805155 
L 231.596814 69.474276 
L 231.608626 69.523636 
L 231.675564 70.903778 
L 231.87244 80.687032 
L 232.258317 107.873014 
L 232.337067 103.522654 
L 232.636319 69.548361 
L 232.719007 71.062823 
L 232.91982 81.350018 
L 233.301759 108.745124 
L 233.376572 104.448597 
L 233.675824 69.619108 
L 233.762449 71.258541 
L 233.9672 82.086734 
L 234.341264 109.581137 
L 234.416077 105.25407 
L 234.715329 69.691135 
L 234.805891 71.485077 
L 235.01458 82.892421 
L 235.380769 110.456607 
L 235.451645 106.520283 
L 235.754833 69.771289 
L 235.853271 71.88709 
L 236.073773 84.637572 
L 236.420274 111.464864 
L 236.487212 107.919923 
L 236.794338 69.870339 
L 236.908526 72.657736 
L 237.144778 87.492929 
L 237.459779 112.758851 
L 237.522779 109.676737 
L 237.69603 79.08062 
L 237.837781 70.007611 
L 237.865344 70.238957 
L 237.967719 73.701831 
L 238.21972 91.05018 
L 238.503222 114.681276 
L 238.562284 111.87405 
L 238.707973 85.020303 
L 238.881223 70.235857 
L 238.896973 70.318758 
L 238.971786 72.286786 
L 239.180475 84.999703 
L 239.554539 118.236254 
L 239.633289 112.637297 
L 239.932541 70.741243 
L 240.007354 72.241556 
L 240.18848 82.925921 
L 240.483794 114.430352 
L 240.641294 128.579895 
L 240.684607 126.556592 
L 240.794857 104.821536 
L 241.027171 72.974649 
L 241.031109 72.966405 
L 241.054734 73.141408 
L 241.141359 76.265353 
L 241.365798 94.309691 
L 241.605986 112.259923 
L 241.645362 111.593326 
L 241.767425 103.130938 
L 241.999738 93.026235 
L 242.129676 89.317203 
L 242.476178 68.793065 
L 242.590366 70.473 
L 242.818742 79.440568 
L 243.196744 99.309023 
L 243.267619 96.776485 
L 243.586558 69.067032 
L 243.704684 71.518615 
L 243.952748 84.227783 
L 244.263812 103.248463 
L 244.318937 101.426414 
L 244.444937 84.855872 
L 244.645751 69.246156 
L 244.653626 69.263741 
L 244.708751 70.108202 
L 244.878064 77.164377 
L 245.315129 105.310321 
L 245.405692 99.849767 
L 245.693131 69.367493 
L 245.752194 70.124155 
L 245.913632 76.852175 
L 246.244383 100.975285 
L 246.362509 106.665905 
L 246.405822 105.317325 
L 246.512135 91.320588 
L 246.740511 69.459244 
L 246.744448 69.466994 
L 246.791699 70.118268 
L 246.941324 76.221494 
L 247.252388 98.917362 
L 247.402014 107.703105 
L 247.449264 106.266276 
L 247.555577 91.734807 
L 247.780016 69.535454 
L 247.787891 69.548799 
L 247.839079 70.339642 
L 248.000517 77.393201 
L 248.327331 102.452084 
L 248.445456 108.59247 
L 248.492707 106.958233 
L 248.606895 90.302583 
L 248.823458 69.607022 
L 248.827396 69.615654 
L 248.874646 70.297502 
L 249.024272 76.635408 
L 249.331398 99.957084 
L 249.484961 109.428779 
L 249.528274 108.077913 
L 249.63065 93.852333 
L 249.862963 69.677761 
L 249.866901 69.685746 
L 249.910213 70.27802 
L 250.051964 76.139714 
L 250.351216 98.744605 
L 250.524466 110.290548 
L 250.567779 108.92945 
L 250.670155 94.408423 
L 250.902468 69.755788 
L 250.906406 69.763889 
L 250.949718 70.365577 
L 251.091469 76.322116 
L 251.386783 99.007336 
L 251.563971 111.265351 
L 251.607284 109.895209 
L 251.709659 95.051698 
L 251.941973 69.850048 
L 251.945911 69.858001 
L 251.989223 70.467791 
L 252.130974 76.528869 
L 252.426288 99.735859 
L 252.607414 112.491128 
L 252.650726 110.877129 
L 252.757039 94.405151 
L 252.981478 69.977839 
L 252.985416 69.983671 
L 253.028728 70.586272 
L 253.170479 76.752557 
L 253.461855 100.226067 
L 253.646919 114.257328 
L 253.694169 112.523261 
L 253.804419 94.457854 
L 254.02492 70.18302 
L 254.028858 70.190388 
L 254.072171 70.823038 
L 254.213921 77.210022 
L 254.497423 100.943341 
L 254.698236 117.366461 
L 254.741549 115.637314 
L 254.847862 97.537463 
L 255.0723 70.607349 
L 255.076238 70.608341 
L 255.111676 71.030197 
L 255.233739 76.184215 
L 255.493615 97.66646 
L 255.769241 125.390433 
L 255.824367 122.408213 
L 255.96218 93.075403 
L 256.155118 72.147879 
L 256.162993 72.167192 
L 256.214181 73.197937 
L 256.367744 82.162753 
L 256.655183 113.521072 
L 256.879622 133.585434 
L 256.911122 132.95989 
L 257.005622 125.019499 
L 257.560812 68.748994 
L 257.576562 68.783436 
L 257.647438 69.675643 
L 257.836439 75.564063 
L 258.179003 94.031817 
L 258.301066 98.324954 
L 258.344379 97.423221 
L 258.446754 87.982866 
L 258.69088 69.030214 
L 258.698755 69.047607 
L 258.753881 69.813268 
L 258.923194 76.242575 
L 259.277571 99.337027 
L 259.372071 102.812216 
L 259.419321 101.494711 
L 259.529572 88.385585 
L 259.75401 69.223059 
L 259.761885 69.239424 
L 259.813073 69.976259 
L 259.974511 76.434702 
L 260.3092 99.750216 
L 260.423388 105.050794 
L 260.470639 103.711226 
L 260.576952 90.329061 
L 260.805328 69.351173 
L 260.809265 69.357877 
L 260.852578 69.895489 
L 260.994329 75.281991 
L 261.297518 96.199814 
L 261.470768 106.483783 
L 261.514081 105.249715 
L 261.616457 92.229202 
L 261.84877 69.445544 
L 261.856645 69.461075 
L 261.907833 70.245584 
L 262.069271 77.156231 
L 262.400023 101.892631 
L 262.514211 107.556724 
L 262.561461 106.003844 
L 262.671712 90.612442 
L 262.892213 69.524101 
L 262.89615 69.53025 
L 262.939463 70.087784 
L 263.081214 75.724349 
L 263.380465 97.392098 
L 263.553716 108.458164 
L 263.597029 107.243067 
L 263.695467 94.316594 
L 263.931718 69.595172 
L 263.939593 69.610481 
L 263.99078 70.421777 
L 264.152219 77.589862 
L 264.479033 103.088958 
L 264.597158 109.298221 
L 264.640471 107.853317 
L 264.746784 92.747554 
L 264.971223 69.665975 
L 264.979098 69.679549 
L 265.030285 70.493964 
L 265.191724 77.76195 
L 265.5146 103.410758 
L 265.636663 110.151657 
L 265.679976 108.696752 
L 265.786289 93.282323 
L 266.010728 69.742436 
L 266.014665 69.744801 
L 266.050103 70.131201 
L 266.172166 74.691386 
L 266.45173 94.662177 
L 266.676168 111.10262 
L 266.723418 109.346436 
L 266.837607 91.52981 
L 267.050233 69.833459 
L 267.05417 69.835698 
L 267.089608 70.227576 
L 267.211671 74.865809 
L 267.487297 94.895053 
L 267.715673 112.277194 
L 267.762923 110.54153 
L 267.873174 93.131722 
L 268.089737 69.955389 
L 268.097613 69.965589 
L 268.144863 70.699854 
L 268.294488 77.497024 
L 268.59374 102.191072 
L 268.759116 113.928509 
L 268.802428 112.339664 
L 268.908741 95.469068 
L 269.13318 70.142569 
L 269.137117 70.145752 
L 269.172555 70.563245 
L 269.294618 75.454407 
L 269.566307 96.456551 
L 269.806496 116.724385 
L 269.853746 114.71099 
L 269.967934 94.56545 
L 270.18056 70.512645 
L 270.184497 70.513727 
L 270.219935 70.932531 
L 270.341998 76.033225 
L 270.605812 97.608308 
L 270.72 110.783913 
L 270.72 110.783913 
" clip-path="url(#p6de232b321)" style="fill: none; stroke: #808080; stroke-width: 1.5; stroke-linecap: square"/>
   </g>
   <g id="line2d_8">
    <path d="M 73.848 74.467489 
L 74.163002 54.119764 
L 74.206314 54.570906 
L 74.312627 58.95372 
L 74.663066 80.015687 
L 74.737879 78.651742 
L 74.891442 68.784208 
L 75.052881 63.010357 
L 75.080443 63.110965 
L 75.178881 64.748008 
L 75.521445 75.268686 
L 75.710446 79.887653 
L 75.753759 79.462099 
L 75.844322 75.109888 
L 76.100261 61.614455 
L 76.135698 61.822465 
L 76.261699 64.406226 
L 76.757826 78.671227 
L 76.836577 77.061705 
L 77.02164 64.040108 
L 77.139766 60.824141 
L 77.183078 61.092511 
L 77.320892 64.133543 
L 77.797331 77.888059 
L 77.872144 76.548317 
L 78.02177 66.215355 
L 78.183208 60.264636 
L 78.210771 60.401457 
L 78.317084 62.41423 
L 78.836836 77.300454 
L 78.927399 75.313817 
L 79.222713 59.814249 
L 79.325089 61.22142 
L 79.65584 71.364781 
L 79.876341 76.805966 
L 79.915716 76.46424 
L 80.002342 72.790737 
L 80.258281 59.411685 
L 80.309468 59.799442 
L 80.470907 63.747911 
L 80.915846 76.346364 
L 80.970971 75.607929 
L 81.081222 69.402198 
L 81.297785 59.018679 
L 81.321411 59.117201 
L 81.415911 60.79087 
L 81.951414 75.880119 
L 82.045914 73.727591 
L 82.333353 58.598825 
L 82.435728 59.952766 
L 82.774355 70.313722 
L 82.986981 75.361104 
L 83.026356 75.054289 
L 83.112982 71.573815 
L 83.372858 58.104034 
L 83.427983 58.571484 
L 83.605171 63.120085 
L 84.026486 74.724557 
L 84.073736 74.221148 
L 84.172174 69.528723 
L 84.412363 57.452444 
L 84.4478 57.665373 
L 84.573801 60.401961 
L 85.062053 73.838316 
L 85.125054 73.00838 
L 85.243179 66.300357 
L 85.451868 56.453247 
L 85.47943 56.566173 
L 85.577868 58.384885 
L 86.101558 72.377669 
L 86.180309 71.133053 
L 86.318122 62.445319 
L 86.507123 54.502045 
L 86.52681 54.572575 
L 86.613436 55.964352 
L 87.160751 69.290639 
L 87.243439 68.072215 
L 87.377314 60.320196 
L 87.645066 47.7999 
L 87.656878 47.79153 
L 87.692316 47.924565 
L 87.818317 49.549568 
L 88.015192 54.911741 
L 88.204193 67.882814 
L 88.57432 91.387219 
L 88.676696 93.092088 
L 88.723946 92.582824 
L 88.814509 87.894198 
L 89.141323 67.037116 
L 89.17676 67.191898 
L 89.298824 69.167046 
L 89.633513 78.934013 
L 89.814639 83.175519 
L 89.854014 82.738157 
L 89.944577 78.19272 
L 90.212328 63.363248 
L 90.243828 63.515286 
L 90.358016 65.595875 
L 90.763581 78.312805 
L 90.873831 80.243612 
L 90.917144 79.735003 
L 91.015582 74.575561 
L 91.259708 61.828338 
L 91.287271 61.948343 
L 91.389646 63.764617 
L 91.775523 75.907914 
L 91.917274 78.874612 
L 91.960586 78.446672 
L 92.055087 73.869207 
L 92.30315 60.962669 
L 92.338588 61.163493 
L 92.464589 63.772439 
L 92.960716 78.029907 
L 93.039466 76.455158 
L 93.216655 64.035857 
L 93.342655 60.368485 
L 93.382031 60.601666 
L 93.511969 63.397958 
L 94.000221 77.412831 
L 94.075034 76.037096 
L 94.228597 65.447744 
L 94.38216 59.901397 
L 94.41366 60.055372 
L 94.523911 62.213432 
L 95.039726 76.904142 
L 95.122414 75.189382 
L 95.421665 59.492956 
L 95.543728 61.341662 
L 96.075293 76.440344 
L 96.169794 74.312528 
L 96.46117 59.101611 
L 96.559608 60.433357 
L 96.886422 70.407202 
L 97.114798 75.979376 
L 97.150236 75.692987 
L 97.236861 72.225161 
L 97.496738 58.689728 
L 97.551863 59.148192 
L 97.729051 63.675403 
L 98.150366 75.476031 
L 98.201553 74.906836 
L 98.303929 69.716404 
L 98.536243 58.216074 
L 98.563805 58.354101 
L 98.670118 60.422464 
L 99.189871 74.870665 
L 99.268621 73.367027 
L 99.433997 62.159756 
L 99.57181 57.607402 
L 99.607248 57.793727 
L 99.725373 60.269972 
L 100.225438 74.053495 
L 100.292376 73.062838 
L 100.418377 65.455225 
L 100.615252 56.706378 
L 100.638878 56.807484 
L 100.733378 58.504486 
L 101.264943 72.7595 
L 101.347631 71.274738 
L 101.501194 61.088808 
L 101.662632 55.054938 
L 101.690195 55.173958 
L 101.792571 57.070398 
L 102.312323 70.173427 
L 102.383198 69.292571 
L 102.501324 63.050731 
L 102.765138 50.335597 
L 102.780888 50.373709 
L 102.859638 51.27377 
L 103.186452 58.592013 
L 103.414828 68.132991 
L 103.80858 90.587934 
L 103.87158 89.320665 
L 104.009394 78.670517 
L 104.233832 68.017681 
L 104.245645 68.006211 
L 104.281082 68.156322 
L 104.403146 69.996111 
L 104.718147 78.673981 
L 104.930773 84.026389 
L 104.974086 83.557744 
L 105.068586 78.600773 
L 105.3324 63.744135 
L 105.359963 63.839407 
L 105.458401 65.420466 
L 105.789152 75.388187 
L 105.993903 80.563011 
L 106.033278 80.206706 
L 106.119904 76.270025 
L 106.383717 62.014835 
L 106.42703 62.290138 
L 106.568781 65.371492 
L 107.041283 79.048815 
L 107.116096 77.677257 
L 107.265722 67.141018 
L 107.42716 61.079286 
L 107.454723 61.197642 
L 107.557098 63.04317 
L 107.970537 76.080934 
L 108.084726 78.147185 
L 108.131976 77.630584 
L 108.230414 72.611505 
L 108.466665 60.454574 
L 108.498165 60.595009 
L 108.608416 62.708547 
L 109.12423 77.503224 
L 109.210856 75.680102 
L 109.50617 59.972663 
L 109.624295 61.653919 
L 110.002297 73.496957 
L 110.163735 76.982425 
L 110.207048 76.566039 
L 110.301549 72.157799 
L 110.545675 59.557532 
L 110.58505 59.790251 
L 110.714988 62.621936 
L 111.20324 76.51518 
L 111.274116 75.282117 
L 111.415866 65.841405 
L 111.58518 59.165189 
L 111.608805 59.261146 
L 111.703305 60.926033 
L 112.132495 74.300241 
L 112.238808 76.055908 
L 112.286058 75.572703 
L 112.384496 70.803611 
L 112.620747 58.760206 
L 112.656185 58.943245 
L 112.77431 61.396911 
L 113.278313 75.562756 
L 113.349188 74.338254 
L 113.490939 65.021161 
L 113.660252 58.299651 
L 113.687815 58.424815 
L 113.79019 60.364348 
L 114.31388 74.980334 
L 114.396568 73.378037 
L 114.577694 61.109586 
L 114.699757 57.720212 
L 114.739132 57.981756 
L 114.876945 61.123582 
L 115.349448 74.208555 
L 115.40851 73.484394 
L 115.518761 67.528198 
L 115.739262 56.884999 
L 115.766825 57.013563 
L 115.873138 59.069219 
L 116.388953 73.024112 
L 116.463765 71.842535 
L 116.597641 63.468615 
L 116.786642 55.419139 
L 116.810267 55.518812 
L 116.904768 57.191754 
L 117.436333 70.75863 
L 117.515083 69.532382 
L 117.648959 61.406215 
L 117.865522 51.658635 
L 117.881272 51.687231 
L 117.952148 52.510526 
L 118.282899 60.280986 
L 118.928652 77.794693 
L 119.019215 76.066665 
L 119.275154 68.588194 
L 119.322404 68.779167 
L 119.460217 70.754258 
L 119.783094 78.950842 
L 120.023282 85.102726 
L 120.066595 84.637556 
L 120.157158 79.969591 
L 120.432784 64.192045 
L 120.464284 64.332266 
L 120.578473 66.337601 
L 120.948599 77.814277 
L 121.094287 80.931543 
L 121.1376 80.457161 
L 121.232101 75.636013 
L 121.484102 62.22344 
L 121.515602 62.376031 
L 121.62979 64.525361 
L 122.141667 79.241151 
L 122.23223 77.160057 
L 122.527544 61.20563 
L 122.62992 62.512551 
L 122.937046 71.727519 
L 123.18511 78.272778 
L 123.224485 77.931311 
L 123.311111 74.161939 
L 123.570987 60.545052 
L 123.614299 60.849962 
L 123.759988 64.178898 
L 124.228552 77.59879 
L 124.29549 76.441225 
L 124.429366 67.569312 
L 124.610492 60.04587 
L 124.630179 60.117824 
L 124.716805 61.519114 
L 125.055431 71.957076 
L 125.268057 77.062781 
L 125.303495 76.740873 
L 125.39012 73.099464 
L 125.649997 59.623998 
L 125.697247 59.993426 
L 125.854748 63.794768 
L 126.303625 76.590778 
L 126.362688 75.778917 
L 126.476876 69.109098 
L 126.685564 59.230024 
L 126.709189 59.317781 
L 126.799752 60.86748 
L 127.181691 72.795707 
L 127.34313 76.132693 
L 127.382505 75.754411 
L 127.473068 71.776017 
L 127.725069 58.829317 
L 127.768382 59.138107 
L 127.91407 62.549639 
L 128.378697 75.649006 
L 128.43776 74.84215 
L 128.551948 68.280264 
L 128.760636 58.381934 
L 128.784262 58.466534 
L 128.874825 60.023907 
L 129.288264 72.829107 
L 129.414265 75.085887 
L 129.461515 74.617261 
L 129.559953 69.969333 
L 129.800141 57.828354 
L 129.835579 58.033792 
L 129.96158 60.756478 
L 130.45377 74.355955 
L 130.51677 73.436687 
L 130.638833 66.213395 
L 130.839646 57.051006 
L 130.863272 57.143463 
L 130.957772 58.822793 
L 131.489337 73.266208 
L 131.575962 71.663847 
L 131.745276 60.245876 
L 131.883089 55.740252 
L 131.918527 55.924118 
L 132.036652 58.372537 
L 132.532779 71.269692 
L 132.591842 70.633454 
L 132.698155 65.510676 
L 132.954094 52.661918 
L 132.985594 52.807143 
L 133.099782 54.877435 
L 133.682535 67.378291 
L 133.725848 67.21065 
L 133.820348 65.463308 
L 134.009349 56.689179 
L 134.143225 52.011178 
L 134.190475 52.816655 
L 134.32435 61.381109 
L 134.615727 75.152855 
L 135.111854 87.474345 
L 135.166979 86.654 
L 135.273293 79.828537 
L 135.533169 65.072484 
L 135.541044 65.080233 
L 135.592232 65.497264 
L 135.765482 69.332461 
L 136.198609 81.633338 
L 136.269485 80.215121 
L 136.41911 69.212627 
L 136.588424 62.603466 
L 136.612049 62.685645 
L 136.706549 64.202276 
L 137.037301 74.262057 
L 137.249927 79.584412 
L 137.289302 79.18248 
L 137.379865 74.907074 
L 137.635804 61.425528 
L 137.671241 61.632264 
L 137.797242 64.224997 
L 138.293369 78.488872 
L 138.37212 76.886702 
L 138.557183 63.902806 
L 138.675309 60.697475 
L 138.718621 60.970241 
L 138.860372 64.135627 
L 139.332874 77.758048 
L 139.40375 76.552651 
L 139.541563 67.291009 
L 139.714814 60.167015 
L 139.738439 60.245862 
L 139.829002 61.752894 
L 140.187316 72.90534 
L 140.372379 77.195426 
L 140.411754 76.855941 
L 140.49838 73.161518 
L 140.754319 59.729895 
L 140.801569 60.057098 
L 140.951195 63.571168 
L 141.411884 76.711634 
L 141.474885 75.756567 
L 141.596948 68.214656 
L 141.793824 59.332402 
L 141.817449 59.425417 
L 141.911949 61.079994 
L 142.321451 73.902087 
L 142.447452 76.253334 
L 142.494702 75.782511 
L 142.59314 71.02358 
L 142.833329 58.937468 
L 142.864829 59.115535 
L 142.982954 61.556379 
L 143.486957 75.781046 
L 143.561769 74.432484 
L 143.711395 64.367538 
L 143.868896 58.506302 
L 143.896459 58.627768 
L 143.998834 60.556864 
L 144.522524 75.245165 
L 144.609149 73.498196 
L 144.908401 57.988771 
L 145.026526 59.785257 
L 145.562029 74.570929 
L 145.648654 72.753864 
L 145.947906 57.288148 
L 146.066031 59.096166 
L 146.597596 73.606538 
L 146.684222 71.941771 
L 146.865348 59.726539 
L 146.991348 56.171152 
L 147.030723 56.440734 
L 147.168537 59.575779 
L 147.641039 71.944578 
L 147.688289 71.472719 
L 147.786727 67.149754 
L 148.046603 53.82905 
L 148.089916 54.098774 
L 148.235604 57.285717 
L 148.712044 68.281226 
L 148.743544 68.130412 
L 148.822295 66.28527 
L 148.98767 55.565281 
L 149.247547 43.797988 
L 149.271172 43.72865 
L 149.318422 43.999102 
L 149.41686 46.527513 
L 149.570423 57.645958 
L 149.944487 84.069288 
L 150.239801 91.006398 
L 150.263426 90.867906 
L 150.334302 88.603119 
L 150.523303 71.901688 
L 150.688678 66.215365 
L 150.704428 66.254307 
L 150.783179 67.182872 
L 151.031243 73.513167 
L 151.354119 82.525554 
L 151.405307 81.834591 
L 151.51162 75.491262 
L 151.747871 63.0546 
L 151.767559 63.103463 
L 151.846309 64.182889 
L 152.121935 72.023966 
L 152.409374 79.979813 
L 152.452687 79.527181 
L 152.547187 74.816461 
L 152.795251 61.669922 
L 152.826751 61.810152 
L 152.937002 63.867714 
L 153.456754 78.724202 
L 153.547317 76.521422 
L 153.838693 60.860436 
L 153.937131 62.093543 
L 154.236383 71.023525 
L 154.496259 77.925829 
L 154.535634 77.57834 
L 154.62226 73.815931 
L 154.878198 60.292268 
L 154.925449 60.610334 
L 155.075074 64.084035 
L 155.535764 77.330664 
L 155.602702 76.273367 
L 155.73264 67.879918 
L 155.917703 59.837359 
L 155.941328 59.919386 
L 156.031891 61.442307 
L 156.398081 72.865639 
L 156.575269 76.832448 
L 156.614644 76.47945 
L 156.705207 72.513959 
L 156.957208 59.433525 
L 157.000521 59.723477 
L 157.142272 62.974695 
L 157.614774 76.371606 
L 157.677774 75.380176 
L 157.803775 67.507153 
L 157.996713 59.041263 
L 158.016401 59.114916 
L 158.103026 60.542226 
L 158.46134 71.640239 
L 158.650341 75.907215 
L 158.689717 75.561227 
L 158.780279 71.683805 
L 159.032281 58.623548 
L 159.079531 58.959954 
L 159.233094 62.643204 
L 159.685909 75.392828 
L 159.744972 74.634892 
L 159.85916 68.186216 
L 160.071786 58.134927 
L 160.095411 58.234188 
L 160.189911 59.923478 
L 160.725414 74.764928 
L 160.812039 72.959967 
L 161.111291 57.495772 
L 161.229416 59.307896 
L 161.760981 73.898701 
L 161.847607 72.225098 
L 162.03267 59.763911 
L 162.150795 56.524609 
L 162.194108 56.81559 
L 162.339796 60.214891 
L 162.800486 72.486706 
L 162.851674 71.976672 
L 162.950112 67.503358 
L 163.202113 54.663144 
L 163.241488 54.896723 
L 163.375364 57.792535 
L 163.855741 69.545837 
L 163.899054 69.228949 
L 163.989617 66.125301 
L 164.336118 48.616054 
L 164.406994 49.099936 
L 164.615682 52.904582 
L 164.808621 60.171962 
L 165.363811 93.249485 
L 165.450436 91.266313 
L 165.603999 77.833608 
L 165.820563 67.291128 
L 165.828438 67.286653 
L 165.856001 67.388149 
L 165.962314 68.912501 
L 166.261565 77.102773 
L 166.501754 83.381257 
L 166.545066 82.888735 
L 166.639567 77.899276 
L 166.899443 63.457474 
L 166.927006 63.556137 
L 167.025444 65.1587 
L 167.360133 75.312171 
L 167.560946 80.323636 
L 167.600321 79.956743 
L 167.690884 75.727073 
L 167.950761 61.875592 
L 167.986198 62.078651 
L 168.112199 64.638662 
L 168.608326 78.91914 
L 168.691014 77.154812 
L 168.994203 60.992733 
L 169.112329 62.715904 
L 169.478518 74.169157 
L 169.651769 78.059752 
L 169.691144 77.674096 
L 169.781707 73.538188 
L 170.033708 60.390409 
L 170.073083 60.633218 
L 170.206959 63.551859 
L 170.691274 77.436237 
L 170.762149 76.178662 
L 170.9039 66.593167 
L 171.073213 59.919633 
L 171.096838 60.013227 
L 171.191339 61.654054 
L 171.581153 73.894983 
L 171.730779 76.924179 
L 171.770154 76.543493 
L 171.860717 72.500104 
L 172.112718 59.509916 
L 172.152093 59.768422 
L 172.289906 62.86165 
L 172.766346 76.460115 
L 172.833284 75.423626 
L 172.963222 67.162721 
L 173.148285 59.118035 
L 173.17191 59.201125 
L 173.262473 60.742925 
L 173.644413 72.659957 
L 173.805851 75.999236 
L 173.845226 75.630085 
L 173.935789 71.68542 
L 174.18779 58.708108 
L 174.231103 59.009977 
L 174.376791 62.416164 
L 174.841418 75.499083 
L 174.900481 74.70557 
L 175.014669 68.182835 
L 175.223358 58.238541 
L 175.25092 58.348567 
L 175.349358 60.159174 
L 175.876986 74.899743 
L 175.963611 73.204511 
L 176.262863 57.637169 
L 176.388863 59.590053 
L 176.916491 74.094947 
L 176.999179 72.514112 
L 177.168492 61.05955 
L 177.306305 56.75503 
L 177.341743 56.980217 
L 177.471681 59.842991 
L 177.955996 72.830878 
L 178.011121 72.174023 
L 178.117434 66.797768 
L 178.353685 55.155175 
L 178.381248 55.288318 
L 178.487561 57.315901 
L 179.003376 70.334735 
L 179.070314 69.497697 
L 179.188439 63.299842 
L 179.448315 50.721907 
L 179.464065 50.760101 
L 179.542816 51.689302 
L 179.893255 59.71735 
L 180.141319 69.659344 
L 180.499633 88.509061 
L 180.558696 87.277632 
L 180.708321 76.194593 
L 180.91701 68.214802 
L 180.952448 68.344102 
L 181.070573 70.03119 
L 181.3777 78.214329 
L 181.613951 84.246096 
L 181.653326 83.810247 
L 181.743889 79.233243 
L 182.015578 63.838362 
L 182.047078 63.97518 
L 182.157328 65.9038 
L 182.523518 77.261355 
L 182.677081 80.641921 
L 182.720393 80.174621 
L 182.814894 75.387601 
L 183.066895 62.060057 
L 183.094458 62.185228 
L 183.200771 64.09692 
L 183.59846 76.633428 
L 183.724461 79.091139 
L 183.771711 78.560539 
L 183.870149 73.437262 
L 184.110338 61.106998 
L 184.1379 61.2327 
L 184.244213 63.189666 
L 184.767903 78.175024 
L 184.858466 76.061024 
L 185.149843 60.474193 
L 185.252218 61.796393 
L 185.56722 71.337104 
L 185.807408 77.524787 
L 185.846783 77.177963 
L 185.933409 73.443272 
L 186.189347 59.988612 
L 186.236598 60.315323 
L 186.386223 63.815842 
L 186.846913 77.000665 
L 186.909913 76.049363 
L 187.031976 68.480744 
L 187.228852 59.572122 
L 187.252478 59.662455 
L 187.346978 61.305242 
L 187.744667 73.779708 
L 187.886418 76.531828 
L 187.929731 76.073104 
L 188.024231 71.600319 
L 188.268357 59.179966 
L 188.303795 59.393934 
L 188.429796 62.101221 
L 188.921985 76.073509 
L 188.992861 74.894507 
L 189.130674 65.874759 
L 189.303925 58.775552 
L 189.331487 58.891638 
L 189.433863 60.805258 
L 189.957553 75.581905 
L 190.044178 73.865392 
L 190.34343 58.318395 
L 190.465493 60.200751 
L 190.997058 75.004376 
L 191.083683 73.205245 
L 191.382935 57.745457 
L 191.50106 59.564514 
L 192.032625 74.242809 
L 192.119251 72.555517 
L 192.316127 59.437176 
L 192.42244 56.92374 
L 192.46969 57.290462 
L 192.627191 61.136231 
L 193.07213 73.080712 
L 193.11938 72.618484 
L 193.217818 68.186531 
L 193.465882 55.495453 
L 193.509195 55.768464 
L 193.650945 58.991192 
L 194.115573 70.879938 
L 194.162823 70.498076 
L 194.257323 66.785814 
L 194.544762 51.908073 
L 194.599888 52.293761 
L 194.784951 56.272624 
L 195.568517 73.003525 
L 195.588205 73.029931 
L 195.623642 72.858385 
L 195.726018 70.828928 
L 195.895331 68.104988 
L 195.930769 68.218076 
L 196.048894 69.654043 
L 196.375708 76.883029 
L 196.702523 85.496649 
L 196.757648 84.647371 
L 196.867898 77.473537 
L 197.112024 64.34798 
L 197.1199 64.357876 
L 197.175025 64.853969 
L 197.360088 69.195475 
L 197.773528 81.057714 
L 197.840465 79.877252 
L 197.974341 70.522196 
L 198.163342 62.293386 
L 198.179092 62.331536 
L 198.253905 63.323335 
L 198.517719 70.797071 
L 198.824845 79.305044 
L 198.868158 78.808258 
L 198.966596 73.743586 
L 199.206784 61.247276 
L 199.238285 61.389371 
L 199.348535 63.470817 
L 199.868288 78.313585 
L 199.954913 76.298543 
L 200.250227 60.573987 
L 200.35654 62.017153 
L 200.687292 72.154352 
L 200.907793 77.629859 
L 200.947168 77.25449 
L 201.037731 73.174398 
L 201.289732 60.069084 
L 201.329107 60.314676 
L 201.462983 63.253149 
L 201.947298 77.089132 
L 202.018173 75.820874 
L 202.159924 66.268902 
L 202.329237 59.644341 
L 202.352862 59.743755 
L 202.447362 61.404999 
L 202.852927 74.132805 
L 202.982865 76.614131 
L 203.030115 76.130495 
L 203.128553 71.311511 
L 203.364804 59.250699 
L 203.400242 59.434257 
L 203.518367 61.875139 
L 204.02237 76.15714 
L 204.097183 74.793288 
L 204.246808 64.668868 
L 204.404309 58.850663 
L 204.431872 58.976353 
L 204.534247 60.907082 
L 205.057937 75.675324 
L 205.144563 73.912218 
L 205.443814 58.407361 
L 205.56194 60.217637 
L 206.097442 75.117797 
L 206.184068 73.270731 
L 206.479382 57.861231 
L 206.59357 59.517446 
L 207.13301 74.400519 
L 207.223573 72.488572 
L 207.518887 57.100424 
L 207.633075 58.75519 
L 208.172515 73.337183 
L 208.25914 71.60731 
L 208.452078 58.697235 
L 208.566267 55.832318 
L 208.609579 56.152286 
L 208.759205 59.6767 
L 209.21202 71.415029 
L 209.25927 71.025008 
L 209.35377 67.219198 
L 209.629397 52.927579 
L 209.684522 53.328871 
L 209.865648 57.465041 
L 210.334212 67.367667 
L 210.346025 67.351003 
L 210.40115 66.840254 
L 210.519276 63.013749 
L 210.83034 46.542116 
L 210.913028 49.018067 
L 211.586343 83.633959 
L 211.795032 88.291331 
L 211.838345 87.808849 
L 211.928908 83.091534 
L 212.224221 65.348855 
L 212.255722 65.491563 
L 212.36991 67.419988 
L 212.716411 77.901343 
L 212.885725 81.850505 
L 212.929037 81.389511 
L 213.023538 76.547741 
L 213.279476 62.715991 
L 213.307039 62.830386 
L 213.409415 64.59286 
L 213.771666 75.858861 
L 213.94098 79.684013 
L 213.980355 79.274003 
L 214.070918 74.972196 
L 214.326856 61.488179 
L 214.362294 61.695632 
L 214.488295 64.285895 
L 214.984422 78.549637 
L 215.063172 76.943838 
L 215.248236 63.94705 
L 215.366361 60.739925 
L 215.409674 61.011605 
L 215.551425 64.173054 
L 216.023927 77.801823 
L 216.094802 76.599721 
L 216.232616 67.336105 
L 216.405866 60.200092 
L 216.429491 60.277649 
L 216.520054 61.780914 
L 216.874431 72.798249 
L 217.063432 77.231072 
L 217.102807 76.895352 
L 217.189433 73.207962 
L 217.445371 59.75853 
L 217.496559 60.136032 
L 217.657997 64.056615 
L 218.102937 76.743852 
L 218.162 75.917193 
L 218.276188 69.206254 
L 218.484876 59.359503 
L 218.508501 59.450472 
L 218.603002 61.099849 
L 219.012504 73.922488 
L 219.142442 76.28514 
L 219.185755 75.820663 
L 219.280255 71.354214 
L 219.524381 58.965412 
L 219.559819 59.182653 
L 219.685819 61.90161 
L 220.178009 75.815296 
L 220.248885 74.621975 
L 220.386698 65.615683 
L 220.559949 58.538307 
L 220.587511 58.657236 
L 220.689887 60.580854 
L 221.213577 75.28553 
L 221.300202 73.551437 
L 221.599454 58.028987 
L 221.721517 59.917661 
L 222.253082 74.624765 
L 222.339707 72.818425 
L 222.638959 57.346078 
L 222.757084 59.151252 
L 223.288649 73.68867 
L 223.375275 72.028072 
L 223.5564 59.811736 
L 223.678463 56.27227 
L 223.721776 56.54588 
L 223.863527 59.80246 
L 224.328154 72.100624 
L 224.379342 71.62044 
L 224.47778 67.259395 
L 224.737656 54.077494 
L 224.777031 54.331202 
L 224.914844 57.311404 
L 225.395222 68.639061 
L 225.434597 68.403065 
L 225.521222 65.899599 
L 225.938599 45.249532 
L 226.04885 46.243647 
L 226.182725 50.636784 
L 226.375664 66.566904 
L 226.68279 86.234788 
L 226.926916 91.828122 
L 226.954479 91.643278 
L 227.029292 89.01314 
L 227.379731 66.485195 
L 227.489982 67.677761 
L 227.76167 74.868325 
L 228.049109 82.736811 
L 228.09636 82.146994 
L 228.194797 76.654047 
L 228.446799 63.156549 
L 228.466486 63.223563 
L 228.553112 64.50881 
L 228.852363 73.278405 
L 229.104364 80.067323 
L 229.147677 79.633293 
L 229.242177 74.960709 
L 229.494179 61.723219 
L 229.525679 61.889171 
L 229.643804 64.191132 
L 230.151744 78.775152 
L 230.23837 76.819655 
L 230.533684 60.895501 
L 230.643934 62.360845 
L 230.974686 72.492813 
L 231.195187 77.960685 
L 231.230624 77.637489 
L 231.31725 73.935052 
L 231.577126 60.318105 
L 231.624376 60.670547 
L 231.781877 64.414194 
L 232.234692 77.358494 
L 232.293755 76.472891 
L 232.41188 69.283716 
L 232.616631 59.85933 
L 232.636319 59.931654 
L 232.722944 61.338463 
L 233.065508 71.915216 
L 233.270259 76.856498 
L 233.309634 76.530194 
L 233.39626 72.891961 
L 233.652198 59.454429 
L 233.703386 59.829656 
L 233.864824 63.762653 
L 234.309764 76.395845 
L 234.368827 75.57007 
L 234.483015 68.897053 
L 234.691703 59.06168 
L 234.715329 59.15349 
L 234.809829 60.811308 
L 235.239019 74.17225 
L 235.345332 75.931705 
L 235.392582 75.45841 
L 235.49102 70.722536 
L 235.731208 58.646845 
L 235.762709 58.824746 
L 235.880834 61.272333 
L 236.384836 75.421811 
L 236.455712 74.213378 
L 236.593525 65.234454 
L 236.766776 58.163146 
L 236.794338 58.282998 
L 236.896714 60.214102 
L 237.420404 74.802284 
L 237.503092 73.222721 
L 237.676343 61.461461 
L 237.806281 57.534539 
L 237.845656 57.785188 
L 237.979532 60.799521 
L 238.459909 73.952521 
L 238.518972 73.143409 
L 238.63316 66.76137 
L 238.845786 56.589499 
L 238.873348 56.700941 
L 238.971786 58.518252 
L 239.499414 72.58321 
L 239.578164 71.200497 
L 239.723852 61.721588 
L 239.897103 54.804732 
L 239.924666 54.920281 
L 240.027041 56.800036 
L 240.550731 69.771598 
L 240.617669 68.953523 
L 240.735795 62.924321 
L 241.015359 49.279499 
L 241.031109 49.304243 
L 241.101984 49.968369 
L 241.357923 55.144186 
L 241.558736 63.373538 
L 242.050926 92.973673 
L 242.121801 91.605882 
L 242.251739 81.338526 
L 242.495866 67.549449 
L 242.511616 67.527609 
L 242.550991 67.723687 
L 242.684866 69.9635 
L 243.031368 80.144639 
L 243.188869 83.584607 
L 243.228244 83.147387 
L 243.318807 78.58756 
L 243.586558 63.549462 
L 243.621996 63.718078 
L 243.740122 65.911696 
L 244.248061 80.401331 
L 244.338624 78.209263 
L 244.637876 61.921199 
L 244.736314 63.162732 
L 245.031628 71.871498 
L 245.295441 78.961804 
L 245.334817 78.589166 
L 245.42538 74.426933 
L 245.681318 61.021356 
L 245.720693 61.276499 
L 245.858507 64.287957 
L 246.338884 78.088528 
L 246.409759 76.790126 
L 246.555447 66.768777 
L 246.720823 60.411433 
L 246.744448 60.503847 
L 246.838949 62.127349 
L 247.213013 73.85441 
L 247.378389 77.458584 
L 247.417764 77.088183 
L 247.508327 73.032823 
L 247.760328 59.93703 
L 247.803641 60.230312 
L 247.949329 63.576883 
L 248.417894 76.943515 
L 248.480894 75.949199 
L 248.606895 68.006405 
L 248.799833 59.525774 
L 248.819521 59.597852 
L 248.906146 61.011554 
L 249.256585 71.855698 
L 249.453461 76.478392 
L 249.492836 76.146633 
L 249.579462 72.521008 
L 249.835401 59.133912 
L 249.886588 59.515856 
L 250.048027 63.469776 
L 250.492966 76.018247 
L 250.548091 75.286589 
L 250.658342 69.126532 
L 250.874905 58.725383 
L 250.898531 58.821635 
L 250.993031 60.495765 
L 251.528534 75.520585 
L 251.619097 73.563806 
L 251.910473 58.259367 
L 252.020723 59.791333 
L 252.402663 71.596333 
L 252.564101 74.926728 
L 252.607414 74.548623 
L 252.697977 70.667199 
L 252.949978 57.665274 
L 252.997228 58.004625 
L 253.150791 61.706778 
L 253.603606 74.133624 
L 253.654794 73.552818 
L 253.757169 68.471548 
L 253.99342 56.799665 
L 254.02492 56.983118 
L 254.143046 59.453421 
L 254.643111 72.896891 
L 254.706111 72.027686 
L 254.824237 65.365375 
L 255.0408 55.246758 
L 255.064425 55.352131 
L 255.162863 57.129944 
L 255.690491 70.481173 
L 255.761366 69.501875 
L 255.883429 62.726721 
L 256.127556 51.058434 
L 256.143306 51.087972 
L 256.214181 51.880027 
L 256.537057 59.192348 
L 256.840246 69.625281 
L 257.186748 85.789251 
L 257.249748 84.42844 
L 257.588375 68.406118 
L 257.702563 69.51338 
L 257.966377 75.686288 
L 258.289253 84.483694 
L 258.344379 83.725149 
L 258.450692 77.126933 
L 258.694818 63.938757 
L 258.710568 63.970489 
L 258.781443 64.81961 
L 259.021632 71.20888 
L 259.356321 80.724326 
L 259.407509 80.080046 
L 259.509884 74.285965 
L 259.746135 62.106931 
L 259.76976 62.193882 
L 259.864261 63.742514 
L 260.202887 74.141486 
L 260.403701 79.134019 
L 260.443076 78.794482 
L 260.529701 74.977772 
L 260.789578 61.135609 
L 260.836828 61.461464 
L 260.986454 64.891571 
L 261.447143 78.203288 
L 261.514081 77.126488 
L 261.644019 68.59999 
L 261.83302 60.495241 
L 261.852708 60.56989 
L 261.939333 61.966382 
L 262.274022 72.255754 
L 262.490586 77.545995 
L 262.526023 77.222661 
L 262.612649 73.545962 
L 262.872525 60.005674 
L 262.919775 60.36793 
L 263.077276 64.141214 
L 263.526153 77.018732 
L 263.589154 76.108348 
L 263.711217 68.600284 
L 263.908093 59.587651 
L 263.931718 59.668102 
L 264.022281 61.19379 
L 264.392407 72.742885 
L 264.565658 76.549531 
L 264.605033 76.195879 
L 264.695596 72.249643 
L 264.947598 59.194613 
L 264.99091 59.486657 
L 265.132661 62.749789 
L 265.601226 76.090589 
L 265.668163 75.090439 
L 265.794164 67.236616 
L 265.987102 58.791761 
L 266.00679 58.867178 
L 266.093415 60.303259 
L 266.459605 71.648919 
L 266.640731 75.602297 
L 266.680106 75.246108 
L 266.770669 71.36594 
L 267.02267 58.337346 
L 267.06992 58.67751 
L 267.223483 62.37205 
L 267.676298 75.028889 
L 267.731423 74.362782 
L 267.837736 68.728123 
L 268.062175 57.770022 
L 268.089737 57.90102 
L 268.19605 59.960436 
L 268.715803 74.276407 
L 268.790616 72.948034 
L 268.936304 63.359932 
L 269.10168 56.962142 
L 269.129242 57.088323 
L 269.231618 59.037202 
L 269.75137 73.137038 
L 269.830121 71.827317 
L 269.971871 62.674766 
L 270.14906 55.570418 
L 270.172685 55.674604 
L 270.271123 57.458894 
L 270.72 70.191512 
L 270.72 70.191512 
" clip-path="url(#p6de232b321)" style="fill: none; stroke: #808080; stroke-width: 1.5; stroke-linecap: square"/>
   </g>
   <g id="patch_3">
    <path d="M 73.848 161.7 
L 73.848 17.28 
" style="fill: none; stroke: #000000; stroke-width: 0.8; stroke-linejoin: miter; stroke-linecap: square"/>
   </g>
   <g id="patch_4">
    <path d="M 270.72 161.7 
L 270.72 17.28 
" style="fill: none; stroke: #000000; stroke-width: 0.8; stroke-linejoin: miter; stroke-linecap: square"/>
   </g>
   <g id="patch_5">
    <path d="M 73.848 161.7 
L 270.72 161.7 
" style="fill: none; stroke: #000000; stroke-width: 0.8; stroke-linejoin: miter; stroke-linecap: square"/>
   </g>
   <g id="patch_6">
    <path d="M 73.848 17.28 
L 270.72 17.28 
" style="fill: none; stroke: #000000; stroke-width: 0.8; stroke-linejoin: miter; stroke-linecap: square"/>
   </g>
  </g>
 </g>
 <defs>
  <clipPath id="p6de232b321">
   <rect x="73.848" y="17.28" width="196.872" height="144.42"/>
  </clipPath>
 </defs>
</svg>
