<?xml version="1.0" encoding="utf-8" standalone="no"?>
<!DOCTYPE svg PUBLIC "-//W3C//DTD SVG 1.1//EN"
  "http://www.w3.org/Graphics/SVG/1.1/DTD/svg11.dtd">
<svg xmlns:xlink="http://www.w3.org/1999/xlink" width="288pt" height="216pt" viewBox="0 0 288 216" xmlns="http://www.w3.org/2000/svg" version="1.1">
 <metadata>
  <rdf:RDF xmlns:dc="http://purl.org/dc/elements/1.1/" xmlns:cc="http://creativecommons.org/ns#" xmlns:rdf="http://www.w3.org/1999/02/22-rdf-syntax-ns#">
   <cc:Work>
    <dc:type rdf:resource="http://purl.org/dc/dcmitype/StillImage"/>
    <dc:date>2024-02-23T13:30:01.311057</dc:date>
    <dc:format>image/svg+xml</dc:format>
    <dc:creator>
     <cc:Agent>
      <dc:title>Matplotlib v3.7.2, https://matplotlib.org/</dc:title>
     </cc:Agent>
    </dc:creator>
   </cc:Work>
  </rdf:RDF>
 </metadata>
 <defs>
  <style type="text/css">*{stroke-linejoin: round; stroke-linecap: butt}</style>
 </defs>
 <g id="figure_1">
  <g id="patch_1">
   <path d="M 0 216 
L 288 216 
L 288 0 
L 0 0 
L 0 216 
z
" style="fill: none"/>
  </g>
  <g id="axes_1">
   <g id="patch_2">
    <path d="M 74.01 155.94 
L 253.53 155.94 
L 253.53 19.44 
L 74.01 19.44 
L 74.01 155.94 
z
" style="fill: none"/>
   </g>
   <g id="matplotlib.axis_1">
    <g id="xtick_1">
     <g id="line2d_1">
      <defs>
       <path id="maff7b3b5b4" d="M 0 0 
L 0 -3.5 
" style="stroke: #000000; stroke-width: 0.8"/>
      </defs>
      <g>
       <use xlink:href="#maff7b3b5b4" x="74.01" y="155.94" style="stroke: #000000; stroke-width: 0.8"/>
      </g>
     </g>
     <g id="text_1">
      <!-- 0 -->
      <g transform="translate(69.005156 172.324062) scale(0.18 -0.18)">
       <defs>
        <path id="ArialMT-30" d="M 266 2259 
Q 266 3072 433 3567 
Q 600 4063 929 4331 
Q 1259 4600 1759 4600 
Q 2128 4600 2406 4451 
Q 2684 4303 2865 4023 
Q 3047 3744 3150 3342 
Q 3253 2941 3253 2259 
Q 3253 1453 3087 958 
Q 2922 463 2592 192 
Q 2263 -78 1759 -78 
Q 1097 -78 719 397 
Q 266 969 266 2259 
z
M 844 2259 
Q 844 1131 1108 757 
Q 1372 384 1759 384 
Q 2147 384 2411 759 
Q 2675 1134 2675 2259 
Q 2675 3391 2411 3762 
Q 2147 4134 1753 4134 
Q 1366 4134 1134 3806 
Q 844 3388 844 2259 
z
" transform="scale(0.015625)"/>
       </defs>
       <use xlink:href="#ArialMT-30"/>
      </g>
     </g>
    </g>
    <g id="xtick_2">
     <g id="line2d_2">
      <g>
       <use xlink:href="#maff7b3b5b4" x="163.77" y="155.94" style="stroke: #000000; stroke-width: 0.8"/>
      </g>
     </g>
     <g id="text_2">
      <!-- 100 -->
      <g transform="translate(148.755469 172.324062) scale(0.18 -0.18)">
       <defs>
        <path id="ArialMT-31" d="M 2384 0 
L 1822 0 
L 1822 3584 
Q 1619 3391 1289 3197 
Q 959 3003 697 2906 
L 697 3450 
Q 1169 3672 1522 3987 
Q 1875 4303 2022 4600 
L 2384 4600 
L 2384 0 
z
" transform="scale(0.015625)"/>
       </defs>
       <use xlink:href="#ArialMT-31"/>
       <use xlink:href="#ArialMT-30" x="55.615234"/>
       <use xlink:href="#ArialMT-30" x="111.230469"/>
      </g>
     </g>
    </g>
    <g id="xtick_3">
     <g id="line2d_3">
      <g>
       <use xlink:href="#maff7b3b5b4" x="253.53" y="155.94" style="stroke: #000000; stroke-width: 0.8"/>
      </g>
     </g>
     <g id="text_3">
      <!-- 200 -->
      <g transform="translate(238.515469 172.324062) scale(0.18 -0.18)">
       <defs>
        <path id="ArialMT-32" d="M 3222 541 
L 3222 0 
L 194 0 
Q 188 203 259 391 
Q 375 700 629 1000 
Q 884 1300 1366 1694 
Q 2113 2306 2375 2664 
Q 2638 3022 2638 3341 
Q 2638 3675 2398 3904 
Q 2159 4134 1775 4134 
Q 1369 4134 1125 3890 
Q 881 3647 878 3216 
L 300 3275 
Q 359 3922 746 4261 
Q 1134 4600 1788 4600 
Q 2447 4600 2831 4234 
Q 3216 3869 3216 3328 
Q 3216 3053 3103 2787 
Q 2991 2522 2730 2228 
Q 2469 1934 1863 1422 
Q 1356 997 1212 845 
Q 1069 694 975 541 
L 3222 541 
z
" transform="scale(0.015625)"/>
       </defs>
       <use xlink:href="#ArialMT-32"/>
       <use xlink:href="#ArialMT-30" x="55.615234"/>
       <use xlink:href="#ArialMT-30" x="111.230469"/>
      </g>
     </g>
    </g>
    <g id="text_4">
     <!-- $t$ -->
     <g transform="translate(160.17 192.785625) scale(0.18 -0.18)">
      <defs>
       <path id="DejaVuSans-Oblique-74" d="M 2706 3500 
L 2619 3053 
L 1472 3053 
L 1100 1153 
Q 1081 1047 1072 975 
Q 1063 903 1063 863 
Q 1063 663 1183 572 
Q 1303 481 1569 481 
L 2150 481 
L 2053 0 
L 1503 0 
Q 991 0 739 200 
Q 488 400 488 806 
Q 488 878 497 964 
Q 506 1050 525 1153 
L 897 3053 
L 409 3053 
L 500 3500 
L 978 3500 
L 1172 4494 
L 1747 4494 
L 1556 3500 
L 2706 3500 
z
" transform="scale(0.015625)"/>
      </defs>
      <use xlink:href="#DejaVuSans-Oblique-74" transform="translate(0 0.78125)"/>
     </g>
    </g>
   </g>
   <g id="matplotlib.axis_2">
    <g id="ytick_1">
     <g id="line2d_4">
      <defs>
       <path id="mf5dd4334c9" d="M 0 0 
L 3.5 0 
" style="stroke: #000000; stroke-width: 0.8"/>
      </defs>
      <g>
       <use xlink:href="#mf5dd4334c9" x="74.01" y="132.151444" style="stroke: #000000; stroke-width: 0.8"/>
      </g>
     </g>
     <g id="text_5">
      <!-- −50 -->
      <g transform="translate(39.9775 138.593476) scale(0.18 -0.18)">
       <defs>
        <path id="ArialMT-2212" d="M 3381 1997 
L 356 1997 
L 356 2522 
L 3381 2522 
L 3381 1997 
z
" transform="scale(0.015625)"/>
        <path id="ArialMT-35" d="M 266 1200 
L 856 1250 
Q 922 819 1161 601 
Q 1400 384 1738 384 
Q 2144 384 2425 690 
Q 2706 997 2706 1503 
Q 2706 1984 2436 2262 
Q 2166 2541 1728 2541 
Q 1456 2541 1237 2417 
Q 1019 2294 894 2097 
L 366 2166 
L 809 4519 
L 3088 4519 
L 3088 3981 
L 1259 3981 
L 1013 2750 
Q 1425 3038 1878 3038 
Q 2478 3038 2890 2622 
Q 3303 2206 3303 1553 
Q 3303 931 2941 478 
Q 2500 -78 1738 -78 
Q 1113 -78 717 272 
Q 322 622 266 1200 
z
" transform="scale(0.015625)"/>
       </defs>
       <use xlink:href="#ArialMT-2212"/>
       <use xlink:href="#ArialMT-35" x="58.398438"/>
       <use xlink:href="#ArialMT-30" x="114.013672"/>
      </g>
     </g>
    </g>
    <g id="ytick_2">
     <g id="line2d_5">
      <g>
       <use xlink:href="#mf5dd4334c9" x="74.01" y="87.69" style="stroke: #000000; stroke-width: 0.8"/>
      </g>
     </g>
     <g id="text_6">
      <!-- 0 -->
      <g transform="translate(60.500313 94.132031) scale(0.18 -0.18)">
       <use xlink:href="#ArialMT-30"/>
      </g>
     </g>
    </g>
    <g id="ytick_3">
     <g id="line2d_6">
      <g>
       <use xlink:href="#mf5dd4334c9" x="74.01" y="43.228556" style="stroke: #000000; stroke-width: 0.8"/>
      </g>
     </g>
     <g id="text_7">
      <!-- 50 -->
      <g transform="translate(50.490625 49.670587) scale(0.18 -0.18)">
       <use xlink:href="#ArialMT-35"/>
       <use xlink:href="#ArialMT-30" x="55.615234"/>
      </g>
     </g>
    </g>
    <g id="text_8">
     <!-- $r_i$ -->
     <g transform="translate(32.4 93.45) rotate(-90) scale(0.18 -0.18)">
      <defs>
       <path id="DejaVuSans-Oblique-72" d="M 2853 2969 
Q 2766 3016 2653 3041 
Q 2541 3066 2413 3066 
Q 1953 3066 1609 2717 
Q 1266 2369 1153 1784 
L 800 0 
L 225 0 
L 909 3500 
L 1484 3500 
L 1375 2956 
Q 1603 3259 1920 3421 
Q 2238 3584 2597 3584 
Q 2691 3584 2781 3573 
Q 2872 3563 2963 3538 
L 2853 2969 
z
" transform="scale(0.015625)"/>
       <path id="DejaVuSans-Oblique-69" d="M 1172 4863 
L 1747 4863 
L 1606 4134 
L 1031 4134 
L 1172 4863 
z
M 909 3500 
L 1484 3500 
L 800 0 
L 225 0 
L 909 3500 
z
" transform="scale(0.015625)"/>
      </defs>
      <use xlink:href="#DejaVuSans-Oblique-72"/>
      <use xlink:href="#DejaVuSans-Oblique-69" transform="translate(41.113281 -16.40625) scale(0.7)"/>
     </g>
    </g>
   </g>
   <g id="line2d_7">
    <path d="M 74.01 87.471424 
L 74.333152 85.408927 
L 74.674257 81.089801 
L 74.746069 81.786346 
L 74.84481 86.543766 
L 75.024339 109.509509 
L 75.37442 147.801494 
L 75.464185 149.626803 
L 75.518043 149.055874 
L 75.634737 143.690631 
L 75.850172 121.001533 
L 76.649076 25.766177 
L 76.676005 25.646206 
L 76.711911 25.958063 
L 76.810652 29.55706 
L 76.999157 46.583478 
L 77.474909 118.057813 
L 77.798061 148.239395 
L 77.878849 149.732214 
L 77.932708 149.214615 
L 78.040426 144.607281 
L 78.246884 124.000083 
L 79.09067 25.645157 
L 79.099646 25.655594 
L 79.153505 26.424775 
L 79.279175 32.804252 
L 79.512563 59.066936 
L 80.248632 149.140916 
L 80.302491 149.735399 
L 80.356349 149.1178 
L 80.473043 143.711589 
L 80.688478 121.012995 
L 81.487382 25.766961 
L 81.514311 25.646115 
L 81.550217 25.956807 
L 81.648958 29.552687 
L 81.837463 46.574104 
L 82.313215 118.046899 
L 82.636367 148.236662 
L 82.717155 149.732085 
L 82.771014 149.216232 
L 82.878731 144.612262 
L 83.08519 124.010231 
L 83.928976 25.645214 
L 83.937952 25.655359 
L 83.991811 26.422798 
L 84.117481 32.798416 
L 84.350869 59.055832 
L 85.086938 149.139187 
L 85.140797 149.735415 
L 85.194655 149.119561 
L 85.311349 143.716967 
L 85.526784 121.023551 
L 86.325688 25.767748 
L 86.352617 25.646028 
L 86.388523 25.955555 
L 86.487264 29.548316 
L 86.675769 46.564732 
L 87.151521 118.035983 
L 87.474673 148.233927 
L 87.555461 149.731954 
L 87.60932 149.217846 
L 87.717037 144.617241 
L 87.923496 124.020377 
L 88.767282 25.645274 
L 88.776258 25.655126 
L 88.830117 26.420823 
L 88.955787 32.792583 
L 89.189175 59.04473 
L 89.925244 149.137454 
L 89.979102 149.735428 
L 90.032961 149.121318 
L 90.149655 143.722343 
L 90.36509 121.034106 
L 91.163994 25.768537 
L 91.190923 25.645942 
L 91.226829 25.954304 
L 91.32557 29.543948 
L 91.514075 46.555362 
L 91.989827 118.025067 
L 92.312979 148.231189 
L 92.393767 149.731819 
L 92.447626 149.219458 
L 92.555343 144.622217 
L 92.761802 124.030522 
L 93.605588 25.645336 
L 93.614564 25.654897 
L 93.668423 26.418851 
L 93.794093 32.786753 
L 94.027481 59.033629 
L 94.76355 149.13572 
L 94.817408 149.735438 
L 94.871267 149.123074 
L 94.987961 143.727717 
L 95.203396 121.04466 
L 96.0023 25.76933 
L 96.029229 25.64586 
L 96.065135 25.953056 
L 96.163876 29.539583 
L 96.352381 46.545993 
L 96.828133 118.014148 
L 97.151285 148.228449 
L 97.232073 149.731683 
L 97.285932 149.221068 
L 97.393649 144.627191 
L 97.600108 124.040665 
L 98.443894 25.6454 
L 98.45287 25.654669 
L 98.506729 26.416881 
L 98.632399 32.780924 
L 98.865787 59.022529 
L 99.601856 149.133983 
L 99.655714 149.735446 
L 99.709573 149.124826 
L 99.826267 143.733088 
L 100.041702 121.055212 
L 100.849582 25.694973 
L 100.867535 25.645779 
L 100.903441 25.951811 
L 101.002182 29.535219 
L 101.190687 46.536626 
L 101.666439 118.003229 
L 101.989591 148.225706 
L 102.070379 149.731543 
L 102.124238 149.222674 
L 102.231955 144.632163 
L 102.438413 124.050807 
L 103.2822 25.645467 
L 103.291176 25.654444 
L 103.345035 26.414914 
L 103.470705 32.775098 
L 103.704093 59.01143 
L 104.440162 149.132243 
L 104.49402 149.735451 
L 104.547879 149.126577 
L 104.664573 143.738457 
L 104.880008 121.065763 
L 105.687888 25.695479 
L 105.705841 25.645702 
L 105.741747 25.950568 
L 105.840488 29.530858 
L 106.028993 46.527261 
L 106.504745 117.992308 
L 106.827897 148.22296 
L 106.908685 149.731402 
L 106.962544 149.224279 
L 107.070261 144.637132 
L 107.276719 124.060947 
L 108.120506 25.645536 
L 108.129482 25.654222 
L 108.183341 26.412949 
L 108.309011 32.769274 
L 108.542399 59.000333 
L 109.278467 149.130501 
L 109.332326 149.735454 
L 109.386185 149.128324 
L 109.502879 143.743824 
L 109.718313 121.076313 
L 110.526194 25.695987 
L 110.544147 25.645627 
L 110.580053 25.949328 
L 110.678793 29.5265 
L 110.867299 46.517897 
L 111.343051 117.981387 
L 111.666203 148.220213 
L 111.755967 149.731221 
L 111.80085 149.225881 
L 111.908567 144.642099 
L 112.115025 124.071086 
L 112.958811 25.645608 
L 112.967788 25.654002 
L 113.021647 26.410987 
L 113.147317 32.763452 
L 113.380705 58.989236 
L 114.116773 149.128756 
L 114.170632 149.735455 
L 114.224491 149.13007 
L 114.341185 143.749189 
L 114.556619 121.086861 
L 115.3645 25.696498 
L 115.382453 25.645554 
L 115.418358 25.948091 
L 115.517099 29.522144 
L 115.705605 46.508535 
L 116.17238 116.699794 
L 116.504509 148.217462 
L 116.594273 149.731366 
L 116.639155 149.22748 
L 116.746873 144.647064 
L 116.953331 124.081223 
L 117.797117 25.645683 
L 117.806094 25.653785 
L 117.859952 26.409027 
L 117.985623 32.757632 
L 118.21901 58.978141 
L 118.955079 149.127009 
L 119.008938 149.735452 
L 119.062797 149.131813 
L 119.17949 143.754551 
L 119.394925 121.097408 
L 120.202806 25.697012 
L 120.220759 25.645484 
L 120.256664 25.946855 
L 120.355405 29.51779 
L 120.543911 46.499175 
L 121.010686 116.68873 
L 121.342815 148.21471 
L 121.432579 149.731509 
L 121.477461 149.229077 
L 121.585179 144.652027 
L 121.791637 124.091359 
L 122.635423 25.64576 
L 122.6444 25.65357 
L 122.698258 26.407069 
L 122.823929 32.751815 
L 123.057316 58.967047 
L 123.793385 149.125259 
L 123.847244 149.735448 
L 123.901103 149.133553 
L 124.017796 143.759911 
L 124.233231 121.107954 
L 125.041112 25.697527 
L 125.059064 25.645416 
L 125.09497 25.945623 
L 125.193711 29.513438 
L 125.382217 46.489817 
L 125.848992 116.677666 
L 126.181121 148.211955 
L 126.270885 149.731648 
L 126.315767 149.230672 
L 126.423485 144.656987 
L 126.629943 124.101493 
L 127.473729 25.64584 
L 127.482706 25.653358 
L 127.536564 26.405115 
L 127.662235 32.745999 
L 127.895622 58.955954 
L 128.631691 149.123507 
L 128.68555 149.73544 
L 128.739408 149.135291 
L 128.856102 143.765269 
L 129.071537 121.118498 
L 129.879417 25.698046 
L 129.89737 25.645351 
L 129.933276 25.944392 
L 130.032017 29.509089 
L 130.220523 46.48046 
L 130.687298 116.6666 
L 131.019426 148.209197 
L 131.109191 149.731786 
L 131.154073 149.232264 
L 131.261791 144.661945 
L 131.468249 124.111626 
L 132.312035 25.645922 
L 132.321012 25.653149 
L 132.37487 26.403162 
L 132.500541 32.740187 
L 132.733928 58.944863 
L 133.469997 149.121752 
L 133.523856 149.735431 
L 133.577714 149.137026 
L 133.694408 143.770624 
L 133.909843 121.129041 
L 134.717723 25.698567 
L 134.735676 25.645289 
L 134.771582 25.943165 
L 134.870323 29.504743 
L 135.058828 46.471104 
L 135.525604 116.655532 
L 135.857732 148.206437 
L 135.947497 149.731921 
L 135.992379 149.233853 
L 136.100097 144.6669 
L 136.306555 124.121757 
L 137.150341 25.646006 
L 137.159317 25.652941 
L 137.213176 26.401212 
L 137.338846 32.734376 
L 137.572234 58.933772 
L 138.308303 149.119995 
L 138.362162 149.735418 
L 138.41602 149.138759 
L 138.532714 143.775977 
L 138.748149 121.139582 
L 139.556029 25.69909 
L 139.573982 25.645229 
L 139.609888 25.94194 
L 139.708629 29.500398 
L 139.897134 46.461751 
L 140.36391 116.644464 
L 140.696038 148.203674 
L 140.785803 149.732053 
L 140.830685 149.23544 
L 140.938402 144.671853 
L 141.144861 124.131887 
L 141.988647 25.646093 
L 141.997623 25.652737 
L 142.051482 26.399265 
L 142.177152 32.728567 
L 142.41054 58.922683 
L 143.146609 149.118236 
L 143.200468 149.735403 
L 143.254326 149.140489 
L 143.37102 143.781328 
L 143.586455 121.150123 
L 144.394335 25.699616 
L 144.412288 25.645171 
L 144.448194 25.940717 
L 144.546935 29.496056 
L 144.73544 46.452399 
L 145.202216 116.633394 
L 145.534344 148.200909 
L 145.624109 149.732183 
L 145.668991 149.237025 
L 145.776708 144.676804 
L 145.983167 124.142015 
L 146.826953 25.646183 
L 146.835929 25.652535 
L 146.889788 26.39732 
L 147.015458 32.722761 
L 147.248846 58.911594 
L 147.984915 149.116473 
L 148.038773 149.735386 
L 148.092632 149.142217 
L 148.209326 143.786677 
L 148.424761 121.160661 
L 149.232641 25.700144 
L 149.250594 25.645116 
L 149.2865 25.939497 
L 149.385241 29.491717 
L 149.573746 46.443049 
L 150.040522 116.622324 
L 150.37265 148.198142 
L 150.462415 149.73231 
L 150.507297 149.238606 
L 150.615014 144.681753 
L 150.821473 124.152142 
L 151.665259 25.646275 
L 151.674235 25.652335 
L 151.728094 26.395378 
L 151.853764 32.716957 
L 152.087152 58.900507 
L 152.823221 149.114709 
L 152.877079 149.735366 
L 152.930938 149.143942 
L 153.047632 143.792023 
L 153.263067 121.171199 
L 154.070947 25.700675 
L 154.0889 25.645064 
L 154.124806 25.938279 
L 154.223547 29.487379 
L 154.412052 46.4337 
L 154.878827 116.611252 
L 155.210956 148.195372 
L 155.300721 149.732435 
L 155.345603 149.240186 
L 155.45332 144.686699 
L 155.659778 124.162268 
L 156.503565 25.64637 
L 156.512541 25.652138 
L 156.557423 26.186048 
L 156.674117 31.430523 
L 156.889552 53.897041 
L 157.697432 149.662439 
L 157.715385 149.735344 
L 157.751291 149.476676 
L 157.850032 146.020122 
L 158.038537 129.222673 
L 158.48736 61.695189 
L 158.828465 27.612971 
L 158.927206 25.645014 
L 158.972088 26.09413 
L 159.079805 30.547724 
L 159.286264 50.91824 
L 160.139026 149.732557 
L 160.148003 149.701718 
L 160.210838 148.545373 
L 160.345485 140.718324 
L 160.596825 110.249461 
L 161.252106 27.437815 
L 161.341871 25.646467 
L 161.395729 26.184399 
L 161.512423 31.425247 
L 161.727858 53.886545 
L 162.535738 149.66183 
L 162.553691 149.735319 
L 162.589597 149.477816 
L 162.688338 146.024387 
L 162.876843 129.231969 
L 163.325666 61.706554 
L 163.666771 27.616099 
L 163.765512 25.644967 
L 163.810394 26.092627 
L 163.918111 30.542849 
L 164.12457 50.90816 
L 164.977332 149.732677 
L 164.986309 149.702129 
L 165.049144 148.547812 
L 165.183791 140.724821 
L 165.435131 110.261119 
L 166.090412 27.440804 
L 166.180177 25.646567 
L 166.234035 26.182753 
L 166.350729 31.419973 
L 166.566164 53.876051 
L 167.374044 149.661219 
L 167.391997 149.735291 
L 167.427903 149.478954 
L 167.526644 146.028649 
L 167.715149 129.241265 
L 168.163972 61.717919 
L 168.505077 27.619231 
L 168.603818 25.644922 
L 168.6487 26.091127 
L 168.756417 30.537976 
L 168.962876 50.898082 
L 169.815638 149.732794 
L 169.824615 149.702538 
L 169.88745 148.550247 
L 170.022097 140.731315 
L 170.273437 110.272776 
L 170.928718 27.443794 
L 171.018482 25.646669 
L 171.072341 26.18111 
L 171.189035 31.414701 
L 171.40447 53.865559 
L 172.21235 149.660606 
L 172.230303 149.735261 
L 172.266209 149.48009 
L 172.36495 146.032909 
L 172.553455 129.250558 
L 173.002278 61.729286 
L 173.343383 27.622364 
L 173.442124 25.644879 
L 173.487006 26.08963 
L 173.594723 30.533105 
L 173.801182 50.888005 
L 174.653944 149.732909 
L 174.662921 149.702944 
L 174.725756 148.552681 
L 174.860403 140.737808 
L 175.111743 110.284433 
L 175.767024 27.446788 
L 175.856788 25.646774 
L 175.910647 26.179469 
L 176.027341 31.409432 
L 176.242776 53.855067 
L 177.050656 149.65999 
L 177.068609 149.735229 
L 177.104515 149.481223 
L 177.203256 146.037166 
L 177.391761 129.25985 
L 177.840584 61.740653 
L 178.181689 27.6255 
L 178.28043 25.64484 
L 178.325312 26.088135 
L 178.433029 30.528237 
L 178.639487 50.87793 
L 179.49225 149.733021 
L 179.501227 149.703348 
L 179.564062 148.555111 
L 179.698708 140.744298 
L 179.950049 110.296088 
L 180.60533 27.449784 
L 180.695094 25.646882 
L 180.748953 26.17783 
L 180.865647 31.404165 
L 181.081082 53.844577 
L 181.888962 149.659372 
L 181.906915 149.735194 
L 181.942821 149.482354 
L 182.041562 146.041422 
L 182.230067 129.26914 
L 182.678889 61.752022 
L 183.019994 27.628639 
L 183.118735 25.644802 
L 183.163618 26.086642 
L 183.271335 30.523371 
L 183.477793 50.867856 
L 184.330556 149.73313 
L 184.339532 149.70375 
L 184.402368 148.55754 
L 184.537014 140.750786 
L 184.788355 110.307743 
L 185.443636 27.452782 
L 185.5334 25.646991 
L 185.587259 26.176194 
L 185.694976 30.805877 
L 185.901435 51.447385 
L 186.745221 149.735156 
L 186.754197 149.722781 
L 186.808056 148.942023 
L 186.933726 142.536916 
L 187.167114 116.239253 
L 187.903183 26.227654 
L 187.957041 25.644768 
L 188.0109 26.27396 
L 188.127594 31.704208 
L 188.343029 54.437187 
L 189.141933 149.618205 
L 189.168862 149.733237 
L 189.204768 149.414804 
L 189.303509 145.798212 
L 189.492014 128.743577 
L 189.967766 57.260598 
L 190.290918 27.125223 
L 190.371706 25.647104 
L 190.425565 26.17456 
L 190.533282 30.80088 
L 190.73974 51.437228 
L 191.583527 149.735116 
L 191.592503 149.723033 
L 191.646362 148.944016 
L 191.772032 142.542767 
L 192.00542 116.250364 
L 192.741489 26.229367 
L 192.795347 25.644735 
L 192.849206 26.272183 
L 192.9659 31.698814 
L 193.181335 54.426621 
L 193.980239 149.617435 
L 194.007168 149.733342 
L 194.043074 149.416074 
L 194.141815 145.802598 
L 194.33032 128.75296 
L 194.806072 57.271506 
L 195.129224 27.127942 
L 195.210012 25.647219 
L 195.263871 26.172929 
L 195.371588 30.795886 
L 195.578046 51.427072 
L 196.421833 149.735074 
L 196.430809 149.723282 
L 196.484668 148.946008 
L 196.610338 142.548614 
L 196.843726 116.261474 
L 197.579794 26.231082 
L 197.633653 25.644706 
L 197.687512 26.270409 
L 197.804206 31.693423 
L 198.01964 54.416057 
L 198.818544 149.616662 
L 198.845474 149.733444 
L 198.88138 149.417341 
L 198.980121 145.806982 
L 199.168626 128.762341 
L 199.644378 57.282414 
L 199.96753 27.130664 
L 200.048318 25.647336 
L 200.102177 26.1713 
L 200.209894 30.790894 
L 200.416352 51.416917 
L 201.260139 149.735028 
L 201.269115 149.723529 
L 201.322974 148.947997 
L 201.448644 142.55446 
L 201.682032 116.272583 
L 202.4181 26.2328 
L 202.471959 25.644678 
L 202.525818 26.268637 
L 202.642512 31.688034 
L 202.857946 54.405495 
L 203.65685 149.615887 
L 203.68378 149.733543 
L 203.719685 149.418605 
L 203.818426 145.811363 
L 204.006932 128.771721 
L 204.482684 57.293324 
L 204.805836 27.133388 
L 204.886624 25.647456 
L 204.940483 26.169674 
L 205.0482 30.785905 
L 205.254658 51.406764 
L 206.098444 149.734981 
L 206.107421 149.723773 
L 206.16128 148.949983 
L 206.28695 142.560304 
L 206.520338 116.283691 
L 207.256406 26.234521 
L 207.310265 25.644654 
L 207.364124 26.266868 
L 207.480818 31.682648 
L 207.696252 54.394933 
L 208.495156 149.615109 
L 208.522086 149.73364 
L 208.557991 149.419867 
L 208.656732 145.815742 
L 208.845238 128.781099 
L 209.32099 57.304236 
L 209.644142 27.136114 
L 209.72493 25.647579 
L 209.778788 26.168051 
L 209.886506 30.780918 
L 210.092964 51.396613 
L 210.93675 149.734931 
L 210.945727 149.724014 
L 210.999585 148.951967 
L 211.125256 142.566145 
L 211.358643 116.294797 
L 212.094712 26.236244 
L 212.148571 25.644632 
L 212.20243 26.265101 
L 212.319123 31.677263 
L 212.534558 54.384373 
L 213.333462 149.614328 
L 213.360392 149.733735 
L 213.396297 149.421127 
L 213.495038 145.820119 
L 213.683544 128.790476 
L 214.159295 57.315148 
L 214.482448 27.138843 
L 214.563236 25.647704 
L 214.617094 26.16643 
L 214.724812 30.775933 
L 214.93127 51.386463 
L 215.775056 149.734878 
L 215.784033 149.724254 
L 215.837891 148.953948 
L 215.963562 142.571984 
L 216.196949 116.305902 
L 216.933018 26.23797 
L 216.986877 25.644612 
L 217.040736 26.263336 
L 217.157429 31.671881 
L 217.372864 54.373814 
L 218.171768 149.613546 
L 218.198697 149.733827 
L 218.234603 149.422383 
L 218.333344 145.824493 
L 218.52185 128.79985 
L 218.997601 57.326062 
L 219.320754 27.141575 
L 219.401542 25.647831 
L 219.4554 26.164811 
L 219.563118 30.77095 
L 219.769576 51.376314 
L 220.613362 149.734823 
L 220.622339 149.72449 
L 220.676197 148.955927 
L 220.801868 142.57782 
L 221.035255 116.317006 
L 221.771324 26.239698 
L 221.825183 25.644595 
L 221.879041 26.261575 
L 221.995735 31.666502 
L 222.21117 54.363257 
L 223.010074 149.61276 
L 223.037003 149.733916 
L 223.072909 149.423638 
L 223.17165 145.828865 
L 223.360156 128.809223 
L 223.835907 57.336976 
L 224.159059 27.144309 
L 224.239847 25.647961 
L 224.293706 26.163195 
L 224.401424 30.76597 
L 224.607882 51.366167 
L 225.451668 149.734765 
L 225.460645 149.724724 
L 225.514503 148.957904 
L 225.640174 142.583655 
L 225.873561 116.328109 
L 226.60963 26.241428 
L 226.663489 25.64458 
L 226.717347 26.259815 
L 226.834041 31.661124 
L 227.049476 54.352701 
L 227.84838 149.611972 
L 227.875309 149.734003 
L 227.911215 149.42489 
L 228.009956 145.833235 
L 228.198461 128.818595 
L 228.674213 57.347892 
L 228.997365 27.147045 
L 229.078153 25.648094 
L 229.132012 26.161581 
L 229.239729 30.760992 
L 229.446188 51.356021 
L 230.289974 149.734705 
L 230.29895 149.724956 
L 230.352809 148.959877 
L 230.478479 142.589487 
L 230.711867 116.339211 
L 231.447936 26.243161 
L 231.501795 25.644568 
L 231.555653 26.258058 
L 231.672347 31.655749 
L 231.887782 54.342147 
L 232.686686 149.611182 
L 232.713615 149.734087 
L 232.749521 149.426139 
L 232.848262 145.837602 
L 233.036767 128.827965 
L 233.512519 57.35881 
L 233.835671 27.149784 
L 233.916459 25.648229 
L 233.970318 26.15997 
L 234.078035 30.756017 
L 234.284494 51.345877 
L 235.12828 149.734642 
L 235.137256 149.725185 
L 235.191115 148.961849 
L 235.316785 142.595317 
L 235.550173 116.350312 
L 236.286242 26.244897 
L 236.340101 25.644559 
L 236.393959 26.256304 
L 236.510653 31.650376 
L 236.726088 54.331593 
L 237.524992 149.610389 
L 237.551921 149.734169 
L 237.587827 149.427386 
L 237.686568 145.841967 
L 237.875073 128.837333 
L 238.350825 57.369728 
L 238.673977 27.152525 
L 238.754765 25.648367 
L 238.808624 26.158362 
L 238.916341 30.751044 
L 239.1228 51.335734 
L 239.966586 149.734577 
L 239.975562 149.725411 
L 240.029421 148.963818 
L 240.155091 142.601145 
L 240.388479 116.361411 
L 241.124548 26.246635 
L 241.178406 25.644552 
L 241.232265 26.254552 
L 241.348959 31.645006 
L 241.564394 54.321042 
L 242.372274 149.684847 
L 242.390227 149.734248 
L 242.426133 149.42863 
L 242.524874 145.846329 
L 242.713379 128.846699 
L 243.189131 57.380648 
L 243.512283 27.155269 
L 243.593071 25.648507 
L 243.64693 26.156756 
L 243.754647 30.746073 
L 243.961106 51.325593 
L 244.804892 149.734509 
L 244.813868 149.725635 
L 244.867727 148.965784 
L 244.993397 142.60697 
L 245.226785 116.37251 
L 245.962854 26.248375 
L 246.016712 25.644547 
L 246.070571 26.252803 
L 246.187265 31.639637 
L 246.4027 54.310491 
L 247.21058 149.684341 
L 247.228533 149.734325 
L 247.264439 149.429872 
L 247.36318 145.850689 
L 247.551685 128.856064 
L 248.027437 57.391569 
L 248.350589 27.158015 
L 248.440354 25.648874 
L 248.485236 26.155152 
L 248.592953 30.741104 
L 248.799411 51.315453 
L 249.643198 149.734438 
L 249.652174 149.725856 
L 249.706033 148.967748 
L 249.831703 142.612794 
L 250.065091 116.383607 
L 250.80116 26.250118 
L 250.855018 25.644545 
L 250.908877 26.251056 
L 251.025571 31.634271 
L 251.241006 54.299942 
L 252.048886 149.683832 
L 252.066839 149.7344 
L 252.102745 149.431112 
L 252.201486 145.855047 
L 252.389991 128.865427 
L 252.865743 57.402491 
L 253.188895 27.160764 
L 253.278659 25.648727 
L 253.323542 26.153551 
L 253.431259 30.736138 
L 253.53 38.84236 
L 253.53 38.84236 
" clip-path="url(#pc00055b850)" style="fill: none; stroke: #000000; stroke-width: 1.5; stroke-linecap: square"/>
   </g>
   <g id="line2d_8">
    <path d="M 74.01 87.159638 
L 74.036929 87.186278 
L 74.090788 87.073621 
L 74.261341 86.134052 
L 74.629375 82.667917 
L 74.710163 83.44446 
L 74.81788 88.486361 
L 74.997409 111.273358 
L 75.338514 147.942494 
L 75.419302 149.286879 
L 75.464185 148.798999 
L 75.571902 144.188374 
L 75.77836 123.54488 
L 76.622147 25.905956 
L 76.658052 26.183253 
L 76.756793 29.678082 
L 76.945299 46.48982 
L 77.403098 115.06607 
L 77.735226 147.566547 
L 77.833967 149.472465 
L 77.878849 149.000621 
L 77.986567 144.508754 
L 78.193025 124.136104 
L 79.036811 25.90911 
L 79.054764 25.946822 
L 79.117599 27.132582 
L 79.252246 34.995279 
L 79.503587 65.422952 
L 80.158867 147.738591 
L 80.248632 149.473508 
L 80.302491 148.908305 
L 80.419184 143.628183 
L 80.634619 121.17331 
L 81.4425 25.969246 
L 81.460453 25.905937 
L 81.496358 26.182074 
L 81.595099 29.673795 
L 81.783605 46.480534 
L 82.241404 115.054897 
L 82.573532 147.563473 
L 82.672273 149.472555 
L 82.717155 149.00216 
L 82.824873 144.513648 
L 83.031331 124.146167 
L 83.875117 25.909239 
L 83.89307 25.946369 
L 83.955905 27.130112 
L 84.090552 34.988773 
L 84.341893 65.411328 
L 84.997173 147.735656 
L 85.086938 149.473451 
L 85.140797 148.909987 
L 85.25749 143.633474 
L 85.472925 121.183783 
L 86.280806 25.969812 
L 86.298758 25.905922 
L 86.334664 26.180898 
L 86.433405 29.669511 
L 86.621911 46.47125 
L 87.079709 115.043723 
L 87.411838 147.560396 
L 87.510579 149.472643 
L 87.555461 149.003696 
L 87.663179 144.518539 
L 87.869637 124.156228 
L 88.713423 25.90937 
L 88.731376 25.94592 
L 88.794211 27.127644 
L 88.928858 34.98227 
L 89.180199 65.399704 
L 89.835479 147.73272 
L 89.925244 149.473392 
L 89.979102 148.911666 
L 90.095796 143.638762 
L 90.311231 121.194255 
L 91.119111 25.97038 
L 91.137064 25.905909 
L 91.17297 26.179725 
L 91.271711 29.665229 
L 91.460217 46.461967 
L 91.918015 115.032548 
L 92.250144 147.557317 
L 92.348885 149.472727 
L 92.393767 149.00523 
L 92.501485 144.523428 
L 92.707943 124.166287 
L 93.551729 25.909503 
L 93.569682 25.945472 
L 93.632517 27.12518 
L 93.767164 34.975768 
L 94.018504 65.388081 
L 94.673785 147.72978 
L 94.76355 149.47333 
L 94.817408 148.913342 
L 94.934102 143.644048 
L 95.149537 121.204725 
L 95.957417 25.970951 
L 95.97537 25.905899 
L 96.011276 26.178554 
L 96.110017 29.660949 
L 96.298522 46.452685 
L 96.756321 115.021372 
L 97.08845 147.554236 
L 97.187191 149.47281 
L 97.232073 149.006761 
L 97.33979 144.528315 
L 97.546249 124.176346 
L 98.390035 25.90964 
L 98.407988 25.945027 
L 98.470823 27.122717 
L 98.60547 34.969269 
L 98.85681 65.376459 
L 99.512091 147.726839 
L 99.601856 149.473266 
L 99.655714 148.915016 
L 99.772408 143.649331 
L 99.987843 121.215194 
L 100.795723 25.971524 
L 100.813676 25.905891 
L 100.849582 26.177386 
L 100.948323 29.656672 
L 101.136828 46.443406 
L 101.594627 115.010194 
L 101.926756 147.551152 
L 102.025497 149.47289 
L 102.070379 149.00829 
L 102.178096 144.5332 
L 102.384555 124.186402 
L 103.228341 25.909778 
L 103.246294 25.944585 
L 103.309129 27.120257 
L 103.443776 34.962772 
L 103.695116 65.364838 
L 104.350397 147.723895 
L 104.440162 149.473199 
L 104.49402 148.916688 
L 104.610714 143.654613 
L 104.826149 121.225662 
L 105.634029 25.972099 
L 105.651982 25.905886 
L 105.687888 26.17622 
L 105.786629 29.652397 
L 105.975134 46.434128 
L 106.432933 114.999016 
L 106.765062 147.548066 
L 106.863803 149.472967 
L 106.908685 149.009816 
L 107.016402 144.538082 
L 107.222861 124.196457 
L 108.066647 25.90992 
L 108.0846 25.944145 
L 108.147435 27.1178 
L 108.282082 34.956277 
L 108.533422 65.353218 
L 109.188703 147.720948 
L 109.278467 149.47313 
L 109.332326 148.918357 
L 109.44902 143.659892 
L 109.664455 121.236128 
L 110.472335 25.972677 
L 110.490288 25.905883 
L 110.526194 26.175057 
L 110.624935 29.648124 
L 110.81344 46.424852 
L 111.271239 114.987836 
L 111.603368 147.544977 
L 111.702109 149.473042 
L 111.746991 149.01134 
L 111.854708 144.542962 
L 112.061167 124.206511 
L 112.913929 25.910097 
L 112.922906 25.943708 
L 112.985741 27.115344 
L 113.120388 34.949784 
L 113.371728 65.341599 
L 114.027009 147.717999 
L 114.116773 149.473059 
L 114.170632 148.920023 
L 114.287326 143.665169 
L 114.502761 121.246593 
L 115.310641 25.973258 
L 115.328594 25.905882 
L 115.3645 26.173896 
L 115.463241 29.643854 
L 115.651746 46.415577 
L 116.109545 114.976655 
L 116.441674 147.541886 
L 116.540415 149.473114 
L 116.585297 149.012861 
L 116.693014 144.54784 
L 116.899472 124.216563 
L 117.752235 25.909952 
L 117.761212 25.943273 
L 117.824047 27.112892 
L 117.958693 34.943294 
L 118.210034 65.32998 
L 118.865315 147.715048 
L 118.955079 149.472984 
L 119.008938 148.921688 
L 119.125632 143.670443 
L 119.341067 121.257056 
L 120.148947 25.973841 
L 120.1669 25.905885 
L 120.202806 26.172737 
L 120.301547 29.639586 
L 120.490052 46.406304 
L 120.947851 114.965474 
L 121.279979 147.538792 
L 121.37872 149.473184 
L 121.423603 149.01438 
L 121.53132 144.552715 
L 121.737778 124.226614 
L 122.590541 25.909811 
L 122.599517 25.942841 
L 122.662353 27.110442 
L 122.796999 34.936805 
L 123.04834 65.318363 
L 123.703621 147.712094 
L 123.793385 149.472908 
L 123.847244 148.923349 
L 123.963938 143.675715 
L 124.179372 121.267518 
L 124.987253 25.974427 
L 125.005206 25.905889 
L 125.041112 26.171582 
L 125.139852 29.63532 
L 125.328358 46.397033 
L 125.786157 114.954291 
L 126.118285 147.535696 
L 126.217026 149.473251 
L 126.261909 149.015896 
L 126.369626 144.557588 
L 126.576084 124.236663 
L 127.428847 25.909671 
L 127.437823 25.942411 
L 127.500659 27.107994 
L 127.635305 34.930319 
L 127.886646 65.306747 
L 128.541927 147.709137 
L 128.631691 149.472828 
L 128.68555 148.925008 
L 128.802244 143.680985 
L 129.017678 121.277979 
L 129.825559 25.975015 
L 129.843512 25.905897 
L 129.879417 26.170428 
L 129.978158 29.631057 
L 130.166664 46.387763 
L 130.624463 114.943106 
L 130.965568 147.874564 
L 131.055332 149.473316 
L 131.100215 149.01741 
L 131.207932 144.562459 
L 131.41439 124.246711 
L 132.267153 25.909534 
L 132.276129 25.941984 
L 132.338964 27.105549 
L 132.473611 34.923835 
L 132.724952 65.295131 
L 133.380233 147.706179 
L 133.469997 149.472747 
L 133.523856 148.926665 
L 133.64055 143.686253 
L 133.855984 121.288439 
L 134.663865 25.975605 
L 134.681818 25.905906 
L 134.717723 26.169278 
L 134.816464 29.626796 
L 135.00497 46.378496 
L 135.462769 114.931921 
L 135.803874 147.871745 
L 135.893638 149.473378 
L 135.93852 149.018921 
L 136.046238 144.567328 
L 136.252696 124.256757 
L 137.105459 25.9094 
L 137.114435 25.941559 
L 137.17727 27.103106 
L 137.311917 34.917353 
L 137.563258 65.283516 
L 138.218538 147.703217 
L 138.308303 149.472662 
L 138.362162 148.928319 
L 138.478855 143.691519 
L 138.69429 121.298897 
L 139.502171 25.976199 
L 139.520124 25.905919 
L 139.556029 26.168129 
L 139.65477 29.622538 
L 139.843276 46.36923 
L 140.301075 114.920735 
L 140.64218 147.868924 
L 140.731944 149.473438 
L 140.776826 149.02043 
L 140.884544 144.572194 
L 141.091002 124.266802 
L 141.943765 25.909269 
L 141.952741 25.941137 
L 142.015576 27.100666 
L 142.150223 34.910873 
L 142.401564 65.271903 
L 143.056844 147.700254 
L 143.146609 149.472575 
L 143.200468 148.929971 
L 143.317161 143.696782 
L 143.532596 121.309354 
L 144.340477 25.976794 
L 144.358429 25.905934 
L 144.394335 26.166983 
L 144.493076 29.618282 
L 144.681582 46.359965 
L 145.13938 114.909547 
L 145.480486 147.8661 
L 145.57025 149.473495 
L 145.615132 149.021936 
L 145.72285 144.577058 
L 145.929308 124.276845 
L 146.782071 25.909139 
L 146.791047 25.940717 
L 146.853882 27.098228 
L 146.988529 34.904395 
L 147.239869 65.26029 
L 147.89515 147.697288 
L 147.984915 149.472486 
L 148.038773 148.93162 
L 148.155467 143.702043 
L 148.370902 121.319809 
L 149.178782 25.977392 
L 149.196735 25.905951 
L 149.232641 26.16584 
L 149.331382 29.614028 
L 149.519887 46.350702 
L 149.977686 114.898359 
L 150.318791 147.863274 
L 150.408556 149.47355 
L 150.453438 149.02344 
L 150.561156 144.581919 
L 150.767614 124.286887 
L 151.620377 25.909013 
L 151.629353 25.9403 
L 151.692188 27.095793 
L 151.826835 34.897919 
L 152.078175 65.248678 
L 152.733456 147.694319 
L 152.823221 149.472394 
L 152.877079 148.933266 
L 152.993773 143.707301 
L 153.209208 121.330263 
L 154.017088 25.977993 
L 154.035041 25.905971 
L 154.070947 26.164699 
L 154.169688 29.609777 
L 154.358193 46.341441 
L 154.807016 113.586535 
L 155.148121 147.517069 
L 155.246862 149.473602 
L 155.291744 149.024941 
L 155.399461 144.586778 
L 155.60592 124.296927 
L 156.458682 25.908888 
L 156.467659 25.939886 
L 156.530494 27.09336 
L 156.665141 34.891446 
L 156.916481 65.237067 
L 157.571762 147.691348 
L 157.661527 149.4723 
L 157.715385 148.934911 
L 157.832079 143.712558 
L 158.047514 121.340716 
L 158.855394 25.978596 
L 158.873347 25.905993 
L 158.909253 26.163561 
L 159.007994 29.605528 
L 159.196499 46.332182 
L 159.645322 113.575219 
L 159.986427 147.513956 
L 160.085168 149.473652 
L 160.13005 149.02644 
L 160.237767 144.591635 
L 160.444226 124.306966 
L 161.296988 25.908767 
L 161.305965 25.939473 
L 161.3688 27.090929 
L 161.503447 34.884975 
L 161.754787 65.225457 
L 162.410068 147.688375 
L 162.499832 149.472203 
L 162.553691 148.936552 
L 162.670385 143.717812 
L 162.88582 121.351167 
L 163.6937 25.979202 
L 163.711653 25.906018 
L 163.747559 26.162425 
L 163.8463 29.601281 
L 164.034805 46.322924 
L 164.483628 113.563903 
L 164.824733 147.51084 
L 164.923474 149.473699 
L 164.968356 149.027936 
L 165.076073 144.59649 
L 165.282532 124.317003 
L 166.135294 25.908648 
L 166.144271 25.939064 
L 166.207106 27.088501 
L 166.341753 34.878505 
L 166.593093 65.213848 
L 167.248374 147.685399 
L 167.338138 149.472104 
L 167.391997 148.938191 
L 167.508691 143.723063 
L 167.724126 121.361617 
L 168.532006 25.97981 
L 168.549959 25.906045 
L 168.585865 26.161292 
L 168.684606 29.597037 
L 168.873111 46.313668 
L 169.321934 113.552585 
L 169.663039 147.507722 
L 169.76178 149.473743 
L 169.806662 149.02943 
L 169.914379 144.601342 
L 170.120838 124.327039 
L 170.9736 25.908531 
L 170.982577 25.938657 
L 171.045412 27.086076 
L 171.180059 34.872038 
L 171.431399 65.20224 
L 172.08668 147.682421 
L 172.176444 149.472002 
L 172.230303 148.939828 
L 172.346997 143.728313 
L 172.562432 121.372065 
L 173.370312 25.980421 
L 173.388265 25.906075 
L 173.424171 26.160161 
L 173.522912 29.592795 
L 173.711417 46.304414 
L 174.16024 113.541266 
L 174.501345 147.504602 
L 174.600086 149.473786 
L 174.644968 149.030921 
L 174.752685 144.606192 
L 174.959143 124.337073 
L 175.811906 25.908417 
L 175.820883 25.938252 
L 175.883718 27.083653 
L 176.018364 34.865574 
L 176.269705 65.190632 
L 176.924986 147.67944 
L 177.01475 149.471897 
L 177.068609 148.941462 
L 177.185303 143.73356 
L 177.400738 121.382512 
L 178.208618 25.981034 
L 178.226571 25.906107 
L 178.262477 26.159033 
L 178.361218 29.588556 
L 178.549723 46.295161 
L 178.998545 113.529947 
L 179.33965 147.501479 
L 179.438391 149.473825 
L 179.483274 149.03241 
L 179.590991 144.611039 
L 179.797449 124.347106 
L 180.650212 25.908305 
L 180.659188 25.93785 
L 180.722024 27.081232 
L 180.85667 34.859111 
L 181.108011 65.179026 
L 181.763292 147.676457 
L 181.853056 149.471791 
L 181.906915 148.943094 
L 182.023609 143.738805 
L 182.239043 121.392958 
L 183.046924 25.98165 
L 183.064877 25.906142 
L 183.100783 26.157907 
L 183.199523 29.584318 
L 183.388029 46.28591 
L 183.836851 113.518626 
L 184.177956 147.498354 
L 184.276697 149.473862 
L 184.32158 149.033897 
L 184.429297 144.615885 
L 184.635755 124.357137 
L 185.488518 25.908196 
L 185.497494 25.93745 
L 185.56033 27.078814 
L 185.694976 34.85265 
L 185.946317 65.16742 
L 186.601598 147.673471 
L 186.691362 149.471681 
L 186.745221 148.944723 
L 186.852938 144.334571 
L 187.059396 123.78005 
L 187.903183 25.90618 
L 187.912159 25.9185 
L 187.966018 26.695955 
L 188.091688 33.074048 
L 188.325076 59.260899 
L 189.061145 148.89345 
L 189.115003 149.473897 
L 189.168862 148.84737 
L 189.285556 143.440027 
L 189.500991 120.802845 
L 190.299894 26.022645 
L 190.326824 25.908089 
L 190.36273 26.225171 
L 190.461471 29.826502 
L 190.649976 46.809259 
L 191.125728 117.991136 
L 191.44888 147.999652 
L 191.529668 149.471569 
L 191.583527 148.94635 
L 191.691244 144.339546 
L 191.897702 123.790165 
L 192.741489 25.90622 
L 192.750465 25.918249 
L 192.804324 26.693969 
L 192.929994 33.068223 
L 193.163382 59.249834 
L 193.89945 148.891744 
L 193.953309 149.473929 
L 194.007168 148.849139 
L 194.123862 143.445397 
L 194.339296 120.813366 
L 195.1382 26.023412 
L 195.16513 25.907985 
L 195.201036 26.223907 
L 195.299776 29.822135 
L 195.488282 46.799915 
L 195.964034 117.980274 
L 196.287186 147.996945 
L 196.367974 149.471455 
L 196.421833 148.947974 
L 196.52955 144.344519 
L 196.736008 123.800278 
L 197.579794 25.906262 
L 197.588771 25.918001 
L 197.64263 26.691986 
L 197.7683 33.0624 
L 198.001688 59.238771 
L 198.737756 148.890036 
L 198.791615 149.473958 
L 198.845474 148.850906 
L 198.962168 143.450766 
L 199.177602 120.823886 
L 199.976506 26.024181 
L 200.003436 25.907884 
L 200.039341 26.222645 
L 200.138082 29.817769 
L 200.326588 46.790573 
L 200.80234 117.969411 
L 201.125492 147.994235 
L 201.20628 149.471338 
L 201.260139 148.949596 
L 201.367856 144.34949 
L 201.574314 123.81039 
L 202.4181 25.906307 
L 202.427077 25.917756 
L 202.480936 26.690006 
L 202.606606 33.056579 
L 202.839993 59.227709 
L 203.576062 148.888325 
L 203.629921 149.473986 
L 203.68378 148.85267 
L 203.800474 143.456132 
L 204.015908 120.834404 
L 204.814812 26.024954 
L 204.841742 25.907785 
L 204.877647 26.221386 
L 204.976388 29.813406 
L 205.164894 46.781233 
L 205.640646 117.958547 
L 205.963798 147.991522 
L 206.044586 149.471218 
L 206.098444 148.951215 
L 206.206162 144.354458 
L 206.41262 123.8205 
L 207.256406 25.906355 
L 207.265383 25.917513 
L 207.319241 26.688028 
L 207.444912 33.05076 
L 207.678299 59.216648 
L 208.414368 148.886612 
L 208.468227 149.47401 
L 208.522086 148.854432 
L 208.638779 143.461496 
L 208.854214 120.844921 
L 209.653118 26.025728 
L 209.680048 25.907688 
L 209.715953 26.220129 
L 209.814694 29.809046 
L 210.0032 46.771894 
L 210.478951 117.947682 
L 210.802104 147.988807 
L 210.882892 149.471096 
L 210.93675 148.952832 
L 211.044468 144.359424 
L 211.250926 123.830609 
L 212.094712 25.906405 
L 212.103689 25.917272 
L 212.157547 26.686053 
L 212.283218 33.044943 
L 212.516605 59.205589 
L 213.252674 148.884896 
L 213.306533 149.474032 
L 213.360392 148.856192 
L 213.477085 143.466857 
L 213.69252 120.855436 
L 214.491424 26.026505 
L 214.518353 25.907594 
L 214.554259 26.218875 
L 214.653 29.804688 
L 214.841506 46.762557 
L 215.317257 117.936816 
L 215.64041 147.98609 
L 215.721198 149.470972 
L 215.775056 148.954446 
L 215.882774 144.364388 
L 216.089232 123.840716 
L 216.933018 25.906457 
L 216.941995 25.917034 
L 216.995853 26.684079 
L 217.121524 33.039129 
L 217.354911 59.19453 
L 218.09098 148.883178 
L 218.144839 149.474052 
L 218.198697 148.857949 
L 218.315391 143.472217 
L 218.530826 120.865951 
L 219.32973 26.027285 
L 219.356659 25.907503 
L 219.392565 26.217624 
L 219.491306 29.800332 
L 219.679811 46.753222 
L 220.155563 117.925948 
L 220.478715 147.98337 
L 220.559503 149.470845 
L 220.613362 148.956058 
L 220.72108 144.369349 
L 220.927538 123.850822 
L 221.771324 25.906512 
L 221.780301 25.916799 
L 221.834159 26.682109 
L 221.959829 33.033317 
L 222.193217 59.183473 
L 222.929286 148.881457 
L 222.983145 149.474069 
L 223.037003 148.859703 
L 223.153697 143.477574 
L 223.369132 120.876464 
L 224.168036 26.028067 
L 224.194965 25.907414 
L 224.230871 26.216375 
L 224.329612 29.795978 
L 224.518117 46.743889 
L 224.993869 117.915079 
L 225.317021 147.980647 
L 225.397809 149.470715 
L 225.451668 148.957667 
L 225.559385 144.374309 
L 225.765844 123.860926 
L 226.60963 25.90657 
L 226.618606 25.916566 
L 226.672465 26.680141 
L 226.798135 33.027507 
L 227.031523 59.172417 
L 227.767592 148.879734 
L 227.821451 149.474083 
L 227.875309 148.861455 
L 227.992003 143.482929 
L 228.207438 120.886975 
L 229.006342 26.028852 
L 229.033271 25.907327 
L 229.069177 26.215128 
L 229.167918 29.791627 
L 229.356423 46.734557 
L 229.832175 117.904209 
L 230.155327 147.977923 
L 230.236115 149.470583 
L 230.289974 148.959274 
L 230.397691 144.379266 
L 230.60415 123.871029 
L 231.447936 25.90663 
L 231.456912 25.916335 
L 231.510771 26.678175 
L 231.636441 33.021699 
L 231.869829 59.161361 
L 232.605898 148.878008 
L 232.659756 149.474095 
L 232.713615 148.863205 
L 232.830309 143.488281 
L 233.045744 120.897485 
L 233.844648 26.029639 
L 233.871577 25.907243 
L 233.907483 26.213884 
L 234.006224 29.787278 
L 234.194729 46.725226 
L 234.670481 117.893338 
L 234.993633 147.975195 
L 235.074421 149.470449 
L 235.12828 148.960878 
L 235.235997 144.38422 
L 235.442456 123.881131 
L 236.286242 25.906692 
L 236.295218 25.916107 
L 236.349077 26.676212 
L 236.474747 33.015894 
L 236.708135 59.150308 
L 237.444204 148.87628 
L 237.498062 149.474104 
L 237.551921 148.864952 
L 237.668615 143.493631 
L 237.88405 120.907994 
L 238.682954 26.030429 
L 238.709883 25.907162 
L 238.745789 26.212642 
L 238.84453 29.782932 
L 239.033035 46.715898 
L 239.508787 117.882465 
L 239.831939 147.972465 
L 239.912727 149.470311 
L 239.966586 148.96248 
L 240.074303 144.389172 
L 240.280762 123.891231 
L 241.124548 25.906757 
L 241.133524 25.915882 
L 241.187383 26.674252 
L 241.313053 33.010091 
L 241.546441 59.139255 
L 242.28251 148.874549 
L 242.336368 149.474111 
L 242.390227 148.866696 
L 242.506921 143.498979 
L 242.722356 120.918501 
L 243.530236 25.956281 
L 243.548189 25.907083 
L 243.584095 26.211403 
L 243.682836 29.778588 
L 243.871341 46.706571 
L 244.347093 117.871591 
L 244.670245 147.969733 
L 244.751033 149.470172 
L 244.804892 148.964079 
L 244.912609 144.394122 
L 245.119067 123.901329 
L 245.962854 25.906825 
L 245.97183 25.915659 
L 246.025689 26.672293 
L 246.151359 33.00429 
L 246.384747 59.128203 
L 247.120816 148.872816 
L 247.174674 149.474116 
L 247.228533 148.868438 
L 247.345227 143.504325 
L 247.560662 120.929007 
L 248.368542 25.956785 
L 248.386495 25.907006 
L 248.422401 26.210167 
L 248.521142 29.774246 
L 248.709647 46.697246 
L 249.185399 117.860716 
L 249.508551 147.966999 
L 249.598315 149.469809 
L 249.643198 148.965676 
L 249.750915 144.39907 
L 249.957373 123.911426 
L 250.80116 25.906895 
L 250.810136 25.915438 
L 250.863995 26.670338 
L 250.989665 32.998491 
L 251.223053 59.117153 
L 251.959121 148.87108 
L 252.01298 149.474118 
L 252.066839 148.870178 
L 252.183533 143.509668 
L 252.398967 120.939512 
L 253.206848 25.957292 
L 253.224801 25.906932 
L 253.260707 26.208933 
L 253.359447 29.769907 
L 253.53 44.578226 
L 253.53 44.578226 
" clip-path="url(#pc00055b850)" style="fill: none; stroke: #808080; stroke-width: 1.5; stroke-linecap: square"/>
   </g>
   <g id="line2d_9">
    <path d="M 74.01 87.370952 
L 74.44087 84.767033 
L 74.56654 84.11515 
L 74.611422 84.26365 
L 74.69221 85.668153 
L 74.808904 92.375197 
L 75.024339 122.562624 
L 75.302609 148.547328 
L 75.356467 149.211151 
L 75.410326 148.555939 
L 75.52702 142.905626 
L 75.751431 118.500789 
L 76.514429 26.181304 
L 76.559311 25.806389 
L 76.604194 26.271422 
L 76.711911 30.753056 
L 76.918369 51.131862 
L 77.762156 149.57089 
L 77.780109 149.536157 
L 77.842944 148.35902 
L 77.97759 140.504624 
L 78.228931 110.054149 
L 78.884212 27.55891 
L 78.973976 25.806111 
L 79.027835 26.363141 
L 79.144529 31.632986 
L 79.359963 54.097337 
L 80.167844 149.50837 
L 80.185797 149.574822 
L 80.221703 149.304306 
L 80.320444 145.823158 
L 80.508949 129.015192 
L 80.966748 60.33897 
L 81.298876 27.735058 
L 81.397617 25.806312 
L 81.4425 26.269894 
L 81.550217 30.748166 
L 81.756675 51.121791 
L 82.600462 149.570748 
L 82.618414 149.536597 
L 82.68125 148.36148 
L 82.815896 140.511129 
L 83.067237 110.065788 
L 83.722518 27.561862 
L 83.812282 25.806181 
L 83.866141 26.36147 
L 83.982835 31.627699 
L 84.198269 54.086854 
L 85.00615 149.507791 
L 85.024103 149.574824 
L 85.060009 149.305471 
L 85.158749 145.827437 
L 85.347255 129.024483 
L 85.805054 60.350168 
L 86.137182 27.738152 
L 86.235923 25.806237 
L 86.280806 26.268368 
L 86.388523 30.743279 
L 86.594981 51.111721 
L 87.447744 149.570635 
L 87.45672 149.537034 
L 87.519555 148.363939 
L 87.654202 140.517632 
L 87.905543 110.077426 
L 88.560824 27.564817 
L 88.650588 25.806253 
L 88.704447 26.359801 
L 88.821141 31.622414 
L 89.036575 54.076372 
L 89.844456 149.507209 
L 89.862409 149.574824 
L 89.898314 149.306633 
L 89.997055 145.831714 
L 90.185561 129.033772 
L 90.64336 60.361367 
L 90.975488 27.741249 
L 91.074229 25.806165 
L 91.119111 26.266845 
L 91.226829 30.738393 
L 91.433287 51.101653 
L 92.28605 149.570779 
L 92.295026 149.537469 
L 92.357861 148.366395 
L 92.492508 140.524133 
L 92.743849 110.089063 
L 93.399129 27.567773 
L 93.488894 25.806328 
L 93.542753 26.358135 
L 93.659446 31.617132 
L 93.874881 54.065892 
L 94.682762 149.506624 
L 94.700715 149.574821 
L 94.73662 149.307793 
L 94.835361 145.835988 
L 95.023867 129.04306 
L 95.481666 60.372568 
L 95.813794 27.744348 
L 95.912535 25.806096 
L 95.957417 26.265324 
L 96.065135 30.733511 
L 96.271593 51.091586 
L 97.124356 149.570921 
L 97.133332 149.537902 
L 97.196167 148.368849 
L 97.330814 140.530631 
L 97.582155 110.100699 
L 98.237435 27.570733 
L 98.3272 25.806406 
L 98.381059 26.356471 
L 98.497752 31.611851 
L 98.713187 54.055413 
L 99.521068 149.506037 
L 99.53902 149.574816 
L 99.574926 149.30895 
L 99.673667 145.84026 
L 99.862173 129.052346 
L 100.319971 60.383769 
L 100.6521 27.747449 
L 100.750841 25.806029 
L 100.795723 26.263806 
L 100.903441 30.72863 
L 101.109899 51.081521 
L 101.962662 149.57106 
L 101.971638 149.538331 
L 102.034473 148.3713 
L 102.16912 140.537128 
L 102.420461 110.112334 
L 103.075741 27.573694 
L 103.165506 25.806486 
L 103.219364 26.35481 
L 103.336058 31.606573 
L 103.551493 54.044935 
L 104.359373 149.505447 
L 104.377326 149.574808 
L 104.413232 149.310104 
L 104.511973 145.84453 
L 104.700479 129.06163 
L 105.158277 60.394972 
L 105.499382 27.407967 
L 105.589147 25.805965 
L 105.634029 26.26229 
L 105.741747 30.723752 
L 105.948205 51.071457 
L 106.800968 149.571196 
L 106.809944 149.538759 
L 106.872779 148.373748 
L 107.007426 140.543622 
L 107.258766 110.123968 
L 107.914047 27.576658 
L 108.003812 25.806568 
L 108.05767 26.353151 
L 108.174364 31.601297 
L 108.389799 54.034459 
L 109.197679 149.504855 
L 109.215632 149.574797 
L 109.251538 149.311256 
L 109.350279 145.848797 
L 109.538784 129.070912 
L 109.996583 60.406176 
L 110.337688 27.410791 
L 110.427453 25.805903 
L 110.472335 26.260777 
L 110.580053 30.718876 
L 110.786511 51.061395 
L 111.639273 149.57133 
L 111.64825 149.539184 
L 111.711085 148.376195 
L 111.845732 140.550114 
L 112.097072 110.135601 
L 112.752353 27.579625 
L 112.842118 25.806653 
L 112.895976 26.351495 
L 113.01267 31.596024 
L 113.228105 54.023984 
L 114.035985 149.50426 
L 114.053938 149.574785 
L 114.089844 149.312406 
L 114.188585 145.853062 
L 114.37709 129.080193 
L 114.834889 60.41738 
L 115.175994 27.413617 
L 115.265759 25.805844 
L 115.310641 26.259266 
L 115.418358 30.714003 
L 115.624817 51.051334 
L 116.477579 149.571462 
L 116.486556 149.539606 
L 116.549391 148.378638 
L 116.684038 140.556604 
L 116.935378 110.147234 
L 117.590659 27.582594 
L 117.680424 25.806741 
L 117.734282 26.349841 
L 117.850976 31.590753 
L 118.066411 54.013511 
L 118.874291 149.503663 
L 118.892244 149.574769 
L 118.92815 149.313553 
L 119.026891 145.857324 
L 119.215396 129.089472 
L 119.673195 60.428586 
L 120.0143 27.416446 
L 120.104065 25.805787 
L 120.148947 26.257758 
L 120.256664 30.709131 
L 120.463123 51.041275 
L 121.315885 149.57159 
L 121.324862 149.540026 
L 121.387697 148.38108 
L 121.522344 140.563092 
L 121.773684 110.158865 
L 122.428965 27.585565 
L 122.518729 25.806831 
L 122.572588 26.34819 
L 122.689282 31.585484 
L 122.904717 54.003039 
L 123.712597 149.503063 
L 123.73055 149.574751 
L 123.766456 149.314698 
L 123.865197 145.861585 
L 124.053702 129.09875 
L 124.511501 60.439793 
L 124.852606 27.419277 
L 124.942371 25.805733 
L 124.987253 26.256253 
L 125.09497 30.704263 
L 125.301429 51.031217 
L 126.154191 149.571717 
L 126.163168 149.540443 
L 126.226003 148.383518 
L 126.36065 140.569577 
L 126.61199 110.170496 
L 127.267271 27.588539 
L 127.357035 25.806923 
L 127.410894 26.346541 
L 127.527588 31.580217 
L 127.743023 53.992568 
L 128.550903 149.502461 
L 128.568856 149.574731 
L 128.604762 149.31584 
L 128.703503 145.865842 
L 128.892008 129.108026 
L 129.340831 61.753784 
L 129.681936 27.76611 
L 129.780677 25.805681 
L 129.825559 26.254749 
L 129.933276 30.699396 
L 130.139734 51.021161 
L 130.992497 149.571841 
L 131.001474 149.540858 
L 131.064309 148.385955 
L 131.198955 140.576061 
L 131.450296 110.182126 
L 132.105577 27.591516 
L 132.195341 25.807018 
L 132.2492 26.344895 
L 132.365894 31.574953 
L 132.581329 53.982099 
L 133.389209 149.501856 
L 133.407162 149.574708 
L 133.443068 149.316979 
L 133.541809 145.870098 
L 133.730314 129.1173 
L 134.179136 61.765118 
L 134.520242 27.769229 
L 134.618982 25.805632 
L 134.663865 26.253249 
L 134.771582 30.694532 
L 134.97804 51.011106 
L 135.830803 149.571962 
L 135.839779 149.54127 
L 135.902615 148.388388 
L 136.037261 140.582542 
L 136.288602 110.193755 
L 136.943883 27.594495 
L 137.033647 25.807116 
L 137.087506 26.343251 
L 137.2042 31.569691 
L 137.419634 53.971631 
L 138.227515 149.501249 
L 138.245468 149.574683 
L 138.281374 149.318117 
L 138.380115 145.874351 
L 138.56862 129.126572 
L 139.017442 61.776453 
L 139.358547 27.77235 
L 139.457288 25.805585 
L 139.502171 26.25175 
L 139.609888 30.68967 
L 139.816346 51.001053 
L 140.669109 149.572081 
L 140.678085 149.54168 
L 140.740921 148.39082 
L 140.875567 140.589022 
L 141.126908 110.205382 
L 141.782189 27.597476 
L 141.871953 25.807216 
L 141.925812 26.34161 
L 142.042506 31.564431 
L 142.25794 53.961164 
L 143.065821 149.500639 
L 143.083774 149.574655 
L 143.119679 149.319251 
L 143.21842 145.878601 
L 143.406926 129.135843 
L 143.855748 61.787789 
L 144.196853 27.775474 
L 144.295594 25.805541 
L 144.340477 26.250255 
L 144.448194 30.68481 
L 144.654652 50.991001 
L 145.507415 149.572197 
L 145.516391 149.542087 
L 145.579226 148.393249 
L 145.713873 140.595499 
L 145.965214 110.217009 
L 146.620495 27.600459 
L 146.710259 25.807318 
L 146.764118 26.339971 
L 146.880812 31.559173 
L 147.096246 53.950699 
L 147.904127 149.500027 
L 147.92208 149.574624 
L 147.957985 149.320383 
L 148.056726 145.88285 
L 148.245232 129.145112 
L 148.694054 61.799127 
L 149.035159 27.7786 
L 149.1339 25.8055 
L 149.178782 26.248762 
L 149.2865 30.679953 
L 149.492958 50.980951 
L 150.345721 149.572311 
L 150.354697 149.542492 
L 150.417532 148.395675 
L 150.552179 140.601974 
L 150.80352 110.228635 
L 151.4588 27.603446 
L 151.548565 25.807424 
L 151.602424 26.338335 
L 151.719117 31.553918 
L 151.934552 53.940235 
L 152.742433 149.499412 
L 152.760386 149.574591 
L 152.796291 149.321513 
L 152.895032 145.887096 
L 153.083538 129.15438 
L 153.53236 61.810465 
L 153.873465 27.781728 
L 153.972206 25.805461 
L 154.017088 26.247271 
L 154.124806 30.675098 
L 154.331264 50.970902 
L 155.184027 149.572422 
L 155.193003 149.542894 
L 155.255838 148.398099 
L 155.390485 140.608446 
L 155.641826 110.240261 
L 156.297106 27.606434 
L 156.386871 25.807531 
L 156.44073 26.336701 
L 156.557423 31.548665 
L 156.772858 53.929773 
L 157.580739 149.498795 
L 157.598691 149.574556 
L 157.634597 149.32264 
L 157.733338 145.891339 
L 157.921844 129.163645 
L 158.370666 61.821805 
L 158.711771 27.784859 
L 158.810512 25.805424 
L 158.855394 26.245783 
L 158.963112 30.670245 
L 159.16957 50.960854 
L 160.022333 149.572531 
L 160.031309 149.543294 
L 160.094144 148.400521 
L 160.228791 140.614917 
L 160.480132 110.251885 
L 161.135412 27.609425 
L 161.225177 25.807641 
L 161.279035 26.33507 
L 161.386753 30.951988 
L 161.593211 51.538863 
L 162.436997 149.574518 
L 162.445974 149.562242 
L 162.499832 148.783908 
L 162.625503 142.396277 
L 162.85889 116.167913 
L 163.594959 26.387171 
L 163.648818 25.80539 
L 163.702677 26.43255 
L 163.81937 31.847902 
L 164.034805 54.52083 
L 164.833709 149.4577 
L 164.860639 149.572637 
L 164.896544 149.255298 
L 164.995285 145.64879 
L 165.183791 128.639465 
L 165.659542 57.341902 
L 165.982695 27.28265 
L 166.063483 25.807754 
L 166.117341 26.333441 
L 166.225059 30.947005 
L 166.431517 51.528732 
L 167.275303 149.574477 
L 167.28428 149.562493 
L 167.338138 148.785896 
L 167.463809 142.402111 
L 167.697196 116.178995 
L 168.433265 26.38888 
L 168.487124 25.805358 
L 168.540983 26.430778 
L 168.657676 31.842523 
L 168.873111 54.510292 
L 169.672015 149.456931 
L 169.698944 149.572741 
L 169.73485 149.256564 
L 169.833591 145.653164 
L 170.022097 128.648823 
L 170.497848 57.352782 
L 170.821001 27.285362 
L 170.901789 25.807869 
L 170.955647 26.331814 
L 171.063365 30.942025 
L 171.269823 51.518603 
L 172.113609 149.574434 
L 172.122586 149.56274 
L 172.176444 148.787882 
L 172.302115 142.407943 
L 172.535502 116.190076 
L 173.271571 26.390592 
L 173.32543 25.805329 
L 173.379288 26.429009 
L 173.495982 31.837146 
L 173.711417 54.499756 
L 174.510321 149.45616 
L 174.53725 149.572842 
L 174.573156 149.257827 
L 174.671897 145.657536 
L 174.860403 128.65818 
L 175.336154 57.363662 
L 175.659306 27.288077 
L 175.740095 25.807987 
L 175.793953 26.330191 
L 175.901671 30.937046 
L 176.108129 51.508475 
L 176.951915 149.574388 
L 176.960892 149.562986 
L 177.01475 148.789865 
L 177.140421 142.413773 
L 177.373808 116.201156 
L 178.109877 26.392306 
L 178.163736 25.805303 
L 178.217594 26.427242 
L 178.334288 31.831772 
L 178.549723 54.489221 
L 179.348627 149.455386 
L 179.375556 149.57294 
L 179.411462 149.259087 
L 179.510203 145.661906 
L 179.698708 128.667535 
L 180.17446 57.374544 
L 180.497612 27.290795 
L 180.5784 25.808107 
L 180.632259 26.328569 
L 180.739976 30.93207 
L 180.946435 51.498349 
L 181.790221 149.57434 
L 181.799197 149.563229 
L 181.853056 148.791845 
L 181.978726 142.419601 
L 182.212114 116.212235 
L 182.948183 26.394023 
L 183.002042 25.805279 
L 183.0559 26.425478 
L 183.172594 31.8264 
L 183.388029 54.478687 
L 184.186933 149.454609 
L 184.213862 149.573037 
L 184.249768 149.260345 
L 184.348509 145.666273 
L 184.537014 128.676888 
L 185.012766 57.385427 
L 185.335918 27.293515 
L 185.416706 25.80823 
L 185.470565 26.326951 
L 185.578282 30.927097 
L 185.784741 51.488224 
L 186.628527 149.57429 
L 186.637503 149.563469 
L 186.691362 148.793824 
L 186.817032 142.425427 
L 187.05042 116.223312 
L 187.786489 26.395742 
L 187.840348 25.805257 
L 187.894206 26.423716 
L 188.0109 31.82103 
L 188.226335 54.468155 
L 189.025239 149.453831 
L 189.052168 149.57313 
L 189.088074 149.261601 
L 189.186815 145.670638 
L 189.37532 128.68624 
L 189.851072 57.396312 
L 190.174224 27.296237 
L 190.255012 25.808355 
L 190.308871 26.325334 
L 190.416588 30.922125 
L 190.623047 51.4781 
L 191.466833 149.574236 
L 191.475809 149.563707 
L 191.529668 148.795799 
L 191.655338 142.43125 
L 191.888726 116.234388 
L 192.624795 26.397463 
L 192.678653 25.805238 
L 192.732512 26.421957 
L 192.849206 31.815662 
L 193.064641 54.457624 
L 193.863545 149.453049 
L 193.890474 149.573221 
L 193.92638 149.262854 
L 194.025121 145.675 
L 194.213626 128.69559 
L 194.689378 57.407197 
L 195.01253 27.298962 
L 195.093318 25.808483 
L 195.147177 26.32372 
L 195.254894 30.917156 
L 195.461353 51.467978 
L 196.305139 149.574181 
L 196.314115 149.563942 
L 196.367974 148.797772 
L 196.493644 142.437071 
L 196.727032 116.245464 
L 197.463101 26.399188 
L 197.516959 25.805222 
L 197.570818 26.4202 
L 197.687512 31.810297 
L 197.902947 54.447094 
L 198.701851 149.452265 
L 198.72878 149.57331 
L 198.764686 149.264105 
L 198.863427 145.67936 
L 199.051932 128.704938 
L 199.527684 57.418084 
L 199.850836 27.301689 
L 199.931624 25.808613 
L 199.985483 26.322109 
L 200.0932 30.912189 
L 200.299658 51.457858 
L 201.143445 149.574123 
L 201.152421 149.564175 
L 201.20628 148.799743 
L 201.33195 142.44289 
L 201.565338 116.256537 
L 202.301407 26.400914 
L 202.355265 25.805208 
L 202.409124 26.418446 
L 202.525818 31.804934 
L 202.741253 54.436566 
L 203.540157 149.451479 
L 203.567086 149.573396 
L 203.602992 149.265353 
L 203.701733 145.683718 
L 203.890238 128.714285 
L 204.36599 57.428972 
L 204.689142 27.304419 
L 204.76993 25.808746 
L 204.823789 26.3205 
L 204.931506 30.907225 
L 205.137964 51.447739 
L 205.981751 149.574062 
L 205.990727 149.564405 
L 206.044586 148.801711 
L 206.170256 142.448707 
L 206.403644 116.26761 
L 207.139712 26.402643 
L 207.193571 25.805196 
L 207.24743 26.416694 
L 207.364124 31.799573 
L 207.579558 54.426039 
L 208.378462 149.45069 
L 208.405392 149.57348 
L 208.441298 149.266598 
L 208.540039 145.688073 
L 208.728544 128.72363 
L 209.204296 57.439862 
L 209.527448 27.307152 
L 209.608236 25.808882 
L 209.662095 26.318894 
L 209.769812 30.902263 
L 209.97627 51.437621 
L 210.820057 149.573999 
L 210.829033 149.564633 
L 210.882892 148.803677 
L 211.008562 142.454521 
L 211.24195 116.278682 
L 211.978018 26.404375 
L 212.031877 25.805187 
L 212.085736 26.414945 
L 212.20243 31.794215 
L 212.417864 54.415513 
L 213.216768 149.449898 
L 213.243698 149.573561 
L 213.279603 149.267841 
L 213.378344 145.692426 
L 213.56685 128.732974 
L 214.042602 57.450752 
L 214.365754 27.309886 
L 214.446542 25.809019 
L 214.500401 26.31729 
L 214.608118 30.897303 
L 214.814576 51.427505 
L 215.658362 149.573933 
L 215.667339 149.564859 
L 215.721198 148.80564 
L 215.846868 142.460333 
L 216.080256 116.289752 
L 216.816324 26.406109 
L 216.870183 25.805181 
L 216.924042 26.413198 
L 217.040736 31.788859 
L 217.25617 54.404989 
L 218.064051 149.524231 
L 218.082004 149.573639 
L 218.117909 149.269082 
L 218.21665 145.696777 
L 218.405156 128.742315 
L 218.880908 57.461644 
L 219.20406 27.312624 
L 219.284848 25.80916 
L 219.338706 26.315689 
L 219.446424 30.892345 
L 219.652882 51.417391 
L 220.496668 149.573865 
L 220.505645 149.565081 
L 220.559503 148.807601 
L 220.685174 142.466143 
L 220.918561 116.300822 
L 221.65463 26.407846 
L 221.708489 25.805177 
L 221.762348 26.411454 
L 221.879041 31.783505 
L 222.094476 54.394466 
L 222.902357 149.523725 
L 222.92031 149.573715 
L 222.956215 149.27032 
L 223.054956 145.701125 
L 223.243462 128.751655 
L 223.719213 57.472537 
L 224.042366 27.315363 
L 224.13213 25.809459 
L 224.177012 26.31409 
L 224.28473 30.88739 
L 224.491188 51.407277 
L 225.334974 149.573794 
L 225.343951 149.565302 
L 225.397809 148.809559 
L 225.52348 142.471951 
L 225.756867 116.31189 
L 226.492936 26.409585 
L 226.546795 25.805176 
L 226.600654 26.409712 
L 226.717347 31.778153 
L 226.932782 54.383944 
L 227.740663 149.523217 
L 227.758615 149.573789 
L 227.794521 149.271555 
L 227.893262 145.705471 
L 228.081768 128.760994 
L 228.557519 57.483431 
L 228.880672 27.318105 
L 228.970436 25.809313 
L 229.015318 26.312494 
L 229.123036 30.882437 
L 229.329494 51.397166 
L 230.17328 149.573721 
L 230.182257 149.565519 
L 230.236115 148.811515 
L 230.361786 142.477756 
L 230.595173 116.322957 
L 231.331242 26.411327 
L 231.385101 25.805177 
L 231.438959 26.407973 
L 231.555653 31.772804 
L 231.771088 54.373424 
L 232.578968 149.522706 
L 232.596921 149.57386 
L 232.632827 149.272789 
L 232.731568 145.709814 
L 232.920074 128.770331 
L 233.386849 58.761788 
L 233.718977 27.32085 
L 233.808742 25.80917 
L 233.853624 26.3109 
L 233.961342 30.877487 
L 234.1678 51.387056 
L 235.011586 149.573645 
L 235.020563 149.565734 
L 235.074421 148.813468 
L 235.200092 142.48356 
L 235.433479 116.334023 
L 236.169548 26.413071 
L 236.223407 25.805181 
L 236.277265 26.406236 
L 236.393959 31.767457 
L 236.609394 54.362905 
L 237.417274 149.522192 
L 237.435227 149.573928 
L 237.471133 149.274019 
L 237.569874 145.714156 
L 237.758379 128.779666 
L 238.225155 58.772824 
L 238.557283 27.323597 
L 238.647048 25.80903 
L 238.69193 26.309308 
L 238.799647 30.872538 
L 239.006106 51.376947 
L 239.849892 149.573566 
L 239.858868 149.565947 
L 239.912727 148.815419 
L 240.038397 142.489361 
L 240.271785 116.345087 
L 241.007854 26.414817 
L 241.061713 25.805187 
L 241.115571 26.404502 
L 241.232265 31.762112 
L 241.4477 54.352388 
L 242.25558 149.521676 
L 242.273533 149.573994 
L 242.309439 149.275247 
L 242.40818 145.718494 
L 242.596685 128.788999 
L 243.063461 58.783861 
L 243.395589 27.326346 
L 243.485354 25.808892 
L 243.530236 26.307719 
L 243.637953 30.867593 
L 243.844412 51.36684 
L 244.688198 149.573486 
L 244.697174 149.566157 
L 244.751033 148.817368 
L 244.876703 142.495159 
L 245.110091 116.356151 
L 245.84616 26.416566 
L 245.900019 25.805196 
L 245.953877 26.40277 
L 246.070571 31.756769 
L 246.286006 54.341872 
L 247.093886 149.521158 
L 247.111839 149.574057 
L 247.147745 149.276473 
L 247.246486 145.722831 
L 247.434991 128.798331 
L 247.901767 58.794899 
L 248.233895 27.329098 
L 248.32366 25.808756 
L 248.368542 26.306133 
L 248.476259 30.862649 
L 248.682718 51.356734 
L 249.526504 149.573402 
L 249.53548 149.566365 
L 249.589339 148.819313 
L 249.715009 142.500956 
L 249.948397 116.367213 
L 250.684466 26.418318 
L 250.738324 25.805207 
L 250.792183 26.40104 
L 250.908877 31.751429 
L 251.124312 54.331357 
L 251.932192 149.520637 
L 251.950145 149.574118 
L 251.986051 149.277696 
L 252.084792 145.727165 
L 252.273297 128.807661 
L 252.740073 58.805938 
L 253.072201 27.331853 
L 253.161966 25.808623 
L 253.206848 26.304549 
L 253.314565 30.857708 
L 253.521024 51.34663 
L 253.53 52.524164 
L 253.53 52.524164 
" clip-path="url(#pc00055b850)" style="fill: none; stroke: #808080; stroke-width: 1.5; stroke-linecap: square"/>
   </g>
   <g id="patch_3">
    <path d="M 74.01 155.94 
L 74.01 19.44 
" style="fill: none; stroke: #000000; stroke-width: 0.8; stroke-linejoin: miter; stroke-linecap: square"/>
   </g>
   <g id="patch_4">
    <path d="M 253.53 155.94 
L 253.53 19.44 
" style="fill: none; stroke: #000000; stroke-width: 0.8; stroke-linejoin: miter; stroke-linecap: square"/>
   </g>
   <g id="patch_5">
    <path d="M 74.01 155.94 
L 253.53 155.94 
" style="fill: none; stroke: #000000; stroke-width: 0.8; stroke-linejoin: miter; stroke-linecap: square"/>
   </g>
   <g id="patch_6">
    <path d="M 74.01 19.44 
L 253.53 19.44 
" style="fill: none; stroke: #000000; stroke-width: 0.8; stroke-linejoin: miter; stroke-linecap: square"/>
   </g>
  </g>
 </g>
 <defs>
  <clipPath id="pc00055b850">
   <rect x="74.01" y="19.44" width="179.52" height="136.5"/>
  </clipPath>
 </defs>
</svg>
