<?xml version="1.0" encoding="utf-8" standalone="no"?>
<!DOCTYPE svg PUBLIC "-//W3C//DTD SVG 1.1//EN"
  "http://www.w3.org/Graphics/SVG/1.1/DTD/svg11.dtd">
<svg xmlns:xlink="http://www.w3.org/1999/xlink" width="288pt" height="216pt" viewBox="0 0 288 216" xmlns="http://www.w3.org/2000/svg" version="1.1">
 <metadata>
  <rdf:RDF xmlns:dc="http://purl.org/dc/elements/1.1/" xmlns:cc="http://creativecommons.org/ns#" xmlns:rdf="http://www.w3.org/1999/02/22-rdf-syntax-ns#">
   <cc:Work>
    <dc:type rdf:resource="http://purl.org/dc/dcmitype/StillImage"/>
    <dc:date>2024-02-24T02:25:13.054081</dc:date>
    <dc:format>image/svg+xml</dc:format>
    <dc:creator>
     <cc:Agent>
      <dc:title>Matplotlib v3.7.2, https://matplotlib.org/</dc:title>
     </cc:Agent>
    </dc:creator>
   </cc:Work>
  </rdf:RDF>
 </metadata>
 <defs>
  <style type="text/css">*{stroke-linejoin: round; stroke-linecap: butt}</style>
 </defs>
 <g id="figure_1">
  <g id="patch_1">
   <path d="M 0 216 
L 288 216 
L 288 0 
L 0 0 
L 0 216 
z
" style="fill: none"/>
  </g>
  <g id="axes_1">
   <g id="patch_2">
    <path d="M 70.734 155.94 
L 253.575 155.94 
L 253.575 19.44 
L 70.734 19.44 
L 70.734 155.94 
z
" style="fill: none"/>
   </g>
   <g id="matplotlib.axis_1">
    <g id="xtick_1">
     <g id="line2d_1">
      <defs>
       <path id="m501a35b3da" d="M 0 0 
L 0 -3.5 
" style="stroke: #000000; stroke-width: 0.8"/>
      </defs>
      <g>
       <use xlink:href="#m501a35b3da" x="70.734" y="155.94" style="stroke: #000000; stroke-width: 0.8"/>
      </g>
     </g>
     <g id="text_1">
      <!-- 0 -->
      <g transform="translate(65.729156 172.324062) scale(0.18 -0.18)">
       <defs>
        <path id="ArialMT-30" d="M 266 2259 
Q 266 3072 433 3567 
Q 600 4063 929 4331 
Q 1259 4600 1759 4600 
Q 2128 4600 2406 4451 
Q 2684 4303 2865 4023 
Q 3047 3744 3150 3342 
Q 3253 2941 3253 2259 
Q 3253 1453 3087 958 
Q 2922 463 2592 192 
Q 2263 -78 1759 -78 
Q 1097 -78 719 397 
Q 266 969 266 2259 
z
M 844 2259 
Q 844 1131 1108 757 
Q 1372 384 1759 384 
Q 2147 384 2411 759 
Q 2675 1134 2675 2259 
Q 2675 3391 2411 3762 
Q 2147 4134 1753 4134 
Q 1366 4134 1134 3806 
Q 844 3388 844 2259 
z
" transform="scale(0.015625)"/>
       </defs>
       <use xlink:href="#ArialMT-30"/>
      </g>
     </g>
    </g>
    <g id="xtick_2">
     <g id="line2d_2">
      <g>
       <use xlink:href="#m501a35b3da" x="162.1545" y="155.94" style="stroke: #000000; stroke-width: 0.8"/>
      </g>
     </g>
     <g id="text_2">
      <!-- 100 -->
      <g transform="translate(147.139969 172.324062) scale(0.18 -0.18)">
       <defs>
        <path id="ArialMT-31" d="M 2384 0 
L 1822 0 
L 1822 3584 
Q 1619 3391 1289 3197 
Q 959 3003 697 2906 
L 697 3450 
Q 1169 3672 1522 3987 
Q 1875 4303 2022 4600 
L 2384 4600 
L 2384 0 
z
" transform="scale(0.015625)"/>
       </defs>
       <use xlink:href="#ArialMT-31"/>
       <use xlink:href="#ArialMT-30" x="55.615234"/>
       <use xlink:href="#ArialMT-30" x="111.230469"/>
      </g>
     </g>
    </g>
    <g id="xtick_3">
     <g id="line2d_3">
      <g>
       <use xlink:href="#m501a35b3da" x="253.575" y="155.94" style="stroke: #000000; stroke-width: 0.8"/>
      </g>
     </g>
     <g id="text_3">
      <!-- 200 -->
      <g transform="translate(238.560469 172.324062) scale(0.18 -0.18)">
       <defs>
        <path id="ArialMT-32" d="M 3222 541 
L 3222 0 
L 194 0 
Q 188 203 259 391 
Q 375 700 629 1000 
Q 884 1300 1366 1694 
Q 2113 2306 2375 2664 
Q 2638 3022 2638 3341 
Q 2638 3675 2398 3904 
Q 2159 4134 1775 4134 
Q 1369 4134 1125 3890 
Q 881 3647 878 3216 
L 300 3275 
Q 359 3922 746 4261 
Q 1134 4600 1788 4600 
Q 2447 4600 2831 4234 
Q 3216 3869 3216 3328 
Q 3216 3053 3103 2787 
Q 2991 2522 2730 2228 
Q 2469 1934 1863 1422 
Q 1356 997 1212 845 
Q 1069 694 975 541 
L 3222 541 
z
" transform="scale(0.015625)"/>
       </defs>
       <use xlink:href="#ArialMT-32"/>
       <use xlink:href="#ArialMT-30" x="55.615234"/>
       <use xlink:href="#ArialMT-30" x="111.230469"/>
      </g>
     </g>
    </g>
    <g id="text_4">
     <!-- $t$ -->
     <g transform="translate(158.5545 192.785625) scale(0.18 -0.18)">
      <defs>
       <path id="DejaVuSans-Oblique-74" d="M 2706 3500 
L 2619 3053 
L 1472 3053 
L 1100 1153 
Q 1081 1047 1072 975 
Q 1063 903 1063 863 
Q 1063 663 1183 572 
Q 1303 481 1569 481 
L 2150 481 
L 2053 0 
L 1503 0 
Q 991 0 739 200 
Q 488 400 488 806 
Q 488 878 497 964 
Q 506 1050 525 1153 
L 897 3053 
L 409 3053 
L 500 3500 
L 978 3500 
L 1172 4494 
L 1747 4494 
L 1556 3500 
L 2706 3500 
z
" transform="scale(0.015625)"/>
      </defs>
      <use xlink:href="#DejaVuSans-Oblique-74" transform="translate(0 0.78125)"/>
     </g>
    </g>
   </g>
   <g id="matplotlib.axis_2">
    <g id="ytick_1">
     <g id="line2d_4">
      <defs>
       <path id="m7c6832a58a" d="M 0 0 
L 3.5 0 
" style="stroke: #000000; stroke-width: 0.8"/>
      </defs>
      <g>
       <use xlink:href="#m7c6832a58a" x="70.734" y="154.229103" style="stroke: #000000; stroke-width: 0.8"/>
      </g>
     </g>
     <g id="text_5">
      <!-- 0.75 -->
      <g transform="translate(32.204313 160.671134) scale(0.18 -0.18)">
       <defs>
        <path id="ArialMT-2e" d="M 581 0 
L 581 641 
L 1222 641 
L 1222 0 
L 581 0 
z
" transform="scale(0.015625)"/>
        <path id="ArialMT-37" d="M 303 3981 
L 303 4522 
L 3269 4522 
L 3269 4084 
Q 2831 3619 2401 2847 
Q 1972 2075 1738 1259 
Q 1569 684 1522 0 
L 944 0 
Q 953 541 1156 1306 
Q 1359 2072 1739 2783 
Q 2119 3494 2547 3981 
L 303 3981 
z
" transform="scale(0.015625)"/>
        <path id="ArialMT-35" d="M 266 1200 
L 856 1250 
Q 922 819 1161 601 
Q 1400 384 1738 384 
Q 2144 384 2425 690 
Q 2706 997 2706 1503 
Q 2706 1984 2436 2262 
Q 2166 2541 1728 2541 
Q 1456 2541 1237 2417 
Q 1019 2294 894 2097 
L 366 2166 
L 809 4519 
L 3088 4519 
L 3088 3981 
L 1259 3981 
L 1013 2750 
Q 1425 3038 1878 3038 
Q 2478 3038 2890 2622 
Q 3303 2206 3303 1553 
Q 3303 931 2941 478 
Q 2500 -78 1738 -78 
Q 1113 -78 717 272 
Q 322 622 266 1200 
z
" transform="scale(0.015625)"/>
       </defs>
       <use xlink:href="#ArialMT-30"/>
       <use xlink:href="#ArialMT-2e" x="55.615234"/>
       <use xlink:href="#ArialMT-37" x="83.398438"/>
       <use xlink:href="#ArialMT-35" x="139.013672"/>
      </g>
     </g>
    </g>
    <g id="ytick_2">
     <g id="line2d_5">
      <g>
       <use xlink:href="#m7c6832a58a" x="70.734" y="97.994989" style="stroke: #000000; stroke-width: 0.8"/>
      </g>
     </g>
     <g id="text_6">
      <!-- 1.00 -->
      <g transform="translate(32.204313 104.43702) scale(0.18 -0.18)">
       <use xlink:href="#ArialMT-31"/>
       <use xlink:href="#ArialMT-2e" x="55.615234"/>
       <use xlink:href="#ArialMT-30" x="83.398438"/>
       <use xlink:href="#ArialMT-30" x="139.013672"/>
      </g>
     </g>
    </g>
    <g id="ytick_3">
     <g id="line2d_6">
      <g>
       <use xlink:href="#m7c6832a58a" x="70.734" y="41.760874" style="stroke: #000000; stroke-width: 0.8"/>
      </g>
     </g>
     <g id="text_7">
      <!-- 1.25 -->
      <g transform="translate(32.204313 48.202905) scale(0.18 -0.18)">
       <use xlink:href="#ArialMT-31"/>
       <use xlink:href="#ArialMT-2e" x="55.615234"/>
       <use xlink:href="#ArialMT-32" x="83.398438"/>
       <use xlink:href="#ArialMT-35" x="139.013672"/>
      </g>
     </g>
    </g>
    <g id="text_8">
     <!-- $r_i / r_0$ -->
     <g transform="translate(24.626813 104.43) rotate(-90) scale(0.18 -0.18)">
      <defs>
       <path id="DejaVuSans-Oblique-72" d="M 2853 2969 
Q 2766 3016 2653 3041 
Q 2541 3066 2413 3066 
Q 1953 3066 1609 2717 
Q 1266 2369 1153 1784 
L 800 0 
L 225 0 
L 909 3500 
L 1484 3500 
L 1375 2956 
Q 1603 3259 1920 3421 
Q 2238 3584 2597 3584 
Q 2691 3584 2781 3573 
Q 2872 3563 2963 3538 
L 2853 2969 
z
" transform="scale(0.015625)"/>
       <path id="DejaVuSans-Oblique-69" d="M 1172 4863 
L 1747 4863 
L 1606 4134 
L 1031 4134 
L 1172 4863 
z
M 909 3500 
L 1484 3500 
L 800 0 
L 225 0 
L 909 3500 
z
" transform="scale(0.015625)"/>
       <path id="DejaVuSans-2f" d="M 1625 4666 
L 2156 4666 
L 531 -594 
L 0 -594 
L 1625 4666 
z
" transform="scale(0.015625)"/>
       <path id="DejaVuSans-30" d="M 2034 4250 
Q 1547 4250 1301 3770 
Q 1056 3291 1056 2328 
Q 1056 1369 1301 889 
Q 1547 409 2034 409 
Q 2525 409 2770 889 
Q 3016 1369 3016 2328 
Q 3016 3291 2770 3770 
Q 2525 4250 2034 4250 
z
M 2034 4750 
Q 2819 4750 3233 4129 
Q 3647 3509 3647 2328 
Q 3647 1150 3233 529 
Q 2819 -91 2034 -91 
Q 1250 -91 836 529 
Q 422 1150 422 2328 
Q 422 3509 836 4129 
Q 1250 4750 2034 4750 
z
" transform="scale(0.015625)"/>
      </defs>
      <use xlink:href="#DejaVuSans-Oblique-72" transform="translate(0 0.09375)"/>
      <use xlink:href="#DejaVuSans-Oblique-69" transform="translate(41.113281 -16.3125) scale(0.7)"/>
      <use xlink:href="#DejaVuSans-2f" transform="translate(63.295898 0.09375)"/>
      <use xlink:href="#DejaVuSans-Oblique-72" transform="translate(96.987305 0.09375)"/>
      <use xlink:href="#DejaVuSans-30" transform="translate(138.100586 -16.3125) scale(0.7)"/>
     </g>
    </g>
   </g>
   <g id="line2d_7">
    <path d="M 70.734 97.994989 
L 253.575 97.994989 
L 253.575 97.994989 
" clip-path="url(#p1ed0d187a3)" style="fill: none; stroke: #000000; stroke-width: 1.5; stroke-linecap: square"/>
   </g>
   <g id="line2d_8">
    <path d="M 70.734 25.644545 
L 71.017418 64.765002 
L 71.757961 121.002432 
L 71.931668 122.004214 
L 72.050521 123.210855 
L 72.269941 128.421186 
L 72.937344 149.735455 
L 73.019627 148.403505 
L 73.147622 140.245802 
L 73.68703 98.592977 
L 73.732742 98.485497 
L 73.778455 98.636431 
L 73.924735 100.185181 
L 74.34529 107.809989 
L 74.957838 122.640298 
L 75.524674 142.404591 
L 75.780664 148.689568 
L 75.798949 148.648608 
L 75.862946 147.566917 
L 75.990942 140.010423 
L 76.557777 98.507633 
L 76.585205 98.484458 
L 76.621775 98.592443 
L 76.74977 99.815091 
L 77.11547 106.135329 
L 77.746303 120.767701 
L 78.285711 138.865363 
L 78.633126 148.676022 
L 78.651411 148.645794 
L 78.715409 147.609702 
L 78.834261 140.950245 
L 79.428524 98.481923 
L 79.437667 98.482937 
L 79.492522 98.684236 
L 79.647944 100.425925 
L 80.095927 108.693792 
L 80.699333 123.60611 
L 81.494731 148.67648 
L 81.586156 147.079981 
L 81.723294 137.789612 
L 82.216989 98.835531 
L 82.290129 98.481857 
L 82.335842 98.619598 
L 82.472979 100.00903 
L 82.866107 106.968887 
L 83.487797 121.68759 
L 84.036348 140.464184 
L 84.347193 148.677883 
L 84.356336 148.660824 
L 84.411191 147.948602 
L 84.520901 142.692335 
L 84.776891 114.954951 
L 85.032881 99.409435 
L 85.142591 98.481233 
L 85.188304 98.609497 
L 85.325441 99.982794 
L 85.718569 106.930276 
L 86.34026 121.632979 
L 86.88881 140.391059 
L 87.199655 148.678147 
L 87.208798 148.666613 
L 87.263653 147.992872 
L 87.373363 142.832949 
L 87.620211 116.154453 
L 87.876201 99.63613 
L 87.995053 98.481071 
L 88.031623 98.558194 
L 88.150476 99.600751 
L 88.479606 105.096508 
L 89.110439 119.310391 
L 89.640705 136.481246 
L 90.052118 148.677282 
L 90.070403 148.638651 
L 90.1344 147.567183 
L 90.253253 140.827818 
L 90.847516 98.481377 
L 90.893228 98.590334 
L 91.021223 99.80931 
L 91.386924 106.126344 
L 92.017757 120.754722 
L 92.557165 138.847381 
L 92.90458 148.675299 
L 92.922865 148.647759 
L 92.986862 147.623005 
L 93.105715 140.989276 
L 93.699978 98.482156 
L 93.70912 98.482632 
L 93.763975 98.681283 
L 93.919398 100.419049 
L 94.367381 108.684014 
L 94.970786 123.592155 
L 95.766185 148.676927 
L 95.85761 147.096771 
L 95.994747 137.835615 
L 96.488443 98.84068 
L 96.561583 98.481662 
L 96.616438 98.669356 
L 96.77186 100.390893 
L 97.219843 108.643907 
L 97.823249 123.534943 
L 98.618647 148.678052 
L 98.710072 147.164655 
L 98.847209 138.023488 
L 99.350047 98.765944 
L 99.414045 98.481151 
L 99.4689 98.657751 
L 99.61518 100.231144 
L 100.035735 107.848094 
L 100.648283 122.671108 
L 101.215119 142.434333 
L 101.471109 148.678039 
L 101.489394 148.630949 
L 101.553392 147.523918 
L 101.681387 139.908487 
L 102.23908 98.534322 
L 102.266507 98.481102 
L 102.31222 98.597416 
L 102.440215 99.828393 
L 102.805915 106.155 
L 103.436748 120.795128 
L 103.976156 138.903003 
L 104.323571 148.676901 
L 104.332714 148.672163 
L 104.378426 148.227421 
L 104.478994 144.23484 
L 104.670986 125.007459 
L 104.981832 100.142888 
L 105.118969 98.481523 
L 105.146397 98.517807 
L 105.237822 99.156434 
L 105.493812 103.01183 
L 106.115503 116.184956 
L 106.65491 132.339175 
L 107.185176 148.675313 
L 107.212603 148.5153 
L 107.294886 146.303496 
L 107.450309 133.850324 
L 107.861721 99.533522 
L 107.980574 98.482354 
L 108.017144 98.579128 
L 108.145139 99.778119 
L 108.501697 105.899697 
L 109.13253 120.435581 
L 109.671938 138.406175 
L 110.037638 148.677306 
L 110.046781 148.657395 
L 110.101636 147.925328 
L 110.211346 142.619588 
L 110.467336 114.849859 
L 110.723326 99.390673 
L 110.833036 98.481495 
L 110.869606 98.570521 
L 110.988459 99.636946 
L 111.326732 105.328585 
L 111.957565 119.634659 
L 112.48783 136.938183 
L 112.8901 148.678153 
L 112.899243 148.663794 
L 112.954098 147.970368 
L 113.063808 142.761092 
L 113.310656 116.046253 
L 113.566646 99.61473 
L 113.685498 98.481096 
L 113.722069 98.562277 
L 113.840921 99.612973 
L 114.179194 105.291469 
L 114.810027 119.582757 
L 115.340292 136.865187 
L 115.742563 148.677865 
L 115.760848 148.633507 
L 115.824845 147.53796 
L 115.95284 139.950165 
L 116.519676 98.506126 
L 116.547103 98.484956 
L 116.583673 98.595111 
L 116.711668 99.822234 
L 117.077369 106.145764 
L 117.708202 120.782103 
L 118.24761 138.885078 
L 118.595025 148.676454 
L 118.61331 148.643243 
L 118.677307 147.594589 
L 118.79616 140.906725 
L 119.390423 98.481697 
L 119.399565 98.483305 
L 119.45442 98.68752 
L 119.609843 100.433526 
L 120.057826 108.704586 
L 120.661231 123.621511 
L 121.45663 148.675905 
L 121.548055 147.061341 
L 121.685192 137.738764 
L 122.178888 98.8299 
L 122.252028 98.482102 
L 122.29774 98.622372 
L 122.434878 100.016107 
L 122.828006 106.979273 
L 123.449696 121.702284 
L 123.998247 140.483836 
L 124.309092 148.677618 
L 124.318234 148.659065 
L 124.373089 147.936444 
L 124.482799 142.654235 
L 124.73879 114.899793 
L 124.99478 99.399566 
L 125.10449 98.481355 
L 125.14106 98.568478 
L 125.259912 99.631088 
L 125.598185 105.319536 
L 126.229018 119.622004 
L 126.759284 136.920389 
L 127.161554 148.678187 
L 127.170696 148.665173 
L 127.225552 147.981117 
L 127.335262 142.795316 
L 127.582109 116.097668 
L 127.8381 99.624875 
L 127.956952 98.481069 
L 127.993522 98.560324 
L 128.112375 99.607156 
L 128.441505 105.106431 
L 129.072338 119.324244 
L 129.602603 136.500809 
L 130.014016 148.677624 
L 130.032301 148.635993 
L 130.096299 147.551907 
L 130.224294 139.991748 
L 130.791129 98.50737 
L 130.818557 98.484512 
L 130.855127 98.592828 
L 130.983122 99.816084 
L 131.348822 106.136529 
L 131.979655 120.769081 
L 132.519063 138.867154 
L 132.866478 148.675941 
L 132.884763 148.64543 
L 132.948761 147.608152 
L 133.067614 140.946031 
L 133.661877 98.4819 
L 133.671019 98.48297 
L 133.725874 98.684544 
L 133.881297 100.426639 
L 134.32928 108.694803 
L 134.932685 123.60755 
L 135.728083 148.676429 
L 135.819508 147.078242 
L 135.956646 137.784862 
L 136.450341 98.835003 
L 136.523481 98.481878 
L 136.569194 98.619856 
L 136.706331 100.009691 
L 137.099459 106.969857 
L 137.72115 121.688963 
L 138.2697 140.466021 
L 138.580545 148.677861 
L 138.589688 148.660663 
L 138.644543 147.94747 
L 138.754253 142.688779 
L 139.010243 114.949792 
L 139.266233 99.40851 
L 139.375943 98.481243 
L 139.421656 98.609746 
L 139.558794 99.983451 
L 139.951921 106.931246 
L 140.573612 121.63435 
L 141.122162 140.392897 
L 141.433008 148.678154 
L 141.44215 148.666482 
L 141.497005 147.991777 
L 141.606715 142.829437 
L 141.853563 116.149142 
L 142.109553 99.635075 
L 142.228406 98.481069 
L 142.264976 98.558392 
L 142.383828 99.60135 
L 142.712959 105.097435 
L 143.343792 119.311685 
L 143.874057 136.483075 
L 144.28547 148.677317 
L 144.303755 148.638406 
L 144.367752 147.56576 
L 144.486605 140.82374 
L 145.080868 98.481363 
L 145.12658 98.590566 
L 145.254576 99.809943 
L 145.620276 106.127296 
L 146.251109 120.756064 
L 146.790517 138.849229 
L 147.137932 148.675363 
L 147.156217 148.647545 
L 147.220215 147.621622 
L 147.339067 140.985239 
L 147.93333 98.482131 
L 147.942473 98.482662 
L 147.997328 98.681587 
L 148.15275 100.419758 
L 148.600733 108.685023 
L 149.204139 123.593594 
L 149.999537 148.676884 
L 150.090962 147.095044 
L 150.228099 137.830875 
L 150.721795 98.840147 
L 150.794935 98.481681 
L 150.84979 98.669652 
L 151.005213 100.3916 
L 151.453195 108.644914 
L 152.056601 123.53638 
L 152.851999 148.678037 
L 152.943424 147.162969 
L 153.080562 138.018785 
L 153.5834 98.765477 
L 153.647397 98.481158 
L 153.702252 98.658039 
L 153.848532 100.231833 
L 154.269088 107.849084 
L 154.881636 122.672515 
L 155.448471 142.436115 
L 155.704461 148.678053 
L 155.722746 148.63068 
L 155.786744 147.522465 
L 155.914739 139.904184 
L 156.472432 98.534134 
L 156.499859 98.481098 
L 156.545572 98.597654 
L 156.673567 99.829029 
L 157.039267 106.155953 
L 157.6701 120.796472 
L 158.209508 138.904852 
L 158.556923 148.676943 
L 158.566066 148.672069 
L 158.611778 148.226548 
L 158.712346 144.231802 
L 158.904339 125.001606 
L 159.215184 100.141572 
L 159.352322 98.481507 
L 159.379749 98.517947 
L 159.471174 99.156934 
L 159.727164 103.012696 
L 160.348855 116.186155 
L 160.888263 132.340908 
L 161.418528 148.675248 
L 161.445956 148.51479 
L 161.528238 146.301337 
L 161.683661 133.84497 
L 162.095074 99.532525 
L 162.213926 98.482381 
L 162.250496 98.579349 
L 162.378491 99.778747 
L 162.735049 105.900644 
L 163.365882 120.436913 
L 163.90529 138.408023 
L 164.27099 148.67727 
L 164.280133 148.657218 
L 164.334988 147.924176 
L 164.444698 142.61601 
L 164.700688 114.844714 
L 164.956678 99.389759 
L 165.066389 98.481511 
L 165.102959 98.570733 
L 165.221811 99.63755 
L 165.560084 105.329518 
L 166.190917 119.635964 
L 166.721182 136.940018 
L 167.123453 148.678146 
L 167.132595 148.663648 
L 167.18745 147.969255 
L 167.29716 142.757557 
L 167.544008 116.040955 
L 167.799998 99.613687 
L 167.918851 98.4811 
L 167.955421 98.56248 
L 168.074273 99.613574 
L 168.412546 105.292401 
L 169.043379 119.58406 
L 169.573645 136.867021 
L 169.975915 148.677886 
L 169.9942 148.633247 
L 170.058197 147.536516 
L 170.186193 139.945872 
L 170.753028 98.505999 
L 170.780455 98.485003 
L 170.817026 98.595348 
L 170.945021 99.822869 
L 171.310721 106.146716 
L 171.941554 120.783446 
L 172.480962 138.886927 
L 172.828377 148.676503 
L 172.846662 148.643013 
L 172.91066 147.593185 
L 173.029512 140.902666 
L 173.623775 98.481678 
L 173.632918 98.483341 
L 173.687773 98.687828 
L 173.843195 100.434236 
L 174.291178 108.705594 
L 174.894584 123.62295 
L 175.689982 148.675847 
L 175.781407 147.059593 
L 175.918544 137.734006 
L 176.41224 98.829377 
L 176.48538 98.482127 
L 176.531092 98.622632 
L 176.66823 100.016769 
L 177.061358 106.980244 
L 177.683048 121.703658 
L 178.231599 140.485673 
L 178.542444 148.677589 
L 178.551587 148.658896 
L 178.606442 147.935302 
L 178.716152 142.650667 
L 178.972142 114.894641 
L 179.228132 99.398646 
L 179.337842 98.481369 
L 179.374412 98.568688 
L 179.493265 99.631691 
L 179.831538 105.320469 
L 180.462371 119.623308 
L 180.992636 136.922224 
L 181.394906 148.678187 
L 181.404049 148.665034 
L 181.458904 147.980013 
L 181.568614 142.791792 
L 181.815462 116.092364 
L 182.071452 99.623827 
L 182.190304 98.48107 
L 182.226874 98.560524 
L 182.345727 99.607756 
L 182.674857 105.107359 
L 183.30569 119.325539 
L 183.835956 136.502637 
L 184.247368 148.677652 
L 184.265653 148.63574 
L 184.329651 147.550473 
L 184.457646 139.987465 
L 185.024482 98.50724 
L 185.051909 98.484557 
L 185.088479 98.593063 
L 185.216474 99.816718 
L 185.582175 106.137481 
L 186.213008 120.770424 
L 186.752415 138.869002 
L 187.099831 148.675997 
L 187.118116 148.645208 
L 187.182113 147.606758 
L 187.300966 140.941982 
L 187.895229 98.481878 
L 187.904371 98.483003 
L 187.959226 98.68485 
L 188.114649 100.427348 
L 188.562632 108.695812 
L 189.166037 123.608989 
L 189.961435 148.676378 
L 190.05286 147.076503 
L 190.189998 137.780112 
L 190.683693 98.834475 
L 190.756834 98.4819 
L 190.802546 98.620115 
L 190.939684 100.010352 
L 191.332811 106.970828 
L 191.954502 121.690337 
L 192.503052 140.467858 
L 192.813898 148.677839 
L 192.82304 148.660502 
L 192.877895 147.946337 
L 192.987605 142.685222 
L 193.243595 114.944633 
L 193.499586 99.407585 
L 193.609296 98.481253 
L 193.645866 98.566664 
L 193.764718 99.625842 
L 194.102991 105.311421 
L 194.733824 119.610656 
L 195.26409 136.904432 
L 195.66636 148.67816 
L 195.675502 148.66635 
L 195.730357 147.990682 
L 195.840068 142.825923 
L 196.086915 116.143832 
L 196.342905 99.634021 
L 196.461758 98.481068 
L 196.498328 98.558591 
L 196.617181 99.601948 
L 196.946311 105.098363 
L 197.577144 119.31298 
L 198.107409 136.484903 
L 198.518822 148.677352 
L 198.537107 148.638161 
L 198.601105 147.564336 
L 198.719957 140.81966 
L 199.31422 98.48135 
L 199.359933 98.590798 
L 199.487928 99.810576 
L 199.853628 106.128248 
L 200.484461 120.757406 
L 201.023869 138.851077 
L 201.371284 148.675425 
L 201.389569 148.647331 
L 201.453567 147.620237 
L 201.572419 140.981201 
L 202.166682 98.482106 
L 202.175825 98.482693 
L 202.23068 98.681891 
L 202.386103 100.420467 
L 202.834085 108.686031 
L 203.437491 123.595033 
L 204.232889 148.67684 
L 204.324314 147.093316 
L 204.461452 137.826134 
L 204.955147 98.839614 
L 205.028287 98.4817 
L 205.083142 98.669948 
L 205.238565 100.392306 
L 205.686548 108.645922 
L 206.289953 123.537817 
L 207.085351 148.678022 
L 207.176776 147.161282 
L 207.313914 138.01408 
L 207.816752 98.76501 
L 207.880749 98.481165 
L 207.935604 98.658326 
L 208.081885 100.232521 
L 208.50244 107.850074 
L 209.114988 122.673922 
L 209.681823 142.437896 
L 209.937813 148.678067 
L 209.956099 148.630412 
L 210.020096 147.521011 
L 210.148091 139.89988 
L 210.705784 98.533947 
L 210.733212 98.481094 
L 210.778924 98.597893 
L 210.906919 99.829665 
L 211.27262 106.156906 
L 211.903453 120.797815 
L 212.44286 138.9067 
L 212.790276 148.676985 
L 212.799418 148.671974 
L 212.845131 148.225674 
L 212.945698 144.228763 
L 213.137691 124.995753 
L 213.448536 100.140255 
L 213.585674 98.481491 
L 213.613101 98.518087 
L 213.704526 99.157433 
L 213.960517 103.013562 
L 214.582207 116.187353 
L 215.121615 132.34264 
L 215.65188 148.675183 
L 215.679308 148.51428 
L 215.761591 146.299176 
L 215.917013 133.839616 
L 216.328426 99.531528 
L 216.447279 98.482409 
L 216.483849 98.57957 
L 216.611844 99.779375 
L 216.968401 105.90159 
L 217.599234 120.438244 
L 218.138642 138.40987 
L 218.504343 148.677234 
L 218.513485 148.657041 
L 218.56834 147.923024 
L 218.67805 142.61243 
L 218.934041 114.83957 
L 219.190031 99.388846 
L 219.299741 98.481527 
L 219.336311 98.570945 
L 219.455163 99.638155 
L 219.793436 105.330451 
L 220.424269 119.63727 
L 220.954535 136.941853 
L 221.356805 148.678138 
L 221.365947 148.663501 
L 221.420802 147.96814 
L 221.530513 142.754021 
L 221.77736 116.035658 
L 222.03335 99.612644 
L 222.152203 98.481105 
L 222.188773 98.562683 
L 222.307626 99.614174 
L 222.645898 105.293334 
L 223.276731 119.585364 
L 223.806997 136.868855 
L 224.209267 148.677907 
L 224.227552 148.632986 
L 224.29155 147.535072 
L 224.419545 139.941577 
L 224.98638 98.505873 
L 225.013808 98.485051 
L 225.050378 98.595585 
L 225.178373 99.823504 
L 225.544073 106.147668 
L 226.174906 120.784789 
L 226.714314 138.888775 
L 227.061729 148.676552 
L 227.080014 148.642783 
L 227.144012 147.591781 
L 227.262864 140.898607 
L 227.857127 98.481659 
L 227.86627 98.483377 
L 227.921125 98.688136 
L 228.076548 100.434947 
L 228.52453 108.706603 
L 229.127936 123.62439 
L 229.923334 148.675789 
L 230.014759 147.057844 
L 230.151897 137.729247 
L 230.645592 98.828853 
L 230.718732 98.482152 
L 230.764445 98.622893 
L 230.901582 100.017431 
L 231.29471 106.981215 
L 231.916401 121.705032 
L 232.464951 140.487509 
L 232.775796 148.677559 
L 232.784939 148.658726 
L 232.839794 147.934159 
L 232.949504 142.647098 
L 233.205494 114.88949 
L 233.461484 99.397728 
L 233.571194 98.481382 
L 233.607764 98.568898 
L 233.726617 99.632295 
L 234.06489 105.321402 
L 234.695723 119.624613 
L 235.225988 136.924058 
L 235.628259 148.678186 
L 235.637401 148.664895 
L 235.692256 147.978908 
L 235.801966 142.788266 
L 236.048814 116.08706 
L 236.304804 99.622779 
L 236.423657 98.481072 
L 236.460227 98.560725 
L 236.579079 99.608355 
L 236.90821 105.108287 
L 237.539043 119.326834 
L 238.069308 136.504466 
L 238.480721 148.67768 
L 238.499006 148.635487 
L 238.563003 147.549038 
L 238.690998 139.98318 
L 239.257834 98.507111 
L 239.285261 98.484602 
L 239.321831 98.593297 
L 239.449826 99.817352 
L 239.815527 106.138433 
L 240.44636 120.771766 
L 240.985768 138.87085 
L 241.333183 148.676052 
L 241.351468 148.644985 
L 241.415466 147.605363 
L 241.534318 140.937933 
L 242.128581 98.481856 
L 242.137724 98.483037 
L 242.192579 98.685156 
L 242.348001 100.428058 
L 242.795984 108.69682 
L 243.39939 123.610429 
L 244.194788 148.676326 
L 244.286213 147.074764 
L 244.42335 137.775362 
L 244.917046 98.833947 
L 244.990186 98.481922 
L 245.035898 98.620373 
L 245.173036 100.011014 
L 245.566164 106.971799 
L 246.187854 121.69171 
L 246.736405 140.469695 
L 247.04725 148.677817 
L 247.056392 148.660339 
L 247.111247 147.945204 
L 247.220958 142.681663 
L 247.476948 114.939475 
L 247.732938 99.406661 
L 247.842648 98.481264 
L 247.879218 98.566872 
L 247.998071 99.626445 
L 248.336343 105.312354 
L 248.967176 119.611961 
L 249.497442 136.906266 
L 249.899712 148.678166 
L 249.908855 148.666218 
L 249.96371 147.989586 
L 250.07342 142.822408 
L 250.320267 116.138522 
L 250.576258 99.632967 
L 250.69511 98.481067 
L 250.73168 98.558789 
L 250.850533 99.602546 
L 251.179663 105.09929 
L 251.810496 119.314275 
L 252.340762 136.486732 
L 252.752174 148.677386 
L 252.770459 148.637914 
L 252.834457 147.562911 
L 252.95331 140.815579 
L 253.547572 98.481337 
L 253.575 98.519603 
L 253.575 98.519603 
" clip-path="url(#p1ed0d187a3)" style="fill: none; stroke: #808080; stroke-width: 1.5; stroke-linecap: square"/>
   </g>
   <g id="line2d_9">
    <path d="M 70.734 108.419541 
L 71.13627 78.964616 
L 71.227695 77.987165 
L 71.273408 78.221387 
L 71.383118 80.564714 
L 71.584253 90.746263 
L 71.931668 106.516001 
L 72.626499 122.465476 
L 73.019627 132.749842 
L 73.047054 132.645775 
L 73.120194 131.065332 
L 73.266474 121.622785 
L 73.641317 97.70068 
L 73.751027 96.878498 
L 73.79674 96.958755 
L 73.933877 97.94838 
L 74.49157 104.489725 
L 75.030978 112.661331 
L 75.442391 122.700553 
L 75.862946 133.576407 
L 75.899517 133.395879 
L 75.981799 131.235293 
L 76.146364 119.262698 
L 76.484637 97.924996 
L 76.60349 96.950792 
L 76.64006 97.000088 
L 76.758912 97.75513 
L 77.197753 102.709901 
L 77.828586 111.630639 
L 78.239998 121.048744 
L 78.715409 133.584436 
L 78.770264 133.179433 
L 78.870831 129.508306 
L 79.126822 107.893284 
L 79.364527 97.52609 
L 79.465094 96.951762 
L 79.510807 97.058253 
L 79.657087 98.170069 
L 80.278777 105.531908 
L 80.781615 113.503353 
L 81.193028 124.00169 
L 81.577013 133.585345 
L 81.604441 133.443667 
L 81.686724 131.401623 
L 81.851289 119.620742 
L 82.189561 97.996802 
L 82.317557 96.951237 
L 82.354127 97.017386 
L 82.482122 97.887269 
L 82.98496 103.664006 
L 83.560937 112.060505 
L 83.97235 121.731326 
L 84.429476 133.586608 
L 84.466046 133.365632 
L 84.557471 130.672063 
L 84.740321 116.35542 
L 85.042024 98.033704 
L 85.170019 96.951059 
L 85.206589 97.01119 
L 85.325441 97.786212 
L 85.773424 102.861553 
L 86.395115 111.691753 
L 86.806528 121.145659 
L 87.281938 133.586794 
L 87.32765 133.269558 
L 87.419076 130.314645 
L 87.620211 113.959205 
L 87.903628 97.899116 
L 88.022481 96.951243 
L 88.059051 97.005272 
L 88.177904 97.769007 
L 88.616744 102.727993 
L 89.247577 111.657085 
L 89.65899 121.090555 
L 90.1344 133.585915 
L 90.189255 133.154927 
L 90.289823 129.424851 
L 90.554955 107.071958 
L 90.792661 97.395852 
L 90.884086 96.95241 
L 90.929798 97.064271 
L 91.076078 98.184578 
L 91.697769 105.550835 
L 92.200607 113.532504 
L 92.61202 124.04698 
L 92.986862 133.583983 
L 93.01429 133.507538 
L 93.08743 132.036067 
L 93.23371 122.804421 
L 93.626838 97.661784 
L 93.736548 96.951609 
L 93.773118 97.022255 
L 93.901113 97.900792 
L 94.403951 103.681854 
L 94.979929 112.08734 
L 95.391342 121.773902 
L 95.848467 133.585753 
L 95.885037 133.347756 
L 95.976462 130.601846 
L 96.168455 115.354997 
L 96.461015 98.005723 
L 96.58901 96.95116 
L 96.62558 97.015851 
L 96.753575 97.882923 
L 97.247271 103.546194 
L 97.832391 112.051866 
L 98.243804 121.717618 
L 98.700929 133.586752 
L 98.746642 133.247987 
L 98.847209 129.750984 
L 99.075772 110.529372 
L 99.331762 97.720948 
L 99.441472 96.95107 
L 99.487185 97.041297 
L 99.624323 98.037975 
L 100.191158 104.657303 
L 100.730566 112.878638 
L 101.141979 123.024557 
L 101.553392 133.586677 
L 101.589962 133.393442 
L 101.672244 131.197899 
L 101.836809 119.169578 
L 102.165939 98.080704 
L 102.293935 96.951343 
L 102.330505 97.003873 
L 102.449357 97.764831 
L 102.888198 102.722344 
L 103.519031 111.648646 
L 103.930443 121.077141 
L 104.405854 133.585541 
L 104.460709 133.162938 
L 104.561276 129.451852 
L 104.826409 107.107595 
L 105.064114 97.401197 
L 105.155539 96.952183 
L 105.201252 97.062319 
L 105.347532 98.179901 
L 105.969222 105.544736 
L 106.47206 113.523106 
L 106.883473 124.032381 
L 107.267458 133.584279 
L 107.294886 133.434063 
L 107.377169 131.360852 
L 107.541734 119.528885 
L 107.880006 97.978191 
L 108.008002 96.951467 
L 108.044572 97.020669 
L 108.172567 97.896428 
L 108.675405 103.676102 
L 109.251383 112.078688 
L 109.662795 121.760175 
L 110.119921 133.586096 
L 110.156491 133.353597 
L 110.247916 130.62457 
L 110.439908 115.39912 
L 110.732469 98.014691 
L 110.860464 96.951105 
L 110.897034 97.014332 
L 111.025029 97.878583 
L 111.518724 103.540459 
L 112.103845 112.043231 
L 112.515258 121.703916 
L 112.972383 133.586832 
L 113.018095 133.255021 
L 113.118663 129.776882 
L 113.347226 110.570051 
L 113.603216 97.728353 
L 113.712926 96.951103 
L 113.758639 97.039532 
L 113.895776 98.033447 
L 114.462612 104.651395 
L 115.00202 112.869582 
L 115.413432 123.010313 
L 115.824845 133.586498 
L 115.861415 133.398661 
L 115.943698 131.218085 
L 116.108263 119.213435 
L 116.437393 98.090058 
L 116.565388 96.951465 
L 116.601958 97.00249 
L 116.720811 97.76066 
L 117.159651 102.716696 
L 117.790484 111.640211 
L 118.201897 121.063733 
L 118.677307 133.585104 
L 118.732162 133.170868 
L 118.83273 129.478763 
L 119.08872 107.852482 
L 119.326425 97.519282 
L 119.426993 96.951976 
L 119.472705 97.060382 
L 119.618986 98.175229 
L 120.240676 105.538638 
L 120.743514 113.513712 
L 121.154927 124.017787 
L 121.538912 133.584822 
L 121.56634 133.438671 
L 121.648622 131.380289 
L 121.813187 119.572574 
L 122.15146 97.987014 
L 122.279455 96.951346 
L 122.316025 97.019099 
L 122.44402 97.89207 
L 122.946858 103.67035 
L 123.522836 112.07004 
L 123.934249 121.746454 
L 124.391374 133.586375 
L 124.427944 133.359362 
L 124.519369 130.647202 
L 124.70222 116.306541 
L 125.003922 98.023706 
L 125.131917 96.951071 
L 125.168487 97.012829 
L 125.28734 97.790856 
L 125.744465 102.978386 
L 126.357013 111.701085 
L 126.768426 121.160492 
L 127.243837 133.586849 
L 127.289549 133.261976 
L 127.390117 129.802689 
L 127.618679 110.610778 
L 127.87467 97.735801 
L 127.98438 96.951157 
L 128.030092 97.037783 
L 128.16723 98.028924 
L 128.734065 104.645488 
L 129.273473 112.86053 
L 129.684886 122.996073 
L 130.096299 133.586255 
L 130.132869 133.403805 
L 130.215151 131.238181 
L 130.379716 119.257272 
L 130.717989 97.924458 
L 130.836842 96.951609 
L 130.873412 97.001124 
L 130.992264 97.756496 
L 131.431105 102.711049 
L 132.061938 111.631781 
L 132.473351 121.050332 
L 132.948761 133.584605 
L 133.003616 133.178718 
L 133.104184 129.505585 
L 133.360174 107.88945 
L 133.597879 97.525457 
L 133.698447 96.95179 
L 133.744159 97.058461 
L 133.890439 98.170561 
L 134.51213 105.532541 
L 135.014968 113.504324 
L 135.42638 124.003197 
L 135.810366 133.5853 
L 135.837793 133.443204 
L 135.920076 131.399634 
L 136.084641 119.61624 
L 136.422914 97.995884 
L 136.550909 96.951246 
L 136.587479 97.017546 
L 136.715474 97.887718 
L 137.218312 103.664599 
L 137.79429 112.061396 
L 138.205703 121.73274 
L 138.662828 133.586589 
L 138.699398 133.36505 
L 138.790823 130.669744 
L 138.973673 116.350851 
L 139.275376 98.032767 
L 139.403371 96.951059 
L 139.439941 97.011343 
L 139.558794 97.786646 
L 140.006776 102.862137 
L 140.628467 111.692625 
L 141.03988 121.147045 
L 141.51529 133.586802 
L 141.561003 133.268853 
L 141.66157 129.828407 
L 141.890133 110.65155 
L 142.146123 97.743292 
L 142.255833 96.951234 
L 142.301546 97.036049 
L 142.438683 98.024405 
L 142.996376 104.52454 
L 143.535784 112.675862 
L 143.947197 122.705159 
L 144.367752 133.58595 
L 144.404322 133.408875 
L 144.486605 131.258184 
L 144.65117 119.301089 
L 144.989443 97.932997 
L 145.108295 96.951775 
L 145.144865 96.999775 
L 145.263718 97.752339 
L 145.702558 102.705401 
L 146.333391 111.623355 
L 146.744804 121.036937 
L 147.220215 133.584044 
L 147.27507 133.186488 
L 147.375637 129.532318 
L 147.622485 108.66094 
L 147.869333 97.531672 
L 147.9699 96.951624 
L 148.015613 97.056554 
L 148.161893 98.165897 
L 148.783583 105.526446 
L 149.286421 113.49494 
L 149.697834 123.988611 
L 150.081819 133.585714 
L 150.109247 133.447665 
L 150.191529 131.418888 
L 150.356095 119.659884 
L 150.694367 98.004801 
L 150.822362 96.951167 
L 150.858932 97.016009 
L 150.986928 97.883371 
L 151.480623 103.546785 
L 152.065743 112.052756 
L 152.477156 121.719031 
L 152.934282 133.58674 
L 152.979994 133.247257 
L 153.080562 129.748308 
L 153.309124 110.52518 
L 153.565115 97.720186 
L 153.674825 96.951068 
L 153.720537 97.04148 
L 153.857675 98.038442 
L 154.42451 104.657912 
L 154.963918 112.879572 
L 155.375331 123.026026 
L 155.786744 133.586692 
L 155.823314 133.392899 
L 155.905596 131.195812 
L 156.070162 119.165055 
L 156.399292 98.079742 
L 156.527287 96.951332 
L 156.563857 97.004016 
L 156.682709 97.765261 
L 157.12155 102.722927 
L 157.752383 111.649516 
L 158.163796 121.078524 
L 158.639206 133.585582 
L 158.694061 133.162115 
L 158.794629 129.449072 
L 159.059761 107.103917 
L 159.297467 97.400644 
L 159.388892 96.952205 
L 159.434604 97.06252 
L 159.580884 98.180383 
L 160.202575 105.545365 
L 160.705413 113.524075 
L 161.116825 124.033886 
L 161.500811 133.584219 
L 161.528238 133.433583 
L 161.610521 131.358843 
L 161.775086 119.524379 
L 162.113359 97.977283 
L 162.241354 96.95148 
L 162.277924 97.020832 
L 162.405919 97.896878 
L 162.908757 103.676695 
L 163.484735 112.07958 
L 163.896148 121.761591 
L 164.353273 133.586064 
L 164.389843 133.352998 
L 164.481268 130.622231 
L 164.673261 115.39457 
L 164.965821 98.013764 
L 165.093816 96.95111 
L 165.130386 97.014488 
L 165.258381 97.87903 
L 165.752077 103.54105 
L 166.337197 112.044121 
L 166.74861 121.705328 
L 167.205735 133.586827 
L 167.251448 133.254299 
L 167.352015 129.774215 
L 167.580578 110.565855 
L 167.836568 97.727587 
L 167.946278 96.951098 
L 167.991991 97.039713 
L 168.129128 98.033913 
L 168.695964 104.652004 
L 169.235372 112.870515 
L 169.646785 123.011781 
L 170.058197 133.586519 
L 170.094767 133.398126 
L 170.17705 131.216008 
L 170.341615 119.208913 
L 170.670745 98.089092 
L 170.79874 96.951451 
L 170.835311 97.002632 
L 170.954163 97.76109 
L 171.393003 102.717279 
L 172.023836 111.641081 
L 172.435249 121.065115 
L 172.91066 133.585152 
L 172.965515 133.170054 
L 173.066082 129.475992 
L 173.322072 107.848673 
L 173.559778 97.518648 
L 173.660345 96.951996 
L 173.706058 97.060581 
L 173.852338 98.17571 
L 174.474028 105.539267 
L 174.976866 113.514681 
L 175.388279 124.019291 
L 175.772264 133.584769 
L 175.799692 133.438199 
L 175.881974 131.378289 
L 176.04654 119.56807 
L 176.384812 97.986102 
L 176.512807 96.951357 
L 176.549377 97.01926 
L 176.677373 97.892519 
L 177.18021 103.670943 
L 177.756188 112.070931 
L 178.167601 121.747869 
L 178.624727 133.586349 
L 178.661297 133.358771 
L 178.752722 130.644873 
L 178.935572 116.301973 
L 179.237275 98.022774 
L 179.36527 96.951074 
L 179.40184 97.012983 
L 179.520692 97.791291 
L 179.977818 102.978971 
L 180.590366 111.701958 
L 181.001778 121.161879 
L 181.477189 133.58685 
L 181.522901 133.261263 
L 181.623469 129.800032 
L 181.852032 110.606576 
L 182.108022 97.735031 
L 182.217732 96.951151 
L 182.263444 97.037963 
L 182.400582 98.02939 
L 182.967417 104.646097 
L 183.506825 112.861464 
L 183.918238 122.997541 
L 184.329651 133.586283 
L 184.366221 133.403278 
L 184.448504 131.236113 
L 184.613069 119.252752 
L 184.942199 98.098489 
L 185.070194 96.951593 
L 185.106764 97.001264 
L 185.225617 97.756925 
L 185.664457 102.711631 
L 186.29529 111.63265 
L 186.706703 121.051714 
L 187.182113 133.58466 
L 187.236968 133.177912 
L 187.337536 129.502823 
L 187.593526 107.885635 
L 187.831231 97.524819 
L 187.931799 96.951808 
L 187.977511 97.058658 
L 188.123791 98.171042 
L 188.745482 105.53317 
L 189.24832 113.505291 
L 189.659733 124.004701 
L 190.043718 133.585254 
L 190.071146 133.44274 
L 190.153428 131.397644 
L 190.317993 119.611739 
L 190.656266 97.994968 
L 190.784261 96.951255 
L 190.820831 97.017705 
L 190.948826 97.888166 
L 191.451664 103.665192 
L 192.027642 112.062287 
L 192.439055 121.734153 
L 192.89618 133.58657 
L 192.93275 133.364467 
L 193.024175 130.667424 
L 193.207025 116.346282 
L 193.508728 98.031831 
L 193.636723 96.951059 
L 193.673293 97.011495 
L 193.792146 97.78708 
L 194.240129 102.862721 
L 194.861819 111.693497 
L 195.273232 121.148432 
L 195.748642 133.58681 
L 195.794355 133.268148 
L 195.894923 129.825759 
L 196.123485 110.647344 
L 196.379475 97.742518 
L 196.489186 96.951225 
L 196.534898 97.036227 
L 196.672036 98.024871 
L 197.229729 104.525146 
L 197.769137 112.676785 
L 198.180549 122.706615 
L 198.601105 133.585985 
L 198.637675 133.408356 
L 198.719957 131.256126 
L 198.884522 119.296572 
L 199.222795 97.932114 
L 199.341648 96.951757 
L 199.378218 96.999913 
L 199.49707 97.752767 
L 199.935911 102.705984 
L 200.566744 111.624223 
L 200.978157 121.038318 
L 201.453567 133.584105 
L 201.508422 133.185691 
L 201.608989 129.529565 
L 201.855837 108.657002 
L 202.102685 97.531029 
L 202.203252 96.95164 
L 202.248965 97.05675 
L 202.395245 98.166378 
L 203.016936 105.527075 
L 203.519773 113.495907 
L 203.931186 123.990115 
L 204.315172 133.585674 
L 204.342599 133.447208 
L 204.424882 131.416907 
L 204.589447 119.655385 
L 204.92772 98.003879 
L 205.055715 96.951174 
L 205.092285 97.016166 
L 205.22028 97.883819 
L 205.713975 103.547376 
L 206.299096 112.053647 
L 206.710508 121.720444 
L 207.167634 133.586727 
L 207.213346 133.246526 
L 207.313914 129.745632 
L 207.542477 110.520988 
L 207.798467 97.719426 
L 207.908177 96.951066 
L 207.953889 97.041663 
L 208.091027 98.038909 
L 208.657862 104.658522 
L 209.19727 112.880506 
L 209.608683 123.027496 
L 210.020096 133.586707 
L 210.056666 133.392356 
L 210.138949 131.193724 
L 210.303514 119.160532 
L 210.632644 98.078781 
L 210.760639 96.95132 
L 210.797209 97.00416 
L 210.916062 97.765691 
L 211.354902 102.723509 
L 211.985735 111.650386 
L 212.397148 121.079906 
L 212.872558 133.585623 
L 212.927413 133.161292 
L 213.027981 129.446291 
L 213.293114 107.10024 
L 213.530819 97.400092 
L 213.622244 96.952228 
L 213.667956 97.06272 
L 213.814237 98.180865 
L 214.435927 105.545994 
L 214.938765 113.525043 
L 215.350178 124.035392 
L 215.734163 133.584158 
L 215.761591 133.433103 
L 215.843873 131.356832 
L 216.008438 119.519873 
L 216.346711 97.976377 
L 216.474706 96.951494 
L 216.511276 97.020995 
L 216.639271 97.897328 
L 217.142109 103.677288 
L 217.718087 112.080472 
L 218.1295 121.763006 
L 218.586625 133.586031 
L 218.623195 133.352399 
L 218.71462 130.619891 
L 218.906613 115.39002 
L 219.199173 98.012838 
L 219.327168 96.951115 
L 219.363738 97.014644 
L 219.491733 97.879478 
L 219.985429 103.541641 
L 220.570549 112.045011 
L 220.981962 121.706741 
L 221.439087 133.586821 
L 221.4848 133.253576 
L 221.585368 129.771548 
L 221.81393 110.561658 
L 222.06992 97.726822 
L 222.179631 96.951094 
L 222.225343 97.039895 
L 222.362481 98.03438 
L 222.929316 104.652613 
L 223.468724 112.871449 
L 223.880137 123.01325 
L 224.29155 133.58654 
L 224.32812 133.397591 
L 224.410402 131.21393 
L 224.574967 119.204392 
L 224.904098 98.088125 
L 225.032093 96.951438 
L 225.068663 97.002774 
L 225.187515 97.76152 
L 225.626356 102.717861 
L 226.257189 111.64195 
L 226.668602 121.066498 
L 227.144012 133.585199 
L 227.198867 133.169239 
L 227.299435 129.47322 
L 227.555425 107.844865 
L 227.79313 97.518014 
L 227.893697 96.952017 
L 227.93941 97.060781 
L 228.08569 98.176192 
L 228.707381 105.539895 
L 229.210219 113.515649 
L 229.621631 124.020796 
L 230.005617 133.584715 
L 230.033044 133.437726 
L 230.115327 131.376288 
L 230.279892 119.563566 
L 230.618165 97.985191 
L 230.74616 96.951369 
L 230.78273 97.019422 
L 230.910725 97.892968 
L 231.413563 103.671536 
L 231.989541 112.071823 
L 232.400953 121.749284 
L 232.858079 133.586323 
L 232.894649 133.358179 
L 232.986074 130.642542 
L 233.168924 116.297404 
L 233.470627 98.021843 
L 233.598622 96.951076 
L 233.635192 97.013138 
L 233.754045 97.791725 
L 234.21117 102.979556 
L 234.823718 111.702831 
L 235.235131 121.163266 
L 235.710541 133.586851 
L 235.756254 133.260548 
L 235.856821 129.797374 
L 236.085384 110.602375 
L 236.341374 97.734262 
L 236.451084 96.951144 
L 236.496797 97.038142 
L 236.633934 98.029856 
L 237.20077 104.646706 
L 237.740178 112.862397 
L 238.15159 122.999009 
L 238.563003 133.586311 
L 238.599573 133.402751 
L 238.681856 131.234044 
L 238.846421 119.248233 
L 239.175551 98.097518 
L 239.303546 96.951578 
L 239.340116 97.001404 
L 239.458969 97.757355 
L 239.897809 102.712213 
L 240.528642 111.633519 
L 240.940055 121.053095 
L 241.415466 133.584713 
L 241.470321 133.177106 
L 241.570888 129.500061 
L 241.826878 107.881821 
L 242.064584 97.52418 
L 242.165151 96.951826 
L 242.210864 97.058856 
L 242.357144 98.171523 
L 242.978834 105.533798 
L 243.481672 113.506259 
L 243.893085 124.006205 
L 244.27707 133.585207 
L 244.304498 133.442275 
L 244.38678 131.395652 
L 244.551345 119.607237 
L 244.889618 97.994051 
L 245.017613 96.951265 
L 245.054183 97.017865 
L 245.182178 97.888615 
L 245.685016 103.665785 
L 246.260994 112.063178 
L 246.672407 121.735567 
L 247.129532 133.58655 
L 247.166103 133.363883 
L 247.257528 130.665103 
L 247.440378 116.341713 
L 247.74208 98.030895 
L 247.870076 96.95106 
L 247.906646 97.011648 
L 248.025498 97.787514 
L 248.473481 102.863304 
L 249.095172 111.69437 
L 249.506584 121.149818 
L 249.981995 133.586817 
L 250.027707 133.267441 
L 250.128275 129.82311 
L 250.356837 110.643138 
L 250.612828 97.741744 
L 250.722538 96.951216 
L 250.76825 97.036406 
L 250.905388 98.025337 
L 251.463081 104.525753 
L 252.002489 112.677709 
L 252.413902 122.708072 
L 252.834457 133.586018 
L 252.871027 133.407836 
L 252.95331 131.254066 
L 253.117875 119.292055 
L 253.456147 97.931232 
L 253.575 96.951739 
L 253.575 96.951739 
" clip-path="url(#p1ed0d187a3)" style="fill: none; stroke: #808080; stroke-width: 1.5; stroke-linecap: square"/>
   </g>
   <g id="patch_3">
    <path d="M 70.734 155.94 
L 70.734 19.44 
" style="fill: none; stroke: #000000; stroke-width: 0.8; stroke-linejoin: miter; stroke-linecap: square"/>
   </g>
   <g id="patch_4">
    <path d="M 253.575 155.94 
L 253.575 19.44 
" style="fill: none; stroke: #000000; stroke-width: 0.8; stroke-linejoin: miter; stroke-linecap: square"/>
   </g>
   <g id="patch_5">
    <path d="M 70.734 155.94 
L 253.575 155.94 
" style="fill: none; stroke: #000000; stroke-width: 0.8; stroke-linejoin: miter; stroke-linecap: square"/>
   </g>
   <g id="patch_6">
    <path d="M 70.734 19.44 
L 253.575 19.44 
" style="fill: none; stroke: #000000; stroke-width: 0.8; stroke-linejoin: miter; stroke-linecap: square"/>
   </g>
  </g>
 </g>
 <defs>
  <clipPath id="p1ed0d187a3">
   <rect x="70.734" y="19.44" width="182.841" height="136.5"/>
  </clipPath>
 </defs>
</svg>
