<?xml version="1.0" encoding="utf-8" standalone="no"?>
<!DOCTYPE svg PUBLIC "-//W3C//DTD SVG 1.1//EN"
  "http://www.w3.org/Graphics/SVG/1.1/DTD/svg11.dtd">
<svg xmlns:xlink="http://www.w3.org/1999/xlink" width="288pt" height="216pt" viewBox="0 0 288 216" xmlns="http://www.w3.org/2000/svg" version="1.1">
 <metadata>
  <rdf:RDF xmlns:dc="http://purl.org/dc/elements/1.1/" xmlns:cc="http://creativecommons.org/ns#" xmlns:rdf="http://www.w3.org/1999/02/22-rdf-syntax-ns#">
   <cc:Work>
    <dc:type rdf:resource="http://purl.org/dc/dcmitype/StillImage"/>
    <dc:date>2024-07-16T09:58:44.227570</dc:date>
    <dc:format>image/svg+xml</dc:format>
    <dc:creator>
     <cc:Agent>
      <dc:title>Matplotlib v3.7.2, https://matplotlib.org/</dc:title>
     </cc:Agent>
    </dc:creator>
   </cc:Work>
  </rdf:RDF>
 </metadata>
 <defs>
  <style type="text/css">*{stroke-linejoin: round; stroke-linecap: butt}</style>
 </defs>
 <g id="figure_1">
  <g id="patch_1">
   <path d="M 0 216 
L 288 216 
L 288 0 
L 0 0 
L 0 216 
z
" style="fill: none"/>
  </g>
  <g id="axes_1">
   <g id="patch_2">
    <path d="M 57.648 161.7 
L 252.9 161.7 
L 252.9 17.28 
L 57.648 17.28 
L 57.648 161.7 
z
" style="fill: none"/>
   </g>
   <g id="matplotlib.axis_1">
    <g id="xtick_1">
     <g id="line2d_1">
      <defs>
       <path id="m1885d33d99" d="M 0 0 
L 0 -3.5 
" style="stroke: #000000; stroke-width: 0.8"/>
      </defs>
      <g>
       <use xlink:href="#m1885d33d99" x="57.648" y="161.7" style="stroke: #000000; stroke-width: 0.8"/>
      </g>
     </g>
     <g id="text_1">
      <!-- 0 -->
      <g transform="translate(53.19925 176.6525) scale(0.16 -0.16)">
       <defs>
        <path id="ArialMT-30" d="M 266 2259 
Q 266 3072 433 3567 
Q 600 4063 929 4331 
Q 1259 4600 1759 4600 
Q 2128 4600 2406 4451 
Q 2684 4303 2865 4023 
Q 3047 3744 3150 3342 
Q 3253 2941 3253 2259 
Q 3253 1453 3087 958 
Q 2922 463 2592 192 
Q 2263 -78 1759 -78 
Q 1097 -78 719 397 
Q 266 969 266 2259 
z
M 844 2259 
Q 844 1131 1108 757 
Q 1372 384 1759 384 
Q 2147 384 2411 759 
Q 2675 1134 2675 2259 
Q 2675 3391 2411 3762 
Q 2147 4134 1753 4134 
Q 1366 4134 1134 3806 
Q 844 3388 844 2259 
z
" transform="scale(0.015625)"/>
       </defs>
       <use xlink:href="#ArialMT-30"/>
      </g>
     </g>
    </g>
    <g id="xtick_2">
     <g id="line2d_2">
      <g>
       <use xlink:href="#m1885d33d99" x="106.461" y="161.7" style="stroke: #000000; stroke-width: 0.8"/>
      </g>
     </g>
     <g id="text_2">
      <!-- 1000 -->
      <g transform="translate(88.666 176.6525) scale(0.16 -0.16)">
       <defs>
        <path id="ArialMT-31" d="M 2384 0 
L 1822 0 
L 1822 3584 
Q 1619 3391 1289 3197 
Q 959 3003 697 2906 
L 697 3450 
Q 1169 3672 1522 3987 
Q 1875 4303 2022 4600 
L 2384 4600 
L 2384 0 
z
" transform="scale(0.015625)"/>
       </defs>
       <use xlink:href="#ArialMT-31"/>
       <use xlink:href="#ArialMT-30" x="55.615234"/>
       <use xlink:href="#ArialMT-30" x="111.230469"/>
       <use xlink:href="#ArialMT-30" x="166.845703"/>
      </g>
     </g>
    </g>
    <g id="xtick_3">
     <g id="line2d_3">
      <g>
       <use xlink:href="#m1885d33d99" x="155.274" y="161.7" style="stroke: #000000; stroke-width: 0.8"/>
      </g>
     </g>
     <g id="text_3">
      <!-- 2000 -->
      <g transform="translate(137.479 176.6525) scale(0.16 -0.16)">
       <defs>
        <path id="ArialMT-32" d="M 3222 541 
L 3222 0 
L 194 0 
Q 188 203 259 391 
Q 375 700 629 1000 
Q 884 1300 1366 1694 
Q 2113 2306 2375 2664 
Q 2638 3022 2638 3341 
Q 2638 3675 2398 3904 
Q 2159 4134 1775 4134 
Q 1369 4134 1125 3890 
Q 881 3647 878 3216 
L 300 3275 
Q 359 3922 746 4261 
Q 1134 4600 1788 4600 
Q 2447 4600 2831 4234 
Q 3216 3869 3216 3328 
Q 3216 3053 3103 2787 
Q 2991 2522 2730 2228 
Q 2469 1934 1863 1422 
Q 1356 997 1212 845 
Q 1069 694 975 541 
L 3222 541 
z
" transform="scale(0.015625)"/>
       </defs>
       <use xlink:href="#ArialMT-32"/>
       <use xlink:href="#ArialMT-30" x="55.615234"/>
       <use xlink:href="#ArialMT-30" x="111.230469"/>
       <use xlink:href="#ArialMT-30" x="166.845703"/>
      </g>
     </g>
    </g>
    <g id="xtick_4">
     <g id="line2d_4">
      <g>
       <use xlink:href="#m1885d33d99" x="204.087" y="161.7" style="stroke: #000000; stroke-width: 0.8"/>
      </g>
     </g>
     <g id="text_4">
      <!-- 3000 -->
      <g transform="translate(186.292 176.6525) scale(0.16 -0.16)">
       <defs>
        <path id="ArialMT-33" d="M 269 1209 
L 831 1284 
Q 928 806 1161 595 
Q 1394 384 1728 384 
Q 2125 384 2398 659 
Q 2672 934 2672 1341 
Q 2672 1728 2419 1979 
Q 2166 2231 1775 2231 
Q 1616 2231 1378 2169 
L 1441 2663 
Q 1497 2656 1531 2656 
Q 1891 2656 2178 2843 
Q 2466 3031 2466 3422 
Q 2466 3731 2256 3934 
Q 2047 4138 1716 4138 
Q 1388 4138 1169 3931 
Q 950 3725 888 3313 
L 325 3413 
Q 428 3978 793 4289 
Q 1159 4600 1703 4600 
Q 2078 4600 2393 4439 
Q 2709 4278 2876 4000 
Q 3044 3722 3044 3409 
Q 3044 3113 2884 2869 
Q 2725 2625 2413 2481 
Q 2819 2388 3044 2092 
Q 3269 1797 3269 1353 
Q 3269 753 2831 336 
Q 2394 -81 1725 -81 
Q 1122 -81 723 278 
Q 325 638 269 1209 
z
" transform="scale(0.015625)"/>
       </defs>
       <use xlink:href="#ArialMT-33"/>
       <use xlink:href="#ArialMT-30" x="55.615234"/>
       <use xlink:href="#ArialMT-30" x="111.230469"/>
       <use xlink:href="#ArialMT-30" x="166.845703"/>
      </g>
     </g>
    </g>
    <g id="xtick_5">
     <g id="line2d_5">
      <g>
       <use xlink:href="#m1885d33d99" x="252.9" y="161.7" style="stroke: #000000; stroke-width: 0.8"/>
      </g>
     </g>
     <g id="text_5">
      <!-- 4000 -->
      <g transform="translate(235.105 176.6525) scale(0.16 -0.16)">
       <defs>
        <path id="ArialMT-34" d="M 2069 0 
L 2069 1097 
L 81 1097 
L 81 1613 
L 2172 4581 
L 2631 4581 
L 2631 1613 
L 3250 1613 
L 3250 1097 
L 2631 1097 
L 2631 0 
L 2069 0 
z
M 2069 1613 
L 2069 3678 
L 634 1613 
L 2069 1613 
z
" transform="scale(0.015625)"/>
       </defs>
       <use xlink:href="#ArialMT-34"/>
       <use xlink:href="#ArialMT-30" x="55.615234"/>
       <use xlink:href="#ArialMT-30" x="111.230469"/>
       <use xlink:href="#ArialMT-30" x="166.845703"/>
      </g>
     </g>
    </g>
    <g id="text_6">
     <!-- $t$ -->
     <g transform="translate(152.074 195.285) scale(0.16 -0.16)">
      <defs>
       <path id="DejaVuSans-Oblique-74" d="M 2706 3500 
L 2619 3053 
L 1472 3053 
L 1100 1153 
Q 1081 1047 1072 975 
Q 1063 903 1063 863 
Q 1063 663 1183 572 
Q 1303 481 1569 481 
L 2150 481 
L 2053 0 
L 1503 0 
Q 991 0 739 200 
Q 488 400 488 806 
Q 488 878 497 964 
Q 506 1050 525 1153 
L 897 3053 
L 409 3053 
L 500 3500 
L 978 3500 
L 1172 4494 
L 1747 4494 
L 1556 3500 
L 2706 3500 
z
" transform="scale(0.015625)"/>
      </defs>
      <use xlink:href="#DejaVuSans-Oblique-74" transform="translate(0 0.78125)"/>
     </g>
    </g>
   </g>
   <g id="matplotlib.axis_2">
    <g id="ytick_1">
     <g id="line2d_6">
      <defs>
       <path id="ma546cff400" d="M 0 0 
L 3.5 0 
" style="stroke: #000000; stroke-width: 0.8"/>
      </defs>
      <g>
       <use xlink:href="#ma546cff400" x="57.648" y="130.688414" style="stroke: #000000; stroke-width: 0.8"/>
      </g>
     </g>
     <g id="text_7">
      <!-- $\mathdefault{10^{0}}$ -->
      <g transform="translate(29.028 138.938414) scale(0.16 -0.16)">
       <use xlink:href="#ArialMT-31" transform="translate(0 0.99375)"/>
       <use xlink:href="#ArialMT-30" transform="translate(55.615234 0.99375)"/>
       <use xlink:href="#ArialMT-30" transform="translate(112.972813 70.6875) scale(0.7)"/>
      </g>
     </g>
    </g>
    <g id="ytick_2">
     <g id="line2d_7">
      <g>
       <use xlink:href="#ma546cff400" x="57.648" y="63.079607" style="stroke: #000000; stroke-width: 0.8"/>
      </g>
     </g>
     <g id="text_8">
      <!-- $\mathdefault{10^{1}}$ -->
      <g transform="translate(29.028 71.329607) scale(0.16 -0.16)">
       <use xlink:href="#ArialMT-31" transform="translate(0 0.99375)"/>
       <use xlink:href="#ArialMT-30" transform="translate(55.615234 0.99375)"/>
       <use xlink:href="#ArialMT-31" transform="translate(112.972813 70.6875) scale(0.7)"/>
      </g>
     </g>
    </g>
    <g id="ytick_3">
     <g id="line2d_8">
      <defs>
       <path id="m2097440bd6" d="M 0 0 
L 2 0 
" style="stroke: #000000; stroke-width: 0.6"/>
      </defs>
      <g>
       <use xlink:href="#m2097440bd6" x="57.648" y="157.592663" style="stroke: #000000; stroke-width: 0.6"/>
      </g>
     </g>
    </g>
    <g id="ytick_4">
     <g id="line2d_9">
      <g>
       <use xlink:href="#m2097440bd6" x="57.648" y="151.040693" style="stroke: #000000; stroke-width: 0.6"/>
      </g>
     </g>
    </g>
    <g id="ytick_5">
     <g id="line2d_10">
      <g>
       <use xlink:href="#m2097440bd6" x="57.648" y="145.687343" style="stroke: #000000; stroke-width: 0.6"/>
      </g>
     </g>
    </g>
    <g id="ytick_6">
     <g id="line2d_11">
      <g>
       <use xlink:href="#m2097440bd6" x="57.648" y="141.161151" style="stroke: #000000; stroke-width: 0.6"/>
      </g>
     </g>
    </g>
    <g id="ytick_7">
     <g id="line2d_12">
      <g>
       <use xlink:href="#m2097440bd6" x="57.648" y="137.240384" style="stroke: #000000; stroke-width: 0.6"/>
      </g>
     </g>
    </g>
    <g id="ytick_8">
     <g id="line2d_13">
      <g>
       <use xlink:href="#m2097440bd6" x="57.648" y="133.782023" style="stroke: #000000; stroke-width: 0.6"/>
      </g>
     </g>
    </g>
    <g id="ytick_9">
     <g id="line2d_14">
      <g>
       <use xlink:href="#m2097440bd6" x="57.648" y="110.336135" style="stroke: #000000; stroke-width: 0.6"/>
      </g>
     </g>
    </g>
    <g id="ytick_10">
     <g id="line2d_15">
      <g>
       <use xlink:href="#m2097440bd6" x="57.648" y="98.430815" style="stroke: #000000; stroke-width: 0.6"/>
      </g>
     </g>
    </g>
    <g id="ytick_11">
     <g id="line2d_16">
      <g>
       <use xlink:href="#m2097440bd6" x="57.648" y="89.983856" style="stroke: #000000; stroke-width: 0.6"/>
      </g>
     </g>
    </g>
    <g id="ytick_12">
     <g id="line2d_17">
      <g>
       <use xlink:href="#m2097440bd6" x="57.648" y="83.431886" style="stroke: #000000; stroke-width: 0.6"/>
      </g>
     </g>
    </g>
    <g id="ytick_13">
     <g id="line2d_18">
      <g>
       <use xlink:href="#m2097440bd6" x="57.648" y="78.078536" style="stroke: #000000; stroke-width: 0.6"/>
      </g>
     </g>
    </g>
    <g id="ytick_14">
     <g id="line2d_19">
      <g>
       <use xlink:href="#m2097440bd6" x="57.648" y="73.552344" style="stroke: #000000; stroke-width: 0.6"/>
      </g>
     </g>
    </g>
    <g id="ytick_15">
     <g id="line2d_20">
      <g>
       <use xlink:href="#m2097440bd6" x="57.648" y="69.631577" style="stroke: #000000; stroke-width: 0.6"/>
      </g>
     </g>
    </g>
    <g id="ytick_16">
     <g id="line2d_21">
      <g>
       <use xlink:href="#m2097440bd6" x="57.648" y="66.173216" style="stroke: #000000; stroke-width: 0.6"/>
      </g>
     </g>
    </g>
    <g id="ytick_17">
     <g id="line2d_22">
      <g>
       <use xlink:href="#m2097440bd6" x="57.648" y="42.727328" style="stroke: #000000; stroke-width: 0.6"/>
      </g>
     </g>
    </g>
    <g id="ytick_18">
     <g id="line2d_23">
      <g>
       <use xlink:href="#m2097440bd6" x="57.648" y="30.822008" style="stroke: #000000; stroke-width: 0.6"/>
      </g>
     </g>
    </g>
    <g id="ytick_19">
     <g id="line2d_24">
      <g>
       <use xlink:href="#m2097440bd6" x="57.648" y="22.375049" style="stroke: #000000; stroke-width: 0.6"/>
      </g>
     </g>
    </g>
    <g id="text_9">
     <!-- $r_i$ -->
     <g transform="translate(21.848 94.61) rotate(-90) scale(0.16 -0.16)">
      <defs>
       <path id="DejaVuSans-Oblique-72" d="M 2853 2969 
Q 2766 3016 2653 3041 
Q 2541 3066 2413 3066 
Q 1953 3066 1609 2717 
Q 1266 2369 1153 1784 
L 800 0 
L 225 0 
L 909 3500 
L 1484 3500 
L 1375 2956 
Q 1603 3259 1920 3421 
Q 2238 3584 2597 3584 
Q 2691 3584 2781 3573 
Q 2872 3563 2963 3538 
L 2853 2969 
z
" transform="scale(0.015625)"/>
       <path id="DejaVuSans-Oblique-69" d="M 1172 4863 
L 1747 4863 
L 1606 4134 
L 1031 4134 
L 1172 4863 
z
M 909 3500 
L 1484 3500 
L 800 0 
L 225 0 
L 909 3500 
z
" transform="scale(0.015625)"/>
      </defs>
      <use xlink:href="#DejaVuSans-Oblique-72"/>
      <use xlink:href="#DejaVuSans-Oblique-69" transform="translate(41.113281 -16.40625) scale(0.7)"/>
     </g>
    </g>
   </g>
   <g id="line2d_25">
    <path d="M 57.648 155.135455 
L 57.694861 132.185241 
L 57.886212 26.34875 
L 57.909643 26.463756 
L 58.233768 28.075842 
L 58.585228 28.638596 
L 59.14366 29.080423 
L 60.28786 29.928937 
L 60.588554 30.48802 
L 60.795525 31.395561 
L 60.94392 33.190567 
L 61.076694 37.878973 
L 61.107935 35.203868 
L 61.186037 23.845576 
L 61.264139 25.236911 
L 61.494541 27.495365 
L 61.78352 28.317878 
L 62.189652 28.803243 
L 62.958961 29.312051 
L 63.677502 29.876473 
L 63.997722 30.425595 
L 64.208598 31.267126 
L 64.364803 32.961438 
L 64.493672 37.472859 
L 64.509293 37.87933 
L 64.540533 35.189442 
L 64.618636 23.845449 
L 64.696738 25.238304 
L 64.92714 27.495709 
L 65.216119 28.318006 
L 65.622251 28.803305 
L 66.391559 29.312095 
L 67.110101 29.876558 
L 67.430321 30.425783 
L 67.641197 31.267583 
L 67.797402 32.962802 
L 67.926271 37.475837 
L 67.941891 37.879667 
L 67.973132 35.17498 
L 68.051235 23.845329 
L 68.129337 25.239697 
L 68.359739 27.496053 
L 68.648718 28.318134 
L 69.05485 28.803368 
L 69.824158 29.312139 
L 70.5427 29.876644 
L 70.86292 30.425971 
L 71.073796 31.26804 
L 71.230001 32.964167 
L 71.35887 37.478808 
L 71.37449 37.879984 
L 71.405731 35.160481 
L 71.483833 23.845219 
L 71.561936 25.24109 
L 71.792338 27.496397 
L 72.081317 28.318262 
L 72.487449 28.80343 
L 73.256757 29.312184 
L 73.975299 29.87673 
L 74.295518 30.426159 
L 74.506395 31.268498 
L 74.6626 32.965533 
L 74.791468 37.481773 
L 74.807089 37.880282 
L 74.83833 35.145945 
L 74.916432 23.845116 
L 74.994535 25.242481 
L 75.224937 27.496741 
L 75.513915 28.31839 
L 75.920048 28.803492 
L 76.689356 29.312228 
L 77.407898 29.876816 
L 77.728117 30.426347 
L 77.938994 31.268955 
L 78.095198 32.966901 
L 78.224067 37.484731 
L 78.239688 37.880559 
L 78.270929 35.131374 
L 78.349031 23.845023 
L 78.427133 25.243873 
L 78.657535 27.497084 
L 78.946514 28.318518 
L 79.352646 28.803554 
L 80.121955 29.312272 
L 80.840496 29.876902 
L 81.160716 30.426535 
L 81.371592 31.269413 
L 81.527797 32.968269 
L 81.656666 37.487683 
L 81.672287 37.880817 
L 81.703528 35.116766 
L 81.78163 23.844938 
L 81.859732 25.245263 
L 82.090134 27.497428 
L 82.379113 28.318646 
L 82.785245 28.803617 
L 83.554553 29.312317 
L 84.273095 29.876988 
L 84.593315 30.426723 
L 84.804191 31.269871 
L 84.960396 32.969637 
L 85.089265 37.490628 
L 85.104885 37.881054 
L 85.136126 35.102122 
L 85.214229 23.844861 
L 85.292331 25.246653 
L 85.522733 27.497771 
L 85.811712 28.318774 
L 86.217844 28.803679 
L 86.987152 29.312361 
L 87.705694 29.877074 
L 88.025914 30.426911 
L 88.23679 31.270329 
L 88.392995 32.971007 
L 88.521864 37.493566 
L 88.537484 37.881271 
L 88.56482 35.819197 
L 88.646827 23.844793 
L 88.728835 25.321338 
L 88.959237 27.516284 
L 89.248216 28.325704 
L 89.654348 28.807059 
L 90.431466 29.31952 
L 91.142198 29.881773 
L 91.458513 30.4271 
L 91.669389 31.270788 
L 91.825594 32.972378 
L 91.954463 37.496498 
L 91.970083 37.881468 
L 91.997419 35.806519 
L 92.079426 23.844733 
L 92.161434 25.322693 
L 92.391836 27.516621 
L 92.680814 28.325831 
L 93.086947 28.807121 
L 93.864065 29.319564 
L 94.574797 29.88186 
L 94.891111 30.427288 
L 95.101988 31.271247 
L 95.258192 32.973749 
L 95.387061 37.499423 
L 95.402682 37.881644 
L 95.430018 35.7938 
L 95.512025 23.844681 
L 95.594033 25.324047 
L 95.824435 27.516957 
L 96.113413 28.325958 
L 96.519546 28.807183 
L 97.296664 29.319609 
L 98.007396 29.881947 
L 98.32371 30.427476 
L 98.534587 31.271705 
L 98.690791 32.975122 
L 98.81966 37.502342 
L 98.835281 37.8818 
L 98.862616 35.781042 
L 98.944624 23.844638 
L 99.026631 25.3254 
L 99.257033 27.517294 
L 99.546012 28.326084 
L 99.952144 28.807245 
L 100.729263 29.319653 
L 101.439994 29.882033 
L 101.756309 30.427664 
L 101.967185 31.272164 
L 102.12339 32.976495 
L 102.252259 37.505253 
L 102.267879 37.881935 
L 102.295215 35.768244 
L 102.377223 23.844603 
L 102.45923 25.326753 
L 102.689632 27.517631 
L 102.978611 28.326211 
L 103.384743 28.807307 
L 104.165767 29.322074 
L 104.872593 29.88212 
L 105.188908 30.427853 
L 105.399784 31.272623 
L 105.555989 32.977869 
L 105.684858 37.508158 
L 105.700478 37.88205 
L 105.727814 35.755406 
L 105.809822 23.844576 
L 105.891829 25.328105 
L 106.122231 27.517967 
L 106.41121 28.326337 
L 106.817342 28.807369 
L 107.598366 29.322119 
L 108.305192 29.882207 
L 108.621507 30.428041 
L 108.832383 31.273083 
L 108.988588 32.979245 
L 109.117457 37.511056 
L 109.133077 37.882144 
L 109.160413 35.742529 
L 109.24242 23.844558 
L 109.324428 25.329456 
L 109.55483 27.518304 
L 109.843809 28.326464 
L 110.249941 28.80743 
L 111.030964 29.322163 
L 111.737791 29.882293 
L 112.054105 30.42823 
L 112.264982 31.273542 
L 112.421187 32.980621 
L 112.553961 37.657048 
L 112.565676 37.882217 
L 112.593012 35.729611 
L 112.675019 23.844548 
L 112.757027 25.330807 
L 112.987429 27.51864 
L 113.276407 28.326591 
L 113.68254 28.807492 
L 114.463563 29.322208 
L 115.17039 29.88238 
L 115.486704 30.428418 
L 115.697581 31.274002 
L 115.853785 32.981998 
L 115.986559 37.659489 
L 115.998275 37.882269 
L 116.025611 35.716654 
L 116.107618 23.844545 
L 116.189625 25.332157 
L 116.420027 27.518976 
L 116.709006 28.326717 
L 117.115138 28.807554 
L 117.896162 29.322252 
L 118.602988 29.882467 
L 118.919303 30.428607 
L 119.130179 31.274462 
L 119.286384 32.983376 
L 119.419158 37.66192 
L 119.430873 37.8823 
L 119.458209 35.703657 
L 119.540217 23.844551 
L 119.622224 25.333507 
L 119.852626 27.519313 
L 120.141605 28.326844 
L 120.547737 28.807616 
L 121.328761 29.322297 
L 122.035587 29.882554 
L 122.351902 30.428795 
L 122.562778 31.274922 
L 122.715078 32.912342 
L 122.843947 37.360396 
L 122.863472 37.88231 
L 122.894713 34.938695 
L 122.972816 23.844566 
L 123.047013 25.187136 
L 123.277415 27.483102 
L 123.566394 28.313324 
L 123.968621 28.797687 
L 124.726214 29.30103 
L 125.460376 29.873435 
L 125.780596 30.418969 
L 125.995377 31.275382 
L 126.147677 32.913674 
L 126.276546 37.363579 
L 126.296071 37.882299 
L 126.327312 34.923627 
L 126.405414 23.844588 
L 126.479612 25.188552 
L 126.710014 27.483451 
L 126.998992 28.313453 
L 127.40122 28.79775 
L 128.158812 29.301074 
L 128.892975 29.87352 
L 129.213194 30.419156 
L 129.427976 31.275843 
L 129.580275 32.915008 
L 129.709144 37.366757 
L 129.72867 37.882267 
L 129.759911 34.908525 
L 129.838013 23.844618 
L 129.91221 25.189967 
L 130.142612 27.483799 
L 130.431591 28.313582 
L 130.833818 28.797813 
L 131.591411 29.301118 
L 132.325573 29.873606 
L 132.645793 30.419342 
L 132.860575 31.276303 
L 133.012874 32.916342 
L 133.141743 37.36993 
L 133.161269 37.882214 
L 133.19251 34.893388 
L 133.270612 23.844656 
L 133.344809 25.191381 
L 133.575211 27.484147 
L 133.86419 28.313711 
L 134.266417 28.797876 
L 135.02401 29.301162 
L 135.758172 29.873692 
L 136.078392 30.419528 
L 136.289268 31.252401 
L 136.445473 32.917677 
L 136.574342 37.373098 
L 136.593868 37.882139 
L 136.621203 35.638082 
L 136.703211 23.844702 
L 136.785218 25.340245 
L 137.01562 27.520991 
L 137.304599 28.327476 
L 137.710731 28.807926 
L 138.491755 29.322519 
L 139.198581 29.882988 
L 139.514896 30.429739 
L 139.725772 31.277225 
L 139.878072 32.919013 
L 140.006941 37.376261 
L 140.026466 37.882042 
L 140.053802 35.624849 
L 140.13581 23.844756 
L 140.213912 25.268804 
L 140.444314 27.503249 
L 140.733293 28.320819 
L 141.139425 28.804674 
L 141.912638 29.31544 
L 142.627275 29.878452 
L 142.94359 30.419901 
L 143.154466 31.253304 
L 143.310671 32.920349 
L 143.43954 37.379419 
L 143.459065 37.881924 
L 143.486401 35.611576 
L 143.568408 23.844818 
L 143.646511 25.270184 
L 143.876913 27.50359 
L 144.165892 28.320946 
L 144.572024 28.804736 
L 145.345237 29.315485 
L 146.059874 29.878539 
L 146.376188 30.420088 
L 146.587065 31.253755 
L 146.74327 32.921687 
L 146.872138 37.382572 
L 146.891664 37.881784 
L 146.919 35.598265 
L 147.001007 23.844888 
L 147.07911 25.271562 
L 147.309512 27.503931 
L 147.59849 28.321074 
L 148.004623 28.804798 
L 148.777836 29.315529 
L 149.492473 29.878625 
L 149.808787 30.420274 
L 150.019664 31.254207 
L 150.175868 32.923025 
L 150.304737 37.38572 
L 150.324263 37.881623 
L 150.351599 35.584915 
L 150.433606 23.844966 
L 150.511708 25.27294 
L 150.74211 27.504272 
L 151.031089 28.321202 
L 151.437221 28.804861 
L 152.210435 29.315573 
L 152.925071 29.878711 
L 153.241386 30.420461 
L 153.452262 31.254659 
L 153.608467 32.924365 
L 153.737336 37.388862 
L 153.756862 37.88144 
L 153.784197 35.571525 
L 153.866205 23.845051 
L 153.944307 25.274317 
L 154.174709 27.504613 
L 154.463688 28.321329 
L 154.86982 28.804923 
L 155.643034 29.315618 
L 156.35767 29.878797 
L 156.673985 30.420647 
L 156.884861 31.255111 
L 157.041066 32.925705 
L 157.169935 37.391999 
L 157.18946 37.881235 
L 157.216796 35.558097 
L 157.298804 23.845144 
L 157.376906 25.275694 
L 157.607308 27.504954 
L 157.896287 28.321457 
L 158.302419 28.804985 
L 159.075632 29.315662 
L 159.790269 29.878884 
L 160.106584 30.420834 
L 160.31746 31.255564 
L 160.473665 32.927046 
L 160.602534 37.395131 
L 160.622059 37.881007 
L 160.649395 35.54463 
L 160.731403 23.845245 
L 160.809505 25.277069 
L 161.039907 27.505295 
L 161.328886 28.321584 
L 161.735018 28.805047 
L 162.508231 29.315707 
L 163.222868 29.87897 
L 163.539182 30.421021 
L 163.750059 31.256016 
L 163.906264 32.928388 
L 164.035132 37.398258 
L 164.054658 37.880758 
L 164.081994 35.531124 
L 164.164001 23.845354 
L 164.242104 25.278445 
L 164.472506 27.505636 
L 164.761484 28.321711 
L 165.167617 28.805109 
L 165.94083 29.315751 
L 166.655467 29.879056 
L 166.971781 30.421208 
L 167.182658 31.256469 
L 167.338862 32.929731 
L 167.467731 37.401379 
L 167.487257 37.880487 
L 167.514593 35.51758 
L 167.5966 23.84547 
L 167.674703 25.279819 
L 167.905105 27.505976 
L 168.194083 28.321839 
L 168.600216 28.805171 
L 169.373429 29.315795 
L 170.088066 29.879142 
L 170.40438 30.421394 
L 170.615256 31.256922 
L 170.771461 32.931074 
L 170.90033 37.404494 
L 170.919856 37.880193 
L 170.947192 35.503997 
L 171.029199 23.845594 
L 171.107301 25.281193 
L 171.337703 27.506317 
L 171.626682 28.321966 
L 172.032814 28.805233 
L 172.806028 29.31584 
L 173.520664 29.879229 
L 173.836979 30.421581 
L 174.047855 31.257375 
L 174.20406 32.932419 
L 174.332929 37.407605 
L 174.352454 37.879877 
L 174.37979 35.490375 
L 174.461798 23.845726 
L 174.5399 25.282567 
L 174.770302 27.506657 
L 175.059281 28.322094 
L 175.465413 28.805296 
L 176.238627 29.315884 
L 176.953263 29.879315 
L 177.269578 30.421768 
L 177.480454 31.257828 
L 177.636659 32.933764 
L 177.765528 37.41071 
L 177.785053 37.879538 
L 177.812389 35.476716 
L 177.894397 23.845865 
L 177.972499 25.28394 
L 178.202901 27.506997 
L 178.49188 28.322221 
L 178.898012 28.805358 
L 179.671225 29.315928 
L 180.385862 29.879401 
L 180.702177 30.421955 
L 180.913053 31.258282 
L 181.069258 32.935111 
L 181.198127 37.413809 
L 181.217652 37.879177 
L 181.244988 35.463017 
L 181.326995 23.846012 
L 181.405098 25.285312 
L 181.6355 27.507337 
L 181.924478 28.322348 
L 182.330611 28.80542 
L 183.103824 29.315973 
L 183.818461 29.879488 
L 184.134775 30.422142 
L 184.345652 31.258735 
L 184.501856 32.936458 
L 184.630725 37.416903 
L 184.650251 37.878794 
L 184.677587 35.449281 
L 184.759594 23.846166 
L 184.837697 25.286683 
L 185.068099 27.507677 
L 185.357077 28.322476 
L 185.76321 28.805482 
L 186.536423 29.316017 
L 187.25106 29.879574 
L 187.567374 30.422329 
L 187.778251 31.259189 
L 187.934455 32.937806 
L 188.063324 37.419991 
L 188.08285 37.878387 
L 188.110186 35.435506 
L 188.192193 23.846328 
L 188.270295 25.288054 
L 188.500697 27.508017 
L 188.789676 28.322603 
L 189.195808 28.805544 
L 189.969022 29.316062 
L 190.683658 29.87966 
L 190.999973 30.422516 
L 191.210849 31.259643 
L 191.367054 32.939155 
L 191.495923 37.423073 
L 191.515449 37.877958 
L 191.542784 35.421693 
L 191.624792 23.846497 
L 191.702894 25.289424 
L 191.933296 27.508357 
L 192.222275 28.32273 
L 192.628407 28.805606 
L 193.405526 29.318479 
L 194.116257 29.879747 
L 194.432572 30.422703 
L 194.643448 31.260097 
L 194.799653 32.940505 
L 194.928522 37.42615 
L 194.948047 37.877506 
L 194.975383 35.407842 
L 195.057391 23.846673 
L 195.135493 25.290794 
L 195.365895 27.508697 
L 195.654874 28.322857 
L 196.061006 28.805668 
L 196.838125 29.318523 
L 197.548856 29.879833 
L 197.865171 30.42289 
L 198.076047 31.260552 
L 198.232252 32.941855 
L 198.361121 37.429221 
L 198.380646 37.877031 
L 198.407982 35.393954 
L 198.489989 23.846857 
L 198.568092 25.292163 
L 198.798494 27.509036 
L 199.087473 28.322984 
L 199.493605 28.80573 
L 200.270723 29.318568 
L 200.981455 29.87992 
L 201.297769 30.423078 
L 201.508646 31.261006 
L 201.66485 32.943207 
L 201.793719 37.432286 
L 201.813245 37.876533 
L 201.840581 35.380027 
L 201.922588 23.847049 
L 202.000691 25.293531 
L 202.231093 27.509376 
L 202.520071 28.323112 
L 202.926204 28.805792 
L 203.703322 29.318612 
L 204.414054 29.880006 
L 204.730368 30.423265 
L 204.941245 31.261461 
L 205.097449 32.944559 
L 205.226318 37.435346 
L 205.245844 37.876012 
L 205.27318 35.366063 
L 205.355187 23.847248 
L 205.433289 25.294898 
L 205.663691 27.509715 
L 205.95267 28.323239 
L 206.358802 28.805854 
L 207.135921 29.318657 
L 207.846652 29.880092 
L 208.162967 30.423452 
L 208.373843 31.261916 
L 208.530048 32.945913 
L 208.658917 37.438399 
L 208.678443 37.875468 
L 208.705778 35.352061 
L 208.783881 23.847432 
L 208.865888 25.296265 
L 209.09629 27.510054 
L 209.385269 28.323366 
L 209.791401 28.805916 
L 210.56852 29.318701 
L 211.279251 29.880179 
L 211.595566 30.42364 
L 211.806442 31.262371 
L 211.962647 32.947267 
L 212.091516 37.441447 
L 212.111041 37.8749 
L 212.138377 35.338021 
L 212.21648 23.847212 
L 212.294582 25.223745 
L 212.524984 27.492117 
L 212.813963 28.316669 
L 213.220095 28.802656 
L 213.989403 29.311633 
L 214.707945 29.875663 
L 215.028165 30.423827 
L 215.239041 31.262826 
L 215.395246 32.948622 
L 215.524115 37.444489 
L 215.539735 37.875194 
L 215.570976 35.323944 
L 215.649078 23.847001 
L 215.727181 25.225144 
L 215.957583 27.492462 
L 216.246561 28.316798 
L 216.652694 28.802718 
L 217.422002 29.311677 
L 218.140544 29.875749 
L 218.460763 30.424014 
L 218.67164 31.263281 
L 218.827845 32.949978 
L 218.956713 37.447525 
L 218.972334 37.875714 
L 219.003575 35.309829 
L 219.081677 23.846799 
L 219.15978 25.226543 
L 219.390182 27.492807 
L 219.67916 28.316926 
L 220.085293 28.80278 
L 220.854601 29.311721 
L 221.573143 29.875835 
L 221.893362 30.424202 
L 222.104239 31.263737 
L 222.260443 32.951335 
L 222.389312 37.450555 
L 222.404933 37.876214 
L 222.436174 35.295678 
L 222.514276 23.846606 
L 222.592378 25.227941 
L 222.82278 27.493152 
L 223.111759 28.317054 
L 223.517891 28.802843 
L 224.2872 29.311766 
L 225.005741 29.875921 
L 225.325961 30.424389 
L 225.536837 31.264193 
L 225.693042 32.952693 
L 225.821911 37.453579 
L 225.837532 37.876696 
L 225.868772 35.281489 
L 225.946875 23.846422 
L 226.024977 25.229339 
L 226.255379 27.493497 
L 226.544358 28.317183 
L 226.95049 28.802905 
L 227.719798 29.31181 
L 228.43834 29.876006 
L 228.75856 30.424577 
L 228.969436 31.264649 
L 229.125641 32.954051 
L 229.25451 37.456596 
L 229.27013 37.877159 
L 229.301371 35.267262 
L 229.379474 23.846247 
L 229.457576 25.230736 
L 229.687978 27.493842 
L 229.976957 28.317311 
L 230.383089 28.802967 
L 231.152397 29.311854 
L 231.870939 29.876092 
L 232.191159 30.424765 
L 232.402035 31.265105 
L 232.55824 32.955411 
L 232.687109 37.459608 
L 232.702729 37.877602 
L 232.73397 35.252999 
L 232.812072 23.84608 
L 232.890175 25.232133 
L 233.120577 27.494186 
L 233.409556 28.317439 
L 233.815688 28.80303 
L 234.584996 29.311899 
L 235.303538 29.876178 
L 235.623758 30.424952 
L 235.834634 31.265561 
L 235.990839 32.956771 
L 236.119708 37.462613 
L 236.135328 37.878026 
L 236.166569 35.238699 
L 236.244671 23.845923 
L 236.322774 25.233528 
L 236.553176 27.49453 
L 236.842154 28.317567 
L 237.248287 28.803092 
L 238.017595 29.311943 
L 238.736137 29.876264 
L 239.056356 30.42514 
L 239.267233 31.266018 
L 239.423437 32.958133 
L 239.552306 37.465612 
L 239.567927 37.87843 
L 239.599168 35.224362 
L 239.67727 23.845774 
L 239.755372 25.234924 
L 239.985774 27.494875 
L 240.274753 28.317696 
L 240.680885 28.803154 
L 241.450194 29.311987 
L 242.168735 29.87635 
L 242.488955 30.425328 
L 242.699832 31.266475 
L 242.856036 32.959495 
L 242.984905 37.468605 
L 243.000526 37.878815 
L 243.031767 35.209988 
L 243.109869 23.845633 
L 243.187971 25.236318 
L 243.418373 27.495219 
L 243.707352 28.317824 
L 244.113484 28.803217 
L 244.882793 29.312032 
L 245.601334 29.876436 
L 245.921554 30.425516 
L 246.13243 31.266931 
L 246.288635 32.960858 
L 246.417504 37.471592 
L 246.433124 37.87918 
L 246.464365 35.195577 
L 246.542468 23.845502 
L 246.62057 25.237712 
L 246.850972 27.495563 
L 247.139951 28.317952 
L 247.546083 28.803279 
L 248.315391 29.312076 
L 249.033933 29.876522 
L 249.354153 30.425703 
L 249.565029 31.267389 
L 249.721234 32.962222 
L 249.850103 37.474572 
L 249.865723 37.879526 
L 249.896964 35.18113 
L 249.975067 23.845379 
L 250.053169 25.239105 
L 250.283571 27.495907 
L 250.57255 28.31808 
L 250.978682 28.803341 
L 251.74799 29.31212 
L 252.466532 29.876608 
L 252.786752 30.425891 
L 252.9 30.784805 
L 252.9 30.784805 
" clip-path="url(#pc138ebaadb)" style="fill: none; stroke: #000000; stroke-width: 1.5; stroke-linecap: square"/>
   </g>
   <g id="line2d_26">
    <path d="M 57.648 140.885123 
L 57.882307 26.329541 
L 58.015081 27.24792 
L 58.288439 28.198728 
L 58.663331 28.718379 
L 59.299865 29.176182 
L 60.237093 29.867268 
L 60.557313 30.405595 
L 60.772094 31.242518 
L 60.928299 32.888508 
L 61.053263 37.122405 
L 61.076694 37.878978 
L 61.107935 35.203888 
L 61.186037 23.845716 
L 61.264139 25.236945 
L 61.494541 27.495368 
L 61.78352 28.317879 
L 62.189652 28.803243 
L 62.958961 29.312051 
L 63.677502 29.876473 
L 63.997722 30.425596 
L 64.208598 31.267127 
L 64.364803 32.961439 
L 64.493672 37.472862 
L 64.509293 37.879335 
L 64.540533 35.189462 
L 64.618636 23.845588 
L 64.696738 25.238339 
L 64.92714 27.495712 
L 65.216119 28.318007 
L 65.622251 28.803306 
L 66.391559 29.312095 
L 67.110101 29.876559 
L 67.430321 30.425784 
L 67.641197 31.267584 
L 67.797402 32.962803 
L 67.926271 37.47584 
L 67.941891 37.879672 
L 67.973132 35.175 
L 68.051235 23.845469 
L 68.129337 25.239732 
L 68.359739 27.496056 
L 68.648718 28.318135 
L 69.05485 28.803368 
L 69.824158 29.312139 
L 70.5427 29.876645 
L 70.86292 30.425972 
L 71.073796 31.268041 
L 71.230001 32.964169 
L 71.35887 37.478811 
L 71.37449 37.87999 
L 71.405731 35.160501 
L 71.483833 23.845358 
L 71.561936 25.241124 
L 71.792338 27.4964 
L 72.081317 28.318263 
L 72.487449 28.80343 
L 73.256757 29.312184 
L 73.975299 29.876731 
L 74.295518 30.42616 
L 74.506395 31.268499 
L 74.6626 32.965535 
L 74.791468 37.481776 
L 74.807089 37.880287 
L 74.83833 35.145966 
L 74.916432 23.845255 
L 74.994535 25.242516 
L 75.224937 27.496744 
L 75.513915 28.318391 
L 75.920048 28.803492 
L 76.689356 29.312228 
L 77.407898 29.876817 
L 77.728117 30.426348 
L 77.938994 31.268956 
L 78.095198 32.966902 
L 78.224067 37.484734 
L 78.239688 37.880565 
L 78.270929 35.131394 
L 78.349031 23.845162 
L 78.427133 25.243907 
L 78.657535 27.497087 
L 78.946514 28.318519 
L 79.352646 28.803555 
L 80.121955 29.312272 
L 80.840496 29.876903 
L 81.160716 30.426536 
L 81.371592 31.269414 
L 81.527797 32.96827 
L 81.656666 37.487686 
L 81.672287 37.880822 
L 81.703528 35.116787 
L 81.78163 23.845076 
L 81.859732 25.245298 
L 82.090134 27.497431 
L 82.379113 28.318647 
L 82.785245 28.803617 
L 83.554553 29.312317 
L 84.273095 29.876989 
L 84.593315 30.426724 
L 84.804191 31.269872 
L 84.960396 32.969639 
L 85.089265 37.490631 
L 85.104885 37.881059 
L 85.136126 35.102143 
L 85.214229 23.845 
L 85.292331 25.246687 
L 85.522733 27.497774 
L 85.811712 28.318775 
L 86.217844 28.803679 
L 86.987152 29.312361 
L 87.705694 29.877075 
L 88.025914 30.426912 
L 88.23679 31.27033 
L 88.392995 32.971008 
L 88.521864 37.493569 
L 88.537484 37.881276 
L 88.56482 35.819214 
L 88.646827 23.844931 
L 88.728835 25.321371 
L 88.959237 27.516286 
L 89.248216 28.325705 
L 89.654348 28.807059 
L 90.431466 29.31952 
L 91.142198 29.881774 
L 91.458513 30.4271 
L 91.669389 31.270789 
L 91.825594 32.972379 
L 91.954463 37.496501 
L 91.970083 37.881473 
L 91.997419 35.806536 
L 92.079426 23.844871 
L 92.161434 25.322725 
L 92.391836 27.516623 
L 92.680814 28.325832 
L 93.086947 28.807121 
L 93.864065 29.319565 
L 94.574797 29.88186 
L 94.891111 30.427288 
L 95.101988 31.271247 
L 95.258192 32.973751 
L 95.387061 37.499426 
L 95.402682 37.88165 
L 95.430018 35.793818 
L 95.512025 23.844819 
L 95.594033 25.324079 
L 95.824435 27.51696 
L 96.113413 28.325958 
L 96.519546 28.807183 
L 97.296664 29.319609 
L 98.007396 29.881947 
L 98.32371 30.427477 
L 98.534587 31.271706 
L 98.690791 32.975123 
L 98.81966 37.502345 
L 98.835281 37.881805 
L 98.862616 35.78106 
L 98.944624 23.844776 
L 99.026631 25.325432 
L 99.257033 27.517297 
L 99.546012 28.326085 
L 99.952144 28.807245 
L 100.729263 29.319654 
L 101.439994 29.882034 
L 101.756309 30.427665 
L 101.967185 31.272165 
L 102.12339 32.976497 
L 102.252259 37.505256 
L 102.267879 37.881941 
L 102.295215 35.768262 
L 102.377223 23.844741 
L 102.45923 25.326785 
L 102.689632 27.517634 
L 102.978611 28.326212 
L 103.384743 28.807307 
L 104.165767 29.322074 
L 104.872593 29.88212 
L 105.188908 30.427853 
L 105.399784 31.272624 
L 105.555989 32.977871 
L 105.684858 37.508161 
L 105.700478 37.882055 
L 105.727814 35.755424 
L 105.809822 23.844714 
L 105.891829 25.328137 
L 106.122231 27.51797 
L 106.41121 28.326338 
L 106.817342 28.807369 
L 107.598366 29.322119 
L 108.305192 29.882207 
L 108.621507 30.428042 
L 108.832383 31.273084 
L 108.988588 32.979246 
L 109.117457 37.511059 
L 109.133077 37.882149 
L 109.160413 35.742547 
L 109.24242 23.844696 
L 109.324428 25.329488 
L 109.55483 27.518307 
L 109.843809 28.326465 
L 110.249941 28.807431 
L 111.030964 29.322163 
L 111.737791 29.882294 
L 112.054105 30.42823 
L 112.264982 31.273543 
L 112.421187 32.980622 
L 112.553961 37.657051 
L 112.565676 37.882222 
L 112.593012 35.729629 
L 112.675019 23.844685 
L 112.757027 25.330839 
L 112.987429 27.518643 
L 113.276407 28.326591 
L 113.68254 28.807493 
L 114.463563 29.322208 
L 115.17039 29.88238 
L 115.486704 30.428419 
L 115.697581 31.274003 
L 115.853785 32.981999 
L 115.986559 37.659492 
L 115.998275 37.882275 
L 116.025611 35.716672 
L 116.107618 23.844683 
L 116.189625 25.332189 
L 116.420027 27.518979 
L 116.709006 28.326718 
L 117.115138 28.807555 
L 117.896162 29.322252 
L 118.602988 29.882467 
L 118.919303 30.428607 
L 119.130179 31.274463 
L 119.286384 32.983377 
L 119.419158 37.661924 
L 119.430873 37.882306 
L 119.458209 35.703676 
L 119.540217 23.844689 
L 119.622224 25.333539 
L 119.852626 27.519315 
L 120.141605 28.326844 
L 120.547737 28.807617 
L 121.328761 29.322297 
L 122.035587 29.882554 
L 122.351902 30.428796 
L 122.562778 31.274923 
L 122.715078 32.912343 
L 122.843947 37.360399 
L 122.863472 37.882316 
L 122.894713 34.938716 
L 122.972816 23.844703 
L 123.047013 25.187172 
L 123.277415 27.483105 
L 123.566394 28.313325 
L 123.968621 28.797688 
L 124.726214 29.30103 
L 125.460376 29.873435 
L 125.780596 30.41897 
L 125.995377 31.275383 
L 126.147677 32.913676 
L 126.276546 37.363582 
L 126.296071 37.882305 
L 126.327312 34.923649 
L 126.405414 23.844725 
L 126.479612 25.188588 
L 126.710014 27.483454 
L 126.998992 28.313454 
L 127.40122 28.79775 
L 128.158812 29.301074 
L 128.892975 29.873521 
L 129.213194 30.419156 
L 129.427976 31.275843 
L 129.580275 32.915009 
L 129.709144 37.36676 
L 129.72867 37.882273 
L 129.759911 34.908547 
L 129.838013 23.844755 
L 129.91221 25.190003 
L 130.142612 27.483802 
L 130.431591 28.313583 
L 130.833818 28.797813 
L 131.591411 29.301118 
L 132.325573 29.873606 
L 132.645793 30.419342 
L 132.860575 31.276304 
L 133.012874 32.916343 
L 133.141743 37.369933 
L 133.161269 37.882219 
L 133.19251 34.89341 
L 133.270612 23.844793 
L 133.344809 25.191418 
L 133.575211 27.48415 
L 133.86419 28.313712 
L 134.266417 28.797876 
L 135.02401 29.301162 
L 135.758172 29.873692 
L 136.078392 30.419529 
L 136.289268 31.252402 
L 136.445473 32.917678 
L 136.574342 37.373101 
L 136.593868 37.882144 
L 136.621203 35.6381 
L 136.703211 23.844839 
L 136.785218 25.340276 
L 137.01562 27.520994 
L 137.304599 28.327476 
L 137.710731 28.807926 
L 138.491755 29.322519 
L 139.198581 29.882988 
L 139.514896 30.429739 
L 139.725772 31.277226 
L 139.878072 32.919014 
L 140.006941 37.376264 
L 140.026466 37.882048 
L 140.053802 35.624867 
L 140.13581 23.844893 
L 140.213912 25.268838 
L 140.444314 27.503252 
L 140.733293 28.32082 
L 141.139425 28.804674 
L 141.912638 29.31544 
L 142.627275 29.878453 
L 142.94359 30.419902 
L 143.154466 31.253304 
L 143.310671 32.920351 
L 143.43954 37.379422 
L 143.459065 37.88193 
L 143.486401 35.611595 
L 143.568408 23.844955 
L 143.646511 25.270217 
L 143.876913 27.503593 
L 144.165892 28.320947 
L 144.572024 28.804737 
L 145.345237 29.315485 
L 146.059874 29.878539 
L 146.376188 30.420088 
L 146.587065 31.253756 
L 146.74327 32.921688 
L 146.872138 37.382575 
L 146.891664 37.88179 
L 146.919 35.598283 
L 147.001007 23.845024 
L 147.07911 25.271596 
L 147.309512 27.503934 
L 147.59849 28.321075 
L 148.004623 28.804799 
L 148.777836 29.315529 
L 149.492473 29.878625 
L 149.808787 30.420275 
L 150.019664 31.254208 
L 150.175868 32.923027 
L 150.304737 37.385722 
L 150.324263 37.881629 
L 150.351599 35.584933 
L 150.433606 23.845102 
L 150.511708 25.272973 
L 150.74211 27.504275 
L 151.031089 28.321202 
L 151.437221 28.804861 
L 152.210435 29.315574 
L 152.925071 29.878711 
L 153.241386 30.420461 
L 153.452262 31.25466 
L 153.608467 32.924366 
L 153.737336 37.388865 
L 153.756862 37.881446 
L 153.784197 35.571544 
L 153.866205 23.845187 
L 153.944307 25.274351 
L 154.174709 27.504616 
L 154.463688 28.32133 
L 154.86982 28.804923 
L 155.643034 29.315618 
L 156.35767 29.878798 
L 156.673985 30.420648 
L 156.884861 31.255112 
L 157.041066 32.925706 
L 157.169935 37.392002 
L 157.18946 37.881241 
L 157.216796 35.558116 
L 157.298804 23.84528 
L 157.376906 25.275727 
L 157.607308 27.504957 
L 157.896287 28.321457 
L 158.302419 28.804985 
L 159.075632 29.315662 
L 159.790269 29.878884 
L 160.106584 30.420835 
L 160.31746 31.255564 
L 160.473665 32.927047 
L 160.602534 37.395134 
L 160.622059 37.881013 
L 160.649395 35.544649 
L 160.731403 23.845381 
L 160.809505 25.277103 
L 161.039907 27.505298 
L 161.328886 28.321585 
L 161.735018 28.805047 
L 162.508231 29.315707 
L 163.222868 29.87897 
L 163.539182 30.421021 
L 163.750059 31.256017 
L 163.906264 32.928389 
L 164.035132 37.39826 
L 164.054658 37.880764 
L 164.081994 35.531143 
L 164.164001 23.845489 
L 164.242104 25.278478 
L 164.472506 27.505639 
L 164.761484 28.321712 
L 165.167617 28.80511 
L 165.94083 29.315751 
L 166.655467 29.879056 
L 166.971781 30.421208 
L 167.182658 31.25647 
L 167.338862 32.929732 
L 167.467731 37.401381 
L 167.487257 37.880493 
L 167.514593 35.517599 
L 167.5966 23.845606 
L 167.674703 25.279853 
L 167.905105 27.505979 
L 168.194083 28.32184 
L 168.600216 28.805172 
L 169.373429 29.315796 
L 170.088066 29.879143 
L 170.40438 30.421395 
L 170.615256 31.256923 
L 170.771461 32.931076 
L 170.90033 37.404497 
L 170.919856 37.880199 
L 170.947192 35.504016 
L 171.029199 23.84573 
L 171.107301 25.281227 
L 171.337703 27.50632 
L 171.626682 28.321967 
L 172.032814 28.805234 
L 172.806028 29.31584 
L 173.520664 29.879229 
L 173.836979 30.421582 
L 174.047855 31.257376 
L 174.20406 32.93242 
L 174.332929 37.407607 
L 174.352454 37.879883 
L 174.37979 35.490394 
L 174.461798 23.845861 
L 174.5399 25.2826 
L 174.770302 27.50666 
L 175.059281 28.322094 
L 175.465413 28.805296 
L 176.238627 29.315884 
L 176.953263 29.879315 
L 177.269578 30.421769 
L 177.480454 31.257829 
L 177.636659 32.933766 
L 177.765528 37.410712 
L 177.785053 37.879544 
L 177.812389 35.476735 
L 177.894397 23.846 
L 177.972499 25.283973 
L 178.202901 27.507 
L 178.49188 28.322222 
L 178.898012 28.805358 
L 179.671225 29.315929 
L 180.385862 29.879402 
L 180.702177 30.421956 
L 180.913053 31.258282 
L 181.069258 32.935112 
L 181.198127 37.413811 
L 181.217652 37.879183 
L 181.244988 35.463036 
L 181.326995 23.846147 
L 181.405098 25.285345 
L 181.6355 27.50734 
L 181.924478 28.322349 
L 182.330611 28.80542 
L 183.103824 29.315973 
L 183.818461 29.879488 
L 184.134775 30.422143 
L 184.345652 31.258736 
L 184.501856 32.936459 
L 184.630725 37.416905 
L 184.650251 37.8788 
L 184.677587 35.4493 
L 184.759594 23.846301 
L 184.837697 25.286716 
L 185.068099 27.50768 
L 185.357077 28.322476 
L 185.76321 28.805482 
L 186.536423 29.316017 
L 187.25106 29.879574 
L 187.567374 30.42233 
L 187.778251 31.25919 
L 187.934455 32.937807 
L 188.063324 37.419993 
L 188.08285 37.878393 
L 188.110186 35.435525 
L 188.192193 23.846462 
L 188.270295 25.288087 
L 188.500697 27.50802 
L 188.789676 28.322604 
L 189.195808 28.805544 
L 189.969022 29.316062 
L 190.683658 29.879661 
L 190.999973 30.422517 
L 191.210849 31.259644 
L 191.367054 32.939156 
L 191.495923 37.423076 
L 191.515449 37.877964 
L 191.542784 35.421713 
L 191.624792 23.846631 
L 191.702894 25.289457 
L 191.933296 27.50836 
L 192.222275 28.322731 
L 192.628407 28.805606 
L 193.405526 29.318479 
L 194.116257 29.879747 
L 194.432572 30.422704 
L 194.643448 31.260098 
L 194.799653 32.940506 
L 194.928522 37.426152 
L 194.948047 37.877512 
L 194.975383 35.407862 
L 195.057391 23.846808 
L 195.135493 25.290827 
L 195.365895 27.5087 
L 195.654874 28.322858 
L 196.061006 28.805668 
L 196.838125 29.318524 
L 197.548856 29.879833 
L 197.865171 30.422891 
L 198.076047 31.260552 
L 198.232252 32.941857 
L 198.361121 37.429224 
L 198.380646 37.877037 
L 198.407982 35.393973 
L 198.489989 23.846992 
L 198.568092 25.292196 
L 198.798494 27.509039 
L 199.087473 28.322985 
L 199.493605 28.80573 
L 200.270723 29.318568 
L 200.981455 29.87992 
L 201.297769 30.423078 
L 201.508646 31.261007 
L 201.66485 32.943208 
L 201.793719 37.432289 
L 201.813245 37.876539 
L 201.840581 35.380047 
L 201.922588 23.847183 
L 202.000691 25.293564 
L 202.231093 27.509379 
L 202.520071 28.323112 
L 202.926204 28.805793 
L 203.703322 29.318612 
L 204.414054 29.880006 
L 204.730368 30.423265 
L 204.941245 31.261462 
L 205.097449 32.944561 
L 205.226318 37.435348 
L 205.245844 37.876018 
L 205.27318 35.366082 
L 205.355187 23.847382 
L 205.433289 25.294931 
L 205.663691 27.509718 
L 205.95267 28.32324 
L 206.358802 28.805855 
L 207.135921 29.318657 
L 207.846652 29.880093 
L 208.162967 30.423453 
L 208.373843 31.261917 
L 208.530048 32.945914 
L 208.658917 37.438402 
L 208.678443 37.875474 
L 208.705778 35.35208 
L 208.787786 23.847588 
L 208.865888 25.296298 
L 209.09629 27.510057 
L 209.385269 28.323367 
L 209.791401 28.805917 
L 210.56852 29.318701 
L 211.279251 29.880179 
L 211.595566 30.42364 
L 211.806442 31.262372 
L 211.962647 32.947268 
L 212.091516 37.44145 
L 212.111041 37.874906 
L 212.138377 35.338041 
L 212.21648 23.847353 
L 212.294582 25.22378 
L 212.524984 27.49212 
L 212.813963 28.31667 
L 213.220095 28.802656 
L 213.989403 29.311633 
L 214.707945 29.875663 
L 215.028165 30.423828 
L 215.239041 31.262827 
L 215.395246 32.948623 
L 215.524115 37.444492 
L 215.539735 37.875199 
L 215.570976 35.323964 
L 215.649078 23.847142 
L 215.727181 25.225179 
L 215.957583 27.492465 
L 216.246561 28.316799 
L 216.652694 28.802718 
L 217.422002 29.311677 
L 218.140544 29.875749 
L 218.460763 30.424015 
L 218.67164 31.263282 
L 218.827845 32.949979 
L 218.956713 37.447527 
L 218.972334 37.875719 
L 219.003575 35.309849 
L 219.081677 23.84694 
L 219.15978 25.226578 
L 219.390182 27.49281 
L 219.67916 28.316927 
L 220.085293 28.802781 
L 220.854601 29.311722 
L 221.573143 29.875835 
L 221.893362 30.424202 
L 222.104239 31.263738 
L 222.260443 32.951336 
L 222.389312 37.450557 
L 222.404933 37.87622 
L 222.436174 35.295698 
L 222.514276 23.846747 
L 222.592378 25.227977 
L 222.82278 27.493155 
L 223.111759 28.317055 
L 223.517891 28.802843 
L 224.2872 29.311766 
L 225.005741 29.875921 
L 225.325961 30.42439 
L 225.536837 31.264194 
L 225.693042 32.952694 
L 225.821911 37.453581 
L 225.837532 37.876702 
L 225.868772 35.281508 
L 225.946875 23.846562 
L 226.024977 25.229374 
L 226.255379 27.4935 
L 226.544358 28.317183 
L 226.95049 28.802905 
L 227.719798 29.31181 
L 228.43834 29.876007 
L 228.75856 30.424578 
L 228.969436 31.26465 
L 229.125641 32.954053 
L 229.25451 37.456599 
L 229.27013 37.877164 
L 229.301371 35.267282 
L 229.379474 23.846387 
L 229.457576 25.230771 
L 229.687978 27.493844 
L 229.976957 28.317312 
L 230.383089 28.802968 
L 231.152397 29.311855 
L 231.870939 29.876093 
L 232.191159 30.424765 
L 232.402035 31.265106 
L 232.55824 32.955412 
L 232.687109 37.45961 
L 232.702729 37.877607 
L 232.73397 35.253019 
L 232.812072 23.84622 
L 232.890175 25.232168 
L 233.120577 27.494189 
L 233.409556 28.31744 
L 233.815688 28.80303 
L 234.584996 29.311899 
L 235.303538 29.876179 
L 235.623758 30.424953 
L 235.834634 31.265562 
L 235.990839 32.956773 
L 236.119708 37.462616 
L 236.135328 37.878031 
L 236.166569 35.238719 
L 236.244671 23.846062 
L 236.322774 25.233563 
L 236.553176 27.494533 
L 236.842154 28.317568 
L 237.248287 28.803092 
L 238.017595 29.311943 
L 238.736137 29.876264 
L 239.056356 30.425141 
L 239.267233 31.266019 
L 239.423437 32.958134 
L 239.552306 37.465615 
L 239.567927 37.878436 
L 239.599168 35.224382 
L 239.67727 23.845913 
L 239.755372 25.234958 
L 239.985774 27.494878 
L 240.274753 28.317696 
L 240.680885 28.803155 
L 241.450194 29.311988 
L 242.168735 29.87635 
L 242.488955 30.425328 
L 242.699832 31.266475 
L 242.856036 32.959496 
L 242.984905 37.468608 
L 243.000526 37.878821 
L 243.031767 35.210008 
L 243.109869 23.845773 
L 243.187971 25.236353 
L 243.418373 27.495222 
L 243.707352 28.317824 
L 244.113484 28.803217 
L 244.882793 29.312032 
L 245.601334 29.876436 
L 245.921554 30.425516 
L 246.13243 31.266932 
L 246.288635 32.960859 
L 246.417504 37.471595 
L 246.433124 37.879186 
L 246.464365 35.195598 
L 246.542468 23.845641 
L 246.62057 25.237747 
L 246.850972 27.495566 
L 247.139951 28.317953 
L 247.546083 28.803279 
L 248.315391 29.312076 
L 249.033933 29.876522 
L 249.354153 30.425704 
L 249.565029 31.267389 
L 249.721234 32.962223 
L 249.850103 37.474575 
L 249.865723 37.879531 
L 249.896964 35.181151 
L 249.975067 23.845518 
L 250.053169 25.23914 
L 250.283571 27.49591 
L 250.57255 28.318081 
L 250.978682 28.803341 
L 251.74799 29.312121 
L 252.466532 29.876608 
L 252.786752 30.425892 
L 252.9 30.784806 
L 252.9 30.784806 
" clip-path="url(#pc138ebaadb)" style="fill: none; stroke: #808080; stroke-width: 1.5; stroke-linecap: square"/>
   </g>
   <g id="patch_3">
    <path d="M 57.648 161.7 
L 57.648 17.28 
" style="fill: none; stroke: #000000; stroke-width: 0.8; stroke-linejoin: miter; stroke-linecap: square"/>
   </g>
   <g id="patch_4">
    <path d="M 252.9 161.7 
L 252.9 17.28 
" style="fill: none; stroke: #000000; stroke-width: 0.8; stroke-linejoin: miter; stroke-linecap: square"/>
   </g>
   <g id="patch_5">
    <path d="M 57.648 161.7 
L 252.9 161.7 
" style="fill: none; stroke: #000000; stroke-width: 0.8; stroke-linejoin: miter; stroke-linecap: square"/>
   </g>
   <g id="patch_6">
    <path d="M 57.648 17.28 
L 252.9 17.28 
" style="fill: none; stroke: #000000; stroke-width: 0.8; stroke-linejoin: miter; stroke-linecap: square"/>
   </g>
  </g>
 </g>
 <defs>
  <clipPath id="pc138ebaadb">
   <rect x="57.648" y="17.28" width="195.252" height="144.42"/>
  </clipPath>
 </defs>
</svg>
