<?xml version="1.0" encoding="utf-8" standalone="no"?>
<!DOCTYPE svg PUBLIC "-//W3C//DTD SVG 1.1//EN"
  "http://www.w3.org/Graphics/SVG/1.1/DTD/svg11.dtd">
<svg xmlns:xlink="http://www.w3.org/1999/xlink" width="288pt" height="432pt" viewBox="0 0 288 432" xmlns="http://www.w3.org/2000/svg" version="1.1">
 <metadata>
  <rdf:RDF xmlns:dc="http://purl.org/dc/elements/1.1/" xmlns:cc="http://creativecommons.org/ns#" xmlns:rdf="http://www.w3.org/1999/02/22-rdf-syntax-ns#">
   <cc:Work>
    <dc:type rdf:resource="http://purl.org/dc/dcmitype/StillImage"/>
    <dc:date>2024-01-29T17:29:08.661468</dc:date>
    <dc:format>image/svg+xml</dc:format>
    <dc:creator>
     <cc:Agent>
      <dc:title>Matplotlib v3.7.2, https://matplotlib.org/</dc:title>
     </cc:Agent>
    </dc:creator>
   </cc:Work>
  </rdf:RDF>
 </metadata>
 <defs>
  <style type="text/css">*{stroke-linejoin: round; stroke-linecap: butt}</style>
 </defs>
 <g id="figure_1">
  <g id="patch_1">
   <path d="M 0 432 
L 288 432 
L 288 0 
L 0 0 
L 0 432 
z
" style="fill: none"/>
  </g>
  <g id="axes_1">
   <g id="patch_2">
    <path d="M 60.834 70.436 
L 268.56 70.436 
L 268.56 25.92 
L 60.834 25.92 
L 60.834 70.436 
z
" style="fill: none"/>
   </g>
   <g id="patch_3">
    <path d="M 70.276091 70.436 
L 101.749727 70.436 
L 101.749727 61.555093 
L 70.276091 61.555093 
z
" clip-path="url(#p95266a4637)" style="fill: #440154"/>
   </g>
   <g id="patch_4">
    <path d="M 109.618136 70.436 
L 141.091773 70.436 
L 141.091773 61.519427 
L 109.618136 61.519427 
z
" clip-path="url(#p95266a4637)" style="fill: #440154"/>
   </g>
   <g id="patch_5">
    <path d="M 148.960182 70.436 
L 180.433818 70.436 
L 180.433818 61.51496 
L 148.960182 61.51496 
z
" clip-path="url(#p95266a4637)" style="fill: #440154"/>
   </g>
   <g id="patch_6">
    <path d="M 188.302227 70.436 
L 219.775864 70.436 
L 219.775864 61.519427 
L 188.302227 61.519427 
z
" clip-path="url(#p95266a4637)" style="fill: #440154"/>
   </g>
   <g id="patch_7">
    <path d="M 227.644273 70.436 
L 259.117909 70.436 
L 259.117909 61.555093 
L 227.644273 61.555093 
z
" clip-path="url(#p95266a4637)" style="fill: #440154"/>
   </g>
   <g id="matplotlib.axis_1">
    <g id="xtick_1">
     <g id="line2d_1">
      <defs>
       <path id="mbceab2cd16" d="M 0 0 
L 0 -3.5 
" style="stroke: #000000; stroke-width: 0.8"/>
      </defs>
      <g>
       <use xlink:href="#mbceab2cd16" x="86.012909" y="70.436" style="stroke: #000000; stroke-width: 0.8"/>
      </g>
     </g>
    </g>
    <g id="xtick_2">
     <g id="line2d_2">
      <g>
       <use xlink:href="#mbceab2cd16" x="164.697" y="70.436" style="stroke: #000000; stroke-width: 0.8"/>
      </g>
     </g>
    </g>
    <g id="xtick_3">
     <g id="line2d_3">
      <g>
       <use xlink:href="#mbceab2cd16" x="243.381091" y="70.436" style="stroke: #000000; stroke-width: 0.8"/>
      </g>
     </g>
    </g>
   </g>
   <g id="matplotlib.axis_2">
    <g id="ytick_1">
     <g id="line2d_4">
      <defs>
       <path id="m86d9c47aa5" d="M 0 0 
L 3.5 0 
" style="stroke: #000000; stroke-width: 0.8"/>
      </defs>
      <g>
       <use xlink:href="#m86d9c47aa5" x="60.834" y="70.436" style="stroke: #000000; stroke-width: 0.8"/>
      </g>
     </g>
     <g id="text_1">
      <!-- 0 -->
      <g transform="translate(47.324312 76.878031) scale(0.18 -0.18)">
       <defs>
        <path id="ArialMT-30" d="M 266 2259 
Q 266 3072 433 3567 
Q 600 4063 929 4331 
Q 1259 4600 1759 4600 
Q 2128 4600 2406 4451 
Q 2684 4303 2865 4023 
Q 3047 3744 3150 3342 
Q 3253 2941 3253 2259 
Q 3253 1453 3087 958 
Q 2922 463 2592 192 
Q 2263 -78 1759 -78 
Q 1097 -78 719 397 
Q 266 969 266 2259 
z
M 844 2259 
Q 844 1131 1108 757 
Q 1372 384 1759 384 
Q 2147 384 2411 759 
Q 2675 1134 2675 2259 
Q 2675 3391 2411 3762 
Q 2147 4134 1753 4134 
Q 1366 4134 1134 3806 
Q 844 3388 844 2259 
z
" transform="scale(0.015625)"/>
       </defs>
       <use xlink:href="#ArialMT-30"/>
      </g>
     </g>
    </g>
    <g id="ytick_2">
     <g id="line2d_5">
      <g>
       <use xlink:href="#m86d9c47aa5" x="60.834" y="25.92" style="stroke: #000000; stroke-width: 0.8"/>
      </g>
     </g>
     <g id="text_2">
      <!-- 1 -->
      <g transform="translate(47.324312 32.362031) scale(0.18 -0.18)">
       <defs>
        <path id="ArialMT-31" d="M 2384 0 
L 1822 0 
L 1822 3584 
Q 1619 3391 1289 3197 
Q 959 3003 697 2906 
L 697 3450 
Q 1169 3672 1522 3987 
Q 1875 4303 2022 4600 
L 2384 4600 
L 2384 0 
z
" transform="scale(0.015625)"/>
       </defs>
       <use xlink:href="#ArialMT-31"/>
      </g>
     </g>
    </g>
    <g id="text_3">
     <!-- ${|u_0|}^2$ -->
     <g transform="translate(39.004312 68.608) rotate(-90) scale(0.18 -0.18)">
      <defs>
       <path id="DejaVuSans-7c" d="M 1344 4891 
L 1344 -1509 
L 813 -1509 
L 813 4891 
L 1344 4891 
z
" transform="scale(0.015625)"/>
       <path id="DejaVuSans-Oblique-75" d="M 428 1388 
L 838 3500 
L 1416 3500 
L 1006 1409 
Q 975 1256 961 1147 
Q 947 1038 947 966 
Q 947 700 1109 554 
Q 1272 409 1569 409 
Q 2031 409 2368 721 
Q 2706 1034 2809 1563 
L 3194 3500 
L 3769 3500 
L 3091 0 
L 2516 0 
L 2631 550 
Q 2388 244 2052 76 
Q 1716 -91 1338 -91 
Q 878 -91 622 161 
Q 366 413 366 863 
Q 366 956 381 1097 
Q 397 1238 428 1388 
z
" transform="scale(0.015625)"/>
       <path id="DejaVuSans-30" d="M 2034 4250 
Q 1547 4250 1301 3770 
Q 1056 3291 1056 2328 
Q 1056 1369 1301 889 
Q 1547 409 2034 409 
Q 2525 409 2770 889 
Q 3016 1369 3016 2328 
Q 3016 3291 2770 3770 
Q 2525 4250 2034 4250 
z
M 2034 4750 
Q 2819 4750 3233 4129 
Q 3647 3509 3647 2328 
Q 3647 1150 3233 529 
Q 2819 -91 2034 -91 
Q 1250 -91 836 529 
Q 422 1150 422 2328 
Q 422 3509 836 4129 
Q 1250 4750 2034 4750 
z
" transform="scale(0.015625)"/>
       <path id="DejaVuSans-32" d="M 1228 531 
L 3431 531 
L 3431 0 
L 469 0 
L 469 531 
Q 828 903 1448 1529 
Q 2069 2156 2228 2338 
Q 2531 2678 2651 2914 
Q 2772 3150 2772 3378 
Q 2772 3750 2511 3984 
Q 2250 4219 1831 4219 
Q 1534 4219 1204 4116 
Q 875 4013 500 3803 
L 500 4441 
Q 881 4594 1212 4672 
Q 1544 4750 1819 4750 
Q 2544 4750 2975 4387 
Q 3406 4025 3406 3419 
Q 3406 3131 3298 2873 
Q 3191 2616 2906 2266 
Q 2828 2175 2409 1742 
Q 1991 1309 1228 531 
z
" transform="scale(0.015625)"/>
      </defs>
      <use xlink:href="#DejaVuSans-7c" transform="translate(0 0.765625)"/>
      <use xlink:href="#DejaVuSans-Oblique-75" transform="translate(33.691406 0.765625)"/>
      <use xlink:href="#DejaVuSans-30" transform="translate(97.070312 -15.640625) scale(0.7)"/>
      <use xlink:href="#DejaVuSans-7c" transform="translate(144.34082 0.765625)"/>
      <use xlink:href="#DejaVuSans-32" transform="translate(178.989258 39.046875) scale(0.7)"/>
     </g>
    </g>
   </g>
   <g id="patch_8">
    <path d="M 60.834 70.436 
L 60.834 25.92 
" style="fill: none; stroke: #000000; stroke-width: 0.8; stroke-linejoin: miter; stroke-linecap: square"/>
   </g>
   <g id="patch_9">
    <path d="M 268.56 70.436 
L 268.56 25.92 
" style="fill: none; stroke: #000000; stroke-width: 0.8; stroke-linejoin: miter; stroke-linecap: square"/>
   </g>
   <g id="patch_10">
    <path d="M 60.834 70.436 
L 268.56 70.436 
" style="fill: none; stroke: #000000; stroke-width: 0.8; stroke-linejoin: miter; stroke-linecap: square"/>
   </g>
   <g id="patch_11">
    <path d="M 60.834 25.92 
L 268.56 25.92 
" style="fill: none; stroke: #000000; stroke-width: 0.8; stroke-linejoin: miter; stroke-linecap: square"/>
   </g>
  </g>
  <g id="axes_2">
   <g id="patch_12">
    <path d="M 60.834 150.952 
L 268.56 150.952 
L 268.56 106.436 
L 60.834 106.436 
L 60.834 150.952 
z
" style="fill: none"/>
   </g>
   <g id="patch_13">
    <path d="M 70.276091 150.952 
L 101.749727 150.952 
L 101.749727 136.816175 
L 70.276091 136.816175 
z
" clip-path="url(#pa71d7de0cf)" style="fill: #3b528b"/>
   </g>
   <g id="patch_14">
    <path d="M 109.618136 150.952 
L 141.091773 150.952 
L 141.091773 133.574512 
L 109.618136 133.574512 
z
" clip-path="url(#pa71d7de0cf)" style="fill: #3b528b"/>
   </g>
   <g id="patch_15">
    <path d="M 148.960182 150.952 
L 180.433818 150.952 
L 180.433818 142.050435 
L 148.960182 142.050435 
z
" clip-path="url(#pa71d7de0cf)" style="fill: #3b528b"/>
   </g>
   <g id="patch_16">
    <path d="M 188.302227 150.952 
L 219.775864 150.952 
L 219.775864 150.515996 
L 188.302227 150.515996 
z
" clip-path="url(#pa71d7de0cf)" style="fill: #3b528b"/>
   </g>
   <g id="patch_17">
    <path d="M 227.644273 150.952 
L 259.117909 150.952 
L 259.117909 147.286882 
L 227.644273 147.286882 
z
" clip-path="url(#pa71d7de0cf)" style="fill: #3b528b"/>
   </g>
   <g id="matplotlib.axis_3">
    <g id="xtick_4">
     <g id="line2d_6">
      <g>
       <use xlink:href="#mbceab2cd16" x="86.012909" y="150.952" style="stroke: #000000; stroke-width: 0.8"/>
      </g>
     </g>
    </g>
    <g id="xtick_5">
     <g id="line2d_7">
      <g>
       <use xlink:href="#mbceab2cd16" x="164.697" y="150.952" style="stroke: #000000; stroke-width: 0.8"/>
      </g>
     </g>
    </g>
    <g id="xtick_6">
     <g id="line2d_8">
      <g>
       <use xlink:href="#mbceab2cd16" x="243.381091" y="150.952" style="stroke: #000000; stroke-width: 0.8"/>
      </g>
     </g>
    </g>
   </g>
   <g id="matplotlib.axis_4">
    <g id="ytick_3">
     <g id="line2d_9">
      <g>
       <use xlink:href="#m86d9c47aa5" x="60.834" y="150.952" style="stroke: #000000; stroke-width: 0.8"/>
      </g>
     </g>
     <g id="text_4">
      <!-- 0 -->
      <g transform="translate(47.324312 157.394031) scale(0.18 -0.18)">
       <use xlink:href="#ArialMT-30"/>
      </g>
     </g>
    </g>
    <g id="ytick_4">
     <g id="line2d_10">
      <g>
       <use xlink:href="#m86d9c47aa5" x="60.834" y="106.436" style="stroke: #000000; stroke-width: 0.8"/>
      </g>
     </g>
     <g id="text_5">
      <!-- 1 -->
      <g transform="translate(47.324312 112.878031) scale(0.18 -0.18)">
       <use xlink:href="#ArialMT-31"/>
      </g>
     </g>
    </g>
    <g id="text_6">
     <!-- ${|u_1|}^2$ -->
     <g transform="translate(39.004312 149.124) rotate(-90) scale(0.18 -0.18)">
      <defs>
       <path id="DejaVuSans-31" d="M 794 531 
L 1825 531 
L 1825 4091 
L 703 3866 
L 703 4441 
L 1819 4666 
L 2450 4666 
L 2450 531 
L 3481 531 
L 3481 0 
L 794 0 
L 794 531 
z
" transform="scale(0.015625)"/>
      </defs>
      <use xlink:href="#DejaVuSans-7c" transform="translate(0 0.765625)"/>
      <use xlink:href="#DejaVuSans-Oblique-75" transform="translate(33.691406 0.765625)"/>
      <use xlink:href="#DejaVuSans-31" transform="translate(97.070312 -15.640625) scale(0.7)"/>
      <use xlink:href="#DejaVuSans-7c" transform="translate(144.34082 0.765625)"/>
      <use xlink:href="#DejaVuSans-32" transform="translate(178.989258 39.046875) scale(0.7)"/>
     </g>
    </g>
   </g>
   <g id="patch_18">
    <path d="M 60.834 150.952 
L 60.834 106.436 
" style="fill: none; stroke: #000000; stroke-width: 0.8; stroke-linejoin: miter; stroke-linecap: square"/>
   </g>
   <g id="patch_19">
    <path d="M 268.56 150.952 
L 268.56 106.436 
" style="fill: none; stroke: #000000; stroke-width: 0.8; stroke-linejoin: miter; stroke-linecap: square"/>
   </g>
   <g id="patch_20">
    <path d="M 60.834 150.952 
L 268.56 150.952 
" style="fill: none; stroke: #000000; stroke-width: 0.8; stroke-linejoin: miter; stroke-linecap: square"/>
   </g>
   <g id="patch_21">
    <path d="M 60.834 106.436 
L 268.56 106.436 
" style="fill: none; stroke: #000000; stroke-width: 0.8; stroke-linejoin: miter; stroke-linecap: square"/>
   </g>
  </g>
  <g id="axes_3">
   <g id="patch_22">
    <path d="M 60.834 231.468 
L 268.56 231.468 
L 268.56 186.952 
L 60.834 186.952 
L 60.834 231.468 
z
" style="fill: none"/>
   </g>
   <g id="patch_23">
    <path d="M 70.276091 231.468 
L 101.749727 231.468 
L 101.749727 227.802882 
L 70.276091 227.802882 
z
" clip-path="url(#p2d2ef1b087)" style="fill: #21918c"/>
   </g>
   <g id="patch_24">
    <path d="M 109.618136 231.468 
L 141.091773 231.468 
L 141.091773 231.031996 
L 109.618136 231.031996 
z
" clip-path="url(#p2d2ef1b087)" style="fill: #21918c"/>
   </g>
   <g id="patch_25">
    <path d="M 148.960182 231.468 
L 180.433818 231.468 
L 180.433818 222.566435 
L 148.960182 222.566435 
z
" clip-path="url(#p2d2ef1b087)" style="fill: #21918c"/>
   </g>
   <g id="patch_26">
    <path d="M 188.302227 231.468 
L 219.775864 231.468 
L 219.775864 214.090512 
L 188.302227 214.090512 
z
" clip-path="url(#p2d2ef1b087)" style="fill: #21918c"/>
   </g>
   <g id="patch_27">
    <path d="M 227.644273 231.468 
L 259.117909 231.468 
L 259.117909 217.332175 
L 227.644273 217.332175 
z
" clip-path="url(#p2d2ef1b087)" style="fill: #21918c"/>
   </g>
   <g id="matplotlib.axis_5">
    <g id="xtick_7">
     <g id="line2d_11">
      <g>
       <use xlink:href="#mbceab2cd16" x="86.012909" y="231.468" style="stroke: #000000; stroke-width: 0.8"/>
      </g>
     </g>
    </g>
    <g id="xtick_8">
     <g id="line2d_12">
      <g>
       <use xlink:href="#mbceab2cd16" x="164.697" y="231.468" style="stroke: #000000; stroke-width: 0.8"/>
      </g>
     </g>
    </g>
    <g id="xtick_9">
     <g id="line2d_13">
      <g>
       <use xlink:href="#mbceab2cd16" x="243.381091" y="231.468" style="stroke: #000000; stroke-width: 0.8"/>
      </g>
     </g>
    </g>
   </g>
   <g id="matplotlib.axis_6">
    <g id="ytick_5">
     <g id="line2d_14">
      <g>
       <use xlink:href="#m86d9c47aa5" x="60.834" y="231.468" style="stroke: #000000; stroke-width: 0.8"/>
      </g>
     </g>
     <g id="text_7">
      <!-- 0 -->
      <g transform="translate(47.324312 237.910031) scale(0.18 -0.18)">
       <use xlink:href="#ArialMT-30"/>
      </g>
     </g>
    </g>
    <g id="ytick_6">
     <g id="line2d_15">
      <g>
       <use xlink:href="#m86d9c47aa5" x="60.834" y="186.952" style="stroke: #000000; stroke-width: 0.8"/>
      </g>
     </g>
     <g id="text_8">
      <!-- 1 -->
      <g transform="translate(47.324312 193.394031) scale(0.18 -0.18)">
       <use xlink:href="#ArialMT-31"/>
      </g>
     </g>
    </g>
    <g id="text_9">
     <!-- ${|u_2|}^2$ -->
     <g transform="translate(39.004312 229.64) rotate(-90) scale(0.18 -0.18)">
      <use xlink:href="#DejaVuSans-7c" transform="translate(0 0.765625)"/>
      <use xlink:href="#DejaVuSans-Oblique-75" transform="translate(33.691406 0.765625)"/>
      <use xlink:href="#DejaVuSans-32" transform="translate(97.070312 -15.640625) scale(0.7)"/>
      <use xlink:href="#DejaVuSans-7c" transform="translate(144.34082 0.765625)"/>
      <use xlink:href="#DejaVuSans-32" transform="translate(178.989258 39.046875) scale(0.7)"/>
     </g>
    </g>
   </g>
   <g id="patch_28">
    <path d="M 60.834 231.468 
L 60.834 186.952 
" style="fill: none; stroke: #000000; stroke-width: 0.8; stroke-linejoin: miter; stroke-linecap: square"/>
   </g>
   <g id="patch_29">
    <path d="M 268.56 231.468 
L 268.56 186.952 
" style="fill: none; stroke: #000000; stroke-width: 0.8; stroke-linejoin: miter; stroke-linecap: square"/>
   </g>
   <g id="patch_30">
    <path d="M 60.834 231.468 
L 268.56 231.468 
" style="fill: none; stroke: #000000; stroke-width: 0.8; stroke-linejoin: miter; stroke-linecap: square"/>
   </g>
   <g id="patch_31">
    <path d="M 60.834 186.952 
L 268.56 186.952 
" style="fill: none; stroke: #000000; stroke-width: 0.8; stroke-linejoin: miter; stroke-linecap: square"/>
   </g>
  </g>
  <g id="axes_4">
   <g id="patch_32">
    <path d="M 60.834 311.984 
L 268.56 311.984 
L 268.56 267.468 
L 60.834 267.468 
L 60.834 311.984 
z
" style="fill: none"/>
   </g>
   <g id="patch_33">
    <path d="M 70.276091 311.984 
L 101.749727 311.984 
L 101.749727 294.68795 
L 70.276091 294.68795 
z
" clip-path="url(#pe78fa713b9)" style="fill: #5ec962"/>
   </g>
   <g id="patch_34">
    <path d="M 109.618136 311.984 
L 141.091773 311.984 
L 141.091773 308.229009 
L 109.618136 308.229009 
z
" clip-path="url(#pe78fa713b9)" style="fill: #5ec962"/>
   </g>
   <g id="patch_35">
    <path d="M 148.960182 311.984 
L 180.433818 311.984 
L 180.433818 303.03483 
L 148.960182 303.03483 
z
" clip-path="url(#pe78fa713b9)" style="fill: #5ec962"/>
   </g>
   <g id="patch_36">
    <path d="M 188.302227 311.984 
L 219.775864 311.984 
L 219.775864 297.899701 
L 188.302227 297.899701 
z
" clip-path="url(#pe78fa713b9)" style="fill: #5ec962"/>
   </g>
   <g id="patch_37">
    <path d="M 227.644273 311.984 
L 259.117909 311.984 
L 259.117909 311.55251 
L 227.644273 311.55251 
z
" clip-path="url(#pe78fa713b9)" style="fill: #5ec962"/>
   </g>
   <g id="matplotlib.axis_7">
    <g id="xtick_10">
     <g id="line2d_16">
      <g>
       <use xlink:href="#mbceab2cd16" x="86.012909" y="311.984" style="stroke: #000000; stroke-width: 0.8"/>
      </g>
     </g>
    </g>
    <g id="xtick_11">
     <g id="line2d_17">
      <g>
       <use xlink:href="#mbceab2cd16" x="164.697" y="311.984" style="stroke: #000000; stroke-width: 0.8"/>
      </g>
     </g>
    </g>
    <g id="xtick_12">
     <g id="line2d_18">
      <g>
       <use xlink:href="#mbceab2cd16" x="243.381091" y="311.984" style="stroke: #000000; stroke-width: 0.8"/>
      </g>
     </g>
    </g>
   </g>
   <g id="matplotlib.axis_8">
    <g id="ytick_7">
     <g id="line2d_19">
      <g>
       <use xlink:href="#m86d9c47aa5" x="60.834" y="311.984" style="stroke: #000000; stroke-width: 0.8"/>
      </g>
     </g>
     <g id="text_10">
      <!-- 0 -->
      <g transform="translate(47.324312 318.426031) scale(0.18 -0.18)">
       <use xlink:href="#ArialMT-30"/>
      </g>
     </g>
    </g>
    <g id="ytick_8">
     <g id="line2d_20">
      <g>
       <use xlink:href="#m86d9c47aa5" x="60.834" y="267.468" style="stroke: #000000; stroke-width: 0.8"/>
      </g>
     </g>
     <g id="text_11">
      <!-- 1 -->
      <g transform="translate(47.324312 273.910031) scale(0.18 -0.18)">
       <use xlink:href="#ArialMT-31"/>
      </g>
     </g>
    </g>
    <g id="text_12">
     <!-- ${|u_3|}^2$ -->
     <g transform="translate(39.004312 310.156) rotate(-90) scale(0.18 -0.18)">
      <defs>
       <path id="DejaVuSans-33" d="M 2597 2516 
Q 3050 2419 3304 2112 
Q 3559 1806 3559 1356 
Q 3559 666 3084 287 
Q 2609 -91 1734 -91 
Q 1441 -91 1130 -33 
Q 819 25 488 141 
L 488 750 
Q 750 597 1062 519 
Q 1375 441 1716 441 
Q 2309 441 2620 675 
Q 2931 909 2931 1356 
Q 2931 1769 2642 2001 
Q 2353 2234 1838 2234 
L 1294 2234 
L 1294 2753 
L 1863 2753 
Q 2328 2753 2575 2939 
Q 2822 3125 2822 3475 
Q 2822 3834 2567 4026 
Q 2313 4219 1838 4219 
Q 1578 4219 1281 4162 
Q 984 4106 628 3988 
L 628 4550 
Q 988 4650 1302 4700 
Q 1616 4750 1894 4750 
Q 2613 4750 3031 4423 
Q 3450 4097 3450 3541 
Q 3450 3153 3228 2886 
Q 3006 2619 2597 2516 
z
" transform="scale(0.015625)"/>
      </defs>
      <use xlink:href="#DejaVuSans-7c" transform="translate(0 0.765625)"/>
      <use xlink:href="#DejaVuSans-Oblique-75" transform="translate(33.691406 0.765625)"/>
      <use xlink:href="#DejaVuSans-33" transform="translate(97.070312 -15.640625) scale(0.7)"/>
      <use xlink:href="#DejaVuSans-7c" transform="translate(144.34082 0.765625)"/>
      <use xlink:href="#DejaVuSans-32" transform="translate(178.989258 39.046875) scale(0.7)"/>
     </g>
    </g>
   </g>
   <g id="patch_38">
    <path d="M 60.834 311.984 
L 60.834 267.468 
" style="fill: none; stroke: #000000; stroke-width: 0.8; stroke-linejoin: miter; stroke-linecap: square"/>
   </g>
   <g id="patch_39">
    <path d="M 268.56 311.984 
L 268.56 267.468 
" style="fill: none; stroke: #000000; stroke-width: 0.8; stroke-linejoin: miter; stroke-linecap: square"/>
   </g>
   <g id="patch_40">
    <path d="M 60.834 311.984 
L 268.56 311.984 
" style="fill: none; stroke: #000000; stroke-width: 0.8; stroke-linejoin: miter; stroke-linecap: square"/>
   </g>
   <g id="patch_41">
    <path d="M 60.834 267.468 
L 268.56 267.468 
" style="fill: none; stroke: #000000; stroke-width: 0.8; stroke-linejoin: miter; stroke-linecap: square"/>
   </g>
  </g>
  <g id="axes_5">
   <g id="patch_42">
    <path d="M 60.834 392.5 
L 268.56 392.5 
L 268.56 347.984 
L 60.834 347.984 
L 60.834 392.5 
z
" style="fill: none"/>
   </g>
   <g id="patch_43">
    <path d="M 70.276091 392.5 
L 101.749727 392.5 
L 101.749727 392.06851 
L 70.276091 392.06851 
z
" clip-path="url(#pde12bb6bcb)" style="fill: #fde725"/>
   </g>
   <g id="patch_44">
    <path d="M 109.618136 392.5 
L 141.091773 392.5 
L 141.091773 378.415701 
L 109.618136 378.415701 
z
" clip-path="url(#pde12bb6bcb)" style="fill: #fde725"/>
   </g>
   <g id="patch_45">
    <path d="M 148.960182 392.5 
L 180.433818 392.5 
L 180.433818 383.55083 
L 148.960182 383.55083 
z
" clip-path="url(#pde12bb6bcb)" style="fill: #fde725"/>
   </g>
   <g id="patch_46">
    <path d="M 188.302227 392.5 
L 219.775864 392.5 
L 219.775864 388.745009 
L 188.302227 388.745009 
z
" clip-path="url(#pde12bb6bcb)" style="fill: #fde725"/>
   </g>
   <g id="patch_47">
    <path d="M 227.644273 392.5 
L 259.117909 392.5 
L 259.117909 375.20395 
L 227.644273 375.20395 
z
" clip-path="url(#pde12bb6bcb)" style="fill: #fde725"/>
   </g>
   <g id="matplotlib.axis_9">
    <g id="xtick_13">
     <g id="line2d_21">
      <g>
       <use xlink:href="#mbceab2cd16" x="86.012909" y="392.5" style="stroke: #000000; stroke-width: 0.8"/>
      </g>
     </g>
     <g id="text_13">
      <!-- 0 -->
      <g transform="translate(81.008065 408.884062) scale(0.18 -0.18)">
       <use xlink:href="#ArialMT-30"/>
      </g>
     </g>
    </g>
    <g id="xtick_14">
     <g id="line2d_22">
      <g>
       <use xlink:href="#mbceab2cd16" x="164.697" y="392.5" style="stroke: #000000; stroke-width: 0.8"/>
      </g>
     </g>
     <g id="text_14">
      <!-- 2 -->
      <g transform="translate(159.692156 408.884062) scale(0.18 -0.18)">
       <defs>
        <path id="ArialMT-32" d="M 3222 541 
L 3222 0 
L 194 0 
Q 188 203 259 391 
Q 375 700 629 1000 
Q 884 1300 1366 1694 
Q 2113 2306 2375 2664 
Q 2638 3022 2638 3341 
Q 2638 3675 2398 3904 
Q 2159 4134 1775 4134 
Q 1369 4134 1125 3890 
Q 881 3647 878 3216 
L 300 3275 
Q 359 3922 746 4261 
Q 1134 4600 1788 4600 
Q 2447 4600 2831 4234 
Q 3216 3869 3216 3328 
Q 3216 3053 3103 2787 
Q 2991 2522 2730 2228 
Q 2469 1934 1863 1422 
Q 1356 997 1212 845 
Q 1069 694 975 541 
L 3222 541 
z
" transform="scale(0.015625)"/>
       </defs>
       <use xlink:href="#ArialMT-32"/>
      </g>
     </g>
    </g>
    <g id="xtick_15">
     <g id="line2d_23">
      <g>
       <use xlink:href="#mbceab2cd16" x="243.381091" y="392.5" style="stroke: #000000; stroke-width: 0.8"/>
      </g>
     </g>
     <g id="text_15">
      <!-- 4 -->
      <g transform="translate(238.376247 408.884062) scale(0.18 -0.18)">
       <defs>
        <path id="ArialMT-34" d="M 2069 0 
L 2069 1097 
L 81 1097 
L 81 1613 
L 2172 4581 
L 2631 4581 
L 2631 1613 
L 3250 1613 
L 3250 1097 
L 2631 1097 
L 2631 0 
L 2069 0 
z
M 2069 1613 
L 2069 3678 
L 634 1613 
L 2069 1613 
z
" transform="scale(0.015625)"/>
       </defs>
       <use xlink:href="#ArialMT-34"/>
      </g>
     </g>
    </g>
   </g>
   <g id="matplotlib.axis_10">
    <g id="ytick_9">
     <g id="line2d_24">
      <g>
       <use xlink:href="#m86d9c47aa5" x="60.834" y="392.5" style="stroke: #000000; stroke-width: 0.8"/>
      </g>
     </g>
     <g id="text_16">
      <!-- 0 -->
      <g transform="translate(47.324312 398.942031) scale(0.18 -0.18)">
       <use xlink:href="#ArialMT-30"/>
      </g>
     </g>
    </g>
    <g id="ytick_10">
     <g id="line2d_25">
      <g>
       <use xlink:href="#m86d9c47aa5" x="60.834" y="347.984" style="stroke: #000000; stroke-width: 0.8"/>
      </g>
     </g>
     <g id="text_17">
      <!-- 1 -->
      <g transform="translate(47.324312 354.426031) scale(0.18 -0.18)">
       <use xlink:href="#ArialMT-31"/>
      </g>
     </g>
    </g>
    <g id="text_18">
     <!-- ${|u_4|}^2$ -->
     <g transform="translate(39.004312 390.672) rotate(-90) scale(0.18 -0.18)">
      <defs>
       <path id="DejaVuSans-34" d="M 2419 4116 
L 825 1625 
L 2419 1625 
L 2419 4116 
z
M 2253 4666 
L 3047 4666 
L 3047 1625 
L 3713 1625 
L 3713 1100 
L 3047 1100 
L 3047 0 
L 2419 0 
L 2419 1100 
L 313 1100 
L 313 1709 
L 2253 4666 
z
" transform="scale(0.015625)"/>
      </defs>
      <use xlink:href="#DejaVuSans-7c" transform="translate(0 0.765625)"/>
      <use xlink:href="#DejaVuSans-Oblique-75" transform="translate(33.691406 0.765625)"/>
      <use xlink:href="#DejaVuSans-34" transform="translate(97.070312 -15.640625) scale(0.7)"/>
      <use xlink:href="#DejaVuSans-7c" transform="translate(144.34082 0.765625)"/>
      <use xlink:href="#DejaVuSans-32" transform="translate(178.989258 39.046875) scale(0.7)"/>
     </g>
    </g>
   </g>
   <g id="patch_48">
    <path d="M 60.834 392.5 
L 60.834 347.984 
" style="fill: none; stroke: #000000; stroke-width: 0.8; stroke-linejoin: miter; stroke-linecap: square"/>
   </g>
   <g id="patch_49">
    <path d="M 268.56 392.5 
L 268.56 347.984 
" style="fill: none; stroke: #000000; stroke-width: 0.8; stroke-linejoin: miter; stroke-linecap: square"/>
   </g>
   <g id="patch_50">
    <path d="M 60.834 392.5 
L 268.56 392.5 
" style="fill: none; stroke: #000000; stroke-width: 0.8; stroke-linejoin: miter; stroke-linecap: square"/>
   </g>
   <g id="patch_51">
    <path d="M 60.834 347.984 
L 268.56 347.984 
" style="fill: none; stroke: #000000; stroke-width: 0.8; stroke-linejoin: miter; stroke-linecap: square"/>
   </g>
  </g>
 </g>
 <defs>
  <clipPath id="p95266a4637">
   <rect x="60.834" y="25.92" width="207.726" height="44.516"/>
  </clipPath>
  <clipPath id="pa71d7de0cf">
   <rect x="60.834" y="106.436" width="207.726" height="44.516"/>
  </clipPath>
  <clipPath id="p2d2ef1b087">
   <rect x="60.834" y="186.952" width="207.726" height="44.516"/>
  </clipPath>
  <clipPath id="pe78fa713b9">
   <rect x="60.834" y="267.468" width="207.726" height="44.516"/>
  </clipPath>
  <clipPath id="pde12bb6bcb">
   <rect x="60.834" y="347.984" width="207.726" height="44.516"/>
  </clipPath>
 </defs>
</svg>
