<?xml version="1.0" encoding="utf-8" standalone="no"?>
<!DOCTYPE svg PUBLIC "-//W3C//DTD SVG 1.1//EN"
  "http://www.w3.org/Graphics/SVG/1.1/DTD/svg11.dtd">
<svg xmlns:xlink="http://www.w3.org/1999/xlink" width="504pt" height="216pt" viewBox="0 0 504 216" xmlns="http://www.w3.org/2000/svg" version="1.1">
 <metadata>
  <rdf:RDF xmlns:dc="http://purl.org/dc/elements/1.1/" xmlns:cc="http://creativecommons.org/ns#" xmlns:rdf="http://www.w3.org/1999/02/22-rdf-syntax-ns#">
   <cc:Work>
    <dc:type rdf:resource="http://purl.org/dc/dcmitype/StillImage"/>
    <dc:date>2024-07-09T19:28:30.950949</dc:date>
    <dc:format>image/svg+xml</dc:format>
    <dc:creator>
     <cc:Agent>
      <dc:title>Matplotlib v3.8.0, https://matplotlib.org/</dc:title>
     </cc:Agent>
    </dc:creator>
   </cc:Work>
  </rdf:RDF>
 </metadata>
 <defs>
  <style type="text/css">*{stroke-linejoin: round; stroke-linecap: butt}</style>
 </defs>
 <g id="figure_1">
  <g id="patch_1">
   <path d="M 0 216 
L 504 216 
L 504 0 
L 0 0 
L 0 216 
z
" style="fill: none"/>
  </g>
  <g id="axes_1">
   <g id="patch_2">
    <path d="M 70.59 155.94 
L 213.205572 155.94 
L 213.205572 19.44 
L 70.59 19.44 
L 70.59 155.94 
z
" style="fill: none"/>
   </g>
   <g id="matplotlib.axis_1">
    <g id="xtick_1">
     <g id="line2d_1">
      <defs>
       <path id="m444604e36f" d="M 0 0 
L 0 -3.5 
" style="stroke: #000000; stroke-width: 0.8"/>
      </defs>
      <g>
       <use xlink:href="#m444604e36f" x="77.072526" y="155.94" style="stroke: #000000; stroke-width: 0.8"/>
      </g>
     </g>
     <g id="text_1">
      <!-- 0.0 -->
      <g transform="translate(64.562526 172.324062) scale(0.18 -0.18)">
       <defs>
        <path id="ArialMT-30" d="M 266 2259 
Q 266 3072 433 3567 
Q 600 4063 929 4331 
Q 1259 4600 1759 4600 
Q 2128 4600 2406 4451 
Q 2684 4303 2865 4023 
Q 3047 3744 3150 3342 
Q 3253 2941 3253 2259 
Q 3253 1453 3087 958 
Q 2922 463 2592 192 
Q 2263 -78 1759 -78 
Q 1097 -78 719 397 
Q 266 969 266 2259 
z
M 844 2259 
Q 844 1131 1108 757 
Q 1372 384 1759 384 
Q 2147 384 2411 759 
Q 2675 1134 2675 2259 
Q 2675 3391 2411 3762 
Q 2147 4134 1753 4134 
Q 1366 4134 1134 3806 
Q 844 3388 844 2259 
z
" transform="scale(0.015625)"/>
        <path id="ArialMT-2e" d="M 581 0 
L 581 641 
L 1222 641 
L 1222 0 
L 581 0 
z
" transform="scale(0.015625)"/>
       </defs>
       <use xlink:href="#ArialMT-30"/>
       <use xlink:href="#ArialMT-2e" x="55.615234"/>
       <use xlink:href="#ArialMT-30" x="83.398438"/>
      </g>
     </g>
    </g>
    <g id="xtick_2">
     <g id="line2d_2">
      <g>
       <use xlink:href="#m444604e36f" x="206.723046" y="155.94" style="stroke: #000000; stroke-width: 0.8"/>
      </g>
     </g>
     <g id="text_2">
      <!-- 0.5 -->
      <g transform="translate(194.213046 172.324062) scale(0.18 -0.18)">
       <defs>
        <path id="ArialMT-35" d="M 266 1200 
L 856 1250 
Q 922 819 1161 601 
Q 1400 384 1738 384 
Q 2144 384 2425 690 
Q 2706 997 2706 1503 
Q 2706 1984 2436 2262 
Q 2166 2541 1728 2541 
Q 1456 2541 1237 2417 
Q 1019 2294 894 2097 
L 366 2166 
L 809 4519 
L 3088 4519 
L 3088 3981 
L 1259 3981 
L 1013 2750 
Q 1425 3038 1878 3038 
Q 2478 3038 2890 2622 
Q 3303 2206 3303 1553 
Q 3303 931 2941 478 
Q 2500 -78 1738 -78 
Q 1113 -78 717 272 
Q 322 622 266 1200 
z
" transform="scale(0.015625)"/>
       </defs>
       <use xlink:href="#ArialMT-30"/>
       <use xlink:href="#ArialMT-2e" x="55.615234"/>
       <use xlink:href="#ArialMT-35" x="83.398438"/>
      </g>
     </g>
    </g>
    <g id="text_3">
     <!-- $\kappa$ -->
     <g transform="translate(136.587786 192.785625) scale(0.18 -0.18)">
      <defs>
       <path id="DejaVuSans-Oblique-3ba" d="M 938 3500 
L 1531 3500 
L 1247 2047 
L 3041 3500 
L 3741 3500 
L 2106 2181 
L 3275 0 
L 2572 0 
L 1628 1806 
L 1122 1403 
L 850 0 
L 256 0 
L 938 3500 
z
" transform="scale(0.015625)"/>
      </defs>
      <use xlink:href="#DejaVuSans-Oblique-3ba" transform="translate(0 0.3125)"/>
     </g>
    </g>
   </g>
   <g id="matplotlib.axis_2">
    <g id="ytick_1">
     <g id="line2d_3">
      <defs>
       <path id="m078c5bf83f" d="M 0 0 
L 3.5 0 
" style="stroke: #000000; stroke-width: 0.8"/>
      </defs>
      <g>
       <use xlink:href="#m078c5bf83f" x="70.59" y="149.735455" style="stroke: #000000; stroke-width: 0.8"/>
      </g>
     </g>
     <g id="text_4">
      <!-- 0.0 -->
      <g transform="translate(42.07 156.177486) scale(0.18 -0.18)">
       <use xlink:href="#ArialMT-30"/>
       <use xlink:href="#ArialMT-2e" x="55.615234"/>
       <use xlink:href="#ArialMT-30" x="83.398438"/>
      </g>
     </g>
    </g>
    <g id="ytick_2">
     <g id="line2d_4">
      <g>
       <use xlink:href="#m078c5bf83f" x="70.59" y="87.69" style="stroke: #000000; stroke-width: 0.8"/>
      </g>
     </g>
     <g id="text_5">
      <!-- 0.5 -->
      <g transform="translate(42.07 94.132031) scale(0.18 -0.18)">
       <use xlink:href="#ArialMT-30"/>
       <use xlink:href="#ArialMT-2e" x="55.615234"/>
       <use xlink:href="#ArialMT-35" x="83.398438"/>
      </g>
     </g>
    </g>
    <g id="ytick_3">
     <g id="line2d_5">
      <g>
       <use xlink:href="#m078c5bf83f" x="70.59" y="25.644545" style="stroke: #000000; stroke-width: 0.8"/>
      </g>
     </g>
     <g id="text_6">
      <!-- 1.0 -->
      <g transform="translate(42.07 32.086577) scale(0.18 -0.18)">
       <defs>
        <path id="ArialMT-31" d="M 2384 0 
L 1822 0 
L 1822 3584 
Q 1619 3391 1289 3197 
Q 959 3003 697 2906 
L 697 3450 
Q 1169 3672 1522 3987 
Q 1875 4303 2022 4600 
L 2384 4600 
L 2384 0 
z
" transform="scale(0.015625)"/>
       </defs>
       <use xlink:href="#ArialMT-31"/>
       <use xlink:href="#ArialMT-2e" x="55.615234"/>
       <use xlink:href="#ArialMT-30" x="83.398438"/>
      </g>
     </g>
    </g>
    <g id="text_7">
     <!-- Re$(\omega)$ -->
     <g transform="translate(34.4925 113.79) rotate(-90) scale(0.18 -0.18)">
      <defs>
       <path id="ArialMT-52" d="M 503 0 
L 503 4581 
L 2534 4581 
Q 3147 4581 3465 4457 
Q 3784 4334 3975 4021 
Q 4166 3709 4166 3331 
Q 4166 2844 3850 2509 
Q 3534 2175 2875 2084 
Q 3116 1969 3241 1856 
Q 3506 1613 3744 1247 
L 4541 0 
L 3778 0 
L 3172 953 
Q 2906 1366 2734 1584 
Q 2563 1803 2427 1890 
Q 2291 1978 2150 2013 
Q 2047 2034 1813 2034 
L 1109 2034 
L 1109 0 
L 503 0 
z
M 1109 2559 
L 2413 2559 
Q 2828 2559 3062 2645 
Q 3297 2731 3419 2920 
Q 3541 3109 3541 3331 
Q 3541 3656 3305 3865 
Q 3069 4075 2559 4075 
L 1109 4075 
L 1109 2559 
z
" transform="scale(0.015625)"/>
       <path id="ArialMT-65" d="M 2694 1069 
L 3275 997 
Q 3138 488 2766 206 
Q 2394 -75 1816 -75 
Q 1088 -75 661 373 
Q 234 822 234 1631 
Q 234 2469 665 2931 
Q 1097 3394 1784 3394 
Q 2450 3394 2872 2941 
Q 3294 2488 3294 1666 
Q 3294 1616 3291 1516 
L 816 1516 
Q 847 969 1125 678 
Q 1403 388 1819 388 
Q 2128 388 2347 550 
Q 2566 713 2694 1069 
z
M 847 1978 
L 2700 1978 
Q 2663 2397 2488 2606 
Q 2219 2931 1791 2931 
Q 1403 2931 1139 2672 
Q 875 2413 847 1978 
z
" transform="scale(0.015625)"/>
       <path id="DejaVuSans-28" d="M 1984 4856 
Q 1566 4138 1362 3434 
Q 1159 2731 1159 2009 
Q 1159 1288 1364 580 
Q 1569 -128 1984 -844 
L 1484 -844 
Q 1016 -109 783 600 
Q 550 1309 550 2009 
Q 550 2706 781 3412 
Q 1013 4119 1484 4856 
L 1984 4856 
z
" transform="scale(0.015625)"/>
       <path id="DejaVuSans-Oblique-3c9" d="M 1369 -91 
Q 72 -91 434 1766 
Q 575 2500 1256 3500 
L 1875 3500 
Q 1231 2500 1088 1750 
Q 819 397 1519 397 
Q 2166 397 2478 2078 
L 3009 2078 
Q 2669 388 3316 397 
Q 4013 403 4275 1750 
Q 4419 2500 4169 3500 
L 4788 3500 
Q 5075 2500 4934 1766 
Q 4578 -94 3278 -91 
Q 2428 -88 2503 844 
Q 2194 -91 1369 -91 
z
" transform="scale(0.015625)"/>
       <path id="DejaVuSans-29" d="M 513 4856 
L 1013 4856 
Q 1481 4119 1714 3412 
Q 1947 2706 1947 2009 
Q 1947 1309 1714 600 
Q 1481 -109 1013 -844 
L 513 -844 
Q 928 -128 1133 580 
Q 1338 1288 1338 2009 
Q 1338 2731 1133 3434 
Q 928 4138 513 4856 
z
" transform="scale(0.015625)"/>
      </defs>
      <use xlink:href="#ArialMT-52" transform="translate(0 0.125)"/>
      <use xlink:href="#ArialMT-65" transform="translate(72.216797 0.125)"/>
      <use xlink:href="#DejaVuSans-28" transform="translate(127.832031 0.125)"/>
      <use xlink:href="#DejaVuSans-Oblique-3c9" transform="translate(166.845703 0.125)"/>
      <use xlink:href="#DejaVuSans-29" transform="translate(250.585938 0.125)"/>
     </g>
    </g>
   </g>
   <g id="line2d_6">
    <defs>
     <path id="m212b891afc" d="M 0 3 
C 0.795609 3 1.55874 2.683901 2.12132 2.12132 
C 2.683901 1.55874 3 0.795609 3 0 
C 3 -0.795609 2.683901 -1.55874 2.12132 -2.12132 
C 1.55874 -2.683901 0.795609 -3 0 -3 
C -0.795609 -3 -1.55874 -2.683901 -2.12132 -2.12132 
C -2.683901 -1.55874 -3 -0.795609 -3 0 
C -3 0.795609 -2.683901 1.55874 -2.12132 2.12132 
C -1.55874 2.683901 -0.795609 3 0 3 
z
" style="stroke: #440154"/>
    </defs>
    <g clip-path="url(#pbec0827a0e)">
     <use xlink:href="#m212b891afc" x="77.072526" y="25.644545" style="fill: #440154; stroke: #440154"/>
     <use xlink:href="#m212b891afc" x="79.665536" y="25.694202" style="fill: #440154; stroke: #440154"/>
     <use xlink:href="#m212b891afc" x="82.258547" y="25.84341" style="fill: #440154; stroke: #440154"/>
     <use xlink:href="#m212b891afc" x="84.851557" y="26.092893" style="fill: #440154; stroke: #440154"/>
     <use xlink:href="#m212b891afc" x="87.444568" y="26.443876" style="fill: #440154; stroke: #440154"/>
     <use xlink:href="#m212b891afc" x="90.037578" y="26.898118" style="fill: #440154; stroke: #440154"/>
     <use xlink:href="#m212b891afc" x="92.630588" y="27.457955" style="fill: #440154; stroke: #440154"/>
     <use xlink:href="#m212b891afc" x="95.223599" y="28.126364" style="fill: #440154; stroke: #440154"/>
     <use xlink:href="#m212b891afc" x="97.816609" y="28.907048" style="fill: #440154; stroke: #440154"/>
     <use xlink:href="#m212b891afc" x="100.40962" y="29.80455" style="fill: #440154; stroke: #440154"/>
     <use xlink:href="#m212b891afc" x="103.00263" y="30.824402" style="fill: #440154; stroke: #440154"/>
     <use xlink:href="#m212b891afc" x="105.59564" y="31.97332" style="fill: #440154; stroke: #440154"/>
     <use xlink:href="#m212b891afc" x="108.188651" y="33.259478" style="fill: #440154; stroke: #440154"/>
     <use xlink:href="#m212b891afc" x="110.781661" y="34.692866" style="fill: #440154; stroke: #440154"/>
     <use xlink:href="#m212b891afc" x="113.374672" y="36.2858" style="fill: #440154; stroke: #440154"/>
     <use xlink:href="#m212b891afc" x="115.967682" y="38.053636" style="fill: #440154; stroke: #440154"/>
     <use xlink:href="#m212b891afc" x="118.560692" y="40.01583" style="fill: #440154; stroke: #440154"/>
     <use xlink:href="#m212b891afc" x="121.153703" y="42.197521" style="fill: #440154; stroke: #440154"/>
     <use xlink:href="#m212b891afc" x="123.746713" y="44.632064" style="fill: #440154; stroke: #440154"/>
     <use xlink:href="#m212b891afc" x="126.339724" y="47.365228" style="fill: #440154; stroke: #440154"/>
     <use xlink:href="#m212b891afc" x="128.932734" y="50.462727" style="fill: #440154; stroke: #440154"/>
     <use xlink:href="#m212b891afc" x="131.525744" y="54.02498" style="fill: #440154; stroke: #440154"/>
     <use xlink:href="#m212b891afc" x="134.118755" y="58.220042" style="fill: #440154; stroke: #440154"/>
     <use xlink:href="#m212b891afc" x="136.711765" y="63.373247" style="fill: #440154; stroke: #440154"/>
     <use xlink:href="#m212b891afc" x="139.304776" y="70.317273" style="fill: #440154; stroke: #440154"/>
     <use xlink:href="#m212b891afc" x="141.897786" y="87.689998" style="fill: #440154; stroke: #440154"/>
     <use xlink:href="#m212b891afc" x="144.490796" y="87.69" style="fill: #440154; stroke: #440154"/>
     <use xlink:href="#m212b891afc" x="147.083807" y="87.69" style="fill: #440154; stroke: #440154"/>
     <use xlink:href="#m212b891afc" x="149.676817" y="87.69" style="fill: #440154; stroke: #440154"/>
     <use xlink:href="#m212b891afc" x="152.269828" y="87.69" style="fill: #440154; stroke: #440154"/>
     <use xlink:href="#m212b891afc" x="154.862838" y="87.69" style="fill: #440154; stroke: #440154"/>
     <use xlink:href="#m212b891afc" x="157.455848" y="87.69" style="fill: #440154; stroke: #440154"/>
     <use xlink:href="#m212b891afc" x="160.048859" y="87.69" style="fill: #440154; stroke: #440154"/>
     <use xlink:href="#m212b891afc" x="162.641869" y="87.69" style="fill: #440154; stroke: #440154"/>
     <use xlink:href="#m212b891afc" x="165.23488" y="87.69" style="fill: #440154; stroke: #440154"/>
     <use xlink:href="#m212b891afc" x="167.82789" y="87.69" style="fill: #440154; stroke: #440154"/>
     <use xlink:href="#m212b891afc" x="170.4209" y="87.69" style="fill: #440154; stroke: #440154"/>
     <use xlink:href="#m212b891afc" x="173.013911" y="87.69" style="fill: #440154; stroke: #440154"/>
     <use xlink:href="#m212b891afc" x="175.606921" y="87.69" style="fill: #440154; stroke: #440154"/>
     <use xlink:href="#m212b891afc" x="178.199932" y="87.69" style="fill: #440154; stroke: #440154"/>
     <use xlink:href="#m212b891afc" x="180.792942" y="87.69" style="fill: #440154; stroke: #440154"/>
     <use xlink:href="#m212b891afc" x="183.385952" y="87.69" style="fill: #440154; stroke: #440154"/>
     <use xlink:href="#m212b891afc" x="185.978963" y="87.69" style="fill: #440154; stroke: #440154"/>
     <use xlink:href="#m212b891afc" x="188.571973" y="87.69" style="fill: #440154; stroke: #440154"/>
     <use xlink:href="#m212b891afc" x="191.164984" y="87.69" style="fill: #440154; stroke: #440154"/>
     <use xlink:href="#m212b891afc" x="193.757994" y="87.69" style="fill: #440154; stroke: #440154"/>
     <use xlink:href="#m212b891afc" x="196.351004" y="87.69" style="fill: #440154; stroke: #440154"/>
     <use xlink:href="#m212b891afc" x="198.944015" y="87.69" style="fill: #440154; stroke: #440154"/>
     <use xlink:href="#m212b891afc" x="201.537025" y="87.69" style="fill: #440154; stroke: #440154"/>
     <use xlink:href="#m212b891afc" x="204.130036" y="87.69" style="fill: #440154; stroke: #440154"/>
     <use xlink:href="#m212b891afc" x="206.723046" y="87.69" style="fill: #440154; stroke: #440154"/>
    </g>
   </g>
   <g id="line2d_7">
    <defs>
     <path id="ma69b8aae5a" d="M 0 3 
C 0.795609 3 1.55874 2.683901 2.12132 2.12132 
C 2.683901 1.55874 3 0.795609 3 0 
C 3 -0.795609 2.683901 -1.55874 2.12132 -2.12132 
C 1.55874 -2.683901 0.795609 -3 0 -3 
C -0.795609 -3 -1.55874 -2.683901 -2.12132 -2.12132 
C -2.683901 -1.55874 -3 -0.795609 -3 0 
C -3 0.795609 -2.683901 1.55874 -2.12132 2.12132 
C -1.55874 2.683901 -0.795609 3 0 3 
z
" style="stroke: #fde725"/>
    </defs>
    <g clip-path="url(#pbec0827a0e)">
     <use xlink:href="#ma69b8aae5a" x="77.072526" y="149.735455" style="fill: #fde725; stroke: #fde725"/>
     <use xlink:href="#ma69b8aae5a" x="79.665536" y="149.685798" style="fill: #fde725; stroke: #fde725"/>
     <use xlink:href="#ma69b8aae5a" x="82.258547" y="149.53659" style="fill: #fde725; stroke: #fde725"/>
     <use xlink:href="#ma69b8aae5a" x="84.851557" y="149.287107" style="fill: #fde725; stroke: #fde725"/>
     <use xlink:href="#ma69b8aae5a" x="87.444568" y="148.936124" style="fill: #fde725; stroke: #fde725"/>
     <use xlink:href="#ma69b8aae5a" x="90.037578" y="148.481882" style="fill: #fde725; stroke: #fde725"/>
     <use xlink:href="#ma69b8aae5a" x="92.630588" y="147.922045" style="fill: #fde725; stroke: #fde725"/>
     <use xlink:href="#ma69b8aae5a" x="95.223599" y="147.253636" style="fill: #fde725; stroke: #fde725"/>
     <use xlink:href="#ma69b8aae5a" x="97.816609" y="146.472952" style="fill: #fde725; stroke: #fde725"/>
     <use xlink:href="#ma69b8aae5a" x="100.40962" y="145.57545" style="fill: #fde725; stroke: #fde725"/>
     <use xlink:href="#ma69b8aae5a" x="103.00263" y="144.555598" style="fill: #fde725; stroke: #fde725"/>
     <use xlink:href="#ma69b8aae5a" x="105.59564" y="143.40668" style="fill: #fde725; stroke: #fde725"/>
     <use xlink:href="#ma69b8aae5a" x="108.188651" y="142.120522" style="fill: #fde725; stroke: #fde725"/>
     <use xlink:href="#ma69b8aae5a" x="110.781661" y="140.687134" style="fill: #fde725; stroke: #fde725"/>
     <use xlink:href="#ma69b8aae5a" x="113.374672" y="139.0942" style="fill: #fde725; stroke: #fde725"/>
     <use xlink:href="#ma69b8aae5a" x="115.967682" y="137.326364" style="fill: #fde725; stroke: #fde725"/>
     <use xlink:href="#ma69b8aae5a" x="118.560692" y="135.36417" style="fill: #fde725; stroke: #fde725"/>
     <use xlink:href="#ma69b8aae5a" x="121.153703" y="133.182479" style="fill: #fde725; stroke: #fde725"/>
     <use xlink:href="#ma69b8aae5a" x="123.746713" y="130.747936" style="fill: #fde725; stroke: #fde725"/>
     <use xlink:href="#ma69b8aae5a" x="126.339724" y="128.014772" style="fill: #fde725; stroke: #fde725"/>
     <use xlink:href="#ma69b8aae5a" x="128.932734" y="124.917273" style="fill: #fde725; stroke: #fde725"/>
     <use xlink:href="#ma69b8aae5a" x="131.525744" y="121.35502" style="fill: #fde725; stroke: #fde725"/>
     <use xlink:href="#ma69b8aae5a" x="134.118755" y="117.159958" style="fill: #fde725; stroke: #fde725"/>
     <use xlink:href="#ma69b8aae5a" x="136.711765" y="112.006753" style="fill: #fde725; stroke: #fde725"/>
     <use xlink:href="#ma69b8aae5a" x="139.304776" y="105.062727" style="fill: #fde725; stroke: #fde725"/>
     <use xlink:href="#ma69b8aae5a" x="141.897786" y="87.690002" style="fill: #fde725; stroke: #fde725"/>
     <use xlink:href="#ma69b8aae5a" x="144.490796" y="87.69" style="fill: #fde725; stroke: #fde725"/>
     <use xlink:href="#ma69b8aae5a" x="147.083807" y="87.69" style="fill: #fde725; stroke: #fde725"/>
     <use xlink:href="#ma69b8aae5a" x="149.676817" y="87.69" style="fill: #fde725; stroke: #fde725"/>
     <use xlink:href="#ma69b8aae5a" x="152.269828" y="87.69" style="fill: #fde725; stroke: #fde725"/>
     <use xlink:href="#ma69b8aae5a" x="154.862838" y="87.69" style="fill: #fde725; stroke: #fde725"/>
     <use xlink:href="#ma69b8aae5a" x="157.455848" y="87.69" style="fill: #fde725; stroke: #fde725"/>
     <use xlink:href="#ma69b8aae5a" x="160.048859" y="87.69" style="fill: #fde725; stroke: #fde725"/>
     <use xlink:href="#ma69b8aae5a" x="162.641869" y="87.69" style="fill: #fde725; stroke: #fde725"/>
     <use xlink:href="#ma69b8aae5a" x="165.23488" y="87.69" style="fill: #fde725; stroke: #fde725"/>
     <use xlink:href="#ma69b8aae5a" x="167.82789" y="87.69" style="fill: #fde725; stroke: #fde725"/>
     <use xlink:href="#ma69b8aae5a" x="170.4209" y="87.69" style="fill: #fde725; stroke: #fde725"/>
     <use xlink:href="#ma69b8aae5a" x="173.013911" y="87.69" style="fill: #fde725; stroke: #fde725"/>
     <use xlink:href="#ma69b8aae5a" x="175.606921" y="87.69" style="fill: #fde725; stroke: #fde725"/>
     <use xlink:href="#ma69b8aae5a" x="178.199932" y="87.69" style="fill: #fde725; stroke: #fde725"/>
     <use xlink:href="#ma69b8aae5a" x="180.792942" y="87.69" style="fill: #fde725; stroke: #fde725"/>
     <use xlink:href="#ma69b8aae5a" x="183.385952" y="87.69" style="fill: #fde725; stroke: #fde725"/>
     <use xlink:href="#ma69b8aae5a" x="185.978963" y="87.69" style="fill: #fde725; stroke: #fde725"/>
     <use xlink:href="#ma69b8aae5a" x="188.571973" y="87.69" style="fill: #fde725; stroke: #fde725"/>
     <use xlink:href="#ma69b8aae5a" x="191.164984" y="87.69" style="fill: #fde725; stroke: #fde725"/>
     <use xlink:href="#ma69b8aae5a" x="193.757994" y="87.69" style="fill: #fde725; stroke: #fde725"/>
     <use xlink:href="#ma69b8aae5a" x="196.351004" y="87.69" style="fill: #fde725; stroke: #fde725"/>
     <use xlink:href="#ma69b8aae5a" x="198.944015" y="87.69" style="fill: #fde725; stroke: #fde725"/>
     <use xlink:href="#ma69b8aae5a" x="201.537025" y="87.69" style="fill: #fde725; stroke: #fde725"/>
     <use xlink:href="#ma69b8aae5a" x="204.130036" y="87.69" style="fill: #fde725; stroke: #fde725"/>
     <use xlink:href="#ma69b8aae5a" x="206.723046" y="87.69" style="fill: #fde725; stroke: #fde725"/>
    </g>
   </g>
   <g id="patch_3">
    <path d="M 70.59 155.94 
L 70.59 19.44 
" style="fill: none; stroke: #000000; stroke-width: 0.8; stroke-linejoin: miter; stroke-linecap: square"/>
   </g>
   <g id="patch_4">
    <path d="M 213.205572 155.94 
L 213.205572 19.44 
" style="fill: none; stroke: #000000; stroke-width: 0.8; stroke-linejoin: miter; stroke-linecap: square"/>
   </g>
   <g id="patch_5">
    <path d="M 70.59 155.94 
L 213.205572 155.94 
" style="fill: none; stroke: #000000; stroke-width: 0.8; stroke-linejoin: miter; stroke-linecap: square"/>
   </g>
   <g id="patch_6">
    <path d="M 70.59 19.44 
L 213.205572 19.44 
" style="fill: none; stroke: #000000; stroke-width: 0.8; stroke-linejoin: miter; stroke-linecap: square"/>
   </g>
  </g>
  <g id="axes_2">
   <g id="patch_7">
    <path d="M 279.385572 155.94 
L 422.001144 155.94 
L 422.001144 19.44 
L 279.385572 19.44 
L 279.385572 155.94 
z
" style="fill: none"/>
   </g>
   <g id="matplotlib.axis_3">
    <g id="xtick_3">
     <g id="line2d_8">
      <g>
       <use xlink:href="#m444604e36f" x="285.868098" y="155.94" style="stroke: #000000; stroke-width: 0.8"/>
      </g>
     </g>
     <g id="text_8">
      <!-- 0.0 -->
      <g transform="translate(273.358098 172.324062) scale(0.18 -0.18)">
       <use xlink:href="#ArialMT-30"/>
       <use xlink:href="#ArialMT-2e" x="55.615234"/>
       <use xlink:href="#ArialMT-30" x="83.398438"/>
      </g>
     </g>
    </g>
    <g id="xtick_4">
     <g id="line2d_9">
      <g>
       <use xlink:href="#m444604e36f" x="415.518618" y="155.94" style="stroke: #000000; stroke-width: 0.8"/>
      </g>
     </g>
     <g id="text_9">
      <!-- 0.5 -->
      <g transform="translate(403.008618 172.324062) scale(0.18 -0.18)">
       <use xlink:href="#ArialMT-30"/>
       <use xlink:href="#ArialMT-2e" x="55.615234"/>
       <use xlink:href="#ArialMT-35" x="83.398438"/>
      </g>
     </g>
    </g>
    <g id="text_10">
     <!-- $\kappa$ -->
     <g transform="translate(345.383358 192.785625) scale(0.18 -0.18)">
      <use xlink:href="#DejaVuSans-Oblique-3ba" transform="translate(0 0.3125)"/>
     </g>
    </g>
   </g>
   <g id="matplotlib.axis_4">
    <g id="ytick_4">
     <g id="line2d_10">
      <g>
       <use xlink:href="#m078c5bf83f" x="279.385572" y="144.565" style="stroke: #000000; stroke-width: 0.8"/>
      </g>
     </g>
     <g id="text_11">
      <!-- −1 -->
      <g transform="translate(255.36276 151.007031) scale(0.18 -0.18)">
       <defs>
        <path id="ArialMT-2212" d="M 3381 1997 
L 356 1997 
L 356 2522 
L 3381 2522 
L 3381 1997 
z
" transform="scale(0.015625)"/>
       </defs>
       <use xlink:href="#ArialMT-2212"/>
       <use xlink:href="#ArialMT-31" x="58.398438"/>
      </g>
     </g>
    </g>
    <g id="ytick_5">
     <g id="line2d_11">
      <g>
       <use xlink:href="#m078c5bf83f" x="279.385572" y="87.69" style="stroke: #000000; stroke-width: 0.8"/>
      </g>
     </g>
     <g id="text_12">
      <!-- 0 -->
      <g transform="translate(265.875885 94.132031) scale(0.18 -0.18)">
       <use xlink:href="#ArialMT-30"/>
      </g>
     </g>
    </g>
    <g id="ytick_6">
     <g id="line2d_12">
      <g>
       <use xlink:href="#m078c5bf83f" x="279.385572" y="30.815" style="stroke: #000000; stroke-width: 0.8"/>
      </g>
     </g>
     <g id="text_13">
      <!-- 1 -->
      <g transform="translate(265.875885 37.257031) scale(0.18 -0.18)">
       <use xlink:href="#ArialMT-31"/>
      </g>
     </g>
    </g>
    <g id="text_14">
     <!-- Im$(\omega)$ -->
     <g transform="translate(247.78526 112.26) rotate(-90) scale(0.18 -0.18)">
      <defs>
       <path id="ArialMT-49" d="M 597 0 
L 597 4581 
L 1203 4581 
L 1203 0 
L 597 0 
z
" transform="scale(0.015625)"/>
       <path id="ArialMT-6d" d="M 422 0 
L 422 3319 
L 925 3319 
L 925 2853 
Q 1081 3097 1340 3245 
Q 1600 3394 1931 3394 
Q 2300 3394 2536 3241 
Q 2772 3088 2869 2813 
Q 3263 3394 3894 3394 
Q 4388 3394 4653 3120 
Q 4919 2847 4919 2278 
L 4919 0 
L 4359 0 
L 4359 2091 
Q 4359 2428 4304 2576 
Q 4250 2725 4106 2815 
Q 3963 2906 3769 2906 
Q 3419 2906 3187 2673 
Q 2956 2441 2956 1928 
L 2956 0 
L 2394 0 
L 2394 2156 
Q 2394 2531 2256 2718 
Q 2119 2906 1806 2906 
Q 1569 2906 1367 2781 
Q 1166 2656 1075 2415 
Q 984 2175 984 1722 
L 984 0 
L 422 0 
z
" transform="scale(0.015625)"/>
      </defs>
      <use xlink:href="#ArialMT-49" transform="translate(0 0.125)"/>
      <use xlink:href="#ArialMT-6d" transform="translate(27.783203 0.125)"/>
      <use xlink:href="#DejaVuSans-28" transform="translate(111.083984 0.125)"/>
      <use xlink:href="#DejaVuSans-Oblique-3c9" transform="translate(150.097656 0.125)"/>
      <use xlink:href="#DejaVuSans-29" transform="translate(233.837891 0.125)"/>
     </g>
    </g>
   </g>
   <g id="line2d_13">
    <g clip-path="url(#p920362f3e3)">
     <use xlink:href="#m212b891afc" x="285.868098" y="59.2525" style="fill: #440154; stroke: #440154"/>
     <use xlink:href="#m212b891afc" x="288.461108" y="60.39" style="fill: #440154; stroke: #440154"/>
     <use xlink:href="#m212b891afc" x="291.054119" y="61.5275" style="fill: #440154; stroke: #440154"/>
     <use xlink:href="#m212b891afc" x="293.647129" y="62.665" style="fill: #440154; stroke: #440154"/>
     <use xlink:href="#m212b891afc" x="296.24014" y="63.8025" style="fill: #440154; stroke: #440154"/>
     <use xlink:href="#m212b891afc" x="298.83315" y="64.94" style="fill: #440154; stroke: #440154"/>
     <use xlink:href="#m212b891afc" x="301.42616" y="66.0775" style="fill: #440154; stroke: #440154"/>
     <use xlink:href="#m212b891afc" x="304.019171" y="67.215" style="fill: #440154; stroke: #440154"/>
     <use xlink:href="#m212b891afc" x="306.612181" y="68.3525" style="fill: #440154; stroke: #440154"/>
     <use xlink:href="#m212b891afc" x="309.205192" y="69.49" style="fill: #440154; stroke: #440154"/>
     <use xlink:href="#m212b891afc" x="311.798202" y="70.6275" style="fill: #440154; stroke: #440154"/>
     <use xlink:href="#m212b891afc" x="314.391212" y="71.765" style="fill: #440154; stroke: #440154"/>
     <use xlink:href="#m212b891afc" x="316.984223" y="72.9025" style="fill: #440154; stroke: #440154"/>
     <use xlink:href="#m212b891afc" x="319.577233" y="74.04" style="fill: #440154; stroke: #440154"/>
     <use xlink:href="#m212b891afc" x="322.170244" y="75.1775" style="fill: #440154; stroke: #440154"/>
     <use xlink:href="#m212b891afc" x="324.763254" y="76.315" style="fill: #440154; stroke: #440154"/>
     <use xlink:href="#m212b891afc" x="327.356264" y="77.4525" style="fill: #440154; stroke: #440154"/>
     <use xlink:href="#m212b891afc" x="329.949275" y="78.59" style="fill: #440154; stroke: #440154"/>
     <use xlink:href="#m212b891afc" x="332.542285" y="79.7275" style="fill: #440154; stroke: #440154"/>
     <use xlink:href="#m212b891afc" x="335.135296" y="80.865" style="fill: #440154; stroke: #440154"/>
     <use xlink:href="#m212b891afc" x="337.728306" y="82.0025" style="fill: #440154; stroke: #440154"/>
     <use xlink:href="#m212b891afc" x="340.321316" y="83.14" style="fill: #440154; stroke: #440154"/>
     <use xlink:href="#m212b891afc" x="342.914327" y="84.2775" style="fill: #440154; stroke: #440154"/>
     <use xlink:href="#m212b891afc" x="345.507337" y="85.415" style="fill: #440154; stroke: #440154"/>
     <use xlink:href="#m212b891afc" x="348.100348" y="86.5525" style="fill: #440154; stroke: #440154"/>
     <use xlink:href="#m212b891afc" x="350.693358" y="87.69" style="fill: #440154; stroke: #440154"/>
     <use xlink:href="#m212b891afc" x="353.286368" y="80.704125" style="fill: #440154; stroke: #440154"/>
     <use xlink:href="#m212b891afc" x="355.879379" y="78.364731" style="fill: #440154; stroke: #440154"/>
     <use xlink:href="#m212b891afc" x="358.472389" y="76.759171" style="fill: #440154; stroke: #440154"/>
     <use xlink:href="#m212b891afc" x="361.0654" y="75.522233" style="fill: #440154; stroke: #440154"/>
     <use xlink:href="#m212b891afc" x="363.65841" y="74.514197" style="fill: #440154; stroke: #440154"/>
     <use xlink:href="#m212b891afc" x="366.25142" y="73.664281" style="fill: #440154; stroke: #440154"/>
     <use xlink:href="#m212b891afc" x="368.844431" y="72.930955" style="fill: #440154; stroke: #440154"/>
     <use xlink:href="#m212b891afc" x="371.437441" y="72.2875" style="fill: #440154; stroke: #440154"/>
     <use xlink:href="#m212b891afc" x="374.030452" y="71.71559" style="fill: #440154; stroke: #440154"/>
     <use xlink:href="#m212b891afc" x="376.623462" y="71.202054" style="fill: #440154; stroke: #440154"/>
     <use xlink:href="#m212b891afc" x="379.216472" y="70.737078" style="fill: #440154; stroke: #440154"/>
     <use xlink:href="#m212b891afc" x="381.809483" y="70.313137" style="fill: #440154; stroke: #440154"/>
     <use xlink:href="#m212b891afc" x="384.402493" y="69.924325" style="fill: #440154; stroke: #440154"/>
     <use xlink:href="#m212b891afc" x="386.995504" y="69.565918" style="fill: #440154; stroke: #440154"/>
     <use xlink:href="#m212b891afc" x="389.588514" y="69.234074" style="fill: #440154; stroke: #440154"/>
     <use xlink:href="#m212b891afc" x="392.181524" y="68.925625" style="fill: #440154; stroke: #440154"/>
     <use xlink:href="#m212b891afc" x="394.774535" y="68.637928" style="fill: #440154; stroke: #440154"/>
     <use xlink:href="#m212b891afc" x="397.367545" y="68.368753" style="fill: #440154; stroke: #440154"/>
     <use xlink:href="#m212b891afc" x="399.960556" y="68.116203" style="fill: #440154; stroke: #440154"/>
     <use xlink:href="#m212b891afc" x="402.553566" y="67.878647" style="fill: #440154; stroke: #440154"/>
     <use xlink:href="#m212b891afc" x="405.146576" y="67.654679" style="fill: #440154; stroke: #440154"/>
     <use xlink:href="#m212b891afc" x="407.739587" y="67.443072" style="fill: #440154; stroke: #440154"/>
     <use xlink:href="#m212b891afc" x="410.332597" y="67.242752" style="fill: #440154; stroke: #440154"/>
     <use xlink:href="#m212b891afc" x="412.925608" y="67.052775" style="fill: #440154; stroke: #440154"/>
     <use xlink:href="#m212b891afc" x="415.518618" y="66.872305" style="fill: #440154; stroke: #440154"/>
    </g>
   </g>
   <g id="line2d_14">
    <g clip-path="url(#p920362f3e3)">
     <use xlink:href="#ma69b8aae5a" x="285.868098" y="59.2525" style="fill: #fde725; stroke: #fde725"/>
     <use xlink:href="#ma69b8aae5a" x="288.461108" y="60.39" style="fill: #fde725; stroke: #fde725"/>
     <use xlink:href="#ma69b8aae5a" x="291.054119" y="61.5275" style="fill: #fde725; stroke: #fde725"/>
     <use xlink:href="#ma69b8aae5a" x="293.647129" y="62.665" style="fill: #fde725; stroke: #fde725"/>
     <use xlink:href="#ma69b8aae5a" x="296.24014" y="63.8025" style="fill: #fde725; stroke: #fde725"/>
     <use xlink:href="#ma69b8aae5a" x="298.83315" y="64.94" style="fill: #fde725; stroke: #fde725"/>
     <use xlink:href="#ma69b8aae5a" x="301.42616" y="66.0775" style="fill: #fde725; stroke: #fde725"/>
     <use xlink:href="#ma69b8aae5a" x="304.019171" y="67.215" style="fill: #fde725; stroke: #fde725"/>
     <use xlink:href="#ma69b8aae5a" x="306.612181" y="68.3525" style="fill: #fde725; stroke: #fde725"/>
     <use xlink:href="#ma69b8aae5a" x="309.205192" y="69.49" style="fill: #fde725; stroke: #fde725"/>
     <use xlink:href="#ma69b8aae5a" x="311.798202" y="70.6275" style="fill: #fde725; stroke: #fde725"/>
     <use xlink:href="#ma69b8aae5a" x="314.391212" y="71.765" style="fill: #fde725; stroke: #fde725"/>
     <use xlink:href="#ma69b8aae5a" x="316.984223" y="72.9025" style="fill: #fde725; stroke: #fde725"/>
     <use xlink:href="#ma69b8aae5a" x="319.577233" y="74.04" style="fill: #fde725; stroke: #fde725"/>
     <use xlink:href="#ma69b8aae5a" x="322.170244" y="75.1775" style="fill: #fde725; stroke: #fde725"/>
     <use xlink:href="#ma69b8aae5a" x="324.763254" y="76.315" style="fill: #fde725; stroke: #fde725"/>
     <use xlink:href="#ma69b8aae5a" x="327.356264" y="77.4525" style="fill: #fde725; stroke: #fde725"/>
     <use xlink:href="#ma69b8aae5a" x="329.949275" y="78.59" style="fill: #fde725; stroke: #fde725"/>
     <use xlink:href="#ma69b8aae5a" x="332.542285" y="79.7275" style="fill: #fde725; stroke: #fde725"/>
     <use xlink:href="#ma69b8aae5a" x="335.135296" y="80.865" style="fill: #fde725; stroke: #fde725"/>
     <use xlink:href="#ma69b8aae5a" x="337.728306" y="82.0025" style="fill: #fde725; stroke: #fde725"/>
     <use xlink:href="#ma69b8aae5a" x="340.321316" y="83.14" style="fill: #fde725; stroke: #fde725"/>
     <use xlink:href="#ma69b8aae5a" x="342.914327" y="84.2775" style="fill: #fde725; stroke: #fde725"/>
     <use xlink:href="#ma69b8aae5a" x="345.507337" y="85.415" style="fill: #fde725; stroke: #fde725"/>
     <use xlink:href="#ma69b8aae5a" x="348.100348" y="86.5525" style="fill: #fde725; stroke: #fde725"/>
     <use xlink:href="#ma69b8aae5a" x="350.693358" y="87.69" style="fill: #fde725; stroke: #fde725"/>
     <use xlink:href="#ma69b8aae5a" x="353.286368" y="96.950875" style="fill: #fde725; stroke: #fde725"/>
     <use xlink:href="#ma69b8aae5a" x="355.879379" y="101.565269" style="fill: #fde725; stroke: #fde725"/>
     <use xlink:href="#ma69b8aae5a" x="358.472389" y="105.445829" style="fill: #fde725; stroke: #fde725"/>
     <use xlink:href="#ma69b8aae5a" x="361.0654" y="108.957767" style="fill: #fde725; stroke: #fde725"/>
     <use xlink:href="#ma69b8aae5a" x="363.65841" y="112.240803" style="fill: #fde725; stroke: #fde725"/>
     <use xlink:href="#ma69b8aae5a" x="366.25142" y="115.365719" style="fill: #fde725; stroke: #fde725"/>
     <use xlink:href="#ma69b8aae5a" x="368.844431" y="118.374045" style="fill: #fde725; stroke: #fde725"/>
     <use xlink:href="#ma69b8aae5a" x="371.437441" y="121.2925" style="fill: #fde725; stroke: #fde725"/>
     <use xlink:href="#ma69b8aae5a" x="374.030452" y="124.13941" style="fill: #fde725; stroke: #fde725"/>
     <use xlink:href="#ma69b8aae5a" x="376.623462" y="126.927946" style="fill: #fde725; stroke: #fde725"/>
     <use xlink:href="#ma69b8aae5a" x="379.216472" y="129.667922" style="fill: #fde725; stroke: #fde725"/>
     <use xlink:href="#ma69b8aae5a" x="381.809483" y="132.366863" style="fill: #fde725; stroke: #fde725"/>
     <use xlink:href="#ma69b8aae5a" x="384.402493" y="135.030675" style="fill: #fde725; stroke: #fde725"/>
     <use xlink:href="#ma69b8aae5a" x="386.995504" y="137.664082" style="fill: #fde725; stroke: #fde725"/>
     <use xlink:href="#ma69b8aae5a" x="389.588514" y="140.270926" style="fill: #fde725; stroke: #fde725"/>
     <use xlink:href="#ma69b8aae5a" x="392.181524" y="142.854375" style="fill: #fde725; stroke: #fde725"/>
     <use xlink:href="#ma69b8aae5a" x="394.774535" y="145.417072" style="fill: #fde725; stroke: #fde725"/>
     <use xlink:href="#ma69b8aae5a" x="397.367545" y="147.961247" style="fill: #fde725; stroke: #fde725"/>
     <use xlink:href="#ma69b8aae5a" x="399.960556" y="150.488797" style="fill: #fde725; stroke: #fde725"/>
     <use xlink:href="#ma69b8aae5a" x="402.553566" y="153.001353" style="fill: #fde725; stroke: #fde725"/>
     <use xlink:href="#ma69b8aae5a" x="405.146576" y="155.500321" style="fill: #fde725; stroke: #fde725"/>
     <use xlink:href="#ma69b8aae5a" x="407.739587" y="157.986928" style="fill: #fde725; stroke: #fde725"/>
     <use xlink:href="#ma69b8aae5a" x="410.332597" y="160.462248" style="fill: #fde725; stroke: #fde725"/>
     <use xlink:href="#ma69b8aae5a" x="412.925608" y="162.927225" style="fill: #fde725; stroke: #fde725"/>
     <use xlink:href="#ma69b8aae5a" x="415.518618" y="165.382695" style="fill: #fde725; stroke: #fde725"/>
    </g>
   </g>
   <g id="patch_8">
    <path d="M 279.385572 155.94 
L 279.385572 19.44 
" style="fill: none; stroke: #000000; stroke-width: 0.8; stroke-linejoin: miter; stroke-linecap: square"/>
   </g>
   <g id="patch_9">
    <path d="M 422.001144 155.94 
L 422.001144 19.44 
" style="fill: none; stroke: #000000; stroke-width: 0.8; stroke-linejoin: miter; stroke-linecap: square"/>
   </g>
   <g id="patch_10">
    <path d="M 279.385572 155.94 
L 422.001144 155.94 
" style="fill: none; stroke: #000000; stroke-width: 0.8; stroke-linejoin: miter; stroke-linecap: square"/>
   </g>
   <g id="patch_11">
    <path d="M 279.385572 19.44 
L 422.001144 19.44 
" style="fill: none; stroke: #000000; stroke-width: 0.8; stroke-linejoin: miter; stroke-linecap: square"/>
   </g>
   <g id="legend_1">
    <g id="patch_12">
     <path d="M 431.291923 53.233875 
L 480.107923 53.233875 
Q 482.267923 53.233875 482.267923 51.073875 
L 482.267923 21.6 
Q 482.267923 19.44 480.107923 19.44 
L 431.291923 19.44 
Q 429.131923 19.44 429.131923 21.6 
L 429.131923 51.073875 
Q 429.131923 53.233875 431.291923 53.233875 
z
" style="fill: #ffffff; opacity: 0.8; stroke: #cccccc; stroke-linejoin: miter"/>
    </g>
    <g id="line2d_15">
     <g>
      <use xlink:href="#m212b891afc" x="444.251923" y="27.710438" style="fill: #440154; stroke: #440154"/>
     </g>
    </g>
    <g id="text_15">
     <!-- $\omega_{0}$ -->
     <g transform="translate(463.691923 31.490438) scale(0.108 -0.108)">
      <defs>
       <path id="DejaVuSans-30" d="M 2034 4250 
Q 1547 4250 1301 3770 
Q 1056 3291 1056 2328 
Q 1056 1369 1301 889 
Q 1547 409 2034 409 
Q 2525 409 2770 889 
Q 3016 1369 3016 2328 
Q 3016 3291 2770 3770 
Q 2525 4250 2034 4250 
z
M 2034 4750 
Q 2819 4750 3233 4129 
Q 3647 3509 3647 2328 
Q 3647 1150 3233 529 
Q 2819 -91 2034 -91 
Q 1250 -91 836 529 
Q 422 1150 422 2328 
Q 422 3509 836 4129 
Q 1250 4750 2034 4750 
z
" transform="scale(0.015625)"/>
      </defs>
      <use xlink:href="#DejaVuSans-Oblique-3c9" transform="translate(0 0.3125)"/>
      <use xlink:href="#DejaVuSans-30" transform="translate(83.740234 -16.09375) scale(0.7)"/>
     </g>
    </g>
    <g id="line2d_16">
     <g>
      <use xlink:href="#ma69b8aae5a" x="444.251923" y="42.987375" style="fill: #fde725; stroke: #fde725"/>
     </g>
    </g>
    <g id="text_16">
     <!-- $\omega_{1}$ -->
     <g transform="translate(463.691923 46.767375) scale(0.108 -0.108)">
      <defs>
       <path id="DejaVuSans-31" d="M 794 531 
L 1825 531 
L 1825 4091 
L 703 3866 
L 703 4441 
L 1819 4666 
L 2450 4666 
L 2450 531 
L 3481 531 
L 3481 0 
L 794 0 
L 794 531 
z
" transform="scale(0.015625)"/>
      </defs>
      <use xlink:href="#DejaVuSans-Oblique-3c9" transform="translate(0 0.3125)"/>
      <use xlink:href="#DejaVuSans-31" transform="translate(83.740234 -16.09375) scale(0.7)"/>
     </g>
    </g>
   </g>
  </g>
 </g>
 <defs>
  <clipPath id="pbec0827a0e">
   <rect x="70.59" y="19.44" width="142.615572" height="136.5"/>
  </clipPath>
  <clipPath id="p920362f3e3">
   <rect x="279.385572" y="19.44" width="142.615572" height="136.5"/>
  </clipPath>
 </defs>
</svg>
