<?xml version="1.0" encoding="utf-8" standalone="no"?>
<!DOCTYPE svg PUBLIC "-//W3C//DTD SVG 1.1//EN"
  "http://www.w3.org/Graphics/SVG/1.1/DTD/svg11.dtd">
<svg xmlns:xlink="http://www.w3.org/1999/xlink" width="288pt" height="216pt" viewBox="0 0 288 216" xmlns="http://www.w3.org/2000/svg" version="1.1">
 <metadata>
  <rdf:RDF xmlns:dc="http://purl.org/dc/elements/1.1/" xmlns:cc="http://creativecommons.org/ns#" xmlns:rdf="http://www.w3.org/1999/02/22-rdf-syntax-ns#">
   <cc:Work>
    <dc:type rdf:resource="http://purl.org/dc/dcmitype/StillImage"/>
    <dc:date>2024-01-29T16:18:21.477022</dc:date>
    <dc:format>image/svg+xml</dc:format>
    <dc:creator>
     <cc:Agent>
      <dc:title>Matplotlib v3.7.2, https://matplotlib.org/</dc:title>
     </cc:Agent>
    </dc:creator>
   </cc:Work>
  </rdf:RDF>
 </metadata>
 <defs>
  <style type="text/css">*{stroke-linejoin: round; stroke-linecap: butt}</style>
 </defs>
 <g id="figure_1">
  <g id="patch_1">
   <path d="M 0 216 
L 288 216 
L 288 0 
L 0 0 
L 0 216 
z
" style="fill: none"/>
  </g>
  <g id="axes_1">
   <g id="patch_2">
    <path d="M 68.43 155.94 
L 258.57 155.94 
L 258.57 19.44 
L 68.43 19.44 
L 68.43 155.94 
z
" style="fill: none"/>
   </g>
   <g id="matplotlib.axis_1">
    <g id="xtick_1">
     <g id="line2d_1">
      <defs>
       <path id="mdfc1688ed2" d="M 0 0 
L 0 -3.5 
" style="stroke: #000000; stroke-width: 0.8"/>
      </defs>
      <g>
       <use xlink:href="#mdfc1688ed2" x="68.43" y="155.94" style="stroke: #000000; stroke-width: 0.8"/>
      </g>
     </g>
     <g id="text_1">
      <!-- 0 -->
      <g transform="translate(63.425156 172.324062) scale(0.18 -0.18)">
       <defs>
        <path id="ArialMT-30" d="M 266 2259 
Q 266 3072 433 3567 
Q 600 4063 929 4331 
Q 1259 4600 1759 4600 
Q 2128 4600 2406 4451 
Q 2684 4303 2865 4023 
Q 3047 3744 3150 3342 
Q 3253 2941 3253 2259 
Q 3253 1453 3087 958 
Q 2922 463 2592 192 
Q 2263 -78 1759 -78 
Q 1097 -78 719 397 
Q 266 969 266 2259 
z
M 844 2259 
Q 844 1131 1108 757 
Q 1372 384 1759 384 
Q 2147 384 2411 759 
Q 2675 1134 2675 2259 
Q 2675 3391 2411 3762 
Q 2147 4134 1753 4134 
Q 1366 4134 1134 3806 
Q 844 3388 844 2259 
z
" transform="scale(0.015625)"/>
       </defs>
       <use xlink:href="#ArialMT-30"/>
      </g>
     </g>
    </g>
    <g id="xtick_2">
     <g id="line2d_2">
      <g>
       <use xlink:href="#mdfc1688ed2" x="163.5" y="155.94" style="stroke: #000000; stroke-width: 0.8"/>
      </g>
     </g>
     <g id="text_2">
      <!-- 10 -->
      <g transform="translate(153.490312 172.324062) scale(0.18 -0.18)">
       <defs>
        <path id="ArialMT-31" d="M 2384 0 
L 1822 0 
L 1822 3584 
Q 1619 3391 1289 3197 
Q 959 3003 697 2906 
L 697 3450 
Q 1169 3672 1522 3987 
Q 1875 4303 2022 4600 
L 2384 4600 
L 2384 0 
z
" transform="scale(0.015625)"/>
       </defs>
       <use xlink:href="#ArialMT-31"/>
       <use xlink:href="#ArialMT-30" x="55.615234"/>
      </g>
     </g>
    </g>
    <g id="xtick_3">
     <g id="line2d_3">
      <g>
       <use xlink:href="#mdfc1688ed2" x="258.57" y="155.94" style="stroke: #000000; stroke-width: 0.8"/>
      </g>
     </g>
     <g id="text_3">
      <!-- 20 -->
      <g transform="translate(248.560312 172.324062) scale(0.18 -0.18)">
       <defs>
        <path id="ArialMT-32" d="M 3222 541 
L 3222 0 
L 194 0 
Q 188 203 259 391 
Q 375 700 629 1000 
Q 884 1300 1366 1694 
Q 2113 2306 2375 2664 
Q 2638 3022 2638 3341 
Q 2638 3675 2398 3904 
Q 2159 4134 1775 4134 
Q 1369 4134 1125 3890 
Q 881 3647 878 3216 
L 300 3275 
Q 359 3922 746 4261 
Q 1134 4600 1788 4600 
Q 2447 4600 2831 4234 
Q 3216 3869 3216 3328 
Q 3216 3053 3103 2787 
Q 2991 2522 2730 2228 
Q 2469 1934 1863 1422 
Q 1356 997 1212 845 
Q 1069 694 975 541 
L 3222 541 
z
" transform="scale(0.015625)"/>
       </defs>
       <use xlink:href="#ArialMT-32"/>
       <use xlink:href="#ArialMT-30" x="55.615234"/>
      </g>
     </g>
    </g>
    <g id="text_4">
     <!-- $t$ -->
     <g transform="translate(159.9 192.785625) scale(0.18 -0.18)">
      <defs>
       <path id="DejaVuSans-Oblique-74" d="M 2706 3500 
L 2619 3053 
L 1472 3053 
L 1100 1153 
Q 1081 1047 1072 975 
Q 1063 903 1063 863 
Q 1063 663 1183 572 
Q 1303 481 1569 481 
L 2150 481 
L 2053 0 
L 1503 0 
Q 991 0 739 200 
Q 488 400 488 806 
Q 488 878 497 964 
Q 506 1050 525 1153 
L 897 3053 
L 409 3053 
L 500 3500 
L 978 3500 
L 1172 4494 
L 1747 4494 
L 1556 3500 
L 2706 3500 
z
" transform="scale(0.015625)"/>
      </defs>
      <use xlink:href="#DejaVuSans-Oblique-74" transform="translate(0 0.78125)"/>
     </g>
    </g>
   </g>
   <g id="matplotlib.axis_2">
    <g id="ytick_1">
     <g id="line2d_4">
      <defs>
       <path id="m15583212a3" d="M 0 0 
L 3.5 0 
" style="stroke: #000000; stroke-width: 0.8"/>
      </defs>
      <g>
       <use xlink:href="#m15583212a3" x="68.43" y="149.735455" style="stroke: #000000; stroke-width: 0.8"/>
      </g>
     </g>
     <g id="text_5">
      <!-- 0.0 -->
      <g transform="translate(39.91 156.177486) scale(0.18 -0.18)">
       <defs>
        <path id="ArialMT-2e" d="M 581 0 
L 581 641 
L 1222 641 
L 1222 0 
L 581 0 
z
" transform="scale(0.015625)"/>
       </defs>
       <use xlink:href="#ArialMT-30"/>
       <use xlink:href="#ArialMT-2e" x="55.615234"/>
       <use xlink:href="#ArialMT-30" x="83.398438"/>
      </g>
     </g>
    </g>
    <g id="ytick_2">
     <g id="line2d_5">
      <g>
       <use xlink:href="#m15583212a3" x="68.43" y="87.69" style="stroke: #000000; stroke-width: 0.8"/>
      </g>
     </g>
     <g id="text_6">
      <!-- 0.5 -->
      <g transform="translate(39.91 94.132031) scale(0.18 -0.18)">
       <defs>
        <path id="ArialMT-35" d="M 266 1200 
L 856 1250 
Q 922 819 1161 601 
Q 1400 384 1738 384 
Q 2144 384 2425 690 
Q 2706 997 2706 1503 
Q 2706 1984 2436 2262 
Q 2166 2541 1728 2541 
Q 1456 2541 1237 2417 
Q 1019 2294 894 2097 
L 366 2166 
L 809 4519 
L 3088 4519 
L 3088 3981 
L 1259 3981 
L 1013 2750 
Q 1425 3038 1878 3038 
Q 2478 3038 2890 2622 
Q 3303 2206 3303 1553 
Q 3303 931 2941 478 
Q 2500 -78 1738 -78 
Q 1113 -78 717 272 
Q 322 622 266 1200 
z
" transform="scale(0.015625)"/>
       </defs>
       <use xlink:href="#ArialMT-30"/>
       <use xlink:href="#ArialMT-2e" x="55.615234"/>
       <use xlink:href="#ArialMT-35" x="83.398438"/>
      </g>
     </g>
    </g>
    <g id="ytick_3">
     <g id="line2d_6">
      <g>
       <use xlink:href="#m15583212a3" x="68.43" y="25.644545" style="stroke: #000000; stroke-width: 0.8"/>
      </g>
     </g>
     <g id="text_7">
      <!-- 1.0 -->
      <g transform="translate(39.91 32.086577) scale(0.18 -0.18)">
       <use xlink:href="#ArialMT-31"/>
       <use xlink:href="#ArialMT-2e" x="55.615234"/>
       <use xlink:href="#ArialMT-30" x="83.398438"/>
      </g>
     </g>
    </g>
    <g id="text_8">
     <!-- $r_i$ -->
     <g transform="translate(32.3325 93.45) rotate(-90) scale(0.18 -0.18)">
      <defs>
       <path id="DejaVuSans-Oblique-72" d="M 2853 2969 
Q 2766 3016 2653 3041 
Q 2541 3066 2413 3066 
Q 1953 3066 1609 2717 
Q 1266 2369 1153 1784 
L 800 0 
L 225 0 
L 909 3500 
L 1484 3500 
L 1375 2956 
Q 1603 3259 1920 3421 
Q 2238 3584 2597 3584 
Q 2691 3584 2781 3573 
Q 2872 3563 2963 3538 
L 2853 2969 
z
" transform="scale(0.015625)"/>
       <path id="DejaVuSans-Oblique-69" d="M 1172 4863 
L 1747 4863 
L 1606 4134 
L 1031 4134 
L 1172 4863 
z
M 909 3500 
L 1484 3500 
L 800 0 
L 225 0 
L 909 3500 
z
" transform="scale(0.015625)"/>
      </defs>
      <use xlink:href="#DejaVuSans-Oblique-72"/>
      <use xlink:href="#DejaVuSans-Oblique-69" transform="translate(41.113281 -16.40625) scale(0.7)"/>
     </g>
    </g>
   </g>
   <g id="line2d_7">
    <path d="M 68.43 25.644545 
L 69.19094 42.734792 
L 70.046998 56.837686 
L 70.903057 67.403374 
L 71.854232 76.579547 
L 72.995643 85.452434 
L 74.327289 94.015835 
L 75.754052 101.760418 
L 77.275933 108.770319 
L 78.797814 114.702444 
L 80.319695 119.714832 
L 81.841576 123.944753 
L 83.363457 127.515199 
L 84.885338 130.534271 
L 86.502336 133.24129 
L 88.119335 135.523156 
L 89.831451 137.559916 
L 91.638684 139.364523 
L 93.541036 140.952952 
L 95.633622 142.402332 
L 97.821326 143.64868 
L 100.199265 144.753359 
L 102.862556 145.744459 
L 105.811201 146.603842 
L 109.235433 147.361969 
L 113.135253 147.993343 
L 117.891131 148.528781 
L 123.788419 148.958843 
L 131.588059 149.292976 
L 142.811931 149.533685 
L 161.16962 149.678431 
L 203.401816 149.732314 
L 258.57 149.735383 
L 258.57 149.735383 
" clip-path="url(#pfec3fc69b6)" style="fill: none; stroke: #000000; stroke-width: 1.5; stroke-linecap: square"/>
   </g>
   <g id="line2d_8">
    <path d="M 68.43 149.735455 
L 69.095823 135.601477 
L 69.666528 127.616702 
L 70.237234 122.357887 
L 70.807939 119.079074 
L 71.283527 117.457402 
L 71.759115 116.585124 
L 72.139585 116.299609 
L 72.520055 116.297042 
L 72.900525 116.515398 
L 73.471231 117.149462 
L 74.232171 118.372617 
L 75.563817 121.004084 
L 78.512461 126.8898 
L 80.319695 129.956845 
L 82.031811 132.439819 
L 83.839045 134.673325 
L 85.741396 136.669826 
L 87.738864 138.450759 
L 89.926568 140.105063 
L 92.304507 141.621922 
L 94.872681 142.994243 
L 97.631091 144.216659 
L 100.674852 145.316771 
L 104.003967 146.275575 
L 107.713552 147.102915 
L 111.898724 147.800062 
L 116.74972 148.376797 
L 122.647009 148.846786 
L 130.256413 149.21691 
L 140.624227 149.483581 
L 156.699095 149.652238 
L 189.2293 149.726539 
L 258.57 149.735378 
L 258.57 149.735378 
" clip-path="url(#pfec3fc69b6)" style="fill: none; stroke: #808080; stroke-width: 1.5; stroke-linecap: square"/>
   </g>
   <g id="line2d_9">
    <path d="M 68.43 149.735455 
L 68.620235 149.642558 
L 68.905588 149.209334 
L 69.381176 147.944764 
L 70.332351 144.496362 
L 71.759115 139.445263 
L 72.71029 136.877631 
L 73.566348 135.185396 
L 74.327289 134.121754 
L 75.088229 133.406952 
L 75.84917 132.976205 
L 76.705228 132.758055 
L 77.656403 132.764313 
L 78.797814 133.015019 
L 80.224577 133.567958 
L 82.317164 134.639006 
L 86.597454 137.146526 
L 91.924037 140.187573 
L 95.728739 142.09947 
L 99.248089 143.616026 
L 102.672321 144.851796 
L 106.286788 145.915853 
L 110.091491 146.802384 
L 114.371781 147.563926 
L 119.222776 148.193124 
L 124.92983 148.703362 
L 132.063647 149.108794 
L 141.575403 149.4115 
L 155.462566 149.611011 
L 180.383367 149.712983 
L 258.57 149.73535 
L 258.57 149.73535 
" clip-path="url(#pfec3fc69b6)" style="fill: none; stroke: #808080; stroke-width: 1.5; stroke-linecap: square"/>
   </g>
   <g id="line2d_10">
    <path d="M 68.43 149.735455 
L 69.286058 149.646988 
L 69.951881 149.342144 
L 70.712821 148.71199 
L 71.663997 147.609166 
L 76.134522 141.984805 
L 77.466168 140.859803 
L 78.702696 140.09028 
L 80.034342 139.527569 
L 81.365988 139.203225 
L 82.792751 139.077122 
L 84.40975 139.158104 
L 86.312101 139.486085 
L 88.69004 140.139899 
L 92.114272 141.338776 
L 100.76997 144.446747 
L 104.955143 145.659633 
L 109.140315 146.634569 
L 113.61084 147.439755 
L 118.556953 148.098701 
L 124.359125 148.638554 
L 131.397824 149.061194 
L 140.624227 149.378807 
L 153.845568 149.591887 
L 176.673782 149.705526 
L 245.348659 149.735186 
L 258.57 149.735346 
L 258.57 149.735346 
" clip-path="url(#pfec3fc69b6)" style="fill: none; stroke: #808080; stroke-width: 1.5; stroke-linecap: square"/>
   </g>
   <g id="line2d_11">
    <path d="M 68.43 149.735455 
L 70.522586 149.637679 
L 71.663997 149.345148 
L 72.805408 148.810421 
L 74.137054 147.924301 
L 76.324757 146.145273 
L 78.988049 144.053356 
L 80.700165 142.990651 
L 82.317164 142.251075 
L 83.934162 141.768401 
L 85.551161 141.519892 
L 87.358394 141.4774 
L 89.355863 141.65847 
L 91.828919 142.117277 
L 95.348269 143.023094 
L 106.191671 145.949437 
L 110.852431 146.905475 
L 115.703427 147.673787 
L 121.125128 148.302425 
L 127.498004 148.807226 
L 135.297644 149.192073 
L 145.760575 149.470891 
L 161.454972 149.645498 
L 192.273062 149.724617 
L 258.57 149.73534 
L 258.57 149.73534 
" clip-path="url(#pfec3fc69b6)" style="fill: none; stroke: #808080; stroke-width: 1.5; stroke-linecap: square"/>
   </g>
   <g id="patch_3">
    <path d="M 68.43 155.94 
L 68.43 19.44 
" style="fill: none; stroke: #000000; stroke-width: 0.8; stroke-linejoin: miter; stroke-linecap: square"/>
   </g>
   <g id="patch_4">
    <path d="M 258.57 155.94 
L 258.57 19.44 
" style="fill: none; stroke: #000000; stroke-width: 0.8; stroke-linejoin: miter; stroke-linecap: square"/>
   </g>
   <g id="patch_5">
    <path d="M 68.43 155.94 
L 258.57 155.94 
" style="fill: none; stroke: #000000; stroke-width: 0.8; stroke-linejoin: miter; stroke-linecap: square"/>
   </g>
   <g id="patch_6">
    <path d="M 68.43 19.44 
L 258.57 19.44 
" style="fill: none; stroke: #000000; stroke-width: 0.8; stroke-linejoin: miter; stroke-linecap: square"/>
   </g>
  </g>
 </g>
 <defs>
  <clipPath id="pfec3fc69b6">
   <rect x="68.43" y="19.44" width="190.14" height="136.5"/>
  </clipPath>
 </defs>
</svg>
