<?xml version="1.0" encoding="utf-8" standalone="no"?>
<!DOCTYPE svg PUBLIC "-//W3C//DTD SVG 1.1//EN"
  "http://www.w3.org/Graphics/SVG/1.1/DTD/svg11.dtd">
<svg xmlns:xlink="http://www.w3.org/1999/xlink" width="288pt" height="216pt" viewBox="0 0 288 216" xmlns="http://www.w3.org/2000/svg" version="1.1">
 <metadata>
  <rdf:RDF xmlns:dc="http://purl.org/dc/elements/1.1/" xmlns:cc="http://creativecommons.org/ns#" xmlns:rdf="http://www.w3.org/1999/02/22-rdf-syntax-ns#">
   <cc:Work>
    <dc:type rdf:resource="http://purl.org/dc/dcmitype/StillImage"/>
    <dc:date>2024-01-29T16:18:21.643724</dc:date>
    <dc:format>image/svg+xml</dc:format>
    <dc:creator>
     <cc:Agent>
      <dc:title>Matplotlib v3.7.2, https://matplotlib.org/</dc:title>
     </cc:Agent>
    </dc:creator>
   </cc:Work>
  </rdf:RDF>
 </metadata>
 <defs>
  <style type="text/css">*{stroke-linejoin: round; stroke-linecap: butt}</style>
 </defs>
 <g id="figure_1">
  <g id="patch_1">
   <path d="M 0 216 
L 288 216 
L 288 0 
L 0 0 
L 0 216 
z
" style="fill: none"/>
  </g>
  <g id="axes_1">
   <g id="patch_2">
    <path d="M 70.734 155.94 
L 258.57 155.94 
L 258.57 25.92 
L 70.734 25.92 
L 70.734 155.94 
z
" style="fill: none"/>
   </g>
   <g id="matplotlib.axis_1">
    <g id="xtick_1">
     <g id="line2d_1">
      <defs>
       <path id="me5758e6a1b" d="M 0 0 
L 0 -3.5 
" style="stroke: #000000; stroke-width: 0.8"/>
      </defs>
      <g>
       <use xlink:href="#me5758e6a1b" x="70.734" y="155.94" style="stroke: #000000; stroke-width: 0.8"/>
      </g>
     </g>
     <g id="text_1">
      <!-- 0 -->
      <g transform="translate(65.729156 172.324062) scale(0.18 -0.18)">
       <defs>
        <path id="ArialMT-30" d="M 266 2259 
Q 266 3072 433 3567 
Q 600 4063 929 4331 
Q 1259 4600 1759 4600 
Q 2128 4600 2406 4451 
Q 2684 4303 2865 4023 
Q 3047 3744 3150 3342 
Q 3253 2941 3253 2259 
Q 3253 1453 3087 958 
Q 2922 463 2592 192 
Q 2263 -78 1759 -78 
Q 1097 -78 719 397 
Q 266 969 266 2259 
z
M 844 2259 
Q 844 1131 1108 757 
Q 1372 384 1759 384 
Q 2147 384 2411 759 
Q 2675 1134 2675 2259 
Q 2675 3391 2411 3762 
Q 2147 4134 1753 4134 
Q 1366 4134 1134 3806 
Q 844 3388 844 2259 
z
" transform="scale(0.015625)"/>
       </defs>
       <use xlink:href="#ArialMT-30"/>
      </g>
     </g>
    </g>
    <g id="xtick_2">
     <g id="line2d_2">
      <g>
       <use xlink:href="#me5758e6a1b" x="164.652" y="155.94" style="stroke: #000000; stroke-width: 0.8"/>
      </g>
     </g>
     <g id="text_2">
      <!-- 10 -->
      <g transform="translate(154.642313 172.324062) scale(0.18 -0.18)">
       <defs>
        <path id="ArialMT-31" d="M 2384 0 
L 1822 0 
L 1822 3584 
Q 1619 3391 1289 3197 
Q 959 3003 697 2906 
L 697 3450 
Q 1169 3672 1522 3987 
Q 1875 4303 2022 4600 
L 2384 4600 
L 2384 0 
z
" transform="scale(0.015625)"/>
       </defs>
       <use xlink:href="#ArialMT-31"/>
       <use xlink:href="#ArialMT-30" x="55.615234"/>
      </g>
     </g>
    </g>
    <g id="xtick_3">
     <g id="line2d_3">
      <g>
       <use xlink:href="#me5758e6a1b" x="258.57" y="155.94" style="stroke: #000000; stroke-width: 0.8"/>
      </g>
     </g>
     <g id="text_3">
      <!-- 20 -->
      <g transform="translate(248.560313 172.324062) scale(0.18 -0.18)">
       <defs>
        <path id="ArialMT-32" d="M 3222 541 
L 3222 0 
L 194 0 
Q 188 203 259 391 
Q 375 700 629 1000 
Q 884 1300 1366 1694 
Q 2113 2306 2375 2664 
Q 2638 3022 2638 3341 
Q 2638 3675 2398 3904 
Q 2159 4134 1775 4134 
Q 1369 4134 1125 3890 
Q 881 3647 878 3216 
L 300 3275 
Q 359 3922 746 4261 
Q 1134 4600 1788 4600 
Q 2447 4600 2831 4234 
Q 3216 3869 3216 3328 
Q 3216 3053 3103 2787 
Q 2991 2522 2730 2228 
Q 2469 1934 1863 1422 
Q 1356 997 1212 845 
Q 1069 694 975 541 
L 3222 541 
z
" transform="scale(0.015625)"/>
       </defs>
       <use xlink:href="#ArialMT-32"/>
       <use xlink:href="#ArialMT-30" x="55.615234"/>
      </g>
     </g>
    </g>
    <g id="text_4">
     <!-- $t$ -->
     <g transform="translate(161.052 192.785625) scale(0.18 -0.18)">
      <defs>
       <path id="DejaVuSans-Oblique-74" d="M 2706 3500 
L 2619 3053 
L 1472 3053 
L 1100 1153 
Q 1081 1047 1072 975 
Q 1063 903 1063 863 
Q 1063 663 1183 572 
Q 1303 481 1569 481 
L 2150 481 
L 2053 0 
L 1503 0 
Q 991 0 739 200 
Q 488 400 488 806 
Q 488 878 497 964 
Q 506 1050 525 1153 
L 897 3053 
L 409 3053 
L 500 3500 
L 978 3500 
L 1172 4494 
L 1747 4494 
L 1556 3500 
L 2706 3500 
z
" transform="scale(0.015625)"/>
      </defs>
      <use xlink:href="#DejaVuSans-Oblique-74" transform="translate(0 0.78125)"/>
     </g>
    </g>
   </g>
   <g id="matplotlib.axis_2">
    <g id="ytick_1">
     <g id="line2d_4">
      <defs>
       <path id="m8dc7eb63bc" d="M 0 0 
L 3.5 0 
" style="stroke: #000000; stroke-width: 0.8"/>
      </defs>
      <g>
       <use xlink:href="#m8dc7eb63bc" x="70.734" y="155.94" style="stroke: #000000; stroke-width: 0.8"/>
      </g>
     </g>
     <g id="text_5">
      <!-- 0 -->
      <g transform="translate(57.224313 162.382031) scale(0.18 -0.18)">
       <use xlink:href="#ArialMT-30"/>
      </g>
     </g>
    </g>
    <g id="ytick_2">
     <g id="line2d_5">
      <g>
       <use xlink:href="#m8dc7eb63bc" x="70.734" y="90.93" style="stroke: #000000; stroke-width: 0.8"/>
      </g>
     </g>
     <g id="text_6">
      <!-- 1 -->
      <g transform="translate(57.224313 97.372031) scale(0.18 -0.18)">
       <use xlink:href="#ArialMT-31"/>
      </g>
     </g>
    </g>
    <g id="ytick_3">
     <g id="line2d_6">
      <g>
       <use xlink:href="#m8dc7eb63bc" x="70.734" y="25.92" style="stroke: #000000; stroke-width: 0.8"/>
      </g>
     </g>
     <g id="text_7">
      <!-- 2 -->
      <g transform="translate(57.224313 32.362031) scale(0.18 -0.18)">
       <use xlink:href="#ArialMT-32"/>
      </g>
     </g>
    </g>
    <g id="text_8">
     <!-- $r_i / r_0$ -->
     <g transform="translate(49.646813 107.67) rotate(-90) scale(0.18 -0.18)">
      <defs>
       <path id="DejaVuSans-Oblique-72" d="M 2853 2969 
Q 2766 3016 2653 3041 
Q 2541 3066 2413 3066 
Q 1953 3066 1609 2717 
Q 1266 2369 1153 1784 
L 800 0 
L 225 0 
L 909 3500 
L 1484 3500 
L 1375 2956 
Q 1603 3259 1920 3421 
Q 2238 3584 2597 3584 
Q 2691 3584 2781 3573 
Q 2872 3563 2963 3538 
L 2853 2969 
z
" transform="scale(0.015625)"/>
       <path id="DejaVuSans-Oblique-69" d="M 1172 4863 
L 1747 4863 
L 1606 4134 
L 1031 4134 
L 1172 4863 
z
M 909 3500 
L 1484 3500 
L 800 0 
L 225 0 
L 909 3500 
z
" transform="scale(0.015625)"/>
       <path id="DejaVuSans-2f" d="M 1625 4666 
L 2156 4666 
L 531 -594 
L 0 -594 
L 1625 4666 
z
" transform="scale(0.015625)"/>
       <path id="DejaVuSans-30" d="M 2034 4250 
Q 1547 4250 1301 3770 
Q 1056 3291 1056 2328 
Q 1056 1369 1301 889 
Q 1547 409 2034 409 
Q 2525 409 2770 889 
Q 3016 1369 3016 2328 
Q 3016 3291 2770 3770 
Q 2525 4250 2034 4250 
z
M 2034 4750 
Q 2819 4750 3233 4129 
Q 3647 3509 3647 2328 
Q 3647 1150 3233 529 
Q 2819 -91 2034 -91 
Q 1250 -91 836 529 
Q 422 1150 422 2328 
Q 422 3509 836 4129 
Q 1250 4750 2034 4750 
z
" transform="scale(0.015625)"/>
      </defs>
      <use xlink:href="#DejaVuSans-Oblique-72" transform="translate(0 0.09375)"/>
      <use xlink:href="#DejaVuSans-Oblique-69" transform="translate(41.113281 -16.3125) scale(0.7)"/>
      <use xlink:href="#DejaVuSans-2f" transform="translate(63.295898 0.09375)"/>
      <use xlink:href="#DejaVuSans-Oblique-72" transform="translate(96.987305 0.09375)"/>
      <use xlink:href="#DejaVuSans-30" transform="translate(138.100586 -16.3125) scale(0.7)"/>
     </g>
    </g>
   </g>
   <g id="line2d_7">
    <path d="M 70.734 90.93 
L 258.57 90.93 
L 258.57 90.93 
" clip-path="url(#pf879195e0a)" style="fill: none; stroke: #000000; stroke-width: 1.5; stroke-linecap: square"/>
   </g>
   <g id="line2d_8">
    <path d="M 70.734 155.94 
L 71.767615 143.293132 
L 72.6133 135.468722 
L 73.458984 129.706878 
L 74.210704 125.985759 
L 74.962424 123.255133 
L 75.808109 121.024307 
L 76.653794 119.390385 
L 77.687409 117.890015 
L 79.002918 116.401841 
L 81.352043 114.154981 
L 87.271837 108.52445 
L 92.533876 103.572798 
L 95.916615 100.699211 
L 99.111425 98.272127 
L 102.306234 96.118371 
L 105.595009 94.165986 
L 108.977748 92.419017 
L 112.360487 90.925865 
L 115.743227 89.679842 
L 119.125966 88.671834 
L 122.60267 87.866426 
L 126.36127 87.227292 
L 130.589694 86.743325 
L 135.569838 86.408252 
L 142.053422 86.209764 
L 152.483535 86.14221 
L 258.57 86.183856 
L 258.57 86.183856 
" clip-path="url(#pf879195e0a)" style="fill: none; stroke: #808080; stroke-width: 1.5; stroke-linecap: square"/>
   </g>
   <g id="line2d_9">
    <path d="M 70.734 155.94 
L 71.015895 155.82769 
L 71.391755 155.362962 
L 71.86158 154.36992 
L 72.6133 152.115697 
L 73.928809 147.258383 
L 76.277934 138.666924 
L 78.063269 133.003612 
L 80.224463 126.911013 
L 83.419273 118.643545 
L 87.647697 108.300952 
L 90.936471 100.808602 
L 93.755421 94.939333 
L 96.38644 89.981269 
L 98.923495 85.674841 
L 101.460549 81.808408 
L 103.997604 78.349392 
L 106.534658 75.268219 
L 109.071713 72.541786 
L 111.514802 70.235313 
L 113.957892 68.22854 
L 116.400981 66.508011 
L 118.844071 65.057704 
L 121.381126 63.816421 
L 124.012145 62.786191 
L 126.73713 61.960061 
L 129.744009 61.286897 
L 133.126748 60.767082 
L 137.073278 60.394412 
L 142.053422 60.158871 
L 149.288725 60.059967 
L 167.799827 60.116552 
L 211.493544 60.15294 
L 258.57 60.152734 
L 258.57 60.152734 
" clip-path="url(#pf879195e0a)" style="fill: none; stroke: #808080; stroke-width: 1.5; stroke-linecap: square"/>
   </g>
   <g id="line2d_10">
    <path d="M 70.734 155.94 
L 71.767615 155.843585 
L 72.42537 155.567764 
L 73.083125 155.066385 
L 73.834844 154.218085 
L 74.774494 152.795178 
L 75.902074 150.667835 
L 77.405514 147.320292 
L 79.378778 142.32944 
L 82.009798 135.004635 
L 92.345946 105.502596 
L 94.976965 99.053219 
L 97.51402 93.412972 
L 100.051075 88.314472 
L 102.588129 83.71529 
L 105.125184 79.574803 
L 107.662238 75.861923 
L 110.105328 72.671141 
L 112.548417 69.84497 
L 114.897542 67.461588 
L 117.246666 65.394857 
L 119.595791 63.630362 
L 121.944915 62.149013 
L 124.29404 60.92717 
L 126.73713 59.902467 
L 129.368149 59.042119 
L 132.187099 58.353994 
L 135.381908 57.806416 
L 139.140507 57.39694 
L 143.838756 57.123511 
L 150.32234 56.987279 
L 162.913648 56.992484 
L 206.88926 57.055235 
L 258.57 57.055094 
L 258.57 57.055094 
" clip-path="url(#pf879195e0a)" style="fill: none; stroke: #808080; stroke-width: 1.5; stroke-linecap: square"/>
   </g>
   <g id="line2d_11">
    <path d="M 70.734 155.94 
L 72.98916 155.839634 
L 74.022774 155.565985 
L 74.962424 155.085842 
L 75.902074 154.344268 
L 76.841724 153.322817 
L 77.875339 151.872973 
L 79.096883 149.735852 
L 80.412393 146.965497 
L 82.009798 143.044243 
L 83.983063 137.553978 
L 86.802012 128.969869 
L 93.379561 108.738763 
L 96.292475 100.593298 
L 99.01746 93.611911 
L 101.648479 87.465325 
L 104.279499 81.886608 
L 106.816553 77.027899 
L 109.259643 72.820793 
L 111.608767 69.204662 
L 113.863927 66.122872 
L 116.119087 63.414591 
L 118.280281 61.158157 
L 120.441476 59.217695 
L 122.60267 57.572889 
L 124.763865 56.199357 
L 127.019025 55.02573 
L 129.368149 54.050132 
L 131.905204 53.236927 
L 134.724153 52.572836 
L 137.918962 52.056953 
L 141.677562 51.68299 
L 146.469776 51.442253 
L 153.423185 51.33814 
L 170.054986 51.388968 
L 209.520279 51.434451 
L 258.57 51.43424 
L 258.57 51.43424 
" clip-path="url(#pf879195e0a)" style="fill: none; stroke: #808080; stroke-width: 1.5; stroke-linecap: square"/>
   </g>
   <g id="patch_3">
    <path d="M 70.734 155.94 
L 70.734 25.92 
" style="fill: none; stroke: #000000; stroke-width: 0.8; stroke-linejoin: miter; stroke-linecap: square"/>
   </g>
   <g id="patch_4">
    <path d="M 258.57 155.94 
L 258.57 25.92 
" style="fill: none; stroke: #000000; stroke-width: 0.8; stroke-linejoin: miter; stroke-linecap: square"/>
   </g>
   <g id="patch_5">
    <path d="M 70.734 155.94 
L 258.57 155.94 
" style="fill: none; stroke: #000000; stroke-width: 0.8; stroke-linejoin: miter; stroke-linecap: square"/>
   </g>
   <g id="patch_6">
    <path d="M 70.734 25.92 
L 258.57 25.92 
" style="fill: none; stroke: #000000; stroke-width: 0.8; stroke-linejoin: miter; stroke-linecap: square"/>
   </g>
  </g>
 </g>
 <defs>
  <clipPath id="pf879195e0a">
   <rect x="70.734" y="25.92" width="187.836" height="130.02"/>
  </clipPath>
 </defs>
</svg>
